<?xml version="1.0" encoding="utf-8" standalone="no"?>
<!DOCTYPE svg PUBLIC "-//W3C//DTD SVG 1.1//EN"
  "http://www.w3.org/Graphics/SVG/1.1/DTD/svg11.dtd">
<!-- Created with matplotlib (http://matplotlib.org/) -->
<svg height="720pt" version="1.1" viewBox="0 0 1296 720" width="1296pt" xmlns="http://www.w3.org/2000/svg" xmlns:xlink="http://www.w3.org/1999/xlink">
 <defs>
  <style type="text/css">
*{stroke-linecap:butt;stroke-linejoin:round;}
  </style>
 </defs>
 <g id="figure_1">
  <g id="patch_1">
   <path d="
M0 720
L1296 720
L1296 0
L0 0
z
" style="fill:#ffffff;"/>
  </g>
  <g id="axes_1">
   <g id="patch_2">
    <path d="
M162 325.636
L1166.4 325.636
L1166.4 72
L162 72
z
" style="fill:#ffffff;"/>
   </g>
   <g id="matplotlib.axis_1">
    <g id="xtick_1">
     <g id="line2d_1">
      <defs>
       <path d="
M0 0
L0 0" id="m48243eeccc" style="stroke:#000000;stroke-width:0.5;"/>
      </defs>
      <g>
       <use style="stroke:#000000;stroke-width:0.5;" x="262.44" xlink:href="#m48243eeccc" y="325.636363636"/>
      </g>
     </g>
     <g id="text_1">
      <!-- 0 -->
      <defs>
       <path d="
M31.7812 66.4062
Q24.1719 66.4062 20.3281 58.9062
Q16.5 51.4219 16.5 36.375
Q16.5 21.3906 20.3281 13.8906
Q24.1719 6.39062 31.7812 6.39062
Q39.4531 6.39062 43.2812 13.8906
Q47.125 21.3906 47.125 36.375
Q47.125 51.4219 43.2812 58.9062
Q39.4531 66.4062 31.7812 66.4062
M31.7812 74.2188
Q44.0469 74.2188 50.5156 64.5156
Q56.9844 54.8281 56.9844 36.375
Q56.9844 17.9688 50.5156 8.26562
Q44.0469 -1.42188 31.7812 -1.42188
Q19.5312 -1.42188 13.0625 8.26562
Q6.59375 17.9688 6.59375 36.375
Q6.59375 54.8281 13.0625 64.5156
Q19.5312 74.2188 31.7812 74.2188" id="BitstreamVeraSans-Roman-30"/>
      </defs>
      <g transform="translate(259.92046875 340.234801136)scale(0.1 -0.1)">
       <use xlink:href="#BitstreamVeraSans-Roman-30"/>
      </g>
     </g>
    </g>
    <g id="xtick_2">
     <g id="line2d_2">
      <g>
       <use style="stroke:#000000;stroke-width:0.5;" x="463.32" xlink:href="#m48243eeccc" y="325.636363636"/>
      </g>
     </g>
     <g id="text_2">
      <!-- 1 -->
      <defs>
       <path d="
M12.4062 8.29688
L28.5156 8.29688
L28.5156 63.9219
L10.9844 60.4062
L10.9844 69.3906
L28.4219 72.9062
L38.2812 72.9062
L38.2812 8.29688
L54.3906 8.29688
L54.3906 0
L12.4062 0
z
" id="BitstreamVeraSans-Roman-31"/>
      </defs>
      <g transform="translate(461.1496875 340.234801136)scale(0.1 -0.1)">
       <use xlink:href="#BitstreamVeraSans-Roman-31"/>
      </g>
     </g>
    </g>
    <g id="xtick_3">
     <g id="line2d_3">
      <g>
       <use style="stroke:#000000;stroke-width:0.5;" x="664.2" xlink:href="#m48243eeccc" y="325.636363636"/>
      </g>
     </g>
     <g id="text_3">
      <!-- 2 -->
      <defs>
       <path d="
M19.1875 8.29688
L53.6094 8.29688
L53.6094 0
L7.32812 0
L7.32812 8.29688
Q12.9375 14.1094 22.625 23.8906
Q32.3281 33.6875 34.8125 36.5312
Q39.5469 41.8438 41.4219 45.5312
Q43.3125 49.2188 43.3125 52.7812
Q43.3125 58.5938 39.2344 62.25
Q35.1562 65.9219 28.6094 65.9219
Q23.9688 65.9219 18.8125 64.3125
Q13.6719 62.7031 7.8125 59.4219
L7.8125 69.3906
Q13.7656 71.7812 18.9375 73
Q24.125 74.2188 28.4219 74.2188
Q39.75 74.2188 46.4844 68.5469
Q53.2188 62.8906 53.2188 53.4219
Q53.2188 48.9219 51.5312 44.8906
Q49.8594 40.875 45.4062 35.4062
Q44.1875 33.9844 37.6406 27.2188
Q31.1094 20.4531 19.1875 8.29688" id="BitstreamVeraSans-Roman-32"/>
      </defs>
      <g transform="translate(661.8859375 340.234801136)scale(0.1 -0.1)">
       <use xlink:href="#BitstreamVeraSans-Roman-32"/>
      </g>
     </g>
    </g>
    <g id="xtick_4">
     <g id="line2d_4">
      <g>
       <use style="stroke:#000000;stroke-width:0.5;" x="865.08" xlink:href="#m48243eeccc" y="325.636363636"/>
      </g>
     </g>
     <g id="text_4">
      <!-- 3 -->
      <defs>
       <path d="
M40.5781 39.3125
Q47.6562 37.7969 51.625 33
Q55.6094 28.2188 55.6094 21.1875
Q55.6094 10.4062 48.1875 4.48438
Q40.7656 -1.42188 27.0938 -1.42188
Q22.5156 -1.42188 17.6562 -0.515625
Q12.7969 0.390625 7.625 2.20312
L7.625 11.7188
Q11.7188 9.32812 16.5938 8.10938
Q21.4844 6.89062 26.8125 6.89062
Q36.0781 6.89062 40.9375 10.5469
Q45.7969 14.2031 45.7969 21.1875
Q45.7969 27.6406 41.2812 31.2656
Q36.7656 34.9062 28.7188 34.9062
L20.2188 34.9062
L20.2188 43.0156
L29.1094 43.0156
Q36.375 43.0156 40.2344 45.9219
Q44.0938 48.8281 44.0938 54.2969
Q44.0938 59.9062 40.1094 62.9062
Q36.1406 65.9219 28.7188 65.9219
Q24.6562 65.9219 20.0156 65.0312
Q15.375 64.1562 9.8125 62.3125
L9.8125 71.0938
Q15.4375 72.6562 20.3438 73.4375
Q25.25 74.2188 29.5938 74.2188
Q40.8281 74.2188 47.3594 69.1094
Q53.9062 64.0156 53.9062 55.3281
Q53.9062 49.2656 50.4375 45.0938
Q46.9688 40.9219 40.5781 39.3125" id="BitstreamVeraSans-Roman-33"/>
      </defs>
      <g transform="translate(862.68078125 340.234801136)scale(0.1 -0.1)">
       <use xlink:href="#BitstreamVeraSans-Roman-33"/>
      </g>
     </g>
    </g>
    <g id="xtick_5">
     <g id="line2d_5">
      <g>
       <use style="stroke:#000000;stroke-width:0.5;" x="1065.96" xlink:href="#m48243eeccc" y="325.636363636"/>
      </g>
     </g>
     <g id="text_5">
      <!-- 4 -->
      <defs>
       <path d="
M37.7969 64.3125
L12.8906 25.3906
L37.7969 25.3906
z

M35.2031 72.9062
L47.6094 72.9062
L47.6094 25.3906
L58.0156 25.3906
L58.0156 17.1875
L47.6094 17.1875
L47.6094 0
L37.7969 0
L37.7969 17.1875
L4.89062 17.1875
L4.89062 26.7031
z
" id="BitstreamVeraSans-Roman-34"/>
      </defs>
      <g transform="translate(1063.30375 340.234801136)scale(0.1 -0.1)">
       <use xlink:href="#BitstreamVeraSans-Roman-34"/>
      </g>
     </g>
    </g>
   </g>
   <g id="matplotlib.axis_2">
    <g id="ytick_1">
     <g id="line2d_6">
      <path clip-path="url(#p55a2aadd3b)" d="
M162 325.636
L1166.4 325.636" style="fill:none;stroke:#ffffff;stroke-linecap:round;stroke-width:0.8;"/>
     </g>
     <g id="line2d_7">
      <g>
       <use style="stroke:#000000;stroke-width:0.5;" x="162.0" xlink:href="#m48243eeccc" y="325.636363636"/>
      </g>
     </g>
     <g id="text_6">
      <!-- −0.1 -->
      <defs>
       <path d="
M10.5938 35.5
L73.1875 35.5
L73.1875 27.2031
L10.5938 27.2031
z
" id="BitstreamVeraSans-Roman-2212"/>
       <path d="
M10.6875 12.4062
L21 12.4062
L21 0
L10.6875 0
z
" id="BitstreamVeraSans-Roman-2e"/>
      </defs>
      <g transform="translate(132.7 328.395738636)scale(0.1 -0.1)">
       <use xlink:href="#BitstreamVeraSans-Roman-2212"/>
       <use x="83.7890625" xlink:href="#BitstreamVeraSans-Roman-30"/>
       <use x="147.412109375" xlink:href="#BitstreamVeraSans-Roman-2e"/>
       <use x="179.19921875" xlink:href="#BitstreamVeraSans-Roman-31"/>
      </g>
     </g>
    </g>
    <g id="ytick_2">
     <g id="line2d_8">
      <path clip-path="url(#p55a2aadd3b)" d="
M162 293.932
L1166.4 293.932" style="fill:none;stroke:#ffffff;stroke-linecap:round;stroke-width:0.8;"/>
     </g>
     <g id="line2d_9">
      <g>
       <use style="stroke:#000000;stroke-width:0.5;" x="162.0" xlink:href="#m48243eeccc" y="293.931818182"/>
      </g>
     </g>
     <g id="text_7">
      <!-- 0.0 -->
      <g transform="translate(140.4203125 296.691193182)scale(0.1 -0.1)">
       <use xlink:href="#BitstreamVeraSans-Roman-30"/>
       <use x="63.623046875" xlink:href="#BitstreamVeraSans-Roman-2e"/>
       <use x="95.41015625" xlink:href="#BitstreamVeraSans-Roman-30"/>
      </g>
     </g>
    </g>
    <g id="ytick_3">
     <g id="line2d_10">
      <path clip-path="url(#p55a2aadd3b)" d="
M162 262.227
L1166.4 262.227" style="fill:none;stroke:#ffffff;stroke-linecap:round;stroke-width:0.8;"/>
     </g>
     <g id="line2d_11">
      <g>
       <use style="stroke:#000000;stroke-width:0.5;" x="162.0" xlink:href="#m48243eeccc" y="262.227272727"/>
      </g>
     </g>
     <g id="text_8">
      <!-- 0.1 -->
      <g transform="translate(140.6796875 264.986647727)scale(0.1 -0.1)">
       <use xlink:href="#BitstreamVeraSans-Roman-30"/>
       <use x="63.623046875" xlink:href="#BitstreamVeraSans-Roman-2e"/>
       <use x="95.41015625" xlink:href="#BitstreamVeraSans-Roman-31"/>
      </g>
     </g>
    </g>
    <g id="ytick_4">
     <g id="line2d_12">
      <path clip-path="url(#p55a2aadd3b)" d="
M162 230.523
L1166.4 230.523" style="fill:none;stroke:#ffffff;stroke-linecap:round;stroke-width:0.8;"/>
     </g>
     <g id="line2d_13">
      <g>
       <use style="stroke:#000000;stroke-width:0.5;" x="162.0" xlink:href="#m48243eeccc" y="230.522727273"/>
      </g>
     </g>
     <g id="text_9">
      <!-- 0.2 -->
      <g transform="translate(140.7578125 233.282102273)scale(0.1 -0.1)">
       <use xlink:href="#BitstreamVeraSans-Roman-30"/>
       <use x="63.623046875" xlink:href="#BitstreamVeraSans-Roman-2e"/>
       <use x="95.41015625" xlink:href="#BitstreamVeraSans-Roman-32"/>
      </g>
     </g>
    </g>
    <g id="ytick_5">
     <g id="line2d_14">
      <path clip-path="url(#p55a2aadd3b)" d="
M162 198.818
L1166.4 198.818" style="fill:none;stroke:#ffffff;stroke-linecap:round;stroke-width:0.8;"/>
     </g>
     <g id="line2d_15">
      <g>
       <use style="stroke:#000000;stroke-width:0.5;" x="162.0" xlink:href="#m48243eeccc" y="198.818181818"/>
      </g>
     </g>
     <g id="text_10">
      <!-- 0.3 -->
      <g transform="translate(140.5578125 201.577556818)scale(0.1 -0.1)">
       <use xlink:href="#BitstreamVeraSans-Roman-30"/>
       <use x="63.623046875" xlink:href="#BitstreamVeraSans-Roman-2e"/>
       <use x="95.41015625" xlink:href="#BitstreamVeraSans-Roman-33"/>
      </g>
     </g>
    </g>
    <g id="ytick_6">
     <g id="line2d_16">
      <path clip-path="url(#p55a2aadd3b)" d="
M162 167.114
L1166.4 167.114" style="fill:none;stroke:#ffffff;stroke-linecap:round;stroke-width:0.8;"/>
     </g>
     <g id="line2d_17">
      <g>
       <use style="stroke:#000000;stroke-width:0.5;" x="162.0" xlink:href="#m48243eeccc" y="167.113636364"/>
      </g>
     </g>
     <g id="text_11">
      <!-- 0.4 -->
      <g transform="translate(140.3171875 169.873011364)scale(0.1 -0.1)">
       <use xlink:href="#BitstreamVeraSans-Roman-30"/>
       <use x="63.623046875" xlink:href="#BitstreamVeraSans-Roman-2e"/>
       <use x="95.41015625" xlink:href="#BitstreamVeraSans-Roman-34"/>
      </g>
     </g>
    </g>
    <g id="ytick_7">
     <g id="line2d_18">
      <path clip-path="url(#p55a2aadd3b)" d="
M162 135.409
L1166.4 135.409" style="fill:none;stroke:#ffffff;stroke-linecap:round;stroke-width:0.8;"/>
     </g>
     <g id="line2d_19">
      <g>
       <use style="stroke:#000000;stroke-width:0.5;" x="162.0" xlink:href="#m48243eeccc" y="135.409090909"/>
      </g>
     </g>
     <g id="text_12">
      <!-- 0.5 -->
      <defs>
       <path d="
M10.7969 72.9062
L49.5156 72.9062
L49.5156 64.5938
L19.8281 64.5938
L19.8281 46.7344
Q21.9688 47.4688 24.1094 47.8281
Q26.2656 48.1875 28.4219 48.1875
Q40.625 48.1875 47.75 41.5
Q54.8906 34.8125 54.8906 23.3906
Q54.8906 11.625 47.5625 5.09375
Q40.2344 -1.42188 26.9062 -1.42188
Q22.3125 -1.42188 17.5469 -0.640625
Q12.7969 0.140625 7.71875 1.70312
L7.71875 11.625
Q12.1094 9.23438 16.7969 8.0625
Q21.4844 6.89062 26.7031 6.89062
Q35.1562 6.89062 40.0781 11.3281
Q45.0156 15.7656 45.0156 23.3906
Q45.0156 31 40.0781 35.4375
Q35.1562 39.8906 26.7031 39.8906
Q22.75 39.8906 18.8125 39.0156
Q14.8906 38.1406 10.7969 36.2812
z
" id="BitstreamVeraSans-Roman-35"/>
      </defs>
      <g transform="translate(140.6296875 138.168465909)scale(0.1 -0.1)">
       <use xlink:href="#BitstreamVeraSans-Roman-30"/>
       <use x="63.623046875" xlink:href="#BitstreamVeraSans-Roman-2e"/>
       <use x="95.41015625" xlink:href="#BitstreamVeraSans-Roman-35"/>
      </g>
     </g>
    </g>
    <g id="ytick_8">
     <g id="line2d_20">
      <path clip-path="url(#p55a2aadd3b)" d="
M162 103.705
L1166.4 103.705" style="fill:none;stroke:#ffffff;stroke-linecap:round;stroke-width:0.8;"/>
     </g>
     <g id="line2d_21">
      <g>
       <use style="stroke:#000000;stroke-width:0.5;" x="162.0" xlink:href="#m48243eeccc" y="103.704545455"/>
      </g>
     </g>
     <g id="text_13">
      <!-- 0.6 -->
      <defs>
       <path d="
M33.0156 40.375
Q26.375 40.375 22.4844 35.8281
Q18.6094 31.2969 18.6094 23.3906
Q18.6094 15.5312 22.4844 10.9531
Q26.375 6.39062 33.0156 6.39062
Q39.6562 6.39062 43.5312 10.9531
Q47.4062 15.5312 47.4062 23.3906
Q47.4062 31.2969 43.5312 35.8281
Q39.6562 40.375 33.0156 40.375
M52.5938 71.2969
L52.5938 62.3125
Q48.875 64.0625 45.0938 64.9844
Q41.3125 65.9219 37.5938 65.9219
Q27.8281 65.9219 22.6719 59.3281
Q17.5312 52.7344 16.7969 39.4062
Q19.6719 43.6562 24.0156 45.9219
Q28.375 48.1875 33.5938 48.1875
Q44.5781 48.1875 50.9531 41.5156
Q57.3281 34.8594 57.3281 23.3906
Q57.3281 12.1562 50.6875 5.35938
Q44.0469 -1.42188 33.0156 -1.42188
Q20.3594 -1.42188 13.6719 8.26562
Q6.98438 17.9688 6.98438 36.375
Q6.98438 53.6562 15.1875 63.9375
Q23.3906 74.2188 37.2031 74.2188
Q40.9219 74.2188 44.7031 73.4844
Q48.4844 72.75 52.5938 71.2969" id="BitstreamVeraSans-Roman-36"/>
      </defs>
      <g transform="translate(140.3859375 106.463920455)scale(0.1 -0.1)">
       <use xlink:href="#BitstreamVeraSans-Roman-30"/>
       <use x="63.623046875" xlink:href="#BitstreamVeraSans-Roman-2e"/>
       <use x="95.41015625" xlink:href="#BitstreamVeraSans-Roman-36"/>
      </g>
     </g>
    </g>
    <g id="ytick_9">
     <g id="line2d_22">
      <path clip-path="url(#p55a2aadd3b)" d="
M162 72
L1166.4 72" style="fill:none;stroke:#ffffff;stroke-linecap:round;stroke-width:0.8;"/>
     </g>
     <g id="line2d_23">
      <g>
       <use style="stroke:#000000;stroke-width:0.5;" x="162.0" xlink:href="#m48243eeccc" y="72.0"/>
      </g>
     </g>
     <g id="text_14">
      <!-- 0.7 -->
      <defs>
       <path d="
M8.20312 72.9062
L55.0781 72.9062
L55.0781 68.7031
L28.6094 0
L18.3125 0
L43.2188 64.5938
L8.20312 64.5938
z
" id="BitstreamVeraSans-Roman-37"/>
      </defs>
      <g transform="translate(140.6109375 74.759375)scale(0.1 -0.1)">
       <use xlink:href="#BitstreamVeraSans-Roman-30"/>
       <use x="63.623046875" xlink:href="#BitstreamVeraSans-Roman-2e"/>
       <use x="95.41015625" xlink:href="#BitstreamVeraSans-Roman-37"/>
      </g>
     </g>
    </g>
    <g id="text_15">
     <!-- Distance to Centroid -->
     <defs>
      <path id="BitstreamVeraSans-Roman-20"/>
      <path d="
M54.8906 33.0156
L54.8906 0
L45.9062 0
L45.9062 32.7188
Q45.9062 40.4844 42.875 44.3281
Q39.8438 48.1875 33.7969 48.1875
Q26.5156 48.1875 22.3125 43.5469
Q18.1094 38.9219 18.1094 30.9062
L18.1094 0
L9.07812 0
L9.07812 54.6875
L18.1094 54.6875
L18.1094 46.1875
Q21.3438 51.125 25.7031 53.5625
Q30.0781 56 35.7969 56
Q45.2188 56 50.0469 50.1719
Q54.8906 44.3438 54.8906 33.0156" id="BitstreamVeraSans-Roman-6e"/>
      <path d="
M41.1094 46.2969
Q39.5938 47.1719 37.8125 47.5781
Q36.0312 48 33.8906 48
Q26.2656 48 22.1875 43.0469
Q18.1094 38.0938 18.1094 28.8125
L18.1094 0
L9.07812 0
L9.07812 54.6875
L18.1094 54.6875
L18.1094 46.1875
Q20.9531 51.1719 25.4844 53.5781
Q30.0312 56 36.5312 56
Q37.4531 56 38.5781 55.875
Q39.7031 55.7656 41.0625 55.5156
z
" id="BitstreamVeraSans-Roman-72"/>
      <path d="
M30.6094 48.3906
Q23.3906 48.3906 19.1875 42.75
Q14.9844 37.1094 14.9844 27.2969
Q14.9844 17.4844 19.1562 11.8438
Q23.3438 6.20312 30.6094 6.20312
Q37.7969 6.20312 41.9844 11.8594
Q46.1875 17.5312 46.1875 27.2969
Q46.1875 37.0156 41.9844 42.7031
Q37.7969 48.3906 30.6094 48.3906
M30.6094 56
Q42.3281 56 49.0156 48.375
Q55.7188 40.7656 55.7188 27.2969
Q55.7188 13.875 49.0156 6.21875
Q42.3281 -1.42188 30.6094 -1.42188
Q18.8438 -1.42188 12.1719 6.21875
Q5.51562 13.875 5.51562 27.2969
Q5.51562 40.7656 12.1719 48.375
Q18.8438 56 30.6094 56" id="BitstreamVeraSans-Roman-6f"/>
      <path d="
M19.6719 64.7969
L19.6719 8.10938
L31.5938 8.10938
Q46.6875 8.10938 53.6875 14.9375
Q60.6875 21.7812 60.6875 36.5312
Q60.6875 51.1719 53.6875 57.9844
Q46.6875 64.7969 31.5938 64.7969
z

M9.8125 72.9062
L30.0781 72.9062
Q51.2656 72.9062 61.1719 64.0938
Q71.0938 55.2812 71.0938 36.5312
Q71.0938 17.6719 61.125 8.82812
Q51.1719 0 30.0781 0
L9.8125 0
z
" id="BitstreamVeraSans-Roman-44"/>
      <path d="
M9.42188 54.6875
L18.4062 54.6875
L18.4062 0
L9.42188 0
z

M9.42188 75.9844
L18.4062 75.9844
L18.4062 64.5938
L9.42188 64.5938
z
" id="BitstreamVeraSans-Roman-69"/>
      <path d="
M45.4062 46.3906
L45.4062 75.9844
L54.3906 75.9844
L54.3906 0
L45.4062 0
L45.4062 8.20312
Q42.5781 3.32812 38.25 0.953125
Q33.9375 -1.42188 27.875 -1.42188
Q17.9688 -1.42188 11.7344 6.48438
Q5.51562 14.4062 5.51562 27.2969
Q5.51562 40.1875 11.7344 48.0938
Q17.9688 56 27.875 56
Q33.9375 56 38.25 53.625
Q42.5781 51.2656 45.4062 46.3906
M14.7969 27.2969
Q14.7969 17.3906 18.875 11.75
Q22.9531 6.10938 30.0781 6.10938
Q37.2031 6.10938 41.2969 11.75
Q45.4062 17.3906 45.4062 27.2969
Q45.4062 37.2031 41.2969 42.8438
Q37.2031 48.4844 30.0781 48.4844
Q22.9531 48.4844 18.875 42.8438
Q14.7969 37.2031 14.7969 27.2969" id="BitstreamVeraSans-Roman-64"/>
      <path d="
M56.2031 29.5938
L56.2031 25.2031
L14.8906 25.2031
Q15.4844 15.9219 20.4844 11.0625
Q25.4844 6.20312 34.4219 6.20312
Q39.5938 6.20312 44.4531 7.46875
Q49.3125 8.73438 54.1094 11.2812
L54.1094 2.78125
Q49.2656 0.734375 44.1875 -0.34375
Q39.1094 -1.42188 33.8906 -1.42188
Q20.7969 -1.42188 13.1562 6.1875
Q5.51562 13.8125 5.51562 26.8125
Q5.51562 40.2344 12.7656 48.1094
Q20.0156 56 32.3281 56
Q43.3594 56 49.7812 48.8906
Q56.2031 41.7969 56.2031 29.5938
M47.2188 32.2344
Q47.125 39.5938 43.0938 43.9844
Q39.0625 48.3906 32.4219 48.3906
Q24.9062 48.3906 20.3906 44.1406
Q15.875 39.8906 15.1875 32.1719
z
" id="BitstreamVeraSans-Roman-65"/>
      <path d="
M64.4062 67.2812
L64.4062 56.8906
Q59.4219 61.5312 53.7812 63.8125
Q48.1406 66.1094 41.7969 66.1094
Q29.2969 66.1094 22.6562 58.4688
Q16.0156 50.8281 16.0156 36.375
Q16.0156 21.9688 22.6562 14.3281
Q29.2969 6.6875 41.7969 6.6875
Q48.1406 6.6875 53.7812 8.98438
Q59.4219 11.2812 64.4062 15.9219
L64.4062 5.60938
Q59.2344 2.09375 53.4375 0.328125
Q47.6562 -1.42188 41.2188 -1.42188
Q24.6562 -1.42188 15.125 8.70312
Q5.60938 18.8438 5.60938 36.375
Q5.60938 53.9531 15.125 64.0781
Q24.6562 74.2188 41.2188 74.2188
Q47.75 74.2188 53.5312 72.4844
Q59.3281 70.75 64.4062 67.2812" id="BitstreamVeraSans-Roman-43"/>
      <path d="
M18.3125 70.2188
L18.3125 54.6875
L36.8125 54.6875
L36.8125 47.7031
L18.3125 47.7031
L18.3125 18.0156
Q18.3125 11.3281 20.1406 9.42188
Q21.9688 7.51562 27.5938 7.51562
L36.8125 7.51562
L36.8125 0
L27.5938 0
Q17.1875 0 13.2344 3.875
Q9.28125 7.76562 9.28125 18.0156
L9.28125 47.7031
L2.6875 47.7031
L2.6875 54.6875
L9.28125 54.6875
L9.28125 70.2188
z
" id="BitstreamVeraSans-Roman-74"/>
      <path d="
M34.2812 27.4844
Q23.3906 27.4844 19.1875 25
Q14.9844 22.5156 14.9844 16.5
Q14.9844 11.7188 18.1406 8.90625
Q21.2969 6.10938 26.7031 6.10938
Q34.1875 6.10938 38.7031 11.4062
Q43.2188 16.7031 43.2188 25.4844
L43.2188 27.4844
z

M52.2031 31.2031
L52.2031 0
L43.2188 0
L43.2188 8.29688
Q40.1406 3.32812 35.5469 0.953125
Q30.9531 -1.42188 24.3125 -1.42188
Q15.9219 -1.42188 10.9531 3.29688
Q6 8.01562 6 15.9219
Q6 25.1406 12.1719 29.8281
Q18.3594 34.5156 30.6094 34.5156
L43.2188 34.5156
L43.2188 35.4062
Q43.2188 41.6094 39.1406 45
Q35.0625 48.3906 27.6875 48.3906
Q23 48.3906 18.5469 47.2656
Q14.1094 46.1406 10.0156 43.8906
L10.0156 52.2031
Q14.9375 54.1094 19.5781 55.0469
Q24.2188 56 28.6094 56
Q40.4844 56 46.3438 49.8438
Q52.2031 43.7031 52.2031 31.2031" id="BitstreamVeraSans-Roman-61"/>
      <path d="
M44.2812 53.0781
L44.2812 44.5781
Q40.4844 46.5312 36.375 47.5
Q32.2812 48.4844 27.875 48.4844
Q21.1875 48.4844 17.8438 46.4375
Q14.5 44.3906 14.5 40.2812
Q14.5 37.1562 16.8906 35.375
Q19.2812 33.5938 26.5156 31.9844
L29.5938 31.2969
Q39.1562 29.25 43.1875 25.5156
Q47.2188 21.7812 47.2188 15.0938
Q47.2188 7.46875 41.1875 3.01562
Q35.1562 -1.42188 24.6094 -1.42188
Q20.2188 -1.42188 15.4531 -0.5625
Q10.6875 0.296875 5.42188 2
L5.42188 11.2812
Q10.4062 8.6875 15.2344 7.39062
Q20.0625 6.10938 24.8125 6.10938
Q31.1562 6.10938 34.5625 8.28125
Q37.9844 10.4531 37.9844 14.4062
Q37.9844 18.0625 35.5156 20.0156
Q33.0625 21.9688 24.7031 23.7812
L21.5781 24.5156
Q13.2344 26.2656 9.51562 29.9062
Q5.8125 33.5469 5.8125 39.8906
Q5.8125 47.6094 11.2812 51.7969
Q16.75 56 26.8125 56
Q31.7812 56 36.1719 55.2656
Q40.5781 54.5469 44.2812 53.0781" id="BitstreamVeraSans-Roman-73"/>
      <path d="
M48.7812 52.5938
L48.7812 44.1875
Q44.9688 46.2969 41.1406 47.3438
Q37.3125 48.3906 33.4062 48.3906
Q24.6562 48.3906 19.8125 42.8438
Q14.9844 37.3125 14.9844 27.2969
Q14.9844 17.2812 19.8125 11.7344
Q24.6562 6.20312 33.4062 6.20312
Q37.3125 6.20312 41.1406 7.25
Q44.9688 8.29688 48.7812 10.4062
L48.7812 2.09375
Q45.0156 0.34375 40.9844 -0.53125
Q36.9688 -1.42188 32.4219 -1.42188
Q20.0625 -1.42188 12.7812 6.34375
Q5.51562 14.1094 5.51562 27.2969
Q5.51562 40.6719 12.8594 48.3281
Q20.2188 56 33.0156 56
Q37.1562 56 41.1094 55.1406
Q45.0625 54.2969 48.7812 52.5938" id="BitstreamVeraSans-Roman-63"/>
     </defs>
     <g transform="translate(125.41234375 254.772947443)rotate(-90.0)scale(0.11 -0.11)">
      <use xlink:href="#BitstreamVeraSans-Roman-44"/>
      <use x="77.001953125" xlink:href="#BitstreamVeraSans-Roman-69"/>
      <use x="104.78515625" xlink:href="#BitstreamVeraSans-Roman-73"/>
      <use x="156.884765625" xlink:href="#BitstreamVeraSans-Roman-74"/>
      <use x="196.09375" xlink:href="#BitstreamVeraSans-Roman-61"/>
      <use x="257.373046875" xlink:href="#BitstreamVeraSans-Roman-6e"/>
      <use x="320.751953125" xlink:href="#BitstreamVeraSans-Roman-63"/>
      <use x="375.732421875" xlink:href="#BitstreamVeraSans-Roman-65"/>
      <use x="437.255859375" xlink:href="#BitstreamVeraSans-Roman-20"/>
      <use x="469.04296875" xlink:href="#BitstreamVeraSans-Roman-74"/>
      <use x="508.251953125" xlink:href="#BitstreamVeraSans-Roman-6f"/>
      <use x="569.43359375" xlink:href="#BitstreamVeraSans-Roman-20"/>
      <use x="601.220703125" xlink:href="#BitstreamVeraSans-Roman-43"/>
      <use x="671.044921875" xlink:href="#BitstreamVeraSans-Roman-65"/>
      <use x="732.568359375" xlink:href="#BitstreamVeraSans-Roman-6e"/>
      <use x="795.947265625" xlink:href="#BitstreamVeraSans-Roman-74"/>
      <use x="835.15625" xlink:href="#BitstreamVeraSans-Roman-72"/>
      <use x="874.01953125" xlink:href="#BitstreamVeraSans-Roman-6f"/>
      <use x="935.201171875" xlink:href="#BitstreamVeraSans-Roman-69"/>
      <use x="962.984375" xlink:href="#BitstreamVeraSans-Roman-64"/>
     </g>
    </g>
   </g>
   <g id="PolyCollection_1">
    <defs>
     <path d="
M262.456 -413.437
L262.424 -413.437
L262.405 -415.27
L262.361 -417.102
L262.27 -418.934
L262.094 -420.767
L261.774 -422.599
L261.226 -424.432
L260.338 -426.264
L258.969 -428.097
L256.956 -429.929
L254.126 -431.762
L250.319 -433.594
L245.42 -435.426
L239.402 -437.259
L232.359 -439.091
L224.535 -440.924
L216.319 -442.756
L208.198 -444.589
L200.684 -446.421
L194.218 -448.254
L189.093 -450.086
L185.418 -451.918
L183.135 -453.751
L182.088 -455.583
L182.095 -457.416
L183.001 -459.248
L184.685 -461.081
L187.035 -462.913
L189.926 -464.745
L193.21 -466.578
L196.741 -468.41
L200.39 -470.243
L204.06 -472.075
L207.672 -473.908
L211.151 -475.74
L214.413 -477.573
L217.387 -479.405
L220.034 -481.237
L222.372 -483.07
L224.474 -484.902
L226.449 -486.735
L228.401 -488.567
L230.407 -490.4
L232.489 -492.232
L234.624 -494.065
L236.747 -495.897
L238.781 -497.729
L240.658 -499.562
L242.342 -501.394
L243.842 -503.227
L245.213 -505.059
L246.538 -506.892
L247.897 -508.724
L249.345 -510.556
L250.888 -512.389
L252.484 -514.221
L254.059 -516.054
L255.531 -517.886
L256.83 -519.719
L257.917 -521.551
L258.784 -523.384
L259.451 -525.216
L259.957 -527.048
L260.345 -528.881
L260.654 -530.713
L260.909 -532.546
L261.118 -534.378
L261.277 -536.211
L261.372 -538.043
L261.39 -539.876
L261.332 -541.708
L261.215 -543.54
L261.078 -545.373
L260.965 -547.205
L260.918 -549.038
L260.963 -550.87
L261.101 -552.703
L261.309 -554.535
L261.55 -556.368
L261.789 -558.2
L261.994 -560.032
L262.149 -561.865
L262.25 -563.697
L262.299 -565.53
L262.302 -567.362
L262.268 -569.195
L262.205 -571.027
L262.125 -572.859
L262.042 -574.692
L261.973 -576.524
L261.934 -578.357
L261.933 -580.189
L261.971 -582.022
L262.04 -583.854
L262.125 -585.687
L262.211 -587.519
L262.286 -589.351
L262.345 -591.184
L262.385 -593.016
L262.411 -594.849
L262.426 -596.681
L262.434 -598.514
L262.437 -600.346
L262.439 -602.179
L262.439 -604.011
L262.437 -605.843
L262.434 -607.676
L262.426 -609.508
L262.412 -611.341
L262.387 -613.173
L262.346 -615.006
L262.288 -616.838
L262.214 -618.671
L262.128 -620.503
L262.043 -622.335
L261.973 -624.168
L261.934 -626
L261.933 -627.833
L261.972 -629.665
L262.041 -631.498
L262.126 -633.33
L262.211 -635.162
L262.287 -636.995
L262.345 -638.827
L262.386 -640.66
L262.411 -642.492
L262.424 -644.325
L262.429 -646.157
L262.451 -646.157
L262.451 -646.157
L262.456 -644.325
L262.469 -642.492
L262.494 -640.66
L262.535 -638.827
L262.593 -636.995
L262.669 -635.162
L262.754 -633.33
L262.839 -631.498
L262.908 -629.665
L262.947 -627.833
L262.946 -626
L262.907 -624.168
L262.837 -622.335
L262.752 -620.503
L262.666 -618.671
L262.592 -616.838
L262.534 -615.006
L262.493 -613.173
L262.468 -611.341
L262.454 -609.508
L262.446 -607.676
L262.443 -605.843
L262.441 -604.011
L262.441 -602.179
L262.443 -600.346
L262.446 -598.514
L262.454 -596.681
L262.469 -594.849
L262.495 -593.016
L262.535 -591.184
L262.594 -589.351
L262.669 -587.519
L262.755 -585.687
L262.84 -583.854
L262.909 -582.022
L262.947 -580.189
L262.946 -578.357
L262.907 -576.524
L262.838 -574.692
L262.755 -572.859
L262.675 -571.027
L262.612 -569.195
L262.578 -567.362
L262.581 -565.53
L262.63 -563.697
L262.731 -561.865
L262.886 -560.032
L263.091 -558.2
L263.33 -556.368
L263.571 -554.535
L263.779 -552.703
L263.917 -550.87
L263.962 -549.038
L263.915 -547.205
L263.802 -545.373
L263.665 -543.54
L263.548 -541.708
L263.49 -539.876
L263.508 -538.043
L263.603 -536.211
L263.762 -534.378
L263.971 -532.546
L264.226 -530.713
L264.535 -528.881
L264.923 -527.048
L265.429 -525.216
L266.096 -523.384
L266.963 -521.551
L268.05 -519.719
L269.349 -517.886
L270.821 -516.054
L272.396 -514.221
L273.992 -512.389
L275.535 -510.556
L276.983 -508.724
L278.342 -506.892
L279.667 -505.059
L281.038 -503.227
L282.538 -501.394
L284.222 -499.562
L286.099 -497.729
L288.133 -495.897
L290.256 -494.065
L292.391 -492.232
L294.473 -490.4
L296.479 -488.567
L298.431 -486.735
L300.406 -484.902
L302.508 -483.07
L304.846 -481.237
L307.493 -479.405
L310.467 -477.573
L313.729 -475.74
L317.208 -473.908
L320.82 -472.075
L324.49 -470.243
L328.139 -468.41
L331.67 -466.578
L334.954 -464.745
L337.845 -462.913
L340.195 -461.081
L341.879 -459.248
L342.785 -457.416
L342.792 -455.583
L341.745 -453.751
L339.462 -451.918
L335.787 -450.086
L330.662 -448.254
L324.196 -446.421
L316.682 -444.589
L308.561 -442.756
L300.345 -440.924
L292.521 -439.091
L285.478 -437.259
L279.46 -435.426
L274.561 -433.594
L270.754 -431.762
L267.924 -429.929
L265.911 -428.097
L264.542 -426.264
L263.654 -424.432
L263.106 -422.599
L262.786 -420.767
L262.61 -418.934
L262.519 -417.102
L262.475 -415.27
L262.456 -413.437
z
" id="C0_0_3b4c02573f"/>
    </defs>
    <g clip-path="url(#p55a2aadd3b)">
     <use style="fill:#e799a5;stroke:#e799a5;stroke-width:0.3;" x="0.0" xlink:href="#C0_0_3b4c02573f" y="720.0"/>
    </g>
   </g>
   <g id="PolyCollection_2">
    <defs>
     <path d="
M463.357 -409.814
L463.283 -409.814
L463.256 -411.29
L463.207 -412.766
L463.124 -414.241
L462.99 -415.717
L462.781 -417.193
L462.468 -418.668
L462.015 -420.144
L461.381 -421.619
L460.522 -423.095
L459.397 -424.571
L457.968 -426.046
L456.205 -427.522
L454.089 -428.998
L451.613 -430.473
L448.785 -431.949
L445.619 -433.425
L442.14 -434.9
L438.381 -436.376
L434.378 -437.852
L430.177 -439.327
L425.828 -440.803
L421.393 -442.279
L416.943 -443.754
L412.556 -445.23
L408.317 -446.706
L404.305 -448.181
L400.592 -449.657
L397.229 -451.133
L394.249 -452.608
L391.656 -454.084
L389.439 -455.56
L387.574 -457.035
L386.033 -458.511
L384.798 -459.986
L383.864 -461.462
L383.245 -462.938
L382.968 -464.413
L383.067 -465.889
L383.574 -467.365
L384.506 -468.84
L385.856 -470.316
L387.586 -471.792
L389.628 -473.267
L391.883 -474.743
L394.234 -476.219
L396.557 -477.694
L398.738 -479.17
L400.682 -480.646
L402.329 -482.121
L403.66 -483.597
L404.694 -485.073
L405.486 -486.548
L406.119 -488.024
L406.69 -489.5
L407.303 -490.975
L408.055 -492.451
L409.033 -493.927
L410.301 -495.402
L411.901 -496.878
L413.847 -498.353
L416.129 -499.829
L418.708 -501.305
L421.525 -502.78
L424.506 -504.256
L427.564 -505.732
L430.611 -507.207
L433.562 -508.683
L436.345 -510.159
L438.902 -511.634
L441.196 -513.11
L443.212 -514.586
L444.953 -516.061
L446.441 -517.537
L447.706 -519.013
L448.784 -520.488
L449.706 -521.964
L450.498 -523.44
L451.177 -524.915
L451.752 -526.391
L452.229 -527.867
L452.617 -529.342
L452.929 -530.818
L453.187 -532.294
L453.422 -533.769
L453.668 -535.245
L453.961 -536.72
L454.329 -538.196
L454.791 -539.672
L455.351 -541.147
L455.997 -542.623
L456.707 -544.099
L457.45 -545.574
L458.193 -547.05
L458.904 -548.526
L459.559 -550.001
L460.141 -551.477
L460.643 -552.953
L461.062 -554.428
L461.404 -555.904
L461.676 -557.38
L461.886 -558.855
L462.043 -560.331
L462.155 -561.807
L462.228 -563.282
L462.271 -564.758
L462.29 -566.234
L462.294 -567.709
L462.292 -569.185
L462.293 -570.661
L462.307 -572.136
L462.338 -573.612
L462.39 -575.087
L462.464 -576.563
L462.555 -578.039
L462.658 -579.514
L462.767 -580.99
L462.873 -582.466
L462.972 -583.941
L463.059 -585.417
L463.131 -586.893
L463.188 -588.368
L463.231 -589.844
L463.261 -591.32
L463.282 -592.795
L463.294 -594.271
L463.299 -595.747
L463.296 -597.222
L463.344 -597.222
L463.344 -597.222
L463.341 -595.747
L463.346 -594.271
L463.358 -592.795
L463.379 -591.32
L463.409 -589.844
L463.452 -588.368
L463.509 -586.893
L463.581 -585.417
L463.668 -583.941
L463.767 -582.466
L463.873 -580.99
L463.982 -579.514
L464.085 -578.039
L464.176 -576.563
L464.25 -575.087
L464.302 -573.612
L464.333 -572.136
L464.347 -570.661
L464.348 -569.185
L464.346 -567.709
L464.35 -566.234
L464.369 -564.758
L464.412 -563.282
L464.485 -561.807
L464.597 -560.331
L464.754 -558.855
L464.964 -557.38
L465.236 -555.904
L465.578 -554.428
L465.997 -552.953
L466.499 -551.477
L467.081 -550.001
L467.736 -548.526
L468.447 -547.05
L469.19 -545.574
L469.933 -544.099
L470.643 -542.623
L471.289 -541.147
L471.849 -539.672
L472.311 -538.196
L472.679 -536.72
L472.972 -535.245
L473.218 -533.769
L473.453 -532.294
L473.711 -530.818
L474.023 -529.342
L474.411 -527.867
L474.888 -526.391
L475.463 -524.915
L476.142 -523.44
L476.934 -521.964
L477.856 -520.488
L478.934 -519.013
L480.199 -517.537
L481.687 -516.061
L483.428 -514.586
L485.444 -513.11
L487.738 -511.634
L490.295 -510.159
L493.078 -508.683
L496.029 -507.207
L499.076 -505.732
L502.134 -504.256
L505.115 -502.78
L507.932 -501.305
L510.511 -499.829
L512.793 -498.353
L514.739 -496.878
L516.339 -495.402
L517.607 -493.927
L518.585 -492.451
L519.337 -490.975
L519.95 -489.5
L520.521 -488.024
L521.154 -486.548
L521.946 -485.073
L522.98 -483.597
L524.311 -482.121
L525.958 -480.646
L527.902 -479.17
L530.083 -477.694
L532.406 -476.219
L534.757 -474.743
L537.012 -473.267
L539.054 -471.792
L540.784 -470.316
L542.134 -468.84
L543.066 -467.365
L543.573 -465.889
L543.672 -464.413
L543.395 -462.938
L542.776 -461.462
L541.842 -459.986
L540.607 -458.511
L539.066 -457.035
L537.201 -455.56
L534.984 -454.084
L532.391 -452.608
L529.411 -451.133
L526.048 -449.657
L522.335 -448.181
L518.323 -446.706
L514.084 -445.23
L509.697 -443.754
L505.247 -442.279
L500.812 -440.803
L496.463 -439.327
L492.262 -437.852
L488.259 -436.376
L484.5 -434.9
L481.021 -433.425
L477.855 -431.949
L475.027 -430.473
L472.551 -428.998
L470.435 -427.522
L468.672 -426.046
L467.243 -424.571
L466.118 -423.095
L465.259 -421.619
L464.625 -420.144
L464.172 -418.668
L463.859 -417.193
L463.65 -415.717
L463.516 -414.241
L463.433 -412.766
L463.384 -411.29
L463.357 -409.814
z
" id="C1_0_5022fa3bd8"/>
    </defs>
    <g clip-path="url(#p55a2aadd3b)">
     <use style="fill:#a89b4a;stroke:#a89b4a;stroke-width:0.3;" x="0.0" xlink:href="#C1_0_5022fa3bd8" y="720.0"/>
    </g>
   </g>
   <g id="PolyCollection_3">
    <defs>
     <path d="
M664.218 -407.489
L664.182 -407.489
L664.172 -409.076
L664.151 -410.663
L664.115 -412.25
L664.055 -413.836
L663.959 -415.423
L663.811 -417.01
L663.591 -418.597
L663.274 -420.184
L662.832 -421.771
L662.233 -423.358
L661.446 -424.945
L660.437 -426.532
L659.178 -428.119
L657.642 -429.706
L655.806 -431.293
L653.653 -432.88
L651.17 -434.467
L648.347 -436.053
L645.185 -437.64
L641.693 -439.227
L637.893 -440.814
L633.822 -442.401
L629.537 -443.988
L625.106 -445.575
L620.61 -447.162
L616.135 -448.749
L611.762 -450.336
L607.564 -451.923
L603.601 -453.51
L599.919 -455.097
L596.557 -456.684
L593.546 -458.271
L590.915 -459.857
L588.691 -461.444
L586.896 -463.031
L585.539 -464.618
L584.608 -466.205
L584.066 -467.792
L583.848 -469.379
L583.87 -470.966
L584.04 -472.553
L584.272 -474.14
L584.505 -475.727
L584.709 -477.314
L584.89 -478.901
L585.082 -480.488
L585.336 -482.074
L585.704 -483.661
L586.233 -485.248
L586.95 -486.835
L587.872 -488.422
L589 -490.009
L590.337 -491.596
L591.886 -493.183
L593.659 -494.77
L595.677 -496.357
L597.962 -497.944
L600.535 -499.531
L603.406 -501.118
L606.565 -502.705
L609.982 -504.292
L613.603 -505.878
L617.349 -507.465
L621.128 -509.052
L624.841 -510.639
L628.393 -512.226
L631.708 -513.813
L634.738 -515.4
L637.463 -516.987
L639.895 -518.574
L642.062 -520.161
L644.005 -521.748
L645.759 -523.335
L647.352 -524.922
L648.799 -526.509
L650.106 -528.096
L651.272 -529.682
L652.302 -531.269
L653.206 -532.856
L654.005 -534.443
L654.727 -536.03
L655.403 -537.617
L656.062 -539.204
L656.721 -540.791
L657.391 -542.378
L658.065 -543.965
L658.73 -545.552
L659.369 -547.139
L659.962 -548.726
L660.497 -550.313
L660.97 -551.899
L661.383 -553.486
L661.745 -555.073
L662.067 -556.66
L662.362 -558.247
L662.635 -559.834
L662.89 -561.421
L663.126 -563.008
L663.337 -564.595
L663.517 -566.182
L663.662 -567.769
L663.768 -569.356
L663.833 -570.943
L663.858 -572.53
L663.849 -574.117
L663.81 -575.703
L663.75 -577.29
L663.679 -578.877
L663.607 -580.464
L663.545 -582.051
L663.501 -583.638
L663.482 -585.225
L663.491 -586.812
L663.527 -588.399
L663.586 -589.986
L663.663 -591.573
L663.748 -593.16
L663.835 -594.747
L663.917 -596.334
L663.99 -597.921
L664.05 -599.507
L664.097 -601.094
L664.132 -602.681
L664.156 -604.268
L664.172 -605.855
L664.181 -607.442
L664.184 -609.029
L664.216 -609.029
L664.216 -609.029
L664.219 -607.442
L664.228 -605.855
L664.244 -604.268
L664.268 -602.681
L664.303 -601.094
L664.35 -599.507
L664.41 -597.921
L664.483 -596.334
L664.565 -594.747
L664.652 -593.16
L664.737 -591.573
L664.814 -589.986
L664.873 -588.399
L664.909 -586.812
L664.918 -585.225
L664.899 -583.638
L664.855 -582.051
L664.793 -580.464
L664.721 -578.877
L664.65 -577.29
L664.59 -575.703
L664.551 -574.117
L664.542 -572.53
L664.567 -570.943
L664.632 -569.356
L664.738 -567.769
L664.883 -566.182
L665.063 -564.595
L665.274 -563.008
L665.51 -561.421
L665.765 -559.834
L666.038 -558.247
L666.333 -556.66
L666.655 -555.073
L667.017 -553.486
L667.43 -551.899
L667.903 -550.313
L668.438 -548.726
L669.031 -547.139
L669.67 -545.552
L670.335 -543.965
L671.009 -542.378
L671.679 -540.791
L672.338 -539.204
L672.997 -537.617
L673.673 -536.03
L674.395 -534.443
L675.194 -532.856
L676.098 -531.269
L677.128 -529.682
L678.294 -528.096
L679.601 -526.509
L681.048 -524.922
L682.641 -523.335
L684.395 -521.748
L686.338 -520.161
L688.505 -518.574
L690.937 -516.987
L693.662 -515.4
L696.692 -513.813
L700.007 -512.226
L703.559 -510.639
L707.272 -509.052
L711.051 -507.465
L714.797 -505.878
L718.418 -504.292
L721.835 -502.705
L724.994 -501.118
L727.865 -499.531
L730.438 -497.944
L732.723 -496.357
L734.741 -494.77
L736.514 -493.183
L738.063 -491.596
L739.4 -490.009
L740.528 -488.422
L741.45 -486.835
L742.167 -485.248
L742.696 -483.661
L743.064 -482.074
L743.318 -480.488
L743.51 -478.901
L743.691 -477.314
L743.895 -475.727
L744.128 -474.14
L744.36 -472.553
L744.53 -470.966
L744.552 -469.379
L744.334 -467.792
L743.792 -466.205
L742.861 -464.618
L741.504 -463.031
L739.709 -461.444
L737.485 -459.857
L734.854 -458.271
L731.843 -456.684
L728.481 -455.097
L724.799 -453.51
L720.836 -451.923
L716.638 -450.336
L712.265 -448.749
L707.79 -447.162
L703.294 -445.575
L698.863 -443.988
L694.578 -442.401
L690.507 -440.814
L686.707 -439.227
L683.215 -437.64
L680.053 -436.053
L677.23 -434.467
L674.747 -432.88
L672.594 -431.293
L670.758 -429.706
L669.222 -428.119
L667.963 -426.532
L666.954 -424.945
L666.167 -423.358
L665.568 -421.771
L665.126 -420.184
L664.809 -418.597
L664.589 -417.01
L664.441 -415.423
L664.345 -413.836
L664.285 -412.25
L664.249 -410.663
L664.228 -409.076
L664.218 -407.489
z
" id="C2_0_9b4193756b"/>
    </defs>
    <g clip-path="url(#p55a2aadd3b)">
     <use style="fill:#4dab82;stroke:#4dab82;stroke-width:0.3;" x="0.0" xlink:href="#C2_0_9b4193756b" y="720.0"/>
    </g>
   </g>
   <g id="PolyCollection_4">
    <defs>
     <path d="
M865.109 -419.773
L865.051 -419.773
L865.044 -420.7
L865.029 -421.628
L865.004 -422.556
L864.966 -423.483
L864.91 -424.411
L864.833 -425.338
L864.727 -426.266
L864.584 -427.194
L864.397 -428.121
L864.157 -429.049
L863.852 -429.977
L863.474 -430.904
L863.011 -431.832
L862.452 -432.76
L861.789 -433.687
L861.01 -434.615
L860.108 -435.542
L859.076 -436.47
L857.906 -437.398
L856.596 -438.325
L855.141 -439.253
L853.542 -440.181
L851.801 -441.108
L849.922 -442.036
L847.913 -442.964
L845.785 -443.891
L843.554 -444.819
L841.238 -445.746
L838.858 -446.674
L836.434 -447.602
L833.987 -448.529
L831.533 -449.457
L829.085 -450.385
L826.648 -451.312
L824.223 -452.24
L821.806 -453.167
L819.395 -454.095
L816.988 -455.023
L814.591 -455.95
L812.217 -456.878
L809.891 -457.806
L807.645 -458.733
L805.515 -459.661
L803.54 -460.589
L801.75 -461.516
L800.166 -462.444
L798.791 -463.371
L797.613 -464.299
L796.6 -465.227
L795.709 -466.154
L794.889 -467.082
L794.085 -468.01
L793.251 -468.937
L792.353 -469.865
L791.376 -470.792
L790.326 -471.72
L789.231 -472.648
L788.135 -473.575
L787.099 -474.503
L786.184 -475.431
L785.453 -476.358
L784.956 -477.286
L784.728 -478.214
L784.781 -479.141
L785.106 -480.069
L785.674 -480.996
L786.44 -481.924
L787.347 -482.852
L788.34 -483.779
L789.367 -484.707
L790.387 -485.635
L791.376 -486.562
L792.325 -487.49
L793.243 -488.417
L794.154 -489.345
L795.09 -490.273
L796.089 -491.2
L797.188 -492.128
L798.418 -493.056
L799.802 -493.983
L801.351 -494.911
L803.065 -495.839
L804.933 -496.766
L806.936 -497.694
L809.05 -498.621
L811.248 -499.549
L813.508 -500.477
L815.81 -501.404
L818.14 -502.332
L820.492 -503.26
L822.864 -504.187
L825.257 -505.115
L827.673 -506.043
L830.112 -506.97
L832.57 -507.898
L835.039 -508.825
L837.502 -509.753
L839.94 -510.681
L842.328 -511.608
L844.641 -512.536
L846.853 -513.464
L848.942 -514.391
L850.892 -515.319
L852.69 -516.246
L854.332 -517.174
L855.817 -518.102
L857.15 -519.029
L858.339 -519.957
L859.395 -520.885
L860.326 -521.812
L861.144 -522.74
L861.857 -523.668
L862.474 -524.595
L863.002 -525.523
L863.448 -526.45
L863.82 -527.378
L864.124 -528.306
L864.368 -529.233
L864.561 -530.161
L864.709 -531.089
L864.82 -532.016
L864.902 -532.944
L864.96 -533.871
L865.001 -534.799
L865.027 -535.727
L865.043 -536.654
L865.05 -537.582
L865.11 -537.582
L865.11 -537.582
L865.117 -536.654
L865.133 -535.727
L865.159 -534.799
L865.2 -533.871
L865.258 -532.944
L865.34 -532.016
L865.451 -531.089
L865.599 -530.161
L865.792 -529.233
L866.036 -528.306
L866.34 -527.378
L866.712 -526.45
L867.158 -525.523
L867.686 -524.595
L868.303 -523.668
L869.016 -522.74
L869.834 -521.812
L870.765 -520.885
L871.821 -519.957
L873.01 -519.029
L874.343 -518.102
L875.828 -517.174
L877.47 -516.246
L879.268 -515.319
L881.218 -514.391
L883.307 -513.464
L885.519 -512.536
L887.832 -511.608
L890.22 -510.681
L892.658 -509.753
L895.121 -508.825
L897.59 -507.898
L900.048 -506.97
L902.487 -506.043
L904.903 -505.115
L907.296 -504.187
L909.668 -503.26
L912.02 -502.332
L914.35 -501.404
L916.652 -500.477
L918.912 -499.549
L921.11 -498.621
L923.224 -497.694
L925.227 -496.766
L927.095 -495.839
L928.809 -494.911
L930.358 -493.983
L931.742 -493.056
L932.972 -492.128
L934.071 -491.2
L935.07 -490.273
L936.006 -489.345
L936.917 -488.417
L937.835 -487.49
L938.784 -486.562
L939.773 -485.635
L940.793 -484.707
L941.82 -483.779
L942.813 -482.852
L943.72 -481.924
L944.486 -480.996
L945.054 -480.069
L945.379 -479.141
L945.432 -478.214
L945.204 -477.286
L944.707 -476.358
L943.976 -475.431
L943.061 -474.503
L942.025 -473.575
L940.929 -472.648
L939.834 -471.72
L938.784 -470.792
L937.807 -469.865
L936.909 -468.937
L936.075 -468.01
L935.271 -467.082
L934.451 -466.154
L933.56 -465.227
L932.547 -464.299
L931.369 -463.371
L929.994 -462.444
L928.41 -461.516
L926.62 -460.589
L924.645 -459.661
L922.515 -458.733
L920.269 -457.806
L917.943 -456.878
L915.569 -455.95
L913.172 -455.023
L910.765 -454.095
L908.354 -453.167
L905.937 -452.24
L903.512 -451.312
L901.075 -450.385
L898.627 -449.457
L896.173 -448.529
L893.726 -447.602
L891.302 -446.674
L888.922 -445.746
L886.606 -444.819
L884.375 -443.891
L882.247 -442.964
L880.238 -442.036
L878.359 -441.108
L876.618 -440.181
L875.019 -439.253
L873.564 -438.325
L872.254 -437.398
L871.084 -436.47
L870.052 -435.542
L869.15 -434.615
L868.371 -433.687
L867.708 -432.76
L867.149 -431.832
L866.686 -430.904
L866.308 -429.977
L866.003 -429.049
L865.763 -428.121
L865.576 -427.194
L865.433 -426.266
L865.327 -425.338
L865.25 -424.411
L865.194 -423.483
L865.156 -422.556
L865.131 -421.628
L865.116 -420.7
L865.109 -419.773
z
" id="C3_0_cd4451f4c0"/>
    </defs>
    <g clip-path="url(#p55a2aadd3b)">
     <use style="fill:#54a9bf;stroke:#54a9bf;stroke-width:0.3;" x="0.0" xlink:href="#C3_0_cd4451f4c0" y="720.0"/>
    </g>
   </g>
   <g id="PolyCollection_5">
    <defs>
     <path d="
M1065.99 -406.77
L1065.93 -406.77
L1065.91 -408.416
L1065.87 -410.062
L1065.8 -411.707
L1065.68 -413.353
L1065.48 -414.999
L1065.18 -416.644
L1064.71 -418.29
L1064.04 -419.936
L1063.11 -421.582
L1061.84 -423.227
L1060.2 -424.873
L1058.13 -426.519
L1055.6 -428.164
L1052.61 -429.81
L1049.15 -431.456
L1045.26 -433.101
L1040.99 -434.747
L1036.41 -436.393
L1031.59 -438.038
L1026.62 -439.684
L1021.6 -441.33
L1016.64 -442.975
L1011.82 -444.621
L1007.24 -446.267
L1002.98 -447.912
L999.099 -449.558
L995.654 -451.204
L992.691 -452.85
L990.243 -454.495
L988.326 -456.141
L986.94 -457.787
L986.061 -459.432
L985.641 -461.078
L985.608 -462.724
L985.87 -464.369
L986.323 -466.015
L986.86 -467.661
L987.383 -469.306
L987.807 -470.952
L988.073 -472.598
L988.15 -474.243
L988.039 -475.889
L987.771 -477.535
L987.404 -479.18
L987.012 -480.826
L986.677 -482.472
L986.479 -484.118
L986.495 -485.763
L986.788 -487.409
L987.416 -489.055
L988.429 -490.7
L989.871 -492.346
L991.784 -493.992
L994.199 -495.637
L997.129 -497.283
L1000.56 -498.929
L1004.46 -500.574
L1008.72 -502.22
L1013.25 -503.866
L1017.9 -505.511
L1022.52 -507.157
L1026.99 -508.803
L1031.18 -510.448
L1035.04 -512.094
L1038.51 -513.74
L1041.6 -515.385
L1044.34 -517.031
L1046.75 -518.677
L1048.89 -520.323
L1050.78 -521.968
L1052.45 -523.614
L1053.93 -525.26
L1055.23 -526.905
L1056.35 -528.551
L1057.31 -530.197
L1058.12 -531.842
L1058.8 -533.488
L1059.35 -535.134
L1059.82 -536.779
L1060.21 -538.425
L1060.56 -540.071
L1060.89 -541.716
L1061.21 -543.362
L1061.55 -545.008
L1061.9 -546.653
L1062.27 -548.299
L1062.66 -549.945
L1063.05 -551.591
L1063.45 -553.236
L1063.83 -554.882
L1064.2 -556.528
L1064.54 -558.173
L1064.84 -559.819
L1065.1 -561.465
L1065.32 -563.11
L1065.5 -564.756
L1065.64 -566.402
L1065.74 -568.047
L1065.81 -569.693
L1065.85 -571.339
L1065.87 -572.984
L1065.86 -574.63
L1065.84 -576.276
L1065.8 -577.921
L1065.74 -579.567
L1065.67 -581.213
L1065.58 -582.859
L1065.49 -584.504
L1065.4 -586.15
L1065.31 -587.796
L1065.25 -589.441
L1065.22 -591.087
L1065.21 -592.733
L1065.24 -594.378
L1065.29 -596.024
L1065.37 -597.67
L1065.46 -599.315
L1065.55 -600.961
L1065.64 -602.607
L1065.72 -604.252
L1065.79 -605.898
L1065.84 -607.544
L1065.88 -609.189
L1065.91 -610.835
L1065.93 -612.481
L1065.94 -614.127
L1065.94 -615.772
L1065.98 -615.772
L1065.98 -615.772
L1065.98 -614.127
L1065.99 -612.481
L1066.01 -610.835
L1066.04 -609.189
L1066.08 -607.544
L1066.13 -605.898
L1066.2 -604.252
L1066.28 -602.607
L1066.37 -600.961
L1066.46 -599.315
L1066.55 -597.67
L1066.63 -596.024
L1066.68 -594.378
L1066.71 -592.733
L1066.7 -591.087
L1066.67 -589.441
L1066.61 -587.796
L1066.52 -586.15
L1066.43 -584.504
L1066.34 -582.859
L1066.25 -581.213
L1066.18 -579.567
L1066.12 -577.921
L1066.08 -576.276
L1066.06 -574.63
L1066.05 -572.984
L1066.07 -571.339
L1066.11 -569.693
L1066.18 -568.047
L1066.28 -566.402
L1066.42 -564.756
L1066.6 -563.11
L1066.82 -561.465
L1067.08 -559.819
L1067.38 -558.173
L1067.72 -556.528
L1068.09 -554.882
L1068.47 -553.236
L1068.87 -551.591
L1069.26 -549.945
L1069.65 -548.299
L1070.02 -546.653
L1070.37 -545.008
L1070.71 -543.362
L1071.03 -541.716
L1071.36 -540.071
L1071.71 -538.425
L1072.1 -536.779
L1072.57 -535.134
L1073.12 -533.488
L1073.8 -531.842
L1074.61 -530.197
L1075.57 -528.551
L1076.69 -526.905
L1077.99 -525.26
L1079.47 -523.614
L1081.14 -521.968
L1083.03 -520.323
L1085.17 -518.677
L1087.58 -517.031
L1090.32 -515.385
L1093.41 -513.74
L1096.88 -512.094
L1100.74 -510.448
L1104.93 -508.803
L1109.4 -507.157
L1114.02 -505.511
L1118.67 -503.866
L1123.2 -502.22
L1127.46 -500.574
L1131.36 -498.929
L1134.79 -497.283
L1137.72 -495.637
L1140.14 -493.992
L1142.05 -492.346
L1143.49 -490.7
L1144.5 -489.055
L1145.13 -487.409
L1145.43 -485.763
L1145.44 -484.118
L1145.24 -482.472
L1144.91 -480.826
L1144.52 -479.18
L1144.15 -477.535
L1143.88 -475.889
L1143.77 -474.243
L1143.85 -472.598
L1144.11 -470.952
L1144.54 -469.306
L1145.06 -467.661
L1145.6 -466.015
L1146.05 -464.369
L1146.31 -462.724
L1146.28 -461.078
L1145.86 -459.432
L1144.98 -457.787
L1143.59 -456.141
L1141.68 -454.495
L1139.23 -452.85
L1136.27 -451.204
L1132.82 -449.558
L1128.94 -447.912
L1124.68 -446.267
L1120.1 -444.621
L1115.28 -442.975
L1110.32 -441.33
L1105.3 -439.684
L1100.33 -438.038
L1095.51 -436.393
L1090.93 -434.747
L1086.66 -433.101
L1082.77 -431.456
L1079.31 -429.81
L1076.32 -428.164
L1073.79 -426.519
L1071.72 -424.873
L1070.08 -423.227
L1068.81 -421.582
L1067.88 -419.936
L1067.21 -418.29
L1066.74 -416.644
L1066.44 -414.999
L1066.24 -413.353
L1066.12 -411.707
L1066.05 -410.062
L1066.01 -408.416
L1065.99 -406.77
z
" id="C4_0_df3621a0ee"/>
    </defs>
    <g clip-path="url(#p55a2aadd3b)">
     <use style="fill:#cd9ee6;stroke:#cd9ee6;stroke-width:0.3;" x="0.0" xlink:href="#C4_0_df3621a0ee" y="720.0"/>
    </g>
   </g>
   <g id="line2d_24">
    <path clip-path="url(#p55a2aadd3b)" d="
M184.331 267.429
L340.549 267.429" style="fill:none;stroke:#494949;stroke-dasharray:1.000000,3.000000;stroke-dashoffset:0.0;stroke-width:1.5;"/>
   </g>
   <g id="line2d_25">
    <path clip-path="url(#p55a2aadd3b)" d="
M218.78 239.679
L306.1 239.679" style="fill:none;stroke:#494949;stroke-dasharray:1.000000,3.000000;stroke-dashoffset:0.0;stroke-width:1.5;"/>
   </g>
   <g id="line2d_26">
    <path clip-path="url(#p55a2aadd3b)" d="
M188.749 255.942
L336.131 255.942" style="fill:none;stroke:#494949;stroke-dasharray:6.000000,6.000000;stroke-dashoffset:0.0;stroke-width:1.5;"/>
   </g>
   <g id="line2d_27">
    <path clip-path="url(#p55a2aadd3b)" d="
M262.424 306.563
L262.27 301.066
L262.094 299.233
L261.774 297.401
L261.226 295.568
L260.338 293.736
L258.969 291.903
L256.956 290.071
L254.126 288.238
L250.319 286.406
L245.42 284.574
L239.402 282.741
L232.359 280.909
L216.319 277.244
L208.198 275.411
L200.684 273.579
L194.218 271.746
L189.093 269.914
L185.418 268.082
L183.135 266.249
L182.088 264.417
L182.095 262.584
L183.001 260.752
L184.685 258.919
L187.035 257.087
L189.926 255.255
L193.21 253.422
L200.39 249.757
L207.672 246.092
L214.413 242.427
L217.387 240.595
L220.034 238.763
L222.372 236.93
L226.449 233.265
L230.407 229.6
L240.658 220.438
L242.342 218.606
L245.213 214.941
L247.897 211.276
L250.888 207.611
L255.531 202.114
L256.83 200.281
L257.917 198.449
L258.784 196.616
L259.451 194.784
L259.957 192.952
L260.654 189.287
L261.118 185.622
L261.372 181.957
L261.332 178.292
L260.918 170.962
L261.101 167.297
L262.25 156.303
L262.302 152.638
L262.125 147.141
L261.934 141.643
L262.04 136.146
L262.385 126.984
L262.439 115.989
L262.346 104.994
L261.972 90.3348
L262.424 75.6753
L262.429 73.8429
L262.429 73.8429" style="fill:none;stroke:#494949;stroke-linecap:round;stroke-width:1.5;"/>
   </g>
   <g id="line2d_28">
    <path clip-path="url(#p55a2aadd3b)" d="
M262.456 306.563
L262.61 301.066
L262.786 299.233
L263.106 297.401
L263.654 295.568
L264.542 293.736
L265.911 291.903
L267.924 290.071
L270.754 288.238
L274.561 286.406
L279.46 284.574
L285.478 282.741
L292.521 280.909
L308.561 277.244
L316.682 275.411
L324.196 273.579
L330.662 271.746
L335.787 269.914
L339.462 268.082
L341.745 266.249
L342.792 264.417
L342.785 262.584
L341.879 260.752
L340.195 258.919
L337.845 257.087
L334.954 255.255
L331.67 253.422
L324.49 249.757
L317.208 246.092
L310.467 242.427
L307.493 240.595
L304.846 238.763
L302.508 236.93
L298.431 233.265
L294.473 229.6
L284.222 220.438
L282.538 218.606
L279.667 214.941
L276.983 211.276
L273.992 207.611
L269.349 202.114
L268.05 200.281
L266.963 198.449
L266.096 196.616
L265.429 194.784
L264.923 192.952
L264.226 189.287
L263.762 185.622
L263.508 181.957
L263.548 178.292
L263.962 170.962
L263.779 167.297
L262.63 156.303
L262.578 152.638
L262.755 147.141
L262.946 141.643
L262.84 136.146
L262.495 126.984
L262.441 115.989
L262.534 104.994
L262.908 90.3348
L262.456 75.6753
L262.451 73.8429
L262.451 73.8429" style="fill:none;stroke:#494949;stroke-linecap:round;stroke-width:1.5;"/>
   </g>
   <g id="line2d_29">
    <path clip-path="url(#p55a2aadd3b)" d="
M387.641 263.079
L538.999 263.079" style="fill:none;stroke:#494949;stroke-dasharray:1.000000,3.000000;stroke-dashoffset:0.0;stroke-width:1.5;"/>
   </g>
   <g id="line2d_30">
    <path clip-path="url(#p55a2aadd3b)" d="
M408.148 227.299
L518.492 227.299" style="fill:none;stroke:#494949;stroke-dasharray:1.000000,3.000000;stroke-dashoffset:0.0;stroke-width:1.5;"/>
   </g>
   <g id="line2d_31">
    <path clip-path="url(#p55a2aadd3b)" d="
M388.224 247.688
L538.416 247.688" style="fill:none;stroke:#494949;stroke-dasharray:6.000000,6.000000;stroke-dashoffset:0.0;stroke-width:1.5;"/>
   </g>
   <g id="line2d_32">
    <path clip-path="url(#p55a2aadd3b)" d="
M463.283 310.186
L463.124 305.759
L462.781 302.807
L462.468 301.332
L462.015 299.856
L461.381 298.381
L460.522 296.905
L459.397 295.429
L457.968 293.954
L456.205 292.478
L454.089 291.002
L451.613 289.527
L448.785 288.051
L445.619 286.575
L438.381 283.624
L430.177 280.673
L404.305 271.819
L400.592 270.343
L397.229 268.867
L394.249 267.392
L391.656 265.916
L389.439 264.44
L387.574 262.965
L386.033 261.489
L384.798 260.014
L383.864 258.538
L383.245 257.062
L382.968 255.587
L383.067 254.111
L383.574 252.635
L384.506 251.16
L385.856 249.684
L387.586 248.208
L389.628 246.733
L398.738 240.83
L400.682 239.354
L402.329 237.879
L403.66 236.403
L404.694 234.927
L405.486 233.452
L408.055 227.549
L409.033 226.073
L410.301 224.598
L411.901 223.122
L413.847 221.647
L416.129 220.171
L418.708 218.695
L424.506 215.744
L433.562 211.317
L438.902 208.366
L441.196 206.89
L443.212 205.414
L444.953 203.939
L446.441 202.463
L447.706 200.987
L448.784 199.512
L450.498 196.56
L451.752 193.609
L452.617 190.658
L453.187 187.706
L453.961 183.28
L454.791 180.328
L455.997 177.377
L460.141 168.523
L461.062 165.572
L461.676 162.62
L462.043 159.669
L462.271 155.242
L462.464 143.437
L463.231 130.156
L463.296 122.778
L463.296 122.778" style="fill:none;stroke:#494949;stroke-linecap:round;stroke-width:1.5;"/>
   </g>
   <g id="line2d_33">
    <path clip-path="url(#p55a2aadd3b)" d="
M463.357 310.186
L463.516 305.759
L463.859 302.807
L464.172 301.332
L464.625 299.856
L465.259 298.381
L466.118 296.905
L467.243 295.429
L468.672 293.954
L470.435 292.478
L472.551 291.002
L475.027 289.527
L477.855 288.051
L481.021 286.575
L488.259 283.624
L496.463 280.673
L522.335 271.819
L526.048 270.343
L529.411 268.867
L532.391 267.392
L534.984 265.916
L537.201 264.44
L539.066 262.965
L540.607 261.489
L541.842 260.014
L542.776 258.538
L543.395 257.062
L543.672 255.587
L543.573 254.111
L543.066 252.635
L542.134 251.16
L540.784 249.684
L539.054 248.208
L537.012 246.733
L527.902 240.83
L525.958 239.354
L524.311 237.879
L522.98 236.403
L521.946 234.927
L521.154 233.452
L518.585 227.549
L517.607 226.073
L516.339 224.598
L514.739 223.122
L512.793 221.647
L510.511 220.171
L507.932 218.695
L502.134 215.744
L493.078 211.317
L487.738 208.366
L485.444 206.89
L483.428 205.414
L481.687 203.939
L480.199 202.463
L478.934 200.987
L477.856 199.512
L476.142 196.56
L474.888 193.609
L474.023 190.658
L473.453 187.706
L472.679 183.28
L471.849 180.328
L470.643 177.377
L466.499 168.523
L465.578 165.572
L464.964 162.62
L464.597 159.669
L464.369 155.242
L464.176 143.437
L463.409 130.156
L463.344 122.778
L463.344 122.778" style="fill:none;stroke:#494949;stroke-linecap:round;stroke-width:1.5;"/>
   </g>
   <g id="line2d_34">
    <path clip-path="url(#p55a2aadd3b)" d="
M586.261 256.379
L742.139 256.379" style="fill:none;stroke:#494949;stroke-dasharray:1.000000,3.000000;stroke-dashoffset:0.0;stroke-width:1.5;"/>
   </g>
   <g id="line2d_35">
    <path clip-path="url(#p55a2aadd3b)" d="
M596.048 223.344
L732.352 223.344" style="fill:none;stroke:#494949;stroke-dasharray:1.000000,3.000000;stroke-dashoffset:0.0;stroke-width:1.5;"/>
   </g>
   <g id="line2d_36">
    <path clip-path="url(#p55a2aadd3b)" d="
M584.997 240.006
L743.403 240.006" style="fill:none;stroke:#494949;stroke-dasharray:6.000000,6.000000;stroke-dashoffset:0.0;stroke-width:1.5;"/>
   </g>
   <g id="line2d_37">
    <path clip-path="url(#p55a2aadd3b)" d="
M664.182 312.511
L664.055 306.164
L663.811 302.99
L663.274 299.816
L662.832 298.229
L662.233 296.642
L661.446 295.055
L660.437 293.468
L659.178 291.881
L657.642 290.294
L655.806 288.707
L653.653 287.12
L651.17 285.533
L648.347 283.947
L645.185 282.36
L641.693 280.773
L633.822 277.599
L625.106 274.425
L611.762 269.664
L603.601 266.49
L599.919 264.903
L596.557 263.316
L593.546 261.729
L590.915 260.143
L588.691 258.556
L586.896 256.969
L585.539 255.382
L584.608 253.795
L584.066 252.208
L583.848 250.621
L583.87 249.034
L584.272 245.86
L584.89 241.099
L585.336 237.926
L585.704 236.339
L586.233 234.752
L586.95 233.165
L587.872 231.578
L589 229.991
L590.337 228.404
L591.886 226.817
L593.659 225.23
L595.677 223.643
L597.962 222.056
L600.535 220.469
L603.406 218.882
L606.565 217.295
L613.603 214.122
L628.393 207.774
L631.708 206.187
L634.738 204.6
L637.463 203.013
L639.895 201.426
L642.062 199.839
L644.005 198.252
L647.352 195.078
L650.106 191.904
L652.302 188.731
L654.005 185.557
L656.062 180.796
L659.962 171.274
L660.97 168.101
L661.745 164.927
L662.635 160.166
L663.337 155.405
L663.768 150.644
L663.858 147.47
L663.75 142.71
L663.482 134.775
L663.586 130.014
L664.132 117.319
L664.184 110.971
L664.184 110.971" style="fill:none;stroke:#494949;stroke-linecap:round;stroke-width:1.5;"/>
   </g>
   <g id="line2d_38">
    <path clip-path="url(#p55a2aadd3b)" d="
M664.218 312.511
L664.345 306.164
L664.589 302.99
L665.126 299.816
L665.568 298.229
L666.167 296.642
L666.954 295.055
L667.963 293.468
L669.222 291.881
L670.758 290.294
L672.594 288.707
L674.747 287.12
L677.23 285.533
L680.053 283.947
L683.215 282.36
L686.707 280.773
L694.578 277.599
L703.294 274.425
L716.638 269.664
L724.799 266.49
L728.481 264.903
L731.843 263.316
L734.854 261.729
L737.485 260.143
L739.709 258.556
L741.504 256.969
L742.861 255.382
L743.792 253.795
L744.334 252.208
L744.552 250.621
L744.53 249.034
L744.128 245.86
L743.51 241.099
L743.064 237.926
L742.696 236.339
L742.167 234.752
L741.45 233.165
L740.528 231.578
L739.4 229.991
L738.063 228.404
L736.514 226.817
L734.741 225.23
L732.723 223.643
L730.438 222.056
L727.865 220.469
L724.994 218.882
L721.835 217.295
L714.797 214.122
L700.007 207.774
L696.692 206.187
L693.662 204.6
L690.937 203.013
L688.505 201.426
L686.338 199.839
L684.395 198.252
L681.048 195.078
L678.294 191.904
L676.098 188.731
L674.395 185.557
L672.338 180.796
L668.438 171.274
L667.43 168.101
L666.655 164.927
L665.765 160.166
L665.063 155.405
L664.632 150.644
L664.542 147.47
L664.65 142.71
L664.918 134.775
L664.814 130.014
L664.268 117.319
L664.216 110.971
L664.216 110.971" style="fill:none;stroke:#494949;stroke-linecap:round;stroke-width:1.5;"/>
   </g>
   <g id="line2d_39">
    <path clip-path="url(#p55a2aadd3b)" d="
M797.264 255.437
L932.896 255.437" style="fill:none;stroke:#494949;stroke-dasharray:1.000000,3.000000;stroke-dashoffset:0.0;stroke-width:1.5;"/>
   </g>
   <g id="line2d_40">
    <path clip-path="url(#p55a2aadd3b)" d="
M797.328 227.735
L932.832 227.735" style="fill:none;stroke:#494949;stroke-dasharray:1.000000,3.000000;stroke-dashoffset:0.0;stroke-width:1.5;"/>
   </g>
   <g id="line2d_41">
    <path clip-path="url(#p55a2aadd3b)" d="
M784.64 241.287
L945.52 241.287" style="fill:none;stroke:#494949;stroke-dasharray:6.000000,6.000000;stroke-dashoffset:0.0;stroke-width:1.5;"/>
   </g>
   <g id="line2d_42">
    <path clip-path="url(#p55a2aadd3b)" d="
M865.051 300.227
L864.91 295.589
L864.584 292.806
L864.157 290.951
L863.474 289.096
L862.452 287.24
L861.01 285.385
L859.076 283.53
L856.596 281.675
L853.542 279.819
L849.922 277.964
L845.785 276.109
L838.858 273.326
L807.645 261.267
L803.54 259.411
L800.166 257.556
L797.613 255.701
L795.709 253.846
L792.353 250.135
L790.326 248.28
L787.099 245.497
L786.184 244.569
L785.453 243.642
L784.956 242.714
L784.728 241.786
L784.781 240.859
L785.106 239.931
L785.674 239.004
L787.347 237.148
L794.154 230.655
L796.089 228.8
L798.418 226.944
L801.351 225.089
L804.933 223.234
L809.05 221.379
L815.81 218.596
L827.673 213.957
L844.641 207.464
L848.942 205.609
L852.69 203.754
L855.817 201.898
L858.339 200.043
L860.326 198.188
L861.857 196.332
L863.002 194.477
L863.82 192.622
L864.368 190.767
L864.709 188.911
L864.96 186.129
L865.05 182.418
L865.05 182.418" style="fill:none;stroke:#494949;stroke-linecap:round;stroke-width:1.5;"/>
   </g>
   <g id="line2d_43">
    <path clip-path="url(#p55a2aadd3b)" d="
M865.109 300.227
L865.25 295.589
L865.576 292.806
L866.003 290.951
L866.686 289.096
L867.708 287.24
L869.15 285.385
L871.084 283.53
L873.564 281.675
L876.618 279.819
L880.238 277.964
L884.375 276.109
L891.302 273.326
L922.515 261.267
L926.62 259.411
L929.994 257.556
L932.547 255.701
L934.451 253.846
L937.807 250.135
L939.834 248.28
L943.061 245.497
L943.976 244.569
L944.707 243.642
L945.204 242.714
L945.432 241.786
L945.379 240.859
L945.054 239.931
L944.486 239.004
L942.813 237.148
L936.006 230.655
L934.071 228.8
L931.742 226.944
L928.809 225.089
L925.227 223.234
L921.11 221.379
L914.35 218.596
L902.487 213.957
L885.519 207.464
L881.218 205.609
L877.47 203.754
L874.343 201.898
L871.821 200.043
L869.834 198.188
L868.303 196.332
L867.158 194.477
L866.34 192.622
L865.792 190.767
L865.451 188.911
L865.2 186.129
L865.11 182.418
L865.11 182.418" style="fill:none;stroke:#494949;stroke-linecap:round;stroke-width:1.5;"/>
   </g>
   <g id="line2d_44">
    <path clip-path="url(#p55a2aadd3b)" d="
M987.031 262.487
L1144.89 262.487" style="fill:none;stroke:#494949;stroke-dasharray:1.000000,3.000000;stroke-dashoffset:0.0;stroke-width:1.5;"/>
   </g>
   <g id="line2d_45">
    <path clip-path="url(#p55a2aadd3b)" d="
M990.975 226.575
L1140.94 226.575" style="fill:none;stroke:#494949;stroke-dasharray:1.000000,3.000000;stroke-dashoffset:0.0;stroke-width:1.5;"/>
   </g>
   <g id="line2d_46">
    <path clip-path="url(#p55a2aadd3b)" d="
M988.092 244.234
L1143.83 244.234" style="fill:none;stroke:#494949;stroke-dasharray:6.000000,6.000000;stroke-dashoffset:0.0;stroke-width:1.5;"/>
   </g>
   <g id="line2d_47">
    <path clip-path="url(#p55a2aadd3b)" d="
M1065.93 313.23
L1065.8 308.293
L1065.48 305.001
L1065.18 303.356
L1064.71 301.71
L1064.04 300.064
L1063.11 298.418
L1061.84 296.773
L1060.2 295.127
L1058.13 293.481
L1055.6 291.836
L1052.61 290.19
L1049.15 288.544
L1045.26 286.899
L1040.99 285.253
L1031.59 281.962
L1011.82 275.379
L1002.98 272.088
L999.099 270.442
L995.654 268.796
L992.691 267.15
L990.243 265.505
L988.326 263.859
L986.94 262.213
L986.061 260.568
L985.641 258.922
L985.608 257.276
L985.87 255.631
L986.86 252.339
L987.807 249.048
L988.073 247.402
L988.15 245.757
L988.039 244.111
L987.404 240.82
L986.677 237.528
L986.479 235.882
L986.495 234.237
L986.788 232.591
L987.416 230.945
L988.429 229.3
L989.871 227.654
L991.784 226.008
L994.199 224.363
L997.129 222.717
L1000.56 221.071
L1004.46 219.426
L1013.25 216.134
L1026.99 211.197
L1031.18 209.552
L1035.04 207.906
L1038.51 206.26
L1041.6 204.615
L1044.34 202.969
L1046.75 201.323
L1048.89 199.677
L1050.78 198.032
L1052.45 196.386
L1053.93 194.74
L1055.23 193.095
L1056.35 191.449
L1057.31 189.803
L1058.12 188.158
L1059.35 184.866
L1060.21 181.575
L1063.45 166.764
L1064.54 161.827
L1065.1 158.535
L1065.5 155.244
L1065.81 150.307
L1065.86 145.37
L1065.67 138.787
L1065.22 128.913
L1065.29 123.976
L1065.91 109.165
L1065.94 104.228
L1065.94 104.228" style="fill:none;stroke:#494949;stroke-linecap:round;stroke-width:1.5;"/>
   </g>
   <g id="line2d_48">
    <path clip-path="url(#p55a2aadd3b)" d="
M1065.99 313.23
L1066.12 308.293
L1066.44 305.001
L1066.74 303.356
L1067.21 301.71
L1067.88 300.064
L1068.81 298.418
L1070.08 296.773
L1071.72 295.127
L1073.79 293.481
L1076.32 291.836
L1079.31 290.19
L1082.77 288.544
L1086.66 286.899
L1090.93 285.253
L1100.33 281.962
L1120.1 275.379
L1128.94 272.088
L1132.82 270.442
L1136.27 268.796
L1139.23 267.15
L1141.68 265.505
L1143.59 263.859
L1144.98 262.213
L1145.86 260.568
L1146.28 258.922
L1146.31 257.276
L1146.05 255.631
L1145.06 252.339
L1144.11 249.048
L1143.85 247.402
L1143.77 245.757
L1143.88 244.111
L1144.52 240.82
L1145.24 237.528
L1145.44 235.882
L1145.43 234.237
L1145.13 232.591
L1144.5 230.945
L1143.49 229.3
L1142.05 227.654
L1140.14 226.008
L1137.72 224.363
L1134.79 222.717
L1131.36 221.071
L1127.46 219.426
L1118.67 216.134
L1104.93 211.197
L1100.74 209.552
L1096.88 207.906
L1093.41 206.26
L1090.32 204.615
L1087.58 202.969
L1085.17 201.323
L1083.03 199.677
L1081.14 198.032
L1079.47 196.386
L1077.99 194.74
L1076.69 193.095
L1075.57 191.449
L1074.61 189.803
L1073.8 188.158
L1072.57 184.866
L1071.71 181.575
L1068.47 166.764
L1067.38 161.827
L1066.82 158.535
L1066.42 155.244
L1066.11 150.307
L1066.06 145.37
L1066.25 138.787
L1066.7 128.913
L1066.63 123.976
L1066.01 109.165
L1065.98 104.228
L1065.98 104.228" style="fill:none;stroke:#494949;stroke-linecap:round;stroke-width:1.5;"/>
   </g>
   <g id="patch_3">
    <path d="
M162 325.636
L1166.4 325.636" style="fill:none;stroke:#000000;"/>
   </g>
   <g id="patch_4">
    <path d="
M162 325.636
L162 72" style="fill:none;stroke:#000000;"/>
   </g>
   <g id="text_16">
    <!-- Distribution of Centroid Distances by Cluster -->
    <defs>
     <path d="
M32.1719 -5.07812
Q28.375 -14.8438 24.75 -17.8125
Q21.1406 -20.7969 15.0938 -20.7969
L7.90625 -20.7969
L7.90625 -13.2812
L13.1875 -13.2812
Q16.8906 -13.2812 18.9375 -11.5156
Q21 -9.76562 23.4844 -3.21875
L25.0938 0.875
L2.98438 54.6875
L12.5 54.6875
L29.5938 11.9219
L46.6875 54.6875
L56.2031 54.6875
z
" id="BitstreamVeraSans-Roman-79"/>
     <path d="
M8.5 21.5781
L8.5 54.6875
L17.4844 54.6875
L17.4844 21.9219
Q17.4844 14.1562 20.5 10.2656
Q23.5312 6.39062 29.5938 6.39062
Q36.8594 6.39062 41.0781 11.0312
Q45.3125 15.6719 45.3125 23.6875
L45.3125 54.6875
L54.2969 54.6875
L54.2969 0
L45.3125 0
L45.3125 8.40625
Q42.0469 3.42188 37.7188 1
Q33.4062 -1.42188 27.6875 -1.42188
Q18.2656 -1.42188 13.375 4.4375
Q8.5 10.2969 8.5 21.5781" id="BitstreamVeraSans-Roman-75"/>
     <path d="
M37.1094 75.9844
L37.1094 68.5
L28.5156 68.5
Q23.6875 68.5 21.7969 66.5469
Q19.9219 64.5938 19.9219 59.5156
L19.9219 54.6875
L34.7188 54.6875
L34.7188 47.7031
L19.9219 47.7031
L19.9219 0
L10.8906 0
L10.8906 47.7031
L2.29688 47.7031
L2.29688 54.6875
L10.8906 54.6875
L10.8906 58.5
Q10.8906 67.625 15.1406 71.7969
Q19.3906 75.9844 28.6094 75.9844
z
" id="BitstreamVeraSans-Roman-66"/>
     <path d="
M9.42188 75.9844
L18.4062 75.9844
L18.4062 0
L9.42188 0
z
" id="BitstreamVeraSans-Roman-6c"/>
     <path d="
M48.6875 27.2969
Q48.6875 37.2031 44.6094 42.8438
Q40.5312 48.4844 33.4062 48.4844
Q26.2656 48.4844 22.1875 42.8438
Q18.1094 37.2031 18.1094 27.2969
Q18.1094 17.3906 22.1875 11.75
Q26.2656 6.10938 33.4062 6.10938
Q40.5312 6.10938 44.6094 11.75
Q48.6875 17.3906 48.6875 27.2969
M18.1094 46.3906
Q20.9531 51.2656 25.2656 53.625
Q29.5938 56 35.5938 56
Q45.5625 56 51.7812 48.0938
Q58.0156 40.1875 58.0156 27.2969
Q58.0156 14.4062 51.7812 6.48438
Q45.5625 -1.42188 35.5938 -1.42188
Q29.5938 -1.42188 25.2656 0.953125
Q20.9531 3.32812 18.1094 8.20312
L18.1094 0
L9.07812 0
L9.07812 75.9844
L18.1094 75.9844
z
" id="BitstreamVeraSans-Roman-62"/>
    </defs>
    <g transform="translate(530.3484375 67.0)scale(0.12 -0.12)">
     <use xlink:href="#BitstreamVeraSans-Roman-44"/>
     <use x="77.001953125" xlink:href="#BitstreamVeraSans-Roman-69"/>
     <use x="104.78515625" xlink:href="#BitstreamVeraSans-Roman-73"/>
     <use x="156.884765625" xlink:href="#BitstreamVeraSans-Roman-74"/>
     <use x="196.09375" xlink:href="#BitstreamVeraSans-Roman-72"/>
     <use x="237.20703125" xlink:href="#BitstreamVeraSans-Roman-69"/>
     <use x="264.990234375" xlink:href="#BitstreamVeraSans-Roman-62"/>
     <use x="328.466796875" xlink:href="#BitstreamVeraSans-Roman-75"/>
     <use x="391.845703125" xlink:href="#BitstreamVeraSans-Roman-74"/>
     <use x="431.0546875" xlink:href="#BitstreamVeraSans-Roman-69"/>
     <use x="458.837890625" xlink:href="#BitstreamVeraSans-Roman-6f"/>
     <use x="520.01953125" xlink:href="#BitstreamVeraSans-Roman-6e"/>
     <use x="583.3984375" xlink:href="#BitstreamVeraSans-Roman-20"/>
     <use x="615.185546875" xlink:href="#BitstreamVeraSans-Roman-6f"/>
     <use x="676.3671875" xlink:href="#BitstreamVeraSans-Roman-66"/>
     <use x="711.572265625" xlink:href="#BitstreamVeraSans-Roman-20"/>
     <use x="743.359375" xlink:href="#BitstreamVeraSans-Roman-43"/>
     <use x="813.18359375" xlink:href="#BitstreamVeraSans-Roman-65"/>
     <use x="874.70703125" xlink:href="#BitstreamVeraSans-Roman-6e"/>
     <use x="938.0859375" xlink:href="#BitstreamVeraSans-Roman-74"/>
     <use x="977.294921875" xlink:href="#BitstreamVeraSans-Roman-72"/>
     <use x="1016.15820312" xlink:href="#BitstreamVeraSans-Roman-6f"/>
     <use x="1077.33984375" xlink:href="#BitstreamVeraSans-Roman-69"/>
     <use x="1105.12304688" xlink:href="#BitstreamVeraSans-Roman-64"/>
     <use x="1168.59960938" xlink:href="#BitstreamVeraSans-Roman-20"/>
     <use x="1200.38671875" xlink:href="#BitstreamVeraSans-Roman-44"/>
     <use x="1277.38867188" xlink:href="#BitstreamVeraSans-Roman-69"/>
     <use x="1305.171875" xlink:href="#BitstreamVeraSans-Roman-73"/>
     <use x="1357.27148438" xlink:href="#BitstreamVeraSans-Roman-74"/>
     <use x="1396.48046875" xlink:href="#BitstreamVeraSans-Roman-61"/>
     <use x="1457.75976562" xlink:href="#BitstreamVeraSans-Roman-6e"/>
     <use x="1521.13867188" xlink:href="#BitstreamVeraSans-Roman-63"/>
     <use x="1576.11914062" xlink:href="#BitstreamVeraSans-Roman-65"/>
     <use x="1637.64257812" xlink:href="#BitstreamVeraSans-Roman-73"/>
     <use x="1689.7421875" xlink:href="#BitstreamVeraSans-Roman-20"/>
     <use x="1721.52929688" xlink:href="#BitstreamVeraSans-Roman-62"/>
     <use x="1785.00585938" xlink:href="#BitstreamVeraSans-Roman-79"/>
     <use x="1844.18554688" xlink:href="#BitstreamVeraSans-Roman-20"/>
     <use x="1875.97265625" xlink:href="#BitstreamVeraSans-Roman-43"/>
     <use x="1945.796875" xlink:href="#BitstreamVeraSans-Roman-6c"/>
     <use x="1973.58007812" xlink:href="#BitstreamVeraSans-Roman-75"/>
     <use x="2036.95898438" xlink:href="#BitstreamVeraSans-Roman-73"/>
     <use x="2089.05859375" xlink:href="#BitstreamVeraSans-Roman-74"/>
     <use x="2128.26757812" xlink:href="#BitstreamVeraSans-Roman-65"/>
     <use x="2189.79101562" xlink:href="#BitstreamVeraSans-Roman-72"/>
    </g>
   </g>
  </g>
  <g id="axes_2">
   <g id="patch_5">
    <path d="
M162 630
L1166.4 630
L1166.4 376.364
L162 376.364
z
" style="fill:#ffffff;"/>
   </g>
   <g id="matplotlib.axis_3">
    <g id="xtick_6">
     <g id="line2d_49">
      <path clip-path="url(#pe88aad526e)" d="
M281.571 630
L281.571 376.364" style="fill:none;stroke:#ffffff;stroke-linecap:round;stroke-width:0.8;"/>
     </g>
     <g id="line2d_50">
      <g>
       <use style="stroke:#000000;stroke-width:0.5;" x="281.571428571" xlink:href="#m48243eeccc" y="630.0"/>
      </g>
     </g>
     <g id="text_17">
      <!-- 0 -->
      <g transform="translate(284.330803571 642.0390625)rotate(-90.0)scale(0.1 -0.1)">
       <use xlink:href="#BitstreamVeraSans-Roman-30"/>
      </g>
     </g>
    </g>
    <g id="xtick_7">
     <g id="line2d_51">
      <path clip-path="url(#pe88aad526e)" d="
M472.886 630
L472.886 376.364" style="fill:none;stroke:#ffffff;stroke-linecap:round;stroke-width:0.8;"/>
     </g>
     <g id="line2d_52">
      <g>
       <use style="stroke:#000000;stroke-width:0.5;" x="472.885714286" xlink:href="#m48243eeccc" y="630.0"/>
      </g>
     </g>
     <g id="text_18">
      <!-- 1 -->
      <g transform="translate(475.645089286 641.340625)rotate(-90.0)scale(0.1 -0.1)">
       <use xlink:href="#BitstreamVeraSans-Roman-31"/>
      </g>
     </g>
    </g>
    <g id="xtick_8">
     <g id="line2d_53">
      <path clip-path="url(#pe88aad526e)" d="
M664.2 630
L664.2 376.364" style="fill:none;stroke:#ffffff;stroke-linecap:round;stroke-width:0.8;"/>
     </g>
     <g id="line2d_54">
      <g>
       <use style="stroke:#000000;stroke-width:0.5;" x="664.2" xlink:href="#m48243eeccc" y="630.0"/>
      </g>
     </g>
     <g id="text_19">
      <!-- 2 -->
      <g transform="translate(666.959375 641.628125)rotate(-90.0)scale(0.1 -0.1)">
       <use xlink:href="#BitstreamVeraSans-Roman-32"/>
      </g>
     </g>
    </g>
    <g id="xtick_9">
     <g id="line2d_55">
      <path clip-path="url(#pe88aad526e)" d="
M855.514 630
L855.514 376.364" style="fill:none;stroke:#ffffff;stroke-linecap:round;stroke-width:0.8;"/>
     </g>
     <g id="line2d_56">
      <g>
       <use style="stroke:#000000;stroke-width:0.5;" x="855.514285714" xlink:href="#m48243eeccc" y="630.0"/>
      </g>
     </g>
     <g id="text_20">
      <!-- 3 -->
      <g transform="translate(858.273660714 641.7984375)rotate(-90.0)scale(0.1 -0.1)">
       <use xlink:href="#BitstreamVeraSans-Roman-33"/>
      </g>
     </g>
    </g>
    <g id="xtick_10">
     <g id="line2d_57">
      <path clip-path="url(#pe88aad526e)" d="
M1046.83 630
L1046.83 376.364" style="fill:none;stroke:#ffffff;stroke-linecap:round;stroke-width:0.8;"/>
     </g>
     <g id="line2d_58">
      <g>
       <use style="stroke:#000000;stroke-width:0.5;" x="1046.82857143" xlink:href="#m48243eeccc" y="630.0"/>
      </g>
     </g>
     <g id="text_21">
      <!-- 4 -->
      <g transform="translate(1049.58794643 642.3125)rotate(-90.0)scale(0.1 -0.1)">
       <use xlink:href="#BitstreamVeraSans-Roman-34"/>
      </g>
     </g>
    </g>
   </g>
   <g id="matplotlib.axis_4">
    <g id="ytick_10">
     <g id="line2d_59">
      <path clip-path="url(#pe88aad526e)" d="
M162 630
L1166.4 630" style="fill:none;stroke:#ffffff;stroke-linecap:round;stroke-width:0.8;"/>
     </g>
     <g id="line2d_60">
      <g>
       <use style="stroke:#000000;stroke-width:0.5;" x="162.0" xlink:href="#m48243eeccc" y="630.0"/>
      </g>
     </g>
     <g id="text_22">
      <!-- 0.0 -->
      <g transform="translate(140.4203125 632.759375)scale(0.1 -0.1)">
       <use xlink:href="#BitstreamVeraSans-Roman-30"/>
       <use x="63.623046875" xlink:href="#BitstreamVeraSans-Roman-2e"/>
       <use x="95.41015625" xlink:href="#BitstreamVeraSans-Roman-30"/>
      </g>
     </g>
    </g>
    <g id="ytick_11">
     <g id="line2d_61">
      <path clip-path="url(#pe88aad526e)" d="
M162 587.727
L1166.4 587.727" style="fill:none;stroke:#ffffff;stroke-linecap:round;stroke-width:0.8;"/>
     </g>
     <g id="line2d_62">
      <g>
       <use style="stroke:#000000;stroke-width:0.5;" x="162.0" xlink:href="#m48243eeccc" y="587.727272727"/>
      </g>
     </g>
     <g id="text_23">
      <!-- 0.1 -->
      <g transform="translate(140.6796875 590.486647727)scale(0.1 -0.1)">
       <use xlink:href="#BitstreamVeraSans-Roman-30"/>
       <use x="63.623046875" xlink:href="#BitstreamVeraSans-Roman-2e"/>
       <use x="95.41015625" xlink:href="#BitstreamVeraSans-Roman-31"/>
      </g>
     </g>
    </g>
    <g id="ytick_12">
     <g id="line2d_63">
      <path clip-path="url(#pe88aad526e)" d="
M162 545.455
L1166.4 545.455" style="fill:none;stroke:#ffffff;stroke-linecap:round;stroke-width:0.8;"/>
     </g>
     <g id="line2d_64">
      <g>
       <use style="stroke:#000000;stroke-width:0.5;" x="162.0" xlink:href="#m48243eeccc" y="545.454545455"/>
      </g>
     </g>
     <g id="text_24">
      <!-- 0.2 -->
      <g transform="translate(140.7578125 548.213920455)scale(0.1 -0.1)">
       <use xlink:href="#BitstreamVeraSans-Roman-30"/>
       <use x="63.623046875" xlink:href="#BitstreamVeraSans-Roman-2e"/>
       <use x="95.41015625" xlink:href="#BitstreamVeraSans-Roman-32"/>
      </g>
     </g>
    </g>
    <g id="ytick_13">
     <g id="line2d_65">
      <path clip-path="url(#pe88aad526e)" d="
M162 503.182
L1166.4 503.182" style="fill:none;stroke:#ffffff;stroke-linecap:round;stroke-width:0.8;"/>
     </g>
     <g id="line2d_66">
      <g>
       <use style="stroke:#000000;stroke-width:0.5;" x="162.0" xlink:href="#m48243eeccc" y="503.181818182"/>
      </g>
     </g>
     <g id="text_25">
      <!-- 0.3 -->
      <g transform="translate(140.5578125 505.941193182)scale(0.1 -0.1)">
       <use xlink:href="#BitstreamVeraSans-Roman-30"/>
       <use x="63.623046875" xlink:href="#BitstreamVeraSans-Roman-2e"/>
       <use x="95.41015625" xlink:href="#BitstreamVeraSans-Roman-33"/>
      </g>
     </g>
    </g>
    <g id="ytick_14">
     <g id="line2d_67">
      <path clip-path="url(#pe88aad526e)" d="
M162 460.909
L1166.4 460.909" style="fill:none;stroke:#ffffff;stroke-linecap:round;stroke-width:0.8;"/>
     </g>
     <g id="line2d_68">
      <g>
       <use style="stroke:#000000;stroke-width:0.5;" x="162.0" xlink:href="#m48243eeccc" y="460.909090909"/>
      </g>
     </g>
     <g id="text_26">
      <!-- 0.4 -->
      <g transform="translate(140.3171875 463.668465909)scale(0.1 -0.1)">
       <use xlink:href="#BitstreamVeraSans-Roman-30"/>
       <use x="63.623046875" xlink:href="#BitstreamVeraSans-Roman-2e"/>
       <use x="95.41015625" xlink:href="#BitstreamVeraSans-Roman-34"/>
      </g>
     </g>
    </g>
    <g id="ytick_15">
     <g id="line2d_69">
      <path clip-path="url(#pe88aad526e)" d="
M162 418.636
L1166.4 418.636" style="fill:none;stroke:#ffffff;stroke-linecap:round;stroke-width:0.8;"/>
     </g>
     <g id="line2d_70">
      <g>
       <use style="stroke:#000000;stroke-width:0.5;" x="162.0" xlink:href="#m48243eeccc" y="418.636363636"/>
      </g>
     </g>
     <g id="text_27">
      <!-- 0.5 -->
      <g transform="translate(140.6296875 421.395738636)scale(0.1 -0.1)">
       <use xlink:href="#BitstreamVeraSans-Roman-30"/>
       <use x="63.623046875" xlink:href="#BitstreamVeraSans-Roman-2e"/>
       <use x="95.41015625" xlink:href="#BitstreamVeraSans-Roman-35"/>
      </g>
     </g>
    </g>
    <g id="ytick_16">
     <g id="line2d_71">
      <path clip-path="url(#pe88aad526e)" d="
M162 376.364
L1166.4 376.364" style="fill:none;stroke:#ffffff;stroke-linecap:round;stroke-width:0.8;"/>
     </g>
     <g id="line2d_72">
      <g>
       <use style="stroke:#000000;stroke-width:0.5;" x="162.0" xlink:href="#m48243eeccc" y="376.363636364"/>
      </g>
     </g>
     <g id="text_28">
      <!-- 0.6 -->
      <g transform="translate(140.3859375 379.123011364)scale(0.1 -0.1)">
       <use xlink:href="#BitstreamVeraSans-Roman-30"/>
       <use x="63.623046875" xlink:href="#BitstreamVeraSans-Roman-2e"/>
       <use x="95.41015625" xlink:href="#BitstreamVeraSans-Roman-36"/>
      </g>
     </g>
    </g>
    <g id="text_29">
     <!-- Coefficient of Variation -->
     <defs>
      <path d="
M28.6094 0
L0.78125 72.9062
L11.0781 72.9062
L34.1875 11.5312
L57.3281 72.9062
L67.5781 72.9062
L39.7969 0
z
" id="BitstreamVeraSans-Roman-56"/>
     </defs>
     <g transform="translate(133.02953125 565.482208807)rotate(-90.0)scale(0.11 -0.11)">
      <use xlink:href="#BitstreamVeraSans-Roman-43"/>
      <use x="69.82421875" xlink:href="#BitstreamVeraSans-Roman-6f"/>
      <use x="131.005859375" xlink:href="#BitstreamVeraSans-Roman-65"/>
      <use x="192.529296875" xlink:href="#BitstreamVeraSans-Roman-66"/>
      <use x="227.734375" xlink:href="#BitstreamVeraSans-Roman-66"/>
      <use x="262.939453125" xlink:href="#BitstreamVeraSans-Roman-69"/>
      <use x="290.72265625" xlink:href="#BitstreamVeraSans-Roman-63"/>
      <use x="345.703125" xlink:href="#BitstreamVeraSans-Roman-69"/>
      <use x="373.486328125" xlink:href="#BitstreamVeraSans-Roman-65"/>
      <use x="435.009765625" xlink:href="#BitstreamVeraSans-Roman-6e"/>
      <use x="498.388671875" xlink:href="#BitstreamVeraSans-Roman-74"/>
      <use x="537.59765625" xlink:href="#BitstreamVeraSans-Roman-20"/>
      <use x="569.384765625" xlink:href="#BitstreamVeraSans-Roman-6f"/>
      <use x="630.56640625" xlink:href="#BitstreamVeraSans-Roman-66"/>
      <use x="665.771484375" xlink:href="#BitstreamVeraSans-Roman-20"/>
      <use x="697.55859375" xlink:href="#BitstreamVeraSans-Roman-56"/>
      <use x="758.216796875" xlink:href="#BitstreamVeraSans-Roman-61"/>
      <use x="819.49609375" xlink:href="#BitstreamVeraSans-Roman-72"/>
      <use x="860.609375" xlink:href="#BitstreamVeraSans-Roman-69"/>
      <use x="888.392578125" xlink:href="#BitstreamVeraSans-Roman-61"/>
      <use x="949.671875" xlink:href="#BitstreamVeraSans-Roman-74"/>
      <use x="988.880859375" xlink:href="#BitstreamVeraSans-Roman-69"/>
      <use x="1016.6640625" xlink:href="#BitstreamVeraSans-Roman-6f"/>
      <use x="1077.84570312" xlink:href="#BitstreamVeraSans-Roman-6e"/>
     </g>
    </g>
   </g>
   <g id="patch_6">
    <path clip-path="url(#pe88aad526e)" d="
M209.829 630
L353.314 630
L353.314 409.517
L209.829 409.517
z
" style="fill:#4c72b0;stroke:#000000;stroke-width:0.3;"/>
   </g>
   <g id="patch_7">
    <path clip-path="url(#pe88aad526e)" d="
M401.143 630
L544.629 630
L544.629 417.34
L401.143 417.34
z
" style="fill:#4c72b0;stroke:#000000;stroke-width:0.3;"/>
   </g>
   <g id="patch_8">
    <path clip-path="url(#pe88aad526e)" d="
M592.457 630
L735.943 630
L735.943 443.557
L592.457 443.557
z
" style="fill:#4c72b0;stroke:#000000;stroke-width:0.3;"/>
   </g>
   <g id="patch_9">
    <path clip-path="url(#pe88aad526e)" d="
M783.771 630
L927.257 630
L927.257 485.498
L783.771 485.498
z
" style="fill:#4c72b0;stroke:#000000;stroke-width:0.3;"/>
   </g>
   <g id="patch_10">
    <path clip-path="url(#pe88aad526e)" d="
M975.086 630
L1118.57 630
L1118.57 426.79
L975.086 426.79
z
" style="fill:#4c72b0;stroke:#000000;stroke-width:0.3;"/>
   </g>
   <g id="line2d_73">
    <path clip-path="url(#pe88aad526e)" d="
M162 630
L1166.4 630" style="fill:none;stroke:#000000;stroke-dasharray:6.000000,6.000000;stroke-dashoffset:0.0;stroke-width:1.4;"/>
   </g>
   <g id="patch_11">
    <path d="
M162 630
L1166.4 630" style="fill:none;stroke:#000000;"/>
   </g>
   <g id="patch_12">
    <path d="
M162 630
L162 376.364" style="fill:none;stroke:#000000;"/>
   </g>
   <g id="text_30">
    <!-- Coefficient of Variation by Cluster -->
    <g transform="translate(563.2575 371.363636364)scale(0.12 -0.12)">
     <use xlink:href="#BitstreamVeraSans-Roman-43"/>
     <use x="69.82421875" xlink:href="#BitstreamVeraSans-Roman-6f"/>
     <use x="131.005859375" xlink:href="#BitstreamVeraSans-Roman-65"/>
     <use x="192.529296875" xlink:href="#BitstreamVeraSans-Roman-66"/>
     <use x="227.734375" xlink:href="#BitstreamVeraSans-Roman-66"/>
     <use x="262.939453125" xlink:href="#BitstreamVeraSans-Roman-69"/>
     <use x="290.72265625" xlink:href="#BitstreamVeraSans-Roman-63"/>
     <use x="345.703125" xlink:href="#BitstreamVeraSans-Roman-69"/>
     <use x="373.486328125" xlink:href="#BitstreamVeraSans-Roman-65"/>
     <use x="435.009765625" xlink:href="#BitstreamVeraSans-Roman-6e"/>
     <use x="498.388671875" xlink:href="#BitstreamVeraSans-Roman-74"/>
     <use x="537.59765625" xlink:href="#BitstreamVeraSans-Roman-20"/>
     <use x="569.384765625" xlink:href="#BitstreamVeraSans-Roman-6f"/>
     <use x="630.56640625" xlink:href="#BitstreamVeraSans-Roman-66"/>
     <use x="665.771484375" xlink:href="#BitstreamVeraSans-Roman-20"/>
     <use x="697.55859375" xlink:href="#BitstreamVeraSans-Roman-56"/>
     <use x="758.216796875" xlink:href="#BitstreamVeraSans-Roman-61"/>
     <use x="819.49609375" xlink:href="#BitstreamVeraSans-Roman-72"/>
     <use x="860.609375" xlink:href="#BitstreamVeraSans-Roman-69"/>
     <use x="888.392578125" xlink:href="#BitstreamVeraSans-Roman-61"/>
     <use x="949.671875" xlink:href="#BitstreamVeraSans-Roman-74"/>
     <use x="988.880859375" xlink:href="#BitstreamVeraSans-Roman-69"/>
     <use x="1016.6640625" xlink:href="#BitstreamVeraSans-Roman-6f"/>
     <use x="1077.84570312" xlink:href="#BitstreamVeraSans-Roman-6e"/>
     <use x="1141.22460938" xlink:href="#BitstreamVeraSans-Roman-20"/>
     <use x="1173.01171875" xlink:href="#BitstreamVeraSans-Roman-62"/>
     <use x="1236.48828125" xlink:href="#BitstreamVeraSans-Roman-79"/>
     <use x="1295.66796875" xlink:href="#BitstreamVeraSans-Roman-20"/>
     <use x="1327.45507812" xlink:href="#BitstreamVeraSans-Roman-43"/>
     <use x="1397.27929688" xlink:href="#BitstreamVeraSans-Roman-6c"/>
     <use x="1425.0625" xlink:href="#BitstreamVeraSans-Roman-75"/>
     <use x="1488.44140625" xlink:href="#BitstreamVeraSans-Roman-73"/>
     <use x="1540.54101562" xlink:href="#BitstreamVeraSans-Roman-74"/>
     <use x="1579.75" xlink:href="#BitstreamVeraSans-Roman-65"/>
     <use x="1641.2734375" xlink:href="#BitstreamVeraSans-Roman-72"/>
    </g>
   </g>
  </g>
 </g>
 <defs>
  <clipPath id="pe88aad526e">
   <rect height="253.636363636" width="1004.4" x="162.0" y="376.363636364"/>
  </clipPath>
  <clipPath id="p55a2aadd3b">
   <rect height="253.636363636" width="1004.4" x="162.0" y="72.0"/>
  </clipPath>
 </defs>
</svg>
