<?xml version="1.0" encoding="utf-8" standalone="no"?>
<!DOCTYPE svg PUBLIC "-//W3C//DTD SVG 1.1//EN"
  "http://www.w3.org/Graphics/SVG/1.1/DTD/svg11.dtd">
<!-- Created with matplotlib (http://matplotlib.org/) -->
<svg height="720pt" version="1.1" viewBox="0 0 1296 720" width="1296pt" xmlns="http://www.w3.org/2000/svg" xmlns:xlink="http://www.w3.org/1999/xlink">
 <defs>
  <style type="text/css">
*{stroke-linecap:butt;stroke-linejoin:round;}
  </style>
 </defs>
 <g id="figure_1">
  <g id="patch_1">
   <path d="
M0 720
L1296 720
L1296 0
L0 0
z
" style="fill:#ffffff;"/>
  </g>
  <g id="axes_1">
   <g id="patch_2">
    <path d="
M162 325.636
L1166.4 325.636
L1166.4 72
L162 72
z
" style="fill:#ffffff;"/>
   </g>
   <g id="matplotlib.axis_1">
    <g id="xtick_1">
     <g id="line2d_1">
      <defs>
       <path d="
M0 0
L0 0" id="m219da94a98" style="stroke:#262626;"/>
      </defs>
      <g>
       <use style="fill:#262626;stroke:#262626;" x="262.44" xlink:href="#m219da94a98" y="325.636363636"/>
      </g>
     </g>
     <g id="text_1">
      <!-- 0 -->
      <defs>
       <path d="
M31.7812 66.4062
Q24.1719 66.4062 20.3281 58.9062
Q16.5 51.4219 16.5 36.375
Q16.5 21.3906 20.3281 13.8906
Q24.1719 6.39062 31.7812 6.39062
Q39.4531 6.39062 43.2812 13.8906
Q47.125 21.3906 47.125 36.375
Q47.125 51.4219 43.2812 58.9062
Q39.4531 66.4062 31.7812 66.4062
M31.7812 74.2188
Q44.0469 74.2188 50.5156 64.5156
Q56.9844 54.8281 56.9844 36.375
Q56.9844 17.9688 50.5156 8.26562
Q44.0469 -1.42188 31.7812 -1.42188
Q19.5312 -1.42188 13.0625 8.26562
Q6.59375 17.9688 6.59375 36.375
Q6.59375 54.8281 13.0625 64.5156
Q19.5312 74.2188 31.7812 74.2188" id="BitstreamVeraSans-Roman-30"/>
      </defs>
      <g style="fill:#262626;" transform="translate(259.92046875 340.234801136)scale(0.1 -0.1)">
       <use xlink:href="#BitstreamVeraSans-Roman-30"/>
      </g>
     </g>
    </g>
    <g id="xtick_2">
     <g id="line2d_2">
      <g>
       <use style="fill:#262626;stroke:#262626;" x="463.32" xlink:href="#m219da94a98" y="325.636363636"/>
      </g>
     </g>
     <g id="text_2">
      <!-- 1 -->
      <defs>
       <path d="
M12.4062 8.29688
L28.5156 8.29688
L28.5156 63.9219
L10.9844 60.4062
L10.9844 69.3906
L28.4219 72.9062
L38.2812 72.9062
L38.2812 8.29688
L54.3906 8.29688
L54.3906 0
L12.4062 0
z
" id="BitstreamVeraSans-Roman-31"/>
      </defs>
      <g style="fill:#262626;" transform="translate(461.1496875 340.234801136)scale(0.1 -0.1)">
       <use xlink:href="#BitstreamVeraSans-Roman-31"/>
      </g>
     </g>
    </g>
    <g id="xtick_3">
     <g id="line2d_3">
      <g>
       <use style="fill:#262626;stroke:#262626;" x="664.2" xlink:href="#m219da94a98" y="325.636363636"/>
      </g>
     </g>
     <g id="text_3">
      <!-- 2 -->
      <defs>
       <path d="
M19.1875 8.29688
L53.6094 8.29688
L53.6094 0
L7.32812 0
L7.32812 8.29688
Q12.9375 14.1094 22.625 23.8906
Q32.3281 33.6875 34.8125 36.5312
Q39.5469 41.8438 41.4219 45.5312
Q43.3125 49.2188 43.3125 52.7812
Q43.3125 58.5938 39.2344 62.25
Q35.1562 65.9219 28.6094 65.9219
Q23.9688 65.9219 18.8125 64.3125
Q13.6719 62.7031 7.8125 59.4219
L7.8125 69.3906
Q13.7656 71.7812 18.9375 73
Q24.125 74.2188 28.4219 74.2188
Q39.75 74.2188 46.4844 68.5469
Q53.2188 62.8906 53.2188 53.4219
Q53.2188 48.9219 51.5312 44.8906
Q49.8594 40.875 45.4062 35.4062
Q44.1875 33.9844 37.6406 27.2188
Q31.1094 20.4531 19.1875 8.29688" id="BitstreamVeraSans-Roman-32"/>
      </defs>
      <g style="fill:#262626;" transform="translate(661.8859375 340.234801136)scale(0.1 -0.1)">
       <use xlink:href="#BitstreamVeraSans-Roman-32"/>
      </g>
     </g>
    </g>
    <g id="xtick_4">
     <g id="line2d_4">
      <g>
       <use style="fill:#262626;stroke:#262626;" x="865.08" xlink:href="#m219da94a98" y="325.636363636"/>
      </g>
     </g>
     <g id="text_4">
      <!-- 3 -->
      <defs>
       <path d="
M40.5781 39.3125
Q47.6562 37.7969 51.625 33
Q55.6094 28.2188 55.6094 21.1875
Q55.6094 10.4062 48.1875 4.48438
Q40.7656 -1.42188 27.0938 -1.42188
Q22.5156 -1.42188 17.6562 -0.515625
Q12.7969 0.390625 7.625 2.20312
L7.625 11.7188
Q11.7188 9.32812 16.5938 8.10938
Q21.4844 6.89062 26.8125 6.89062
Q36.0781 6.89062 40.9375 10.5469
Q45.7969 14.2031 45.7969 21.1875
Q45.7969 27.6406 41.2812 31.2656
Q36.7656 34.9062 28.7188 34.9062
L20.2188 34.9062
L20.2188 43.0156
L29.1094 43.0156
Q36.375 43.0156 40.2344 45.9219
Q44.0938 48.8281 44.0938 54.2969
Q44.0938 59.9062 40.1094 62.9062
Q36.1406 65.9219 28.7188 65.9219
Q24.6562 65.9219 20.0156 65.0312
Q15.375 64.1562 9.8125 62.3125
L9.8125 71.0938
Q15.4375 72.6562 20.3438 73.4375
Q25.25 74.2188 29.5938 74.2188
Q40.8281 74.2188 47.3594 69.1094
Q53.9062 64.0156 53.9062 55.3281
Q53.9062 49.2656 50.4375 45.0938
Q46.9688 40.9219 40.5781 39.3125" id="BitstreamVeraSans-Roman-33"/>
      </defs>
      <g style="fill:#262626;" transform="translate(862.68078125 340.234801136)scale(0.1 -0.1)">
       <use xlink:href="#BitstreamVeraSans-Roman-33"/>
      </g>
     </g>
    </g>
    <g id="xtick_5">
     <g id="line2d_5">
      <g>
       <use style="fill:#262626;stroke:#262626;" x="1065.96" xlink:href="#m219da94a98" y="325.636363636"/>
      </g>
     </g>
     <g id="text_5">
      <!-- 4 -->
      <defs>
       <path d="
M37.7969 64.3125
L12.8906 25.3906
L37.7969 25.3906
z

M35.2031 72.9062
L47.6094 72.9062
L47.6094 25.3906
L58.0156 25.3906
L58.0156 17.1875
L47.6094 17.1875
L47.6094 0
L37.7969 0
L37.7969 17.1875
L4.89062 17.1875
L4.89062 26.7031
z
" id="BitstreamVeraSans-Roman-34"/>
      </defs>
      <g style="fill:#262626;" transform="translate(1063.30375 340.234801136)scale(0.1 -0.1)">
       <use xlink:href="#BitstreamVeraSans-Roman-34"/>
      </g>
     </g>
    </g>
   </g>
   <g id="matplotlib.axis_2">
    <g id="ytick_1">
     <g id="line2d_6">
      <path clip-path="url(#p55a2aadd3b)" d="
M162 325.636
L1166.4 325.636" style="fill:none;stroke:#ffffff;stroke-linecap:round;"/>
     </g>
     <g id="line2d_7">
      <g>
       <use style="fill:#262626;stroke:#262626;" x="162.0" xlink:href="#m219da94a98" y="325.636363636"/>
      </g>
     </g>
     <g id="text_6">
      <!-- −0.4 -->
      <defs>
       <path d="
M10.5938 35.5
L73.1875 35.5
L73.1875 27.2031
L10.5938 27.2031
z
" id="BitstreamVeraSans-Roman-2212"/>
       <path d="
M10.6875 12.4062
L21 12.4062
L21 0
L10.6875 0
z
" id="BitstreamVeraSans-Roman-2e"/>
      </defs>
      <g style="fill:#262626;" transform="translate(132.3375 328.395738636)scale(0.1 -0.1)">
       <use xlink:href="#BitstreamVeraSans-Roman-2212"/>
       <use x="83.7890625" xlink:href="#BitstreamVeraSans-Roman-30"/>
       <use x="147.412109375" xlink:href="#BitstreamVeraSans-Roman-2e"/>
       <use x="179.19921875" xlink:href="#BitstreamVeraSans-Roman-34"/>
      </g>
     </g>
    </g>
    <g id="ytick_2">
     <g id="line2d_8">
      <path clip-path="url(#p55a2aadd3b)" d="
M162 289.403
L1166.4 289.403" style="fill:none;stroke:#ffffff;stroke-linecap:round;"/>
     </g>
     <g id="line2d_9">
      <g>
       <use style="fill:#262626;stroke:#262626;" x="162.0" xlink:href="#m219da94a98" y="289.402597403"/>
      </g>
     </g>
     <g id="text_7">
      <!-- −0.2 -->
      <g style="fill:#262626;" transform="translate(132.778125 292.161972403)scale(0.1 -0.1)">
       <use xlink:href="#BitstreamVeraSans-Roman-2212"/>
       <use x="83.7890625" xlink:href="#BitstreamVeraSans-Roman-30"/>
       <use x="147.412109375" xlink:href="#BitstreamVeraSans-Roman-2e"/>
       <use x="179.19921875" xlink:href="#BitstreamVeraSans-Roman-32"/>
      </g>
     </g>
    </g>
    <g id="ytick_3">
     <g id="line2d_10">
      <path clip-path="url(#p55a2aadd3b)" d="
M162 253.169
L1166.4 253.169" style="fill:none;stroke:#ffffff;stroke-linecap:round;"/>
     </g>
     <g id="line2d_11">
      <g>
       <use style="fill:#262626;stroke:#262626;" x="162.0" xlink:href="#m219da94a98" y="253.168831169"/>
      </g>
     </g>
     <g id="text_8">
      <!-- 0.0 -->
      <g style="fill:#262626;" transform="translate(140.4203125 255.928206169)scale(0.1 -0.1)">
       <use xlink:href="#BitstreamVeraSans-Roman-30"/>
       <use x="63.623046875" xlink:href="#BitstreamVeraSans-Roman-2e"/>
       <use x="95.41015625" xlink:href="#BitstreamVeraSans-Roman-30"/>
      </g>
     </g>
    </g>
    <g id="ytick_4">
     <g id="line2d_12">
      <path clip-path="url(#p55a2aadd3b)" d="
M162 216.935
L1166.4 216.935" style="fill:none;stroke:#ffffff;stroke-linecap:round;"/>
     </g>
     <g id="line2d_13">
      <g>
       <use style="fill:#262626;stroke:#262626;" x="162.0" xlink:href="#m219da94a98" y="216.935064935"/>
      </g>
     </g>
     <g id="text_9">
      <!-- 0.2 -->
      <g style="fill:#262626;" transform="translate(140.7578125 219.694439935)scale(0.1 -0.1)">
       <use xlink:href="#BitstreamVeraSans-Roman-30"/>
       <use x="63.623046875" xlink:href="#BitstreamVeraSans-Roman-2e"/>
       <use x="95.41015625" xlink:href="#BitstreamVeraSans-Roman-32"/>
      </g>
     </g>
    </g>
    <g id="ytick_5">
     <g id="line2d_14">
      <path clip-path="url(#p55a2aadd3b)" d="
M162 180.701
L1166.4 180.701" style="fill:none;stroke:#ffffff;stroke-linecap:round;"/>
     </g>
     <g id="line2d_15">
      <g>
       <use style="fill:#262626;stroke:#262626;" x="162.0" xlink:href="#m219da94a98" y="180.701298701"/>
      </g>
     </g>
     <g id="text_10">
      <!-- 0.4 -->
      <g style="fill:#262626;" transform="translate(140.3171875 183.460673701)scale(0.1 -0.1)">
       <use xlink:href="#BitstreamVeraSans-Roman-30"/>
       <use x="63.623046875" xlink:href="#BitstreamVeraSans-Roman-2e"/>
       <use x="95.41015625" xlink:href="#BitstreamVeraSans-Roman-34"/>
      </g>
     </g>
    </g>
    <g id="ytick_6">
     <g id="line2d_16">
      <path clip-path="url(#p55a2aadd3b)" d="
M162 144.468
L1166.4 144.468" style="fill:none;stroke:#ffffff;stroke-linecap:round;"/>
     </g>
     <g id="line2d_17">
      <g>
       <use style="fill:#262626;stroke:#262626;" x="162.0" xlink:href="#m219da94a98" y="144.467532468"/>
      </g>
     </g>
     <g id="text_11">
      <!-- 0.6 -->
      <defs>
       <path d="
M33.0156 40.375
Q26.375 40.375 22.4844 35.8281
Q18.6094 31.2969 18.6094 23.3906
Q18.6094 15.5312 22.4844 10.9531
Q26.375 6.39062 33.0156 6.39062
Q39.6562 6.39062 43.5312 10.9531
Q47.4062 15.5312 47.4062 23.3906
Q47.4062 31.2969 43.5312 35.8281
Q39.6562 40.375 33.0156 40.375
M52.5938 71.2969
L52.5938 62.3125
Q48.875 64.0625 45.0938 64.9844
Q41.3125 65.9219 37.5938 65.9219
Q27.8281 65.9219 22.6719 59.3281
Q17.5312 52.7344 16.7969 39.4062
Q19.6719 43.6562 24.0156 45.9219
Q28.375 48.1875 33.5938 48.1875
Q44.5781 48.1875 50.9531 41.5156
Q57.3281 34.8594 57.3281 23.3906
Q57.3281 12.1562 50.6875 5.35938
Q44.0469 -1.42188 33.0156 -1.42188
Q20.3594 -1.42188 13.6719 8.26562
Q6.98438 17.9688 6.98438 36.375
Q6.98438 53.6562 15.1875 63.9375
Q23.3906 74.2188 37.2031 74.2188
Q40.9219 74.2188 44.7031 73.4844
Q48.4844 72.75 52.5938 71.2969" id="BitstreamVeraSans-Roman-36"/>
      </defs>
      <g style="fill:#262626;" transform="translate(140.3859375 147.226907468)scale(0.1 -0.1)">
       <use xlink:href="#BitstreamVeraSans-Roman-30"/>
       <use x="63.623046875" xlink:href="#BitstreamVeraSans-Roman-2e"/>
       <use x="95.41015625" xlink:href="#BitstreamVeraSans-Roman-36"/>
      </g>
     </g>
    </g>
    <g id="ytick_7">
     <g id="line2d_18">
      <path clip-path="url(#p55a2aadd3b)" d="
M162 108.234
L1166.4 108.234" style="fill:none;stroke:#ffffff;stroke-linecap:round;"/>
     </g>
     <g id="line2d_19">
      <g>
       <use style="fill:#262626;stroke:#262626;" x="162.0" xlink:href="#m219da94a98" y="108.233766234"/>
      </g>
     </g>
     <g id="text_12">
      <!-- 0.8 -->
      <defs>
       <path d="
M31.7812 34.625
Q24.75 34.625 20.7188 30.8594
Q16.7031 27.0938 16.7031 20.5156
Q16.7031 13.9219 20.7188 10.1562
Q24.75 6.39062 31.7812 6.39062
Q38.8125 6.39062 42.8594 10.1719
Q46.9219 13.9688 46.9219 20.5156
Q46.9219 27.0938 42.8906 30.8594
Q38.875 34.625 31.7812 34.625
M21.9219 38.8125
Q15.5781 40.375 12.0312 44.7188
Q8.5 49.0781 8.5 55.3281
Q8.5 64.0625 14.7188 69.1406
Q20.9531 74.2188 31.7812 74.2188
Q42.6719 74.2188 48.875 69.1406
Q55.0781 64.0625 55.0781 55.3281
Q55.0781 49.0781 51.5312 44.7188
Q48 40.375 41.7031 38.8125
Q48.8281 37.1562 52.7969 32.3125
Q56.7812 27.4844 56.7812 20.5156
Q56.7812 9.90625 50.3125 4.23438
Q43.8438 -1.42188 31.7812 -1.42188
Q19.7344 -1.42188 13.25 4.23438
Q6.78125 9.90625 6.78125 20.5156
Q6.78125 27.4844 10.7812 32.3125
Q14.7969 37.1562 21.9219 38.8125
M18.3125 54.3906
Q18.3125 48.7344 21.8438 45.5625
Q25.3906 42.3906 31.7812 42.3906
Q38.1406 42.3906 41.7188 45.5625
Q45.3125 48.7344 45.3125 54.3906
Q45.3125 60.0625 41.7188 63.2344
Q38.1406 66.4062 31.7812 66.4062
Q25.3906 66.4062 21.8438 63.2344
Q18.3125 60.0625 18.3125 54.3906" id="BitstreamVeraSans-Roman-38"/>
      </defs>
      <g style="fill:#262626;" transform="translate(140.440625 110.993141234)scale(0.1 -0.1)">
       <use xlink:href="#BitstreamVeraSans-Roman-30"/>
       <use x="63.623046875" xlink:href="#BitstreamVeraSans-Roman-2e"/>
       <use x="95.41015625" xlink:href="#BitstreamVeraSans-Roman-38"/>
      </g>
     </g>
    </g>
    <g id="ytick_8">
     <g id="line2d_20">
      <path clip-path="url(#p55a2aadd3b)" d="
M162 72
L1166.4 72" style="fill:none;stroke:#ffffff;stroke-linecap:round;"/>
     </g>
     <g id="line2d_21">
      <g>
       <use style="fill:#262626;stroke:#262626;" x="162.0" xlink:href="#m219da94a98" y="72.0"/>
      </g>
     </g>
     <g id="text_13">
      <!-- 1.0 -->
      <g style="fill:#262626;" transform="translate(140.859375 74.759375)scale(0.1 -0.1)">
       <use xlink:href="#BitstreamVeraSans-Roman-31"/>
       <use x="63.623046875" xlink:href="#BitstreamVeraSans-Roman-2e"/>
       <use x="95.41015625" xlink:href="#BitstreamVeraSans-Roman-30"/>
      </g>
     </g>
    </g>
    <g id="text_14">
     <!-- Distance to Centroid -->
     <defs>
      <path id="BitstreamVeraSans-Roman-20"/>
      <path d="
M54.8906 33.0156
L54.8906 0
L45.9062 0
L45.9062 32.7188
Q45.9062 40.4844 42.875 44.3281
Q39.8438 48.1875 33.7969 48.1875
Q26.5156 48.1875 22.3125 43.5469
Q18.1094 38.9219 18.1094 30.9062
L18.1094 0
L9.07812 0
L9.07812 54.6875
L18.1094 54.6875
L18.1094 46.1875
Q21.3438 51.125 25.7031 53.5625
Q30.0781 56 35.7969 56
Q45.2188 56 50.0469 50.1719
Q54.8906 44.3438 54.8906 33.0156" id="BitstreamVeraSans-Roman-6e"/>
      <path d="
M41.1094 46.2969
Q39.5938 47.1719 37.8125 47.5781
Q36.0312 48 33.8906 48
Q26.2656 48 22.1875 43.0469
Q18.1094 38.0938 18.1094 28.8125
L18.1094 0
L9.07812 0
L9.07812 54.6875
L18.1094 54.6875
L18.1094 46.1875
Q20.9531 51.1719 25.4844 53.5781
Q30.0312 56 36.5312 56
Q37.4531 56 38.5781 55.875
Q39.7031 55.7656 41.0625 55.5156
z
" id="BitstreamVeraSans-Roman-72"/>
      <path d="
M30.6094 48.3906
Q23.3906 48.3906 19.1875 42.75
Q14.9844 37.1094 14.9844 27.2969
Q14.9844 17.4844 19.1562 11.8438
Q23.3438 6.20312 30.6094 6.20312
Q37.7969 6.20312 41.9844 11.8594
Q46.1875 17.5312 46.1875 27.2969
Q46.1875 37.0156 41.9844 42.7031
Q37.7969 48.3906 30.6094 48.3906
M30.6094 56
Q42.3281 56 49.0156 48.375
Q55.7188 40.7656 55.7188 27.2969
Q55.7188 13.875 49.0156 6.21875
Q42.3281 -1.42188 30.6094 -1.42188
Q18.8438 -1.42188 12.1719 6.21875
Q5.51562 13.875 5.51562 27.2969
Q5.51562 40.7656 12.1719 48.375
Q18.8438 56 30.6094 56" id="BitstreamVeraSans-Roman-6f"/>
      <path d="
M19.6719 64.7969
L19.6719 8.10938
L31.5938 8.10938
Q46.6875 8.10938 53.6875 14.9375
Q60.6875 21.7812 60.6875 36.5312
Q60.6875 51.1719 53.6875 57.9844
Q46.6875 64.7969 31.5938 64.7969
z

M9.8125 72.9062
L30.0781 72.9062
Q51.2656 72.9062 61.1719 64.0938
Q71.0938 55.2812 71.0938 36.5312
Q71.0938 17.6719 61.125 8.82812
Q51.1719 0 30.0781 0
L9.8125 0
z
" id="BitstreamVeraSans-Roman-44"/>
      <path d="
M9.42188 54.6875
L18.4062 54.6875
L18.4062 0
L9.42188 0
z

M9.42188 75.9844
L18.4062 75.9844
L18.4062 64.5938
L9.42188 64.5938
z
" id="BitstreamVeraSans-Roman-69"/>
      <path d="
M45.4062 46.3906
L45.4062 75.9844
L54.3906 75.9844
L54.3906 0
L45.4062 0
L45.4062 8.20312
Q42.5781 3.32812 38.25 0.953125
Q33.9375 -1.42188 27.875 -1.42188
Q17.9688 -1.42188 11.7344 6.48438
Q5.51562 14.4062 5.51562 27.2969
Q5.51562 40.1875 11.7344 48.0938
Q17.9688 56 27.875 56
Q33.9375 56 38.25 53.625
Q42.5781 51.2656 45.4062 46.3906
M14.7969 27.2969
Q14.7969 17.3906 18.875 11.75
Q22.9531 6.10938 30.0781 6.10938
Q37.2031 6.10938 41.2969 11.75
Q45.4062 17.3906 45.4062 27.2969
Q45.4062 37.2031 41.2969 42.8438
Q37.2031 48.4844 30.0781 48.4844
Q22.9531 48.4844 18.875 42.8438
Q14.7969 37.2031 14.7969 27.2969" id="BitstreamVeraSans-Roman-64"/>
      <path d="
M56.2031 29.5938
L56.2031 25.2031
L14.8906 25.2031
Q15.4844 15.9219 20.4844 11.0625
Q25.4844 6.20312 34.4219 6.20312
Q39.5938 6.20312 44.4531 7.46875
Q49.3125 8.73438 54.1094 11.2812
L54.1094 2.78125
Q49.2656 0.734375 44.1875 -0.34375
Q39.1094 -1.42188 33.8906 -1.42188
Q20.7969 -1.42188 13.1562 6.1875
Q5.51562 13.8125 5.51562 26.8125
Q5.51562 40.2344 12.7656 48.1094
Q20.0156 56 32.3281 56
Q43.3594 56 49.7812 48.8906
Q56.2031 41.7969 56.2031 29.5938
M47.2188 32.2344
Q47.125 39.5938 43.0938 43.9844
Q39.0625 48.3906 32.4219 48.3906
Q24.9062 48.3906 20.3906 44.1406
Q15.875 39.8906 15.1875 32.1719
z
" id="BitstreamVeraSans-Roman-65"/>
      <path d="
M64.4062 67.2812
L64.4062 56.8906
Q59.4219 61.5312 53.7812 63.8125
Q48.1406 66.1094 41.7969 66.1094
Q29.2969 66.1094 22.6562 58.4688
Q16.0156 50.8281 16.0156 36.375
Q16.0156 21.9688 22.6562 14.3281
Q29.2969 6.6875 41.7969 6.6875
Q48.1406 6.6875 53.7812 8.98438
Q59.4219 11.2812 64.4062 15.9219
L64.4062 5.60938
Q59.2344 2.09375 53.4375 0.328125
Q47.6562 -1.42188 41.2188 -1.42188
Q24.6562 -1.42188 15.125 8.70312
Q5.60938 18.8438 5.60938 36.375
Q5.60938 53.9531 15.125 64.0781
Q24.6562 74.2188 41.2188 74.2188
Q47.75 74.2188 53.5312 72.4844
Q59.3281 70.75 64.4062 67.2812" id="BitstreamVeraSans-Roman-43"/>
      <path d="
M18.3125 70.2188
L18.3125 54.6875
L36.8125 54.6875
L36.8125 47.7031
L18.3125 47.7031
L18.3125 18.0156
Q18.3125 11.3281 20.1406 9.42188
Q21.9688 7.51562 27.5938 7.51562
L36.8125 7.51562
L36.8125 0
L27.5938 0
Q17.1875 0 13.2344 3.875
Q9.28125 7.76562 9.28125 18.0156
L9.28125 47.7031
L2.6875 47.7031
L2.6875 54.6875
L9.28125 54.6875
L9.28125 70.2188
z
" id="BitstreamVeraSans-Roman-74"/>
      <path d="
M34.2812 27.4844
Q23.3906 27.4844 19.1875 25
Q14.9844 22.5156 14.9844 16.5
Q14.9844 11.7188 18.1406 8.90625
Q21.2969 6.10938 26.7031 6.10938
Q34.1875 6.10938 38.7031 11.4062
Q43.2188 16.7031 43.2188 25.4844
L43.2188 27.4844
z

M52.2031 31.2031
L52.2031 0
L43.2188 0
L43.2188 8.29688
Q40.1406 3.32812 35.5469 0.953125
Q30.9531 -1.42188 24.3125 -1.42188
Q15.9219 -1.42188 10.9531 3.29688
Q6 8.01562 6 15.9219
Q6 25.1406 12.1719 29.8281
Q18.3594 34.5156 30.6094 34.5156
L43.2188 34.5156
L43.2188 35.4062
Q43.2188 41.6094 39.1406 45
Q35.0625 48.3906 27.6875 48.3906
Q23 48.3906 18.5469 47.2656
Q14.1094 46.1406 10.0156 43.8906
L10.0156 52.2031
Q14.9375 54.1094 19.5781 55.0469
Q24.2188 56 28.6094 56
Q40.4844 56 46.3438 49.8438
Q52.2031 43.7031 52.2031 31.2031" id="BitstreamVeraSans-Roman-61"/>
      <path d="
M44.2812 53.0781
L44.2812 44.5781
Q40.4844 46.5312 36.375 47.5
Q32.2812 48.4844 27.875 48.4844
Q21.1875 48.4844 17.8438 46.4375
Q14.5 44.3906 14.5 40.2812
Q14.5 37.1562 16.8906 35.375
Q19.2812 33.5938 26.5156 31.9844
L29.5938 31.2969
Q39.1562 29.25 43.1875 25.5156
Q47.2188 21.7812 47.2188 15.0938
Q47.2188 7.46875 41.1875 3.01562
Q35.1562 -1.42188 24.6094 -1.42188
Q20.2188 -1.42188 15.4531 -0.5625
Q10.6875 0.296875 5.42188 2
L5.42188 11.2812
Q10.4062 8.6875 15.2344 7.39062
Q20.0625 6.10938 24.8125 6.10938
Q31.1562 6.10938 34.5625 8.28125
Q37.9844 10.4531 37.9844 14.4062
Q37.9844 18.0625 35.5156 20.0156
Q33.0625 21.9688 24.7031 23.7812
L21.5781 24.5156
Q13.2344 26.2656 9.51562 29.9062
Q5.8125 33.5469 5.8125 39.8906
Q5.8125 47.6094 11.2812 51.7969
Q16.75 56 26.8125 56
Q31.7812 56 36.1719 55.2656
Q40.5781 54.5469 44.2812 53.0781" id="BitstreamVeraSans-Roman-73"/>
      <path d="
M48.7812 52.5938
L48.7812 44.1875
Q44.9688 46.2969 41.1406 47.3438
Q37.3125 48.3906 33.4062 48.3906
Q24.6562 48.3906 19.8125 42.8438
Q14.9844 37.3125 14.9844 27.2969
Q14.9844 17.2812 19.8125 11.7344
Q24.6562 6.20312 33.4062 6.20312
Q37.3125 6.20312 41.1406 7.25
Q44.9688 8.29688 48.7812 10.4062
L48.7812 2.09375
Q45.0156 0.34375 40.9844 -0.53125
Q36.9688 -1.42188 32.4219 -1.42188
Q20.0625 -1.42188 12.7812 6.34375
Q5.51562 14.1094 5.51562 27.2969
Q5.51562 40.6719 12.8594 48.3281
Q20.2188 56 33.0156 56
Q37.1562 56 41.1094 55.1406
Q45.0625 54.2969 48.7812 52.5938" id="BitstreamVeraSans-Roman-63"/>
     </defs>
     <g style="fill:#262626;" transform="translate(125.04984375 254.772947443)rotate(-90.0)scale(0.11 -0.11)">
      <use xlink:href="#BitstreamVeraSans-Roman-44"/>
      <use x="77.001953125" xlink:href="#BitstreamVeraSans-Roman-69"/>
      <use x="104.78515625" xlink:href="#BitstreamVeraSans-Roman-73"/>
      <use x="156.884765625" xlink:href="#BitstreamVeraSans-Roman-74"/>
      <use x="196.09375" xlink:href="#BitstreamVeraSans-Roman-61"/>
      <use x="257.373046875" xlink:href="#BitstreamVeraSans-Roman-6e"/>
      <use x="320.751953125" xlink:href="#BitstreamVeraSans-Roman-63"/>
      <use x="375.732421875" xlink:href="#BitstreamVeraSans-Roman-65"/>
      <use x="437.255859375" xlink:href="#BitstreamVeraSans-Roman-20"/>
      <use x="469.04296875" xlink:href="#BitstreamVeraSans-Roman-74"/>
      <use x="508.251953125" xlink:href="#BitstreamVeraSans-Roman-6f"/>
      <use x="569.43359375" xlink:href="#BitstreamVeraSans-Roman-20"/>
      <use x="601.220703125" xlink:href="#BitstreamVeraSans-Roman-43"/>
      <use x="671.044921875" xlink:href="#BitstreamVeraSans-Roman-65"/>
      <use x="732.568359375" xlink:href="#BitstreamVeraSans-Roman-6e"/>
      <use x="795.947265625" xlink:href="#BitstreamVeraSans-Roman-74"/>
      <use x="835.15625" xlink:href="#BitstreamVeraSans-Roman-72"/>
      <use x="874.01953125" xlink:href="#BitstreamVeraSans-Roman-6f"/>
      <use x="935.201171875" xlink:href="#BitstreamVeraSans-Roman-69"/>
      <use x="962.984375" xlink:href="#BitstreamVeraSans-Roman-64"/>
     </g>
    </g>
   </g>
   <g id="PolyCollection_1">
    <defs>
     <path d="
M262.452 -456.361
L262.428 -456.361
L262.407 -457.648
L262.356 -458.935
L262.244 -460.222
L262.011 -461.509
L261.558 -462.795
L260.741 -464.082
L259.37 -465.369
L257.229 -466.656
L254.118 -467.943
L249.915 -469.229
L244.634 -470.516
L238.463 -471.803
L231.747 -473.09
L224.922 -474.377
L218.401 -475.663
L212.472 -476.95
L207.233 -478.237
L202.613 -479.524
L198.445 -480.811
L194.586 -482.097
L190.996 -483.384
L187.773 -484.671
L185.111 -485.958
L183.213 -487.245
L182.207 -488.531
L182.088 -489.818
L182.72 -491.105
L183.89 -492.392
L185.384 -493.679
L187.054 -494.965
L188.84 -496.252
L190.737 -497.539
L192.742 -498.826
L194.8 -500.113
L196.813 -501.399
L198.689 -502.686
L200.411 -503.973
L202.075 -505.26
L203.881 -506.547
L206.065 -507.833
L208.813 -509.12
L212.201 -510.407
L216.173 -511.694
L220.557 -512.981
L225.111 -514.267
L229.583 -515.554
L233.759 -516.841
L237.502 -518.128
L240.758 -519.415
L243.543 -520.701
L245.903 -521.988
L247.879 -523.275
L249.487 -524.562
L250.72 -525.849
L251.563 -527.135
L252.024 -528.422
L252.152 -529.709
L252.041 -530.996
L251.82 -532.283
L251.627 -533.569
L251.587 -534.856
L251.789 -536.143
L252.275 -537.43
L253.044 -538.717
L254.055 -540.003
L255.233 -541.29
L256.483 -542.577
L257.705 -543.864
L258.806 -545.151
L259.723 -546.437
L260.423 -547.724
L260.91 -549.011
L261.211 -550.298
L261.368 -551.585
L261.426 -552.871
L261.424 -554.158
L261.39 -555.445
L261.337 -556.732
L261.264 -558.019
L261.16 -559.305
L261.011 -560.592
L260.812 -561.879
L260.573 -563.166
L260.321 -564.453
L260.101 -565.739
L259.965 -567.026
L259.954 -568.313
L260.088 -569.6
L260.356 -570.887
L260.716 -572.173
L261.114 -573.46
L261.493 -574.747
L261.813 -576.034
L262.055 -577.321
L262.222 -578.607
L262.326 -579.894
L262.385 -581.181
L262.415 -582.468
L262.43 -583.755
L262.45 -583.755
L262.45 -583.755
L262.465 -582.468
L262.495 -581.181
L262.554 -579.894
L262.658 -578.607
L262.825 -577.321
L263.067 -576.034
L263.387 -574.747
L263.766 -573.46
L264.164 -572.173
L264.524 -570.887
L264.792 -569.6
L264.926 -568.313
L264.915 -567.026
L264.779 -565.739
L264.559 -564.453
L264.307 -563.166
L264.068 -561.879
L263.869 -560.592
L263.72 -559.305
L263.616 -558.019
L263.543 -556.732
L263.49 -555.445
L263.456 -554.158
L263.454 -552.871
L263.512 -551.585
L263.669 -550.298
L263.97 -549.011
L264.457 -547.724
L265.157 -546.437
L266.074 -545.151
L267.175 -543.864
L268.397 -542.577
L269.647 -541.29
L270.825 -540.003
L271.836 -538.717
L272.605 -537.43
L273.091 -536.143
L273.293 -534.856
L273.253 -533.569
L273.06 -532.283
L272.839 -530.996
L272.728 -529.709
L272.856 -528.422
L273.317 -527.135
L274.16 -525.849
L275.393 -524.562
L277.001 -523.275
L278.977 -521.988
L281.337 -520.701
L284.122 -519.415
L287.378 -518.128
L291.121 -516.841
L295.297 -515.554
L299.769 -514.267
L304.323 -512.981
L308.707 -511.694
L312.679 -510.407
L316.067 -509.12
L318.815 -507.833
L320.999 -506.547
L322.805 -505.26
L324.469 -503.973
L326.191 -502.686
L328.067 -501.399
L330.08 -500.113
L332.138 -498.826
L334.143 -497.539
L336.04 -496.252
L337.826 -494.965
L339.496 -493.679
L340.99 -492.392
L342.16 -491.105
L342.792 -489.818
L342.673 -488.531
L341.667 -487.245
L339.769 -485.958
L337.107 -484.671
L333.884 -483.384
L330.294 -482.097
L326.435 -480.811
L322.267 -479.524
L317.647 -478.237
L312.408 -476.95
L306.479 -475.663
L299.958 -474.377
L293.133 -473.09
L286.417 -471.803
L280.246 -470.516
L274.965 -469.229
L270.762 -467.943
L267.651 -466.656
L265.51 -465.369
L264.139 -464.082
L263.322 -462.795
L262.869 -461.509
L262.636 -460.222
L262.524 -458.935
L262.473 -457.648
L262.452 -456.361
z
" id="mb9e6687d51" style="stroke:#5b76a1;stroke-width:0.3;"/>
    </defs>
    <g clip-path="url(#p55a2aadd3b)">
     <use style="fill:#5b76a1;stroke:#5b76a1;stroke-width:0.3;" x="0.0" xlink:href="#mb9e6687d51" y="720.0"/>
    </g>
   </g>
   <g id="PolyCollection_2">
    <defs>
     <path d="
M463.363 -452.423
L463.277 -452.423
L463.221 -453.832
L463.103 -455.242
L462.871 -456.651
L462.445 -458.061
L461.707 -459.47
L460.507 -460.88
L458.668 -462.289
L456.011 -463.699
L452.39 -465.108
L447.73 -466.518
L442.059 -467.927
L435.528 -469.337
L428.405 -470.746
L421.037 -472.155
L413.806 -473.565
L407.061 -474.974
L401.072 -476.384
L395.994 -477.793
L391.873 -479.203
L388.661 -480.612
L386.259 -482.022
L384.56 -483.431
L383.476 -484.841
L382.968 -486.25
L383.052 -487.66
L383.802 -489.069
L385.332 -490.479
L387.772 -491.888
L391.221 -493.298
L395.704 -494.707
L401.129 -496.116
L407.281 -497.526
L413.835 -498.935
L420.413 -500.345
L426.646 -501.754
L432.245 -503.164
L437.047 -504.573
L441.028 -505.983
L444.275 -507.392
L446.937 -508.802
L449.164 -510.211
L451.061 -511.621
L452.673 -513.03
L453.998 -514.44
L455.019 -515.849
L455.74 -517.259
L456.202 -518.668
L456.488 -520.078
L456.697 -521.487
L456.922 -522.896
L457.224 -524.306
L457.618 -525.715
L458.08 -527.125
L458.554 -528.534
L458.973 -529.944
L459.28 -531.353
L459.44 -532.763
L459.447 -534.172
L459.326 -535.582
L459.127 -536.991
L458.91 -538.401
L458.733 -539.81
L458.635 -541.22
L458.625 -542.629
L458.685 -544.039
L458.78 -545.448
L458.865 -546.857
L458.912 -548.267
L458.911 -549.676
L458.882 -551.086
L458.862 -552.495
L458.891 -553.905
L459.004 -555.314
L459.212 -556.724
L459.501 -558.133
L459.838 -559.543
L460.172 -560.952
L460.455 -562.362
L460.651 -563.771
L460.745 -565.181
L460.747 -566.59
L460.695 -568
L460.637 -569.409
L460.628 -570.818
L460.705 -572.228
L460.888 -573.637
L461.167 -575.047
L461.513 -576.456
L461.885 -577.866
L462.244 -579.275
L462.558 -580.685
L462.811 -582.094
L462.999 -583.504
L463.129 -584.913
L463.213 -586.323
L463.263 -587.732
L463.292 -589.142
L463.307 -590.551
L463.314 -591.961
L463.326 -591.961
L463.326 -591.961
L463.333 -590.551
L463.348 -589.142
L463.377 -587.732
L463.427 -586.323
L463.511 -584.913
L463.641 -583.504
L463.829 -582.094
L464.082 -580.685
L464.396 -579.275
L464.755 -577.866
L465.127 -576.456
L465.473 -575.047
L465.752 -573.637
L465.935 -572.228
L466.012 -570.818
L466.003 -569.409
L465.945 -568
L465.893 -566.59
L465.895 -565.181
L465.989 -563.771
L466.185 -562.362
L466.468 -560.952
L466.802 -559.543
L467.139 -558.133
L467.428 -556.724
L467.636 -555.314
L467.749 -553.905
L467.778 -552.495
L467.758 -551.086
L467.729 -549.676
L467.728 -548.267
L467.775 -546.857
L467.86 -545.448
L467.955 -544.039
L468.015 -542.629
L468.005 -541.22
L467.907 -539.81
L467.73 -538.401
L467.513 -536.991
L467.314 -535.582
L467.193 -534.172
L467.2 -532.763
L467.36 -531.353
L467.667 -529.944
L468.086 -528.534
L468.56 -527.125
L469.022 -525.715
L469.416 -524.306
L469.718 -522.896
L469.943 -521.487
L470.152 -520.078
L470.438 -518.668
L470.9 -517.259
L471.621 -515.849
L472.642 -514.44
L473.967 -513.03
L475.579 -511.621
L477.476 -510.211
L479.703 -508.802
L482.365 -507.392
L485.612 -505.983
L489.593 -504.573
L494.395 -503.164
L499.994 -501.754
L506.227 -500.345
L512.805 -498.935
L519.359 -497.526
L525.511 -496.116
L530.936 -494.707
L535.419 -493.298
L538.868 -491.888
L541.308 -490.479
L542.838 -489.069
L543.588 -487.66
L543.672 -486.25
L543.164 -484.841
L542.08 -483.431
L540.381 -482.022
L537.979 -480.612
L534.767 -479.203
L530.646 -477.793
L525.568 -476.384
L519.579 -474.974
L512.834 -473.565
L505.603 -472.155
L498.235 -470.746
L491.112 -469.337
L484.581 -467.927
L478.91 -466.518
L474.25 -465.108
L470.629 -463.699
L467.972 -462.289
L466.133 -460.88
L464.933 -459.47
L464.195 -458.061
L463.769 -456.651
L463.537 -455.242
L463.419 -453.832
L463.363 -452.423
z
" id="m14667d0ecb" style="stroke:#619c6f;stroke-width:0.3;"/>
    </defs>
    <g clip-path="url(#p55a2aadd3b)">
     <use style="fill:#619c6f;stroke:#619c6f;stroke-width:0.3;" x="0.0" xlink:href="#m14667d0ecb" y="720.0"/>
    </g>
   </g>
   <g id="PolyCollection_3">
    <defs>
     <path d="
M664.258 -435.937
L664.142 -435.937
L664.106 -437.731
L664.051 -439.525
L663.967 -441.319
L663.843 -443.114
L663.661 -444.908
L663.401 -446.702
L663.036 -448.496
L662.533 -450.29
L661.852 -452.084
L660.948 -453.878
L659.77 -455.672
L658.265 -457.466
L656.377 -459.26
L654.056 -461.054
L651.258 -462.848
L647.953 -464.642
L644.129 -466.436
L639.796 -468.231
L634.991 -470.025
L629.784 -471.819
L624.271 -473.613
L618.58 -475.407
L612.86 -477.201
L607.281 -478.995
L602.019 -480.789
L597.249 -482.583
L593.135 -484.377
L589.814 -486.171
L587.392 -487.965
L585.93 -489.759
L585.441 -491.553
L585.887 -493.348
L587.176 -495.142
L589.172 -496.936
L591.699 -498.73
L594.556 -500.524
L597.529 -502.318
L600.406 -504.112
L602.996 -505.906
L605.138 -507.7
L606.716 -509.494
L607.662 -511.288
L607.956 -513.082
L607.628 -514.876
L606.741 -516.67
L605.389 -518.465
L603.677 -520.259
L601.711 -522.053
L599.593 -523.847
L597.406 -525.641
L595.221 -527.435
L593.093 -529.229
L591.067 -531.023
L589.186 -532.817
L587.495 -534.611
L586.049 -536.405
L584.91 -538.199
L584.151 -539.993
L583.848 -541.787
L584.075 -543.582
L584.895 -545.376
L586.349 -547.17
L588.452 -548.964
L591.189 -550.758
L594.512 -552.552
L598.343 -554.346
L602.581 -556.14
L607.107 -557.934
L611.799 -559.728
L616.536 -561.522
L621.207 -563.316
L625.719 -565.11
L630.001 -566.904
L634.004 -568.699
L637.698 -570.493
L641.072 -572.287
L644.131 -574.081
L646.887 -575.875
L649.357 -577.669
L651.564 -579.463
L653.526 -581.257
L655.263 -583.051
L656.792 -584.845
L658.126 -586.639
L659.281 -588.433
L660.268 -590.227
L661.102 -592.022
L661.795 -593.816
L662.363 -595.61
L662.82 -597.404
L663.181 -599.198
L663.461 -600.992
L663.673 -602.786
L663.832 -604.58
L663.947 -606.374
L664.03 -608.168
L664.088 -609.962
L664.128 -611.756
L664.154 -613.55
L664.246 -613.55
L664.246 -613.55
L664.272 -611.756
L664.312 -609.962
L664.37 -608.168
L664.453 -606.374
L664.568 -604.58
L664.727 -602.786
L664.939 -600.992
L665.219 -599.198
L665.58 -597.404
L666.037 -595.61
L666.605 -593.816
L667.298 -592.022
L668.132 -590.227
L669.119 -588.433
L670.274 -586.639
L671.608 -584.845
L673.137 -583.051
L674.874 -581.257
L676.836 -579.463
L679.043 -577.669
L681.513 -575.875
L684.269 -574.081
L687.328 -572.287
L690.702 -570.493
L694.396 -568.699
L698.399 -566.904
L702.681 -565.11
L707.193 -563.316
L711.864 -561.522
L716.601 -559.728
L721.293 -557.934
L725.819 -556.14
L730.057 -554.346
L733.888 -552.552
L737.211 -550.758
L739.948 -548.964
L742.051 -547.17
L743.505 -545.376
L744.325 -543.582
L744.552 -541.787
L744.249 -539.993
L743.49 -538.199
L742.351 -536.405
L740.905 -534.611
L739.214 -532.817
L737.333 -531.023
L735.307 -529.229
L733.179 -527.435
L730.994 -525.641
L728.807 -523.847
L726.689 -522.053
L724.723 -520.259
L723.011 -518.465
L721.659 -516.67
L720.772 -514.876
L720.444 -513.082
L720.738 -511.288
L721.684 -509.494
L723.262 -507.7
L725.404 -505.906
L727.994 -504.112
L730.871 -502.318
L733.844 -500.524
L736.701 -498.73
L739.228 -496.936
L741.224 -495.142
L742.513 -493.348
L742.959 -491.553
L742.47 -489.759
L741.008 -487.965
L738.586 -486.171
L735.265 -484.377
L731.151 -482.583
L726.381 -480.789
L721.119 -478.995
L715.54 -477.201
L709.82 -475.407
L704.129 -473.613
L698.616 -471.819
L693.409 -470.025
L688.604 -468.231
L684.271 -466.436
L680.447 -464.642
L677.142 -462.848
L674.344 -461.054
L672.023 -459.26
L670.135 -457.466
L668.63 -455.672
L667.452 -453.878
L666.548 -452.084
L665.867 -450.29
L665.364 -448.496
L664.999 -446.702
L664.739 -444.908
L664.557 -443.114
L664.433 -441.319
L664.349 -439.525
L664.294 -437.731
L664.258 -435.937
z
" id="m03ea9d6c9d" style="stroke:#b26063;stroke-width:0.3;"/>
    </defs>
    <g clip-path="url(#p55a2aadd3b)">
     <use style="fill:#b26063;stroke:#b26063;stroke-width:0.3;" x="0.0" xlink:href="#m03ea9d6c9d" y="720.0"/>
    </g>
   </g>
   <g id="PolyCollection_4">
    <defs>
     <path d="
M865.178 -417.907
L864.982 -417.907
L864.934 -419.981
L864.866 -422.055
L864.772 -424.129
L864.641 -426.202
L864.463 -428.276
L864.226 -430.35
L863.913 -432.424
L863.506 -434.498
L862.986 -436.571
L862.328 -438.645
L861.509 -440.719
L860.504 -442.793
L859.286 -444.866
L857.832 -446.94
L856.119 -449.014
L854.129 -451.088
L851.85 -453.162
L849.276 -455.235
L846.412 -457.309
L843.273 -459.383
L839.886 -461.457
L836.292 -463.531
L832.542 -465.604
L828.702 -467.678
L824.847 -469.752
L821.059 -471.826
L817.423 -473.899
L814.024 -475.973
L810.941 -478.047
L808.24 -480.121
L805.969 -482.195
L804.157 -484.268
L802.808 -486.342
L801.901 -488.416
L801.389 -490.49
L801.202 -492.564
L801.253 -494.637
L801.442 -496.711
L801.664 -498.785
L801.817 -500.859
L801.808 -502.932
L801.563 -505.006
L801.029 -507.08
L800.183 -509.154
L799.027 -511.228
L797.593 -513.301
L795.939 -515.375
L794.143 -517.449
L792.294 -519.523
L790.489 -521.597
L788.823 -523.67
L787.376 -525.744
L786.215 -527.818
L785.38 -529.892
L784.888 -531.965
L784.728 -534.039
L784.868 -536.113
L785.254 -538.187
L785.824 -540.261
L786.51 -542.334
L787.25 -544.408
L787.993 -546.482
L788.708 -548.556
L789.388 -550.63
L790.047 -552.703
L790.727 -554.777
L791.486 -556.851
L792.397 -558.925
L793.539 -560.998
L794.989 -563.072
L796.812 -565.146
L799.059 -567.22
L801.753 -569.294
L804.895 -571.367
L808.456 -573.441
L812.384 -575.515
L816.603 -577.589
L821.021 -579.663
L825.539 -581.736
L830.053 -583.81
L834.464 -585.884
L838.682 -587.958
L842.635 -590.031
L846.263 -592.105
L849.529 -594.179
L852.413 -596.253
L854.911 -598.327
L857.036 -600.4
L858.811 -602.474
L860.266 -604.548
L861.439 -606.622
L862.367 -608.695
L863.089 -610.769
L863.641 -612.843
L864.055 -614.917
L864.362 -616.991
L864.584 -619.064
L864.743 -621.138
L864.854 -623.212
L865.306 -623.212
L865.306 -623.212
L865.417 -621.138
L865.576 -619.064
L865.798 -616.991
L866.105 -614.917
L866.519 -612.843
L867.071 -610.769
L867.793 -608.695
L868.721 -606.622
L869.894 -604.548
L871.349 -602.474
L873.124 -600.4
L875.249 -598.327
L877.747 -596.253
L880.631 -594.179
L883.897 -592.105
L887.525 -590.031
L891.478 -587.958
L895.696 -585.884
L900.107 -583.81
L904.621 -581.736
L909.139 -579.663
L913.557 -577.589
L917.776 -575.515
L921.704 -573.441
L925.265 -571.367
L928.407 -569.294
L931.101 -567.22
L933.348 -565.146
L935.171 -563.072
L936.621 -560.998
L937.763 -558.925
L938.674 -556.851
L939.433 -554.777
L940.113 -552.703
L940.772 -550.63
L941.452 -548.556
L942.167 -546.482
L942.91 -544.408
L943.65 -542.334
L944.336 -540.261
L944.906 -538.187
L945.292 -536.113
L945.432 -534.039
L945.272 -531.965
L944.78 -529.892
L943.945 -527.818
L942.784 -525.744
L941.337 -523.67
L939.671 -521.597
L937.866 -519.523
L936.017 -517.449
L934.221 -515.375
L932.567 -513.301
L931.133 -511.228
L929.977 -509.154
L929.131 -507.08
L928.597 -505.006
L928.352 -502.932
L928.343 -500.859
L928.496 -498.785
L928.718 -496.711
L928.907 -494.637
L928.958 -492.564
L928.771 -490.49
L928.259 -488.416
L927.352 -486.342
L926.003 -484.268
L924.191 -482.195
L921.92 -480.121
L919.219 -478.047
L916.136 -475.973
L912.737 -473.899
L909.101 -471.826
L905.313 -469.752
L901.458 -467.678
L897.618 -465.604
L893.868 -463.531
L890.274 -461.457
L886.887 -459.383
L883.748 -457.309
L880.884 -455.235
L878.31 -453.162
L876.031 -451.088
L874.041 -449.014
L872.328 -446.94
L870.874 -444.866
L869.656 -442.793
L868.651 -440.719
L867.832 -438.645
L867.174 -436.571
L866.654 -434.498
L866.247 -432.424
L865.934 -430.35
L865.697 -428.276
L865.519 -426.202
L865.388 -424.129
L865.294 -422.055
L865.226 -419.981
L865.178 -417.907
z
" id="m89dd845742" style="stroke:#867ca8;stroke-width:0.3;"/>
    </defs>
    <g clip-path="url(#p55a2aadd3b)">
     <use style="fill:#867ca8;stroke:#867ca8;stroke-width:0.3;" x="0.0" xlink:href="#m89dd845742" y="720.0"/>
    </g>
   </g>
   <g id="PolyCollection_5">
    <defs>
     <path d="
M1066 -456.191
L1065.92 -456.191
L1065.85 -457.591
L1065.68 -458.991
L1065.3 -460.392
L1064.52 -461.792
L1063.06 -463.192
L1060.61 -464.592
L1056.81 -465.993
L1051.44 -467.393
L1044.48 -468.793
L1036.19 -470.193
L1027.11 -471.594
L1017.88 -472.994
L1009.15 -474.394
L1001.44 -475.794
L995.085 -477.195
L990.285 -478.595
L987.14 -479.995
L985.636 -481.395
L985.608 -482.796
L986.715 -484.196
L988.487 -485.596
L990.435 -486.996
L992.162 -488.397
L993.417 -489.797
L994.089 -491.197
L994.183 -492.597
L993.82 -493.998
L993.262 -495.398
L992.912 -496.798
L993.265 -498.199
L994.796 -499.599
L997.827 -500.999
L1002.43 -502.399
L1008.38 -503.8
L1015.19 -505.2
L1022.23 -506.6
L1028.84 -508
L1034.47 -509.401
L1038.85 -510.801
L1042.03 -512.201
L1044.31 -513.601
L1046.13 -515.002
L1047.89 -516.402
L1049.79 -517.802
L1051.84 -519.202
L1053.9 -520.603
L1055.79 -522.003
L1057.38 -523.403
L1058.63 -524.803
L1059.56 -526.204
L1060.2 -527.604
L1060.57 -529.004
L1060.68 -530.404
L1060.57 -531.805
L1060.31 -533.205
L1060.01 -534.605
L1059.81 -536.005
L1059.88 -537.406
L1060.3 -538.806
L1061.05 -540.206
L1062.04 -541.606
L1063.08 -543.007
L1064.02 -544.407
L1064.74 -545.807
L1065.21 -547.207
L1065.45 -548.608
L1065.5 -550.008
L1065.43 -551.408
L1065.3 -552.808
L1065.17 -554.209
L1065.09 -555.609
L1065.09 -557.009
L1065.17 -558.409
L1065.31 -559.81
L1065.47 -561.21
L1065.62 -562.61
L1065.73 -564.01
L1065.78 -565.411
L1065.77 -566.811
L1065.72 -568.211
L1065.64 -569.611
L1065.56 -571.012
L1065.48 -572.412
L1065.43 -573.812
L1065.41 -575.212
L1065.4 -576.613
L1065.4 -578.013
L1065.4 -579.413
L1065.42 -580.813
L1065.45 -582.214
L1065.52 -583.614
L1065.6 -585.014
L1065.7 -586.414
L1065.78 -587.815
L1065.85 -589.215
L1065.9 -590.615
L1065.93 -592.015
L1065.95 -593.416
L1065.96 -594.816
L1065.96 -594.816
L1065.96 -594.816
L1065.97 -593.416
L1065.99 -592.015
L1066.02 -590.615
L1066.07 -589.215
L1066.14 -587.815
L1066.22 -586.414
L1066.32 -585.014
L1066.4 -583.614
L1066.47 -582.214
L1066.5 -580.813
L1066.52 -579.413
L1066.52 -578.013
L1066.52 -576.613
L1066.51 -575.212
L1066.49 -573.812
L1066.44 -572.412
L1066.36 -571.012
L1066.28 -569.611
L1066.2 -568.211
L1066.15 -566.811
L1066.14 -565.411
L1066.19 -564.01
L1066.3 -562.61
L1066.45 -561.21
L1066.61 -559.81
L1066.75 -558.409
L1066.83 -557.009
L1066.83 -555.609
L1066.75 -554.209
L1066.62 -552.808
L1066.49 -551.408
L1066.42 -550.008
L1066.47 -548.608
L1066.71 -547.207
L1067.18 -545.807
L1067.9 -544.407
L1068.84 -543.007
L1069.88 -541.606
L1070.87 -540.206
L1071.62 -538.806
L1072.04 -537.406
L1072.11 -536.005
L1071.91 -534.605
L1071.61 -533.205
L1071.35 -531.805
L1071.24 -530.404
L1071.35 -529.004
L1071.72 -527.604
L1072.36 -526.204
L1073.29 -524.803
L1074.54 -523.403
L1076.13 -522.003
L1078.02 -520.603
L1080.08 -519.202
L1082.13 -517.802
L1084.03 -516.402
L1085.79 -515.002
L1087.61 -513.601
L1089.89 -512.201
L1093.07 -510.801
L1097.45 -509.401
L1103.08 -508
L1109.69 -506.6
L1116.73 -505.2
L1123.54 -503.8
L1129.49 -502.399
L1134.09 -500.999
L1137.12 -499.599
L1138.65 -498.199
L1139.01 -496.798
L1138.66 -495.398
L1138.1 -493.998
L1137.74 -492.597
L1137.83 -491.197
L1138.5 -489.797
L1139.76 -488.397
L1141.48 -486.996
L1143.43 -485.596
L1145.2 -484.196
L1146.31 -482.796
L1146.28 -481.395
L1144.78 -479.995
L1141.63 -478.595
L1136.84 -477.195
L1130.48 -475.794
L1122.77 -474.394
L1114.04 -472.994
L1104.81 -471.594
L1095.73 -470.193
L1087.44 -468.793
L1080.48 -467.393
L1075.11 -465.993
L1071.31 -464.592
L1068.86 -463.192
L1067.4 -461.792
L1066.62 -460.392
L1066.24 -458.991
L1066.07 -457.591
L1066 -456.191
z
" id="m42b3beb79b" style="stroke:#bfb281;stroke-width:0.3;"/>
    </defs>
    <g clip-path="url(#p55a2aadd3b)">
     <use style="fill:#bfb281;stroke:#bfb281;stroke-width:0.3;" x="0.0" xlink:href="#m42b3beb79b" y="720.0"/>
    </g>
   </g>
   <g id="line2d_22">
    <path clip-path="url(#p55a2aadd3b)" d="
M186.024 234.522
L338.856 234.522" style="fill:none;stroke:#4c4c4c;stroke-dasharray:1.000000,3.000000;stroke-dashoffset:0.0;stroke-width:1.5;"/>
   </g>
   <g id="line2d_23">
    <path clip-path="url(#p55a2aadd3b)" d="
M205.365 212.548
L319.515 212.548" style="fill:none;stroke:#4c4c4c;stroke-dasharray:1.000000,3.000000;stroke-dashoffset:0.0;stroke-width:1.5;"/>
   </g>
   <g id="line2d_24">
    <path clip-path="url(#p55a2aadd3b)" d="
M187.685 224.57
L337.195 224.57" style="fill:none;stroke:#4c4c4c;stroke-dasharray:6.000000,6.000000;stroke-dashoffset:0.0;stroke-width:1.5;"/>
   </g>
   <g id="line2d_25">
    <path clip-path="url(#p55a2aadd3b)" d="
M262.428 263.639
L262.407 262.352
L262.356 261.065
L262.244 259.778
L262.011 258.491
L261.558 257.205
L260.741 255.918
L259.37 254.631
L257.229 253.344
L254.118 252.057
L249.915 250.771
L244.634 249.484
L238.463 248.197
L231.747 246.91
L224.922 245.623
L218.401 244.337
L212.472 243.05
L207.233 241.763
L202.613 240.476
L198.445 239.189
L194.586 237.903
L190.996 236.616
L187.773 235.329
L185.111 234.042
L183.213 232.755
L182.207 231.469
L182.088 230.182
L182.72 228.895
L183.89 227.608
L185.384 226.321
L187.054 225.035
L188.84 223.748
L190.737 222.461
L192.742 221.174
L194.8 219.887
L196.813 218.601
L198.689 217.314
L200.411 216.027
L202.075 214.74
L203.881 213.453
L206.065 212.167
L208.813 210.88
L212.201 209.593
L216.173 208.306
L220.557 207.019
L225.111 205.733
L229.583 204.446
L233.759 203.159
L237.502 201.872
L240.758 200.585
L243.543 199.299
L245.903 198.012
L247.879 196.725
L249.487 195.438
L250.72 194.151
L251.563 192.865
L252.024 191.578
L252.152 190.291
L252.041 189.004
L251.82 187.717
L251.627 186.431
L251.587 185.144
L251.789 183.857
L252.275 182.57
L253.044 181.283
L254.055 179.997
L255.233 178.71
L256.483 177.423
L257.705 176.136
L258.806 174.849
L259.723 173.563
L260.423 172.276
L260.91 170.989
L261.211 169.702
L261.368 168.415
L261.426 167.129
L261.424 165.842
L261.39 164.555
L261.337 163.268
L261.264 161.981
L261.16 160.695
L261.011 159.408
L260.812 158.121
L260.573 156.834
L260.321 155.547
L260.101 154.261
L259.965 152.974
L259.954 151.687
L260.088 150.4
L260.356 149.113
L260.716 147.827
L261.114 146.54
L261.493 145.253
L261.813 143.966
L262.055 142.679
L262.222 141.393
L262.326 140.106
L262.385 138.819
L262.415 137.532
L262.43 136.245" style="fill:none;stroke:#4c4c4c;stroke-linecap:round;stroke-width:1.5;"/>
   </g>
   <g id="line2d_26">
    <path clip-path="url(#p55a2aadd3b)" d="
M262.452 263.639
L262.473 262.352
L262.524 261.065
L262.636 259.778
L262.869 258.491
L263.322 257.205
L264.139 255.918
L265.51 254.631
L267.651 253.344
L270.762 252.057
L274.965 250.771
L280.246 249.484
L286.417 248.197
L293.133 246.91
L299.958 245.623
L306.479 244.337
L312.408 243.05
L317.647 241.763
L322.267 240.476
L326.435 239.189
L330.294 237.903
L333.884 236.616
L337.107 235.329
L339.769 234.042
L341.667 232.755
L342.673 231.469
L342.792 230.182
L342.16 228.895
L340.99 227.608
L339.496 226.321
L337.826 225.035
L336.04 223.748
L334.143 222.461
L332.138 221.174
L330.08 219.887
L328.067 218.601
L326.191 217.314
L324.469 216.027
L322.805 214.74
L320.999 213.453
L318.815 212.167
L316.067 210.88
L312.679 209.593
L308.707 208.306
L304.323 207.019
L299.769 205.733
L295.297 204.446
L291.121 203.159
L287.378 201.872
L284.122 200.585
L281.337 199.299
L278.977 198.012
L277.001 196.725
L275.393 195.438
L274.16 194.151
L273.317 192.865
L272.856 191.578
L272.728 190.291
L272.839 189.004
L273.06 187.717
L273.253 186.431
L273.293 185.144
L273.091 183.857
L272.605 182.57
L271.836 181.283
L270.825 179.997
L269.647 178.71
L268.397 177.423
L267.175 176.136
L266.074 174.849
L265.157 173.563
L264.457 172.276
L263.97 170.989
L263.669 169.702
L263.512 168.415
L263.454 167.129
L263.456 165.842
L263.49 164.555
L263.543 163.268
L263.616 161.981
L263.72 160.695
L263.869 159.408
L264.068 158.121
L264.307 156.834
L264.559 155.547
L264.779 154.261
L264.915 152.974
L264.926 151.687
L264.792 150.4
L264.524 149.113
L264.164 147.827
L263.766 146.54
L263.387 145.253
L263.067 143.966
L262.825 142.679
L262.658 141.393
L262.554 140.106
L262.495 138.819
L262.465 137.532
L262.45 136.245" style="fill:none;stroke:#4c4c4c;stroke-linecap:round;stroke-width:1.5;"/>
   </g>
   <g id="line2d_27">
    <path clip-path="url(#p55a2aadd3b)" d="
M389.409 239.752
L537.231 239.752" style="fill:none;stroke:#4c4c4c;stroke-dasharray:1.000000,3.000000;stroke-dashoffset:0.0;stroke-width:1.5;"/>
   </g>
   <g id="line2d_28">
    <path clip-path="url(#p55a2aadd3b)" d="
M403.741 223.269
L522.899 223.269" style="fill:none;stroke:#4c4c4c;stroke-dasharray:1.000000,3.000000;stroke-dashoffset:0.0;stroke-width:1.5;"/>
   </g>
   <g id="line2d_29">
    <path clip-path="url(#p55a2aadd3b)" d="
M383.409 231.506
L543.231 231.506" style="fill:none;stroke:#4c4c4c;stroke-dasharray:6.000000,6.000000;stroke-dashoffset:0.0;stroke-width:1.5;"/>
   </g>
   <g id="line2d_30">
    <path clip-path="url(#p55a2aadd3b)" d="
M463.277 267.577
L463.221 266.168
L463.103 264.758
L462.871 263.349
L462.445 261.939
L461.707 260.53
L460.507 259.12
L458.668 257.711
L456.011 256.301
L452.39 254.892
L447.73 253.482
L442.059 252.073
L435.528 250.663
L428.405 249.254
L421.037 247.845
L413.806 246.435
L407.061 245.026
L401.072 243.616
L395.994 242.207
L391.873 240.797
L388.661 239.388
L386.259 237.978
L384.56 236.569
L383.476 235.159
L382.968 233.75
L383.052 232.34
L383.802 230.931
L385.332 229.521
L387.772 228.112
L391.221 226.702
L395.704 225.293
L401.129 223.884
L407.281 222.474
L413.835 221.065
L420.413 219.655
L426.646 218.246
L432.245 216.836
L437.047 215.427
L441.028 214.017
L444.275 212.608
L446.937 211.198
L449.164 209.789
L451.061 208.379
L452.673 206.97
L453.998 205.56
L455.019 204.151
L455.74 202.741
L456.202 201.332
L456.488 199.922
L456.697 198.513
L456.922 197.104
L457.224 195.694
L457.618 194.285
L458.08 192.875
L458.554 191.466
L458.973 190.056
L459.28 188.647
L459.44 187.237
L459.447 185.828
L459.326 184.418
L459.127 183.009
L458.91 181.599
L458.733 180.19
L458.635 178.78
L458.625 177.371
L458.685 175.961
L458.78 174.552
L458.865 173.143
L458.912 171.733
L458.911 170.324
L458.882 168.914
L458.862 167.505
L458.891 166.095
L459.004 164.686
L459.212 163.276
L459.501 161.867
L459.838 160.457
L460.172 159.048
L460.455 157.638
L460.651 156.229
L460.745 154.819
L460.747 153.41
L460.695 152
L460.637 150.591
L460.628 149.182
L460.705 147.772
L460.888 146.363
L461.167 144.953
L461.513 143.544
L461.885 142.134
L462.244 140.725
L462.558 139.315
L462.811 137.906
L462.999 136.496
L463.129 135.087
L463.213 133.677
L463.263 132.268
L463.292 130.858
L463.307 129.449
L463.314 128.039" style="fill:none;stroke:#4c4c4c;stroke-linecap:round;stroke-width:1.5;"/>
   </g>
   <g id="line2d_31">
    <path clip-path="url(#p55a2aadd3b)" d="
M463.363 267.577
L463.419 266.168
L463.537 264.758
L463.769 263.349
L464.195 261.939
L464.933 260.53
L466.133 259.12
L467.972 257.711
L470.629 256.301
L474.25 254.892
L478.91 253.482
L484.581 252.073
L491.112 250.663
L498.235 249.254
L505.603 247.845
L512.834 246.435
L519.579 245.026
L525.568 243.616
L530.646 242.207
L534.767 240.797
L537.979 239.388
L540.381 237.978
L542.08 236.569
L543.164 235.159
L543.672 233.75
L543.588 232.34
L542.838 230.931
L541.308 229.521
L538.868 228.112
L535.419 226.702
L530.936 225.293
L525.511 223.884
L519.359 222.474
L512.805 221.065
L506.227 219.655
L499.994 218.246
L494.395 216.836
L489.593 215.427
L485.612 214.017
L482.365 212.608
L479.703 211.198
L477.476 209.789
L475.579 208.379
L473.967 206.97
L472.642 205.56
L471.621 204.151
L470.9 202.741
L470.438 201.332
L470.152 199.922
L469.943 198.513
L469.718 197.104
L469.416 195.694
L469.022 194.285
L468.56 192.875
L468.086 191.466
L467.667 190.056
L467.36 188.647
L467.2 187.237
L467.193 185.828
L467.314 184.418
L467.513 183.009
L467.73 181.599
L467.907 180.19
L468.005 178.78
L468.015 177.371
L467.955 175.961
L467.86 174.552
L467.775 173.143
L467.728 171.733
L467.729 170.324
L467.758 168.914
L467.778 167.505
L467.749 166.095
L467.636 164.686
L467.428 163.276
L467.139 161.867
L466.802 160.457
L466.468 159.048
L466.185 157.638
L465.989 156.229
L465.895 154.819
L465.893 153.41
L465.945 152
L466.003 150.591
L466.012 149.182
L465.935 147.772
L465.752 146.363
L465.473 144.953
L465.127 143.544
L464.755 142.134
L464.396 140.725
L464.082 139.315
L463.829 137.906
L463.641 136.496
L463.511 135.087
L463.427 133.677
L463.377 132.268
L463.348 130.858
L463.333 129.449
L463.326 128.039" style="fill:none;stroke:#4c4c4c;stroke-linecap:round;stroke-width:1.5;"/>
   </g>
   <g id="line2d_32">
    <path clip-path="url(#p55a2aadd3b)" d="
M585.728 227.008
L742.672 227.008" style="fill:none;stroke:#4c4c4c;stroke-dasharray:1.000000,3.000000;stroke-dashoffset:0.0;stroke-width:1.5;"/>
   </g>
   <g id="line2d_33">
    <path clip-path="url(#p55a2aadd3b)" d="
M584.93 174.57
L743.47 174.57" style="fill:none;stroke:#4c4c4c;stroke-dasharray:1.000000,3.000000;stroke-dashoffset:0.0;stroke-width:1.5;"/>
   </g>
   <g id="line2d_34">
    <path clip-path="url(#p55a2aadd3b)" d="
M598.906 195.587
L729.494 195.587" style="fill:none;stroke:#4c4c4c;stroke-dasharray:6.000000,6.000000;stroke-dashoffset:0.0;stroke-width:1.5;"/>
   </g>
   <g id="line2d_35">
    <path clip-path="url(#p55a2aadd3b)" d="
M664.142 284.063
L664.106 282.269
L664.051 280.475
L663.967 278.681
L663.843 276.886
L663.661 275.092
L663.401 273.298
L663.036 271.504
L662.533 269.71
L661.852 267.916
L660.948 266.122
L659.77 264.328
L658.265 262.534
L656.377 260.74
L654.056 258.946
L651.258 257.152
L647.953 255.358
L644.129 253.564
L639.796 251.769
L634.991 249.975
L629.784 248.181
L624.271 246.387
L618.58 244.593
L612.86 242.799
L607.281 241.005
L602.019 239.211
L597.249 237.417
L593.135 235.623
L589.814 233.829
L587.392 232.035
L585.93 230.241
L585.441 228.447
L585.887 226.652
L587.176 224.858
L589.172 223.064
L591.699 221.27
L594.556 219.476
L597.529 217.682
L600.406 215.888
L602.996 214.094
L605.138 212.3
L606.716 210.506
L607.662 208.712
L607.956 206.918
L607.628 205.124
L606.741 203.33
L605.389 201.535
L603.677 199.741
L601.711 197.947
L599.593 196.153
L597.406 194.359
L595.221 192.565
L593.093 190.771
L591.067 188.977
L589.186 187.183
L587.495 185.389
L586.049 183.595
L584.91 181.801
L584.151 180.007
L583.848 178.213
L584.075 176.418
L584.895 174.624
L586.349 172.83
L588.452 171.036
L591.189 169.242
L594.512 167.448
L598.343 165.654
L602.581 163.86
L607.107 162.066
L611.799 160.272
L616.536 158.478
L621.207 156.684
L625.719 154.89
L630.001 153.096
L634.004 151.301
L637.698 149.507
L641.072 147.713
L644.131 145.919
L646.887 144.125
L649.357 142.331
L651.564 140.537
L653.526 138.743
L655.263 136.949
L656.792 135.155
L658.126 133.361
L659.281 131.567
L660.268 129.773
L661.102 127.978
L661.795 126.184
L662.363 124.39
L662.82 122.596
L663.181 120.802
L663.461 119.008
L663.673 117.214
L663.832 115.42
L663.947 113.626
L664.03 111.832
L664.088 110.038
L664.128 108.244
L664.154 106.45" style="fill:none;stroke:#4c4c4c;stroke-linecap:round;stroke-width:1.5;"/>
   </g>
   <g id="line2d_36">
    <path clip-path="url(#p55a2aadd3b)" d="
M664.258 284.063
L664.294 282.269
L664.349 280.475
L664.433 278.681
L664.557 276.886
L664.739 275.092
L664.999 273.298
L665.364 271.504
L665.867 269.71
L666.548 267.916
L667.452 266.122
L668.63 264.328
L670.135 262.534
L672.023 260.74
L674.344 258.946
L677.142 257.152
L680.447 255.358
L684.271 253.564
L688.604 251.769
L693.409 249.975
L698.616 248.181
L704.129 246.387
L709.82 244.593
L715.54 242.799
L721.119 241.005
L726.381 239.211
L731.151 237.417
L735.265 235.623
L738.586 233.829
L741.008 232.035
L742.47 230.241
L742.959 228.447
L742.513 226.652
L741.224 224.858
L739.228 223.064
L736.701 221.27
L733.844 219.476
L730.871 217.682
L727.994 215.888
L725.404 214.094
L723.262 212.3
L721.684 210.506
L720.738 208.712
L720.444 206.918
L720.772 205.124
L721.659 203.33
L723.011 201.535
L724.723 199.741
L726.689 197.947
L728.807 196.153
L730.994 194.359
L733.179 192.565
L735.307 190.771
L737.333 188.977
L739.214 187.183
L740.905 185.389
L742.351 183.595
L743.49 181.801
L744.249 180.007
L744.552 178.213
L744.325 176.418
L743.505 174.624
L742.051 172.83
L739.948 171.036
L737.211 169.242
L733.888 167.448
L730.057 165.654
L725.819 163.86
L721.293 162.066
L716.601 160.272
L711.864 158.478
L707.193 156.684
L702.681 154.89
L698.399 153.096
L694.396 151.301
L690.702 149.507
L687.328 147.713
L684.269 145.919
L681.513 144.125
L679.043 142.331
L676.836 140.537
L674.874 138.743
L673.137 136.949
L671.608 135.155
L670.274 133.361
L669.119 131.567
L668.132 129.773
L667.298 127.978
L666.605 126.184
L666.037 124.39
L665.58 122.596
L665.219 120.802
L664.939 119.008
L664.727 117.214
L664.568 115.42
L664.453 113.626
L664.37 111.832
L664.312 110.038
L664.272 108.244
L664.246 106.45" style="fill:none;stroke:#4c4c4c;stroke-linecap:round;stroke-width:1.5;"/>
   </g>
   <g id="line2d_37">
    <path clip-path="url(#p55a2aadd3b)" d="
M801.202 227.445
L928.958 227.445" style="fill:none;stroke:#4c4c4c;stroke-dasharray:1.000000,3.000000;stroke-dashoffset:0.0;stroke-width:1.5;"/>
   </g>
   <g id="line2d_38">
    <path clip-path="url(#p55a2aadd3b)" d="
M790.988 164.475
L939.172 164.475" style="fill:none;stroke:#4c4c4c;stroke-dasharray:1.000000,3.000000;stroke-dashoffset:0.0;stroke-width:1.5;"/>
   </g>
   <g id="line2d_39">
    <path clip-path="url(#p55a2aadd3b)" d="
M785.128 189.225
L945.032 189.225" style="fill:none;stroke:#4c4c4c;stroke-dasharray:6.000000,6.000000;stroke-dashoffset:0.0;stroke-width:1.5;"/>
   </g>
   <g id="line2d_40">
    <path clip-path="url(#p55a2aadd3b)" d="
M864.982 302.093
L864.934 300.019
L864.866 297.945
L864.772 295.871
L864.641 293.798
L864.463 291.724
L864.226 289.65
L863.913 287.576
L863.506 285.502
L862.986 283.429
L862.328 281.355
L861.509 279.281
L860.504 277.207
L859.286 275.134
L857.832 273.06
L856.119 270.986
L854.129 268.912
L851.85 266.838
L849.276 264.765
L846.412 262.691
L843.273 260.617
L839.886 258.543
L836.292 256.469
L832.542 254.396
L828.702 252.322
L824.847 250.248
L821.059 248.174
L817.423 246.101
L814.024 244.027
L810.941 241.953
L808.24 239.879
L805.969 237.805
L804.157 235.732
L802.808 233.658
L801.901 231.584
L801.389 229.51
L801.202 227.436
L801.253 225.363
L801.442 223.289
L801.664 221.215
L801.817 219.141
L801.808 217.068
L801.563 214.994
L801.029 212.92
L800.183 210.846
L799.027 208.772
L797.593 206.699
L795.939 204.625
L794.143 202.551
L792.294 200.477
L790.489 198.403
L788.823 196.33
L787.376 194.256
L786.215 192.182
L785.38 190.108
L784.888 188.035
L784.728 185.961
L784.868 183.887
L785.254 181.813
L785.824 179.739
L786.51 177.666
L787.25 175.592
L787.993 173.518
L788.708 171.444
L789.388 169.37
L790.047 167.297
L790.727 165.223
L791.486 163.149
L792.397 161.075
L793.539 159.002
L794.989 156.928
L796.812 154.854
L799.059 152.78
L801.753 150.706
L804.895 148.633
L808.456 146.559
L812.384 144.485
L816.603 142.411
L821.021 140.337
L825.539 138.264
L830.053 136.19
L834.464 134.116
L838.682 132.042
L842.635 129.969
L846.263 127.895
L849.529 125.821
L852.413 123.747
L854.911 121.673
L857.036 119.6
L858.811 117.526
L860.266 115.452
L861.439 113.378
L862.367 111.305
L863.089 109.231
L863.641 107.157
L864.055 105.083
L864.362 103.009
L864.584 100.936
L864.743 98.8618
L864.854 96.788" style="fill:none;stroke:#4c4c4c;stroke-linecap:round;stroke-width:1.5;"/>
   </g>
   <g id="line2d_41">
    <path clip-path="url(#p55a2aadd3b)" d="
M865.178 302.093
L865.226 300.019
L865.294 297.945
L865.388 295.871
L865.519 293.798
L865.697 291.724
L865.934 289.65
L866.247 287.576
L866.654 285.502
L867.174 283.429
L867.832 281.355
L868.651 279.281
L869.656 277.207
L870.874 275.134
L872.328 273.06
L874.041 270.986
L876.031 268.912
L878.31 266.838
L880.884 264.765
L883.748 262.691
L886.887 260.617
L890.274 258.543
L893.868 256.469
L897.618 254.396
L901.458 252.322
L905.313 250.248
L909.101 248.174
L912.737 246.101
L916.136 244.027
L919.219 241.953
L921.92 239.879
L924.191 237.805
L926.003 235.732
L927.352 233.658
L928.259 231.584
L928.771 229.51
L928.958 227.436
L928.907 225.363
L928.718 223.289
L928.496 221.215
L928.343 219.141
L928.352 217.068
L928.597 214.994
L929.131 212.92
L929.977 210.846
L931.133 208.772
L932.567 206.699
L934.221 204.625
L936.017 202.551
L937.866 200.477
L939.671 198.403
L941.337 196.33
L942.784 194.256
L943.945 192.182
L944.78 190.108
L945.272 188.035
L945.432 185.961
L945.292 183.887
L944.906 181.813
L944.336 179.739
L943.65 177.666
L942.91 175.592
L942.167 173.518
L941.452 171.444
L940.772 169.37
L940.113 167.297
L939.433 165.223
L938.674 163.149
L937.763 161.075
L936.621 159.002
L935.171 156.928
L933.348 154.854
L931.101 152.78
L928.407 150.706
L925.265 148.633
L921.704 146.559
L917.776 144.485
L913.557 142.411
L909.139 140.337
L904.621 138.264
L900.107 136.19
L895.696 134.116
L891.478 132.042
L887.525 129.969
L883.897 127.895
L880.631 125.821
L877.747 123.747
L875.249 121.673
L873.124 119.6
L871.349 117.526
L869.894 115.452
L868.721 113.378
L867.793 111.305
L867.071 109.231
L866.519 107.157
L866.105 105.083
L865.798 103.009
L865.576 100.936
L865.417 98.8618
L865.306 96.788" style="fill:none;stroke:#4c4c4c;stroke-linecap:round;stroke-width:1.5;"/>
   </g>
   <g id="line2d_42">
    <path clip-path="url(#p55a2aadd3b)" d="
M985.749 238.797
L1146.17 238.797" style="fill:none;stroke:#4c4c4c;stroke-dasharray:1.000000,3.000000;stroke-dashoffset:0.0;stroke-width:1.5;"/>
   </g>
   <g id="line2d_43">
    <path clip-path="url(#p55a2aadd3b)" d="
M998.191 218.871
L1133.73 218.871" style="fill:none;stroke:#4c4c4c;stroke-dasharray:1.000000,3.000000;stroke-dashoffset:0.0;stroke-width:1.5;"/>
   </g>
   <g id="line2d_44">
    <path clip-path="url(#p55a2aadd3b)" d="
M993.921 229.296
L1138 229.296" style="fill:none;stroke:#4c4c4c;stroke-dasharray:6.000000,6.000000;stroke-dashoffset:0.0;stroke-width:1.5;"/>
   </g>
   <g id="line2d_45">
    <path clip-path="url(#p55a2aadd3b)" d="
M1065.92 263.809
L1065.85 262.409
L1065.68 261.009
L1065.3 259.608
L1064.52 258.208
L1063.06 256.808
L1060.61 255.408
L1056.81 254.007
L1051.44 252.607
L1044.48 251.207
L1036.19 249.807
L1027.11 248.406
L1017.88 247.006
L1009.15 245.606
L1001.44 244.206
L995.085 242.805
L990.285 241.405
L987.14 240.005
L985.636 238.605
L985.608 237.204
L986.715 235.804
L988.487 234.404
L990.435 233.004
L992.162 231.603
L993.417 230.203
L994.089 228.803
L994.183 227.403
L993.82 226.002
L993.262 224.602
L992.912 223.202
L993.265 221.801
L994.796 220.401
L997.827 219.001
L1002.43 217.601
L1008.38 216.2
L1015.19 214.8
L1022.23 213.4
L1028.84 212
L1034.47 210.599
L1038.85 209.199
L1042.03 207.799
L1044.31 206.399
L1046.13 204.998
L1047.89 203.598
L1049.79 202.198
L1051.84 200.798
L1053.9 199.397
L1055.79 197.997
L1057.38 196.597
L1058.63 195.197
L1059.56 193.796
L1060.2 192.396
L1060.57 190.996
L1060.68 189.596
L1060.57 188.195
L1060.31 186.795
L1060.01 185.395
L1059.81 183.995
L1059.88 182.594
L1060.3 181.194
L1061.05 179.794
L1062.04 178.394
L1063.08 176.993
L1064.02 175.593
L1064.74 174.193
L1065.21 172.793
L1065.45 171.392
L1065.5 169.992
L1065.43 168.592
L1065.3 167.192
L1065.17 165.791
L1065.09 164.391
L1065.09 162.991
L1065.17 161.591
L1065.31 160.19
L1065.47 158.79
L1065.62 157.39
L1065.73 155.99
L1065.78 154.589
L1065.77 153.189
L1065.72 151.789
L1065.64 150.389
L1065.56 148.988
L1065.48 147.588
L1065.43 146.188
L1065.41 144.788
L1065.4 143.387
L1065.4 141.987
L1065.4 140.587
L1065.42 139.187
L1065.45 137.786
L1065.52 136.386
L1065.6 134.986
L1065.7 133.586
L1065.78 132.185
L1065.85 130.785
L1065.9 129.385
L1065.93 127.985
L1065.95 126.584
L1065.96 125.184" style="fill:none;stroke:#4c4c4c;stroke-linecap:round;stroke-width:1.5;"/>
   </g>
   <g id="line2d_46">
    <path clip-path="url(#p55a2aadd3b)" d="
M1066 263.809
L1066.07 262.409
L1066.24 261.009
L1066.62 259.608
L1067.4 258.208
L1068.86 256.808
L1071.31 255.408
L1075.11 254.007
L1080.48 252.607
L1087.44 251.207
L1095.73 249.807
L1104.81 248.406
L1114.04 247.006
L1122.77 245.606
L1130.48 244.206
L1136.84 242.805
L1141.63 241.405
L1144.78 240.005
L1146.28 238.605
L1146.31 237.204
L1145.2 235.804
L1143.43 234.404
L1141.48 233.004
L1139.76 231.603
L1138.5 230.203
L1137.83 228.803
L1137.74 227.403
L1138.1 226.002
L1138.66 224.602
L1139.01 223.202
L1138.65 221.801
L1137.12 220.401
L1134.09 219.001
L1129.49 217.601
L1123.54 216.2
L1116.73 214.8
L1109.69 213.4
L1103.08 212
L1097.45 210.599
L1093.07 209.199
L1089.89 207.799
L1087.61 206.399
L1085.79 204.998
L1084.03 203.598
L1082.13 202.198
L1080.08 200.798
L1078.02 199.397
L1076.13 197.997
L1074.54 196.597
L1073.29 195.197
L1072.36 193.796
L1071.72 192.396
L1071.35 190.996
L1071.24 189.596
L1071.35 188.195
L1071.61 186.795
L1071.91 185.395
L1072.11 183.995
L1072.04 182.594
L1071.62 181.194
L1070.87 179.794
L1069.88 178.394
L1068.84 176.993
L1067.9 175.593
L1067.18 174.193
L1066.71 172.793
L1066.47 171.392
L1066.42 169.992
L1066.49 168.592
L1066.62 167.192
L1066.75 165.791
L1066.83 164.391
L1066.83 162.991
L1066.75 161.591
L1066.61 160.19
L1066.45 158.79
L1066.3 157.39
L1066.19 155.99
L1066.14 154.589
L1066.15 153.189
L1066.2 151.789
L1066.28 150.389
L1066.36 148.988
L1066.44 147.588
L1066.49 146.188
L1066.51 144.788
L1066.52 143.387
L1066.52 141.987
L1066.52 140.587
L1066.5 139.187
L1066.47 137.786
L1066.4 136.386
L1066.32 134.986
L1066.22 133.586
L1066.14 132.185
L1066.07 130.785
L1066.02 129.385
L1065.99 127.985
L1065.97 126.584
L1065.96 125.184" style="fill:none;stroke:#4c4c4c;stroke-linecap:round;stroke-width:1.5;"/>
   </g>
   <g id="patch_3">
    <path d="
M162 325.636
L1166.4 325.636" style="fill:none;stroke:#000000;stroke-linecap:square;stroke-linejoin:miter;"/>
   </g>
   <g id="patch_4">
    <path d="
M162 325.636
L162 72" style="fill:none;stroke:#000000;stroke-linecap:square;stroke-linejoin:miter;"/>
   </g>
   <g id="text_15">
    <!-- Distribution of Centroid Distances by Cluster -->
    <defs>
     <path d="
M32.1719 -5.07812
Q28.375 -14.8438 24.75 -17.8125
Q21.1406 -20.7969 15.0938 -20.7969
L7.90625 -20.7969
L7.90625 -13.2812
L13.1875 -13.2812
Q16.8906 -13.2812 18.9375 -11.5156
Q21 -9.76562 23.4844 -3.21875
L25.0938 0.875
L2.98438 54.6875
L12.5 54.6875
L29.5938 11.9219
L46.6875 54.6875
L56.2031 54.6875
z
" id="BitstreamVeraSans-Roman-79"/>
     <path d="
M8.5 21.5781
L8.5 54.6875
L17.4844 54.6875
L17.4844 21.9219
Q17.4844 14.1562 20.5 10.2656
Q23.5312 6.39062 29.5938 6.39062
Q36.8594 6.39062 41.0781 11.0312
Q45.3125 15.6719 45.3125 23.6875
L45.3125 54.6875
L54.2969 54.6875
L54.2969 0
L45.3125 0
L45.3125 8.40625
Q42.0469 3.42188 37.7188 1
Q33.4062 -1.42188 27.6875 -1.42188
Q18.2656 -1.42188 13.375 4.4375
Q8.5 10.2969 8.5 21.5781" id="BitstreamVeraSans-Roman-75"/>
     <path d="
M37.1094 75.9844
L37.1094 68.5
L28.5156 68.5
Q23.6875 68.5 21.7969 66.5469
Q19.9219 64.5938 19.9219 59.5156
L19.9219 54.6875
L34.7188 54.6875
L34.7188 47.7031
L19.9219 47.7031
L19.9219 0
L10.8906 0
L10.8906 47.7031
L2.29688 47.7031
L2.29688 54.6875
L10.8906 54.6875
L10.8906 58.5
Q10.8906 67.625 15.1406 71.7969
Q19.3906 75.9844 28.6094 75.9844
z
" id="BitstreamVeraSans-Roman-66"/>
     <path d="
M9.42188 75.9844
L18.4062 75.9844
L18.4062 0
L9.42188 0
z
" id="BitstreamVeraSans-Roman-6c"/>
     <path d="
M48.6875 27.2969
Q48.6875 37.2031 44.6094 42.8438
Q40.5312 48.4844 33.4062 48.4844
Q26.2656 48.4844 22.1875 42.8438
Q18.1094 37.2031 18.1094 27.2969
Q18.1094 17.3906 22.1875 11.75
Q26.2656 6.10938 33.4062 6.10938
Q40.5312 6.10938 44.6094 11.75
Q48.6875 17.3906 48.6875 27.2969
M18.1094 46.3906
Q20.9531 51.2656 25.2656 53.625
Q29.5938 56 35.5938 56
Q45.5625 56 51.7812 48.0938
Q58.0156 40.1875 58.0156 27.2969
Q58.0156 14.4062 51.7812 6.48438
Q45.5625 -1.42188 35.5938 -1.42188
Q29.5938 -1.42188 25.2656 0.953125
Q20.9531 3.32812 18.1094 8.20312
L18.1094 0
L9.07812 0
L9.07812 75.9844
L18.1094 75.9844
z
" id="BitstreamVeraSans-Roman-62"/>
    </defs>
    <g style="fill:#262626;" transform="translate(530.3484375 67.0)scale(0.12 -0.12)">
     <use xlink:href="#BitstreamVeraSans-Roman-44"/>
     <use x="77.001953125" xlink:href="#BitstreamVeraSans-Roman-69"/>
     <use x="104.78515625" xlink:href="#BitstreamVeraSans-Roman-73"/>
     <use x="156.884765625" xlink:href="#BitstreamVeraSans-Roman-74"/>
     <use x="196.09375" xlink:href="#BitstreamVeraSans-Roman-72"/>
     <use x="237.20703125" xlink:href="#BitstreamVeraSans-Roman-69"/>
     <use x="264.990234375" xlink:href="#BitstreamVeraSans-Roman-62"/>
     <use x="328.466796875" xlink:href="#BitstreamVeraSans-Roman-75"/>
     <use x="391.845703125" xlink:href="#BitstreamVeraSans-Roman-74"/>
     <use x="431.0546875" xlink:href="#BitstreamVeraSans-Roman-69"/>
     <use x="458.837890625" xlink:href="#BitstreamVeraSans-Roman-6f"/>
     <use x="520.01953125" xlink:href="#BitstreamVeraSans-Roman-6e"/>
     <use x="583.3984375" xlink:href="#BitstreamVeraSans-Roman-20"/>
     <use x="615.185546875" xlink:href="#BitstreamVeraSans-Roman-6f"/>
     <use x="676.3671875" xlink:href="#BitstreamVeraSans-Roman-66"/>
     <use x="711.572265625" xlink:href="#BitstreamVeraSans-Roman-20"/>
     <use x="743.359375" xlink:href="#BitstreamVeraSans-Roman-43"/>
     <use x="813.18359375" xlink:href="#BitstreamVeraSans-Roman-65"/>
     <use x="874.70703125" xlink:href="#BitstreamVeraSans-Roman-6e"/>
     <use x="938.0859375" xlink:href="#BitstreamVeraSans-Roman-74"/>
     <use x="977.294921875" xlink:href="#BitstreamVeraSans-Roman-72"/>
     <use x="1016.15820312" xlink:href="#BitstreamVeraSans-Roman-6f"/>
     <use x="1077.33984375" xlink:href="#BitstreamVeraSans-Roman-69"/>
     <use x="1105.12304688" xlink:href="#BitstreamVeraSans-Roman-64"/>
     <use x="1168.59960938" xlink:href="#BitstreamVeraSans-Roman-20"/>
     <use x="1200.38671875" xlink:href="#BitstreamVeraSans-Roman-44"/>
     <use x="1277.38867188" xlink:href="#BitstreamVeraSans-Roman-69"/>
     <use x="1305.171875" xlink:href="#BitstreamVeraSans-Roman-73"/>
     <use x="1357.27148438" xlink:href="#BitstreamVeraSans-Roman-74"/>
     <use x="1396.48046875" xlink:href="#BitstreamVeraSans-Roman-61"/>
     <use x="1457.75976562" xlink:href="#BitstreamVeraSans-Roman-6e"/>
     <use x="1521.13867188" xlink:href="#BitstreamVeraSans-Roman-63"/>
     <use x="1576.11914062" xlink:href="#BitstreamVeraSans-Roman-65"/>
     <use x="1637.64257812" xlink:href="#BitstreamVeraSans-Roman-73"/>
     <use x="1689.7421875" xlink:href="#BitstreamVeraSans-Roman-20"/>
     <use x="1721.52929688" xlink:href="#BitstreamVeraSans-Roman-62"/>
     <use x="1785.00585938" xlink:href="#BitstreamVeraSans-Roman-79"/>
     <use x="1844.18554688" xlink:href="#BitstreamVeraSans-Roman-20"/>
     <use x="1875.97265625" xlink:href="#BitstreamVeraSans-Roman-43"/>
     <use x="1945.796875" xlink:href="#BitstreamVeraSans-Roman-6c"/>
     <use x="1973.58007812" xlink:href="#BitstreamVeraSans-Roman-75"/>
     <use x="2036.95898438" xlink:href="#BitstreamVeraSans-Roman-73"/>
     <use x="2089.05859375" xlink:href="#BitstreamVeraSans-Roman-74"/>
     <use x="2128.26757812" xlink:href="#BitstreamVeraSans-Roman-65"/>
     <use x="2189.79101562" xlink:href="#BitstreamVeraSans-Roman-72"/>
    </g>
   </g>
  </g>
  <g id="axes_2">
   <g id="patch_5">
    <path d="
M162 630
L1166.4 630
L1166.4 376.364
L162 376.364
z
" style="fill:#ffffff;"/>
   </g>
   <g id="matplotlib.axis_3">
    <g id="xtick_6">
     <g id="line2d_47">
      <path clip-path="url(#pe88aad526e)" d="
M262.44 630
L262.44 376.364" style="fill:none;stroke:#ffffff;stroke-linecap:round;"/>
     </g>
     <g id="line2d_48">
      <g>
       <use style="fill:#262626;stroke:#262626;" x="262.44" xlink:href="#m219da94a98" y="630.0"/>
      </g>
     </g>
     <g id="text_16">
      <!-- 0 -->
      <g style="fill:#262626;" transform="translate(265.199375 642.0390625)rotate(-90.0)scale(0.1 -0.1)">
       <use xlink:href="#BitstreamVeraSans-Roman-30"/>
      </g>
     </g>
    </g>
    <g id="xtick_7">
     <g id="line2d_49">
      <path clip-path="url(#pe88aad526e)" d="
M463.32 630
L463.32 376.364" style="fill:none;stroke:#ffffff;stroke-linecap:round;"/>
     </g>
     <g id="line2d_50">
      <g>
       <use style="fill:#262626;stroke:#262626;" x="463.32" xlink:href="#m219da94a98" y="630.0"/>
      </g>
     </g>
     <g id="text_17">
      <!-- 1 -->
      <g style="fill:#262626;" transform="translate(466.079375 641.340625)rotate(-90.0)scale(0.1 -0.1)">
       <use xlink:href="#BitstreamVeraSans-Roman-31"/>
      </g>
     </g>
    </g>
    <g id="xtick_8">
     <g id="line2d_51">
      <path clip-path="url(#pe88aad526e)" d="
M664.2 630
L664.2 376.364" style="fill:none;stroke:#ffffff;stroke-linecap:round;"/>
     </g>
     <g id="line2d_52">
      <g>
       <use style="fill:#262626;stroke:#262626;" x="664.2" xlink:href="#m219da94a98" y="630.0"/>
      </g>
     </g>
     <g id="text_18">
      <!-- 2 -->
      <g style="fill:#262626;" transform="translate(666.959375 641.628125)rotate(-90.0)scale(0.1 -0.1)">
       <use xlink:href="#BitstreamVeraSans-Roman-32"/>
      </g>
     </g>
    </g>
    <g id="xtick_9">
     <g id="line2d_53">
      <path clip-path="url(#pe88aad526e)" d="
M865.08 630
L865.08 376.364" style="fill:none;stroke:#ffffff;stroke-linecap:round;"/>
     </g>
     <g id="line2d_54">
      <g>
       <use style="fill:#262626;stroke:#262626;" x="865.08" xlink:href="#m219da94a98" y="630.0"/>
      </g>
     </g>
     <g id="text_19">
      <!-- 3 -->
      <g style="fill:#262626;" transform="translate(867.839375 641.7984375)rotate(-90.0)scale(0.1 -0.1)">
       <use xlink:href="#BitstreamVeraSans-Roman-33"/>
      </g>
     </g>
    </g>
    <g id="xtick_10">
     <g id="line2d_55">
      <path clip-path="url(#pe88aad526e)" d="
M1065.96 630
L1065.96 376.364" style="fill:none;stroke:#ffffff;stroke-linecap:round;"/>
     </g>
     <g id="line2d_56">
      <g>
       <use style="fill:#262626;stroke:#262626;" x="1065.96" xlink:href="#m219da94a98" y="630.0"/>
      </g>
     </g>
     <g id="text_20">
      <!-- 4 -->
      <g style="fill:#262626;" transform="translate(1068.719375 642.3125)rotate(-90.0)scale(0.1 -0.1)">
       <use xlink:href="#BitstreamVeraSans-Roman-34"/>
      </g>
     </g>
    </g>
   </g>
   <g id="matplotlib.axis_4">
    <g id="ytick_9">
     <g id="line2d_57">
      <path clip-path="url(#pe88aad526e)" d="
M162 630
L1166.4 630" style="fill:none;stroke:#ffffff;stroke-linecap:round;"/>
     </g>
     <g id="line2d_58">
      <g>
       <use style="fill:#262626;stroke:#262626;" x="162.0" xlink:href="#m219da94a98" y="630.0"/>
      </g>
     </g>
     <g id="text_21">
      <!-- 0.0 -->
      <g style="fill:#262626;" transform="translate(140.4203125 632.759375)scale(0.1 -0.1)">
       <use xlink:href="#BitstreamVeraSans-Roman-30"/>
       <use x="63.623046875" xlink:href="#BitstreamVeraSans-Roman-2e"/>
       <use x="95.41015625" xlink:href="#BitstreamVeraSans-Roman-30"/>
      </g>
     </g>
    </g>
    <g id="ytick_10">
     <g id="line2d_59">
      <path clip-path="url(#pe88aad526e)" d="
M162 598.295
L1166.4 598.295" style="fill:none;stroke:#ffffff;stroke-linecap:round;"/>
     </g>
     <g id="line2d_60">
      <g>
       <use style="fill:#262626;stroke:#262626;" x="162.0" xlink:href="#m219da94a98" y="598.295454545"/>
      </g>
     </g>
     <g id="text_22">
      <!-- 0.1 -->
      <g style="fill:#262626;" transform="translate(140.6796875 601.054829545)scale(0.1 -0.1)">
       <use xlink:href="#BitstreamVeraSans-Roman-30"/>
       <use x="63.623046875" xlink:href="#BitstreamVeraSans-Roman-2e"/>
       <use x="95.41015625" xlink:href="#BitstreamVeraSans-Roman-31"/>
      </g>
     </g>
    </g>
    <g id="ytick_11">
     <g id="line2d_61">
      <path clip-path="url(#pe88aad526e)" d="
M162 566.591
L1166.4 566.591" style="fill:none;stroke:#ffffff;stroke-linecap:round;"/>
     </g>
     <g id="line2d_62">
      <g>
       <use style="fill:#262626;stroke:#262626;" x="162.0" xlink:href="#m219da94a98" y="566.590909091"/>
      </g>
     </g>
     <g id="text_23">
      <!-- 0.2 -->
      <g style="fill:#262626;" transform="translate(140.7578125 569.350284091)scale(0.1 -0.1)">
       <use xlink:href="#BitstreamVeraSans-Roman-30"/>
       <use x="63.623046875" xlink:href="#BitstreamVeraSans-Roman-2e"/>
       <use x="95.41015625" xlink:href="#BitstreamVeraSans-Roman-32"/>
      </g>
     </g>
    </g>
    <g id="ytick_12">
     <g id="line2d_63">
      <path clip-path="url(#pe88aad526e)" d="
M162 534.886
L1166.4 534.886" style="fill:none;stroke:#ffffff;stroke-linecap:round;"/>
     </g>
     <g id="line2d_64">
      <g>
       <use style="fill:#262626;stroke:#262626;" x="162.0" xlink:href="#m219da94a98" y="534.886363636"/>
      </g>
     </g>
     <g id="text_24">
      <!-- 0.3 -->
      <g style="fill:#262626;" transform="translate(140.5578125 537.645738636)scale(0.1 -0.1)">
       <use xlink:href="#BitstreamVeraSans-Roman-30"/>
       <use x="63.623046875" xlink:href="#BitstreamVeraSans-Roman-2e"/>
       <use x="95.41015625" xlink:href="#BitstreamVeraSans-Roman-33"/>
      </g>
     </g>
    </g>
    <g id="ytick_13">
     <g id="line2d_65">
      <path clip-path="url(#pe88aad526e)" d="
M162 503.182
L1166.4 503.182" style="fill:none;stroke:#ffffff;stroke-linecap:round;"/>
     </g>
     <g id="line2d_66">
      <g>
       <use style="fill:#262626;stroke:#262626;" x="162.0" xlink:href="#m219da94a98" y="503.181818182"/>
      </g>
     </g>
     <g id="text_25">
      <!-- 0.4 -->
      <g style="fill:#262626;" transform="translate(140.3171875 505.941193182)scale(0.1 -0.1)">
       <use xlink:href="#BitstreamVeraSans-Roman-30"/>
       <use x="63.623046875" xlink:href="#BitstreamVeraSans-Roman-2e"/>
       <use x="95.41015625" xlink:href="#BitstreamVeraSans-Roman-34"/>
      </g>
     </g>
    </g>
    <g id="ytick_14">
     <g id="line2d_67">
      <path clip-path="url(#pe88aad526e)" d="
M162 471.477
L1166.4 471.477" style="fill:none;stroke:#ffffff;stroke-linecap:round;"/>
     </g>
     <g id="line2d_68">
      <g>
       <use style="fill:#262626;stroke:#262626;" x="162.0" xlink:href="#m219da94a98" y="471.477272727"/>
      </g>
     </g>
     <g id="text_26">
      <!-- 0.5 -->
      <defs>
       <path d="
M10.7969 72.9062
L49.5156 72.9062
L49.5156 64.5938
L19.8281 64.5938
L19.8281 46.7344
Q21.9688 47.4688 24.1094 47.8281
Q26.2656 48.1875 28.4219 48.1875
Q40.625 48.1875 47.75 41.5
Q54.8906 34.8125 54.8906 23.3906
Q54.8906 11.625 47.5625 5.09375
Q40.2344 -1.42188 26.9062 -1.42188
Q22.3125 -1.42188 17.5469 -0.640625
Q12.7969 0.140625 7.71875 1.70312
L7.71875 11.625
Q12.1094 9.23438 16.7969 8.0625
Q21.4844 6.89062 26.7031 6.89062
Q35.1562 6.89062 40.0781 11.3281
Q45.0156 15.7656 45.0156 23.3906
Q45.0156 31 40.0781 35.4375
Q35.1562 39.8906 26.7031 39.8906
Q22.75 39.8906 18.8125 39.0156
Q14.8906 38.1406 10.7969 36.2812
z
" id="BitstreamVeraSans-Roman-35"/>
      </defs>
      <g style="fill:#262626;" transform="translate(140.6296875 474.236647727)scale(0.1 -0.1)">
       <use xlink:href="#BitstreamVeraSans-Roman-30"/>
       <use x="63.623046875" xlink:href="#BitstreamVeraSans-Roman-2e"/>
       <use x="95.41015625" xlink:href="#BitstreamVeraSans-Roman-35"/>
      </g>
     </g>
    </g>
    <g id="ytick_15">
     <g id="line2d_69">
      <path clip-path="url(#pe88aad526e)" d="
M162 439.773
L1166.4 439.773" style="fill:none;stroke:#ffffff;stroke-linecap:round;"/>
     </g>
     <g id="line2d_70">
      <g>
       <use style="fill:#262626;stroke:#262626;" x="162.0" xlink:href="#m219da94a98" y="439.772727273"/>
      </g>
     </g>
     <g id="text_27">
      <!-- 0.6 -->
      <g style="fill:#262626;" transform="translate(140.3859375 442.532102273)scale(0.1 -0.1)">
       <use xlink:href="#BitstreamVeraSans-Roman-30"/>
       <use x="63.623046875" xlink:href="#BitstreamVeraSans-Roman-2e"/>
       <use x="95.41015625" xlink:href="#BitstreamVeraSans-Roman-36"/>
      </g>
     </g>
    </g>
    <g id="ytick_16">
     <g id="line2d_71">
      <path clip-path="url(#pe88aad526e)" d="
M162 408.068
L1166.4 408.068" style="fill:none;stroke:#ffffff;stroke-linecap:round;"/>
     </g>
     <g id="line2d_72">
      <g>
       <use style="fill:#262626;stroke:#262626;" x="162.0" xlink:href="#m219da94a98" y="408.068181818"/>
      </g>
     </g>
     <g id="text_28">
      <!-- 0.7 -->
      <defs>
       <path d="
M8.20312 72.9062
L55.0781 72.9062
L55.0781 68.7031
L28.6094 0
L18.3125 0
L43.2188 64.5938
L8.20312 64.5938
z
" id="BitstreamVeraSans-Roman-37"/>
      </defs>
      <g style="fill:#262626;" transform="translate(140.6109375 410.827556818)scale(0.1 -0.1)">
       <use xlink:href="#BitstreamVeraSans-Roman-30"/>
       <use x="63.623046875" xlink:href="#BitstreamVeraSans-Roman-2e"/>
       <use x="95.41015625" xlink:href="#BitstreamVeraSans-Roman-37"/>
      </g>
     </g>
    </g>
    <g id="ytick_17">
     <g id="line2d_73">
      <path clip-path="url(#pe88aad526e)" d="
M162 376.364
L1166.4 376.364" style="fill:none;stroke:#ffffff;stroke-linecap:round;"/>
     </g>
     <g id="line2d_74">
      <g>
       <use style="fill:#262626;stroke:#262626;" x="162.0" xlink:href="#m219da94a98" y="376.363636364"/>
      </g>
     </g>
     <g id="text_29">
      <!-- 0.8 -->
      <g style="fill:#262626;" transform="translate(140.440625 379.123011364)scale(0.1 -0.1)">
       <use xlink:href="#BitstreamVeraSans-Roman-30"/>
       <use x="63.623046875" xlink:href="#BitstreamVeraSans-Roman-2e"/>
       <use x="95.41015625" xlink:href="#BitstreamVeraSans-Roman-38"/>
      </g>
     </g>
    </g>
    <g id="text_30">
     <!-- Coefficient of Variation -->
     <defs>
      <path d="
M28.6094 0
L0.78125 72.9062
L11.0781 72.9062
L34.1875 11.5312
L57.3281 72.9062
L67.5781 72.9062
L39.7969 0
z
" id="BitstreamVeraSans-Roman-56"/>
     </defs>
     <g style="fill:#262626;" transform="translate(133.02953125 565.482208807)rotate(-90.0)scale(0.11 -0.11)">
      <use xlink:href="#BitstreamVeraSans-Roman-43"/>
      <use x="69.82421875" xlink:href="#BitstreamVeraSans-Roman-6f"/>
      <use x="131.005859375" xlink:href="#BitstreamVeraSans-Roman-65"/>
      <use x="192.529296875" xlink:href="#BitstreamVeraSans-Roman-66"/>
      <use x="227.734375" xlink:href="#BitstreamVeraSans-Roman-66"/>
      <use x="262.939453125" xlink:href="#BitstreamVeraSans-Roman-69"/>
      <use x="290.72265625" xlink:href="#BitstreamVeraSans-Roman-63"/>
      <use x="345.703125" xlink:href="#BitstreamVeraSans-Roman-69"/>
      <use x="373.486328125" xlink:href="#BitstreamVeraSans-Roman-65"/>
      <use x="435.009765625" xlink:href="#BitstreamVeraSans-Roman-6e"/>
      <use x="498.388671875" xlink:href="#BitstreamVeraSans-Roman-74"/>
      <use x="537.59765625" xlink:href="#BitstreamVeraSans-Roman-20"/>
      <use x="569.384765625" xlink:href="#BitstreamVeraSans-Roman-6f"/>
      <use x="630.56640625" xlink:href="#BitstreamVeraSans-Roman-66"/>
      <use x="665.771484375" xlink:href="#BitstreamVeraSans-Roman-20"/>
      <use x="697.55859375" xlink:href="#BitstreamVeraSans-Roman-56"/>
      <use x="758.216796875" xlink:href="#BitstreamVeraSans-Roman-61"/>
      <use x="819.49609375" xlink:href="#BitstreamVeraSans-Roman-72"/>
      <use x="860.609375" xlink:href="#BitstreamVeraSans-Roman-69"/>
      <use x="888.392578125" xlink:href="#BitstreamVeraSans-Roman-61"/>
      <use x="949.671875" xlink:href="#BitstreamVeraSans-Roman-74"/>
      <use x="988.880859375" xlink:href="#BitstreamVeraSans-Roman-69"/>
      <use x="1016.6640625" xlink:href="#BitstreamVeraSans-Roman-6f"/>
      <use x="1077.84570312" xlink:href="#BitstreamVeraSans-Roman-6e"/>
     </g>
    </g>
   </g>
   <g id="patch_6">
    <path clip-path="url(#pe88aad526e)" d="
M212.22 630
L312.66 630
L312.66 454.532
L212.22 454.532
z
" style="fill:#4c72b0;stroke:#000000;stroke-linejoin:miter;stroke-width:0.3;"/>
   </g>
   <g id="patch_7">
    <path clip-path="url(#pe88aad526e)" d="
M413.1 630
L513.54 630
L513.54 389.859
L413.1 389.859
z
" style="fill:#4c72b0;stroke:#000000;stroke-linejoin:miter;stroke-width:0.3;"/>
   </g>
   <g id="patch_8">
    <path clip-path="url(#pe88aad526e)" d="
M613.98 630
L714.42 630
L714.42 462.822
L613.98 462.822
z
" style="fill:#4c72b0;stroke:#000000;stroke-linejoin:miter;stroke-width:0.3;"/>
   </g>
   <g id="patch_9">
    <path clip-path="url(#pe88aad526e)" d="
M814.86 630
L915.3 630
L915.3 452.582
L814.86 452.582
z
" style="fill:#4c72b0;stroke:#000000;stroke-linejoin:miter;stroke-width:0.3;"/>
   </g>
   <g id="patch_10">
    <path clip-path="url(#pe88aad526e)" d="
M1015.74 630
L1116.18 630
L1116.18 440.821
L1015.74 440.821
z
" style="fill:#4c72b0;stroke:#000000;stroke-linejoin:miter;stroke-width:0.3;"/>
   </g>
   <g id="line2d_75">
    <path clip-path="url(#pe88aad526e)" d="
M162 630
L1166.4 630" style="fill:none;stroke:#000000;stroke-dasharray:6.000000,6.000000;stroke-dashoffset:0.0;stroke-width:1.75;"/>
   </g>
   <g id="patch_11">
    <path d="
M162 630
L1166.4 630" style="fill:none;stroke:#000000;stroke-linecap:square;stroke-linejoin:miter;"/>
   </g>
   <g id="patch_12">
    <path d="
M162 630
L162 376.364" style="fill:none;stroke:#000000;stroke-linecap:square;stroke-linejoin:miter;"/>
   </g>
   <g id="text_31">
    <!-- Coefficient of Variation by Cluster -->
    <g style="fill:#262626;" transform="translate(563.2575 371.363636364)scale(0.12 -0.12)">
     <use xlink:href="#BitstreamVeraSans-Roman-43"/>
     <use x="69.82421875" xlink:href="#BitstreamVeraSans-Roman-6f"/>
     <use x="131.005859375" xlink:href="#BitstreamVeraSans-Roman-65"/>
     <use x="192.529296875" xlink:href="#BitstreamVeraSans-Roman-66"/>
     <use x="227.734375" xlink:href="#BitstreamVeraSans-Roman-66"/>
     <use x="262.939453125" xlink:href="#BitstreamVeraSans-Roman-69"/>
     <use x="290.72265625" xlink:href="#BitstreamVeraSans-Roman-63"/>
     <use x="345.703125" xlink:href="#BitstreamVeraSans-Roman-69"/>
     <use x="373.486328125" xlink:href="#BitstreamVeraSans-Roman-65"/>
     <use x="435.009765625" xlink:href="#BitstreamVeraSans-Roman-6e"/>
     <use x="498.388671875" xlink:href="#BitstreamVeraSans-Roman-74"/>
     <use x="537.59765625" xlink:href="#BitstreamVeraSans-Roman-20"/>
     <use x="569.384765625" xlink:href="#BitstreamVeraSans-Roman-6f"/>
     <use x="630.56640625" xlink:href="#BitstreamVeraSans-Roman-66"/>
     <use x="665.771484375" xlink:href="#BitstreamVeraSans-Roman-20"/>
     <use x="697.55859375" xlink:href="#BitstreamVeraSans-Roman-56"/>
     <use x="758.216796875" xlink:href="#BitstreamVeraSans-Roman-61"/>
     <use x="819.49609375" xlink:href="#BitstreamVeraSans-Roman-72"/>
     <use x="860.609375" xlink:href="#BitstreamVeraSans-Roman-69"/>
     <use x="888.392578125" xlink:href="#BitstreamVeraSans-Roman-61"/>
     <use x="949.671875" xlink:href="#BitstreamVeraSans-Roman-74"/>
     <use x="988.880859375" xlink:href="#BitstreamVeraSans-Roman-69"/>
     <use x="1016.6640625" xlink:href="#BitstreamVeraSans-Roman-6f"/>
     <use x="1077.84570312" xlink:href="#BitstreamVeraSans-Roman-6e"/>
     <use x="1141.22460938" xlink:href="#BitstreamVeraSans-Roman-20"/>
     <use x="1173.01171875" xlink:href="#BitstreamVeraSans-Roman-62"/>
     <use x="1236.48828125" xlink:href="#BitstreamVeraSans-Roman-79"/>
     <use x="1295.66796875" xlink:href="#BitstreamVeraSans-Roman-20"/>
     <use x="1327.45507812" xlink:href="#BitstreamVeraSans-Roman-43"/>
     <use x="1397.27929688" xlink:href="#BitstreamVeraSans-Roman-6c"/>
     <use x="1425.0625" xlink:href="#BitstreamVeraSans-Roman-75"/>
     <use x="1488.44140625" xlink:href="#BitstreamVeraSans-Roman-73"/>
     <use x="1540.54101562" xlink:href="#BitstreamVeraSans-Roman-74"/>
     <use x="1579.75" xlink:href="#BitstreamVeraSans-Roman-65"/>
     <use x="1641.2734375" xlink:href="#BitstreamVeraSans-Roman-72"/>
    </g>
   </g>
  </g>
 </g>
 <defs>
  <clipPath id="pe88aad526e">
   <rect height="253.636363636" width="1004.4" x="162.0" y="376.363636364"/>
  </clipPath>
  <clipPath id="p55a2aadd3b">
   <rect height="253.636363636" width="1004.4" x="162.0" y="72.0"/>
  </clipPath>
 </defs>
</svg>
