<?xml version="1.0" encoding="utf-8" standalone="no"?>
<!DOCTYPE svg PUBLIC "-//W3C//DTD SVG 1.1//EN"
  "http://www.w3.org/Graphics/SVG/1.1/DTD/svg11.dtd">
<!-- Created with matplotlib (http://matplotlib.org/) -->
<svg height="720pt" version="1.1" viewBox="0 0 1296 720" width="1296pt" xmlns="http://www.w3.org/2000/svg" xmlns:xlink="http://www.w3.org/1999/xlink">
 <defs>
  <style type="text/css">
*{stroke-linecap:butt;stroke-linejoin:round;}
  </style>
 </defs>
 <g id="figure_1">
  <g id="patch_1">
   <path d="
M0 720
L1296 720
L1296 0
L0 0
z
" style="fill:#ffffff;"/>
  </g>
  <g id="axes_1">
   <g id="patch_2">
    <path d="
M162 325.636
L1166.4 325.636
L1166.4 72
L162 72
z
" style="fill:#ffffff;"/>
   </g>
   <g id="matplotlib.axis_1">
    <g id="xtick_1">
     <g id="line2d_1">
      <defs>
       <path d="
M0 0
L0 0" id="m219da94a98" style="stroke:#262626;"/>
      </defs>
      <g>
       <use style="fill:#262626;stroke:#262626;" x="262.44" xlink:href="#m219da94a98" y="325.636363636"/>
      </g>
     </g>
     <g id="text_1">
      <!-- 0 -->
      <defs>
       <path d="
M31.7812 66.4062
Q24.1719 66.4062 20.3281 58.9062
Q16.5 51.4219 16.5 36.375
Q16.5 21.3906 20.3281 13.8906
Q24.1719 6.39062 31.7812 6.39062
Q39.4531 6.39062 43.2812 13.8906
Q47.125 21.3906 47.125 36.375
Q47.125 51.4219 43.2812 58.9062
Q39.4531 66.4062 31.7812 66.4062
M31.7812 74.2188
Q44.0469 74.2188 50.5156 64.5156
Q56.9844 54.8281 56.9844 36.375
Q56.9844 17.9688 50.5156 8.26562
Q44.0469 -1.42188 31.7812 -1.42188
Q19.5312 -1.42188 13.0625 8.26562
Q6.59375 17.9688 6.59375 36.375
Q6.59375 54.8281 13.0625 64.5156
Q19.5312 74.2188 31.7812 74.2188" id="BitstreamVeraSans-Roman-30"/>
      </defs>
      <g style="fill:#262626;" transform="translate(259.92046875 340.234801136)scale(0.1 -0.1)">
       <use xlink:href="#BitstreamVeraSans-Roman-30"/>
      </g>
     </g>
    </g>
    <g id="xtick_2">
     <g id="line2d_2">
      <g>
       <use style="fill:#262626;stroke:#262626;" x="463.32" xlink:href="#m219da94a98" y="325.636363636"/>
      </g>
     </g>
     <g id="text_2">
      <!-- 1 -->
      <defs>
       <path d="
M12.4062 8.29688
L28.5156 8.29688
L28.5156 63.9219
L10.9844 60.4062
L10.9844 69.3906
L28.4219 72.9062
L38.2812 72.9062
L38.2812 8.29688
L54.3906 8.29688
L54.3906 0
L12.4062 0
z
" id="BitstreamVeraSans-Roman-31"/>
      </defs>
      <g style="fill:#262626;" transform="translate(461.1496875 340.234801136)scale(0.1 -0.1)">
       <use xlink:href="#BitstreamVeraSans-Roman-31"/>
      </g>
     </g>
    </g>
    <g id="xtick_3">
     <g id="line2d_3">
      <g>
       <use style="fill:#262626;stroke:#262626;" x="664.2" xlink:href="#m219da94a98" y="325.636363636"/>
      </g>
     </g>
     <g id="text_3">
      <!-- 2 -->
      <defs>
       <path d="
M19.1875 8.29688
L53.6094 8.29688
L53.6094 0
L7.32812 0
L7.32812 8.29688
Q12.9375 14.1094 22.625 23.8906
Q32.3281 33.6875 34.8125 36.5312
Q39.5469 41.8438 41.4219 45.5312
Q43.3125 49.2188 43.3125 52.7812
Q43.3125 58.5938 39.2344 62.25
Q35.1562 65.9219 28.6094 65.9219
Q23.9688 65.9219 18.8125 64.3125
Q13.6719 62.7031 7.8125 59.4219
L7.8125 69.3906
Q13.7656 71.7812 18.9375 73
Q24.125 74.2188 28.4219 74.2188
Q39.75 74.2188 46.4844 68.5469
Q53.2188 62.8906 53.2188 53.4219
Q53.2188 48.9219 51.5312 44.8906
Q49.8594 40.875 45.4062 35.4062
Q44.1875 33.9844 37.6406 27.2188
Q31.1094 20.4531 19.1875 8.29688" id="BitstreamVeraSans-Roman-32"/>
      </defs>
      <g style="fill:#262626;" transform="translate(661.8859375 340.234801136)scale(0.1 -0.1)">
       <use xlink:href="#BitstreamVeraSans-Roman-32"/>
      </g>
     </g>
    </g>
    <g id="xtick_4">
     <g id="line2d_4">
      <g>
       <use style="fill:#262626;stroke:#262626;" x="865.08" xlink:href="#m219da94a98" y="325.636363636"/>
      </g>
     </g>
     <g id="text_4">
      <!-- 3 -->
      <defs>
       <path d="
M40.5781 39.3125
Q47.6562 37.7969 51.625 33
Q55.6094 28.2188 55.6094 21.1875
Q55.6094 10.4062 48.1875 4.48438
Q40.7656 -1.42188 27.0938 -1.42188
Q22.5156 -1.42188 17.6562 -0.515625
Q12.7969 0.390625 7.625 2.20312
L7.625 11.7188
Q11.7188 9.32812 16.5938 8.10938
Q21.4844 6.89062 26.8125 6.89062
Q36.0781 6.89062 40.9375 10.5469
Q45.7969 14.2031 45.7969 21.1875
Q45.7969 27.6406 41.2812 31.2656
Q36.7656 34.9062 28.7188 34.9062
L20.2188 34.9062
L20.2188 43.0156
L29.1094 43.0156
Q36.375 43.0156 40.2344 45.9219
Q44.0938 48.8281 44.0938 54.2969
Q44.0938 59.9062 40.1094 62.9062
Q36.1406 65.9219 28.7188 65.9219
Q24.6562 65.9219 20.0156 65.0312
Q15.375 64.1562 9.8125 62.3125
L9.8125 71.0938
Q15.4375 72.6562 20.3438 73.4375
Q25.25 74.2188 29.5938 74.2188
Q40.8281 74.2188 47.3594 69.1094
Q53.9062 64.0156 53.9062 55.3281
Q53.9062 49.2656 50.4375 45.0938
Q46.9688 40.9219 40.5781 39.3125" id="BitstreamVeraSans-Roman-33"/>
      </defs>
      <g style="fill:#262626;" transform="translate(862.68078125 340.234801136)scale(0.1 -0.1)">
       <use xlink:href="#BitstreamVeraSans-Roman-33"/>
      </g>
     </g>
    </g>
    <g id="xtick_5">
     <g id="line2d_5">
      <g>
       <use style="fill:#262626;stroke:#262626;" x="1065.96" xlink:href="#m219da94a98" y="325.636363636"/>
      </g>
     </g>
     <g id="text_5">
      <!-- 4 -->
      <defs>
       <path d="
M37.7969 64.3125
L12.8906 25.3906
L37.7969 25.3906
z

M35.2031 72.9062
L47.6094 72.9062
L47.6094 25.3906
L58.0156 25.3906
L58.0156 17.1875
L47.6094 17.1875
L47.6094 0
L37.7969 0
L37.7969 17.1875
L4.89062 17.1875
L4.89062 26.7031
z
" id="BitstreamVeraSans-Roman-34"/>
      </defs>
      <g style="fill:#262626;" transform="translate(1063.30375 340.234801136)scale(0.1 -0.1)">
       <use xlink:href="#BitstreamVeraSans-Roman-34"/>
      </g>
     </g>
    </g>
   </g>
   <g id="matplotlib.axis_2">
    <g id="ytick_1">
     <g id="line2d_6">
      <path clip-path="url(#p55a2aadd3b)" d="
M162 325.636
L1166.4 325.636" style="fill:none;stroke:#ffffff;stroke-linecap:round;"/>
     </g>
     <g id="line2d_7">
      <g>
       <use style="fill:#262626;stroke:#262626;" x="162.0" xlink:href="#m219da94a98" y="325.636363636"/>
      </g>
     </g>
     <g id="text_6">
      <!-- −0.4 -->
      <defs>
       <path d="
M10.5938 35.5
L73.1875 35.5
L73.1875 27.2031
L10.5938 27.2031
z
" id="BitstreamVeraSans-Roman-2212"/>
       <path d="
M10.6875 12.4062
L21 12.4062
L21 0
L10.6875 0
z
" id="BitstreamVeraSans-Roman-2e"/>
      </defs>
      <g style="fill:#262626;" transform="translate(132.3375 328.395738636)scale(0.1 -0.1)">
       <use xlink:href="#BitstreamVeraSans-Roman-2212"/>
       <use x="83.7890625" xlink:href="#BitstreamVeraSans-Roman-30"/>
       <use x="147.412109375" xlink:href="#BitstreamVeraSans-Roman-2e"/>
       <use x="179.19921875" xlink:href="#BitstreamVeraSans-Roman-34"/>
      </g>
     </g>
    </g>
    <g id="ytick_2">
     <g id="line2d_8">
      <path clip-path="url(#p55a2aadd3b)" d="
M162 289.403
L1166.4 289.403" style="fill:none;stroke:#ffffff;stroke-linecap:round;"/>
     </g>
     <g id="line2d_9">
      <g>
       <use style="fill:#262626;stroke:#262626;" x="162.0" xlink:href="#m219da94a98" y="289.402597403"/>
      </g>
     </g>
     <g id="text_7">
      <!-- −0.2 -->
      <g style="fill:#262626;" transform="translate(132.778125 292.161972403)scale(0.1 -0.1)">
       <use xlink:href="#BitstreamVeraSans-Roman-2212"/>
       <use x="83.7890625" xlink:href="#BitstreamVeraSans-Roman-30"/>
       <use x="147.412109375" xlink:href="#BitstreamVeraSans-Roman-2e"/>
       <use x="179.19921875" xlink:href="#BitstreamVeraSans-Roman-32"/>
      </g>
     </g>
    </g>
    <g id="ytick_3">
     <g id="line2d_10">
      <path clip-path="url(#p55a2aadd3b)" d="
M162 253.169
L1166.4 253.169" style="fill:none;stroke:#ffffff;stroke-linecap:round;"/>
     </g>
     <g id="line2d_11">
      <g>
       <use style="fill:#262626;stroke:#262626;" x="162.0" xlink:href="#m219da94a98" y="253.168831169"/>
      </g>
     </g>
     <g id="text_8">
      <!-- 0.0 -->
      <g style="fill:#262626;" transform="translate(140.4203125 255.928206169)scale(0.1 -0.1)">
       <use xlink:href="#BitstreamVeraSans-Roman-30"/>
       <use x="63.623046875" xlink:href="#BitstreamVeraSans-Roman-2e"/>
       <use x="95.41015625" xlink:href="#BitstreamVeraSans-Roman-30"/>
      </g>
     </g>
    </g>
    <g id="ytick_4">
     <g id="line2d_12">
      <path clip-path="url(#p55a2aadd3b)" d="
M162 216.935
L1166.4 216.935" style="fill:none;stroke:#ffffff;stroke-linecap:round;"/>
     </g>
     <g id="line2d_13">
      <g>
       <use style="fill:#262626;stroke:#262626;" x="162.0" xlink:href="#m219da94a98" y="216.935064935"/>
      </g>
     </g>
     <g id="text_9">
      <!-- 0.2 -->
      <g style="fill:#262626;" transform="translate(140.7578125 219.694439935)scale(0.1 -0.1)">
       <use xlink:href="#BitstreamVeraSans-Roman-30"/>
       <use x="63.623046875" xlink:href="#BitstreamVeraSans-Roman-2e"/>
       <use x="95.41015625" xlink:href="#BitstreamVeraSans-Roman-32"/>
      </g>
     </g>
    </g>
    <g id="ytick_5">
     <g id="line2d_14">
      <path clip-path="url(#p55a2aadd3b)" d="
M162 180.701
L1166.4 180.701" style="fill:none;stroke:#ffffff;stroke-linecap:round;"/>
     </g>
     <g id="line2d_15">
      <g>
       <use style="fill:#262626;stroke:#262626;" x="162.0" xlink:href="#m219da94a98" y="180.701298701"/>
      </g>
     </g>
     <g id="text_10">
      <!-- 0.4 -->
      <g style="fill:#262626;" transform="translate(140.3171875 183.460673701)scale(0.1 -0.1)">
       <use xlink:href="#BitstreamVeraSans-Roman-30"/>
       <use x="63.623046875" xlink:href="#BitstreamVeraSans-Roman-2e"/>
       <use x="95.41015625" xlink:href="#BitstreamVeraSans-Roman-34"/>
      </g>
     </g>
    </g>
    <g id="ytick_6">
     <g id="line2d_16">
      <path clip-path="url(#p55a2aadd3b)" d="
M162 144.468
L1166.4 144.468" style="fill:none;stroke:#ffffff;stroke-linecap:round;"/>
     </g>
     <g id="line2d_17">
      <g>
       <use style="fill:#262626;stroke:#262626;" x="162.0" xlink:href="#m219da94a98" y="144.467532468"/>
      </g>
     </g>
     <g id="text_11">
      <!-- 0.6 -->
      <defs>
       <path d="
M33.0156 40.375
Q26.375 40.375 22.4844 35.8281
Q18.6094 31.2969 18.6094 23.3906
Q18.6094 15.5312 22.4844 10.9531
Q26.375 6.39062 33.0156 6.39062
Q39.6562 6.39062 43.5312 10.9531
Q47.4062 15.5312 47.4062 23.3906
Q47.4062 31.2969 43.5312 35.8281
Q39.6562 40.375 33.0156 40.375
M52.5938 71.2969
L52.5938 62.3125
Q48.875 64.0625 45.0938 64.9844
Q41.3125 65.9219 37.5938 65.9219
Q27.8281 65.9219 22.6719 59.3281
Q17.5312 52.7344 16.7969 39.4062
Q19.6719 43.6562 24.0156 45.9219
Q28.375 48.1875 33.5938 48.1875
Q44.5781 48.1875 50.9531 41.5156
Q57.3281 34.8594 57.3281 23.3906
Q57.3281 12.1562 50.6875 5.35938
Q44.0469 -1.42188 33.0156 -1.42188
Q20.3594 -1.42188 13.6719 8.26562
Q6.98438 17.9688 6.98438 36.375
Q6.98438 53.6562 15.1875 63.9375
Q23.3906 74.2188 37.2031 74.2188
Q40.9219 74.2188 44.7031 73.4844
Q48.4844 72.75 52.5938 71.2969" id="BitstreamVeraSans-Roman-36"/>
      </defs>
      <g style="fill:#262626;" transform="translate(140.3859375 147.226907468)scale(0.1 -0.1)">
       <use xlink:href="#BitstreamVeraSans-Roman-30"/>
       <use x="63.623046875" xlink:href="#BitstreamVeraSans-Roman-2e"/>
       <use x="95.41015625" xlink:href="#BitstreamVeraSans-Roman-36"/>
      </g>
     </g>
    </g>
    <g id="ytick_7">
     <g id="line2d_18">
      <path clip-path="url(#p55a2aadd3b)" d="
M162 108.234
L1166.4 108.234" style="fill:none;stroke:#ffffff;stroke-linecap:round;"/>
     </g>
     <g id="line2d_19">
      <g>
       <use style="fill:#262626;stroke:#262626;" x="162.0" xlink:href="#m219da94a98" y="108.233766234"/>
      </g>
     </g>
     <g id="text_12">
      <!-- 0.8 -->
      <defs>
       <path d="
M31.7812 34.625
Q24.75 34.625 20.7188 30.8594
Q16.7031 27.0938 16.7031 20.5156
Q16.7031 13.9219 20.7188 10.1562
Q24.75 6.39062 31.7812 6.39062
Q38.8125 6.39062 42.8594 10.1719
Q46.9219 13.9688 46.9219 20.5156
Q46.9219 27.0938 42.8906 30.8594
Q38.875 34.625 31.7812 34.625
M21.9219 38.8125
Q15.5781 40.375 12.0312 44.7188
Q8.5 49.0781 8.5 55.3281
Q8.5 64.0625 14.7188 69.1406
Q20.9531 74.2188 31.7812 74.2188
Q42.6719 74.2188 48.875 69.1406
Q55.0781 64.0625 55.0781 55.3281
Q55.0781 49.0781 51.5312 44.7188
Q48 40.375 41.7031 38.8125
Q48.8281 37.1562 52.7969 32.3125
Q56.7812 27.4844 56.7812 20.5156
Q56.7812 9.90625 50.3125 4.23438
Q43.8438 -1.42188 31.7812 -1.42188
Q19.7344 -1.42188 13.25 4.23438
Q6.78125 9.90625 6.78125 20.5156
Q6.78125 27.4844 10.7812 32.3125
Q14.7969 37.1562 21.9219 38.8125
M18.3125 54.3906
Q18.3125 48.7344 21.8438 45.5625
Q25.3906 42.3906 31.7812 42.3906
Q38.1406 42.3906 41.7188 45.5625
Q45.3125 48.7344 45.3125 54.3906
Q45.3125 60.0625 41.7188 63.2344
Q38.1406 66.4062 31.7812 66.4062
Q25.3906 66.4062 21.8438 63.2344
Q18.3125 60.0625 18.3125 54.3906" id="BitstreamVeraSans-Roman-38"/>
      </defs>
      <g style="fill:#262626;" transform="translate(140.440625 110.993141234)scale(0.1 -0.1)">
       <use xlink:href="#BitstreamVeraSans-Roman-30"/>
       <use x="63.623046875" xlink:href="#BitstreamVeraSans-Roman-2e"/>
       <use x="95.41015625" xlink:href="#BitstreamVeraSans-Roman-38"/>
      </g>
     </g>
    </g>
    <g id="ytick_8">
     <g id="line2d_20">
      <path clip-path="url(#p55a2aadd3b)" d="
M162 72
L1166.4 72" style="fill:none;stroke:#ffffff;stroke-linecap:round;"/>
     </g>
     <g id="line2d_21">
      <g>
       <use style="fill:#262626;stroke:#262626;" x="162.0" xlink:href="#m219da94a98" y="72.0"/>
      </g>
     </g>
     <g id="text_13">
      <!-- 1.0 -->
      <g style="fill:#262626;" transform="translate(140.859375 74.759375)scale(0.1 -0.1)">
       <use xlink:href="#BitstreamVeraSans-Roman-31"/>
       <use x="63.623046875" xlink:href="#BitstreamVeraSans-Roman-2e"/>
       <use x="95.41015625" xlink:href="#BitstreamVeraSans-Roman-30"/>
      </g>
     </g>
    </g>
    <g id="text_14">
     <!-- Distance to Centroid -->
     <defs>
      <path id="BitstreamVeraSans-Roman-20"/>
      <path d="
M54.8906 33.0156
L54.8906 0
L45.9062 0
L45.9062 32.7188
Q45.9062 40.4844 42.875 44.3281
Q39.8438 48.1875 33.7969 48.1875
Q26.5156 48.1875 22.3125 43.5469
Q18.1094 38.9219 18.1094 30.9062
L18.1094 0
L9.07812 0
L9.07812 54.6875
L18.1094 54.6875
L18.1094 46.1875
Q21.3438 51.125 25.7031 53.5625
Q30.0781 56 35.7969 56
Q45.2188 56 50.0469 50.1719
Q54.8906 44.3438 54.8906 33.0156" id="BitstreamVeraSans-Roman-6e"/>
      <path d="
M41.1094 46.2969
Q39.5938 47.1719 37.8125 47.5781
Q36.0312 48 33.8906 48
Q26.2656 48 22.1875 43.0469
Q18.1094 38.0938 18.1094 28.8125
L18.1094 0
L9.07812 0
L9.07812 54.6875
L18.1094 54.6875
L18.1094 46.1875
Q20.9531 51.1719 25.4844 53.5781
Q30.0312 56 36.5312 56
Q37.4531 56 38.5781 55.875
Q39.7031 55.7656 41.0625 55.5156
z
" id="BitstreamVeraSans-Roman-72"/>
      <path d="
M30.6094 48.3906
Q23.3906 48.3906 19.1875 42.75
Q14.9844 37.1094 14.9844 27.2969
Q14.9844 17.4844 19.1562 11.8438
Q23.3438 6.20312 30.6094 6.20312
Q37.7969 6.20312 41.9844 11.8594
Q46.1875 17.5312 46.1875 27.2969
Q46.1875 37.0156 41.9844 42.7031
Q37.7969 48.3906 30.6094 48.3906
M30.6094 56
Q42.3281 56 49.0156 48.375
Q55.7188 40.7656 55.7188 27.2969
Q55.7188 13.875 49.0156 6.21875
Q42.3281 -1.42188 30.6094 -1.42188
Q18.8438 -1.42188 12.1719 6.21875
Q5.51562 13.875 5.51562 27.2969
Q5.51562 40.7656 12.1719 48.375
Q18.8438 56 30.6094 56" id="BitstreamVeraSans-Roman-6f"/>
      <path d="
M19.6719 64.7969
L19.6719 8.10938
L31.5938 8.10938
Q46.6875 8.10938 53.6875 14.9375
Q60.6875 21.7812 60.6875 36.5312
Q60.6875 51.1719 53.6875 57.9844
Q46.6875 64.7969 31.5938 64.7969
z

M9.8125 72.9062
L30.0781 72.9062
Q51.2656 72.9062 61.1719 64.0938
Q71.0938 55.2812 71.0938 36.5312
Q71.0938 17.6719 61.125 8.82812
Q51.1719 0 30.0781 0
L9.8125 0
z
" id="BitstreamVeraSans-Roman-44"/>
      <path d="
M9.42188 54.6875
L18.4062 54.6875
L18.4062 0
L9.42188 0
z

M9.42188 75.9844
L18.4062 75.9844
L18.4062 64.5938
L9.42188 64.5938
z
" id="BitstreamVeraSans-Roman-69"/>
      <path d="
M45.4062 46.3906
L45.4062 75.9844
L54.3906 75.9844
L54.3906 0
L45.4062 0
L45.4062 8.20312
Q42.5781 3.32812 38.25 0.953125
Q33.9375 -1.42188 27.875 -1.42188
Q17.9688 -1.42188 11.7344 6.48438
Q5.51562 14.4062 5.51562 27.2969
Q5.51562 40.1875 11.7344 48.0938
Q17.9688 56 27.875 56
Q33.9375 56 38.25 53.625
Q42.5781 51.2656 45.4062 46.3906
M14.7969 27.2969
Q14.7969 17.3906 18.875 11.75
Q22.9531 6.10938 30.0781 6.10938
Q37.2031 6.10938 41.2969 11.75
Q45.4062 17.3906 45.4062 27.2969
Q45.4062 37.2031 41.2969 42.8438
Q37.2031 48.4844 30.0781 48.4844
Q22.9531 48.4844 18.875 42.8438
Q14.7969 37.2031 14.7969 27.2969" id="BitstreamVeraSans-Roman-64"/>
      <path d="
M56.2031 29.5938
L56.2031 25.2031
L14.8906 25.2031
Q15.4844 15.9219 20.4844 11.0625
Q25.4844 6.20312 34.4219 6.20312
Q39.5938 6.20312 44.4531 7.46875
Q49.3125 8.73438 54.1094 11.2812
L54.1094 2.78125
Q49.2656 0.734375 44.1875 -0.34375
Q39.1094 -1.42188 33.8906 -1.42188
Q20.7969 -1.42188 13.1562 6.1875
Q5.51562 13.8125 5.51562 26.8125
Q5.51562 40.2344 12.7656 48.1094
Q20.0156 56 32.3281 56
Q43.3594 56 49.7812 48.8906
Q56.2031 41.7969 56.2031 29.5938
M47.2188 32.2344
Q47.125 39.5938 43.0938 43.9844
Q39.0625 48.3906 32.4219 48.3906
Q24.9062 48.3906 20.3906 44.1406
Q15.875 39.8906 15.1875 32.1719
z
" id="BitstreamVeraSans-Roman-65"/>
      <path d="
M64.4062 67.2812
L64.4062 56.8906
Q59.4219 61.5312 53.7812 63.8125
Q48.1406 66.1094 41.7969 66.1094
Q29.2969 66.1094 22.6562 58.4688
Q16.0156 50.8281 16.0156 36.375
Q16.0156 21.9688 22.6562 14.3281
Q29.2969 6.6875 41.7969 6.6875
Q48.1406 6.6875 53.7812 8.98438
Q59.4219 11.2812 64.4062 15.9219
L64.4062 5.60938
Q59.2344 2.09375 53.4375 0.328125
Q47.6562 -1.42188 41.2188 -1.42188
Q24.6562 -1.42188 15.125 8.70312
Q5.60938 18.8438 5.60938 36.375
Q5.60938 53.9531 15.125 64.0781
Q24.6562 74.2188 41.2188 74.2188
Q47.75 74.2188 53.5312 72.4844
Q59.3281 70.75 64.4062 67.2812" id="BitstreamVeraSans-Roman-43"/>
      <path d="
M18.3125 70.2188
L18.3125 54.6875
L36.8125 54.6875
L36.8125 47.7031
L18.3125 47.7031
L18.3125 18.0156
Q18.3125 11.3281 20.1406 9.42188
Q21.9688 7.51562 27.5938 7.51562
L36.8125 7.51562
L36.8125 0
L27.5938 0
Q17.1875 0 13.2344 3.875
Q9.28125 7.76562 9.28125 18.0156
L9.28125 47.7031
L2.6875 47.7031
L2.6875 54.6875
L9.28125 54.6875
L9.28125 70.2188
z
" id="BitstreamVeraSans-Roman-74"/>
      <path d="
M34.2812 27.4844
Q23.3906 27.4844 19.1875 25
Q14.9844 22.5156 14.9844 16.5
Q14.9844 11.7188 18.1406 8.90625
Q21.2969 6.10938 26.7031 6.10938
Q34.1875 6.10938 38.7031 11.4062
Q43.2188 16.7031 43.2188 25.4844
L43.2188 27.4844
z

M52.2031 31.2031
L52.2031 0
L43.2188 0
L43.2188 8.29688
Q40.1406 3.32812 35.5469 0.953125
Q30.9531 -1.42188 24.3125 -1.42188
Q15.9219 -1.42188 10.9531 3.29688
Q6 8.01562 6 15.9219
Q6 25.1406 12.1719 29.8281
Q18.3594 34.5156 30.6094 34.5156
L43.2188 34.5156
L43.2188 35.4062
Q43.2188 41.6094 39.1406 45
Q35.0625 48.3906 27.6875 48.3906
Q23 48.3906 18.5469 47.2656
Q14.1094 46.1406 10.0156 43.8906
L10.0156 52.2031
Q14.9375 54.1094 19.5781 55.0469
Q24.2188 56 28.6094 56
Q40.4844 56 46.3438 49.8438
Q52.2031 43.7031 52.2031 31.2031" id="BitstreamVeraSans-Roman-61"/>
      <path d="
M44.2812 53.0781
L44.2812 44.5781
Q40.4844 46.5312 36.375 47.5
Q32.2812 48.4844 27.875 48.4844
Q21.1875 48.4844 17.8438 46.4375
Q14.5 44.3906 14.5 40.2812
Q14.5 37.1562 16.8906 35.375
Q19.2812 33.5938 26.5156 31.9844
L29.5938 31.2969
Q39.1562 29.25 43.1875 25.5156
Q47.2188 21.7812 47.2188 15.0938
Q47.2188 7.46875 41.1875 3.01562
Q35.1562 -1.42188 24.6094 -1.42188
Q20.2188 -1.42188 15.4531 -0.5625
Q10.6875 0.296875 5.42188 2
L5.42188 11.2812
Q10.4062 8.6875 15.2344 7.39062
Q20.0625 6.10938 24.8125 6.10938
Q31.1562 6.10938 34.5625 8.28125
Q37.9844 10.4531 37.9844 14.4062
Q37.9844 18.0625 35.5156 20.0156
Q33.0625 21.9688 24.7031 23.7812
L21.5781 24.5156
Q13.2344 26.2656 9.51562 29.9062
Q5.8125 33.5469 5.8125 39.8906
Q5.8125 47.6094 11.2812 51.7969
Q16.75 56 26.8125 56
Q31.7812 56 36.1719 55.2656
Q40.5781 54.5469 44.2812 53.0781" id="BitstreamVeraSans-Roman-73"/>
      <path d="
M48.7812 52.5938
L48.7812 44.1875
Q44.9688 46.2969 41.1406 47.3438
Q37.3125 48.3906 33.4062 48.3906
Q24.6562 48.3906 19.8125 42.8438
Q14.9844 37.3125 14.9844 27.2969
Q14.9844 17.2812 19.8125 11.7344
Q24.6562 6.20312 33.4062 6.20312
Q37.3125 6.20312 41.1406 7.25
Q44.9688 8.29688 48.7812 10.4062
L48.7812 2.09375
Q45.0156 0.34375 40.9844 -0.53125
Q36.9688 -1.42188 32.4219 -1.42188
Q20.0625 -1.42188 12.7812 6.34375
Q5.51562 14.1094 5.51562 27.2969
Q5.51562 40.6719 12.8594 48.3281
Q20.2188 56 33.0156 56
Q37.1562 56 41.1094 55.1406
Q45.0625 54.2969 48.7812 52.5938" id="BitstreamVeraSans-Roman-63"/>
     </defs>
     <g style="fill:#262626;" transform="translate(125.04984375 254.772947443)rotate(-90.0)scale(0.11 -0.11)">
      <use xlink:href="#BitstreamVeraSans-Roman-44"/>
      <use x="77.001953125" xlink:href="#BitstreamVeraSans-Roman-69"/>
      <use x="104.78515625" xlink:href="#BitstreamVeraSans-Roman-73"/>
      <use x="156.884765625" xlink:href="#BitstreamVeraSans-Roman-74"/>
      <use x="196.09375" xlink:href="#BitstreamVeraSans-Roman-61"/>
      <use x="257.373046875" xlink:href="#BitstreamVeraSans-Roman-6e"/>
      <use x="320.751953125" xlink:href="#BitstreamVeraSans-Roman-63"/>
      <use x="375.732421875" xlink:href="#BitstreamVeraSans-Roman-65"/>
      <use x="437.255859375" xlink:href="#BitstreamVeraSans-Roman-20"/>
      <use x="469.04296875" xlink:href="#BitstreamVeraSans-Roman-74"/>
      <use x="508.251953125" xlink:href="#BitstreamVeraSans-Roman-6f"/>
      <use x="569.43359375" xlink:href="#BitstreamVeraSans-Roman-20"/>
      <use x="601.220703125" xlink:href="#BitstreamVeraSans-Roman-43"/>
      <use x="671.044921875" xlink:href="#BitstreamVeraSans-Roman-65"/>
      <use x="732.568359375" xlink:href="#BitstreamVeraSans-Roman-6e"/>
      <use x="795.947265625" xlink:href="#BitstreamVeraSans-Roman-74"/>
      <use x="835.15625" xlink:href="#BitstreamVeraSans-Roman-72"/>
      <use x="874.01953125" xlink:href="#BitstreamVeraSans-Roman-6f"/>
      <use x="935.201171875" xlink:href="#BitstreamVeraSans-Roman-69"/>
      <use x="962.984375" xlink:href="#BitstreamVeraSans-Roman-64"/>
     </g>
    </g>
   </g>
   <g id="PolyCollection_1">
    <defs>
     <path d="
M262.45 -457.681
L262.43 -457.681
L262.405 -459.074
L262.332 -460.467
L262.141 -461.86
L261.692 -463.253
L260.743 -464.646
L258.923 -466.039
L255.747 -467.431
L250.713 -468.824
L243.478 -470.217
L234.087 -471.61
L223.128 -473.003
L211.702 -474.396
L201.151 -475.789
L192.647 -477.182
L186.81 -478.575
L183.558 -479.968
L182.253 -481.361
L182.088 -482.754
L182.508 -484.146
L183.396 -485.539
L184.912 -486.932
L187.153 -488.325
L189.914 -489.718
L192.76 -491.111
L195.285 -492.504
L197.315 -493.897
L198.923 -495.29
L200.369 -496.683
L202.065 -498.076
L204.562 -499.469
L208.392 -500.861
L213.797 -502.254
L220.512 -503.647
L227.816 -505.04
L234.821 -506.433
L240.815 -507.826
L245.469 -509.219
L248.83 -510.612
L251.18 -512.005
L252.856 -513.398
L254.135 -514.791
L255.197 -516.184
L256.131 -517.576
L256.963 -518.969
L257.677 -520.362
L258.237 -521.755
L258.612 -523.148
L258.802 -524.541
L258.85 -525.934
L258.831 -527.327
L258.828 -528.72
L258.911 -530.113
L259.114 -531.506
L259.444 -532.899
L259.881 -534.291
L260.393 -535.684
L260.93 -537.077
L261.43 -538.47
L261.836 -539.863
L262.121 -541.256
L262.293 -542.649
L262.381 -544.042
L262.419 -545.435
L262.432 -546.828
L262.431 -548.221
L262.418 -549.614
L262.382 -551.006
L262.31 -552.399
L262.188 -553.792
L262.022 -555.185
L261.846 -556.578
L261.714 -557.971
L261.678 -559.364
L261.754 -560.757
L261.91 -562.15
L262.088 -563.543
L262.237 -564.936
L262.335 -566.329
L262.378 -567.721
L262.376 -569.114
L262.335 -570.507
L262.262 -571.9
L262.172 -573.293
L262.09 -574.686
L262.041 -576.079
L262.033 -577.472
L262.052 -578.865
L262.068 -580.258
L262.063 -581.651
L262.042 -583.044
L262.032 -584.436
L262.059 -585.829
L262.127 -587.222
L262.217 -588.615
L262.303 -590.008
L262.368 -591.401
L262.407 -592.794
L262.427 -594.187
L262.436 -595.58
L262.444 -595.58
L262.444 -595.58
L262.453 -594.187
L262.473 -592.794
L262.512 -591.401
L262.577 -590.008
L262.663 -588.615
L262.753 -587.222
L262.821 -585.829
L262.848 -584.436
L262.838 -583.044
L262.817 -581.651
L262.812 -580.258
L262.828 -578.865
L262.847 -577.472
L262.839 -576.079
L262.79 -574.686
L262.708 -573.293
L262.618 -571.9
L262.545 -570.507
L262.504 -569.114
L262.502 -567.721
L262.545 -566.329
L262.643 -564.936
L262.792 -563.543
L262.97 -562.15
L263.126 -560.757
L263.202 -559.364
L263.166 -557.971
L263.034 -556.578
L262.858 -555.185
L262.692 -553.792
L262.57 -552.399
L262.498 -551.006
L262.462 -549.614
L262.449 -548.221
L262.448 -546.828
L262.461 -545.435
L262.499 -544.042
L262.587 -542.649
L262.759 -541.256
L263.044 -539.863
L263.45 -538.47
L263.95 -537.077
L264.487 -535.684
L264.999 -534.291
L265.436 -532.899
L265.766 -531.506
L265.969 -530.113
L266.052 -528.72
L266.049 -527.327
L266.03 -525.934
L266.078 -524.541
L266.268 -523.148
L266.643 -521.755
L267.203 -520.362
L267.917 -518.969
L268.749 -517.576
L269.683 -516.184
L270.745 -514.791
L272.024 -513.398
L273.7 -512.005
L276.05 -510.612
L279.411 -509.219
L284.065 -507.826
L290.059 -506.433
L297.064 -505.04
L304.368 -503.647
L311.083 -502.254
L316.488 -500.861
L320.318 -499.469
L322.815 -498.076
L324.511 -496.683
L325.957 -495.29
L327.565 -493.897
L329.595 -492.504
L332.12 -491.111
L334.966 -489.718
L337.727 -488.325
L339.968 -486.932
L341.484 -485.539
L342.372 -484.146
L342.792 -482.754
L342.627 -481.361
L341.322 -479.968
L338.07 -478.575
L332.233 -477.182
L323.729 -475.789
L313.178 -474.396
L301.752 -473.003
L290.793 -471.61
L281.402 -470.217
L274.167 -468.824
L269.133 -467.431
L265.957 -466.039
L264.137 -464.646
L263.188 -463.253
L262.739 -461.86
L262.548 -460.467
L262.475 -459.074
L262.45 -457.681
z
" id="m4e15c4c07c" style="stroke:#5b76a1;stroke-width:0.3;"/>
    </defs>
    <g clip-path="url(#p55a2aadd3b)">
     <use style="fill:#5b76a1;stroke:#5b76a1;stroke-width:0.3;" x="0.0" xlink:href="#m4e15c4c07c" y="720.0"/>
    </g>
   </g>
   <g id="PolyCollection_2">
    <defs>
     <path d="
M463.332 -456.361
L463.308 -456.361
L463.287 -457.648
L463.236 -458.935
L463.124 -460.222
L462.891 -461.509
L462.438 -462.795
L461.621 -464.082
L460.25 -465.369
L458.109 -466.656
L454.998 -467.943
L450.795 -469.229
L445.514 -470.516
L439.343 -471.803
L432.627 -473.09
L425.802 -474.377
L419.281 -475.663
L413.352 -476.95
L408.113 -478.237
L403.493 -479.524
L399.325 -480.811
L395.466 -482.097
L391.876 -483.384
L388.653 -484.671
L385.991 -485.958
L384.093 -487.245
L383.087 -488.531
L382.968 -489.818
L383.6 -491.105
L384.77 -492.392
L386.264 -493.679
L387.934 -494.965
L389.72 -496.252
L391.617 -497.539
L393.622 -498.826
L395.68 -500.113
L397.693 -501.399
L399.569 -502.686
L401.291 -503.973
L402.955 -505.26
L404.761 -506.547
L406.945 -507.833
L409.693 -509.12
L413.081 -510.407
L417.053 -511.694
L421.437 -512.981
L425.991 -514.267
L430.463 -515.554
L434.639 -516.841
L438.382 -518.128
L441.638 -519.415
L444.423 -520.701
L446.783 -521.988
L448.759 -523.275
L450.367 -524.562
L451.6 -525.849
L452.443 -527.135
L452.904 -528.422
L453.032 -529.709
L452.921 -530.996
L452.7 -532.283
L452.507 -533.569
L452.467 -534.856
L452.669 -536.143
L453.155 -537.43
L453.924 -538.717
L454.935 -540.003
L456.113 -541.29
L457.363 -542.577
L458.585 -543.864
L459.686 -545.151
L460.603 -546.437
L461.303 -547.724
L461.79 -549.011
L462.091 -550.298
L462.248 -551.585
L462.306 -552.871
L462.304 -554.158
L462.27 -555.445
L462.217 -556.732
L462.144 -558.019
L462.04 -559.305
L461.891 -560.592
L461.692 -561.879
L461.453 -563.166
L461.201 -564.453
L460.981 -565.739
L460.845 -567.026
L460.834 -568.313
L460.968 -569.6
L461.236 -570.887
L461.596 -572.173
L461.994 -573.46
L462.373 -574.747
L462.693 -576.034
L462.935 -577.321
L463.102 -578.607
L463.206 -579.894
L463.265 -581.181
L463.295 -582.468
L463.31 -583.755
L463.33 -583.755
L463.33 -583.755
L463.345 -582.468
L463.375 -581.181
L463.434 -579.894
L463.538 -578.607
L463.705 -577.321
L463.947 -576.034
L464.267 -574.747
L464.646 -573.46
L465.044 -572.173
L465.404 -570.887
L465.672 -569.6
L465.806 -568.313
L465.795 -567.026
L465.659 -565.739
L465.439 -564.453
L465.187 -563.166
L464.948 -561.879
L464.749 -560.592
L464.6 -559.305
L464.496 -558.019
L464.423 -556.732
L464.37 -555.445
L464.336 -554.158
L464.334 -552.871
L464.392 -551.585
L464.549 -550.298
L464.85 -549.011
L465.337 -547.724
L466.037 -546.437
L466.954 -545.151
L468.055 -543.864
L469.277 -542.577
L470.527 -541.29
L471.705 -540.003
L472.716 -538.717
L473.485 -537.43
L473.971 -536.143
L474.173 -534.856
L474.133 -533.569
L473.94 -532.283
L473.719 -530.996
L473.608 -529.709
L473.736 -528.422
L474.197 -527.135
L475.04 -525.849
L476.273 -524.562
L477.881 -523.275
L479.857 -521.988
L482.217 -520.701
L485.002 -519.415
L488.258 -518.128
L492.001 -516.841
L496.177 -515.554
L500.649 -514.267
L505.203 -512.981
L509.587 -511.694
L513.559 -510.407
L516.947 -509.12
L519.695 -507.833
L521.879 -506.547
L523.685 -505.26
L525.349 -503.973
L527.071 -502.686
L528.947 -501.399
L530.96 -500.113
L533.018 -498.826
L535.023 -497.539
L536.92 -496.252
L538.706 -494.965
L540.376 -493.679
L541.87 -492.392
L543.04 -491.105
L543.672 -489.818
L543.553 -488.531
L542.547 -487.245
L540.649 -485.958
L537.987 -484.671
L534.764 -483.384
L531.174 -482.097
L527.315 -480.811
L523.147 -479.524
L518.527 -478.237
L513.288 -476.95
L507.359 -475.663
L500.838 -474.377
L494.013 -473.09
L487.297 -471.803
L481.126 -470.516
L475.845 -469.229
L471.642 -467.943
L468.531 -466.656
L466.39 -465.369
L465.019 -464.082
L464.202 -462.795
L463.749 -461.509
L463.516 -460.222
L463.404 -458.935
L463.353 -457.648
L463.332 -456.361
z
" id="m361a16a5b4" style="stroke:#619c6f;stroke-width:0.3;"/>
    </defs>
    <g clip-path="url(#p55a2aadd3b)">
     <use style="fill:#619c6f;stroke:#619c6f;stroke-width:0.3;" x="0.0" xlink:href="#m361a16a5b4" y="720.0"/>
    </g>
   </g>
   <g id="PolyCollection_3">
    <defs>
     <path d="
M664.258 -435.937
L664.142 -435.937
L664.106 -437.731
L664.051 -439.525
L663.967 -441.319
L663.843 -443.114
L663.661 -444.908
L663.401 -446.702
L663.036 -448.496
L662.533 -450.29
L661.852 -452.084
L660.948 -453.878
L659.77 -455.672
L658.265 -457.466
L656.377 -459.26
L654.056 -461.054
L651.258 -462.848
L647.953 -464.642
L644.129 -466.436
L639.796 -468.231
L634.991 -470.025
L629.784 -471.819
L624.271 -473.613
L618.58 -475.407
L612.86 -477.201
L607.281 -478.995
L602.019 -480.789
L597.249 -482.583
L593.135 -484.377
L589.814 -486.171
L587.392 -487.965
L585.93 -489.759
L585.441 -491.553
L585.887 -493.348
L587.176 -495.142
L589.172 -496.936
L591.699 -498.73
L594.556 -500.524
L597.529 -502.318
L600.406 -504.112
L602.996 -505.906
L605.138 -507.7
L606.716 -509.494
L607.662 -511.288
L607.956 -513.082
L607.628 -514.876
L606.741 -516.67
L605.389 -518.465
L603.677 -520.259
L601.711 -522.053
L599.593 -523.847
L597.406 -525.641
L595.221 -527.435
L593.093 -529.229
L591.067 -531.023
L589.186 -532.817
L587.495 -534.611
L586.049 -536.405
L584.91 -538.199
L584.151 -539.993
L583.848 -541.787
L584.075 -543.582
L584.895 -545.376
L586.349 -547.17
L588.452 -548.964
L591.189 -550.758
L594.512 -552.552
L598.343 -554.346
L602.581 -556.14
L607.107 -557.934
L611.799 -559.728
L616.536 -561.522
L621.207 -563.316
L625.719 -565.11
L630.001 -566.904
L634.004 -568.699
L637.698 -570.493
L641.072 -572.287
L644.131 -574.081
L646.887 -575.875
L649.357 -577.669
L651.564 -579.463
L653.526 -581.257
L655.263 -583.051
L656.792 -584.845
L658.126 -586.639
L659.281 -588.433
L660.268 -590.227
L661.102 -592.022
L661.795 -593.816
L662.363 -595.61
L662.82 -597.404
L663.181 -599.198
L663.461 -600.992
L663.673 -602.786
L663.832 -604.58
L663.947 -606.374
L664.03 -608.168
L664.088 -609.962
L664.128 -611.756
L664.154 -613.55
L664.246 -613.55
L664.246 -613.55
L664.272 -611.756
L664.312 -609.962
L664.37 -608.168
L664.453 -606.374
L664.568 -604.58
L664.727 -602.786
L664.939 -600.992
L665.219 -599.198
L665.58 -597.404
L666.037 -595.61
L666.605 -593.816
L667.298 -592.022
L668.132 -590.227
L669.119 -588.433
L670.274 -586.639
L671.608 -584.845
L673.137 -583.051
L674.874 -581.257
L676.836 -579.463
L679.043 -577.669
L681.513 -575.875
L684.269 -574.081
L687.328 -572.287
L690.702 -570.493
L694.396 -568.699
L698.399 -566.904
L702.681 -565.11
L707.193 -563.316
L711.864 -561.522
L716.601 -559.728
L721.293 -557.934
L725.819 -556.14
L730.057 -554.346
L733.888 -552.552
L737.211 -550.758
L739.948 -548.964
L742.051 -547.17
L743.505 -545.376
L744.325 -543.582
L744.552 -541.787
L744.249 -539.993
L743.49 -538.199
L742.351 -536.405
L740.905 -534.611
L739.214 -532.817
L737.333 -531.023
L735.307 -529.229
L733.179 -527.435
L730.994 -525.641
L728.807 -523.847
L726.689 -522.053
L724.723 -520.259
L723.011 -518.465
L721.659 -516.67
L720.772 -514.876
L720.444 -513.082
L720.738 -511.288
L721.684 -509.494
L723.262 -507.7
L725.404 -505.906
L727.994 -504.112
L730.871 -502.318
L733.844 -500.524
L736.701 -498.73
L739.228 -496.936
L741.224 -495.142
L742.513 -493.348
L742.959 -491.553
L742.47 -489.759
L741.008 -487.965
L738.586 -486.171
L735.265 -484.377
L731.151 -482.583
L726.381 -480.789
L721.119 -478.995
L715.54 -477.201
L709.82 -475.407
L704.129 -473.613
L698.616 -471.819
L693.409 -470.025
L688.604 -468.231
L684.271 -466.436
L680.447 -464.642
L677.142 -462.848
L674.344 -461.054
L672.023 -459.26
L670.135 -457.466
L668.63 -455.672
L667.452 -453.878
L666.548 -452.084
L665.867 -450.29
L665.364 -448.496
L664.999 -446.702
L664.739 -444.908
L664.557 -443.114
L664.433 -441.319
L664.349 -439.525
L664.294 -437.731
L664.258 -435.937
z
" id="m03ea9d6c9d" style="stroke:#b26063;stroke-width:0.3;"/>
    </defs>
    <g clip-path="url(#p55a2aadd3b)">
     <use style="fill:#b26063;stroke:#b26063;stroke-width:0.3;" x="0.0" xlink:href="#m03ea9d6c9d" y="720.0"/>
    </g>
   </g>
   <g id="PolyCollection_4">
    <defs>
     <path d="
M865.11 -451.585
L865.05 -451.585
L865.012 -452.989
L864.931 -454.393
L864.771 -455.797
L864.471 -457.201
L863.939 -458.605
L863.046 -460.009
L861.624 -461.413
L859.483 -462.817
L856.433 -464.221
L852.321 -465.624
L847.078 -467.028
L840.76 -468.432
L833.568 -469.836
L825.838 -471.24
L818.002 -472.644
L810.512 -474.048
L803.77 -475.452
L798.053 -476.856
L793.484 -478.26
L790.038 -479.664
L787.587 -481.068
L785.965 -482.472
L785.032 -483.876
L784.728 -485.28
L785.084 -486.684
L786.204 -488.088
L788.221 -489.492
L791.228 -490.896
L795.228 -492.3
L800.093 -493.704
L805.57 -495.108
L811.315 -496.512
L816.961 -497.916
L822.19 -499.32
L826.797 -500.724
L830.715 -502.128
L834.012 -503.532
L836.847 -504.936
L839.409 -506.34
L841.854 -507.744
L844.268 -509.148
L846.649 -510.552
L848.929 -511.956
L851.01 -513.36
L852.802 -514.763
L854.261 -516.167
L855.398 -517.571
L856.272 -518.975
L856.97 -520.379
L857.577 -521.783
L858.152 -523.187
L858.719 -524.591
L859.27 -525.995
L859.771 -527.399
L860.18 -528.803
L860.464 -530.207
L860.608 -531.611
L860.623 -533.015
L860.537 -534.419
L860.395 -535.823
L860.241 -537.227
L860.109 -538.631
L860.016 -540.035
L859.958 -541.439
L859.916 -542.843
L859.869 -544.247
L859.804 -545.651
L859.724 -547.055
L859.651 -548.459
L859.621 -549.863
L859.669 -551.267
L859.821 -552.671
L860.08 -554.075
L860.426 -555.479
L860.819 -556.883
L861.205 -558.287
L861.536 -559.691
L861.774 -561.095
L861.906 -562.499
L861.943 -563.902
L861.921 -565.306
L861.887 -566.71
L861.895 -568.114
L861.984 -569.518
L862.177 -570.922
L862.469 -572.326
L862.838 -573.73
L863.246 -575.134
L863.652 -576.538
L864.024 -577.942
L864.338 -579.346
L864.584 -580.75
L864.766 -582.154
L864.891 -583.558
L864.972 -584.962
L865.021 -586.366
L865.05 -587.77
L865.065 -589.174
L865.073 -590.578
L865.087 -590.578
L865.087 -590.578
L865.095 -589.174
L865.11 -587.77
L865.139 -586.366
L865.188 -584.962
L865.269 -583.558
L865.394 -582.154
L865.576 -580.75
L865.822 -579.346
L866.136 -577.942
L866.508 -576.538
L866.914 -575.134
L867.322 -573.73
L867.691 -572.326
L867.983 -570.922
L868.176 -569.518
L868.265 -568.114
L868.273 -566.71
L868.239 -565.306
L868.217 -563.902
L868.254 -562.499
L868.386 -561.095
L868.624 -559.691
L868.955 -558.287
L869.341 -556.883
L869.734 -555.479
L870.08 -554.075
L870.339 -552.671
L870.491 -551.267
L870.539 -549.863
L870.509 -548.459
L870.436 -547.055
L870.356 -545.651
L870.291 -544.247
L870.244 -542.843
L870.202 -541.439
L870.144 -540.035
L870.051 -538.631
L869.919 -537.227
L869.765 -535.823
L869.623 -534.419
L869.537 -533.015
L869.552 -531.611
L869.696 -530.207
L869.98 -528.803
L870.389 -527.399
L870.89 -525.995
L871.441 -524.591
L872.008 -523.187
L872.583 -521.783
L873.19 -520.379
L873.888 -518.975
L874.762 -517.571
L875.899 -516.167
L877.358 -514.763
L879.15 -513.36
L881.231 -511.956
L883.511 -510.552
L885.892 -509.148
L888.306 -507.744
L890.751 -506.34
L893.313 -504.936
L896.148 -503.532
L899.445 -502.128
L903.363 -500.724
L907.97 -499.32
L913.199 -497.916
L918.845 -496.512
L924.59 -495.108
L930.067 -493.704
L934.932 -492.3
L938.932 -490.896
L941.939 -489.492
L943.956 -488.088
L945.076 -486.684
L945.432 -485.28
L945.128 -483.876
L944.195 -482.472
L942.573 -481.068
L940.122 -479.664
L936.676 -478.26
L932.107 -476.856
L926.39 -475.452
L919.648 -474.048
L912.158 -472.644
L904.322 -471.24
L896.592 -469.836
L889.4 -468.432
L883.082 -467.028
L877.839 -465.624
L873.727 -464.221
L870.677 -462.817
L868.536 -461.413
L867.114 -460.009
L866.221 -458.605
L865.689 -457.201
L865.389 -455.797
L865.229 -454.393
L865.148 -452.989
L865.11 -451.585
z
" id="m1ce1ffc469" style="stroke:#867ca8;stroke-width:0.3;"/>
    </defs>
    <g clip-path="url(#p55a2aadd3b)">
     <use style="fill:#867ca8;stroke:#867ca8;stroke-width:0.3;" x="0.0" xlink:href="#m1ce1ffc469" y="720.0"/>
    </g>
   </g>
   <g id="PolyCollection_5">
    <defs>
     <path d="
M1066.06 -417.907
L1065.86 -417.907
L1065.81 -419.981
L1065.75 -422.055
L1065.65 -424.129
L1065.52 -426.202
L1065.34 -428.276
L1065.11 -430.35
L1064.79 -432.424
L1064.39 -434.498
L1063.87 -436.571
L1063.21 -438.645
L1062.39 -440.719
L1061.38 -442.793
L1060.17 -444.866
L1058.71 -446.94
L1057 -449.014
L1055.01 -451.088
L1052.73 -453.162
L1050.16 -455.235
L1047.29 -457.309
L1044.15 -459.383
L1040.77 -461.457
L1037.17 -463.531
L1033.42 -465.604
L1029.58 -467.678
L1025.73 -469.752
L1021.94 -471.826
L1018.3 -473.899
L1014.9 -475.973
L1011.82 -478.047
L1009.12 -480.121
L1006.85 -482.195
L1005.04 -484.268
L1003.69 -486.342
L1002.78 -488.416
L1002.27 -490.49
L1002.08 -492.564
L1002.13 -494.637
L1002.32 -496.711
L1002.54 -498.785
L1002.7 -500.859
L1002.69 -502.932
L1002.44 -505.006
L1001.91 -507.08
L1001.06 -509.154
L999.907 -511.228
L998.473 -513.301
L996.819 -515.375
L995.023 -517.449
L993.174 -519.523
L991.369 -521.597
L989.703 -523.67
L988.256 -525.744
L987.095 -527.818
L986.26 -529.892
L985.768 -531.965
L985.608 -534.039
L985.748 -536.113
L986.134 -538.187
L986.704 -540.261
L987.39 -542.334
L988.13 -544.408
L988.873 -546.482
L989.588 -548.556
L990.268 -550.63
L990.927 -552.703
L991.607 -554.777
L992.366 -556.851
L993.277 -558.925
L994.419 -560.998
L995.869 -563.072
L997.692 -565.146
L999.939 -567.22
L1002.63 -569.294
L1005.77 -571.367
L1009.34 -573.441
L1013.26 -575.515
L1017.48 -577.589
L1021.9 -579.663
L1026.42 -581.736
L1030.93 -583.81
L1035.34 -585.884
L1039.56 -587.958
L1043.51 -590.031
L1047.14 -592.105
L1050.41 -594.179
L1053.29 -596.253
L1055.79 -598.327
L1057.92 -600.4
L1059.69 -602.474
L1061.15 -604.548
L1062.32 -606.622
L1063.25 -608.695
L1063.97 -610.769
L1064.52 -612.843
L1064.94 -614.917
L1065.24 -616.991
L1065.46 -619.064
L1065.62 -621.138
L1065.73 -623.212
L1066.19 -623.212
L1066.19 -623.212
L1066.3 -621.138
L1066.46 -619.064
L1066.68 -616.991
L1066.98 -614.917
L1067.4 -612.843
L1067.95 -610.769
L1068.67 -608.695
L1069.6 -606.622
L1070.77 -604.548
L1072.23 -602.474
L1074 -600.4
L1076.13 -598.327
L1078.63 -596.253
L1081.51 -594.179
L1084.78 -592.105
L1088.41 -590.031
L1092.36 -587.958
L1096.58 -585.884
L1100.99 -583.81
L1105.5 -581.736
L1110.02 -579.663
L1114.44 -577.589
L1118.66 -575.515
L1122.58 -573.441
L1126.15 -571.367
L1129.29 -569.294
L1131.98 -567.22
L1134.23 -565.146
L1136.05 -563.072
L1137.5 -560.998
L1138.64 -558.925
L1139.55 -556.851
L1140.31 -554.777
L1140.99 -552.703
L1141.65 -550.63
L1142.33 -548.556
L1143.05 -546.482
L1143.79 -544.408
L1144.53 -542.334
L1145.22 -540.261
L1145.79 -538.187
L1146.17 -536.113
L1146.31 -534.039
L1146.15 -531.965
L1145.66 -529.892
L1144.83 -527.818
L1143.66 -525.744
L1142.22 -523.67
L1140.55 -521.597
L1138.75 -519.523
L1136.9 -517.449
L1135.1 -515.375
L1133.45 -513.301
L1132.01 -511.228
L1130.86 -509.154
L1130.01 -507.08
L1129.48 -505.006
L1129.23 -502.932
L1129.22 -500.859
L1129.38 -498.785
L1129.6 -496.711
L1129.79 -494.637
L1129.84 -492.564
L1129.65 -490.49
L1129.14 -488.416
L1128.23 -486.342
L1126.88 -484.268
L1125.07 -482.195
L1122.8 -480.121
L1120.1 -478.047
L1117.02 -475.973
L1113.62 -473.899
L1109.98 -471.826
L1106.19 -469.752
L1102.34 -467.678
L1098.5 -465.604
L1094.75 -463.531
L1091.15 -461.457
L1087.77 -459.383
L1084.63 -457.309
L1081.76 -455.235
L1079.19 -453.162
L1076.91 -451.088
L1074.92 -449.014
L1073.21 -446.94
L1071.75 -444.866
L1070.54 -442.793
L1069.53 -440.719
L1068.71 -438.645
L1068.05 -436.571
L1067.53 -434.498
L1067.13 -432.424
L1066.81 -430.35
L1066.58 -428.276
L1066.4 -426.202
L1066.27 -424.129
L1066.17 -422.055
L1066.11 -419.981
L1066.06 -417.907
z
" id="m88ec765b02" style="stroke:#bfb281;stroke-width:0.3;"/>
    </defs>
    <g clip-path="url(#p55a2aadd3b)">
     <use style="fill:#bfb281;stroke:#bfb281;stroke-width:0.3;" x="0.0" xlink:href="#m88ec765b02" y="720.0"/>
    </g>
   </g>
   <g id="line2d_22">
    <path clip-path="url(#p55a2aadd3b)" d="
M182.685 239.304
L342.195 239.304" style="fill:none;stroke:#4c4c4c;stroke-dasharray:1.000000,3.000000;stroke-dashoffset:0.0;stroke-width:1.5;"/>
   </g>
   <g id="line2d_23">
    <path clip-path="url(#p55a2aadd3b)" d="
M202.026 221.952
L322.854 221.952" style="fill:none;stroke:#4c4c4c;stroke-dasharray:1.000000,3.000000;stroke-dashoffset:0.0;stroke-width:1.5;"/>
   </g>
   <g id="line2d_24">
    <path clip-path="url(#p55a2aadd3b)" d="
M187.322 231.583
L337.558 231.583" style="fill:none;stroke:#4c4c4c;stroke-dasharray:6.000000,6.000000;stroke-dashoffset:0.0;stroke-width:1.5;"/>
   </g>
   <g id="line2d_25">
    <path clip-path="url(#p55a2aadd3b)" d="
M262.43 262.319
L262.405 260.926
L262.332 259.533
L262.141 258.14
L261.692 256.747
L260.743 255.354
L258.923 253.961
L255.747 252.569
L250.713 251.176
L243.478 249.783
L234.087 248.39
L223.128 246.997
L211.702 245.604
L201.151 244.211
L192.647 242.818
L186.81 241.425
L183.558 240.032
L182.253 238.639
L182.088 237.246
L182.508 235.854
L183.396 234.461
L184.912 233.068
L187.153 231.675
L189.914 230.282
L192.76 228.889
L195.285 227.496
L197.315 226.103
L198.923 224.71
L200.369 223.317
L202.065 221.924
L204.562 220.531
L208.392 219.139
L213.797 217.746
L220.512 216.353
L227.816 214.96
L234.821 213.567
L240.815 212.174
L245.469 210.781
L248.83 209.388
L251.18 207.995
L252.856 206.602
L254.135 205.209
L255.197 203.816
L256.131 202.424
L256.963 201.031
L257.677 199.638
L258.237 198.245
L258.612 196.852
L258.802 195.459
L258.85 194.066
L258.831 192.673
L258.828 191.28
L258.911 189.887
L259.114 188.494
L259.444 187.101
L259.881 185.709
L260.393 184.316
L260.93 182.923
L261.43 181.53
L261.836 180.137
L262.121 178.744
L262.293 177.351
L262.381 175.958
L262.419 174.565
L262.432 173.172
L262.431 171.779
L262.418 170.386
L262.382 168.994
L262.31 167.601
L262.188 166.208
L262.022 164.815
L261.846 163.422
L261.714 162.029
L261.678 160.636
L261.754 159.243
L261.91 157.85
L262.088 156.457
L262.237 155.064
L262.335 153.671
L262.378 152.279
L262.376 150.886
L262.335 149.493
L262.262 148.1
L262.172 146.707
L262.09 145.314
L262.041 143.921
L262.033 142.528
L262.052 141.135
L262.068 139.742
L262.063 138.349
L262.042 136.956
L262.032 135.564
L262.059 134.171
L262.127 132.778
L262.217 131.385
L262.303 129.992
L262.368 128.599
L262.407 127.206
L262.427 125.813
L262.436 124.42" style="fill:none;stroke:#4c4c4c;stroke-linecap:round;stroke-width:1.5;"/>
   </g>
   <g id="line2d_26">
    <path clip-path="url(#p55a2aadd3b)" d="
M262.45 262.319
L262.475 260.926
L262.548 259.533
L262.739 258.14
L263.188 256.747
L264.137 255.354
L265.957 253.961
L269.133 252.569
L274.167 251.176
L281.402 249.783
L290.793 248.39
L301.752 246.997
L313.178 245.604
L323.729 244.211
L332.233 242.818
L338.07 241.425
L341.322 240.032
L342.627 238.639
L342.792 237.246
L342.372 235.854
L341.484 234.461
L339.968 233.068
L337.727 231.675
L334.966 230.282
L332.12 228.889
L329.595 227.496
L327.565 226.103
L325.957 224.71
L324.511 223.317
L322.815 221.924
L320.318 220.531
L316.488 219.139
L311.083 217.746
L304.368 216.353
L297.064 214.96
L290.059 213.567
L284.065 212.174
L279.411 210.781
L276.05 209.388
L273.7 207.995
L272.024 206.602
L270.745 205.209
L269.683 203.816
L268.749 202.424
L267.917 201.031
L267.203 199.638
L266.643 198.245
L266.268 196.852
L266.078 195.459
L266.03 194.066
L266.049 192.673
L266.052 191.28
L265.969 189.887
L265.766 188.494
L265.436 187.101
L264.999 185.709
L264.487 184.316
L263.95 182.923
L263.45 181.53
L263.044 180.137
L262.759 178.744
L262.587 177.351
L262.499 175.958
L262.461 174.565
L262.448 173.172
L262.449 171.779
L262.462 170.386
L262.498 168.994
L262.57 167.601
L262.692 166.208
L262.858 164.815
L263.034 163.422
L263.166 162.029
L263.202 160.636
L263.126 159.243
L262.97 157.85
L262.792 156.457
L262.643 155.064
L262.545 153.671
L262.502 152.279
L262.504 150.886
L262.545 149.493
L262.618 148.1
L262.708 146.707
L262.79 145.314
L262.839 143.921
L262.847 142.528
L262.828 141.135
L262.812 139.742
L262.817 138.349
L262.838 136.956
L262.848 135.564
L262.821 134.171
L262.753 132.778
L262.663 131.385
L262.577 129.992
L262.512 128.599
L262.473 127.206
L262.453 125.813
L262.444 124.42" style="fill:none;stroke:#4c4c4c;stroke-linecap:round;stroke-width:1.5;"/>
   </g>
   <g id="line2d_27">
    <path clip-path="url(#p55a2aadd3b)" d="
M386.904 234.522
L539.736 234.522" style="fill:none;stroke:#4c4c4c;stroke-dasharray:1.000000,3.000000;stroke-dashoffset:0.0;stroke-width:1.5;"/>
   </g>
   <g id="line2d_28">
    <path clip-path="url(#p55a2aadd3b)" d="
M406.245 212.548
L520.395 212.548" style="fill:none;stroke:#4c4c4c;stroke-dasharray:1.000000,3.000000;stroke-dashoffset:0.0;stroke-width:1.5;"/>
   </g>
   <g id="line2d_29">
    <path clip-path="url(#p55a2aadd3b)" d="
M388.565 224.57
L538.075 224.57" style="fill:none;stroke:#4c4c4c;stroke-dasharray:6.000000,6.000000;stroke-dashoffset:0.0;stroke-width:1.5;"/>
   </g>
   <g id="line2d_30">
    <path clip-path="url(#p55a2aadd3b)" d="
M463.308 263.639
L463.287 262.352
L463.236 261.065
L463.124 259.778
L462.891 258.491
L462.438 257.205
L461.621 255.918
L460.25 254.631
L458.109 253.344
L454.998 252.057
L450.795 250.771
L445.514 249.484
L439.343 248.197
L432.627 246.91
L425.802 245.623
L419.281 244.337
L413.352 243.05
L408.113 241.763
L403.493 240.476
L399.325 239.189
L395.466 237.903
L391.876 236.616
L388.653 235.329
L385.991 234.042
L384.093 232.755
L383.087 231.469
L382.968 230.182
L383.6 228.895
L384.77 227.608
L386.264 226.321
L387.934 225.035
L389.72 223.748
L391.617 222.461
L393.622 221.174
L395.68 219.887
L397.693 218.601
L399.569 217.314
L401.291 216.027
L402.955 214.74
L404.761 213.453
L406.945 212.167
L409.693 210.88
L413.081 209.593
L417.053 208.306
L421.437 207.019
L425.991 205.733
L430.463 204.446
L434.639 203.159
L438.382 201.872
L441.638 200.585
L444.423 199.299
L446.783 198.012
L448.759 196.725
L450.367 195.438
L451.6 194.151
L452.443 192.865
L452.904 191.578
L453.032 190.291
L452.921 189.004
L452.7 187.717
L452.507 186.431
L452.467 185.144
L452.669 183.857
L453.155 182.57
L453.924 181.283
L454.935 179.997
L456.113 178.71
L457.363 177.423
L458.585 176.136
L459.686 174.849
L460.603 173.563
L461.303 172.276
L461.79 170.989
L462.091 169.702
L462.248 168.415
L462.306 167.129
L462.304 165.842
L462.27 164.555
L462.217 163.268
L462.144 161.981
L462.04 160.695
L461.891 159.408
L461.692 158.121
L461.453 156.834
L461.201 155.547
L460.981 154.261
L460.845 152.974
L460.834 151.687
L460.968 150.4
L461.236 149.113
L461.596 147.827
L461.994 146.54
L462.373 145.253
L462.693 143.966
L462.935 142.679
L463.102 141.393
L463.206 140.106
L463.265 138.819
L463.295 137.532
L463.31 136.245" style="fill:none;stroke:#4c4c4c;stroke-linecap:round;stroke-width:1.5;"/>
   </g>
   <g id="line2d_31">
    <path clip-path="url(#p55a2aadd3b)" d="
M463.332 263.639
L463.353 262.352
L463.404 261.065
L463.516 259.778
L463.749 258.491
L464.202 257.205
L465.019 255.918
L466.39 254.631
L468.531 253.344
L471.642 252.057
L475.845 250.771
L481.126 249.484
L487.297 248.197
L494.013 246.91
L500.838 245.623
L507.359 244.337
L513.288 243.05
L518.527 241.763
L523.147 240.476
L527.315 239.189
L531.174 237.903
L534.764 236.616
L537.987 235.329
L540.649 234.042
L542.547 232.755
L543.553 231.469
L543.672 230.182
L543.04 228.895
L541.87 227.608
L540.376 226.321
L538.706 225.035
L536.92 223.748
L535.023 222.461
L533.018 221.174
L530.96 219.887
L528.947 218.601
L527.071 217.314
L525.349 216.027
L523.685 214.74
L521.879 213.453
L519.695 212.167
L516.947 210.88
L513.559 209.593
L509.587 208.306
L505.203 207.019
L500.649 205.733
L496.177 204.446
L492.001 203.159
L488.258 201.872
L485.002 200.585
L482.217 199.299
L479.857 198.012
L477.881 196.725
L476.273 195.438
L475.04 194.151
L474.197 192.865
L473.736 191.578
L473.608 190.291
L473.719 189.004
L473.94 187.717
L474.133 186.431
L474.173 185.144
L473.971 183.857
L473.485 182.57
L472.716 181.283
L471.705 179.997
L470.527 178.71
L469.277 177.423
L468.055 176.136
L466.954 174.849
L466.037 173.563
L465.337 172.276
L464.85 170.989
L464.549 169.702
L464.392 168.415
L464.334 167.129
L464.336 165.842
L464.37 164.555
L464.423 163.268
L464.496 161.981
L464.6 160.695
L464.749 159.408
L464.948 158.121
L465.187 156.834
L465.439 155.547
L465.659 154.261
L465.795 152.974
L465.806 151.687
L465.672 150.4
L465.404 149.113
L465.044 147.827
L464.646 146.54
L464.267 145.253
L463.947 143.966
L463.705 142.679
L463.538 141.393
L463.434 140.106
L463.375 138.819
L463.345 137.532
L463.33 136.245" style="fill:none;stroke:#4c4c4c;stroke-linecap:round;stroke-width:1.5;"/>
   </g>
   <g id="line2d_32">
    <path clip-path="url(#p55a2aadd3b)" d="
M585.728 227.008
L742.672 227.008" style="fill:none;stroke:#4c4c4c;stroke-dasharray:1.000000,3.000000;stroke-dashoffset:0.0;stroke-width:1.5;"/>
   </g>
   <g id="line2d_33">
    <path clip-path="url(#p55a2aadd3b)" d="
M584.93 174.57
L743.47 174.57" style="fill:none;stroke:#4c4c4c;stroke-dasharray:1.000000,3.000000;stroke-dashoffset:0.0;stroke-width:1.5;"/>
   </g>
   <g id="line2d_34">
    <path clip-path="url(#p55a2aadd3b)" d="
M598.906 195.587
L729.494 195.587" style="fill:none;stroke:#4c4c4c;stroke-dasharray:6.000000,6.000000;stroke-dashoffset:0.0;stroke-width:1.5;"/>
   </g>
   <g id="line2d_35">
    <path clip-path="url(#p55a2aadd3b)" d="
M664.142 284.063
L664.106 282.269
L664.051 280.475
L663.967 278.681
L663.843 276.886
L663.661 275.092
L663.401 273.298
L663.036 271.504
L662.533 269.71
L661.852 267.916
L660.948 266.122
L659.77 264.328
L658.265 262.534
L656.377 260.74
L654.056 258.946
L651.258 257.152
L647.953 255.358
L644.129 253.564
L639.796 251.769
L634.991 249.975
L629.784 248.181
L624.271 246.387
L618.58 244.593
L612.86 242.799
L607.281 241.005
L602.019 239.211
L597.249 237.417
L593.135 235.623
L589.814 233.829
L587.392 232.035
L585.93 230.241
L585.441 228.447
L585.887 226.652
L587.176 224.858
L589.172 223.064
L591.699 221.27
L594.556 219.476
L597.529 217.682
L600.406 215.888
L602.996 214.094
L605.138 212.3
L606.716 210.506
L607.662 208.712
L607.956 206.918
L607.628 205.124
L606.741 203.33
L605.389 201.535
L603.677 199.741
L601.711 197.947
L599.593 196.153
L597.406 194.359
L595.221 192.565
L593.093 190.771
L591.067 188.977
L589.186 187.183
L587.495 185.389
L586.049 183.595
L584.91 181.801
L584.151 180.007
L583.848 178.213
L584.075 176.418
L584.895 174.624
L586.349 172.83
L588.452 171.036
L591.189 169.242
L594.512 167.448
L598.343 165.654
L602.581 163.86
L607.107 162.066
L611.799 160.272
L616.536 158.478
L621.207 156.684
L625.719 154.89
L630.001 153.096
L634.004 151.301
L637.698 149.507
L641.072 147.713
L644.131 145.919
L646.887 144.125
L649.357 142.331
L651.564 140.537
L653.526 138.743
L655.263 136.949
L656.792 135.155
L658.126 133.361
L659.281 131.567
L660.268 129.773
L661.102 127.978
L661.795 126.184
L662.363 124.39
L662.82 122.596
L663.181 120.802
L663.461 119.008
L663.673 117.214
L663.832 115.42
L663.947 113.626
L664.03 111.832
L664.088 110.038
L664.128 108.244
L664.154 106.45" style="fill:none;stroke:#4c4c4c;stroke-linecap:round;stroke-width:1.5;"/>
   </g>
   <g id="line2d_36">
    <path clip-path="url(#p55a2aadd3b)" d="
M664.258 284.063
L664.294 282.269
L664.349 280.475
L664.433 278.681
L664.557 276.886
L664.739 275.092
L664.999 273.298
L665.364 271.504
L665.867 269.71
L666.548 267.916
L667.452 266.122
L668.63 264.328
L670.135 262.534
L672.023 260.74
L674.344 258.946
L677.142 257.152
L680.447 255.358
L684.271 253.564
L688.604 251.769
L693.409 249.975
L698.616 248.181
L704.129 246.387
L709.82 244.593
L715.54 242.799
L721.119 241.005
L726.381 239.211
L731.151 237.417
L735.265 235.623
L738.586 233.829
L741.008 232.035
L742.47 230.241
L742.959 228.447
L742.513 226.652
L741.224 224.858
L739.228 223.064
L736.701 221.27
L733.844 219.476
L730.871 217.682
L727.994 215.888
L725.404 214.094
L723.262 212.3
L721.684 210.506
L720.738 208.712
L720.444 206.918
L720.772 205.124
L721.659 203.33
L723.011 201.535
L724.723 199.741
L726.689 197.947
L728.807 196.153
L730.994 194.359
L733.179 192.565
L735.307 190.771
L737.333 188.977
L739.214 187.183
L740.905 185.389
L742.351 183.595
L743.49 181.801
L744.249 180.007
L744.552 178.213
L744.325 176.418
L743.505 174.624
L742.051 172.83
L739.948 171.036
L737.211 169.242
L733.888 167.448
L730.057 165.654
L725.819 163.86
L721.293 162.066
L716.601 160.272
L711.864 158.478
L707.193 156.684
L702.681 154.89
L698.399 153.096
L694.396 151.301
L690.702 149.507
L687.328 147.713
L684.269 145.919
L681.513 144.125
L679.043 142.331
L676.836 140.537
L674.874 138.743
L673.137 136.949
L671.608 135.155
L670.274 133.361
L669.119 131.567
L668.132 129.773
L667.298 127.978
L666.605 126.184
L666.037 124.39
L665.58 122.596
L665.219 120.802
L664.939 119.008
L664.727 117.214
L664.568 115.42
L664.453 113.626
L664.37 111.832
L664.312 110.038
L664.272 108.244
L664.246 106.45" style="fill:none;stroke:#4c4c4c;stroke-linecap:round;stroke-width:1.5;"/>
   </g>
   <g id="line2d_37">
    <path clip-path="url(#p55a2aadd3b)" d="
M789.989 240.312
L940.171 240.312" style="fill:none;stroke:#4c4c4c;stroke-dasharray:1.000000,3.000000;stroke-dashoffset:0.0;stroke-width:1.5;"/>
   </g>
   <g id="line2d_38">
    <path clip-path="url(#p55a2aadd3b)" d="
M813.938 222.844
L916.222 222.844" style="fill:none;stroke:#4c4c4c;stroke-dasharray:1.000000,3.000000;stroke-dashoffset:0.0;stroke-width:1.5;"/>
   </g>
   <g id="line2d_39">
    <path clip-path="url(#p55a2aadd3b)" d="
M786.798 231.423
L943.362 231.423" style="fill:none;stroke:#4c4c4c;stroke-dasharray:6.000000,6.000000;stroke-dashoffset:0.0;stroke-width:1.5;"/>
   </g>
   <g id="line2d_40">
    <path clip-path="url(#p55a2aadd3b)" d="
M865.05 268.415
L865.012 267.011
L864.931 265.607
L864.771 264.203
L864.471 262.799
L863.939 261.395
L863.046 259.991
L861.624 258.587
L859.483 257.183
L856.433 255.779
L852.321 254.376
L847.078 252.972
L840.76 251.568
L833.568 250.164
L825.838 248.76
L818.002 247.356
L810.512 245.952
L803.77 244.548
L798.053 243.144
L793.484 241.74
L790.038 240.336
L787.587 238.932
L785.965 237.528
L785.032 236.124
L784.728 234.72
L785.084 233.316
L786.204 231.912
L788.221 230.508
L791.228 229.104
L795.228 227.7
L800.093 226.296
L805.57 224.892
L811.315 223.488
L816.961 222.084
L822.19 220.68
L826.797 219.276
L830.715 217.872
L834.012 216.468
L836.847 215.064
L839.409 213.66
L841.854 212.256
L844.268 210.852
L846.649 209.448
L848.929 208.044
L851.01 206.64
L852.802 205.237
L854.261 203.833
L855.398 202.429
L856.272 201.025
L856.97 199.621
L857.577 198.217
L858.152 196.813
L858.719 195.409
L859.27 194.005
L859.771 192.601
L860.18 191.197
L860.464 189.793
L860.608 188.389
L860.623 186.985
L860.537 185.581
L860.395 184.177
L860.241 182.773
L860.109 181.369
L860.016 179.965
L859.958 178.561
L859.916 177.157
L859.869 175.753
L859.804 174.349
L859.724 172.945
L859.651 171.541
L859.621 170.137
L859.669 168.733
L859.821 167.329
L860.08 165.925
L860.426 164.521
L860.819 163.117
L861.205 161.713
L861.536 160.309
L861.774 158.905
L861.906 157.501
L861.943 156.098
L861.921 154.694
L861.887 153.29
L861.895 151.886
L861.984 150.482
L862.177 149.078
L862.469 147.674
L862.838 146.27
L863.246 144.866
L863.652 143.462
L864.024 142.058
L864.338 140.654
L864.584 139.25
L864.766 137.846
L864.891 136.442
L864.972 135.038
L865.021 133.634
L865.05 132.23
L865.065 130.826
L865.073 129.422" style="fill:none;stroke:#4c4c4c;stroke-linecap:round;stroke-width:1.5;"/>
   </g>
   <g id="line2d_41">
    <path clip-path="url(#p55a2aadd3b)" d="
M865.11 268.415
L865.148 267.011
L865.229 265.607
L865.389 264.203
L865.689 262.799
L866.221 261.395
L867.114 259.991
L868.536 258.587
L870.677 257.183
L873.727 255.779
L877.839 254.376
L883.082 252.972
L889.4 251.568
L896.592 250.164
L904.322 248.76
L912.158 247.356
L919.648 245.952
L926.39 244.548
L932.107 243.144
L936.676 241.74
L940.122 240.336
L942.573 238.932
L944.195 237.528
L945.128 236.124
L945.432 234.72
L945.076 233.316
L943.956 231.912
L941.939 230.508
L938.932 229.104
L934.932 227.7
L930.067 226.296
L924.59 224.892
L918.845 223.488
L913.199 222.084
L907.97 220.68
L903.363 219.276
L899.445 217.872
L896.148 216.468
L893.313 215.064
L890.751 213.66
L888.306 212.256
L885.892 210.852
L883.511 209.448
L881.231 208.044
L879.15 206.64
L877.358 205.237
L875.899 203.833
L874.762 202.429
L873.888 201.025
L873.19 199.621
L872.583 198.217
L872.008 196.813
L871.441 195.409
L870.89 194.005
L870.389 192.601
L869.98 191.197
L869.696 189.793
L869.552 188.389
L869.537 186.985
L869.623 185.581
L869.765 184.177
L869.919 182.773
L870.051 181.369
L870.144 179.965
L870.202 178.561
L870.244 177.157
L870.291 175.753
L870.356 174.349
L870.436 172.945
L870.509 171.541
L870.539 170.137
L870.491 168.733
L870.339 167.329
L870.08 165.925
L869.734 164.521
L869.341 163.117
L868.955 161.713
L868.624 160.309
L868.386 158.905
L868.254 157.501
L868.217 156.098
L868.239 154.694
L868.273 153.29
L868.265 151.886
L868.176 150.482
L867.983 149.078
L867.691 147.674
L867.322 146.27
L866.914 144.866
L866.508 143.462
L866.136 142.058
L865.822 140.654
L865.576 139.25
L865.394 137.846
L865.269 136.442
L865.188 135.038
L865.139 133.634
L865.11 132.23
L865.095 130.826
L865.087 129.422" style="fill:none;stroke:#4c4c4c;stroke-linecap:round;stroke-width:1.5;"/>
   </g>
   <g id="line2d_42">
    <path clip-path="url(#p55a2aadd3b)" d="
M1002.08 227.445
L1129.84 227.445" style="fill:none;stroke:#4c4c4c;stroke-dasharray:1.000000,3.000000;stroke-dashoffset:0.0;stroke-width:1.5;"/>
   </g>
   <g id="line2d_43">
    <path clip-path="url(#p55a2aadd3b)" d="
M991.868 164.475
L1140.05 164.475" style="fill:none;stroke:#4c4c4c;stroke-dasharray:1.000000,3.000000;stroke-dashoffset:0.0;stroke-width:1.5;"/>
   </g>
   <g id="line2d_44">
    <path clip-path="url(#p55a2aadd3b)" d="
M986.008 189.225
L1145.91 189.225" style="fill:none;stroke:#4c4c4c;stroke-dasharray:6.000000,6.000000;stroke-dashoffset:0.0;stroke-width:1.5;"/>
   </g>
   <g id="line2d_45">
    <path clip-path="url(#p55a2aadd3b)" d="
M1065.86 302.093
L1065.81 300.019
L1065.75 297.945
L1065.65 295.871
L1065.52 293.798
L1065.34 291.724
L1065.11 289.65
L1064.79 287.576
L1064.39 285.502
L1063.87 283.429
L1063.21 281.355
L1062.39 279.281
L1061.38 277.207
L1060.17 275.134
L1058.71 273.06
L1057 270.986
L1055.01 268.912
L1052.73 266.838
L1050.16 264.765
L1047.29 262.691
L1044.15 260.617
L1040.77 258.543
L1037.17 256.469
L1033.42 254.396
L1029.58 252.322
L1025.73 250.248
L1021.94 248.174
L1018.3 246.101
L1014.9 244.027
L1011.82 241.953
L1009.12 239.879
L1006.85 237.805
L1005.04 235.732
L1003.69 233.658
L1002.78 231.584
L1002.27 229.51
L1002.08 227.436
L1002.13 225.363
L1002.32 223.289
L1002.54 221.215
L1002.7 219.141
L1002.69 217.068
L1002.44 214.994
L1001.91 212.92
L1001.06 210.846
L999.907 208.772
L998.473 206.699
L996.819 204.625
L995.023 202.551
L993.174 200.477
L991.369 198.403
L989.703 196.33
L988.256 194.256
L987.095 192.182
L986.26 190.108
L985.768 188.035
L985.608 185.961
L985.748 183.887
L986.134 181.813
L986.704 179.739
L987.39 177.666
L988.13 175.592
L988.873 173.518
L989.588 171.444
L990.268 169.37
L990.927 167.297
L991.607 165.223
L992.366 163.149
L993.277 161.075
L994.419 159.002
L995.869 156.928
L997.692 154.854
L999.939 152.78
L1002.63 150.706
L1005.77 148.633
L1009.34 146.559
L1013.26 144.485
L1017.48 142.411
L1021.9 140.337
L1026.42 138.264
L1030.93 136.19
L1035.34 134.116
L1039.56 132.042
L1043.51 129.969
L1047.14 127.895
L1050.41 125.821
L1053.29 123.747
L1055.79 121.673
L1057.92 119.6
L1059.69 117.526
L1061.15 115.452
L1062.32 113.378
L1063.25 111.305
L1063.97 109.231
L1064.52 107.157
L1064.94 105.083
L1065.24 103.009
L1065.46 100.936
L1065.62 98.8618
L1065.73 96.788" style="fill:none;stroke:#4c4c4c;stroke-linecap:round;stroke-width:1.5;"/>
   </g>
   <g id="line2d_46">
    <path clip-path="url(#p55a2aadd3b)" d="
M1066.06 302.093
L1066.11 300.019
L1066.17 297.945
L1066.27 295.871
L1066.4 293.798
L1066.58 291.724
L1066.81 289.65
L1067.13 287.576
L1067.53 285.502
L1068.05 283.429
L1068.71 281.355
L1069.53 279.281
L1070.54 277.207
L1071.75 275.134
L1073.21 273.06
L1074.92 270.986
L1076.91 268.912
L1079.19 266.838
L1081.76 264.765
L1084.63 262.691
L1087.77 260.617
L1091.15 258.543
L1094.75 256.469
L1098.5 254.396
L1102.34 252.322
L1106.19 250.248
L1109.98 248.174
L1113.62 246.101
L1117.02 244.027
L1120.1 241.953
L1122.8 239.879
L1125.07 237.805
L1126.88 235.732
L1128.23 233.658
L1129.14 231.584
L1129.65 229.51
L1129.84 227.436
L1129.79 225.363
L1129.6 223.289
L1129.38 221.215
L1129.22 219.141
L1129.23 217.068
L1129.48 214.994
L1130.01 212.92
L1130.86 210.846
L1132.01 208.772
L1133.45 206.699
L1135.1 204.625
L1136.9 202.551
L1138.75 200.477
L1140.55 198.403
L1142.22 196.33
L1143.66 194.256
L1144.83 192.182
L1145.66 190.108
L1146.15 188.035
L1146.31 185.961
L1146.17 183.887
L1145.79 181.813
L1145.22 179.739
L1144.53 177.666
L1143.79 175.592
L1143.05 173.518
L1142.33 171.444
L1141.65 169.37
L1140.99 167.297
L1140.31 165.223
L1139.55 163.149
L1138.64 161.075
L1137.5 159.002
L1136.05 156.928
L1134.23 154.854
L1131.98 152.78
L1129.29 150.706
L1126.15 148.633
L1122.58 146.559
L1118.66 144.485
L1114.44 142.411
L1110.02 140.337
L1105.5 138.264
L1100.99 136.19
L1096.58 134.116
L1092.36 132.042
L1088.41 129.969
L1084.78 127.895
L1081.51 125.821
L1078.63 123.747
L1076.13 121.673
L1074 119.6
L1072.23 117.526
L1070.77 115.452
L1069.6 113.378
L1068.67 111.305
L1067.95 109.231
L1067.4 107.157
L1066.98 105.083
L1066.68 103.009
L1066.46 100.936
L1066.3 98.8618
L1066.19 96.788" style="fill:none;stroke:#4c4c4c;stroke-linecap:round;stroke-width:1.5;"/>
   </g>
   <g id="patch_3">
    <path d="
M162 325.636
L1166.4 325.636" style="fill:none;stroke:#000000;stroke-linecap:square;stroke-linejoin:miter;"/>
   </g>
   <g id="patch_4">
    <path d="
M162 325.636
L162 72" style="fill:none;stroke:#000000;stroke-linecap:square;stroke-linejoin:miter;"/>
   </g>
   <g id="text_15">
    <!-- Distribution of Centroid Distances by Cluster -->
    <defs>
     <path d="
M32.1719 -5.07812
Q28.375 -14.8438 24.75 -17.8125
Q21.1406 -20.7969 15.0938 -20.7969
L7.90625 -20.7969
L7.90625 -13.2812
L13.1875 -13.2812
Q16.8906 -13.2812 18.9375 -11.5156
Q21 -9.76562 23.4844 -3.21875
L25.0938 0.875
L2.98438 54.6875
L12.5 54.6875
L29.5938 11.9219
L46.6875 54.6875
L56.2031 54.6875
z
" id="BitstreamVeraSans-Roman-79"/>
     <path d="
M8.5 21.5781
L8.5 54.6875
L17.4844 54.6875
L17.4844 21.9219
Q17.4844 14.1562 20.5 10.2656
Q23.5312 6.39062 29.5938 6.39062
Q36.8594 6.39062 41.0781 11.0312
Q45.3125 15.6719 45.3125 23.6875
L45.3125 54.6875
L54.2969 54.6875
L54.2969 0
L45.3125 0
L45.3125 8.40625
Q42.0469 3.42188 37.7188 1
Q33.4062 -1.42188 27.6875 -1.42188
Q18.2656 -1.42188 13.375 4.4375
Q8.5 10.2969 8.5 21.5781" id="BitstreamVeraSans-Roman-75"/>
     <path d="
M37.1094 75.9844
L37.1094 68.5
L28.5156 68.5
Q23.6875 68.5 21.7969 66.5469
Q19.9219 64.5938 19.9219 59.5156
L19.9219 54.6875
L34.7188 54.6875
L34.7188 47.7031
L19.9219 47.7031
L19.9219 0
L10.8906 0
L10.8906 47.7031
L2.29688 47.7031
L2.29688 54.6875
L10.8906 54.6875
L10.8906 58.5
Q10.8906 67.625 15.1406 71.7969
Q19.3906 75.9844 28.6094 75.9844
z
" id="BitstreamVeraSans-Roman-66"/>
     <path d="
M9.42188 75.9844
L18.4062 75.9844
L18.4062 0
L9.42188 0
z
" id="BitstreamVeraSans-Roman-6c"/>
     <path d="
M48.6875 27.2969
Q48.6875 37.2031 44.6094 42.8438
Q40.5312 48.4844 33.4062 48.4844
Q26.2656 48.4844 22.1875 42.8438
Q18.1094 37.2031 18.1094 27.2969
Q18.1094 17.3906 22.1875 11.75
Q26.2656 6.10938 33.4062 6.10938
Q40.5312 6.10938 44.6094 11.75
Q48.6875 17.3906 48.6875 27.2969
M18.1094 46.3906
Q20.9531 51.2656 25.2656 53.625
Q29.5938 56 35.5938 56
Q45.5625 56 51.7812 48.0938
Q58.0156 40.1875 58.0156 27.2969
Q58.0156 14.4062 51.7812 6.48438
Q45.5625 -1.42188 35.5938 -1.42188
Q29.5938 -1.42188 25.2656 0.953125
Q20.9531 3.32812 18.1094 8.20312
L18.1094 0
L9.07812 0
L9.07812 75.9844
L18.1094 75.9844
z
" id="BitstreamVeraSans-Roman-62"/>
    </defs>
    <g style="fill:#262626;" transform="translate(530.3484375 67.0)scale(0.12 -0.12)">
     <use xlink:href="#BitstreamVeraSans-Roman-44"/>
     <use x="77.001953125" xlink:href="#BitstreamVeraSans-Roman-69"/>
     <use x="104.78515625" xlink:href="#BitstreamVeraSans-Roman-73"/>
     <use x="156.884765625" xlink:href="#BitstreamVeraSans-Roman-74"/>
     <use x="196.09375" xlink:href="#BitstreamVeraSans-Roman-72"/>
     <use x="237.20703125" xlink:href="#BitstreamVeraSans-Roman-69"/>
     <use x="264.990234375" xlink:href="#BitstreamVeraSans-Roman-62"/>
     <use x="328.466796875" xlink:href="#BitstreamVeraSans-Roman-75"/>
     <use x="391.845703125" xlink:href="#BitstreamVeraSans-Roman-74"/>
     <use x="431.0546875" xlink:href="#BitstreamVeraSans-Roman-69"/>
     <use x="458.837890625" xlink:href="#BitstreamVeraSans-Roman-6f"/>
     <use x="520.01953125" xlink:href="#BitstreamVeraSans-Roman-6e"/>
     <use x="583.3984375" xlink:href="#BitstreamVeraSans-Roman-20"/>
     <use x="615.185546875" xlink:href="#BitstreamVeraSans-Roman-6f"/>
     <use x="676.3671875" xlink:href="#BitstreamVeraSans-Roman-66"/>
     <use x="711.572265625" xlink:href="#BitstreamVeraSans-Roman-20"/>
     <use x="743.359375" xlink:href="#BitstreamVeraSans-Roman-43"/>
     <use x="813.18359375" xlink:href="#BitstreamVeraSans-Roman-65"/>
     <use x="874.70703125" xlink:href="#BitstreamVeraSans-Roman-6e"/>
     <use x="938.0859375" xlink:href="#BitstreamVeraSans-Roman-74"/>
     <use x="977.294921875" xlink:href="#BitstreamVeraSans-Roman-72"/>
     <use x="1016.15820312" xlink:href="#BitstreamVeraSans-Roman-6f"/>
     <use x="1077.33984375" xlink:href="#BitstreamVeraSans-Roman-69"/>
     <use x="1105.12304688" xlink:href="#BitstreamVeraSans-Roman-64"/>
     <use x="1168.59960938" xlink:href="#BitstreamVeraSans-Roman-20"/>
     <use x="1200.38671875" xlink:href="#BitstreamVeraSans-Roman-44"/>
     <use x="1277.38867188" xlink:href="#BitstreamVeraSans-Roman-69"/>
     <use x="1305.171875" xlink:href="#BitstreamVeraSans-Roman-73"/>
     <use x="1357.27148438" xlink:href="#BitstreamVeraSans-Roman-74"/>
     <use x="1396.48046875" xlink:href="#BitstreamVeraSans-Roman-61"/>
     <use x="1457.75976562" xlink:href="#BitstreamVeraSans-Roman-6e"/>
     <use x="1521.13867188" xlink:href="#BitstreamVeraSans-Roman-63"/>
     <use x="1576.11914062" xlink:href="#BitstreamVeraSans-Roman-65"/>
     <use x="1637.64257812" xlink:href="#BitstreamVeraSans-Roman-73"/>
     <use x="1689.7421875" xlink:href="#BitstreamVeraSans-Roman-20"/>
     <use x="1721.52929688" xlink:href="#BitstreamVeraSans-Roman-62"/>
     <use x="1785.00585938" xlink:href="#BitstreamVeraSans-Roman-79"/>
     <use x="1844.18554688" xlink:href="#BitstreamVeraSans-Roman-20"/>
     <use x="1875.97265625" xlink:href="#BitstreamVeraSans-Roman-43"/>
     <use x="1945.796875" xlink:href="#BitstreamVeraSans-Roman-6c"/>
     <use x="1973.58007812" xlink:href="#BitstreamVeraSans-Roman-75"/>
     <use x="2036.95898438" xlink:href="#BitstreamVeraSans-Roman-73"/>
     <use x="2089.05859375" xlink:href="#BitstreamVeraSans-Roman-74"/>
     <use x="2128.26757812" xlink:href="#BitstreamVeraSans-Roman-65"/>
     <use x="2189.79101562" xlink:href="#BitstreamVeraSans-Roman-72"/>
    </g>
   </g>
  </g>
  <g id="axes_2">
   <g id="patch_5">
    <path d="
M162 630
L1166.4 630
L1166.4 376.364
L162 376.364
z
" style="fill:#ffffff;"/>
   </g>
   <g id="matplotlib.axis_3">
    <g id="xtick_6">
     <g id="line2d_47">
      <path clip-path="url(#pe88aad526e)" d="
M262.44 630
L262.44 376.364" style="fill:none;stroke:#ffffff;stroke-linecap:round;"/>
     </g>
     <g id="line2d_48">
      <g>
       <use style="fill:#262626;stroke:#262626;" x="262.44" xlink:href="#m219da94a98" y="630.0"/>
      </g>
     </g>
     <g id="text_16">
      <!-- 0 -->
      <g style="fill:#262626;" transform="translate(265.199375 642.0390625)rotate(-90.0)scale(0.1 -0.1)">
       <use xlink:href="#BitstreamVeraSans-Roman-30"/>
      </g>
     </g>
    </g>
    <g id="xtick_7">
     <g id="line2d_49">
      <path clip-path="url(#pe88aad526e)" d="
M463.32 630
L463.32 376.364" style="fill:none;stroke:#ffffff;stroke-linecap:round;"/>
     </g>
     <g id="line2d_50">
      <g>
       <use style="fill:#262626;stroke:#262626;" x="463.32" xlink:href="#m219da94a98" y="630.0"/>
      </g>
     </g>
     <g id="text_17">
      <!-- 1 -->
      <g style="fill:#262626;" transform="translate(466.079375 641.340625)rotate(-90.0)scale(0.1 -0.1)">
       <use xlink:href="#BitstreamVeraSans-Roman-31"/>
      </g>
     </g>
    </g>
    <g id="xtick_8">
     <g id="line2d_51">
      <path clip-path="url(#pe88aad526e)" d="
M664.2 630
L664.2 376.364" style="fill:none;stroke:#ffffff;stroke-linecap:round;"/>
     </g>
     <g id="line2d_52">
      <g>
       <use style="fill:#262626;stroke:#262626;" x="664.2" xlink:href="#m219da94a98" y="630.0"/>
      </g>
     </g>
     <g id="text_18">
      <!-- 2 -->
      <g style="fill:#262626;" transform="translate(666.959375 641.628125)rotate(-90.0)scale(0.1 -0.1)">
       <use xlink:href="#BitstreamVeraSans-Roman-32"/>
      </g>
     </g>
    </g>
    <g id="xtick_9">
     <g id="line2d_53">
      <path clip-path="url(#pe88aad526e)" d="
M865.08 630
L865.08 376.364" style="fill:none;stroke:#ffffff;stroke-linecap:round;"/>
     </g>
     <g id="line2d_54">
      <g>
       <use style="fill:#262626;stroke:#262626;" x="865.08" xlink:href="#m219da94a98" y="630.0"/>
      </g>
     </g>
     <g id="text_19">
      <!-- 3 -->
      <g style="fill:#262626;" transform="translate(867.839375 641.7984375)rotate(-90.0)scale(0.1 -0.1)">
       <use xlink:href="#BitstreamVeraSans-Roman-33"/>
      </g>
     </g>
    </g>
    <g id="xtick_10">
     <g id="line2d_55">
      <path clip-path="url(#pe88aad526e)" d="
M1065.96 630
L1065.96 376.364" style="fill:none;stroke:#ffffff;stroke-linecap:round;"/>
     </g>
     <g id="line2d_56">
      <g>
       <use style="fill:#262626;stroke:#262626;" x="1065.96" xlink:href="#m219da94a98" y="630.0"/>
      </g>
     </g>
     <g id="text_20">
      <!-- 4 -->
      <g style="fill:#262626;" transform="translate(1068.719375 642.3125)rotate(-90.0)scale(0.1 -0.1)">
       <use xlink:href="#BitstreamVeraSans-Roman-34"/>
      </g>
     </g>
    </g>
   </g>
   <g id="matplotlib.axis_4">
    <g id="ytick_9">
     <g id="line2d_57">
      <path clip-path="url(#pe88aad526e)" d="
M162 630
L1166.4 630" style="fill:none;stroke:#ffffff;stroke-linecap:round;"/>
     </g>
     <g id="line2d_58">
      <g>
       <use style="fill:#262626;stroke:#262626;" x="162.0" xlink:href="#m219da94a98" y="630.0"/>
      </g>
     </g>
     <g id="text_21">
      <!-- 0.0 -->
      <g style="fill:#262626;" transform="translate(140.4203125 632.759375)scale(0.1 -0.1)">
       <use xlink:href="#BitstreamVeraSans-Roman-30"/>
       <use x="63.623046875" xlink:href="#BitstreamVeraSans-Roman-2e"/>
       <use x="95.41015625" xlink:href="#BitstreamVeraSans-Roman-30"/>
      </g>
     </g>
    </g>
    <g id="ytick_10">
     <g id="line2d_59">
      <path clip-path="url(#pe88aad526e)" d="
M162 598.295
L1166.4 598.295" style="fill:none;stroke:#ffffff;stroke-linecap:round;"/>
     </g>
     <g id="line2d_60">
      <g>
       <use style="fill:#262626;stroke:#262626;" x="162.0" xlink:href="#m219da94a98" y="598.295454545"/>
      </g>
     </g>
     <g id="text_22">
      <!-- 0.1 -->
      <g style="fill:#262626;" transform="translate(140.6796875 601.054829545)scale(0.1 -0.1)">
       <use xlink:href="#BitstreamVeraSans-Roman-30"/>
       <use x="63.623046875" xlink:href="#BitstreamVeraSans-Roman-2e"/>
       <use x="95.41015625" xlink:href="#BitstreamVeraSans-Roman-31"/>
      </g>
     </g>
    </g>
    <g id="ytick_11">
     <g id="line2d_61">
      <path clip-path="url(#pe88aad526e)" d="
M162 566.591
L1166.4 566.591" style="fill:none;stroke:#ffffff;stroke-linecap:round;"/>
     </g>
     <g id="line2d_62">
      <g>
       <use style="fill:#262626;stroke:#262626;" x="162.0" xlink:href="#m219da94a98" y="566.590909091"/>
      </g>
     </g>
     <g id="text_23">
      <!-- 0.2 -->
      <g style="fill:#262626;" transform="translate(140.7578125 569.350284091)scale(0.1 -0.1)">
       <use xlink:href="#BitstreamVeraSans-Roman-30"/>
       <use x="63.623046875" xlink:href="#BitstreamVeraSans-Roman-2e"/>
       <use x="95.41015625" xlink:href="#BitstreamVeraSans-Roman-32"/>
      </g>
     </g>
    </g>
    <g id="ytick_12">
     <g id="line2d_63">
      <path clip-path="url(#pe88aad526e)" d="
M162 534.886
L1166.4 534.886" style="fill:none;stroke:#ffffff;stroke-linecap:round;"/>
     </g>
     <g id="line2d_64">
      <g>
       <use style="fill:#262626;stroke:#262626;" x="162.0" xlink:href="#m219da94a98" y="534.886363636"/>
      </g>
     </g>
     <g id="text_24">
      <!-- 0.3 -->
      <g style="fill:#262626;" transform="translate(140.5578125 537.645738636)scale(0.1 -0.1)">
       <use xlink:href="#BitstreamVeraSans-Roman-30"/>
       <use x="63.623046875" xlink:href="#BitstreamVeraSans-Roman-2e"/>
       <use x="95.41015625" xlink:href="#BitstreamVeraSans-Roman-33"/>
      </g>
     </g>
    </g>
    <g id="ytick_13">
     <g id="line2d_65">
      <path clip-path="url(#pe88aad526e)" d="
M162 503.182
L1166.4 503.182" style="fill:none;stroke:#ffffff;stroke-linecap:round;"/>
     </g>
     <g id="line2d_66">
      <g>
       <use style="fill:#262626;stroke:#262626;" x="162.0" xlink:href="#m219da94a98" y="503.181818182"/>
      </g>
     </g>
     <g id="text_25">
      <!-- 0.4 -->
      <g style="fill:#262626;" transform="translate(140.3171875 505.941193182)scale(0.1 -0.1)">
       <use xlink:href="#BitstreamVeraSans-Roman-30"/>
       <use x="63.623046875" xlink:href="#BitstreamVeraSans-Roman-2e"/>
       <use x="95.41015625" xlink:href="#BitstreamVeraSans-Roman-34"/>
      </g>
     </g>
    </g>
    <g id="ytick_14">
     <g id="line2d_67">
      <path clip-path="url(#pe88aad526e)" d="
M162 471.477
L1166.4 471.477" style="fill:none;stroke:#ffffff;stroke-linecap:round;"/>
     </g>
     <g id="line2d_68">
      <g>
       <use style="fill:#262626;stroke:#262626;" x="162.0" xlink:href="#m219da94a98" y="471.477272727"/>
      </g>
     </g>
     <g id="text_26">
      <!-- 0.5 -->
      <defs>
       <path d="
M10.7969 72.9062
L49.5156 72.9062
L49.5156 64.5938
L19.8281 64.5938
L19.8281 46.7344
Q21.9688 47.4688 24.1094 47.8281
Q26.2656 48.1875 28.4219 48.1875
Q40.625 48.1875 47.75 41.5
Q54.8906 34.8125 54.8906 23.3906
Q54.8906 11.625 47.5625 5.09375
Q40.2344 -1.42188 26.9062 -1.42188
Q22.3125 -1.42188 17.5469 -0.640625
Q12.7969 0.140625 7.71875 1.70312
L7.71875 11.625
Q12.1094 9.23438 16.7969 8.0625
Q21.4844 6.89062 26.7031 6.89062
Q35.1562 6.89062 40.0781 11.3281
Q45.0156 15.7656 45.0156 23.3906
Q45.0156 31 40.0781 35.4375
Q35.1562 39.8906 26.7031 39.8906
Q22.75 39.8906 18.8125 39.0156
Q14.8906 38.1406 10.7969 36.2812
z
" id="BitstreamVeraSans-Roman-35"/>
      </defs>
      <g style="fill:#262626;" transform="translate(140.6296875 474.236647727)scale(0.1 -0.1)">
       <use xlink:href="#BitstreamVeraSans-Roman-30"/>
       <use x="63.623046875" xlink:href="#BitstreamVeraSans-Roman-2e"/>
       <use x="95.41015625" xlink:href="#BitstreamVeraSans-Roman-35"/>
      </g>
     </g>
    </g>
    <g id="ytick_15">
     <g id="line2d_69">
      <path clip-path="url(#pe88aad526e)" d="
M162 439.773
L1166.4 439.773" style="fill:none;stroke:#ffffff;stroke-linecap:round;"/>
     </g>
     <g id="line2d_70">
      <g>
       <use style="fill:#262626;stroke:#262626;" x="162.0" xlink:href="#m219da94a98" y="439.772727273"/>
      </g>
     </g>
     <g id="text_27">
      <!-- 0.6 -->
      <g style="fill:#262626;" transform="translate(140.3859375 442.532102273)scale(0.1 -0.1)">
       <use xlink:href="#BitstreamVeraSans-Roman-30"/>
       <use x="63.623046875" xlink:href="#BitstreamVeraSans-Roman-2e"/>
       <use x="95.41015625" xlink:href="#BitstreamVeraSans-Roman-36"/>
      </g>
     </g>
    </g>
    <g id="ytick_16">
     <g id="line2d_71">
      <path clip-path="url(#pe88aad526e)" d="
M162 408.068
L1166.4 408.068" style="fill:none;stroke:#ffffff;stroke-linecap:round;"/>
     </g>
     <g id="line2d_72">
      <g>
       <use style="fill:#262626;stroke:#262626;" x="162.0" xlink:href="#m219da94a98" y="408.068181818"/>
      </g>
     </g>
     <g id="text_28">
      <!-- 0.7 -->
      <defs>
       <path d="
M8.20312 72.9062
L55.0781 72.9062
L55.0781 68.7031
L28.6094 0
L18.3125 0
L43.2188 64.5938
L8.20312 64.5938
z
" id="BitstreamVeraSans-Roman-37"/>
      </defs>
      <g style="fill:#262626;" transform="translate(140.6109375 410.827556818)scale(0.1 -0.1)">
       <use xlink:href="#BitstreamVeraSans-Roman-30"/>
       <use x="63.623046875" xlink:href="#BitstreamVeraSans-Roman-2e"/>
       <use x="95.41015625" xlink:href="#BitstreamVeraSans-Roman-37"/>
      </g>
     </g>
    </g>
    <g id="ytick_17">
     <g id="line2d_73">
      <path clip-path="url(#pe88aad526e)" d="
M162 376.364
L1166.4 376.364" style="fill:none;stroke:#ffffff;stroke-linecap:round;"/>
     </g>
     <g id="line2d_74">
      <g>
       <use style="fill:#262626;stroke:#262626;" x="162.0" xlink:href="#m219da94a98" y="376.363636364"/>
      </g>
     </g>
     <g id="text_29">
      <!-- 0.8 -->
      <g style="fill:#262626;" transform="translate(140.440625 379.123011364)scale(0.1 -0.1)">
       <use xlink:href="#BitstreamVeraSans-Roman-30"/>
       <use x="63.623046875" xlink:href="#BitstreamVeraSans-Roman-2e"/>
       <use x="95.41015625" xlink:href="#BitstreamVeraSans-Roman-38"/>
      </g>
     </g>
    </g>
    <g id="text_30">
     <!-- Coefficient of Variation -->
     <defs>
      <path d="
M28.6094 0
L0.78125 72.9062
L11.0781 72.9062
L34.1875 11.5312
L57.3281 72.9062
L67.5781 72.9062
L39.7969 0
z
" id="BitstreamVeraSans-Roman-56"/>
     </defs>
     <g style="fill:#262626;" transform="translate(133.02953125 565.482208807)rotate(-90.0)scale(0.11 -0.11)">
      <use xlink:href="#BitstreamVeraSans-Roman-43"/>
      <use x="69.82421875" xlink:href="#BitstreamVeraSans-Roman-6f"/>
      <use x="131.005859375" xlink:href="#BitstreamVeraSans-Roman-65"/>
      <use x="192.529296875" xlink:href="#BitstreamVeraSans-Roman-66"/>
      <use x="227.734375" xlink:href="#BitstreamVeraSans-Roman-66"/>
      <use x="262.939453125" xlink:href="#BitstreamVeraSans-Roman-69"/>
      <use x="290.72265625" xlink:href="#BitstreamVeraSans-Roman-63"/>
      <use x="345.703125" xlink:href="#BitstreamVeraSans-Roman-69"/>
      <use x="373.486328125" xlink:href="#BitstreamVeraSans-Roman-65"/>
      <use x="435.009765625" xlink:href="#BitstreamVeraSans-Roman-6e"/>
      <use x="498.388671875" xlink:href="#BitstreamVeraSans-Roman-74"/>
      <use x="537.59765625" xlink:href="#BitstreamVeraSans-Roman-20"/>
      <use x="569.384765625" xlink:href="#BitstreamVeraSans-Roman-6f"/>
      <use x="630.56640625" xlink:href="#BitstreamVeraSans-Roman-66"/>
      <use x="665.771484375" xlink:href="#BitstreamVeraSans-Roman-20"/>
      <use x="697.55859375" xlink:href="#BitstreamVeraSans-Roman-56"/>
      <use x="758.216796875" xlink:href="#BitstreamVeraSans-Roman-61"/>
      <use x="819.49609375" xlink:href="#BitstreamVeraSans-Roman-72"/>
      <use x="860.609375" xlink:href="#BitstreamVeraSans-Roman-69"/>
      <use x="888.392578125" xlink:href="#BitstreamVeraSans-Roman-61"/>
      <use x="949.671875" xlink:href="#BitstreamVeraSans-Roman-74"/>
      <use x="988.880859375" xlink:href="#BitstreamVeraSans-Roman-69"/>
      <use x="1016.6640625" xlink:href="#BitstreamVeraSans-Roman-6f"/>
      <use x="1077.84570312" xlink:href="#BitstreamVeraSans-Roman-6e"/>
     </g>
    </g>
   </g>
   <g id="patch_6">
    <path clip-path="url(#pe88aad526e)" d="
M212.22 630
L312.66 630
L312.66 451.51
L212.22 451.51
z
" style="fill:#4c72b0;stroke:#000000;stroke-linejoin:miter;stroke-width:0.3;"/>
   </g>
   <g id="patch_7">
    <path clip-path="url(#pe88aad526e)" d="
M413.1 630
L513.54 630
L513.54 454.532
L413.1 454.532
z
" style="fill:#4c72b0;stroke:#000000;stroke-linejoin:miter;stroke-width:0.3;"/>
   </g>
   <g id="patch_8">
    <path clip-path="url(#pe88aad526e)" d="
M613.98 630
L714.42 630
L714.42 462.822
L613.98 462.822
z
" style="fill:#4c72b0;stroke:#000000;stroke-linejoin:miter;stroke-width:0.3;"/>
   </g>
   <g id="patch_9">
    <path clip-path="url(#pe88aad526e)" d="
M814.86 630
L915.3 630
L915.3 388.851
L814.86 388.851
z
" style="fill:#4c72b0;stroke:#000000;stroke-linejoin:miter;stroke-width:0.3;"/>
   </g>
   <g id="patch_10">
    <path clip-path="url(#pe88aad526e)" d="
M1015.74 630
L1116.18 630
L1116.18 452.582
L1015.74 452.582
z
" style="fill:#4c72b0;stroke:#000000;stroke-linejoin:miter;stroke-width:0.3;"/>
   </g>
   <g id="line2d_75">
    <path clip-path="url(#pe88aad526e)" d="
M162 630
L1166.4 630" style="fill:none;stroke:#000000;stroke-dasharray:6.000000,6.000000;stroke-dashoffset:0.0;stroke-width:1.75;"/>
   </g>
   <g id="patch_11">
    <path d="
M162 630
L1166.4 630" style="fill:none;stroke:#000000;stroke-linecap:square;stroke-linejoin:miter;"/>
   </g>
   <g id="patch_12">
    <path d="
M162 630
L162 376.364" style="fill:none;stroke:#000000;stroke-linecap:square;stroke-linejoin:miter;"/>
   </g>
   <g id="text_31">
    <!-- Coefficient of Variation by Cluster -->
    <g style="fill:#262626;" transform="translate(563.2575 371.363636364)scale(0.12 -0.12)">
     <use xlink:href="#BitstreamVeraSans-Roman-43"/>
     <use x="69.82421875" xlink:href="#BitstreamVeraSans-Roman-6f"/>
     <use x="131.005859375" xlink:href="#BitstreamVeraSans-Roman-65"/>
     <use x="192.529296875" xlink:href="#BitstreamVeraSans-Roman-66"/>
     <use x="227.734375" xlink:href="#BitstreamVeraSans-Roman-66"/>
     <use x="262.939453125" xlink:href="#BitstreamVeraSans-Roman-69"/>
     <use x="290.72265625" xlink:href="#BitstreamVeraSans-Roman-63"/>
     <use x="345.703125" xlink:href="#BitstreamVeraSans-Roman-69"/>
     <use x="373.486328125" xlink:href="#BitstreamVeraSans-Roman-65"/>
     <use x="435.009765625" xlink:href="#BitstreamVeraSans-Roman-6e"/>
     <use x="498.388671875" xlink:href="#BitstreamVeraSans-Roman-74"/>
     <use x="537.59765625" xlink:href="#BitstreamVeraSans-Roman-20"/>
     <use x="569.384765625" xlink:href="#BitstreamVeraSans-Roman-6f"/>
     <use x="630.56640625" xlink:href="#BitstreamVeraSans-Roman-66"/>
     <use x="665.771484375" xlink:href="#BitstreamVeraSans-Roman-20"/>
     <use x="697.55859375" xlink:href="#BitstreamVeraSans-Roman-56"/>
     <use x="758.216796875" xlink:href="#BitstreamVeraSans-Roman-61"/>
     <use x="819.49609375" xlink:href="#BitstreamVeraSans-Roman-72"/>
     <use x="860.609375" xlink:href="#BitstreamVeraSans-Roman-69"/>
     <use x="888.392578125" xlink:href="#BitstreamVeraSans-Roman-61"/>
     <use x="949.671875" xlink:href="#BitstreamVeraSans-Roman-74"/>
     <use x="988.880859375" xlink:href="#BitstreamVeraSans-Roman-69"/>
     <use x="1016.6640625" xlink:href="#BitstreamVeraSans-Roman-6f"/>
     <use x="1077.84570312" xlink:href="#BitstreamVeraSans-Roman-6e"/>
     <use x="1141.22460938" xlink:href="#BitstreamVeraSans-Roman-20"/>
     <use x="1173.01171875" xlink:href="#BitstreamVeraSans-Roman-62"/>
     <use x="1236.48828125" xlink:href="#BitstreamVeraSans-Roman-79"/>
     <use x="1295.66796875" xlink:href="#BitstreamVeraSans-Roman-20"/>
     <use x="1327.45507812" xlink:href="#BitstreamVeraSans-Roman-43"/>
     <use x="1397.27929688" xlink:href="#BitstreamVeraSans-Roman-6c"/>
     <use x="1425.0625" xlink:href="#BitstreamVeraSans-Roman-75"/>
     <use x="1488.44140625" xlink:href="#BitstreamVeraSans-Roman-73"/>
     <use x="1540.54101562" xlink:href="#BitstreamVeraSans-Roman-74"/>
     <use x="1579.75" xlink:href="#BitstreamVeraSans-Roman-65"/>
     <use x="1641.2734375" xlink:href="#BitstreamVeraSans-Roman-72"/>
    </g>
   </g>
  </g>
 </g>
 <defs>
  <clipPath id="pe88aad526e">
   <rect height="253.636363636" width="1004.4" x="162.0" y="376.363636364"/>
  </clipPath>
  <clipPath id="p55a2aadd3b">
   <rect height="253.636363636" width="1004.4" x="162.0" y="72.0"/>
  </clipPath>
 </defs>
</svg>
