<?xml version="1.0" encoding="utf-8" standalone="no"?>
<!DOCTYPE svg PUBLIC "-//W3C//DTD SVG 1.1//EN"
  "http://www.w3.org/Graphics/SVG/1.1/DTD/svg11.dtd">
<!-- Created with matplotlib (http://matplotlib.org/) -->
<svg height="720pt" version="1.1" viewBox="0 0 1296 720" width="1296pt" xmlns="http://www.w3.org/2000/svg" xmlns:xlink="http://www.w3.org/1999/xlink">
 <defs>
  <style type="text/css">
*{stroke-linecap:butt;stroke-linejoin:round;}
  </style>
 </defs>
 <g id="figure_1">
  <g id="patch_1">
   <path d="
M0 720
L1296 720
L1296 0
L0 0
z
" style="fill:#ffffff;"/>
  </g>
  <g id="axes_1">
   <g id="patch_2">
    <path d="
M162 325.636
L1166.4 325.636
L1166.4 72
L162 72
z
" style="fill:#ffffff;"/>
   </g>
   <g id="matplotlib.axis_1">
    <g id="xtick_1">
     <g id="line2d_1">
      <defs>
       <path d="
M0 0
L0 0" id="m219da94a98" style="stroke:#262626;"/>
      </defs>
      <g>
       <use style="fill:#262626;stroke:#262626;" x="262.44" xlink:href="#m219da94a98" y="325.636363636"/>
      </g>
     </g>
     <g id="text_1">
      <!-- 0 -->
      <defs>
       <path d="
M31.7812 66.4062
Q24.1719 66.4062 20.3281 58.9062
Q16.5 51.4219 16.5 36.375
Q16.5 21.3906 20.3281 13.8906
Q24.1719 6.39062 31.7812 6.39062
Q39.4531 6.39062 43.2812 13.8906
Q47.125 21.3906 47.125 36.375
Q47.125 51.4219 43.2812 58.9062
Q39.4531 66.4062 31.7812 66.4062
M31.7812 74.2188
Q44.0469 74.2188 50.5156 64.5156
Q56.9844 54.8281 56.9844 36.375
Q56.9844 17.9688 50.5156 8.26562
Q44.0469 -1.42188 31.7812 -1.42188
Q19.5312 -1.42188 13.0625 8.26562
Q6.59375 17.9688 6.59375 36.375
Q6.59375 54.8281 13.0625 64.5156
Q19.5312 74.2188 31.7812 74.2188" id="BitstreamVeraSans-Roman-30"/>
      </defs>
      <g style="fill:#262626;" transform="translate(259.92046875 340.234801136)scale(0.1 -0.1)">
       <use xlink:href="#BitstreamVeraSans-Roman-30"/>
      </g>
     </g>
    </g>
    <g id="xtick_2">
     <g id="line2d_2">
      <g>
       <use style="fill:#262626;stroke:#262626;" x="463.32" xlink:href="#m219da94a98" y="325.636363636"/>
      </g>
     </g>
     <g id="text_2">
      <!-- 1 -->
      <defs>
       <path d="
M12.4062 8.29688
L28.5156 8.29688
L28.5156 63.9219
L10.9844 60.4062
L10.9844 69.3906
L28.4219 72.9062
L38.2812 72.9062
L38.2812 8.29688
L54.3906 8.29688
L54.3906 0
L12.4062 0
z
" id="BitstreamVeraSans-Roman-31"/>
      </defs>
      <g style="fill:#262626;" transform="translate(461.1496875 340.234801136)scale(0.1 -0.1)">
       <use xlink:href="#BitstreamVeraSans-Roman-31"/>
      </g>
     </g>
    </g>
    <g id="xtick_3">
     <g id="line2d_3">
      <g>
       <use style="fill:#262626;stroke:#262626;" x="664.2" xlink:href="#m219da94a98" y="325.636363636"/>
      </g>
     </g>
     <g id="text_3">
      <!-- 2 -->
      <defs>
       <path d="
M19.1875 8.29688
L53.6094 8.29688
L53.6094 0
L7.32812 0
L7.32812 8.29688
Q12.9375 14.1094 22.625 23.8906
Q32.3281 33.6875 34.8125 36.5312
Q39.5469 41.8438 41.4219 45.5312
Q43.3125 49.2188 43.3125 52.7812
Q43.3125 58.5938 39.2344 62.25
Q35.1562 65.9219 28.6094 65.9219
Q23.9688 65.9219 18.8125 64.3125
Q13.6719 62.7031 7.8125 59.4219
L7.8125 69.3906
Q13.7656 71.7812 18.9375 73
Q24.125 74.2188 28.4219 74.2188
Q39.75 74.2188 46.4844 68.5469
Q53.2188 62.8906 53.2188 53.4219
Q53.2188 48.9219 51.5312 44.8906
Q49.8594 40.875 45.4062 35.4062
Q44.1875 33.9844 37.6406 27.2188
Q31.1094 20.4531 19.1875 8.29688" id="BitstreamVeraSans-Roman-32"/>
      </defs>
      <g style="fill:#262626;" transform="translate(661.8859375 340.234801136)scale(0.1 -0.1)">
       <use xlink:href="#BitstreamVeraSans-Roman-32"/>
      </g>
     </g>
    </g>
    <g id="xtick_4">
     <g id="line2d_4">
      <g>
       <use style="fill:#262626;stroke:#262626;" x="865.08" xlink:href="#m219da94a98" y="325.636363636"/>
      </g>
     </g>
     <g id="text_4">
      <!-- 3 -->
      <defs>
       <path d="
M40.5781 39.3125
Q47.6562 37.7969 51.625 33
Q55.6094 28.2188 55.6094 21.1875
Q55.6094 10.4062 48.1875 4.48438
Q40.7656 -1.42188 27.0938 -1.42188
Q22.5156 -1.42188 17.6562 -0.515625
Q12.7969 0.390625 7.625 2.20312
L7.625 11.7188
Q11.7188 9.32812 16.5938 8.10938
Q21.4844 6.89062 26.8125 6.89062
Q36.0781 6.89062 40.9375 10.5469
Q45.7969 14.2031 45.7969 21.1875
Q45.7969 27.6406 41.2812 31.2656
Q36.7656 34.9062 28.7188 34.9062
L20.2188 34.9062
L20.2188 43.0156
L29.1094 43.0156
Q36.375 43.0156 40.2344 45.9219
Q44.0938 48.8281 44.0938 54.2969
Q44.0938 59.9062 40.1094 62.9062
Q36.1406 65.9219 28.7188 65.9219
Q24.6562 65.9219 20.0156 65.0312
Q15.375 64.1562 9.8125 62.3125
L9.8125 71.0938
Q15.4375 72.6562 20.3438 73.4375
Q25.25 74.2188 29.5938 74.2188
Q40.8281 74.2188 47.3594 69.1094
Q53.9062 64.0156 53.9062 55.3281
Q53.9062 49.2656 50.4375 45.0938
Q46.9688 40.9219 40.5781 39.3125" id="BitstreamVeraSans-Roman-33"/>
      </defs>
      <g style="fill:#262626;" transform="translate(862.68078125 340.234801136)scale(0.1 -0.1)">
       <use xlink:href="#BitstreamVeraSans-Roman-33"/>
      </g>
     </g>
    </g>
    <g id="xtick_5">
     <g id="line2d_5">
      <g>
       <use style="fill:#262626;stroke:#262626;" x="1065.96" xlink:href="#m219da94a98" y="325.636363636"/>
      </g>
     </g>
     <g id="text_5">
      <!-- 4 -->
      <defs>
       <path d="
M37.7969 64.3125
L12.8906 25.3906
L37.7969 25.3906
z

M35.2031 72.9062
L47.6094 72.9062
L47.6094 25.3906
L58.0156 25.3906
L58.0156 17.1875
L47.6094 17.1875
L47.6094 0
L37.7969 0
L37.7969 17.1875
L4.89062 17.1875
L4.89062 26.7031
z
" id="BitstreamVeraSans-Roman-34"/>
      </defs>
      <g style="fill:#262626;" transform="translate(1063.30375 340.234801136)scale(0.1 -0.1)">
       <use xlink:href="#BitstreamVeraSans-Roman-34"/>
      </g>
     </g>
    </g>
   </g>
   <g id="matplotlib.axis_2">
    <g id="ytick_1">
     <g id="line2d_6">
      <path clip-path="url(#p55a2aadd3b)" d="
M162 325.636
L1166.4 325.636" style="fill:none;stroke:#ffffff;stroke-linecap:round;"/>
     </g>
     <g id="line2d_7">
      <g>
       <use style="fill:#262626;stroke:#262626;" x="162.0" xlink:href="#m219da94a98" y="325.636363636"/>
      </g>
     </g>
     <g id="text_6">
      <!-- −0.1 -->
      <defs>
       <path d="
M10.5938 35.5
L73.1875 35.5
L73.1875 27.2031
L10.5938 27.2031
z
" id="BitstreamVeraSans-Roman-2212"/>
       <path d="
M10.6875 12.4062
L21 12.4062
L21 0
L10.6875 0
z
" id="BitstreamVeraSans-Roman-2e"/>
      </defs>
      <g style="fill:#262626;" transform="translate(132.7 328.395738636)scale(0.1 -0.1)">
       <use xlink:href="#BitstreamVeraSans-Roman-2212"/>
       <use x="83.7890625" xlink:href="#BitstreamVeraSans-Roman-30"/>
       <use x="147.412109375" xlink:href="#BitstreamVeraSans-Roman-2e"/>
       <use x="179.19921875" xlink:href="#BitstreamVeraSans-Roman-31"/>
      </g>
     </g>
    </g>
    <g id="ytick_2">
     <g id="line2d_8">
      <path clip-path="url(#p55a2aadd3b)" d="
M162 293.932
L1166.4 293.932" style="fill:none;stroke:#ffffff;stroke-linecap:round;"/>
     </g>
     <g id="line2d_9">
      <g>
       <use style="fill:#262626;stroke:#262626;" x="162.0" xlink:href="#m219da94a98" y="293.931818182"/>
      </g>
     </g>
     <g id="text_7">
      <!-- 0.0 -->
      <g style="fill:#262626;" transform="translate(140.4203125 296.691193182)scale(0.1 -0.1)">
       <use xlink:href="#BitstreamVeraSans-Roman-30"/>
       <use x="63.623046875" xlink:href="#BitstreamVeraSans-Roman-2e"/>
       <use x="95.41015625" xlink:href="#BitstreamVeraSans-Roman-30"/>
      </g>
     </g>
    </g>
    <g id="ytick_3">
     <g id="line2d_10">
      <path clip-path="url(#p55a2aadd3b)" d="
M162 262.227
L1166.4 262.227" style="fill:none;stroke:#ffffff;stroke-linecap:round;"/>
     </g>
     <g id="line2d_11">
      <g>
       <use style="fill:#262626;stroke:#262626;" x="162.0" xlink:href="#m219da94a98" y="262.227272727"/>
      </g>
     </g>
     <g id="text_8">
      <!-- 0.1 -->
      <g style="fill:#262626;" transform="translate(140.6796875 264.986647727)scale(0.1 -0.1)">
       <use xlink:href="#BitstreamVeraSans-Roman-30"/>
       <use x="63.623046875" xlink:href="#BitstreamVeraSans-Roman-2e"/>
       <use x="95.41015625" xlink:href="#BitstreamVeraSans-Roman-31"/>
      </g>
     </g>
    </g>
    <g id="ytick_4">
     <g id="line2d_12">
      <path clip-path="url(#p55a2aadd3b)" d="
M162 230.523
L1166.4 230.523" style="fill:none;stroke:#ffffff;stroke-linecap:round;"/>
     </g>
     <g id="line2d_13">
      <g>
       <use style="fill:#262626;stroke:#262626;" x="162.0" xlink:href="#m219da94a98" y="230.522727273"/>
      </g>
     </g>
     <g id="text_9">
      <!-- 0.2 -->
      <g style="fill:#262626;" transform="translate(140.7578125 233.282102273)scale(0.1 -0.1)">
       <use xlink:href="#BitstreamVeraSans-Roman-30"/>
       <use x="63.623046875" xlink:href="#BitstreamVeraSans-Roman-2e"/>
       <use x="95.41015625" xlink:href="#BitstreamVeraSans-Roman-32"/>
      </g>
     </g>
    </g>
    <g id="ytick_5">
     <g id="line2d_14">
      <path clip-path="url(#p55a2aadd3b)" d="
M162 198.818
L1166.4 198.818" style="fill:none;stroke:#ffffff;stroke-linecap:round;"/>
     </g>
     <g id="line2d_15">
      <g>
       <use style="fill:#262626;stroke:#262626;" x="162.0" xlink:href="#m219da94a98" y="198.818181818"/>
      </g>
     </g>
     <g id="text_10">
      <!-- 0.3 -->
      <g style="fill:#262626;" transform="translate(140.5578125 201.577556818)scale(0.1 -0.1)">
       <use xlink:href="#BitstreamVeraSans-Roman-30"/>
       <use x="63.623046875" xlink:href="#BitstreamVeraSans-Roman-2e"/>
       <use x="95.41015625" xlink:href="#BitstreamVeraSans-Roman-33"/>
      </g>
     </g>
    </g>
    <g id="ytick_6">
     <g id="line2d_16">
      <path clip-path="url(#p55a2aadd3b)" d="
M162 167.114
L1166.4 167.114" style="fill:none;stroke:#ffffff;stroke-linecap:round;"/>
     </g>
     <g id="line2d_17">
      <g>
       <use style="fill:#262626;stroke:#262626;" x="162.0" xlink:href="#m219da94a98" y="167.113636364"/>
      </g>
     </g>
     <g id="text_11">
      <!-- 0.4 -->
      <g style="fill:#262626;" transform="translate(140.3171875 169.873011364)scale(0.1 -0.1)">
       <use xlink:href="#BitstreamVeraSans-Roman-30"/>
       <use x="63.623046875" xlink:href="#BitstreamVeraSans-Roman-2e"/>
       <use x="95.41015625" xlink:href="#BitstreamVeraSans-Roman-34"/>
      </g>
     </g>
    </g>
    <g id="ytick_7">
     <g id="line2d_18">
      <path clip-path="url(#p55a2aadd3b)" d="
M162 135.409
L1166.4 135.409" style="fill:none;stroke:#ffffff;stroke-linecap:round;"/>
     </g>
     <g id="line2d_19">
      <g>
       <use style="fill:#262626;stroke:#262626;" x="162.0" xlink:href="#m219da94a98" y="135.409090909"/>
      </g>
     </g>
     <g id="text_12">
      <!-- 0.5 -->
      <defs>
       <path d="
M10.7969 72.9062
L49.5156 72.9062
L49.5156 64.5938
L19.8281 64.5938
L19.8281 46.7344
Q21.9688 47.4688 24.1094 47.8281
Q26.2656 48.1875 28.4219 48.1875
Q40.625 48.1875 47.75 41.5
Q54.8906 34.8125 54.8906 23.3906
Q54.8906 11.625 47.5625 5.09375
Q40.2344 -1.42188 26.9062 -1.42188
Q22.3125 -1.42188 17.5469 -0.640625
Q12.7969 0.140625 7.71875 1.70312
L7.71875 11.625
Q12.1094 9.23438 16.7969 8.0625
Q21.4844 6.89062 26.7031 6.89062
Q35.1562 6.89062 40.0781 11.3281
Q45.0156 15.7656 45.0156 23.3906
Q45.0156 31 40.0781 35.4375
Q35.1562 39.8906 26.7031 39.8906
Q22.75 39.8906 18.8125 39.0156
Q14.8906 38.1406 10.7969 36.2812
z
" id="BitstreamVeraSans-Roman-35"/>
      </defs>
      <g style="fill:#262626;" transform="translate(140.6296875 138.168465909)scale(0.1 -0.1)">
       <use xlink:href="#BitstreamVeraSans-Roman-30"/>
       <use x="63.623046875" xlink:href="#BitstreamVeraSans-Roman-2e"/>
       <use x="95.41015625" xlink:href="#BitstreamVeraSans-Roman-35"/>
      </g>
     </g>
    </g>
    <g id="ytick_8">
     <g id="line2d_20">
      <path clip-path="url(#p55a2aadd3b)" d="
M162 103.705
L1166.4 103.705" style="fill:none;stroke:#ffffff;stroke-linecap:round;"/>
     </g>
     <g id="line2d_21">
      <g>
       <use style="fill:#262626;stroke:#262626;" x="162.0" xlink:href="#m219da94a98" y="103.704545455"/>
      </g>
     </g>
     <g id="text_13">
      <!-- 0.6 -->
      <defs>
       <path d="
M33.0156 40.375
Q26.375 40.375 22.4844 35.8281
Q18.6094 31.2969 18.6094 23.3906
Q18.6094 15.5312 22.4844 10.9531
Q26.375 6.39062 33.0156 6.39062
Q39.6562 6.39062 43.5312 10.9531
Q47.4062 15.5312 47.4062 23.3906
Q47.4062 31.2969 43.5312 35.8281
Q39.6562 40.375 33.0156 40.375
M52.5938 71.2969
L52.5938 62.3125
Q48.875 64.0625 45.0938 64.9844
Q41.3125 65.9219 37.5938 65.9219
Q27.8281 65.9219 22.6719 59.3281
Q17.5312 52.7344 16.7969 39.4062
Q19.6719 43.6562 24.0156 45.9219
Q28.375 48.1875 33.5938 48.1875
Q44.5781 48.1875 50.9531 41.5156
Q57.3281 34.8594 57.3281 23.3906
Q57.3281 12.1562 50.6875 5.35938
Q44.0469 -1.42188 33.0156 -1.42188
Q20.3594 -1.42188 13.6719 8.26562
Q6.98438 17.9688 6.98438 36.375
Q6.98438 53.6562 15.1875 63.9375
Q23.3906 74.2188 37.2031 74.2188
Q40.9219 74.2188 44.7031 73.4844
Q48.4844 72.75 52.5938 71.2969" id="BitstreamVeraSans-Roman-36"/>
      </defs>
      <g style="fill:#262626;" transform="translate(140.3859375 106.463920455)scale(0.1 -0.1)">
       <use xlink:href="#BitstreamVeraSans-Roman-30"/>
       <use x="63.623046875" xlink:href="#BitstreamVeraSans-Roman-2e"/>
       <use x="95.41015625" xlink:href="#BitstreamVeraSans-Roman-36"/>
      </g>
     </g>
    </g>
    <g id="ytick_9">
     <g id="line2d_22">
      <path clip-path="url(#p55a2aadd3b)" d="
M162 72
L1166.4 72" style="fill:none;stroke:#ffffff;stroke-linecap:round;"/>
     </g>
     <g id="line2d_23">
      <g>
       <use style="fill:#262626;stroke:#262626;" x="162.0" xlink:href="#m219da94a98" y="72.0"/>
      </g>
     </g>
     <g id="text_14">
      <!-- 0.7 -->
      <defs>
       <path d="
M8.20312 72.9062
L55.0781 72.9062
L55.0781 68.7031
L28.6094 0
L18.3125 0
L43.2188 64.5938
L8.20312 64.5938
z
" id="BitstreamVeraSans-Roman-37"/>
      </defs>
      <g style="fill:#262626;" transform="translate(140.6109375 74.759375)scale(0.1 -0.1)">
       <use xlink:href="#BitstreamVeraSans-Roman-30"/>
       <use x="63.623046875" xlink:href="#BitstreamVeraSans-Roman-2e"/>
       <use x="95.41015625" xlink:href="#BitstreamVeraSans-Roman-37"/>
      </g>
     </g>
    </g>
    <g id="text_15">
     <!-- Distance to Centroid -->
     <defs>
      <path id="BitstreamVeraSans-Roman-20"/>
      <path d="
M54.8906 33.0156
L54.8906 0
L45.9062 0
L45.9062 32.7188
Q45.9062 40.4844 42.875 44.3281
Q39.8438 48.1875 33.7969 48.1875
Q26.5156 48.1875 22.3125 43.5469
Q18.1094 38.9219 18.1094 30.9062
L18.1094 0
L9.07812 0
L9.07812 54.6875
L18.1094 54.6875
L18.1094 46.1875
Q21.3438 51.125 25.7031 53.5625
Q30.0781 56 35.7969 56
Q45.2188 56 50.0469 50.1719
Q54.8906 44.3438 54.8906 33.0156" id="BitstreamVeraSans-Roman-6e"/>
      <path d="
M41.1094 46.2969
Q39.5938 47.1719 37.8125 47.5781
Q36.0312 48 33.8906 48
Q26.2656 48 22.1875 43.0469
Q18.1094 38.0938 18.1094 28.8125
L18.1094 0
L9.07812 0
L9.07812 54.6875
L18.1094 54.6875
L18.1094 46.1875
Q20.9531 51.1719 25.4844 53.5781
Q30.0312 56 36.5312 56
Q37.4531 56 38.5781 55.875
Q39.7031 55.7656 41.0625 55.5156
z
" id="BitstreamVeraSans-Roman-72"/>
      <path d="
M30.6094 48.3906
Q23.3906 48.3906 19.1875 42.75
Q14.9844 37.1094 14.9844 27.2969
Q14.9844 17.4844 19.1562 11.8438
Q23.3438 6.20312 30.6094 6.20312
Q37.7969 6.20312 41.9844 11.8594
Q46.1875 17.5312 46.1875 27.2969
Q46.1875 37.0156 41.9844 42.7031
Q37.7969 48.3906 30.6094 48.3906
M30.6094 56
Q42.3281 56 49.0156 48.375
Q55.7188 40.7656 55.7188 27.2969
Q55.7188 13.875 49.0156 6.21875
Q42.3281 -1.42188 30.6094 -1.42188
Q18.8438 -1.42188 12.1719 6.21875
Q5.51562 13.875 5.51562 27.2969
Q5.51562 40.7656 12.1719 48.375
Q18.8438 56 30.6094 56" id="BitstreamVeraSans-Roman-6f"/>
      <path d="
M19.6719 64.7969
L19.6719 8.10938
L31.5938 8.10938
Q46.6875 8.10938 53.6875 14.9375
Q60.6875 21.7812 60.6875 36.5312
Q60.6875 51.1719 53.6875 57.9844
Q46.6875 64.7969 31.5938 64.7969
z

M9.8125 72.9062
L30.0781 72.9062
Q51.2656 72.9062 61.1719 64.0938
Q71.0938 55.2812 71.0938 36.5312
Q71.0938 17.6719 61.125 8.82812
Q51.1719 0 30.0781 0
L9.8125 0
z
" id="BitstreamVeraSans-Roman-44"/>
      <path d="
M9.42188 54.6875
L18.4062 54.6875
L18.4062 0
L9.42188 0
z

M9.42188 75.9844
L18.4062 75.9844
L18.4062 64.5938
L9.42188 64.5938
z
" id="BitstreamVeraSans-Roman-69"/>
      <path d="
M45.4062 46.3906
L45.4062 75.9844
L54.3906 75.9844
L54.3906 0
L45.4062 0
L45.4062 8.20312
Q42.5781 3.32812 38.25 0.953125
Q33.9375 -1.42188 27.875 -1.42188
Q17.9688 -1.42188 11.7344 6.48438
Q5.51562 14.4062 5.51562 27.2969
Q5.51562 40.1875 11.7344 48.0938
Q17.9688 56 27.875 56
Q33.9375 56 38.25 53.625
Q42.5781 51.2656 45.4062 46.3906
M14.7969 27.2969
Q14.7969 17.3906 18.875 11.75
Q22.9531 6.10938 30.0781 6.10938
Q37.2031 6.10938 41.2969 11.75
Q45.4062 17.3906 45.4062 27.2969
Q45.4062 37.2031 41.2969 42.8438
Q37.2031 48.4844 30.0781 48.4844
Q22.9531 48.4844 18.875 42.8438
Q14.7969 37.2031 14.7969 27.2969" id="BitstreamVeraSans-Roman-64"/>
      <path d="
M56.2031 29.5938
L56.2031 25.2031
L14.8906 25.2031
Q15.4844 15.9219 20.4844 11.0625
Q25.4844 6.20312 34.4219 6.20312
Q39.5938 6.20312 44.4531 7.46875
Q49.3125 8.73438 54.1094 11.2812
L54.1094 2.78125
Q49.2656 0.734375 44.1875 -0.34375
Q39.1094 -1.42188 33.8906 -1.42188
Q20.7969 -1.42188 13.1562 6.1875
Q5.51562 13.8125 5.51562 26.8125
Q5.51562 40.2344 12.7656 48.1094
Q20.0156 56 32.3281 56
Q43.3594 56 49.7812 48.8906
Q56.2031 41.7969 56.2031 29.5938
M47.2188 32.2344
Q47.125 39.5938 43.0938 43.9844
Q39.0625 48.3906 32.4219 48.3906
Q24.9062 48.3906 20.3906 44.1406
Q15.875 39.8906 15.1875 32.1719
z
" id="BitstreamVeraSans-Roman-65"/>
      <path d="
M64.4062 67.2812
L64.4062 56.8906
Q59.4219 61.5312 53.7812 63.8125
Q48.1406 66.1094 41.7969 66.1094
Q29.2969 66.1094 22.6562 58.4688
Q16.0156 50.8281 16.0156 36.375
Q16.0156 21.9688 22.6562 14.3281
Q29.2969 6.6875 41.7969 6.6875
Q48.1406 6.6875 53.7812 8.98438
Q59.4219 11.2812 64.4062 15.9219
L64.4062 5.60938
Q59.2344 2.09375 53.4375 0.328125
Q47.6562 -1.42188 41.2188 -1.42188
Q24.6562 -1.42188 15.125 8.70312
Q5.60938 18.8438 5.60938 36.375
Q5.60938 53.9531 15.125 64.0781
Q24.6562 74.2188 41.2188 74.2188
Q47.75 74.2188 53.5312 72.4844
Q59.3281 70.75 64.4062 67.2812" id="BitstreamVeraSans-Roman-43"/>
      <path d="
M18.3125 70.2188
L18.3125 54.6875
L36.8125 54.6875
L36.8125 47.7031
L18.3125 47.7031
L18.3125 18.0156
Q18.3125 11.3281 20.1406 9.42188
Q21.9688 7.51562 27.5938 7.51562
L36.8125 7.51562
L36.8125 0
L27.5938 0
Q17.1875 0 13.2344 3.875
Q9.28125 7.76562 9.28125 18.0156
L9.28125 47.7031
L2.6875 47.7031
L2.6875 54.6875
L9.28125 54.6875
L9.28125 70.2188
z
" id="BitstreamVeraSans-Roman-74"/>
      <path d="
M34.2812 27.4844
Q23.3906 27.4844 19.1875 25
Q14.9844 22.5156 14.9844 16.5
Q14.9844 11.7188 18.1406 8.90625
Q21.2969 6.10938 26.7031 6.10938
Q34.1875 6.10938 38.7031 11.4062
Q43.2188 16.7031 43.2188 25.4844
L43.2188 27.4844
z

M52.2031 31.2031
L52.2031 0
L43.2188 0
L43.2188 8.29688
Q40.1406 3.32812 35.5469 0.953125
Q30.9531 -1.42188 24.3125 -1.42188
Q15.9219 -1.42188 10.9531 3.29688
Q6 8.01562 6 15.9219
Q6 25.1406 12.1719 29.8281
Q18.3594 34.5156 30.6094 34.5156
L43.2188 34.5156
L43.2188 35.4062
Q43.2188 41.6094 39.1406 45
Q35.0625 48.3906 27.6875 48.3906
Q23 48.3906 18.5469 47.2656
Q14.1094 46.1406 10.0156 43.8906
L10.0156 52.2031
Q14.9375 54.1094 19.5781 55.0469
Q24.2188 56 28.6094 56
Q40.4844 56 46.3438 49.8438
Q52.2031 43.7031 52.2031 31.2031" id="BitstreamVeraSans-Roman-61"/>
      <path d="
M44.2812 53.0781
L44.2812 44.5781
Q40.4844 46.5312 36.375 47.5
Q32.2812 48.4844 27.875 48.4844
Q21.1875 48.4844 17.8438 46.4375
Q14.5 44.3906 14.5 40.2812
Q14.5 37.1562 16.8906 35.375
Q19.2812 33.5938 26.5156 31.9844
L29.5938 31.2969
Q39.1562 29.25 43.1875 25.5156
Q47.2188 21.7812 47.2188 15.0938
Q47.2188 7.46875 41.1875 3.01562
Q35.1562 -1.42188 24.6094 -1.42188
Q20.2188 -1.42188 15.4531 -0.5625
Q10.6875 0.296875 5.42188 2
L5.42188 11.2812
Q10.4062 8.6875 15.2344 7.39062
Q20.0625 6.10938 24.8125 6.10938
Q31.1562 6.10938 34.5625 8.28125
Q37.9844 10.4531 37.9844 14.4062
Q37.9844 18.0625 35.5156 20.0156
Q33.0625 21.9688 24.7031 23.7812
L21.5781 24.5156
Q13.2344 26.2656 9.51562 29.9062
Q5.8125 33.5469 5.8125 39.8906
Q5.8125 47.6094 11.2812 51.7969
Q16.75 56 26.8125 56
Q31.7812 56 36.1719 55.2656
Q40.5781 54.5469 44.2812 53.0781" id="BitstreamVeraSans-Roman-73"/>
      <path d="
M48.7812 52.5938
L48.7812 44.1875
Q44.9688 46.2969 41.1406 47.3438
Q37.3125 48.3906 33.4062 48.3906
Q24.6562 48.3906 19.8125 42.8438
Q14.9844 37.3125 14.9844 27.2969
Q14.9844 17.2812 19.8125 11.7344
Q24.6562 6.20312 33.4062 6.20312
Q37.3125 6.20312 41.1406 7.25
Q44.9688 8.29688 48.7812 10.4062
L48.7812 2.09375
Q45.0156 0.34375 40.9844 -0.53125
Q36.9688 -1.42188 32.4219 -1.42188
Q20.0625 -1.42188 12.7812 6.34375
Q5.51562 14.1094 5.51562 27.2969
Q5.51562 40.6719 12.8594 48.3281
Q20.2188 56 33.0156 56
Q37.1562 56 41.1094 55.1406
Q45.0625 54.2969 48.7812 52.5938" id="BitstreamVeraSans-Roman-63"/>
     </defs>
     <g style="fill:#262626;" transform="translate(125.41234375 254.772947443)rotate(-90.0)scale(0.11 -0.11)">
      <use xlink:href="#BitstreamVeraSans-Roman-44"/>
      <use x="77.001953125" xlink:href="#BitstreamVeraSans-Roman-69"/>
      <use x="104.78515625" xlink:href="#BitstreamVeraSans-Roman-73"/>
      <use x="156.884765625" xlink:href="#BitstreamVeraSans-Roman-74"/>
      <use x="196.09375" xlink:href="#BitstreamVeraSans-Roman-61"/>
      <use x="257.373046875" xlink:href="#BitstreamVeraSans-Roman-6e"/>
      <use x="320.751953125" xlink:href="#BitstreamVeraSans-Roman-63"/>
      <use x="375.732421875" xlink:href="#BitstreamVeraSans-Roman-65"/>
      <use x="437.255859375" xlink:href="#BitstreamVeraSans-Roman-20"/>
      <use x="469.04296875" xlink:href="#BitstreamVeraSans-Roman-74"/>
      <use x="508.251953125" xlink:href="#BitstreamVeraSans-Roman-6f"/>
      <use x="569.43359375" xlink:href="#BitstreamVeraSans-Roman-20"/>
      <use x="601.220703125" xlink:href="#BitstreamVeraSans-Roman-43"/>
      <use x="671.044921875" xlink:href="#BitstreamVeraSans-Roman-65"/>
      <use x="732.568359375" xlink:href="#BitstreamVeraSans-Roman-6e"/>
      <use x="795.947265625" xlink:href="#BitstreamVeraSans-Roman-74"/>
      <use x="835.15625" xlink:href="#BitstreamVeraSans-Roman-72"/>
      <use x="874.01953125" xlink:href="#BitstreamVeraSans-Roman-6f"/>
      <use x="935.201171875" xlink:href="#BitstreamVeraSans-Roman-69"/>
      <use x="962.984375" xlink:href="#BitstreamVeraSans-Roman-64"/>
     </g>
    </g>
   </g>
   <g id="PolyCollection_1">
    <defs>
     <path d="
M262.471 -411.063
L262.409 -411.063
L262.369 -412.931
L262.286 -414.799
L262.126 -416.667
L261.835 -418.535
L261.342 -420.402
L260.556 -422.27
L259.378 -424.138
L257.715 -426.006
L255.492 -427.873
L252.671 -429.741
L249.251 -431.609
L245.263 -433.477
L240.765 -435.345
L235.826 -437.212
L230.522 -439.08
L224.946 -440.948
L219.215 -442.816
L213.482 -444.683
L207.928 -446.551
L202.749 -448.419
L198.111 -450.287
L194.124 -452.155
L190.817 -454.022
L188.144 -455.89
L186.016 -457.758
L184.352 -459.626
L183.113 -461.493
L182.33 -463.361
L182.088 -465.229
L182.497 -467.097
L183.639 -468.964
L185.528 -470.832
L188.077 -472.7
L191.098 -474.568
L194.319 -476.436
L197.442 -478.303
L200.194 -480.171
L202.394 -482.039
L203.979 -483.907
L205.016 -485.774
L205.67 -487.642
L206.169 -489.51
L206.751 -491.378
L207.638 -493.246
L209.002 -495.113
L210.953 -496.981
L213.525 -498.849
L216.679 -500.717
L220.302 -502.584
L224.229 -504.452
L228.263 -506.32
L232.204 -508.188
L235.872 -510.055
L239.134 -511.923
L241.913 -513.791
L244.198 -515.659
L246.037 -517.527
L247.514 -519.394
L248.722 -521.262
L249.733 -523.13
L250.584 -524.998
L251.28 -526.865
L251.814 -528.733
L252.191 -530.601
L252.449 -532.469
L252.662 -534.337
L252.92 -536.204
L253.313 -538.072
L253.894 -539.94
L254.671 -541.808
L255.6 -543.675
L256.605 -545.543
L257.602 -547.411
L258.517 -549.279
L259.302 -551.146
L259.94 -553.014
L260.434 -554.882
L260.805 -556.75
L261.072 -558.618
L261.256 -560.485
L261.371 -562.353
L261.43 -564.221
L261.443 -566.089
L261.429 -567.956
L261.407 -569.824
L261.4 -571.692
L261.427 -573.56
L261.496 -575.428
L261.607 -577.295
L261.747 -579.163
L261.899 -581.031
L262.044 -582.899
L262.168 -584.766
L262.266 -586.634
L262.336 -588.502
L262.381 -590.37
L262.409 -592.237
L262.425 -594.105
L262.433 -595.973
L262.447 -595.973
L262.447 -595.973
L262.455 -594.105
L262.471 -592.237
L262.499 -590.37
L262.544 -588.502
L262.614 -586.634
L262.712 -584.766
L262.836 -582.899
L262.981 -581.031
L263.133 -579.163
L263.273 -577.295
L263.384 -575.428
L263.453 -573.56
L263.48 -571.692
L263.473 -569.824
L263.451 -567.956
L263.437 -566.089
L263.45 -564.221
L263.509 -562.353
L263.624 -560.485
L263.808 -558.618
L264.075 -556.75
L264.446 -554.882
L264.94 -553.014
L265.578 -551.146
L266.363 -549.279
L267.278 -547.411
L268.275 -545.543
L269.28 -543.675
L270.209 -541.808
L270.986 -539.94
L271.567 -538.072
L271.96 -536.204
L272.218 -534.337
L272.431 -532.469
L272.689 -530.601
L273.066 -528.733
L273.6 -526.865
L274.296 -524.998
L275.147 -523.13
L276.158 -521.262
L277.366 -519.394
L278.843 -517.527
L280.682 -515.659
L282.967 -513.791
L285.746 -511.923
L289.008 -510.055
L292.676 -508.188
L296.617 -506.32
L300.651 -504.452
L304.578 -502.584
L308.201 -500.717
L311.355 -498.849
L313.927 -496.981
L315.878 -495.113
L317.242 -493.246
L318.129 -491.378
L318.711 -489.51
L319.21 -487.642
L319.864 -485.774
L320.901 -483.907
L322.486 -482.039
L324.686 -480.171
L327.438 -478.303
L330.561 -476.436
L333.782 -474.568
L336.803 -472.7
L339.352 -470.832
L341.241 -468.964
L342.383 -467.097
L342.792 -465.229
L342.55 -463.361
L341.767 -461.493
L340.528 -459.626
L338.864 -457.758
L336.736 -455.89
L334.063 -454.022
L330.756 -452.155
L326.769 -450.287
L322.131 -448.419
L316.952 -446.551
L311.398 -444.683
L305.665 -442.816
L299.934 -440.948
L294.358 -439.08
L289.054 -437.212
L284.115 -435.345
L279.617 -433.477
L275.629 -431.609
L272.209 -429.741
L269.388 -427.873
L267.165 -426.006
L265.502 -424.138
L264.324 -422.27
L263.538 -420.402
L263.045 -418.535
L262.754 -416.667
L262.594 -414.799
L262.511 -412.931
L262.471 -411.063
z
" id="m703ee0db72" style="stroke:#5b76a1;stroke-width:0.3;"/>
    </defs>
    <g clip-path="url(#p55a2aadd3b)">
     <use style="fill:#5b76a1;stroke:#5b76a1;stroke-width:0.3;" x="0.0" xlink:href="#m703ee0db72" y="720.0"/>
    </g>
   </g>
   <g id="PolyCollection_2">
    <defs>
     <path d="
M463.333 -412.913
L463.307 -412.913
L463.28 -415.275
L463.208 -417.636
L463.033 -419.997
L462.652 -422.359
L461.899 -424.72
L460.531 -427.081
L458.234 -429.442
L454.656 -431.804
L449.466 -434.165
L442.473 -436.526
L433.748 -438.888
L423.734 -441.249
L413.243 -443.61
L403.302 -445.971
L394.886 -448.333
L388.637 -450.694
L384.73 -453.055
L382.968 -455.417
L382.995 -457.778
L384.485 -460.139
L387.174 -462.5
L390.801 -464.862
L395.069 -467.223
L399.685 -469.584
L404.408 -471.946
L409.051 -474.307
L413.441 -476.668
L417.414 -479.029
L420.871 -481.391
L423.846 -483.752
L426.504 -486.113
L429.059 -488.475
L431.674 -490.836
L434.389 -493.197
L437.123 -495.558
L439.733 -497.92
L442.087 -500.281
L444.142 -502.642
L445.966 -505.004
L447.71 -507.365
L449.526 -509.726
L451.48 -512.087
L453.518 -514.449
L455.5 -516.81
L457.266 -519.171
L458.71 -521.533
L459.803 -523.894
L460.588 -526.255
L461.146 -528.616
L461.557 -530.978
L461.873 -533.339
L462.104 -535.7
L462.233 -538.062
L462.239 -540.423
L462.133 -542.784
L461.97 -545.145
L461.839 -547.507
L461.819 -549.868
L461.948 -552.229
L462.198 -554.591
L462.502 -556.952
L462.787 -559.313
L463.003 -561.675
L463.131 -564.036
L463.176 -566.397
L463.152 -568.758
L463.077 -571.12
L462.976 -573.481
L462.879 -575.842
L462.821 -578.204
L462.824 -580.565
L462.885 -582.926
L462.985 -585.287
L463.093 -587.649
L463.185 -590.01
L463.249 -592.371
L463.288 -594.733
L463.307 -597.094
L463.315 -599.455
L463.318 -601.816
L463.318 -604.178
L463.316 -606.539
L463.308 -608.9
L463.29 -611.262
L463.255 -613.623
L463.194 -615.984
L463.105 -618.345
L462.997 -620.707
L462.895 -623.068
L462.828 -625.429
L462.819 -627.791
L462.871 -630.152
L462.967 -632.513
L463.076 -634.874
L463.171 -637.236
L463.241 -639.597
L463.283 -641.958
L463.305 -644.32
L463.314 -646.681
L463.326 -646.681
L463.326 -646.681
L463.335 -644.32
L463.357 -641.958
L463.399 -639.597
L463.469 -637.236
L463.564 -634.874
L463.673 -632.513
L463.769 -630.152
L463.821 -627.791
L463.812 -625.429
L463.745 -623.068
L463.643 -620.707
L463.535 -618.345
L463.446 -615.984
L463.385 -613.623
L463.35 -611.262
L463.332 -608.9
L463.324 -606.539
L463.322 -604.178
L463.322 -601.816
L463.325 -599.455
L463.333 -597.094
L463.352 -594.733
L463.391 -592.371
L463.455 -590.01
L463.547 -587.649
L463.655 -585.287
L463.755 -582.926
L463.816 -580.565
L463.819 -578.204
L463.761 -575.842
L463.664 -573.481
L463.563 -571.12
L463.488 -568.758
L463.464 -566.397
L463.509 -564.036
L463.637 -561.675
L463.853 -559.313
L464.138 -556.952
L464.442 -554.591
L464.692 -552.229
L464.821 -549.868
L464.801 -547.507
L464.67 -545.145
L464.507 -542.784
L464.401 -540.423
L464.407 -538.062
L464.536 -535.7
L464.767 -533.339
L465.083 -530.978
L465.494 -528.616
L466.052 -526.255
L466.837 -523.894
L467.93 -521.533
L469.374 -519.171
L471.14 -516.81
L473.122 -514.449
L475.16 -512.087
L477.114 -509.726
L478.93 -507.365
L480.674 -505.004
L482.498 -502.642
L484.553 -500.281
L486.907 -497.92
L489.517 -495.558
L492.251 -493.197
L494.966 -490.836
L497.581 -488.475
L500.136 -486.113
L502.794 -483.752
L505.769 -481.391
L509.226 -479.029
L513.199 -476.668
L517.589 -474.307
L522.232 -471.946
L526.955 -469.584
L531.571 -467.223
L535.839 -464.862
L539.466 -462.5
L542.155 -460.139
L543.645 -457.778
L543.672 -455.417
L541.91 -453.055
L538.003 -450.694
L531.754 -448.333
L523.338 -445.971
L513.397 -443.61
L502.906 -441.249
L492.892 -438.888
L484.167 -436.526
L477.174 -434.165
L471.984 -431.804
L468.406 -429.442
L466.109 -427.081
L464.741 -424.72
L463.988 -422.359
L463.607 -419.997
L463.432 -417.636
L463.36 -415.275
L463.333 -412.913
z
" id="m426d74223a" style="stroke:#619c6f;stroke-width:0.3;"/>
    </defs>
    <g clip-path="url(#p55a2aadd3b)">
     <use style="fill:#619c6f;stroke:#619c6f;stroke-width:0.3;" x="0.0" xlink:href="#m426d74223a" y="720.0"/>
    </g>
   </g>
   <g id="PolyCollection_3">
    <defs>
     <path d="
M664.218 -420.72
L664.182 -420.72
L664.166 -421.891
L664.138 -423.062
L664.09 -424.233
L664.013 -425.404
L663.894 -426.574
L663.718 -427.745
L663.465 -428.916
L663.116 -430.087
L662.649 -431.258
L662.04 -432.429
L661.269 -433.6
L660.314 -434.77
L659.158 -435.941
L657.786 -437.112
L656.187 -438.283
L654.355 -439.454
L652.286 -440.625
L649.984 -441.796
L647.46 -442.966
L644.734 -444.137
L641.838 -445.308
L638.815 -446.479
L635.718 -447.65
L632.599 -448.821
L629.501 -449.991
L626.445 -451.162
L623.43 -452.333
L620.435 -453.504
L617.431 -454.675
L614.401 -455.846
L611.36 -457.017
L608.362 -458.187
L605.494 -459.358
L602.864 -460.529
L600.569 -461.7
L598.671 -462.871
L597.175 -464.042
L596.021 -465.213
L595.099 -466.383
L594.264 -467.554
L593.374 -468.725
L592.321 -469.896
L591.053 -471.067
L589.592 -472.238
L588.03 -473.409
L586.513 -474.579
L585.211 -475.75
L584.285 -476.921
L583.848 -478.092
L583.949 -479.263
L584.558 -480.434
L585.579 -481.604
L586.873 -482.775
L588.286 -483.946
L589.687 -485.117
L590.987 -486.288
L592.155 -487.459
L593.218 -488.63
L594.248 -489.8
L595.34 -490.971
L596.595 -492.142
L598.096 -493.313
L599.893 -494.484
L601.999 -495.655
L604.387 -496.826
L607.003 -497.996
L609.781 -499.167
L612.654 -500.338
L615.571 -501.509
L618.507 -502.68
L621.455 -503.851
L624.428 -505.022
L627.445 -506.192
L630.516 -507.363
L633.637 -508.534
L636.783 -509.705
L639.906 -510.876
L642.947 -512.047
L645.842 -513.217
L648.533 -514.388
L650.98 -515.559
L653.159 -516.73
L655.07 -517.901
L656.726 -519.072
L658.151 -520.243
L659.371 -521.413
L660.409 -522.584
L661.283 -523.755
L662.01 -524.926
L662.601 -526.097
L663.069 -527.268
L663.427 -528.439
L663.691 -529.609
L663.877 -530.78
L664.004 -531.951
L664.085 -533.122
L664.136 -534.293
L664.166 -535.464
L664.182 -536.635
L664.218 -536.635
L664.218 -536.635
L664.234 -535.464
L664.264 -534.293
L664.315 -533.122
L664.396 -531.951
L664.523 -530.78
L664.709 -529.609
L664.973 -528.439
L665.331 -527.268
L665.799 -526.097
L666.39 -524.926
L667.117 -523.755
L667.991 -522.584
L669.029 -521.413
L670.249 -520.243
L671.674 -519.072
L673.33 -517.901
L675.241 -516.73
L677.42 -515.559
L679.867 -514.388
L682.558 -513.217
L685.453 -512.047
L688.494 -510.876
L691.617 -509.705
L694.763 -508.534
L697.884 -507.363
L700.955 -506.192
L703.972 -505.022
L706.945 -503.851
L709.893 -502.68
L712.829 -501.509
L715.746 -500.338
L718.619 -499.167
L721.397 -497.996
L724.013 -496.826
L726.401 -495.655
L728.507 -494.484
L730.304 -493.313
L731.805 -492.142
L733.06 -490.971
L734.152 -489.8
L735.182 -488.63
L736.245 -487.459
L737.413 -486.288
L738.713 -485.117
L740.114 -483.946
L741.527 -482.775
L742.821 -481.604
L743.842 -480.434
L744.451 -479.263
L744.552 -478.092
L744.115 -476.921
L743.189 -475.75
L741.887 -474.579
L740.37 -473.409
L738.808 -472.238
L737.347 -471.067
L736.079 -469.896
L735.026 -468.725
L734.136 -467.554
L733.301 -466.383
L732.379 -465.213
L731.225 -464.042
L729.729 -462.871
L727.831 -461.7
L725.536 -460.529
L722.906 -459.358
L720.038 -458.187
L717.04 -457.017
L713.999 -455.846
L710.969 -454.675
L707.965 -453.504
L704.97 -452.333
L701.955 -451.162
L698.899 -449.991
L695.801 -448.821
L692.682 -447.65
L689.585 -446.479
L686.562 -445.308
L683.666 -444.137
L680.94 -442.966
L678.416 -441.796
L676.114 -440.625
L674.045 -439.454
L672.213 -438.283
L670.614 -437.112
L669.242 -435.941
L668.086 -434.77
L667.131 -433.6
L666.36 -432.429
L665.751 -431.258
L665.284 -430.087
L664.935 -428.916
L664.682 -427.745
L664.506 -426.574
L664.387 -425.404
L664.31 -424.233
L664.262 -423.062
L664.234 -421.891
L664.218 -420.72
z
" id="m547cb4df8d" style="stroke:#b26063;stroke-width:0.3;"/>
    </defs>
    <g clip-path="url(#p55a2aadd3b)">
     <use style="fill:#b26063;stroke:#b26063;stroke-width:0.3;" x="0.0" xlink:href="#m547cb4df8d" y="720.0"/>
    </g>
   </g>
   <g id="PolyCollection_4">
    <defs>
     <path d="
M865.101 -408.086
L865.059 -408.086
L865.029 -410.171
L864.961 -412.255
L864.82 -414.34
L864.549 -416.424
L864.062 -418.509
L863.246 -420.593
L861.969 -422.678
L860.095 -424.762
L857.51 -426.847
L854.144 -428.932
L849.983 -431.016
L845.074 -433.101
L839.517 -435.185
L833.457 -437.27
L827.077 -439.354
L820.584 -441.439
L814.193 -443.523
L808.11 -445.608
L802.506 -447.692
L797.522 -449.777
L793.263 -451.862
L789.82 -453.946
L787.255 -456.031
L785.592 -458.115
L784.79 -460.2
L784.728 -462.284
L785.216 -464.369
L786.018 -466.453
L786.888 -468.538
L787.607 -470.623
L788.017 -472.707
L788.043 -474.792
L787.707 -476.876
L787.122 -478.961
L786.462 -481.045
L785.923 -483.13
L785.684 -485.214
L785.883 -487.299
L786.625 -489.383
L787.998 -491.468
L790.095 -493.553
L793.007 -495.637
L796.801 -497.722
L801.47 -499.806
L806.896 -501.891
L812.843 -503.975
L818.982 -506.06
L824.967 -508.144
L830.504 -510.229
L835.41 -512.314
L839.627 -514.398
L843.201 -516.483
L846.234 -518.567
L848.832 -520.652
L851.076 -522.736
L853.012 -524.821
L854.662 -526.905
L856.035 -528.99
L857.145 -531.075
L858.015 -533.159
L858.682 -535.244
L859.197 -537.328
L859.616 -539.413
L859.995 -541.497
L860.38 -543.582
L860.798 -545.666
L861.259 -547.751
L861.756 -549.835
L862.271 -551.92
L862.785 -554.005
L863.275 -556.089
L863.719 -558.174
L864.103 -560.258
L864.415 -562.343
L864.652 -564.427
L864.82 -566.512
L864.929 -568.596
L864.991 -570.681
L865.016 -572.766
L865.01 -574.85
L864.975 -576.935
L864.91 -579.019
L864.815 -581.104
L864.695 -583.188
L864.561 -585.273
L864.433 -587.357
L864.334 -589.442
L864.285 -591.527
L864.298 -593.611
L864.368 -595.696
L864.481 -597.78
L864.614 -599.865
L864.745 -601.949
L864.857 -604.034
L864.943 -606.118
L865.002 -608.203
L865.039 -610.287
L865.06 -612.372
L865.071 -614.457
L865.089 -614.457
L865.089 -614.457
L865.1 -612.372
L865.121 -610.287
L865.158 -608.203
L865.217 -606.118
L865.303 -604.034
L865.415 -601.949
L865.546 -599.865
L865.679 -597.78
L865.792 -595.696
L865.862 -593.611
L865.875 -591.527
L865.826 -589.442
L865.727 -587.357
L865.599 -585.273
L865.465 -583.188
L865.345 -581.104
L865.25 -579.019
L865.185 -576.935
L865.15 -574.85
L865.144 -572.766
L865.169 -570.681
L865.231 -568.596
L865.34 -566.512
L865.508 -564.427
L865.745 -562.343
L866.057 -560.258
L866.441 -558.174
L866.885 -556.089
L867.375 -554.005
L867.889 -551.92
L868.404 -549.835
L868.901 -547.751
L869.362 -545.666
L869.78 -543.582
L870.165 -541.497
L870.544 -539.413
L870.963 -537.328
L871.478 -535.244
L872.145 -533.159
L873.015 -531.075
L874.125 -528.99
L875.498 -526.905
L877.148 -524.821
L879.084 -522.736
L881.328 -520.652
L883.926 -518.567
L886.959 -516.483
L890.533 -514.398
L894.75 -512.314
L899.656 -510.229
L905.193 -508.144
L911.178 -506.06
L917.317 -503.975
L923.264 -501.891
L928.69 -499.806
L933.359 -497.722
L937.153 -495.637
L940.065 -493.553
L942.162 -491.468
L943.535 -489.383
L944.277 -487.299
L944.476 -485.214
L944.237 -483.13
L943.698 -481.045
L943.038 -478.961
L942.453 -476.876
L942.117 -474.792
L942.143 -472.707
L942.553 -470.623
L943.272 -468.538
L944.142 -466.453
L944.944 -464.369
L945.432 -462.284
L945.37 -460.2
L944.568 -458.115
L942.905 -456.031
L940.34 -453.946
L936.897 -451.862
L932.638 -449.777
L927.654 -447.692
L922.05 -445.608
L915.967 -443.523
L909.576 -441.439
L903.083 -439.354
L896.703 -437.27
L890.643 -435.185
L885.086 -433.101
L880.177 -431.016
L876.016 -428.932
L872.65 -426.847
L870.065 -424.762
L868.191 -422.678
L866.914 -420.593
L866.098 -418.509
L865.611 -416.424
L865.34 -414.34
L865.199 -412.255
L865.131 -410.171
L865.101 -408.086
z
" id="mf1860a477a" style="stroke:#867ca8;stroke-width:0.3;"/>
    </defs>
    <g clip-path="url(#p55a2aadd3b)">
     <use style="fill:#867ca8;stroke:#867ca8;stroke-width:0.3;" x="0.0" xlink:href="#mf1860a477a" y="720.0"/>
    </g>
   </g>
   <g id="PolyCollection_5">
    <defs>
     <path d="
M1065.97 -408.795
L1065.95 -408.795
L1065.93 -410.805
L1065.89 -412.814
L1065.82 -414.823
L1065.69 -416.833
L1065.46 -418.842
L1065.07 -420.851
L1064.48 -422.861
L1063.59 -424.87
L1062.35 -426.879
L1060.69 -428.889
L1058.57 -430.898
L1055.93 -432.908
L1052.75 -434.917
L1049.02 -436.926
L1044.72 -438.936
L1039.88 -440.945
L1034.57 -442.954
L1028.91 -444.964
L1023.08 -446.973
L1017.28 -448.983
L1011.68 -450.992
L1006.45 -453.001
L1001.68 -455.011
L997.425 -457.02
L993.739 -459.029
L990.681 -461.039
L988.32 -463.048
L986.709 -465.057
L985.839 -467.067
L985.608 -469.076
L985.819 -471.086
L986.228 -473.095
L986.621 -475.104
L986.882 -477.114
L987.023 -479.123
L987.157 -481.132
L987.441 -483.142
L988.007 -485.151
L988.921 -487.161
L990.187 -489.17
L991.778 -491.179
L993.678 -493.189
L995.908 -495.198
L998.528 -497.207
L1001.61 -499.217
L1005.2 -501.226
L1009.31 -503.235
L1013.87 -505.245
L1018.74 -507.254
L1023.71 -509.264
L1028.53 -511.273
L1032.99 -513.282
L1036.93 -515.292
L1040.31 -517.301
L1043.17 -519.31
L1045.64 -521.32
L1047.82 -523.329
L1049.78 -525.338
L1051.54 -527.348
L1053.08 -529.357
L1054.38 -531.367
L1055.44 -533.376
L1056.33 -535.385
L1057.13 -537.395
L1057.92 -539.404
L1058.75 -541.413
L1059.62 -543.423
L1060.51 -545.432
L1061.35 -547.442
L1062.1 -549.451
L1062.72 -551.46
L1063.23 -553.47
L1063.65 -555.479
L1064.02 -557.488
L1064.37 -559.498
L1064.7 -561.507
L1065 -563.516
L1065.26 -565.526
L1065.47 -567.535
L1065.6 -569.545
L1065.67 -571.554
L1065.67 -573.563
L1065.61 -575.573
L1065.51 -577.582
L1065.4 -579.591
L1065.3 -581.601
L1065.22 -583.61
L1065.2 -585.62
L1065.23 -587.629
L1065.3 -589.638
L1065.42 -591.648
L1065.54 -593.657
L1065.66 -595.666
L1065.76 -597.676
L1065.84 -599.685
L1065.89 -601.694
L1065.92 -603.704
L1065.94 -605.713
L1065.95 -607.723
L1065.97 -607.723
L1065.97 -607.723
L1065.98 -605.713
L1066 -603.704
L1066.03 -601.694
L1066.08 -599.685
L1066.16 -597.676
L1066.26 -595.666
L1066.38 -593.657
L1066.5 -591.648
L1066.62 -589.638
L1066.69 -587.629
L1066.72 -585.62
L1066.7 -583.61
L1066.62 -581.601
L1066.52 -579.591
L1066.41 -577.582
L1066.31 -575.573
L1066.25 -573.563
L1066.25 -571.554
L1066.32 -569.545
L1066.45 -567.535
L1066.66 -565.526
L1066.92 -563.516
L1067.22 -561.507
L1067.55 -559.498
L1067.9 -557.488
L1068.27 -555.479
L1068.69 -553.47
L1069.2 -551.46
L1069.82 -549.451
L1070.57 -547.442
L1071.41 -545.432
L1072.3 -543.423
L1073.17 -541.413
L1074 -539.404
L1074.79 -537.395
L1075.59 -535.385
L1076.48 -533.376
L1077.54 -531.367
L1078.84 -529.357
L1080.38 -527.348
L1082.14 -525.338
L1084.1 -523.329
L1086.28 -521.32
L1088.75 -519.31
L1091.61 -517.301
L1094.99 -515.292
L1098.93 -513.282
L1103.39 -511.273
L1108.21 -509.264
L1113.18 -507.254
L1118.05 -505.245
L1122.61 -503.235
L1126.72 -501.226
L1130.31 -499.217
L1133.39 -497.207
L1136.01 -495.198
L1138.24 -493.189
L1140.14 -491.179
L1141.73 -489.17
L1143 -487.161
L1143.91 -485.151
L1144.48 -483.142
L1144.76 -481.132
L1144.9 -479.123
L1145.04 -477.114
L1145.3 -475.104
L1145.69 -473.095
L1146.1 -471.086
L1146.31 -469.076
L1146.08 -467.067
L1145.21 -465.057
L1143.6 -463.048
L1141.24 -461.039
L1138.18 -459.029
L1134.5 -457.02
L1130.24 -455.011
L1125.47 -453.001
L1120.24 -450.992
L1114.64 -448.983
L1108.84 -446.973
L1103.01 -444.964
L1097.35 -442.954
L1092.04 -440.945
L1087.2 -438.936
L1082.9 -436.926
L1079.17 -434.917
L1075.99 -432.908
L1073.35 -430.898
L1071.23 -428.889
L1069.57 -426.879
L1068.33 -424.87
L1067.44 -422.861
L1066.85 -420.851
L1066.46 -418.842
L1066.23 -416.833
L1066.1 -414.823
L1066.03 -412.814
L1065.99 -410.805
L1065.97 -408.795
z
" id="m5d4b0a6714" style="stroke:#bfb281;stroke-width:0.3;"/>
    </defs>
    <g clip-path="url(#p55a2aadd3b)">
     <use style="fill:#bfb281;stroke:#bfb281;stroke-width:0.3;" x="0.0" xlink:href="#m5d4b0a6714" y="720.0"/>
    </g>
   </g>
   <g id="line2d_24">
    <path clip-path="url(#p55a2aadd3b)" d="
M186.908 263.079
L337.972 263.079" style="fill:none;stroke:#4c4c4c;stroke-dasharray:1.000000,3.000000;stroke-dashoffset:0.0;stroke-width:1.5;"/>
   </g>
   <g id="line2d_25">
    <path clip-path="url(#p55a2aadd3b)" d="
M207.337 227.299
L317.543 227.299" style="fill:none;stroke:#4c4c4c;stroke-dasharray:1.000000,3.000000;stroke-dashoffset:0.0;stroke-width:1.5;"/>
   </g>
   <g id="line2d_26">
    <path clip-path="url(#p55a2aadd3b)" d="
M187.502 247.688
L337.378 247.688" style="fill:none;stroke:#4c4c4c;stroke-dasharray:6.000000,6.000000;stroke-dashoffset:0.0;stroke-width:1.5;"/>
   </g>
   <g id="line2d_27">
    <path clip-path="url(#p55a2aadd3b)" d="
M262.409 308.937
L262.369 307.069
L262.286 305.201
L262.126 303.333
L261.835 301.465
L261.342 299.598
L260.556 297.73
L259.378 295.862
L257.715 293.994
L255.492 292.127
L252.671 290.259
L249.251 288.391
L245.263 286.523
L240.765 284.655
L235.826 282.788
L230.522 280.92
L224.946 279.052
L219.215 277.184
L213.482 275.317
L207.928 273.449
L202.749 271.581
L198.111 269.713
L194.124 267.845
L190.817 265.978
L188.144 264.11
L186.016 262.242
L184.352 260.374
L183.113 258.507
L182.33 256.639
L182.088 254.771
L182.497 252.903
L183.639 251.036
L185.528 249.168
L188.077 247.3
L191.098 245.432
L194.319 243.564
L197.442 241.697
L200.194 239.829
L202.394 237.961
L203.979 236.093
L205.016 234.226
L205.67 232.358
L206.169 230.49
L206.751 228.622
L207.638 226.754
L209.002 224.887
L210.953 223.019
L213.525 221.151
L216.679 219.283
L220.302 217.416
L224.229 215.548
L228.263 213.68
L232.204 211.812
L235.872 209.945
L239.134 208.077
L241.913 206.209
L244.198 204.341
L246.037 202.473
L247.514 200.606
L248.722 198.738
L249.733 196.87
L250.584 195.002
L251.28 193.135
L251.814 191.267
L252.191 189.399
L252.449 187.531
L252.662 185.663
L252.92 183.796
L253.313 181.928
L253.894 180.06
L254.671 178.192
L255.6 176.325
L256.605 174.457
L257.602 172.589
L258.517 170.721
L259.302 168.854
L259.94 166.986
L260.434 165.118
L260.805 163.25
L261.072 161.382
L261.256 159.515
L261.371 157.647
L261.43 155.779
L261.443 153.911
L261.429 152.044
L261.407 150.176
L261.4 148.308
L261.427 146.44
L261.496 144.572
L261.607 142.705
L261.747 140.837
L261.899 138.969
L262.044 137.101
L262.168 135.234
L262.266 133.366
L262.336 131.498
L262.381 129.63
L262.409 127.763
L262.425 125.895
L262.433 124.027" style="fill:none;stroke:#4c4c4c;stroke-linecap:round;stroke-width:1.5;"/>
   </g>
   <g id="line2d_28">
    <path clip-path="url(#p55a2aadd3b)" d="
M262.471 308.937
L262.511 307.069
L262.594 305.201
L262.754 303.333
L263.045 301.465
L263.538 299.598
L264.324 297.73
L265.502 295.862
L267.165 293.994
L269.388 292.127
L272.209 290.259
L275.629 288.391
L279.617 286.523
L284.115 284.655
L289.054 282.788
L294.358 280.92
L299.934 279.052
L305.665 277.184
L311.398 275.317
L316.952 273.449
L322.131 271.581
L326.769 269.713
L330.756 267.845
L334.063 265.978
L336.736 264.11
L338.864 262.242
L340.528 260.374
L341.767 258.507
L342.55 256.639
L342.792 254.771
L342.383 252.903
L341.241 251.036
L339.352 249.168
L336.803 247.3
L333.782 245.432
L330.561 243.564
L327.438 241.697
L324.686 239.829
L322.486 237.961
L320.901 236.093
L319.864 234.226
L319.21 232.358
L318.711 230.49
L318.129 228.622
L317.242 226.754
L315.878 224.887
L313.927 223.019
L311.355 221.151
L308.201 219.283
L304.578 217.416
L300.651 215.548
L296.617 213.68
L292.676 211.812
L289.008 209.945
L285.746 208.077
L282.967 206.209
L280.682 204.341
L278.843 202.473
L277.366 200.606
L276.158 198.738
L275.147 196.87
L274.296 195.002
L273.6 193.135
L273.066 191.267
L272.689 189.399
L272.431 187.531
L272.218 185.663
L271.96 183.796
L271.567 181.928
L270.986 180.06
L270.209 178.192
L269.28 176.325
L268.275 174.457
L267.278 172.589
L266.363 170.721
L265.578 168.854
L264.94 166.986
L264.446 165.118
L264.075 163.25
L263.808 161.382
L263.624 159.515
L263.509 157.647
L263.45 155.779
L263.437 153.911
L263.451 152.044
L263.473 150.176
L263.48 148.308
L263.453 146.44
L263.384 144.572
L263.273 142.705
L263.133 140.837
L262.981 138.969
L262.836 137.101
L262.712 135.234
L262.614 133.366
L262.544 131.498
L262.499 129.63
L262.471 127.763
L262.455 125.895
L262.447 124.027" style="fill:none;stroke:#4c4c4c;stroke-linecap:round;stroke-width:1.5;"/>
   </g>
   <g id="line2d_29">
    <path clip-path="url(#p55a2aadd3b)" d="
M385.347 267.429
L541.293 267.429" style="fill:none;stroke:#4c4c4c;stroke-dasharray:1.000000,3.000000;stroke-dashoffset:0.0;stroke-width:1.5;"/>
   </g>
   <g id="line2d_30">
    <path clip-path="url(#p55a2aadd3b)" d="
M419.37 239.679
L507.27 239.679" style="fill:none;stroke:#4c4c4c;stroke-dasharray:1.000000,3.000000;stroke-dashoffset:0.0;stroke-width:1.5;"/>
   </g>
   <g id="line2d_31">
    <path clip-path="url(#p55a2aadd3b)" d="
M389.48 255.942
L537.16 255.942" style="fill:none;stroke:#4c4c4c;stroke-dasharray:6.000000,6.000000;stroke-dashoffset:0.0;stroke-width:1.5;"/>
   </g>
   <g id="line2d_32">
    <path clip-path="url(#p55a2aadd3b)" d="
M463.307 307.087
L463.28 304.725
L463.208 302.364
L463.033 300.003
L462.652 297.641
L461.899 295.28
L460.531 292.919
L458.234 290.558
L454.656 288.196
L449.466 285.835
L442.473 283.474
L433.748 281.112
L423.734 278.751
L413.243 276.39
L403.302 274.029
L394.886 271.667
L388.637 269.306
L384.73 266.945
L382.968 264.583
L382.995 262.222
L384.485 259.861
L387.174 257.5
L390.801 255.138
L395.069 252.777
L399.685 250.416
L404.408 248.054
L409.051 245.693
L413.441 243.332
L417.414 240.971
L420.871 238.609
L423.846 236.248
L426.504 233.887
L429.059 231.525
L431.674 229.164
L434.389 226.803
L437.123 224.442
L439.733 222.08
L442.087 219.719
L444.142 217.358
L445.966 214.996
L447.71 212.635
L449.526 210.274
L451.48 207.913
L453.518 205.551
L455.5 203.19
L457.266 200.829
L458.71 198.467
L459.803 196.106
L460.588 193.745
L461.146 191.384
L461.557 189.022
L461.873 186.661
L462.104 184.3
L462.233 181.938
L462.239 179.577
L462.133 177.216
L461.97 174.855
L461.839 172.493
L461.819 170.132
L461.948 167.771
L462.198 165.409
L462.502 163.048
L462.787 160.687
L463.003 158.325
L463.131 155.964
L463.176 153.603
L463.152 151.242
L463.077 148.88
L462.976 146.519
L462.879 144.158
L462.821 141.796
L462.824 139.435
L462.885 137.074
L462.985 134.713
L463.093 132.351
L463.185 129.99
L463.249 127.629
L463.288 125.267
L463.307 122.906
L463.315 120.545
L463.318 118.184
L463.318 115.822
L463.316 113.461
L463.308 111.1
L463.29 108.738
L463.255 106.377
L463.194 104.016
L463.105 101.655
L462.997 99.2933
L462.895 96.932
L462.828 94.5708
L462.819 92.2095
L462.871 89.8482
L462.967 87.4869
L463.076 85.1256
L463.171 82.7643
L463.241 80.403
L463.283 78.0417
L463.305 75.6805
L463.314 73.3192" style="fill:none;stroke:#4c4c4c;stroke-linecap:round;stroke-width:1.5;"/>
   </g>
   <g id="line2d_33">
    <path clip-path="url(#p55a2aadd3b)" d="
M463.333 307.087
L463.36 304.725
L463.432 302.364
L463.607 300.003
L463.988 297.641
L464.741 295.28
L466.109 292.919
L468.406 290.558
L471.984 288.196
L477.174 285.835
L484.167 283.474
L492.892 281.112
L502.906 278.751
L513.397 276.39
L523.338 274.029
L531.754 271.667
L538.003 269.306
L541.91 266.945
L543.672 264.583
L543.645 262.222
L542.155 259.861
L539.466 257.5
L535.839 255.138
L531.571 252.777
L526.955 250.416
L522.232 248.054
L517.589 245.693
L513.199 243.332
L509.226 240.971
L505.769 238.609
L502.794 236.248
L500.136 233.887
L497.581 231.525
L494.966 229.164
L492.251 226.803
L489.517 224.442
L486.907 222.08
L484.553 219.719
L482.498 217.358
L480.674 214.996
L478.93 212.635
L477.114 210.274
L475.16 207.913
L473.122 205.551
L471.14 203.19
L469.374 200.829
L467.93 198.467
L466.837 196.106
L466.052 193.745
L465.494 191.384
L465.083 189.022
L464.767 186.661
L464.536 184.3
L464.407 181.938
L464.401 179.577
L464.507 177.216
L464.67 174.855
L464.801 172.493
L464.821 170.132
L464.692 167.771
L464.442 165.409
L464.138 163.048
L463.853 160.687
L463.637 158.325
L463.509 155.964
L463.464 153.603
L463.488 151.242
L463.563 148.88
L463.664 146.519
L463.761 144.158
L463.819 141.796
L463.816 139.435
L463.755 137.074
L463.655 134.713
L463.547 132.351
L463.455 129.99
L463.391 127.629
L463.352 125.267
L463.333 122.906
L463.325 120.545
L463.322 118.184
L463.322 115.822
L463.324 113.461
L463.332 111.1
L463.35 108.738
L463.385 106.377
L463.446 104.016
L463.535 101.655
L463.643 99.2933
L463.745 96.932
L463.812 94.5708
L463.821 92.2095
L463.769 89.8482
L463.673 87.4869
L463.564 85.1256
L463.469 82.7643
L463.399 80.403
L463.357 78.0417
L463.335 75.6805
L463.326 73.3192" style="fill:none;stroke:#4c4c4c;stroke-linecap:round;stroke-width:1.5;"/>
   </g>
   <g id="line2d_34">
    <path clip-path="url(#p55a2aadd3b)" d="
M596.624 255.437
L731.776 255.437" style="fill:none;stroke:#4c4c4c;stroke-dasharray:1.000000,3.000000;stroke-dashoffset:0.0;stroke-width:1.5;"/>
   </g>
   <g id="line2d_35">
    <path clip-path="url(#p55a2aadd3b)" d="
M596.739 227.735
L731.661 227.735" style="fill:none;stroke:#4c4c4c;stroke-dasharray:1.000000,3.000000;stroke-dashoffset:0.0;stroke-width:1.5;"/>
   </g>
   <g id="line2d_36">
    <path clip-path="url(#p55a2aadd3b)" d="
M583.835 241.287
L744.565 241.287" style="fill:none;stroke:#4c4c4c;stroke-dasharray:6.000000,6.000000;stroke-dashoffset:0.0;stroke-width:1.5;"/>
   </g>
   <g id="line2d_37">
    <path clip-path="url(#p55a2aadd3b)" d="
M664.182 299.28
L664.166 298.109
L664.138 296.938
L664.09 295.767
L664.013 294.596
L663.894 293.426
L663.718 292.255
L663.465 291.084
L663.116 289.913
L662.649 288.742
L662.04 287.571
L661.269 286.4
L660.314 285.23
L659.158 284.059
L657.786 282.888
L656.187 281.717
L654.355 280.546
L652.286 279.375
L649.984 278.204
L647.46 277.034
L644.734 275.863
L641.838 274.692
L638.815 273.521
L635.718 272.35
L632.599 271.179
L629.501 270.009
L626.445 268.838
L623.43 267.667
L620.435 266.496
L617.431 265.325
L614.401 264.154
L611.36 262.983
L608.362 261.813
L605.494 260.642
L602.864 259.471
L600.569 258.3
L598.671 257.129
L597.175 255.958
L596.021 254.787
L595.099 253.617
L594.264 252.446
L593.374 251.275
L592.321 250.104
L591.053 248.933
L589.592 247.762
L588.03 246.591
L586.513 245.421
L585.211 244.25
L584.285 243.079
L583.848 241.908
L583.949 240.737
L584.558 239.566
L585.579 238.396
L586.873 237.225
L588.286 236.054
L589.687 234.883
L590.987 233.712
L592.155 232.541
L593.218 231.37
L594.248 230.2
L595.34 229.029
L596.595 227.858
L598.096 226.687
L599.893 225.516
L601.999 224.345
L604.387 223.174
L607.003 222.004
L609.781 220.833
L612.654 219.662
L615.571 218.491
L618.507 217.32
L621.455 216.149
L624.428 214.978
L627.445 213.808
L630.516 212.637
L633.637 211.466
L636.783 210.295
L639.906 209.124
L642.947 207.953
L645.842 206.783
L648.533 205.612
L650.98 204.441
L653.159 203.27
L655.07 202.099
L656.726 200.928
L658.151 199.757
L659.371 198.587
L660.409 197.416
L661.283 196.245
L662.01 195.074
L662.601 193.903
L663.069 192.732
L663.427 191.561
L663.691 190.391
L663.877 189.22
L664.004 188.049
L664.085 186.878
L664.136 185.707
L664.166 184.536
L664.182 183.365" style="fill:none;stroke:#4c4c4c;stroke-linecap:round;stroke-width:1.5;"/>
   </g>
   <g id="line2d_38">
    <path clip-path="url(#p55a2aadd3b)" d="
M664.218 299.28
L664.234 298.109
L664.262 296.938
L664.31 295.767
L664.387 294.596
L664.506 293.426
L664.682 292.255
L664.935 291.084
L665.284 289.913
L665.751 288.742
L666.36 287.571
L667.131 286.4
L668.086 285.23
L669.242 284.059
L670.614 282.888
L672.213 281.717
L674.045 280.546
L676.114 279.375
L678.416 278.204
L680.94 277.034
L683.666 275.863
L686.562 274.692
L689.585 273.521
L692.682 272.35
L695.801 271.179
L698.899 270.009
L701.955 268.838
L704.97 267.667
L707.965 266.496
L710.969 265.325
L713.999 264.154
L717.04 262.983
L720.038 261.813
L722.906 260.642
L725.536 259.471
L727.831 258.3
L729.729 257.129
L731.225 255.958
L732.379 254.787
L733.301 253.617
L734.136 252.446
L735.026 251.275
L736.079 250.104
L737.347 248.933
L738.808 247.762
L740.37 246.591
L741.887 245.421
L743.189 244.25
L744.115 243.079
L744.552 241.908
L744.451 240.737
L743.842 239.566
L742.821 238.396
L741.527 237.225
L740.114 236.054
L738.713 234.883
L737.413 233.712
L736.245 232.541
L735.182 231.37
L734.152 230.2
L733.06 229.029
L731.805 227.858
L730.304 226.687
L728.507 225.516
L726.401 224.345
L724.013 223.174
L721.397 222.004
L718.619 220.833
L715.746 219.662
L712.829 218.491
L709.893 217.32
L706.945 216.149
L703.972 214.978
L700.955 213.808
L697.884 212.637
L694.763 211.466
L691.617 210.295
L688.494 209.124
L685.453 207.953
L682.558 206.783
L679.867 205.612
L677.42 204.441
L675.241 203.27
L673.33 202.099
L671.674 200.928
L670.249 199.757
L669.029 198.587
L667.991 197.416
L667.117 196.245
L666.39 195.074
L665.799 193.903
L665.331 192.732
L664.973 191.561
L664.709 190.391
L664.523 189.22
L664.396 188.049
L664.315 186.878
L664.264 185.707
L664.234 184.536
L664.218 183.365" style="fill:none;stroke:#4c4c4c;stroke-linecap:round;stroke-width:1.5;"/>
   </g>
   <g id="line2d_39">
    <path clip-path="url(#p55a2aadd3b)" d="
M785.981 262.487
L944.179 262.487" style="fill:none;stroke:#4c4c4c;stroke-dasharray:1.000000,3.000000;stroke-dashoffset:0.0;stroke-width:1.5;"/>
   </g>
   <g id="line2d_40">
    <path clip-path="url(#p55a2aadd3b)" d="
M789.943 226.575
L940.217 226.575" style="fill:none;stroke:#4c4c4c;stroke-dasharray:1.000000,3.000000;stroke-dashoffset:0.0;stroke-width:1.5;"/>
   </g>
   <g id="line2d_41">
    <path clip-path="url(#p55a2aadd3b)" d="
M787.926 244.234
L942.234 244.234" style="fill:none;stroke:#4c4c4c;stroke-dasharray:6.000000,6.000000;stroke-dashoffset:0.0;stroke-width:1.5;"/>
   </g>
   <g id="line2d_42">
    <path clip-path="url(#p55a2aadd3b)" d="
M865.059 311.914
L865.029 309.829
L864.961 307.745
L864.82 305.66
L864.549 303.576
L864.062 301.491
L863.246 299.407
L861.969 297.322
L860.095 295.238
L857.51 293.153
L854.144 291.068
L849.983 288.984
L845.074 286.899
L839.517 284.815
L833.457 282.73
L827.077 280.646
L820.584 278.561
L814.193 276.477
L808.11 274.392
L802.506 272.308
L797.522 270.223
L793.263 268.138
L789.82 266.054
L787.255 263.969
L785.592 261.885
L784.79 259.8
L784.728 257.716
L785.216 255.631
L786.018 253.547
L786.888 251.462
L787.607 249.377
L788.017 247.293
L788.043 245.208
L787.707 243.124
L787.122 241.039
L786.462 238.955
L785.923 236.87
L785.684 234.786
L785.883 232.701
L786.625 230.617
L787.998 228.532
L790.095 226.447
L793.007 224.363
L796.801 222.278
L801.47 220.194
L806.896 218.109
L812.843 216.025
L818.982 213.94
L824.967 211.856
L830.504 209.771
L835.41 207.686
L839.627 205.602
L843.201 203.517
L846.234 201.433
L848.832 199.348
L851.076 197.264
L853.012 195.179
L854.662 193.095
L856.035 191.01
L857.145 188.925
L858.015 186.841
L858.682 184.756
L859.197 182.672
L859.616 180.587
L859.995 178.503
L860.38 176.418
L860.798 174.334
L861.259 172.249
L861.756 170.165
L862.271 168.08
L862.785 165.995
L863.275 163.911
L863.719 161.826
L864.103 159.742
L864.415 157.657
L864.652 155.573
L864.82 153.488
L864.929 151.404
L864.991 149.319
L865.016 147.234
L865.01 145.15
L864.975 143.065
L864.91 140.981
L864.815 138.896
L864.695 136.812
L864.561 134.727
L864.433 132.643
L864.334 130.558
L864.285 128.473
L864.298 126.389
L864.368 124.304
L864.481 122.22
L864.614 120.135
L864.745 118.051
L864.857 115.966
L864.943 113.882
L865.002 111.797
L865.039 109.713
L865.06 107.628
L865.071 105.543" style="fill:none;stroke:#4c4c4c;stroke-linecap:round;stroke-width:1.5;"/>
   </g>
   <g id="line2d_43">
    <path clip-path="url(#p55a2aadd3b)" d="
M865.101 311.914
L865.131 309.829
L865.199 307.745
L865.34 305.66
L865.611 303.576
L866.098 301.491
L866.914 299.407
L868.191 297.322
L870.065 295.238
L872.65 293.153
L876.016 291.068
L880.177 288.984
L885.086 286.899
L890.643 284.815
L896.703 282.73
L903.083 280.646
L909.576 278.561
L915.967 276.477
L922.05 274.392
L927.654 272.308
L932.638 270.223
L936.897 268.138
L940.34 266.054
L942.905 263.969
L944.568 261.885
L945.37 259.8
L945.432 257.716
L944.944 255.631
L944.142 253.547
L943.272 251.462
L942.553 249.377
L942.143 247.293
L942.117 245.208
L942.453 243.124
L943.038 241.039
L943.698 238.955
L944.237 236.87
L944.476 234.786
L944.277 232.701
L943.535 230.617
L942.162 228.532
L940.065 226.447
L937.153 224.363
L933.359 222.278
L928.69 220.194
L923.264 218.109
L917.317 216.025
L911.178 213.94
L905.193 211.856
L899.656 209.771
L894.75 207.686
L890.533 205.602
L886.959 203.517
L883.926 201.433
L881.328 199.348
L879.084 197.264
L877.148 195.179
L875.498 193.095
L874.125 191.01
L873.015 188.925
L872.145 186.841
L871.478 184.756
L870.963 182.672
L870.544 180.587
L870.165 178.503
L869.78 176.418
L869.362 174.334
L868.901 172.249
L868.404 170.165
L867.889 168.08
L867.375 165.995
L866.885 163.911
L866.441 161.826
L866.057 159.742
L865.745 157.657
L865.508 155.573
L865.34 153.488
L865.231 151.404
L865.169 149.319
L865.144 147.234
L865.15 145.15
L865.185 143.065
L865.25 140.981
L865.345 138.896
L865.465 136.812
L865.599 134.727
L865.727 132.643
L865.826 130.558
L865.875 128.473
L865.862 126.389
L865.792 124.304
L865.679 122.22
L865.546 120.135
L865.415 118.051
L865.303 115.966
L865.217 113.882
L865.158 111.797
L865.121 109.713
L865.1 107.628
L865.089 105.543" style="fill:none;stroke:#4c4c4c;stroke-linecap:round;stroke-width:1.5;"/>
   </g>
   <g id="line2d_44">
    <path clip-path="url(#p55a2aadd3b)" d="
M987.783 256.379
L1144.14 256.379" style="fill:none;stroke:#4c4c4c;stroke-dasharray:1.000000,3.000000;stroke-dashoffset:0.0;stroke-width:1.5;"/>
   </g>
   <g id="line2d_45">
    <path clip-path="url(#p55a2aadd3b)" d="
M997.766 223.344
L1134.15 223.344" style="fill:none;stroke:#4c4c4c;stroke-dasharray:1.000000,3.000000;stroke-dashoffset:0.0;stroke-width:1.5;"/>
   </g>
   <g id="line2d_46">
    <path clip-path="url(#p55a2aadd3b)" d="
M987.073 240.006
L1144.85 240.006" style="fill:none;stroke:#4c4c4c;stroke-dasharray:6.000000,6.000000;stroke-dashoffset:0.0;stroke-width:1.5;"/>
   </g>
   <g id="line2d_47">
    <path clip-path="url(#p55a2aadd3b)" d="
M1065.95 311.205
L1065.93 309.195
L1065.89 307.186
L1065.82 305.177
L1065.69 303.167
L1065.46 301.158
L1065.07 299.149
L1064.48 297.139
L1063.59 295.13
L1062.35 293.121
L1060.69 291.111
L1058.57 289.102
L1055.93 287.092
L1052.75 285.083
L1049.02 283.074
L1044.72 281.064
L1039.88 279.055
L1034.57 277.046
L1028.91 275.036
L1023.08 273.027
L1017.28 271.017
L1011.68 269.008
L1006.45 266.999
L1001.68 264.989
L997.425 262.98
L993.739 260.971
L990.681 258.961
L988.32 256.952
L986.709 254.943
L985.839 252.933
L985.608 250.924
L985.819 248.914
L986.228 246.905
L986.621 244.896
L986.882 242.886
L987.023 240.877
L987.157 238.868
L987.441 236.858
L988.007 234.849
L988.921 232.839
L990.187 230.83
L991.778 228.821
L993.678 226.811
L995.908 224.802
L998.528 222.793
L1001.61 220.783
L1005.2 218.774
L1009.31 216.765
L1013.87 214.755
L1018.74 212.746
L1023.71 210.736
L1028.53 208.727
L1032.99 206.718
L1036.93 204.708
L1040.31 202.699
L1043.17 200.69
L1045.64 198.68
L1047.82 196.671
L1049.78 194.662
L1051.54 192.652
L1053.08 190.643
L1054.38 188.633
L1055.44 186.624
L1056.33 184.615
L1057.13 182.605
L1057.92 180.596
L1058.75 178.587
L1059.62 176.577
L1060.51 174.568
L1061.35 172.558
L1062.1 170.549
L1062.72 168.54
L1063.23 166.53
L1063.65 164.521
L1064.02 162.512
L1064.37 160.502
L1064.7 158.493
L1065 156.484
L1065.26 154.474
L1065.47 152.465
L1065.6 150.455
L1065.67 148.446
L1065.67 146.437
L1065.61 144.427
L1065.51 142.418
L1065.4 140.409
L1065.3 138.399
L1065.22 136.39
L1065.2 134.38
L1065.23 132.371
L1065.3 130.362
L1065.42 128.352
L1065.54 126.343
L1065.66 124.334
L1065.76 122.324
L1065.84 120.315
L1065.89 118.306
L1065.92 116.296
L1065.94 114.287
L1065.95 112.277" style="fill:none;stroke:#4c4c4c;stroke-linecap:round;stroke-width:1.5;"/>
   </g>
   <g id="line2d_48">
    <path clip-path="url(#p55a2aadd3b)" d="
M1065.97 311.205
L1065.99 309.195
L1066.03 307.186
L1066.1 305.177
L1066.23 303.167
L1066.46 301.158
L1066.85 299.149
L1067.44 297.139
L1068.33 295.13
L1069.57 293.121
L1071.23 291.111
L1073.35 289.102
L1075.99 287.092
L1079.17 285.083
L1082.9 283.074
L1087.2 281.064
L1092.04 279.055
L1097.35 277.046
L1103.01 275.036
L1108.84 273.027
L1114.64 271.017
L1120.24 269.008
L1125.47 266.999
L1130.24 264.989
L1134.5 262.98
L1138.18 260.971
L1141.24 258.961
L1143.6 256.952
L1145.21 254.943
L1146.08 252.933
L1146.31 250.924
L1146.1 248.914
L1145.69 246.905
L1145.3 244.896
L1145.04 242.886
L1144.9 240.877
L1144.76 238.868
L1144.48 236.858
L1143.91 234.849
L1143 232.839
L1141.73 230.83
L1140.14 228.821
L1138.24 226.811
L1136.01 224.802
L1133.39 222.793
L1130.31 220.783
L1126.72 218.774
L1122.61 216.765
L1118.05 214.755
L1113.18 212.746
L1108.21 210.736
L1103.39 208.727
L1098.93 206.718
L1094.99 204.708
L1091.61 202.699
L1088.75 200.69
L1086.28 198.68
L1084.1 196.671
L1082.14 194.662
L1080.38 192.652
L1078.84 190.643
L1077.54 188.633
L1076.48 186.624
L1075.59 184.615
L1074.79 182.605
L1074 180.596
L1073.17 178.587
L1072.3 176.577
L1071.41 174.568
L1070.57 172.558
L1069.82 170.549
L1069.2 168.54
L1068.69 166.53
L1068.27 164.521
L1067.9 162.512
L1067.55 160.502
L1067.22 158.493
L1066.92 156.484
L1066.66 154.474
L1066.45 152.465
L1066.32 150.455
L1066.25 148.446
L1066.25 146.437
L1066.31 144.427
L1066.41 142.418
L1066.52 140.409
L1066.62 138.399
L1066.7 136.39
L1066.72 134.38
L1066.69 132.371
L1066.62 130.362
L1066.5 128.352
L1066.38 126.343
L1066.26 124.334
L1066.16 122.324
L1066.08 120.315
L1066.03 118.306
L1066 116.296
L1065.98 114.287
L1065.97 112.277" style="fill:none;stroke:#4c4c4c;stroke-linecap:round;stroke-width:1.5;"/>
   </g>
   <g id="patch_3">
    <path d="
M162 325.636
L1166.4 325.636" style="fill:none;stroke:#000000;stroke-linecap:square;stroke-linejoin:miter;"/>
   </g>
   <g id="patch_4">
    <path d="
M162 325.636
L162 72" style="fill:none;stroke:#000000;stroke-linecap:square;stroke-linejoin:miter;"/>
   </g>
   <g id="text_16">
    <!-- Distribution of Centroid Distances by Cluster -->
    <defs>
     <path d="
M32.1719 -5.07812
Q28.375 -14.8438 24.75 -17.8125
Q21.1406 -20.7969 15.0938 -20.7969
L7.90625 -20.7969
L7.90625 -13.2812
L13.1875 -13.2812
Q16.8906 -13.2812 18.9375 -11.5156
Q21 -9.76562 23.4844 -3.21875
L25.0938 0.875
L2.98438 54.6875
L12.5 54.6875
L29.5938 11.9219
L46.6875 54.6875
L56.2031 54.6875
z
" id="BitstreamVeraSans-Roman-79"/>
     <path d="
M8.5 21.5781
L8.5 54.6875
L17.4844 54.6875
L17.4844 21.9219
Q17.4844 14.1562 20.5 10.2656
Q23.5312 6.39062 29.5938 6.39062
Q36.8594 6.39062 41.0781 11.0312
Q45.3125 15.6719 45.3125 23.6875
L45.3125 54.6875
L54.2969 54.6875
L54.2969 0
L45.3125 0
L45.3125 8.40625
Q42.0469 3.42188 37.7188 1
Q33.4062 -1.42188 27.6875 -1.42188
Q18.2656 -1.42188 13.375 4.4375
Q8.5 10.2969 8.5 21.5781" id="BitstreamVeraSans-Roman-75"/>
     <path d="
M37.1094 75.9844
L37.1094 68.5
L28.5156 68.5
Q23.6875 68.5 21.7969 66.5469
Q19.9219 64.5938 19.9219 59.5156
L19.9219 54.6875
L34.7188 54.6875
L34.7188 47.7031
L19.9219 47.7031
L19.9219 0
L10.8906 0
L10.8906 47.7031
L2.29688 47.7031
L2.29688 54.6875
L10.8906 54.6875
L10.8906 58.5
Q10.8906 67.625 15.1406 71.7969
Q19.3906 75.9844 28.6094 75.9844
z
" id="BitstreamVeraSans-Roman-66"/>
     <path d="
M9.42188 75.9844
L18.4062 75.9844
L18.4062 0
L9.42188 0
z
" id="BitstreamVeraSans-Roman-6c"/>
     <path d="
M48.6875 27.2969
Q48.6875 37.2031 44.6094 42.8438
Q40.5312 48.4844 33.4062 48.4844
Q26.2656 48.4844 22.1875 42.8438
Q18.1094 37.2031 18.1094 27.2969
Q18.1094 17.3906 22.1875 11.75
Q26.2656 6.10938 33.4062 6.10938
Q40.5312 6.10938 44.6094 11.75
Q48.6875 17.3906 48.6875 27.2969
M18.1094 46.3906
Q20.9531 51.2656 25.2656 53.625
Q29.5938 56 35.5938 56
Q45.5625 56 51.7812 48.0938
Q58.0156 40.1875 58.0156 27.2969
Q58.0156 14.4062 51.7812 6.48438
Q45.5625 -1.42188 35.5938 -1.42188
Q29.5938 -1.42188 25.2656 0.953125
Q20.9531 3.32812 18.1094 8.20312
L18.1094 0
L9.07812 0
L9.07812 75.9844
L18.1094 75.9844
z
" id="BitstreamVeraSans-Roman-62"/>
    </defs>
    <g style="fill:#262626;" transform="translate(530.3484375 67.0)scale(0.12 -0.12)">
     <use xlink:href="#BitstreamVeraSans-Roman-44"/>
     <use x="77.001953125" xlink:href="#BitstreamVeraSans-Roman-69"/>
     <use x="104.78515625" xlink:href="#BitstreamVeraSans-Roman-73"/>
     <use x="156.884765625" xlink:href="#BitstreamVeraSans-Roman-74"/>
     <use x="196.09375" xlink:href="#BitstreamVeraSans-Roman-72"/>
     <use x="237.20703125" xlink:href="#BitstreamVeraSans-Roman-69"/>
     <use x="264.990234375" xlink:href="#BitstreamVeraSans-Roman-62"/>
     <use x="328.466796875" xlink:href="#BitstreamVeraSans-Roman-75"/>
     <use x="391.845703125" xlink:href="#BitstreamVeraSans-Roman-74"/>
     <use x="431.0546875" xlink:href="#BitstreamVeraSans-Roman-69"/>
     <use x="458.837890625" xlink:href="#BitstreamVeraSans-Roman-6f"/>
     <use x="520.01953125" xlink:href="#BitstreamVeraSans-Roman-6e"/>
     <use x="583.3984375" xlink:href="#BitstreamVeraSans-Roman-20"/>
     <use x="615.185546875" xlink:href="#BitstreamVeraSans-Roman-6f"/>
     <use x="676.3671875" xlink:href="#BitstreamVeraSans-Roman-66"/>
     <use x="711.572265625" xlink:href="#BitstreamVeraSans-Roman-20"/>
     <use x="743.359375" xlink:href="#BitstreamVeraSans-Roman-43"/>
     <use x="813.18359375" xlink:href="#BitstreamVeraSans-Roman-65"/>
     <use x="874.70703125" xlink:href="#BitstreamVeraSans-Roman-6e"/>
     <use x="938.0859375" xlink:href="#BitstreamVeraSans-Roman-74"/>
     <use x="977.294921875" xlink:href="#BitstreamVeraSans-Roman-72"/>
     <use x="1016.15820312" xlink:href="#BitstreamVeraSans-Roman-6f"/>
     <use x="1077.33984375" xlink:href="#BitstreamVeraSans-Roman-69"/>
     <use x="1105.12304688" xlink:href="#BitstreamVeraSans-Roman-64"/>
     <use x="1168.59960938" xlink:href="#BitstreamVeraSans-Roman-20"/>
     <use x="1200.38671875" xlink:href="#BitstreamVeraSans-Roman-44"/>
     <use x="1277.38867188" xlink:href="#BitstreamVeraSans-Roman-69"/>
     <use x="1305.171875" xlink:href="#BitstreamVeraSans-Roman-73"/>
     <use x="1357.27148438" xlink:href="#BitstreamVeraSans-Roman-74"/>
     <use x="1396.48046875" xlink:href="#BitstreamVeraSans-Roman-61"/>
     <use x="1457.75976562" xlink:href="#BitstreamVeraSans-Roman-6e"/>
     <use x="1521.13867188" xlink:href="#BitstreamVeraSans-Roman-63"/>
     <use x="1576.11914062" xlink:href="#BitstreamVeraSans-Roman-65"/>
     <use x="1637.64257812" xlink:href="#BitstreamVeraSans-Roman-73"/>
     <use x="1689.7421875" xlink:href="#BitstreamVeraSans-Roman-20"/>
     <use x="1721.52929688" xlink:href="#BitstreamVeraSans-Roman-62"/>
     <use x="1785.00585938" xlink:href="#BitstreamVeraSans-Roman-79"/>
     <use x="1844.18554688" xlink:href="#BitstreamVeraSans-Roman-20"/>
     <use x="1875.97265625" xlink:href="#BitstreamVeraSans-Roman-43"/>
     <use x="1945.796875" xlink:href="#BitstreamVeraSans-Roman-6c"/>
     <use x="1973.58007812" xlink:href="#BitstreamVeraSans-Roman-75"/>
     <use x="2036.95898438" xlink:href="#BitstreamVeraSans-Roman-73"/>
     <use x="2089.05859375" xlink:href="#BitstreamVeraSans-Roman-74"/>
     <use x="2128.26757812" xlink:href="#BitstreamVeraSans-Roman-65"/>
     <use x="2189.79101562" xlink:href="#BitstreamVeraSans-Roman-72"/>
    </g>
   </g>
  </g>
  <g id="axes_2">
   <g id="patch_5">
    <path d="
M162 630
L1166.4 630
L1166.4 376.364
L162 376.364
z
" style="fill:#ffffff;"/>
   </g>
   <g id="matplotlib.axis_3">
    <g id="xtick_6">
     <g id="line2d_49">
      <path clip-path="url(#pe88aad526e)" d="
M262.44 630
L262.44 376.364" style="fill:none;stroke:#ffffff;stroke-linecap:round;"/>
     </g>
     <g id="line2d_50">
      <g>
       <use style="fill:#262626;stroke:#262626;" x="262.44" xlink:href="#m219da94a98" y="630.0"/>
      </g>
     </g>
     <g id="text_17">
      <!-- 0 -->
      <g style="fill:#262626;" transform="translate(265.199375 642.0390625)rotate(-90.0)scale(0.1 -0.1)">
       <use xlink:href="#BitstreamVeraSans-Roman-30"/>
      </g>
     </g>
    </g>
    <g id="xtick_7">
     <g id="line2d_51">
      <path clip-path="url(#pe88aad526e)" d="
M463.32 630
L463.32 376.364" style="fill:none;stroke:#ffffff;stroke-linecap:round;"/>
     </g>
     <g id="line2d_52">
      <g>
       <use style="fill:#262626;stroke:#262626;" x="463.32" xlink:href="#m219da94a98" y="630.0"/>
      </g>
     </g>
     <g id="text_18">
      <!-- 1 -->
      <g style="fill:#262626;" transform="translate(466.079375 641.340625)rotate(-90.0)scale(0.1 -0.1)">
       <use xlink:href="#BitstreamVeraSans-Roman-31"/>
      </g>
     </g>
    </g>
    <g id="xtick_8">
     <g id="line2d_53">
      <path clip-path="url(#pe88aad526e)" d="
M664.2 630
L664.2 376.364" style="fill:none;stroke:#ffffff;stroke-linecap:round;"/>
     </g>
     <g id="line2d_54">
      <g>
       <use style="fill:#262626;stroke:#262626;" x="664.2" xlink:href="#m219da94a98" y="630.0"/>
      </g>
     </g>
     <g id="text_19">
      <!-- 2 -->
      <g style="fill:#262626;" transform="translate(666.959375 641.628125)rotate(-90.0)scale(0.1 -0.1)">
       <use xlink:href="#BitstreamVeraSans-Roman-32"/>
      </g>
     </g>
    </g>
    <g id="xtick_9">
     <g id="line2d_55">
      <path clip-path="url(#pe88aad526e)" d="
M865.08 630
L865.08 376.364" style="fill:none;stroke:#ffffff;stroke-linecap:round;"/>
     </g>
     <g id="line2d_56">
      <g>
       <use style="fill:#262626;stroke:#262626;" x="865.08" xlink:href="#m219da94a98" y="630.0"/>
      </g>
     </g>
     <g id="text_20">
      <!-- 3 -->
      <g style="fill:#262626;" transform="translate(867.839375 641.7984375)rotate(-90.0)scale(0.1 -0.1)">
       <use xlink:href="#BitstreamVeraSans-Roman-33"/>
      </g>
     </g>
    </g>
    <g id="xtick_10">
     <g id="line2d_57">
      <path clip-path="url(#pe88aad526e)" d="
M1065.96 630
L1065.96 376.364" style="fill:none;stroke:#ffffff;stroke-linecap:round;"/>
     </g>
     <g id="line2d_58">
      <g>
       <use style="fill:#262626;stroke:#262626;" x="1065.96" xlink:href="#m219da94a98" y="630.0"/>
      </g>
     </g>
     <g id="text_21">
      <!-- 4 -->
      <g style="fill:#262626;" transform="translate(1068.719375 642.3125)rotate(-90.0)scale(0.1 -0.1)">
       <use xlink:href="#BitstreamVeraSans-Roman-34"/>
      </g>
     </g>
    </g>
   </g>
   <g id="matplotlib.axis_4">
    <g id="ytick_10">
     <g id="line2d_59">
      <path clip-path="url(#pe88aad526e)" d="
M162 630
L1166.4 630" style="fill:none;stroke:#ffffff;stroke-linecap:round;"/>
     </g>
     <g id="line2d_60">
      <g>
       <use style="fill:#262626;stroke:#262626;" x="162.0" xlink:href="#m219da94a98" y="630.0"/>
      </g>
     </g>
     <g id="text_22">
      <!-- 0.0 -->
      <g style="fill:#262626;" transform="translate(140.4203125 632.759375)scale(0.1 -0.1)">
       <use xlink:href="#BitstreamVeraSans-Roman-30"/>
       <use x="63.623046875" xlink:href="#BitstreamVeraSans-Roman-2e"/>
       <use x="95.41015625" xlink:href="#BitstreamVeraSans-Roman-30"/>
      </g>
     </g>
    </g>
    <g id="ytick_11">
     <g id="line2d_61">
      <path clip-path="url(#pe88aad526e)" d="
M162 587.727
L1166.4 587.727" style="fill:none;stroke:#ffffff;stroke-linecap:round;"/>
     </g>
     <g id="line2d_62">
      <g>
       <use style="fill:#262626;stroke:#262626;" x="162.0" xlink:href="#m219da94a98" y="587.727272727"/>
      </g>
     </g>
     <g id="text_23">
      <!-- 0.1 -->
      <g style="fill:#262626;" transform="translate(140.6796875 590.486647727)scale(0.1 -0.1)">
       <use xlink:href="#BitstreamVeraSans-Roman-30"/>
       <use x="63.623046875" xlink:href="#BitstreamVeraSans-Roman-2e"/>
       <use x="95.41015625" xlink:href="#BitstreamVeraSans-Roman-31"/>
      </g>
     </g>
    </g>
    <g id="ytick_12">
     <g id="line2d_63">
      <path clip-path="url(#pe88aad526e)" d="
M162 545.455
L1166.4 545.455" style="fill:none;stroke:#ffffff;stroke-linecap:round;"/>
     </g>
     <g id="line2d_64">
      <g>
       <use style="fill:#262626;stroke:#262626;" x="162.0" xlink:href="#m219da94a98" y="545.454545455"/>
      </g>
     </g>
     <g id="text_24">
      <!-- 0.2 -->
      <g style="fill:#262626;" transform="translate(140.7578125 548.213920455)scale(0.1 -0.1)">
       <use xlink:href="#BitstreamVeraSans-Roman-30"/>
       <use x="63.623046875" xlink:href="#BitstreamVeraSans-Roman-2e"/>
       <use x="95.41015625" xlink:href="#BitstreamVeraSans-Roman-32"/>
      </g>
     </g>
    </g>
    <g id="ytick_13">
     <g id="line2d_65">
      <path clip-path="url(#pe88aad526e)" d="
M162 503.182
L1166.4 503.182" style="fill:none;stroke:#ffffff;stroke-linecap:round;"/>
     </g>
     <g id="line2d_66">
      <g>
       <use style="fill:#262626;stroke:#262626;" x="162.0" xlink:href="#m219da94a98" y="503.181818182"/>
      </g>
     </g>
     <g id="text_25">
      <!-- 0.3 -->
      <g style="fill:#262626;" transform="translate(140.5578125 505.941193182)scale(0.1 -0.1)">
       <use xlink:href="#BitstreamVeraSans-Roman-30"/>
       <use x="63.623046875" xlink:href="#BitstreamVeraSans-Roman-2e"/>
       <use x="95.41015625" xlink:href="#BitstreamVeraSans-Roman-33"/>
      </g>
     </g>
    </g>
    <g id="ytick_14">
     <g id="line2d_67">
      <path clip-path="url(#pe88aad526e)" d="
M162 460.909
L1166.4 460.909" style="fill:none;stroke:#ffffff;stroke-linecap:round;"/>
     </g>
     <g id="line2d_68">
      <g>
       <use style="fill:#262626;stroke:#262626;" x="162.0" xlink:href="#m219da94a98" y="460.909090909"/>
      </g>
     </g>
     <g id="text_26">
      <!-- 0.4 -->
      <g style="fill:#262626;" transform="translate(140.3171875 463.668465909)scale(0.1 -0.1)">
       <use xlink:href="#BitstreamVeraSans-Roman-30"/>
       <use x="63.623046875" xlink:href="#BitstreamVeraSans-Roman-2e"/>
       <use x="95.41015625" xlink:href="#BitstreamVeraSans-Roman-34"/>
      </g>
     </g>
    </g>
    <g id="ytick_15">
     <g id="line2d_69">
      <path clip-path="url(#pe88aad526e)" d="
M162 418.636
L1166.4 418.636" style="fill:none;stroke:#ffffff;stroke-linecap:round;"/>
     </g>
     <g id="line2d_70">
      <g>
       <use style="fill:#262626;stroke:#262626;" x="162.0" xlink:href="#m219da94a98" y="418.636363636"/>
      </g>
     </g>
     <g id="text_27">
      <!-- 0.5 -->
      <g style="fill:#262626;" transform="translate(140.6296875 421.395738636)scale(0.1 -0.1)">
       <use xlink:href="#BitstreamVeraSans-Roman-30"/>
       <use x="63.623046875" xlink:href="#BitstreamVeraSans-Roman-2e"/>
       <use x="95.41015625" xlink:href="#BitstreamVeraSans-Roman-35"/>
      </g>
     </g>
    </g>
    <g id="ytick_16">
     <g id="line2d_71">
      <path clip-path="url(#pe88aad526e)" d="
M162 376.364
L1166.4 376.364" style="fill:none;stroke:#ffffff;stroke-linecap:round;"/>
     </g>
     <g id="line2d_72">
      <g>
       <use style="fill:#262626;stroke:#262626;" x="162.0" xlink:href="#m219da94a98" y="376.363636364"/>
      </g>
     </g>
     <g id="text_28">
      <!-- 0.6 -->
      <g style="fill:#262626;" transform="translate(140.3859375 379.123011364)scale(0.1 -0.1)">
       <use xlink:href="#BitstreamVeraSans-Roman-30"/>
       <use x="63.623046875" xlink:href="#BitstreamVeraSans-Roman-2e"/>
       <use x="95.41015625" xlink:href="#BitstreamVeraSans-Roman-36"/>
      </g>
     </g>
    </g>
    <g id="text_29">
     <!-- Coefficient of Variation -->
     <defs>
      <path d="
M28.6094 0
L0.78125 72.9062
L11.0781 72.9062
L34.1875 11.5312
L57.3281 72.9062
L67.5781 72.9062
L39.7969 0
z
" id="BitstreamVeraSans-Roman-56"/>
     </defs>
     <g style="fill:#262626;" transform="translate(133.02953125 565.482208807)rotate(-90.0)scale(0.11 -0.11)">
      <use xlink:href="#BitstreamVeraSans-Roman-43"/>
      <use x="69.82421875" xlink:href="#BitstreamVeraSans-Roman-6f"/>
      <use x="131.005859375" xlink:href="#BitstreamVeraSans-Roman-65"/>
      <use x="192.529296875" xlink:href="#BitstreamVeraSans-Roman-66"/>
      <use x="227.734375" xlink:href="#BitstreamVeraSans-Roman-66"/>
      <use x="262.939453125" xlink:href="#BitstreamVeraSans-Roman-69"/>
      <use x="290.72265625" xlink:href="#BitstreamVeraSans-Roman-63"/>
      <use x="345.703125" xlink:href="#BitstreamVeraSans-Roman-69"/>
      <use x="373.486328125" xlink:href="#BitstreamVeraSans-Roman-65"/>
      <use x="435.009765625" xlink:href="#BitstreamVeraSans-Roman-6e"/>
      <use x="498.388671875" xlink:href="#BitstreamVeraSans-Roman-74"/>
      <use x="537.59765625" xlink:href="#BitstreamVeraSans-Roman-20"/>
      <use x="569.384765625" xlink:href="#BitstreamVeraSans-Roman-6f"/>
      <use x="630.56640625" xlink:href="#BitstreamVeraSans-Roman-66"/>
      <use x="665.771484375" xlink:href="#BitstreamVeraSans-Roman-20"/>
      <use x="697.55859375" xlink:href="#BitstreamVeraSans-Roman-56"/>
      <use x="758.216796875" xlink:href="#BitstreamVeraSans-Roman-61"/>
      <use x="819.49609375" xlink:href="#BitstreamVeraSans-Roman-72"/>
      <use x="860.609375" xlink:href="#BitstreamVeraSans-Roman-69"/>
      <use x="888.392578125" xlink:href="#BitstreamVeraSans-Roman-61"/>
      <use x="949.671875" xlink:href="#BitstreamVeraSans-Roman-74"/>
      <use x="988.880859375" xlink:href="#BitstreamVeraSans-Roman-69"/>
      <use x="1016.6640625" xlink:href="#BitstreamVeraSans-Roman-6f"/>
      <use x="1077.84570312" xlink:href="#BitstreamVeraSans-Roman-6e"/>
     </g>
    </g>
   </g>
   <g id="patch_6">
    <path clip-path="url(#pe88aad526e)" d="
M212.22 630
L312.66 630
L312.66 417.34
L212.22 417.34
z
" style="fill:#4c72b0;stroke:#000000;stroke-linejoin:miter;stroke-width:0.3;"/>
   </g>
   <g id="patch_7">
    <path clip-path="url(#pe88aad526e)" d="
M413.1 630
L513.54 630
L513.54 409.517
L413.1 409.517
z
" style="fill:#4c72b0;stroke:#000000;stroke-linejoin:miter;stroke-width:0.3;"/>
   </g>
   <g id="patch_8">
    <path clip-path="url(#pe88aad526e)" d="
M613.98 630
L714.42 630
L714.42 485.498
L613.98 485.498
z
" style="fill:#4c72b0;stroke:#000000;stroke-linejoin:miter;stroke-width:0.3;"/>
   </g>
   <g id="patch_9">
    <path clip-path="url(#pe88aad526e)" d="
M814.86 630
L915.3 630
L915.3 426.79
L814.86 426.79
z
" style="fill:#4c72b0;stroke:#000000;stroke-linejoin:miter;stroke-width:0.3;"/>
   </g>
   <g id="patch_10">
    <path clip-path="url(#pe88aad526e)" d="
M1015.74 630
L1116.18 630
L1116.18 443.557
L1015.74 443.557
z
" style="fill:#4c72b0;stroke:#000000;stroke-linejoin:miter;stroke-width:0.3;"/>
   </g>
   <g id="line2d_73">
    <path clip-path="url(#pe88aad526e)" d="
M162 630
L1166.4 630" style="fill:none;stroke:#000000;stroke-dasharray:6.000000,6.000000;stroke-dashoffset:0.0;stroke-width:1.75;"/>
   </g>
   <g id="patch_11">
    <path d="
M162 630
L1166.4 630" style="fill:none;stroke:#000000;stroke-linecap:square;stroke-linejoin:miter;"/>
   </g>
   <g id="patch_12">
    <path d="
M162 630
L162 376.364" style="fill:none;stroke:#000000;stroke-linecap:square;stroke-linejoin:miter;"/>
   </g>
   <g id="text_30">
    <!-- Coefficient of Variation by Cluster -->
    <g style="fill:#262626;" transform="translate(563.2575 371.363636364)scale(0.12 -0.12)">
     <use xlink:href="#BitstreamVeraSans-Roman-43"/>
     <use x="69.82421875" xlink:href="#BitstreamVeraSans-Roman-6f"/>
     <use x="131.005859375" xlink:href="#BitstreamVeraSans-Roman-65"/>
     <use x="192.529296875" xlink:href="#BitstreamVeraSans-Roman-66"/>
     <use x="227.734375" xlink:href="#BitstreamVeraSans-Roman-66"/>
     <use x="262.939453125" xlink:href="#BitstreamVeraSans-Roman-69"/>
     <use x="290.72265625" xlink:href="#BitstreamVeraSans-Roman-63"/>
     <use x="345.703125" xlink:href="#BitstreamVeraSans-Roman-69"/>
     <use x="373.486328125" xlink:href="#BitstreamVeraSans-Roman-65"/>
     <use x="435.009765625" xlink:href="#BitstreamVeraSans-Roman-6e"/>
     <use x="498.388671875" xlink:href="#BitstreamVeraSans-Roman-74"/>
     <use x="537.59765625" xlink:href="#BitstreamVeraSans-Roman-20"/>
     <use x="569.384765625" xlink:href="#BitstreamVeraSans-Roman-6f"/>
     <use x="630.56640625" xlink:href="#BitstreamVeraSans-Roman-66"/>
     <use x="665.771484375" xlink:href="#BitstreamVeraSans-Roman-20"/>
     <use x="697.55859375" xlink:href="#BitstreamVeraSans-Roman-56"/>
     <use x="758.216796875" xlink:href="#BitstreamVeraSans-Roman-61"/>
     <use x="819.49609375" xlink:href="#BitstreamVeraSans-Roman-72"/>
     <use x="860.609375" xlink:href="#BitstreamVeraSans-Roman-69"/>
     <use x="888.392578125" xlink:href="#BitstreamVeraSans-Roman-61"/>
     <use x="949.671875" xlink:href="#BitstreamVeraSans-Roman-74"/>
     <use x="988.880859375" xlink:href="#BitstreamVeraSans-Roman-69"/>
     <use x="1016.6640625" xlink:href="#BitstreamVeraSans-Roman-6f"/>
     <use x="1077.84570312" xlink:href="#BitstreamVeraSans-Roman-6e"/>
     <use x="1141.22460938" xlink:href="#BitstreamVeraSans-Roman-20"/>
     <use x="1173.01171875" xlink:href="#BitstreamVeraSans-Roman-62"/>
     <use x="1236.48828125" xlink:href="#BitstreamVeraSans-Roman-79"/>
     <use x="1295.66796875" xlink:href="#BitstreamVeraSans-Roman-20"/>
     <use x="1327.45507812" xlink:href="#BitstreamVeraSans-Roman-43"/>
     <use x="1397.27929688" xlink:href="#BitstreamVeraSans-Roman-6c"/>
     <use x="1425.0625" xlink:href="#BitstreamVeraSans-Roman-75"/>
     <use x="1488.44140625" xlink:href="#BitstreamVeraSans-Roman-73"/>
     <use x="1540.54101562" xlink:href="#BitstreamVeraSans-Roman-74"/>
     <use x="1579.75" xlink:href="#BitstreamVeraSans-Roman-65"/>
     <use x="1641.2734375" xlink:href="#BitstreamVeraSans-Roman-72"/>
    </g>
   </g>
  </g>
 </g>
 <defs>
  <clipPath id="pe88aad526e">
   <rect height="253.636363636" width="1004.4" x="162.0" y="376.363636364"/>
  </clipPath>
  <clipPath id="p55a2aadd3b">
   <rect height="253.636363636" width="1004.4" x="162.0" y="72.0"/>
  </clipPath>
 </defs>
</svg>
