<?xml version="1.0" encoding="utf-8" standalone="no"?>
<!DOCTYPE svg PUBLIC "-//W3C//DTD SVG 1.1//EN"
  "http://www.w3.org/Graphics/SVG/1.1/DTD/svg11.dtd">
<!-- Created with matplotlib (http://matplotlib.org/) -->
<svg height="720pt" version="1.1" viewBox="0 0 1296 720" width="1296pt" xmlns="http://www.w3.org/2000/svg" xmlns:xlink="http://www.w3.org/1999/xlink">
 <defs>
  <style type="text/css">
*{stroke-linecap:butt;stroke-linejoin:round;}
  </style>
 </defs>
 <g id="figure_1">
  <g id="patch_1">
   <path d="
M0 720
L1296 720
L1296 0
L0 0
z
" style="fill:#ffffff;"/>
  </g>
  <g id="axes_1">
   <g id="patch_2">
    <path d="
M162 325.636
L1166.4 325.636
L1166.4 72
L162 72
z
" style="fill:#ffffff;"/>
   </g>
   <g id="matplotlib.axis_1">
    <g id="xtick_1">
     <g id="line2d_1">
      <defs>
       <path d="
M0 0
L0 0" id="m48243eeccc" style="stroke:#000000;stroke-width:0.5;"/>
      </defs>
      <g>
       <use style="stroke:#000000;stroke-width:0.5;" x="262.44" xlink:href="#m48243eeccc" y="325.636363636"/>
      </g>
     </g>
     <g id="text_1">
      <!-- 0 -->
      <defs>
       <path d="
M31.7812 66.4062
Q24.1719 66.4062 20.3281 58.9062
Q16.5 51.4219 16.5 36.375
Q16.5 21.3906 20.3281 13.8906
Q24.1719 6.39062 31.7812 6.39062
Q39.4531 6.39062 43.2812 13.8906
Q47.125 21.3906 47.125 36.375
Q47.125 51.4219 43.2812 58.9062
Q39.4531 66.4062 31.7812 66.4062
M31.7812 74.2188
Q44.0469 74.2188 50.5156 64.5156
Q56.9844 54.8281 56.9844 36.375
Q56.9844 17.9688 50.5156 8.26562
Q44.0469 -1.42188 31.7812 -1.42188
Q19.5312 -1.42188 13.0625 8.26562
Q6.59375 17.9688 6.59375 36.375
Q6.59375 54.8281 13.0625 64.5156
Q19.5312 74.2188 31.7812 74.2188" id="BitstreamVeraSans-Roman-30"/>
      </defs>
      <g transform="translate(259.92046875 340.234801136)scale(0.1 -0.1)">
       <use xlink:href="#BitstreamVeraSans-Roman-30"/>
      </g>
     </g>
    </g>
    <g id="xtick_2">
     <g id="line2d_2">
      <g>
       <use style="stroke:#000000;stroke-width:0.5;" x="463.32" xlink:href="#m48243eeccc" y="325.636363636"/>
      </g>
     </g>
     <g id="text_2">
      <!-- 1 -->
      <defs>
       <path d="
M12.4062 8.29688
L28.5156 8.29688
L28.5156 63.9219
L10.9844 60.4062
L10.9844 69.3906
L28.4219 72.9062
L38.2812 72.9062
L38.2812 8.29688
L54.3906 8.29688
L54.3906 0
L12.4062 0
z
" id="BitstreamVeraSans-Roman-31"/>
      </defs>
      <g transform="translate(461.1496875 340.234801136)scale(0.1 -0.1)">
       <use xlink:href="#BitstreamVeraSans-Roman-31"/>
      </g>
     </g>
    </g>
    <g id="xtick_3">
     <g id="line2d_3">
      <g>
       <use style="stroke:#000000;stroke-width:0.5;" x="664.2" xlink:href="#m48243eeccc" y="325.636363636"/>
      </g>
     </g>
     <g id="text_3">
      <!-- 2 -->
      <defs>
       <path d="
M19.1875 8.29688
L53.6094 8.29688
L53.6094 0
L7.32812 0
L7.32812 8.29688
Q12.9375 14.1094 22.625 23.8906
Q32.3281 33.6875 34.8125 36.5312
Q39.5469 41.8438 41.4219 45.5312
Q43.3125 49.2188 43.3125 52.7812
Q43.3125 58.5938 39.2344 62.25
Q35.1562 65.9219 28.6094 65.9219
Q23.9688 65.9219 18.8125 64.3125
Q13.6719 62.7031 7.8125 59.4219
L7.8125 69.3906
Q13.7656 71.7812 18.9375 73
Q24.125 74.2188 28.4219 74.2188
Q39.75 74.2188 46.4844 68.5469
Q53.2188 62.8906 53.2188 53.4219
Q53.2188 48.9219 51.5312 44.8906
Q49.8594 40.875 45.4062 35.4062
Q44.1875 33.9844 37.6406 27.2188
Q31.1094 20.4531 19.1875 8.29688" id="BitstreamVeraSans-Roman-32"/>
      </defs>
      <g transform="translate(661.8859375 340.234801136)scale(0.1 -0.1)">
       <use xlink:href="#BitstreamVeraSans-Roman-32"/>
      </g>
     </g>
    </g>
    <g id="xtick_4">
     <g id="line2d_4">
      <g>
       <use style="stroke:#000000;stroke-width:0.5;" x="865.08" xlink:href="#m48243eeccc" y="325.636363636"/>
      </g>
     </g>
     <g id="text_4">
      <!-- 3 -->
      <defs>
       <path d="
M40.5781 39.3125
Q47.6562 37.7969 51.625 33
Q55.6094 28.2188 55.6094 21.1875
Q55.6094 10.4062 48.1875 4.48438
Q40.7656 -1.42188 27.0938 -1.42188
Q22.5156 -1.42188 17.6562 -0.515625
Q12.7969 0.390625 7.625 2.20312
L7.625 11.7188
Q11.7188 9.32812 16.5938 8.10938
Q21.4844 6.89062 26.8125 6.89062
Q36.0781 6.89062 40.9375 10.5469
Q45.7969 14.2031 45.7969 21.1875
Q45.7969 27.6406 41.2812 31.2656
Q36.7656 34.9062 28.7188 34.9062
L20.2188 34.9062
L20.2188 43.0156
L29.1094 43.0156
Q36.375 43.0156 40.2344 45.9219
Q44.0938 48.8281 44.0938 54.2969
Q44.0938 59.9062 40.1094 62.9062
Q36.1406 65.9219 28.7188 65.9219
Q24.6562 65.9219 20.0156 65.0312
Q15.375 64.1562 9.8125 62.3125
L9.8125 71.0938
Q15.4375 72.6562 20.3438 73.4375
Q25.25 74.2188 29.5938 74.2188
Q40.8281 74.2188 47.3594 69.1094
Q53.9062 64.0156 53.9062 55.3281
Q53.9062 49.2656 50.4375 45.0938
Q46.9688 40.9219 40.5781 39.3125" id="BitstreamVeraSans-Roman-33"/>
      </defs>
      <g transform="translate(862.68078125 340.234801136)scale(0.1 -0.1)">
       <use xlink:href="#BitstreamVeraSans-Roman-33"/>
      </g>
     </g>
    </g>
    <g id="xtick_5">
     <g id="line2d_5">
      <g>
       <use style="stroke:#000000;stroke-width:0.5;" x="1065.96" xlink:href="#m48243eeccc" y="325.636363636"/>
      </g>
     </g>
     <g id="text_5">
      <!-- 4 -->
      <defs>
       <path d="
M37.7969 64.3125
L12.8906 25.3906
L37.7969 25.3906
z

M35.2031 72.9062
L47.6094 72.9062
L47.6094 25.3906
L58.0156 25.3906
L58.0156 17.1875
L47.6094 17.1875
L47.6094 0
L37.7969 0
L37.7969 17.1875
L4.89062 17.1875
L4.89062 26.7031
z
" id="BitstreamVeraSans-Roman-34"/>
      </defs>
      <g transform="translate(1063.30375 340.234801136)scale(0.1 -0.1)">
       <use xlink:href="#BitstreamVeraSans-Roman-34"/>
      </g>
     </g>
    </g>
   </g>
   <g id="matplotlib.axis_2">
    <g id="ytick_1">
     <g id="line2d_6">
      <path clip-path="url(#p55a2aadd3b)" d="
M162 325.636
L1166.4 325.636" style="fill:none;stroke:#ffffff;stroke-linecap:round;stroke-width:0.8;"/>
     </g>
     <g id="line2d_7">
      <g>
       <use style="stroke:#000000;stroke-width:0.5;" x="162.0" xlink:href="#m48243eeccc" y="325.636363636"/>
      </g>
     </g>
     <g id="text_6">
      <!-- −0.1 -->
      <defs>
       <path d="
M10.5938 35.5
L73.1875 35.5
L73.1875 27.2031
L10.5938 27.2031
z
" id="BitstreamVeraSans-Roman-2212"/>
       <path d="
M10.6875 12.4062
L21 12.4062
L21 0
L10.6875 0
z
" id="BitstreamVeraSans-Roman-2e"/>
      </defs>
      <g transform="translate(132.7 328.395738636)scale(0.1 -0.1)">
       <use xlink:href="#BitstreamVeraSans-Roman-2212"/>
       <use x="83.7890625" xlink:href="#BitstreamVeraSans-Roman-30"/>
       <use x="147.412109375" xlink:href="#BitstreamVeraSans-Roman-2e"/>
       <use x="179.19921875" xlink:href="#BitstreamVeraSans-Roman-31"/>
      </g>
     </g>
    </g>
    <g id="ytick_2">
     <g id="line2d_8">
      <path clip-path="url(#p55a2aadd3b)" d="
M162 293.932
L1166.4 293.932" style="fill:none;stroke:#ffffff;stroke-linecap:round;stroke-width:0.8;"/>
     </g>
     <g id="line2d_9">
      <g>
       <use style="stroke:#000000;stroke-width:0.5;" x="162.0" xlink:href="#m48243eeccc" y="293.931818182"/>
      </g>
     </g>
     <g id="text_7">
      <!-- 0.0 -->
      <g transform="translate(140.4203125 296.691193182)scale(0.1 -0.1)">
       <use xlink:href="#BitstreamVeraSans-Roman-30"/>
       <use x="63.623046875" xlink:href="#BitstreamVeraSans-Roman-2e"/>
       <use x="95.41015625" xlink:href="#BitstreamVeraSans-Roman-30"/>
      </g>
     </g>
    </g>
    <g id="ytick_3">
     <g id="line2d_10">
      <path clip-path="url(#p55a2aadd3b)" d="
M162 262.227
L1166.4 262.227" style="fill:none;stroke:#ffffff;stroke-linecap:round;stroke-width:0.8;"/>
     </g>
     <g id="line2d_11">
      <g>
       <use style="stroke:#000000;stroke-width:0.5;" x="162.0" xlink:href="#m48243eeccc" y="262.227272727"/>
      </g>
     </g>
     <g id="text_8">
      <!-- 0.1 -->
      <g transform="translate(140.6796875 264.986647727)scale(0.1 -0.1)">
       <use xlink:href="#BitstreamVeraSans-Roman-30"/>
       <use x="63.623046875" xlink:href="#BitstreamVeraSans-Roman-2e"/>
       <use x="95.41015625" xlink:href="#BitstreamVeraSans-Roman-31"/>
      </g>
     </g>
    </g>
    <g id="ytick_4">
     <g id="line2d_12">
      <path clip-path="url(#p55a2aadd3b)" d="
M162 230.523
L1166.4 230.523" style="fill:none;stroke:#ffffff;stroke-linecap:round;stroke-width:0.8;"/>
     </g>
     <g id="line2d_13">
      <g>
       <use style="stroke:#000000;stroke-width:0.5;" x="162.0" xlink:href="#m48243eeccc" y="230.522727273"/>
      </g>
     </g>
     <g id="text_9">
      <!-- 0.2 -->
      <g transform="translate(140.7578125 233.282102273)scale(0.1 -0.1)">
       <use xlink:href="#BitstreamVeraSans-Roman-30"/>
       <use x="63.623046875" xlink:href="#BitstreamVeraSans-Roman-2e"/>
       <use x="95.41015625" xlink:href="#BitstreamVeraSans-Roman-32"/>
      </g>
     </g>
    </g>
    <g id="ytick_5">
     <g id="line2d_14">
      <path clip-path="url(#p55a2aadd3b)" d="
M162 198.818
L1166.4 198.818" style="fill:none;stroke:#ffffff;stroke-linecap:round;stroke-width:0.8;"/>
     </g>
     <g id="line2d_15">
      <g>
       <use style="stroke:#000000;stroke-width:0.5;" x="162.0" xlink:href="#m48243eeccc" y="198.818181818"/>
      </g>
     </g>
     <g id="text_10">
      <!-- 0.3 -->
      <g transform="translate(140.5578125 201.577556818)scale(0.1 -0.1)">
       <use xlink:href="#BitstreamVeraSans-Roman-30"/>
       <use x="63.623046875" xlink:href="#BitstreamVeraSans-Roman-2e"/>
       <use x="95.41015625" xlink:href="#BitstreamVeraSans-Roman-33"/>
      </g>
     </g>
    </g>
    <g id="ytick_6">
     <g id="line2d_16">
      <path clip-path="url(#p55a2aadd3b)" d="
M162 167.114
L1166.4 167.114" style="fill:none;stroke:#ffffff;stroke-linecap:round;stroke-width:0.8;"/>
     </g>
     <g id="line2d_17">
      <g>
       <use style="stroke:#000000;stroke-width:0.5;" x="162.0" xlink:href="#m48243eeccc" y="167.113636364"/>
      </g>
     </g>
     <g id="text_11">
      <!-- 0.4 -->
      <g transform="translate(140.3171875 169.873011364)scale(0.1 -0.1)">
       <use xlink:href="#BitstreamVeraSans-Roman-30"/>
       <use x="63.623046875" xlink:href="#BitstreamVeraSans-Roman-2e"/>
       <use x="95.41015625" xlink:href="#BitstreamVeraSans-Roman-34"/>
      </g>
     </g>
    </g>
    <g id="ytick_7">
     <g id="line2d_18">
      <path clip-path="url(#p55a2aadd3b)" d="
M162 135.409
L1166.4 135.409" style="fill:none;stroke:#ffffff;stroke-linecap:round;stroke-width:0.8;"/>
     </g>
     <g id="line2d_19">
      <g>
       <use style="stroke:#000000;stroke-width:0.5;" x="162.0" xlink:href="#m48243eeccc" y="135.409090909"/>
      </g>
     </g>
     <g id="text_12">
      <!-- 0.5 -->
      <defs>
       <path d="
M10.7969 72.9062
L49.5156 72.9062
L49.5156 64.5938
L19.8281 64.5938
L19.8281 46.7344
Q21.9688 47.4688 24.1094 47.8281
Q26.2656 48.1875 28.4219 48.1875
Q40.625 48.1875 47.75 41.5
Q54.8906 34.8125 54.8906 23.3906
Q54.8906 11.625 47.5625 5.09375
Q40.2344 -1.42188 26.9062 -1.42188
Q22.3125 -1.42188 17.5469 -0.640625
Q12.7969 0.140625 7.71875 1.70312
L7.71875 11.625
Q12.1094 9.23438 16.7969 8.0625
Q21.4844 6.89062 26.7031 6.89062
Q35.1562 6.89062 40.0781 11.3281
Q45.0156 15.7656 45.0156 23.3906
Q45.0156 31 40.0781 35.4375
Q35.1562 39.8906 26.7031 39.8906
Q22.75 39.8906 18.8125 39.0156
Q14.8906 38.1406 10.7969 36.2812
z
" id="BitstreamVeraSans-Roman-35"/>
      </defs>
      <g transform="translate(140.6296875 138.168465909)scale(0.1 -0.1)">
       <use xlink:href="#BitstreamVeraSans-Roman-30"/>
       <use x="63.623046875" xlink:href="#BitstreamVeraSans-Roman-2e"/>
       <use x="95.41015625" xlink:href="#BitstreamVeraSans-Roman-35"/>
      </g>
     </g>
    </g>
    <g id="ytick_8">
     <g id="line2d_20">
      <path clip-path="url(#p55a2aadd3b)" d="
M162 103.705
L1166.4 103.705" style="fill:none;stroke:#ffffff;stroke-linecap:round;stroke-width:0.8;"/>
     </g>
     <g id="line2d_21">
      <g>
       <use style="stroke:#000000;stroke-width:0.5;" x="162.0" xlink:href="#m48243eeccc" y="103.704545455"/>
      </g>
     </g>
     <g id="text_13">
      <!-- 0.6 -->
      <defs>
       <path d="
M33.0156 40.375
Q26.375 40.375 22.4844 35.8281
Q18.6094 31.2969 18.6094 23.3906
Q18.6094 15.5312 22.4844 10.9531
Q26.375 6.39062 33.0156 6.39062
Q39.6562 6.39062 43.5312 10.9531
Q47.4062 15.5312 47.4062 23.3906
Q47.4062 31.2969 43.5312 35.8281
Q39.6562 40.375 33.0156 40.375
M52.5938 71.2969
L52.5938 62.3125
Q48.875 64.0625 45.0938 64.9844
Q41.3125 65.9219 37.5938 65.9219
Q27.8281 65.9219 22.6719 59.3281
Q17.5312 52.7344 16.7969 39.4062
Q19.6719 43.6562 24.0156 45.9219
Q28.375 48.1875 33.5938 48.1875
Q44.5781 48.1875 50.9531 41.5156
Q57.3281 34.8594 57.3281 23.3906
Q57.3281 12.1562 50.6875 5.35938
Q44.0469 -1.42188 33.0156 -1.42188
Q20.3594 -1.42188 13.6719 8.26562
Q6.98438 17.9688 6.98438 36.375
Q6.98438 53.6562 15.1875 63.9375
Q23.3906 74.2188 37.2031 74.2188
Q40.9219 74.2188 44.7031 73.4844
Q48.4844 72.75 52.5938 71.2969" id="BitstreamVeraSans-Roman-36"/>
      </defs>
      <g transform="translate(140.3859375 106.463920455)scale(0.1 -0.1)">
       <use xlink:href="#BitstreamVeraSans-Roman-30"/>
       <use x="63.623046875" xlink:href="#BitstreamVeraSans-Roman-2e"/>
       <use x="95.41015625" xlink:href="#BitstreamVeraSans-Roman-36"/>
      </g>
     </g>
    </g>
    <g id="ytick_9">
     <g id="line2d_22">
      <path clip-path="url(#p55a2aadd3b)" d="
M162 72
L1166.4 72" style="fill:none;stroke:#ffffff;stroke-linecap:round;stroke-width:0.8;"/>
     </g>
     <g id="line2d_23">
      <g>
       <use style="stroke:#000000;stroke-width:0.5;" x="162.0" xlink:href="#m48243eeccc" y="72.0"/>
      </g>
     </g>
     <g id="text_14">
      <!-- 0.7 -->
      <defs>
       <path d="
M8.20312 72.9062
L55.0781 72.9062
L55.0781 68.7031
L28.6094 0
L18.3125 0
L43.2188 64.5938
L8.20312 64.5938
z
" id="BitstreamVeraSans-Roman-37"/>
      </defs>
      <g transform="translate(140.6109375 74.759375)scale(0.1 -0.1)">
       <use xlink:href="#BitstreamVeraSans-Roman-30"/>
       <use x="63.623046875" xlink:href="#BitstreamVeraSans-Roman-2e"/>
       <use x="95.41015625" xlink:href="#BitstreamVeraSans-Roman-37"/>
      </g>
     </g>
    </g>
    <g id="text_15">
     <!-- Distance to Centroid -->
     <defs>
      <path id="BitstreamVeraSans-Roman-20"/>
      <path d="
M54.8906 33.0156
L54.8906 0
L45.9062 0
L45.9062 32.7188
Q45.9062 40.4844 42.875 44.3281
Q39.8438 48.1875 33.7969 48.1875
Q26.5156 48.1875 22.3125 43.5469
Q18.1094 38.9219 18.1094 30.9062
L18.1094 0
L9.07812 0
L9.07812 54.6875
L18.1094 54.6875
L18.1094 46.1875
Q21.3438 51.125 25.7031 53.5625
Q30.0781 56 35.7969 56
Q45.2188 56 50.0469 50.1719
Q54.8906 44.3438 54.8906 33.0156" id="BitstreamVeraSans-Roman-6e"/>
      <path d="
M41.1094 46.2969
Q39.5938 47.1719 37.8125 47.5781
Q36.0312 48 33.8906 48
Q26.2656 48 22.1875 43.0469
Q18.1094 38.0938 18.1094 28.8125
L18.1094 0
L9.07812 0
L9.07812 54.6875
L18.1094 54.6875
L18.1094 46.1875
Q20.9531 51.1719 25.4844 53.5781
Q30.0312 56 36.5312 56
Q37.4531 56 38.5781 55.875
Q39.7031 55.7656 41.0625 55.5156
z
" id="BitstreamVeraSans-Roman-72"/>
      <path d="
M30.6094 48.3906
Q23.3906 48.3906 19.1875 42.75
Q14.9844 37.1094 14.9844 27.2969
Q14.9844 17.4844 19.1562 11.8438
Q23.3438 6.20312 30.6094 6.20312
Q37.7969 6.20312 41.9844 11.8594
Q46.1875 17.5312 46.1875 27.2969
Q46.1875 37.0156 41.9844 42.7031
Q37.7969 48.3906 30.6094 48.3906
M30.6094 56
Q42.3281 56 49.0156 48.375
Q55.7188 40.7656 55.7188 27.2969
Q55.7188 13.875 49.0156 6.21875
Q42.3281 -1.42188 30.6094 -1.42188
Q18.8438 -1.42188 12.1719 6.21875
Q5.51562 13.875 5.51562 27.2969
Q5.51562 40.7656 12.1719 48.375
Q18.8438 56 30.6094 56" id="BitstreamVeraSans-Roman-6f"/>
      <path d="
M19.6719 64.7969
L19.6719 8.10938
L31.5938 8.10938
Q46.6875 8.10938 53.6875 14.9375
Q60.6875 21.7812 60.6875 36.5312
Q60.6875 51.1719 53.6875 57.9844
Q46.6875 64.7969 31.5938 64.7969
z

M9.8125 72.9062
L30.0781 72.9062
Q51.2656 72.9062 61.1719 64.0938
Q71.0938 55.2812 71.0938 36.5312
Q71.0938 17.6719 61.125 8.82812
Q51.1719 0 30.0781 0
L9.8125 0
z
" id="BitstreamVeraSans-Roman-44"/>
      <path d="
M9.42188 54.6875
L18.4062 54.6875
L18.4062 0
L9.42188 0
z

M9.42188 75.9844
L18.4062 75.9844
L18.4062 64.5938
L9.42188 64.5938
z
" id="BitstreamVeraSans-Roman-69"/>
      <path d="
M45.4062 46.3906
L45.4062 75.9844
L54.3906 75.9844
L54.3906 0
L45.4062 0
L45.4062 8.20312
Q42.5781 3.32812 38.25 0.953125
Q33.9375 -1.42188 27.875 -1.42188
Q17.9688 -1.42188 11.7344 6.48438
Q5.51562 14.4062 5.51562 27.2969
Q5.51562 40.1875 11.7344 48.0938
Q17.9688 56 27.875 56
Q33.9375 56 38.25 53.625
Q42.5781 51.2656 45.4062 46.3906
M14.7969 27.2969
Q14.7969 17.3906 18.875 11.75
Q22.9531 6.10938 30.0781 6.10938
Q37.2031 6.10938 41.2969 11.75
Q45.4062 17.3906 45.4062 27.2969
Q45.4062 37.2031 41.2969 42.8438
Q37.2031 48.4844 30.0781 48.4844
Q22.9531 48.4844 18.875 42.8438
Q14.7969 37.2031 14.7969 27.2969" id="BitstreamVeraSans-Roman-64"/>
      <path d="
M56.2031 29.5938
L56.2031 25.2031
L14.8906 25.2031
Q15.4844 15.9219 20.4844 11.0625
Q25.4844 6.20312 34.4219 6.20312
Q39.5938 6.20312 44.4531 7.46875
Q49.3125 8.73438 54.1094 11.2812
L54.1094 2.78125
Q49.2656 0.734375 44.1875 -0.34375
Q39.1094 -1.42188 33.8906 -1.42188
Q20.7969 -1.42188 13.1562 6.1875
Q5.51562 13.8125 5.51562 26.8125
Q5.51562 40.2344 12.7656 48.1094
Q20.0156 56 32.3281 56
Q43.3594 56 49.7812 48.8906
Q56.2031 41.7969 56.2031 29.5938
M47.2188 32.2344
Q47.125 39.5938 43.0938 43.9844
Q39.0625 48.3906 32.4219 48.3906
Q24.9062 48.3906 20.3906 44.1406
Q15.875 39.8906 15.1875 32.1719
z
" id="BitstreamVeraSans-Roman-65"/>
      <path d="
M64.4062 67.2812
L64.4062 56.8906
Q59.4219 61.5312 53.7812 63.8125
Q48.1406 66.1094 41.7969 66.1094
Q29.2969 66.1094 22.6562 58.4688
Q16.0156 50.8281 16.0156 36.375
Q16.0156 21.9688 22.6562 14.3281
Q29.2969 6.6875 41.7969 6.6875
Q48.1406 6.6875 53.7812 8.98438
Q59.4219 11.2812 64.4062 15.9219
L64.4062 5.60938
Q59.2344 2.09375 53.4375 0.328125
Q47.6562 -1.42188 41.2188 -1.42188
Q24.6562 -1.42188 15.125 8.70312
Q5.60938 18.8438 5.60938 36.375
Q5.60938 53.9531 15.125 64.0781
Q24.6562 74.2188 41.2188 74.2188
Q47.75 74.2188 53.5312 72.4844
Q59.3281 70.75 64.4062 67.2812" id="BitstreamVeraSans-Roman-43"/>
      <path d="
M18.3125 70.2188
L18.3125 54.6875
L36.8125 54.6875
L36.8125 47.7031
L18.3125 47.7031
L18.3125 18.0156
Q18.3125 11.3281 20.1406 9.42188
Q21.9688 7.51562 27.5938 7.51562
L36.8125 7.51562
L36.8125 0
L27.5938 0
Q17.1875 0 13.2344 3.875
Q9.28125 7.76562 9.28125 18.0156
L9.28125 47.7031
L2.6875 47.7031
L2.6875 54.6875
L9.28125 54.6875
L9.28125 70.2188
z
" id="BitstreamVeraSans-Roman-74"/>
      <path d="
M34.2812 27.4844
Q23.3906 27.4844 19.1875 25
Q14.9844 22.5156 14.9844 16.5
Q14.9844 11.7188 18.1406 8.90625
Q21.2969 6.10938 26.7031 6.10938
Q34.1875 6.10938 38.7031 11.4062
Q43.2188 16.7031 43.2188 25.4844
L43.2188 27.4844
z

M52.2031 31.2031
L52.2031 0
L43.2188 0
L43.2188 8.29688
Q40.1406 3.32812 35.5469 0.953125
Q30.9531 -1.42188 24.3125 -1.42188
Q15.9219 -1.42188 10.9531 3.29688
Q6 8.01562 6 15.9219
Q6 25.1406 12.1719 29.8281
Q18.3594 34.5156 30.6094 34.5156
L43.2188 34.5156
L43.2188 35.4062
Q43.2188 41.6094 39.1406 45
Q35.0625 48.3906 27.6875 48.3906
Q23 48.3906 18.5469 47.2656
Q14.1094 46.1406 10.0156 43.8906
L10.0156 52.2031
Q14.9375 54.1094 19.5781 55.0469
Q24.2188 56 28.6094 56
Q40.4844 56 46.3438 49.8438
Q52.2031 43.7031 52.2031 31.2031" id="BitstreamVeraSans-Roman-61"/>
      <path d="
M44.2812 53.0781
L44.2812 44.5781
Q40.4844 46.5312 36.375 47.5
Q32.2812 48.4844 27.875 48.4844
Q21.1875 48.4844 17.8438 46.4375
Q14.5 44.3906 14.5 40.2812
Q14.5 37.1562 16.8906 35.375
Q19.2812 33.5938 26.5156 31.9844
L29.5938 31.2969
Q39.1562 29.25 43.1875 25.5156
Q47.2188 21.7812 47.2188 15.0938
Q47.2188 7.46875 41.1875 3.01562
Q35.1562 -1.42188 24.6094 -1.42188
Q20.2188 -1.42188 15.4531 -0.5625
Q10.6875 0.296875 5.42188 2
L5.42188 11.2812
Q10.4062 8.6875 15.2344 7.39062
Q20.0625 6.10938 24.8125 6.10938
Q31.1562 6.10938 34.5625 8.28125
Q37.9844 10.4531 37.9844 14.4062
Q37.9844 18.0625 35.5156 20.0156
Q33.0625 21.9688 24.7031 23.7812
L21.5781 24.5156
Q13.2344 26.2656 9.51562 29.9062
Q5.8125 33.5469 5.8125 39.8906
Q5.8125 47.6094 11.2812 51.7969
Q16.75 56 26.8125 56
Q31.7812 56 36.1719 55.2656
Q40.5781 54.5469 44.2812 53.0781" id="BitstreamVeraSans-Roman-73"/>
      <path d="
M48.7812 52.5938
L48.7812 44.1875
Q44.9688 46.2969 41.1406 47.3438
Q37.3125 48.3906 33.4062 48.3906
Q24.6562 48.3906 19.8125 42.8438
Q14.9844 37.3125 14.9844 27.2969
Q14.9844 17.2812 19.8125 11.7344
Q24.6562 6.20312 33.4062 6.20312
Q37.3125 6.20312 41.1406 7.25
Q44.9688 8.29688 48.7812 10.4062
L48.7812 2.09375
Q45.0156 0.34375 40.9844 -0.53125
Q36.9688 -1.42188 32.4219 -1.42188
Q20.0625 -1.42188 12.7812 6.34375
Q5.51562 14.1094 5.51562 27.2969
Q5.51562 40.6719 12.8594 48.3281
Q20.2188 56 33.0156 56
Q37.1562 56 41.1094 55.1406
Q45.0625 54.2969 48.7812 52.5938" id="BitstreamVeraSans-Roman-63"/>
     </defs>
     <g transform="translate(125.41234375 254.772947443)rotate(-90.0)scale(0.11 -0.11)">
      <use xlink:href="#BitstreamVeraSans-Roman-44"/>
      <use x="77.001953125" xlink:href="#BitstreamVeraSans-Roman-69"/>
      <use x="104.78515625" xlink:href="#BitstreamVeraSans-Roman-73"/>
      <use x="156.884765625" xlink:href="#BitstreamVeraSans-Roman-74"/>
      <use x="196.09375" xlink:href="#BitstreamVeraSans-Roman-61"/>
      <use x="257.373046875" xlink:href="#BitstreamVeraSans-Roman-6e"/>
      <use x="320.751953125" xlink:href="#BitstreamVeraSans-Roman-63"/>
      <use x="375.732421875" xlink:href="#BitstreamVeraSans-Roman-65"/>
      <use x="437.255859375" xlink:href="#BitstreamVeraSans-Roman-20"/>
      <use x="469.04296875" xlink:href="#BitstreamVeraSans-Roman-74"/>
      <use x="508.251953125" xlink:href="#BitstreamVeraSans-Roman-6f"/>
      <use x="569.43359375" xlink:href="#BitstreamVeraSans-Roman-20"/>
      <use x="601.220703125" xlink:href="#BitstreamVeraSans-Roman-43"/>
      <use x="671.044921875" xlink:href="#BitstreamVeraSans-Roman-65"/>
      <use x="732.568359375" xlink:href="#BitstreamVeraSans-Roman-6e"/>
      <use x="795.947265625" xlink:href="#BitstreamVeraSans-Roman-74"/>
      <use x="835.15625" xlink:href="#BitstreamVeraSans-Roman-72"/>
      <use x="874.01953125" xlink:href="#BitstreamVeraSans-Roman-6f"/>
      <use x="935.201171875" xlink:href="#BitstreamVeraSans-Roman-69"/>
      <use x="962.984375" xlink:href="#BitstreamVeraSans-Roman-64"/>
     </g>
    </g>
   </g>
   <g id="PolyCollection_1">
    <defs>
     <path d="
M262.456 -413.437
L262.424 -413.437
L262.405 -415.27
L262.361 -417.102
L262.27 -418.934
L262.094 -420.767
L261.774 -422.599
L261.226 -424.432
L260.338 -426.264
L258.969 -428.097
L256.956 -429.929
L254.126 -431.762
L250.319 -433.594
L245.42 -435.426
L239.402 -437.259
L232.359 -439.091
L224.535 -440.924
L216.319 -442.756
L208.198 -444.589
L200.684 -446.421
L194.218 -448.254
L189.093 -450.086
L185.418 -451.918
L183.135 -453.751
L182.088 -455.583
L182.095 -457.416
L183.001 -459.248
L184.685 -461.081
L187.035 -462.913
L189.926 -464.745
L193.21 -466.578
L196.741 -468.41
L200.39 -470.243
L204.06 -472.075
L207.672 -473.908
L211.151 -475.74
L214.413 -477.573
L217.387 -479.405
L220.034 -481.237
L222.372 -483.07
L224.474 -484.902
L226.449 -486.735
L228.401 -488.567
L230.407 -490.4
L232.489 -492.232
L234.624 -494.065
L236.747 -495.897
L238.781 -497.729
L240.658 -499.562
L242.342 -501.394
L243.842 -503.227
L245.213 -505.059
L246.538 -506.892
L247.897 -508.724
L249.345 -510.556
L250.888 -512.389
L252.484 -514.221
L254.059 -516.054
L255.531 -517.886
L256.83 -519.719
L257.917 -521.551
L258.784 -523.384
L259.451 -525.216
L259.957 -527.048
L260.345 -528.881
L260.654 -530.713
L260.909 -532.546
L261.118 -534.378
L261.277 -536.211
L261.372 -538.043
L261.39 -539.876
L261.332 -541.708
L261.215 -543.54
L261.078 -545.373
L260.965 -547.205
L260.918 -549.038
L260.963 -550.87
L261.101 -552.703
L261.309 -554.535
L261.55 -556.368
L261.789 -558.2
L261.994 -560.032
L262.149 -561.865
L262.25 -563.697
L262.299 -565.53
L262.302 -567.362
L262.268 -569.195
L262.205 -571.027
L262.125 -572.859
L262.042 -574.692
L261.973 -576.524
L261.934 -578.357
L261.933 -580.189
L261.971 -582.022
L262.04 -583.854
L262.125 -585.687
L262.211 -587.519
L262.286 -589.351
L262.345 -591.184
L262.385 -593.016
L262.411 -594.849
L262.426 -596.681
L262.434 -598.514
L262.437 -600.346
L262.439 -602.179
L262.439 -604.011
L262.437 -605.843
L262.434 -607.676
L262.426 -609.508
L262.412 -611.341
L262.387 -613.173
L262.346 -615.006
L262.288 -616.838
L262.214 -618.671
L262.128 -620.503
L262.043 -622.335
L261.973 -624.168
L261.934 -626
L261.933 -627.833
L261.972 -629.665
L262.041 -631.498
L262.126 -633.33
L262.211 -635.162
L262.287 -636.995
L262.345 -638.827
L262.386 -640.66
L262.411 -642.492
L262.424 -644.325
L262.429 -646.157
L262.451 -646.157
L262.451 -646.157
L262.456 -644.325
L262.469 -642.492
L262.494 -640.66
L262.535 -638.827
L262.593 -636.995
L262.669 -635.162
L262.754 -633.33
L262.839 -631.498
L262.908 -629.665
L262.947 -627.833
L262.946 -626
L262.907 -624.168
L262.837 -622.335
L262.752 -620.503
L262.666 -618.671
L262.592 -616.838
L262.534 -615.006
L262.493 -613.173
L262.468 -611.341
L262.454 -609.508
L262.446 -607.676
L262.443 -605.843
L262.441 -604.011
L262.441 -602.179
L262.443 -600.346
L262.446 -598.514
L262.454 -596.681
L262.469 -594.849
L262.495 -593.016
L262.535 -591.184
L262.594 -589.351
L262.669 -587.519
L262.755 -585.687
L262.84 -583.854
L262.909 -582.022
L262.947 -580.189
L262.946 -578.357
L262.907 -576.524
L262.838 -574.692
L262.755 -572.859
L262.675 -571.027
L262.612 -569.195
L262.578 -567.362
L262.581 -565.53
L262.63 -563.697
L262.731 -561.865
L262.886 -560.032
L263.091 -558.2
L263.33 -556.368
L263.571 -554.535
L263.779 -552.703
L263.917 -550.87
L263.962 -549.038
L263.915 -547.205
L263.802 -545.373
L263.665 -543.54
L263.548 -541.708
L263.49 -539.876
L263.508 -538.043
L263.603 -536.211
L263.762 -534.378
L263.971 -532.546
L264.226 -530.713
L264.535 -528.881
L264.923 -527.048
L265.429 -525.216
L266.096 -523.384
L266.963 -521.551
L268.05 -519.719
L269.349 -517.886
L270.821 -516.054
L272.396 -514.221
L273.992 -512.389
L275.535 -510.556
L276.983 -508.724
L278.342 -506.892
L279.667 -505.059
L281.038 -503.227
L282.538 -501.394
L284.222 -499.562
L286.099 -497.729
L288.133 -495.897
L290.256 -494.065
L292.391 -492.232
L294.473 -490.4
L296.479 -488.567
L298.431 -486.735
L300.406 -484.902
L302.508 -483.07
L304.846 -481.237
L307.493 -479.405
L310.467 -477.573
L313.729 -475.74
L317.208 -473.908
L320.82 -472.075
L324.49 -470.243
L328.139 -468.41
L331.67 -466.578
L334.954 -464.745
L337.845 -462.913
L340.195 -461.081
L341.879 -459.248
L342.785 -457.416
L342.792 -455.583
L341.745 -453.751
L339.462 -451.918
L335.787 -450.086
L330.662 -448.254
L324.196 -446.421
L316.682 -444.589
L308.561 -442.756
L300.345 -440.924
L292.521 -439.091
L285.478 -437.259
L279.46 -435.426
L274.561 -433.594
L270.754 -431.762
L267.924 -429.929
L265.911 -428.097
L264.542 -426.264
L263.654 -424.432
L263.106 -422.599
L262.786 -420.767
L262.61 -418.934
L262.519 -417.102
L262.475 -415.27
L262.456 -413.437
z
" id="C0_0_3b4c02573f"/>
    </defs>
    <g clip-path="url(#p55a2aadd3b)">
     <use style="fill:#e799a5;stroke:#e799a5;stroke-width:0.3;" x="0.0" xlink:href="#C0_0_3b4c02573f" y="720.0"/>
    </g>
   </g>
   <g id="PolyCollection_2">
    <defs>
     <path d="
M463.348 -406.77
L463.292 -406.77
L463.272 -408.416
L463.232 -410.062
L463.161 -411.707
L463.04 -413.353
L462.843 -414.999
L462.536 -416.644
L462.073 -418.29
L461.402 -419.936
L460.465 -421.582
L459.203 -423.227
L457.56 -424.873
L455.491 -426.519
L452.964 -428.164
L449.968 -429.81
L446.512 -431.456
L442.624 -433.101
L438.355 -434.747
L433.768 -436.393
L428.946 -438.038
L423.978 -439.684
L418.963 -441.33
L413.999 -442.975
L409.184 -444.621
L404.605 -446.267
L400.341 -447.912
L396.459 -449.558
L393.014 -451.204
L390.051 -452.85
L387.603 -454.495
L385.686 -456.141
L384.3 -457.787
L383.421 -459.432
L383.001 -461.078
L382.968 -462.724
L383.23 -464.369
L383.683 -466.015
L384.22 -467.661
L384.743 -469.306
L385.167 -470.952
L385.433 -472.598
L385.51 -474.243
L385.399 -475.889
L385.131 -477.535
L384.764 -479.18
L384.372 -480.826
L384.037 -482.472
L383.839 -484.118
L383.855 -485.763
L384.148 -487.409
L384.776 -489.055
L385.789 -490.7
L387.231 -492.346
L389.144 -493.992
L391.559 -495.637
L394.489 -497.283
L397.924 -498.929
L401.816 -500.574
L406.083 -502.22
L410.61 -503.866
L415.258 -505.511
L419.882 -507.157
L424.347 -508.803
L428.543 -510.448
L432.395 -512.094
L435.869 -513.74
L438.962 -515.385
L441.697 -517.031
L444.112 -518.677
L446.246 -520.323
L448.137 -521.968
L449.812 -523.614
L451.291 -525.26
L452.588 -526.905
L453.712 -528.551
L454.673 -530.197
L455.482 -531.842
L456.156 -533.488
L456.713 -535.134
L457.177 -536.779
L457.571 -538.425
L457.921 -540.071
L458.249 -541.716
L458.574 -543.362
L458.909 -545.008
L459.261 -546.653
L459.632 -548.299
L460.018 -549.945
L460.414 -551.591
L460.809 -553.236
L461.194 -554.882
L461.56 -556.528
L461.898 -558.173
L462.2 -559.819
L462.463 -561.465
L462.682 -563.11
L462.86 -564.756
L462.997 -566.402
L463.098 -568.047
L463.167 -569.693
L463.209 -571.339
L463.227 -572.984
L463.224 -574.63
L463.201 -576.276
L463.16 -577.921
L463.102 -579.567
L463.027 -581.213
L462.941 -582.859
L462.848 -584.504
L462.756 -586.15
L462.674 -587.796
L462.612 -589.441
L462.576 -591.087
L462.571 -592.733
L462.598 -594.378
L462.653 -596.024
L462.73 -597.67
L462.82 -599.315
L462.914 -600.961
L463.004 -602.607
L463.084 -604.252
L463.152 -605.898
L463.205 -607.544
L463.244 -609.189
L463.272 -610.835
L463.289 -612.481
L463.298 -614.127
L463.3 -615.772
L463.34 -615.772
L463.34 -615.772
L463.342 -614.127
L463.351 -612.481
L463.368 -610.835
L463.396 -609.189
L463.435 -607.544
L463.488 -605.898
L463.556 -604.252
L463.636 -602.607
L463.726 -600.961
L463.82 -599.315
L463.91 -597.67
L463.987 -596.024
L464.042 -594.378
L464.069 -592.733
L464.064 -591.087
L464.028 -589.441
L463.966 -587.796
L463.884 -586.15
L463.792 -584.504
L463.699 -582.859
L463.613 -581.213
L463.538 -579.567
L463.48 -577.921
L463.439 -576.276
L463.416 -574.63
L463.413 -572.984
L463.431 -571.339
L463.473 -569.693
L463.542 -568.047
L463.643 -566.402
L463.78 -564.756
L463.958 -563.11
L464.177 -561.465
L464.44 -559.819
L464.742 -558.173
L465.08 -556.528
L465.446 -554.882
L465.831 -553.236
L466.226 -551.591
L466.622 -549.945
L467.008 -548.299
L467.379 -546.653
L467.731 -545.008
L468.066 -543.362
L468.391 -541.716
L468.719 -540.071
L469.069 -538.425
L469.463 -536.779
L469.927 -535.134
L470.484 -533.488
L471.158 -531.842
L471.967 -530.197
L472.928 -528.551
L474.052 -526.905
L475.349 -525.26
L476.828 -523.614
L478.503 -521.968
L480.394 -520.323
L482.528 -518.677
L484.943 -517.031
L487.678 -515.385
L490.771 -513.74
L494.245 -512.094
L498.097 -510.448
L502.293 -508.803
L506.758 -507.157
L511.382 -505.511
L516.03 -503.866
L520.557 -502.22
L524.824 -500.574
L528.716 -498.929
L532.151 -497.283
L535.081 -495.637
L537.496 -493.992
L539.409 -492.346
L540.851 -490.7
L541.864 -489.055
L542.492 -487.409
L542.785 -485.763
L542.801 -484.118
L542.603 -482.472
L542.268 -480.826
L541.876 -479.18
L541.509 -477.535
L541.241 -475.889
L541.13 -474.243
L541.207 -472.598
L541.473 -470.952
L541.897 -469.306
L542.42 -467.661
L542.957 -466.015
L543.41 -464.369
L543.672 -462.724
L543.639 -461.078
L543.219 -459.432
L542.34 -457.787
L540.954 -456.141
L539.037 -454.495
L536.589 -452.85
L533.626 -451.204
L530.181 -449.558
L526.299 -447.912
L522.035 -446.267
L517.456 -444.621
L512.641 -442.975
L507.677 -441.33
L502.662 -439.684
L497.694 -438.038
L492.872 -436.393
L488.285 -434.747
L484.016 -433.101
L480.128 -431.456
L476.672 -429.81
L473.676 -428.164
L471.149 -426.519
L469.08 -424.873
L467.437 -423.227
L466.175 -421.582
L465.238 -419.936
L464.567 -418.29
L464.104 -416.644
L463.797 -414.999
L463.6 -413.353
L463.479 -411.707
L463.408 -410.062
L463.368 -408.416
L463.348 -406.77
z
" id="C1_0_503f53970a"/>
    </defs>
    <g clip-path="url(#p55a2aadd3b)">
     <use style="fill:#a89b4a;stroke:#a89b4a;stroke-width:0.3;" x="0.0" xlink:href="#C1_0_503f53970a" y="720.0"/>
    </g>
   </g>
   <g id="PolyCollection_3">
    <defs>
     <path d="
M664.237 -409.814
L664.163 -409.814
L664.136 -411.29
L664.087 -412.766
L664.004 -414.241
L663.87 -415.717
L663.661 -417.193
L663.348 -418.668
L662.895 -420.144
L662.261 -421.619
L661.402 -423.095
L660.277 -424.571
L658.848 -426.046
L657.085 -427.522
L654.969 -428.998
L652.493 -430.473
L649.665 -431.949
L646.499 -433.425
L643.02 -434.9
L639.261 -436.376
L635.258 -437.852
L631.057 -439.327
L626.708 -440.803
L622.273 -442.279
L617.823 -443.754
L613.436 -445.23
L609.197 -446.706
L605.185 -448.181
L601.472 -449.657
L598.109 -451.133
L595.129 -452.608
L592.536 -454.084
L590.319 -455.56
L588.454 -457.035
L586.913 -458.511
L585.678 -459.986
L584.744 -461.462
L584.125 -462.938
L583.848 -464.413
L583.947 -465.889
L584.454 -467.365
L585.386 -468.84
L586.736 -470.316
L588.466 -471.792
L590.508 -473.267
L592.763 -474.743
L595.114 -476.219
L597.437 -477.694
L599.618 -479.17
L601.562 -480.646
L603.209 -482.121
L604.54 -483.597
L605.574 -485.073
L606.366 -486.548
L606.999 -488.024
L607.57 -489.5
L608.183 -490.975
L608.935 -492.451
L609.913 -493.927
L611.181 -495.402
L612.781 -496.878
L614.727 -498.353
L617.009 -499.829
L619.588 -501.305
L622.405 -502.78
L625.386 -504.256
L628.444 -505.732
L631.491 -507.207
L634.442 -508.683
L637.225 -510.159
L639.782 -511.634
L642.076 -513.11
L644.092 -514.586
L645.833 -516.061
L647.321 -517.537
L648.586 -519.013
L649.664 -520.488
L650.586 -521.964
L651.378 -523.44
L652.057 -524.915
L652.632 -526.391
L653.109 -527.867
L653.497 -529.342
L653.809 -530.818
L654.067 -532.294
L654.302 -533.769
L654.548 -535.245
L654.841 -536.72
L655.209 -538.196
L655.671 -539.672
L656.231 -541.147
L656.877 -542.623
L657.587 -544.099
L658.33 -545.574
L659.073 -547.05
L659.784 -548.526
L660.439 -550.001
L661.021 -551.477
L661.523 -552.953
L661.942 -554.428
L662.284 -555.904
L662.556 -557.38
L662.766 -558.855
L662.923 -560.331
L663.035 -561.807
L663.108 -563.282
L663.151 -564.758
L663.17 -566.234
L663.174 -567.709
L663.172 -569.185
L663.173 -570.661
L663.187 -572.136
L663.218 -573.612
L663.27 -575.087
L663.344 -576.563
L663.435 -578.039
L663.538 -579.514
L663.647 -580.99
L663.753 -582.466
L663.852 -583.941
L663.939 -585.417
L664.011 -586.893
L664.068 -588.368
L664.111 -589.844
L664.141 -591.32
L664.162 -592.795
L664.174 -594.271
L664.179 -595.747
L664.176 -597.222
L664.224 -597.222
L664.224 -597.222
L664.221 -595.747
L664.226 -594.271
L664.238 -592.795
L664.259 -591.32
L664.289 -589.844
L664.332 -588.368
L664.389 -586.893
L664.461 -585.417
L664.548 -583.941
L664.647 -582.466
L664.753 -580.99
L664.862 -579.514
L664.965 -578.039
L665.056 -576.563
L665.13 -575.087
L665.182 -573.612
L665.213 -572.136
L665.227 -570.661
L665.228 -569.185
L665.226 -567.709
L665.23 -566.234
L665.249 -564.758
L665.292 -563.282
L665.365 -561.807
L665.477 -560.331
L665.634 -558.855
L665.844 -557.38
L666.116 -555.904
L666.458 -554.428
L666.877 -552.953
L667.379 -551.477
L667.961 -550.001
L668.616 -548.526
L669.327 -547.05
L670.07 -545.574
L670.813 -544.099
L671.523 -542.623
L672.169 -541.147
L672.729 -539.672
L673.191 -538.196
L673.559 -536.72
L673.852 -535.245
L674.098 -533.769
L674.333 -532.294
L674.591 -530.818
L674.903 -529.342
L675.291 -527.867
L675.768 -526.391
L676.343 -524.915
L677.022 -523.44
L677.814 -521.964
L678.736 -520.488
L679.814 -519.013
L681.079 -517.537
L682.567 -516.061
L684.308 -514.586
L686.324 -513.11
L688.618 -511.634
L691.175 -510.159
L693.958 -508.683
L696.909 -507.207
L699.956 -505.732
L703.014 -504.256
L705.995 -502.78
L708.812 -501.305
L711.391 -499.829
L713.673 -498.353
L715.619 -496.878
L717.219 -495.402
L718.487 -493.927
L719.465 -492.451
L720.217 -490.975
L720.83 -489.5
L721.401 -488.024
L722.034 -486.548
L722.826 -485.073
L723.86 -483.597
L725.191 -482.121
L726.838 -480.646
L728.782 -479.17
L730.963 -477.694
L733.286 -476.219
L735.637 -474.743
L737.892 -473.267
L739.934 -471.792
L741.664 -470.316
L743.014 -468.84
L743.946 -467.365
L744.453 -465.889
L744.552 -464.413
L744.275 -462.938
L743.656 -461.462
L742.722 -459.986
L741.487 -458.511
L739.946 -457.035
L738.081 -455.56
L735.864 -454.084
L733.271 -452.608
L730.291 -451.133
L726.928 -449.657
L723.215 -448.181
L719.203 -446.706
L714.964 -445.23
L710.577 -443.754
L706.127 -442.279
L701.692 -440.803
L697.343 -439.327
L693.142 -437.852
L689.139 -436.376
L685.38 -434.9
L681.901 -433.425
L678.735 -431.949
L675.907 -430.473
L673.431 -428.998
L671.315 -427.522
L669.552 -426.046
L668.123 -424.571
L666.998 -423.095
L666.139 -421.619
L665.505 -420.144
L665.052 -418.668
L664.739 -417.193
L664.53 -415.717
L664.396 -414.241
L664.313 -412.766
L664.264 -411.29
L664.237 -409.814
z
" id="C2_0_39042e8306"/>
    </defs>
    <g clip-path="url(#p55a2aadd3b)">
     <use style="fill:#4dab82;stroke:#4dab82;stroke-width:0.3;" x="0.0" xlink:href="#C2_0_39042e8306" y="720.0"/>
    </g>
   </g>
   <g id="PolyCollection_4">
    <defs>
     <path d="
M865.109 -419.773
L865.051 -419.773
L865.044 -420.7
L865.029 -421.628
L865.004 -422.556
L864.966 -423.483
L864.91 -424.411
L864.833 -425.338
L864.727 -426.266
L864.584 -427.194
L864.397 -428.121
L864.157 -429.049
L863.852 -429.977
L863.474 -430.904
L863.011 -431.832
L862.452 -432.76
L861.789 -433.687
L861.01 -434.615
L860.108 -435.542
L859.076 -436.47
L857.906 -437.398
L856.596 -438.325
L855.141 -439.253
L853.542 -440.181
L851.801 -441.108
L849.922 -442.036
L847.913 -442.964
L845.785 -443.891
L843.554 -444.819
L841.238 -445.746
L838.858 -446.674
L836.434 -447.602
L833.987 -448.529
L831.533 -449.457
L829.085 -450.385
L826.648 -451.312
L824.223 -452.24
L821.806 -453.167
L819.395 -454.095
L816.988 -455.023
L814.591 -455.95
L812.217 -456.878
L809.891 -457.806
L807.645 -458.733
L805.515 -459.661
L803.54 -460.589
L801.75 -461.516
L800.166 -462.444
L798.791 -463.371
L797.613 -464.299
L796.6 -465.227
L795.709 -466.154
L794.889 -467.082
L794.085 -468.01
L793.251 -468.937
L792.353 -469.865
L791.376 -470.792
L790.326 -471.72
L789.231 -472.648
L788.135 -473.575
L787.099 -474.503
L786.184 -475.431
L785.453 -476.358
L784.956 -477.286
L784.728 -478.214
L784.781 -479.141
L785.106 -480.069
L785.674 -480.996
L786.44 -481.924
L787.347 -482.852
L788.34 -483.779
L789.367 -484.707
L790.387 -485.635
L791.376 -486.562
L792.325 -487.49
L793.243 -488.417
L794.154 -489.345
L795.09 -490.273
L796.089 -491.2
L797.188 -492.128
L798.418 -493.056
L799.802 -493.983
L801.351 -494.911
L803.065 -495.839
L804.933 -496.766
L806.936 -497.694
L809.05 -498.621
L811.248 -499.549
L813.508 -500.477
L815.81 -501.404
L818.14 -502.332
L820.492 -503.26
L822.864 -504.187
L825.257 -505.115
L827.673 -506.043
L830.112 -506.97
L832.57 -507.898
L835.039 -508.825
L837.502 -509.753
L839.94 -510.681
L842.328 -511.608
L844.641 -512.536
L846.853 -513.464
L848.942 -514.391
L850.892 -515.319
L852.69 -516.246
L854.332 -517.174
L855.817 -518.102
L857.15 -519.029
L858.339 -519.957
L859.395 -520.885
L860.326 -521.812
L861.144 -522.74
L861.857 -523.668
L862.474 -524.595
L863.002 -525.523
L863.448 -526.45
L863.82 -527.378
L864.124 -528.306
L864.368 -529.233
L864.561 -530.161
L864.709 -531.089
L864.82 -532.016
L864.902 -532.944
L864.96 -533.871
L865.001 -534.799
L865.027 -535.727
L865.043 -536.654
L865.05 -537.582
L865.11 -537.582
L865.11 -537.582
L865.117 -536.654
L865.133 -535.727
L865.159 -534.799
L865.2 -533.871
L865.258 -532.944
L865.34 -532.016
L865.451 -531.089
L865.599 -530.161
L865.792 -529.233
L866.036 -528.306
L866.34 -527.378
L866.712 -526.45
L867.158 -525.523
L867.686 -524.595
L868.303 -523.668
L869.016 -522.74
L869.834 -521.812
L870.765 -520.885
L871.821 -519.957
L873.01 -519.029
L874.343 -518.102
L875.828 -517.174
L877.47 -516.246
L879.268 -515.319
L881.218 -514.391
L883.307 -513.464
L885.519 -512.536
L887.832 -511.608
L890.22 -510.681
L892.658 -509.753
L895.121 -508.825
L897.59 -507.898
L900.048 -506.97
L902.487 -506.043
L904.903 -505.115
L907.296 -504.187
L909.668 -503.26
L912.02 -502.332
L914.35 -501.404
L916.652 -500.477
L918.912 -499.549
L921.11 -498.621
L923.224 -497.694
L925.227 -496.766
L927.095 -495.839
L928.809 -494.911
L930.358 -493.983
L931.742 -493.056
L932.972 -492.128
L934.071 -491.2
L935.07 -490.273
L936.006 -489.345
L936.917 -488.417
L937.835 -487.49
L938.784 -486.562
L939.773 -485.635
L940.793 -484.707
L941.82 -483.779
L942.813 -482.852
L943.72 -481.924
L944.486 -480.996
L945.054 -480.069
L945.379 -479.141
L945.432 -478.214
L945.204 -477.286
L944.707 -476.358
L943.976 -475.431
L943.061 -474.503
L942.025 -473.575
L940.929 -472.648
L939.834 -471.72
L938.784 -470.792
L937.807 -469.865
L936.909 -468.937
L936.075 -468.01
L935.271 -467.082
L934.451 -466.154
L933.56 -465.227
L932.547 -464.299
L931.369 -463.371
L929.994 -462.444
L928.41 -461.516
L926.62 -460.589
L924.645 -459.661
L922.515 -458.733
L920.269 -457.806
L917.943 -456.878
L915.569 -455.95
L913.172 -455.023
L910.765 -454.095
L908.354 -453.167
L905.937 -452.24
L903.512 -451.312
L901.075 -450.385
L898.627 -449.457
L896.173 -448.529
L893.726 -447.602
L891.302 -446.674
L888.922 -445.746
L886.606 -444.819
L884.375 -443.891
L882.247 -442.964
L880.238 -442.036
L878.359 -441.108
L876.618 -440.181
L875.019 -439.253
L873.564 -438.325
L872.254 -437.398
L871.084 -436.47
L870.052 -435.542
L869.15 -434.615
L868.371 -433.687
L867.708 -432.76
L867.149 -431.832
L866.686 -430.904
L866.308 -429.977
L866.003 -429.049
L865.763 -428.121
L865.576 -427.194
L865.433 -426.266
L865.327 -425.338
L865.25 -424.411
L865.194 -423.483
L865.156 -422.556
L865.131 -421.628
L865.116 -420.7
L865.109 -419.773
z
" id="C3_0_cd4451f4c0"/>
    </defs>
    <g clip-path="url(#p55a2aadd3b)">
     <use style="fill:#54a9bf;stroke:#54a9bf;stroke-width:0.3;" x="0.0" xlink:href="#C3_0_cd4451f4c0" y="720.0"/>
    </g>
   </g>
   <g id="PolyCollection_5">
    <defs>
     <path d="
M1065.98 -407.489
L1065.94 -407.489
L1065.93 -409.076
L1065.91 -410.663
L1065.87 -412.25
L1065.81 -413.836
L1065.72 -415.423
L1065.57 -417.01
L1065.35 -418.597
L1065.03 -420.184
L1064.59 -421.771
L1063.99 -423.358
L1063.21 -424.945
L1062.2 -426.532
L1060.94 -428.119
L1059.4 -429.706
L1057.57 -431.293
L1055.41 -432.88
L1052.93 -434.467
L1050.11 -436.053
L1046.95 -437.64
L1043.45 -439.227
L1039.65 -440.814
L1035.58 -442.401
L1031.3 -443.988
L1026.87 -445.575
L1022.37 -447.162
L1017.9 -448.749
L1013.52 -450.336
L1009.32 -451.923
L1005.36 -453.51
L1001.68 -455.097
L998.317 -456.684
L995.306 -458.271
L992.675 -459.857
L990.451 -461.444
L988.656 -463.031
L987.299 -464.618
L986.368 -466.205
L985.826 -467.792
L985.608 -469.379
L985.63 -470.966
L985.8 -472.553
L986.032 -474.14
L986.265 -475.727
L986.469 -477.314
L986.65 -478.901
L986.842 -480.488
L987.096 -482.074
L987.464 -483.661
L987.993 -485.248
L988.71 -486.835
L989.632 -488.422
L990.76 -490.009
L992.097 -491.596
L993.646 -493.183
L995.419 -494.77
L997.437 -496.357
L999.722 -497.944
L1002.3 -499.531
L1005.17 -501.118
L1008.32 -502.705
L1011.74 -504.292
L1015.36 -505.878
L1019.11 -507.465
L1022.89 -509.052
L1026.6 -510.639
L1030.15 -512.226
L1033.47 -513.813
L1036.5 -515.4
L1039.22 -516.987
L1041.65 -518.574
L1043.82 -520.161
L1045.76 -521.748
L1047.52 -523.335
L1049.11 -524.922
L1050.56 -526.509
L1051.87 -528.096
L1053.03 -529.682
L1054.06 -531.269
L1054.97 -532.856
L1055.76 -534.443
L1056.49 -536.03
L1057.16 -537.617
L1057.82 -539.204
L1058.48 -540.791
L1059.15 -542.378
L1059.82 -543.965
L1060.49 -545.552
L1061.13 -547.139
L1061.72 -548.726
L1062.26 -550.313
L1062.73 -551.899
L1063.14 -553.486
L1063.5 -555.073
L1063.83 -556.66
L1064.12 -558.247
L1064.4 -559.834
L1064.65 -561.421
L1064.89 -563.008
L1065.1 -564.595
L1065.28 -566.182
L1065.42 -567.769
L1065.53 -569.356
L1065.59 -570.943
L1065.62 -572.53
L1065.61 -574.117
L1065.57 -575.703
L1065.51 -577.29
L1065.44 -578.877
L1065.37 -580.464
L1065.3 -582.051
L1065.26 -583.638
L1065.24 -585.225
L1065.25 -586.812
L1065.29 -588.399
L1065.35 -589.986
L1065.42 -591.573
L1065.51 -593.16
L1065.6 -594.747
L1065.68 -596.334
L1065.75 -597.921
L1065.81 -599.507
L1065.86 -601.094
L1065.89 -602.681
L1065.92 -604.268
L1065.93 -605.855
L1065.94 -607.442
L1065.94 -609.029
L1065.98 -609.029
L1065.98 -609.029
L1065.98 -607.442
L1065.99 -605.855
L1066 -604.268
L1066.03 -602.681
L1066.06 -601.094
L1066.11 -599.507
L1066.17 -597.921
L1066.24 -596.334
L1066.32 -594.747
L1066.41 -593.16
L1066.5 -591.573
L1066.57 -589.986
L1066.63 -588.399
L1066.67 -586.812
L1066.68 -585.225
L1066.66 -583.638
L1066.62 -582.051
L1066.55 -580.464
L1066.48 -578.877
L1066.41 -577.29
L1066.35 -575.703
L1066.31 -574.117
L1066.3 -572.53
L1066.33 -570.943
L1066.39 -569.356
L1066.5 -567.769
L1066.64 -566.182
L1066.82 -564.595
L1067.03 -563.008
L1067.27 -561.421
L1067.52 -559.834
L1067.8 -558.247
L1068.09 -556.66
L1068.42 -555.073
L1068.78 -553.486
L1069.19 -551.899
L1069.66 -550.313
L1070.2 -548.726
L1070.79 -547.139
L1071.43 -545.552
L1072.1 -543.965
L1072.77 -542.378
L1073.44 -540.791
L1074.1 -539.204
L1074.76 -537.617
L1075.43 -536.03
L1076.16 -534.443
L1076.95 -532.856
L1077.86 -531.269
L1078.89 -529.682
L1080.05 -528.096
L1081.36 -526.509
L1082.81 -524.922
L1084.4 -523.335
L1086.16 -521.748
L1088.1 -520.161
L1090.27 -518.574
L1092.7 -516.987
L1095.42 -515.4
L1098.45 -513.813
L1101.77 -512.226
L1105.32 -510.639
L1109.03 -509.052
L1112.81 -507.465
L1116.56 -505.878
L1120.18 -504.292
L1123.6 -502.705
L1126.75 -501.118
L1129.62 -499.531
L1132.2 -497.944
L1134.48 -496.357
L1136.5 -494.77
L1138.27 -493.183
L1139.82 -491.596
L1141.16 -490.009
L1142.29 -488.422
L1143.21 -486.835
L1143.93 -485.248
L1144.46 -483.661
L1144.82 -482.074
L1145.08 -480.488
L1145.27 -478.901
L1145.45 -477.314
L1145.66 -475.727
L1145.89 -474.14
L1146.12 -472.553
L1146.29 -470.966
L1146.31 -469.379
L1146.09 -467.792
L1145.55 -466.205
L1144.62 -464.618
L1143.26 -463.031
L1141.47 -461.444
L1139.24 -459.857
L1136.61 -458.271
L1133.6 -456.684
L1130.24 -455.097
L1126.56 -453.51
L1122.6 -451.923
L1118.4 -450.336
L1114.02 -448.749
L1109.55 -447.162
L1105.05 -445.575
L1100.62 -443.988
L1096.34 -442.401
L1092.27 -440.814
L1088.47 -439.227
L1084.97 -437.64
L1081.81 -436.053
L1078.99 -434.467
L1076.51 -432.88
L1074.35 -431.293
L1072.52 -429.706
L1070.98 -428.119
L1069.72 -426.532
L1068.71 -424.945
L1067.93 -423.358
L1067.33 -421.771
L1066.89 -420.184
L1066.57 -418.597
L1066.35 -417.01
L1066.2 -415.423
L1066.11 -413.836
L1066.05 -412.25
L1066.01 -410.663
L1065.99 -409.076
L1065.98 -407.489
z
" id="C4_0_8eb89a32a7"/>
    </defs>
    <g clip-path="url(#p55a2aadd3b)">
     <use style="fill:#cd9ee6;stroke:#cd9ee6;stroke-width:0.3;" x="0.0" xlink:href="#C4_0_8eb89a32a7" y="720.0"/>
    </g>
   </g>
   <g id="line2d_24">
    <path clip-path="url(#p55a2aadd3b)" d="
M184.331 267.429
L340.549 267.429" style="fill:none;stroke:#494949;stroke-dasharray:1.000000,3.000000;stroke-dashoffset:0.0;stroke-width:1.5;"/>
   </g>
   <g id="line2d_25">
    <path clip-path="url(#p55a2aadd3b)" d="
M218.78 239.679
L306.1 239.679" style="fill:none;stroke:#494949;stroke-dasharray:1.000000,3.000000;stroke-dashoffset:0.0;stroke-width:1.5;"/>
   </g>
   <g id="line2d_26">
    <path clip-path="url(#p55a2aadd3b)" d="
M188.749 255.942
L336.131 255.942" style="fill:none;stroke:#494949;stroke-dasharray:6.000000,6.000000;stroke-dashoffset:0.0;stroke-width:1.5;"/>
   </g>
   <g id="line2d_27">
    <path clip-path="url(#p55a2aadd3b)" d="
M262.424 306.563
L262.27 301.066
L262.094 299.233
L261.774 297.401
L261.226 295.568
L260.338 293.736
L258.969 291.903
L256.956 290.071
L254.126 288.238
L250.319 286.406
L245.42 284.574
L239.402 282.741
L232.359 280.909
L216.319 277.244
L208.198 275.411
L200.684 273.579
L194.218 271.746
L189.093 269.914
L185.418 268.082
L183.135 266.249
L182.088 264.417
L182.095 262.584
L183.001 260.752
L184.685 258.919
L187.035 257.087
L189.926 255.255
L193.21 253.422
L200.39 249.757
L207.672 246.092
L214.413 242.427
L217.387 240.595
L220.034 238.763
L222.372 236.93
L226.449 233.265
L230.407 229.6
L240.658 220.438
L242.342 218.606
L245.213 214.941
L247.897 211.276
L250.888 207.611
L255.531 202.114
L256.83 200.281
L257.917 198.449
L258.784 196.616
L259.451 194.784
L259.957 192.952
L260.654 189.287
L261.118 185.622
L261.372 181.957
L261.332 178.292
L260.918 170.962
L261.101 167.297
L262.25 156.303
L262.302 152.638
L262.125 147.141
L261.934 141.643
L262.04 136.146
L262.385 126.984
L262.439 115.989
L262.346 104.994
L261.972 90.3348
L262.424 75.6753
L262.429 73.8429
L262.429 73.8429" style="fill:none;stroke:#494949;stroke-linecap:round;stroke-width:1.5;"/>
   </g>
   <g id="line2d_28">
    <path clip-path="url(#p55a2aadd3b)" d="
M262.456 306.563
L262.61 301.066
L262.786 299.233
L263.106 297.401
L263.654 295.568
L264.542 293.736
L265.911 291.903
L267.924 290.071
L270.754 288.238
L274.561 286.406
L279.46 284.574
L285.478 282.741
L292.521 280.909
L308.561 277.244
L316.682 275.411
L324.196 273.579
L330.662 271.746
L335.787 269.914
L339.462 268.082
L341.745 266.249
L342.792 264.417
L342.785 262.584
L341.879 260.752
L340.195 258.919
L337.845 257.087
L334.954 255.255
L331.67 253.422
L324.49 249.757
L317.208 246.092
L310.467 242.427
L307.493 240.595
L304.846 238.763
L302.508 236.93
L298.431 233.265
L294.473 229.6
L284.222 220.438
L282.538 218.606
L279.667 214.941
L276.983 211.276
L273.992 207.611
L269.349 202.114
L268.05 200.281
L266.963 198.449
L266.096 196.616
L265.429 194.784
L264.923 192.952
L264.226 189.287
L263.762 185.622
L263.508 181.957
L263.548 178.292
L263.962 170.962
L263.779 167.297
L262.63 156.303
L262.578 152.638
L262.755 147.141
L262.946 141.643
L262.84 136.146
L262.495 126.984
L262.441 115.989
L262.534 104.994
L262.908 90.3348
L262.456 75.6753
L262.451 73.8429
L262.451 73.8429" style="fill:none;stroke:#494949;stroke-linecap:round;stroke-width:1.5;"/>
   </g>
   <g id="line2d_29">
    <path clip-path="url(#p55a2aadd3b)" d="
M384.391 262.487
L542.249 262.487" style="fill:none;stroke:#494949;stroke-dasharray:1.000000,3.000000;stroke-dashoffset:0.0;stroke-width:1.5;"/>
   </g>
   <g id="line2d_30">
    <path clip-path="url(#p55a2aadd3b)" d="
M388.335 226.575
L538.305 226.575" style="fill:none;stroke:#494949;stroke-dasharray:1.000000,3.000000;stroke-dashoffset:0.0;stroke-width:1.5;"/>
   </g>
   <g id="line2d_31">
    <path clip-path="url(#p55a2aadd3b)" d="
M385.452 244.234
L541.188 244.234" style="fill:none;stroke:#494949;stroke-dasharray:6.000000,6.000000;stroke-dashoffset:0.0;stroke-width:1.5;"/>
   </g>
   <g id="line2d_32">
    <path clip-path="url(#p55a2aadd3b)" d="
M463.292 313.23
L463.161 308.293
L462.843 305.001
L462.536 303.356
L462.073 301.71
L461.402 300.064
L460.465 298.418
L459.203 296.773
L457.56 295.127
L455.491 293.481
L452.964 291.836
L449.968 290.19
L446.512 288.544
L442.624 286.899
L438.355 285.253
L428.946 281.962
L409.184 275.379
L400.341 272.088
L396.459 270.442
L393.014 268.796
L390.051 267.15
L387.603 265.505
L385.686 263.859
L384.3 262.213
L383.421 260.568
L383.001 258.922
L382.968 257.276
L383.23 255.631
L384.22 252.339
L385.167 249.048
L385.433 247.402
L385.51 245.757
L385.399 244.111
L384.764 240.82
L384.037 237.528
L383.839 235.882
L383.855 234.237
L384.148 232.591
L384.776 230.945
L385.789 229.3
L387.231 227.654
L389.144 226.008
L391.559 224.363
L394.489 222.717
L397.924 221.071
L401.816 219.426
L410.61 216.134
L424.347 211.197
L428.543 209.552
L432.395 207.906
L435.869 206.26
L438.962 204.615
L441.697 202.969
L444.112 201.323
L446.246 199.677
L448.137 198.032
L449.812 196.386
L451.291 194.74
L452.588 193.095
L453.712 191.449
L454.673 189.803
L455.482 188.158
L456.713 184.866
L457.571 181.575
L460.809 166.764
L461.898 161.827
L462.463 158.535
L462.86 155.244
L463.167 150.307
L463.224 145.37
L463.027 138.787
L462.576 128.913
L462.653 123.976
L463.272 109.165
L463.3 104.228
L463.3 104.228" style="fill:none;stroke:#494949;stroke-linecap:round;stroke-width:1.5;"/>
   </g>
   <g id="line2d_33">
    <path clip-path="url(#p55a2aadd3b)" d="
M463.348 313.23
L463.479 308.293
L463.797 305.001
L464.104 303.356
L464.567 301.71
L465.238 300.064
L466.175 298.418
L467.437 296.773
L469.08 295.127
L471.149 293.481
L473.676 291.836
L476.672 290.19
L480.128 288.544
L484.016 286.899
L488.285 285.253
L497.694 281.962
L517.456 275.379
L526.299 272.088
L530.181 270.442
L533.626 268.796
L536.589 267.15
L539.037 265.505
L540.954 263.859
L542.34 262.213
L543.219 260.568
L543.639 258.922
L543.672 257.276
L543.41 255.631
L542.42 252.339
L541.473 249.048
L541.207 247.402
L541.13 245.757
L541.241 244.111
L541.876 240.82
L542.603 237.528
L542.801 235.882
L542.785 234.237
L542.492 232.591
L541.864 230.945
L540.851 229.3
L539.409 227.654
L537.496 226.008
L535.081 224.363
L532.151 222.717
L528.716 221.071
L524.824 219.426
L516.03 216.134
L502.293 211.197
L498.097 209.552
L494.245 207.906
L490.771 206.26
L487.678 204.615
L484.943 202.969
L482.528 201.323
L480.394 199.677
L478.503 198.032
L476.828 196.386
L475.349 194.74
L474.052 193.095
L472.928 191.449
L471.967 189.803
L471.158 188.158
L469.927 184.866
L469.069 181.575
L465.831 166.764
L464.742 161.827
L464.177 158.535
L463.78 155.244
L463.473 150.307
L463.416 145.37
L463.613 138.787
L464.064 128.913
L463.987 123.976
L463.368 109.165
L463.34 104.228
L463.34 104.228" style="fill:none;stroke:#494949;stroke-linecap:round;stroke-width:1.5;"/>
   </g>
   <g id="line2d_34">
    <path clip-path="url(#p55a2aadd3b)" d="
M588.521 263.079
L739.879 263.079" style="fill:none;stroke:#494949;stroke-dasharray:1.000000,3.000000;stroke-dashoffset:0.0;stroke-width:1.5;"/>
   </g>
   <g id="line2d_35">
    <path clip-path="url(#p55a2aadd3b)" d="
M609.028 227.299
L719.372 227.299" style="fill:none;stroke:#494949;stroke-dasharray:1.000000,3.000000;stroke-dashoffset:0.0;stroke-width:1.5;"/>
   </g>
   <g id="line2d_36">
    <path clip-path="url(#p55a2aadd3b)" d="
M589.104 247.688
L739.296 247.688" style="fill:none;stroke:#494949;stroke-dasharray:6.000000,6.000000;stroke-dashoffset:0.0;stroke-width:1.5;"/>
   </g>
   <g id="line2d_37">
    <path clip-path="url(#p55a2aadd3b)" d="
M664.163 310.186
L664.004 305.759
L663.661 302.807
L663.348 301.332
L662.895 299.856
L662.261 298.381
L661.402 296.905
L660.277 295.429
L658.848 293.954
L657.085 292.478
L654.969 291.002
L652.493 289.527
L649.665 288.051
L646.499 286.575
L639.261 283.624
L631.057 280.673
L605.185 271.819
L601.472 270.343
L598.109 268.867
L595.129 267.392
L592.536 265.916
L590.319 264.44
L588.454 262.965
L586.913 261.489
L585.678 260.014
L584.744 258.538
L584.125 257.062
L583.848 255.587
L583.947 254.111
L584.454 252.635
L585.386 251.16
L586.736 249.684
L588.466 248.208
L590.508 246.733
L599.618 240.83
L601.562 239.354
L603.209 237.879
L604.54 236.403
L605.574 234.927
L606.366 233.452
L608.935 227.549
L609.913 226.073
L611.181 224.598
L612.781 223.122
L614.727 221.647
L617.009 220.171
L619.588 218.695
L625.386 215.744
L634.442 211.317
L639.782 208.366
L642.076 206.89
L644.092 205.414
L645.833 203.939
L647.321 202.463
L648.586 200.987
L649.664 199.512
L651.378 196.56
L652.632 193.609
L653.497 190.658
L654.067 187.706
L654.841 183.28
L655.671 180.328
L656.877 177.377
L661.021 168.523
L661.942 165.572
L662.556 162.62
L662.923 159.669
L663.151 155.242
L663.344 143.437
L664.111 130.156
L664.176 122.778
L664.176 122.778" style="fill:none;stroke:#494949;stroke-linecap:round;stroke-width:1.5;"/>
   </g>
   <g id="line2d_38">
    <path clip-path="url(#p55a2aadd3b)" d="
M664.237 310.186
L664.396 305.759
L664.739 302.807
L665.052 301.332
L665.505 299.856
L666.139 298.381
L666.998 296.905
L668.123 295.429
L669.552 293.954
L671.315 292.478
L673.431 291.002
L675.907 289.527
L678.735 288.051
L681.901 286.575
L689.139 283.624
L697.343 280.673
L723.215 271.819
L726.928 270.343
L730.291 268.867
L733.271 267.392
L735.864 265.916
L738.081 264.44
L739.946 262.965
L741.487 261.489
L742.722 260.014
L743.656 258.538
L744.275 257.062
L744.552 255.587
L744.453 254.111
L743.946 252.635
L743.014 251.16
L741.664 249.684
L739.934 248.208
L737.892 246.733
L728.782 240.83
L726.838 239.354
L725.191 237.879
L723.86 236.403
L722.826 234.927
L722.034 233.452
L719.465 227.549
L718.487 226.073
L717.219 224.598
L715.619 223.122
L713.673 221.647
L711.391 220.171
L708.812 218.695
L703.014 215.744
L693.958 211.317
L688.618 208.366
L686.324 206.89
L684.308 205.414
L682.567 203.939
L681.079 202.463
L679.814 200.987
L678.736 199.512
L677.022 196.56
L675.768 193.609
L674.903 190.658
L674.333 187.706
L673.559 183.28
L672.729 180.328
L671.523 177.377
L667.379 168.523
L666.458 165.572
L665.844 162.62
L665.477 159.669
L665.249 155.242
L665.056 143.437
L664.289 130.156
L664.224 122.778
L664.224 122.778" style="fill:none;stroke:#494949;stroke-linecap:round;stroke-width:1.5;"/>
   </g>
   <g id="line2d_39">
    <path clip-path="url(#p55a2aadd3b)" d="
M797.264 255.437
L932.896 255.437" style="fill:none;stroke:#494949;stroke-dasharray:1.000000,3.000000;stroke-dashoffset:0.0;stroke-width:1.5;"/>
   </g>
   <g id="line2d_40">
    <path clip-path="url(#p55a2aadd3b)" d="
M797.328 227.735
L932.832 227.735" style="fill:none;stroke:#494949;stroke-dasharray:1.000000,3.000000;stroke-dashoffset:0.0;stroke-width:1.5;"/>
   </g>
   <g id="line2d_41">
    <path clip-path="url(#p55a2aadd3b)" d="
M784.64 241.287
L945.52 241.287" style="fill:none;stroke:#494949;stroke-dasharray:6.000000,6.000000;stroke-dashoffset:0.0;stroke-width:1.5;"/>
   </g>
   <g id="line2d_42">
    <path clip-path="url(#p55a2aadd3b)" d="
M865.051 300.227
L864.91 295.589
L864.584 292.806
L864.157 290.951
L863.474 289.096
L862.452 287.24
L861.01 285.385
L859.076 283.53
L856.596 281.675
L853.542 279.819
L849.922 277.964
L845.785 276.109
L838.858 273.326
L807.645 261.267
L803.54 259.411
L800.166 257.556
L797.613 255.701
L795.709 253.846
L792.353 250.135
L790.326 248.28
L787.099 245.497
L786.184 244.569
L785.453 243.642
L784.956 242.714
L784.728 241.786
L784.781 240.859
L785.106 239.931
L785.674 239.004
L787.347 237.148
L794.154 230.655
L796.089 228.8
L798.418 226.944
L801.351 225.089
L804.933 223.234
L809.05 221.379
L815.81 218.596
L827.673 213.957
L844.641 207.464
L848.942 205.609
L852.69 203.754
L855.817 201.898
L858.339 200.043
L860.326 198.188
L861.857 196.332
L863.002 194.477
L863.82 192.622
L864.368 190.767
L864.709 188.911
L864.96 186.129
L865.05 182.418
L865.05 182.418" style="fill:none;stroke:#494949;stroke-linecap:round;stroke-width:1.5;"/>
   </g>
   <g id="line2d_43">
    <path clip-path="url(#p55a2aadd3b)" d="
M865.109 300.227
L865.25 295.589
L865.576 292.806
L866.003 290.951
L866.686 289.096
L867.708 287.24
L869.15 285.385
L871.084 283.53
L873.564 281.675
L876.618 279.819
L880.238 277.964
L884.375 276.109
L891.302 273.326
L922.515 261.267
L926.62 259.411
L929.994 257.556
L932.547 255.701
L934.451 253.846
L937.807 250.135
L939.834 248.28
L943.061 245.497
L943.976 244.569
L944.707 243.642
L945.204 242.714
L945.432 241.786
L945.379 240.859
L945.054 239.931
L944.486 239.004
L942.813 237.148
L936.006 230.655
L934.071 228.8
L931.742 226.944
L928.809 225.089
L925.227 223.234
L921.11 221.379
L914.35 218.596
L902.487 213.957
L885.519 207.464
L881.218 205.609
L877.47 203.754
L874.343 201.898
L871.821 200.043
L869.834 198.188
L868.303 196.332
L867.158 194.477
L866.34 192.622
L865.792 190.767
L865.451 188.911
L865.2 186.129
L865.11 182.418
L865.11 182.418" style="fill:none;stroke:#494949;stroke-linecap:round;stroke-width:1.5;"/>
   </g>
   <g id="line2d_44">
    <path clip-path="url(#p55a2aadd3b)" d="
M988.021 256.379
L1143.9 256.379" style="fill:none;stroke:#494949;stroke-dasharray:1.000000,3.000000;stroke-dashoffset:0.0;stroke-width:1.5;"/>
   </g>
   <g id="line2d_45">
    <path clip-path="url(#p55a2aadd3b)" d="
M997.808 223.344
L1134.11 223.344" style="fill:none;stroke:#494949;stroke-dasharray:1.000000,3.000000;stroke-dashoffset:0.0;stroke-width:1.5;"/>
   </g>
   <g id="line2d_46">
    <path clip-path="url(#p55a2aadd3b)" d="
M986.757 240.006
L1145.16 240.006" style="fill:none;stroke:#494949;stroke-dasharray:6.000000,6.000000;stroke-dashoffset:0.0;stroke-width:1.5;"/>
   </g>
   <g id="line2d_47">
    <path clip-path="url(#p55a2aadd3b)" d="
M1065.94 312.511
L1065.81 306.164
L1065.57 302.99
L1065.03 299.816
L1064.59 298.229
L1063.99 296.642
L1063.21 295.055
L1062.2 293.468
L1060.94 291.881
L1059.4 290.294
L1057.57 288.707
L1055.41 287.12
L1052.93 285.533
L1050.11 283.947
L1046.95 282.36
L1043.45 280.773
L1035.58 277.599
L1026.87 274.425
L1013.52 269.664
L1005.36 266.49
L1001.68 264.903
L998.317 263.316
L995.306 261.729
L992.675 260.143
L990.451 258.556
L988.656 256.969
L987.299 255.382
L986.368 253.795
L985.826 252.208
L985.608 250.621
L985.63 249.034
L986.032 245.86
L986.65 241.099
L987.096 237.926
L987.464 236.339
L987.993 234.752
L988.71 233.165
L989.632 231.578
L990.76 229.991
L992.097 228.404
L993.646 226.817
L995.419 225.23
L997.437 223.643
L999.722 222.056
L1002.3 220.469
L1005.17 218.882
L1008.32 217.295
L1015.36 214.122
L1030.15 207.774
L1033.47 206.187
L1036.5 204.6
L1039.22 203.013
L1041.65 201.426
L1043.82 199.839
L1045.76 198.252
L1049.11 195.078
L1051.87 191.904
L1054.06 188.731
L1055.76 185.557
L1057.82 180.796
L1061.72 171.274
L1062.73 168.101
L1063.5 164.927
L1064.4 160.166
L1065.1 155.405
L1065.53 150.644
L1065.62 147.47
L1065.51 142.71
L1065.24 134.775
L1065.35 130.014
L1065.89 117.319
L1065.94 110.971
L1065.94 110.971" style="fill:none;stroke:#494949;stroke-linecap:round;stroke-width:1.5;"/>
   </g>
   <g id="line2d_48">
    <path clip-path="url(#p55a2aadd3b)" d="
M1065.98 312.511
L1066.11 306.164
L1066.35 302.99
L1066.89 299.816
L1067.33 298.229
L1067.93 296.642
L1068.71 295.055
L1069.72 293.468
L1070.98 291.881
L1072.52 290.294
L1074.35 288.707
L1076.51 287.12
L1078.99 285.533
L1081.81 283.947
L1084.97 282.36
L1088.47 280.773
L1096.34 277.599
L1105.05 274.425
L1118.4 269.664
L1126.56 266.49
L1130.24 264.903
L1133.6 263.316
L1136.61 261.729
L1139.24 260.143
L1141.47 258.556
L1143.26 256.969
L1144.62 255.382
L1145.55 253.795
L1146.09 252.208
L1146.31 250.621
L1146.29 249.034
L1145.89 245.86
L1145.27 241.099
L1144.82 237.926
L1144.46 236.339
L1143.93 234.752
L1143.21 233.165
L1142.29 231.578
L1141.16 229.991
L1139.82 228.404
L1138.27 226.817
L1136.5 225.23
L1134.48 223.643
L1132.2 222.056
L1129.62 220.469
L1126.75 218.882
L1123.6 217.295
L1116.56 214.122
L1101.77 207.774
L1098.45 206.187
L1095.42 204.6
L1092.7 203.013
L1090.27 201.426
L1088.1 199.839
L1086.16 198.252
L1082.81 195.078
L1080.05 191.904
L1077.86 188.731
L1076.16 185.557
L1074.1 180.796
L1070.2 171.274
L1069.19 168.101
L1068.42 164.927
L1067.52 160.166
L1066.82 155.405
L1066.39 150.644
L1066.3 147.47
L1066.41 142.71
L1066.68 134.775
L1066.57 130.014
L1066.03 117.319
L1065.98 110.971
L1065.98 110.971" style="fill:none;stroke:#494949;stroke-linecap:round;stroke-width:1.5;"/>
   </g>
   <g id="patch_3">
    <path d="
M162 325.636
L1166.4 325.636" style="fill:none;stroke:#000000;"/>
   </g>
   <g id="patch_4">
    <path d="
M162 325.636
L162 72" style="fill:none;stroke:#000000;"/>
   </g>
   <g id="text_16">
    <!-- Distribution of Centroid Distances by Cluster -->
    <defs>
     <path d="
M32.1719 -5.07812
Q28.375 -14.8438 24.75 -17.8125
Q21.1406 -20.7969 15.0938 -20.7969
L7.90625 -20.7969
L7.90625 -13.2812
L13.1875 -13.2812
Q16.8906 -13.2812 18.9375 -11.5156
Q21 -9.76562 23.4844 -3.21875
L25.0938 0.875
L2.98438 54.6875
L12.5 54.6875
L29.5938 11.9219
L46.6875 54.6875
L56.2031 54.6875
z
" id="BitstreamVeraSans-Roman-79"/>
     <path d="
M8.5 21.5781
L8.5 54.6875
L17.4844 54.6875
L17.4844 21.9219
Q17.4844 14.1562 20.5 10.2656
Q23.5312 6.39062 29.5938 6.39062
Q36.8594 6.39062 41.0781 11.0312
Q45.3125 15.6719 45.3125 23.6875
L45.3125 54.6875
L54.2969 54.6875
L54.2969 0
L45.3125 0
L45.3125 8.40625
Q42.0469 3.42188 37.7188 1
Q33.4062 -1.42188 27.6875 -1.42188
Q18.2656 -1.42188 13.375 4.4375
Q8.5 10.2969 8.5 21.5781" id="BitstreamVeraSans-Roman-75"/>
     <path d="
M37.1094 75.9844
L37.1094 68.5
L28.5156 68.5
Q23.6875 68.5 21.7969 66.5469
Q19.9219 64.5938 19.9219 59.5156
L19.9219 54.6875
L34.7188 54.6875
L34.7188 47.7031
L19.9219 47.7031
L19.9219 0
L10.8906 0
L10.8906 47.7031
L2.29688 47.7031
L2.29688 54.6875
L10.8906 54.6875
L10.8906 58.5
Q10.8906 67.625 15.1406 71.7969
Q19.3906 75.9844 28.6094 75.9844
z
" id="BitstreamVeraSans-Roman-66"/>
     <path d="
M9.42188 75.9844
L18.4062 75.9844
L18.4062 0
L9.42188 0
z
" id="BitstreamVeraSans-Roman-6c"/>
     <path d="
M48.6875 27.2969
Q48.6875 37.2031 44.6094 42.8438
Q40.5312 48.4844 33.4062 48.4844
Q26.2656 48.4844 22.1875 42.8438
Q18.1094 37.2031 18.1094 27.2969
Q18.1094 17.3906 22.1875 11.75
Q26.2656 6.10938 33.4062 6.10938
Q40.5312 6.10938 44.6094 11.75
Q48.6875 17.3906 48.6875 27.2969
M18.1094 46.3906
Q20.9531 51.2656 25.2656 53.625
Q29.5938 56 35.5938 56
Q45.5625 56 51.7812 48.0938
Q58.0156 40.1875 58.0156 27.2969
Q58.0156 14.4062 51.7812 6.48438
Q45.5625 -1.42188 35.5938 -1.42188
Q29.5938 -1.42188 25.2656 0.953125
Q20.9531 3.32812 18.1094 8.20312
L18.1094 0
L9.07812 0
L9.07812 75.9844
L18.1094 75.9844
z
" id="BitstreamVeraSans-Roman-62"/>
    </defs>
    <g transform="translate(530.3484375 67.0)scale(0.12 -0.12)">
     <use xlink:href="#BitstreamVeraSans-Roman-44"/>
     <use x="77.001953125" xlink:href="#BitstreamVeraSans-Roman-69"/>
     <use x="104.78515625" xlink:href="#BitstreamVeraSans-Roman-73"/>
     <use x="156.884765625" xlink:href="#BitstreamVeraSans-Roman-74"/>
     <use x="196.09375" xlink:href="#BitstreamVeraSans-Roman-72"/>
     <use x="237.20703125" xlink:href="#BitstreamVeraSans-Roman-69"/>
     <use x="264.990234375" xlink:href="#BitstreamVeraSans-Roman-62"/>
     <use x="328.466796875" xlink:href="#BitstreamVeraSans-Roman-75"/>
     <use x="391.845703125" xlink:href="#BitstreamVeraSans-Roman-74"/>
     <use x="431.0546875" xlink:href="#BitstreamVeraSans-Roman-69"/>
     <use x="458.837890625" xlink:href="#BitstreamVeraSans-Roman-6f"/>
     <use x="520.01953125" xlink:href="#BitstreamVeraSans-Roman-6e"/>
     <use x="583.3984375" xlink:href="#BitstreamVeraSans-Roman-20"/>
     <use x="615.185546875" xlink:href="#BitstreamVeraSans-Roman-6f"/>
     <use x="676.3671875" xlink:href="#BitstreamVeraSans-Roman-66"/>
     <use x="711.572265625" xlink:href="#BitstreamVeraSans-Roman-20"/>
     <use x="743.359375" xlink:href="#BitstreamVeraSans-Roman-43"/>
     <use x="813.18359375" xlink:href="#BitstreamVeraSans-Roman-65"/>
     <use x="874.70703125" xlink:href="#BitstreamVeraSans-Roman-6e"/>
     <use x="938.0859375" xlink:href="#BitstreamVeraSans-Roman-74"/>
     <use x="977.294921875" xlink:href="#BitstreamVeraSans-Roman-72"/>
     <use x="1016.15820312" xlink:href="#BitstreamVeraSans-Roman-6f"/>
     <use x="1077.33984375" xlink:href="#BitstreamVeraSans-Roman-69"/>
     <use x="1105.12304688" xlink:href="#BitstreamVeraSans-Roman-64"/>
     <use x="1168.59960938" xlink:href="#BitstreamVeraSans-Roman-20"/>
     <use x="1200.38671875" xlink:href="#BitstreamVeraSans-Roman-44"/>
     <use x="1277.38867188" xlink:href="#BitstreamVeraSans-Roman-69"/>
     <use x="1305.171875" xlink:href="#BitstreamVeraSans-Roman-73"/>
     <use x="1357.27148438" xlink:href="#BitstreamVeraSans-Roman-74"/>
     <use x="1396.48046875" xlink:href="#BitstreamVeraSans-Roman-61"/>
     <use x="1457.75976562" xlink:href="#BitstreamVeraSans-Roman-6e"/>
     <use x="1521.13867188" xlink:href="#BitstreamVeraSans-Roman-63"/>
     <use x="1576.11914062" xlink:href="#BitstreamVeraSans-Roman-65"/>
     <use x="1637.64257812" xlink:href="#BitstreamVeraSans-Roman-73"/>
     <use x="1689.7421875" xlink:href="#BitstreamVeraSans-Roman-20"/>
     <use x="1721.52929688" xlink:href="#BitstreamVeraSans-Roman-62"/>
     <use x="1785.00585938" xlink:href="#BitstreamVeraSans-Roman-79"/>
     <use x="1844.18554688" xlink:href="#BitstreamVeraSans-Roman-20"/>
     <use x="1875.97265625" xlink:href="#BitstreamVeraSans-Roman-43"/>
     <use x="1945.796875" xlink:href="#BitstreamVeraSans-Roman-6c"/>
     <use x="1973.58007812" xlink:href="#BitstreamVeraSans-Roman-75"/>
     <use x="2036.95898438" xlink:href="#BitstreamVeraSans-Roman-73"/>
     <use x="2089.05859375" xlink:href="#BitstreamVeraSans-Roman-74"/>
     <use x="2128.26757812" xlink:href="#BitstreamVeraSans-Roman-65"/>
     <use x="2189.79101562" xlink:href="#BitstreamVeraSans-Roman-72"/>
    </g>
   </g>
  </g>
  <g id="axes_2">
   <g id="patch_5">
    <path d="
M162 630
L1166.4 630
L1166.4 376.364
L162 376.364
z
" style="fill:#ffffff;"/>
   </g>
   <g id="matplotlib.axis_3">
    <g id="xtick_6">
     <g id="line2d_49">
      <path clip-path="url(#pe88aad526e)" d="
M281.571 630
L281.571 376.364" style="fill:none;stroke:#ffffff;stroke-linecap:round;stroke-width:0.8;"/>
     </g>
     <g id="line2d_50">
      <g>
       <use style="stroke:#000000;stroke-width:0.5;" x="281.571428571" xlink:href="#m48243eeccc" y="630.0"/>
      </g>
     </g>
     <g id="text_17">
      <!-- 0 -->
      <g transform="translate(284.330803571 642.0390625)rotate(-90.0)scale(0.1 -0.1)">
       <use xlink:href="#BitstreamVeraSans-Roman-30"/>
      </g>
     </g>
    </g>
    <g id="xtick_7">
     <g id="line2d_51">
      <path clip-path="url(#pe88aad526e)" d="
M472.886 630
L472.886 376.364" style="fill:none;stroke:#ffffff;stroke-linecap:round;stroke-width:0.8;"/>
     </g>
     <g id="line2d_52">
      <g>
       <use style="stroke:#000000;stroke-width:0.5;" x="472.885714286" xlink:href="#m48243eeccc" y="630.0"/>
      </g>
     </g>
     <g id="text_18">
      <!-- 1 -->
      <g transform="translate(475.645089286 641.340625)rotate(-90.0)scale(0.1 -0.1)">
       <use xlink:href="#BitstreamVeraSans-Roman-31"/>
      </g>
     </g>
    </g>
    <g id="xtick_8">
     <g id="line2d_53">
      <path clip-path="url(#pe88aad526e)" d="
M664.2 630
L664.2 376.364" style="fill:none;stroke:#ffffff;stroke-linecap:round;stroke-width:0.8;"/>
     </g>
     <g id="line2d_54">
      <g>
       <use style="stroke:#000000;stroke-width:0.5;" x="664.2" xlink:href="#m48243eeccc" y="630.0"/>
      </g>
     </g>
     <g id="text_19">
      <!-- 2 -->
      <g transform="translate(666.959375 641.628125)rotate(-90.0)scale(0.1 -0.1)">
       <use xlink:href="#BitstreamVeraSans-Roman-32"/>
      </g>
     </g>
    </g>
    <g id="xtick_9">
     <g id="line2d_55">
      <path clip-path="url(#pe88aad526e)" d="
M855.514 630
L855.514 376.364" style="fill:none;stroke:#ffffff;stroke-linecap:round;stroke-width:0.8;"/>
     </g>
     <g id="line2d_56">
      <g>
       <use style="stroke:#000000;stroke-width:0.5;" x="855.514285714" xlink:href="#m48243eeccc" y="630.0"/>
      </g>
     </g>
     <g id="text_20">
      <!-- 3 -->
      <g transform="translate(858.273660714 641.7984375)rotate(-90.0)scale(0.1 -0.1)">
       <use xlink:href="#BitstreamVeraSans-Roman-33"/>
      </g>
     </g>
    </g>
    <g id="xtick_10">
     <g id="line2d_57">
      <path clip-path="url(#pe88aad526e)" d="
M1046.83 630
L1046.83 376.364" style="fill:none;stroke:#ffffff;stroke-linecap:round;stroke-width:0.8;"/>
     </g>
     <g id="line2d_58">
      <g>
       <use style="stroke:#000000;stroke-width:0.5;" x="1046.82857143" xlink:href="#m48243eeccc" y="630.0"/>
      </g>
     </g>
     <g id="text_21">
      <!-- 4 -->
      <g transform="translate(1049.58794643 642.3125)rotate(-90.0)scale(0.1 -0.1)">
       <use xlink:href="#BitstreamVeraSans-Roman-34"/>
      </g>
     </g>
    </g>
   </g>
   <g id="matplotlib.axis_4">
    <g id="ytick_10">
     <g id="line2d_59">
      <path clip-path="url(#pe88aad526e)" d="
M162 630
L1166.4 630" style="fill:none;stroke:#ffffff;stroke-linecap:round;stroke-width:0.8;"/>
     </g>
     <g id="line2d_60">
      <g>
       <use style="stroke:#000000;stroke-width:0.5;" x="162.0" xlink:href="#m48243eeccc" y="630.0"/>
      </g>
     </g>
     <g id="text_22">
      <!-- 0.0 -->
      <g transform="translate(140.4203125 632.759375)scale(0.1 -0.1)">
       <use xlink:href="#BitstreamVeraSans-Roman-30"/>
       <use x="63.623046875" xlink:href="#BitstreamVeraSans-Roman-2e"/>
       <use x="95.41015625" xlink:href="#BitstreamVeraSans-Roman-30"/>
      </g>
     </g>
    </g>
    <g id="ytick_11">
     <g id="line2d_61">
      <path clip-path="url(#pe88aad526e)" d="
M162 587.727
L1166.4 587.727" style="fill:none;stroke:#ffffff;stroke-linecap:round;stroke-width:0.8;"/>
     </g>
     <g id="line2d_62">
      <g>
       <use style="stroke:#000000;stroke-width:0.5;" x="162.0" xlink:href="#m48243eeccc" y="587.727272727"/>
      </g>
     </g>
     <g id="text_23">
      <!-- 0.1 -->
      <g transform="translate(140.6796875 590.486647727)scale(0.1 -0.1)">
       <use xlink:href="#BitstreamVeraSans-Roman-30"/>
       <use x="63.623046875" xlink:href="#BitstreamVeraSans-Roman-2e"/>
       <use x="95.41015625" xlink:href="#BitstreamVeraSans-Roman-31"/>
      </g>
     </g>
    </g>
    <g id="ytick_12">
     <g id="line2d_63">
      <path clip-path="url(#pe88aad526e)" d="
M162 545.455
L1166.4 545.455" style="fill:none;stroke:#ffffff;stroke-linecap:round;stroke-width:0.8;"/>
     </g>
     <g id="line2d_64">
      <g>
       <use style="stroke:#000000;stroke-width:0.5;" x="162.0" xlink:href="#m48243eeccc" y="545.454545455"/>
      </g>
     </g>
     <g id="text_24">
      <!-- 0.2 -->
      <g transform="translate(140.7578125 548.213920455)scale(0.1 -0.1)">
       <use xlink:href="#BitstreamVeraSans-Roman-30"/>
       <use x="63.623046875" xlink:href="#BitstreamVeraSans-Roman-2e"/>
       <use x="95.41015625" xlink:href="#BitstreamVeraSans-Roman-32"/>
      </g>
     </g>
    </g>
    <g id="ytick_13">
     <g id="line2d_65">
      <path clip-path="url(#pe88aad526e)" d="
M162 503.182
L1166.4 503.182" style="fill:none;stroke:#ffffff;stroke-linecap:round;stroke-width:0.8;"/>
     </g>
     <g id="line2d_66">
      <g>
       <use style="stroke:#000000;stroke-width:0.5;" x="162.0" xlink:href="#m48243eeccc" y="503.181818182"/>
      </g>
     </g>
     <g id="text_25">
      <!-- 0.3 -->
      <g transform="translate(140.5578125 505.941193182)scale(0.1 -0.1)">
       <use xlink:href="#BitstreamVeraSans-Roman-30"/>
       <use x="63.623046875" xlink:href="#BitstreamVeraSans-Roman-2e"/>
       <use x="95.41015625" xlink:href="#BitstreamVeraSans-Roman-33"/>
      </g>
     </g>
    </g>
    <g id="ytick_14">
     <g id="line2d_67">
      <path clip-path="url(#pe88aad526e)" d="
M162 460.909
L1166.4 460.909" style="fill:none;stroke:#ffffff;stroke-linecap:round;stroke-width:0.8;"/>
     </g>
     <g id="line2d_68">
      <g>
       <use style="stroke:#000000;stroke-width:0.5;" x="162.0" xlink:href="#m48243eeccc" y="460.909090909"/>
      </g>
     </g>
     <g id="text_26">
      <!-- 0.4 -->
      <g transform="translate(140.3171875 463.668465909)scale(0.1 -0.1)">
       <use xlink:href="#BitstreamVeraSans-Roman-30"/>
       <use x="63.623046875" xlink:href="#BitstreamVeraSans-Roman-2e"/>
       <use x="95.41015625" xlink:href="#BitstreamVeraSans-Roman-34"/>
      </g>
     </g>
    </g>
    <g id="ytick_15">
     <g id="line2d_69">
      <path clip-path="url(#pe88aad526e)" d="
M162 418.636
L1166.4 418.636" style="fill:none;stroke:#ffffff;stroke-linecap:round;stroke-width:0.8;"/>
     </g>
     <g id="line2d_70">
      <g>
       <use style="stroke:#000000;stroke-width:0.5;" x="162.0" xlink:href="#m48243eeccc" y="418.636363636"/>
      </g>
     </g>
     <g id="text_27">
      <!-- 0.5 -->
      <g transform="translate(140.6296875 421.395738636)scale(0.1 -0.1)">
       <use xlink:href="#BitstreamVeraSans-Roman-30"/>
       <use x="63.623046875" xlink:href="#BitstreamVeraSans-Roman-2e"/>
       <use x="95.41015625" xlink:href="#BitstreamVeraSans-Roman-35"/>
      </g>
     </g>
    </g>
    <g id="ytick_16">
     <g id="line2d_71">
      <path clip-path="url(#pe88aad526e)" d="
M162 376.364
L1166.4 376.364" style="fill:none;stroke:#ffffff;stroke-linecap:round;stroke-width:0.8;"/>
     </g>
     <g id="line2d_72">
      <g>
       <use style="stroke:#000000;stroke-width:0.5;" x="162.0" xlink:href="#m48243eeccc" y="376.363636364"/>
      </g>
     </g>
     <g id="text_28">
      <!-- 0.6 -->
      <g transform="translate(140.3859375 379.123011364)scale(0.1 -0.1)">
       <use xlink:href="#BitstreamVeraSans-Roman-30"/>
       <use x="63.623046875" xlink:href="#BitstreamVeraSans-Roman-2e"/>
       <use x="95.41015625" xlink:href="#BitstreamVeraSans-Roman-36"/>
      </g>
     </g>
    </g>
    <g id="text_29">
     <!-- Coefficient of Variation -->
     <defs>
      <path d="
M28.6094 0
L0.78125 72.9062
L11.0781 72.9062
L34.1875 11.5312
L57.3281 72.9062
L67.5781 72.9062
L39.7969 0
z
" id="BitstreamVeraSans-Roman-56"/>
     </defs>
     <g transform="translate(133.02953125 565.482208807)rotate(-90.0)scale(0.11 -0.11)">
      <use xlink:href="#BitstreamVeraSans-Roman-43"/>
      <use x="69.82421875" xlink:href="#BitstreamVeraSans-Roman-6f"/>
      <use x="131.005859375" xlink:href="#BitstreamVeraSans-Roman-65"/>
      <use x="192.529296875" xlink:href="#BitstreamVeraSans-Roman-66"/>
      <use x="227.734375" xlink:href="#BitstreamVeraSans-Roman-66"/>
      <use x="262.939453125" xlink:href="#BitstreamVeraSans-Roman-69"/>
      <use x="290.72265625" xlink:href="#BitstreamVeraSans-Roman-63"/>
      <use x="345.703125" xlink:href="#BitstreamVeraSans-Roman-69"/>
      <use x="373.486328125" xlink:href="#BitstreamVeraSans-Roman-65"/>
      <use x="435.009765625" xlink:href="#BitstreamVeraSans-Roman-6e"/>
      <use x="498.388671875" xlink:href="#BitstreamVeraSans-Roman-74"/>
      <use x="537.59765625" xlink:href="#BitstreamVeraSans-Roman-20"/>
      <use x="569.384765625" xlink:href="#BitstreamVeraSans-Roman-6f"/>
      <use x="630.56640625" xlink:href="#BitstreamVeraSans-Roman-66"/>
      <use x="665.771484375" xlink:href="#BitstreamVeraSans-Roman-20"/>
      <use x="697.55859375" xlink:href="#BitstreamVeraSans-Roman-56"/>
      <use x="758.216796875" xlink:href="#BitstreamVeraSans-Roman-61"/>
      <use x="819.49609375" xlink:href="#BitstreamVeraSans-Roman-72"/>
      <use x="860.609375" xlink:href="#BitstreamVeraSans-Roman-69"/>
      <use x="888.392578125" xlink:href="#BitstreamVeraSans-Roman-61"/>
      <use x="949.671875" xlink:href="#BitstreamVeraSans-Roman-74"/>
      <use x="988.880859375" xlink:href="#BitstreamVeraSans-Roman-69"/>
      <use x="1016.6640625" xlink:href="#BitstreamVeraSans-Roman-6f"/>
      <use x="1077.84570312" xlink:href="#BitstreamVeraSans-Roman-6e"/>
     </g>
    </g>
   </g>
   <g id="patch_6">
    <path clip-path="url(#pe88aad526e)" d="
M209.829 630
L353.314 630
L353.314 409.517
L209.829 409.517
z
" style="fill:#4c72b0;stroke:#000000;stroke-width:0.3;"/>
   </g>
   <g id="patch_7">
    <path clip-path="url(#pe88aad526e)" d="
M401.143 630
L544.629 630
L544.629 426.79
L401.143 426.79
z
" style="fill:#4c72b0;stroke:#000000;stroke-width:0.3;"/>
   </g>
   <g id="patch_8">
    <path clip-path="url(#pe88aad526e)" d="
M592.457 630
L735.943 630
L735.943 417.34
L592.457 417.34
z
" style="fill:#4c72b0;stroke:#000000;stroke-width:0.3;"/>
   </g>
   <g id="patch_9">
    <path clip-path="url(#pe88aad526e)" d="
M783.771 630
L927.257 630
L927.257 485.498
L783.771 485.498
z
" style="fill:#4c72b0;stroke:#000000;stroke-width:0.3;"/>
   </g>
   <g id="patch_10">
    <path clip-path="url(#pe88aad526e)" d="
M975.086 630
L1118.57 630
L1118.57 443.557
L975.086 443.557
z
" style="fill:#4c72b0;stroke:#000000;stroke-width:0.3;"/>
   </g>
   <g id="line2d_73">
    <path clip-path="url(#pe88aad526e)" d="
M162 630
L1166.4 630" style="fill:none;stroke:#000000;stroke-dasharray:6.000000,6.000000;stroke-dashoffset:0.0;stroke-width:1.4;"/>
   </g>
   <g id="patch_11">
    <path d="
M162 630
L1166.4 630" style="fill:none;stroke:#000000;"/>
   </g>
   <g id="patch_12">
    <path d="
M162 630
L162 376.364" style="fill:none;stroke:#000000;"/>
   </g>
   <g id="text_30">
    <!-- Coefficient of Variation by Cluster -->
    <g transform="translate(563.2575 371.363636364)scale(0.12 -0.12)">
     <use xlink:href="#BitstreamVeraSans-Roman-43"/>
     <use x="69.82421875" xlink:href="#BitstreamVeraSans-Roman-6f"/>
     <use x="131.005859375" xlink:href="#BitstreamVeraSans-Roman-65"/>
     <use x="192.529296875" xlink:href="#BitstreamVeraSans-Roman-66"/>
     <use x="227.734375" xlink:href="#BitstreamVeraSans-Roman-66"/>
     <use x="262.939453125" xlink:href="#BitstreamVeraSans-Roman-69"/>
     <use x="290.72265625" xlink:href="#BitstreamVeraSans-Roman-63"/>
     <use x="345.703125" xlink:href="#BitstreamVeraSans-Roman-69"/>
     <use x="373.486328125" xlink:href="#BitstreamVeraSans-Roman-65"/>
     <use x="435.009765625" xlink:href="#BitstreamVeraSans-Roman-6e"/>
     <use x="498.388671875" xlink:href="#BitstreamVeraSans-Roman-74"/>
     <use x="537.59765625" xlink:href="#BitstreamVeraSans-Roman-20"/>
     <use x="569.384765625" xlink:href="#BitstreamVeraSans-Roman-6f"/>
     <use x="630.56640625" xlink:href="#BitstreamVeraSans-Roman-66"/>
     <use x="665.771484375" xlink:href="#BitstreamVeraSans-Roman-20"/>
     <use x="697.55859375" xlink:href="#BitstreamVeraSans-Roman-56"/>
     <use x="758.216796875" xlink:href="#BitstreamVeraSans-Roman-61"/>
     <use x="819.49609375" xlink:href="#BitstreamVeraSans-Roman-72"/>
     <use x="860.609375" xlink:href="#BitstreamVeraSans-Roman-69"/>
     <use x="888.392578125" xlink:href="#BitstreamVeraSans-Roman-61"/>
     <use x="949.671875" xlink:href="#BitstreamVeraSans-Roman-74"/>
     <use x="988.880859375" xlink:href="#BitstreamVeraSans-Roman-69"/>
     <use x="1016.6640625" xlink:href="#BitstreamVeraSans-Roman-6f"/>
     <use x="1077.84570312" xlink:href="#BitstreamVeraSans-Roman-6e"/>
     <use x="1141.22460938" xlink:href="#BitstreamVeraSans-Roman-20"/>
     <use x="1173.01171875" xlink:href="#BitstreamVeraSans-Roman-62"/>
     <use x="1236.48828125" xlink:href="#BitstreamVeraSans-Roman-79"/>
     <use x="1295.66796875" xlink:href="#BitstreamVeraSans-Roman-20"/>
     <use x="1327.45507812" xlink:href="#BitstreamVeraSans-Roman-43"/>
     <use x="1397.27929688" xlink:href="#BitstreamVeraSans-Roman-6c"/>
     <use x="1425.0625" xlink:href="#BitstreamVeraSans-Roman-75"/>
     <use x="1488.44140625" xlink:href="#BitstreamVeraSans-Roman-73"/>
     <use x="1540.54101562" xlink:href="#BitstreamVeraSans-Roman-74"/>
     <use x="1579.75" xlink:href="#BitstreamVeraSans-Roman-65"/>
     <use x="1641.2734375" xlink:href="#BitstreamVeraSans-Roman-72"/>
    </g>
   </g>
  </g>
 </g>
 <defs>
  <clipPath id="pe88aad526e">
   <rect height="253.636363636" width="1004.4" x="162.0" y="376.363636364"/>
  </clipPath>
  <clipPath id="p55a2aadd3b">
   <rect height="253.636363636" width="1004.4" x="162.0" y="72.0"/>
  </clipPath>
 </defs>
</svg>
