<?xml version="1.0" encoding="utf-8" standalone="no"?>
<!DOCTYPE svg PUBLIC "-//W3C//DTD SVG 1.1//EN"
  "http://www.w3.org/Graphics/SVG/1.1/DTD/svg11.dtd">
<!-- Created with matplotlib (http://matplotlib.org/) -->
<svg height="360pt" version="1.1" viewBox="0 0 864 360" width="864pt" xmlns="http://www.w3.org/2000/svg" xmlns:xlink="http://www.w3.org/1999/xlink">
 <defs>
  <style type="text/css">
*{stroke-linecap:butt;stroke-linejoin:round;}
  </style>
 </defs>
 <g id="figure_1">
  <g id="patch_1">
   <path d="
M0 360
L864 360
L864 0
L0 0
z
" style="fill:#ffffff;"/>
  </g>
  <g id="axes_1">
   <g id="patch_2">
    <path d="
M108 315
L777.6 315
L777.6 36
L108 36
z
" style="fill:#ffffff;"/>
   </g>
   <g id="matplotlib.axis_1">
    <g id="xtick_1">
     <g id="line2d_1">
      <defs>
       <path d="
M0 0
L0 0" id="m219da94a98" style="stroke:#262626;"/>
      </defs>
      <g>
       <use style="fill:#262626;stroke:#262626;" x="149.85" xlink:href="#m219da94a98" y="315.0"/>
      </g>
     </g>
     <g id="text_1">
      <!-- cap_debt -->
      <defs>
       <path d="
M50.9844 -16.6094
L50.9844 -23.5781
L-0.984375 -23.5781
L-0.984375 -16.6094
z
" id="BitstreamVeraSans-Roman-5f"/>
       <path d="
M48.7812 52.5938
L48.7812 44.1875
Q44.9688 46.2969 41.1406 47.3438
Q37.3125 48.3906 33.4062 48.3906
Q24.6562 48.3906 19.8125 42.8438
Q14.9844 37.3125 14.9844 27.2969
Q14.9844 17.2812 19.8125 11.7344
Q24.6562 6.20312 33.4062 6.20312
Q37.3125 6.20312 41.1406 7.25
Q44.9688 8.29688 48.7812 10.4062
L48.7812 2.09375
Q45.0156 0.34375 40.9844 -0.53125
Q36.9688 -1.42188 32.4219 -1.42188
Q20.0625 -1.42188 12.7812 6.34375
Q5.51562 14.1094 5.51562 27.2969
Q5.51562 40.6719 12.8594 48.3281
Q20.2188 56 33.0156 56
Q37.1562 56 41.1094 55.1406
Q45.0625 54.2969 48.7812 52.5938" id="BitstreamVeraSans-Roman-63"/>
       <path d="
M56.2031 29.5938
L56.2031 25.2031
L14.8906 25.2031
Q15.4844 15.9219 20.4844 11.0625
Q25.4844 6.20312 34.4219 6.20312
Q39.5938 6.20312 44.4531 7.46875
Q49.3125 8.73438 54.1094 11.2812
L54.1094 2.78125
Q49.2656 0.734375 44.1875 -0.34375
Q39.1094 -1.42188 33.8906 -1.42188
Q20.7969 -1.42188 13.1562 6.1875
Q5.51562 13.8125 5.51562 26.8125
Q5.51562 40.2344 12.7656 48.1094
Q20.0156 56 32.3281 56
Q43.3594 56 49.7812 48.8906
Q56.2031 41.7969 56.2031 29.5938
M47.2188 32.2344
Q47.125 39.5938 43.0938 43.9844
Q39.0625 48.3906 32.4219 48.3906
Q24.9062 48.3906 20.3906 44.1406
Q15.875 39.8906 15.1875 32.1719
z
" id="BitstreamVeraSans-Roman-65"/>
       <path d="
M45.4062 46.3906
L45.4062 75.9844
L54.3906 75.9844
L54.3906 0
L45.4062 0
L45.4062 8.20312
Q42.5781 3.32812 38.25 0.953125
Q33.9375 -1.42188 27.875 -1.42188
Q17.9688 -1.42188 11.7344 6.48438
Q5.51562 14.4062 5.51562 27.2969
Q5.51562 40.1875 11.7344 48.0938
Q17.9688 56 27.875 56
Q33.9375 56 38.25 53.625
Q42.5781 51.2656 45.4062 46.3906
M14.7969 27.2969
Q14.7969 17.3906 18.875 11.75
Q22.9531 6.10938 30.0781 6.10938
Q37.2031 6.10938 41.2969 11.75
Q45.4062 17.3906 45.4062 27.2969
Q45.4062 37.2031 41.2969 42.8438
Q37.2031 48.4844 30.0781 48.4844
Q22.9531 48.4844 18.875 42.8438
Q14.7969 37.2031 14.7969 27.2969" id="BitstreamVeraSans-Roman-64"/>
       <path d="
M18.3125 70.2188
L18.3125 54.6875
L36.8125 54.6875
L36.8125 47.7031
L18.3125 47.7031
L18.3125 18.0156
Q18.3125 11.3281 20.1406 9.42188
Q21.9688 7.51562 27.5938 7.51562
L36.8125 7.51562
L36.8125 0
L27.5938 0
Q17.1875 0 13.2344 3.875
Q9.28125 7.76562 9.28125 18.0156
L9.28125 47.7031
L2.6875 47.7031
L2.6875 54.6875
L9.28125 54.6875
L9.28125 70.2188
z
" id="BitstreamVeraSans-Roman-74"/>
       <path d="
M34.2812 27.4844
Q23.3906 27.4844 19.1875 25
Q14.9844 22.5156 14.9844 16.5
Q14.9844 11.7188 18.1406 8.90625
Q21.2969 6.10938 26.7031 6.10938
Q34.1875 6.10938 38.7031 11.4062
Q43.2188 16.7031 43.2188 25.4844
L43.2188 27.4844
z

M52.2031 31.2031
L52.2031 0
L43.2188 0
L43.2188 8.29688
Q40.1406 3.32812 35.5469 0.953125
Q30.9531 -1.42188 24.3125 -1.42188
Q15.9219 -1.42188 10.9531 3.29688
Q6 8.01562 6 15.9219
Q6 25.1406 12.1719 29.8281
Q18.3594 34.5156 30.6094 34.5156
L43.2188 34.5156
L43.2188 35.4062
Q43.2188 41.6094 39.1406 45
Q35.0625 48.3906 27.6875 48.3906
Q23 48.3906 18.5469 47.2656
Q14.1094 46.1406 10.0156 43.8906
L10.0156 52.2031
Q14.9375 54.1094 19.5781 55.0469
Q24.2188 56 28.6094 56
Q40.4844 56 46.3438 49.8438
Q52.2031 43.7031 52.2031 31.2031" id="BitstreamVeraSans-Roman-61"/>
       <path d="
M18.1094 8.20312
L18.1094 -20.7969
L9.07812 -20.7969
L9.07812 54.6875
L18.1094 54.6875
L18.1094 46.3906
Q20.9531 51.2656 25.2656 53.625
Q29.5938 56 35.5938 56
Q45.5625 56 51.7812 48.0938
Q58.0156 40.1875 58.0156 27.2969
Q58.0156 14.4062 51.7812 6.48438
Q45.5625 -1.42188 35.5938 -1.42188
Q29.5938 -1.42188 25.2656 0.953125
Q20.9531 3.32812 18.1094 8.20312
M48.6875 27.2969
Q48.6875 37.2031 44.6094 42.8438
Q40.5312 48.4844 33.4062 48.4844
Q26.2656 48.4844 22.1875 42.8438
Q18.1094 37.2031 18.1094 27.2969
Q18.1094 17.3906 22.1875 11.75
Q26.2656 6.10938 33.4062 6.10938
Q40.5312 6.10938 44.6094 11.75
Q48.6875 17.3906 48.6875 27.2969" id="BitstreamVeraSans-Roman-70"/>
       <path d="
M48.6875 27.2969
Q48.6875 37.2031 44.6094 42.8438
Q40.5312 48.4844 33.4062 48.4844
Q26.2656 48.4844 22.1875 42.8438
Q18.1094 37.2031 18.1094 27.2969
Q18.1094 17.3906 22.1875 11.75
Q26.2656 6.10938 33.4062 6.10938
Q40.5312 6.10938 44.6094 11.75
Q48.6875 17.3906 48.6875 27.2969
M18.1094 46.3906
Q20.9531 51.2656 25.2656 53.625
Q29.5938 56 35.5938 56
Q45.5625 56 51.7812 48.0938
Q58.0156 40.1875 58.0156 27.2969
Q58.0156 14.4062 51.7812 6.48438
Q45.5625 -1.42188 35.5938 -1.42188
Q29.5938 -1.42188 25.2656 0.953125
Q20.9531 3.32812 18.1094 8.20312
L18.1094 0
L9.07812 0
L9.07812 75.9844
L18.1094 75.9844
z
" id="BitstreamVeraSans-Roman-62"/>
      </defs>
      <g style="fill:#262626;" transform="translate(127.37265625 329.5984375)scale(0.1 -0.1)">
       <use xlink:href="#BitstreamVeraSans-Roman-63"/>
       <use x="54.98046875" xlink:href="#BitstreamVeraSans-Roman-61"/>
       <use x="116.259765625" xlink:href="#BitstreamVeraSans-Roman-70"/>
       <use x="179.736328125" xlink:href="#BitstreamVeraSans-Roman-5f"/>
       <use x="229.736328125" xlink:href="#BitstreamVeraSans-Roman-64"/>
       <use x="293.212890625" xlink:href="#BitstreamVeraSans-Roman-65"/>
       <use x="354.736328125" xlink:href="#BitstreamVeraSans-Roman-62"/>
       <use x="418.212890625" xlink:href="#BitstreamVeraSans-Roman-74"/>
      </g>
     </g>
    </g>
    <g id="xtick_2">
     <g id="line2d_2">
      <g>
       <use style="fill:#262626;stroke:#262626;" x="233.55" xlink:href="#m219da94a98" y="315.0"/>
      </g>
     </g>
     <g id="text_2">
      <!-- gen_gov -->
      <defs>
       <path d="
M54.8906 33.0156
L54.8906 0
L45.9062 0
L45.9062 32.7188
Q45.9062 40.4844 42.875 44.3281
Q39.8438 48.1875 33.7969 48.1875
Q26.5156 48.1875 22.3125 43.5469
Q18.1094 38.9219 18.1094 30.9062
L18.1094 0
L9.07812 0
L9.07812 54.6875
L18.1094 54.6875
L18.1094 46.1875
Q21.3438 51.125 25.7031 53.5625
Q30.0781 56 35.7969 56
Q45.2188 56 50.0469 50.1719
Q54.8906 44.3438 54.8906 33.0156" id="BitstreamVeraSans-Roman-6e"/>
       <path d="
M2.98438 54.6875
L12.5 54.6875
L29.5938 8.79688
L46.6875 54.6875
L56.2031 54.6875
L35.6875 0
L23.4844 0
z
" id="BitstreamVeraSans-Roman-76"/>
       <path d="
M45.4062 27.9844
Q45.4062 37.75 41.375 43.1094
Q37.3594 48.4844 30.0781 48.4844
Q22.8594 48.4844 18.8281 43.1094
Q14.7969 37.75 14.7969 27.9844
Q14.7969 18.2656 18.8281 12.8906
Q22.8594 7.51562 30.0781 7.51562
Q37.3594 7.51562 41.375 12.8906
Q45.4062 18.2656 45.4062 27.9844
M54.3906 6.78125
Q54.3906 -7.17188 48.1875 -13.9844
Q42 -20.7969 29.2031 -20.7969
Q24.4688 -20.7969 20.2656 -20.0938
Q16.0625 -19.3906 12.1094 -17.9219
L12.1094 -9.1875
Q16.0625 -11.3281 19.9219 -12.3438
Q23.7812 -13.375 27.7812 -13.375
Q36.625 -13.375 41.0156 -8.76562
Q45.4062 -4.15625 45.4062 5.17188
L45.4062 9.625
Q42.625 4.78125 38.2812 2.39062
Q33.9375 0 27.875 0
Q17.8281 0 11.6719 7.65625
Q5.51562 15.3281 5.51562 27.9844
Q5.51562 40.6719 11.6719 48.3281
Q17.8281 56 27.875 56
Q33.9375 56 38.2812 53.6094
Q42.625 51.2188 45.4062 46.3906
L45.4062 54.6875
L54.3906 54.6875
z
" id="BitstreamVeraSans-Roman-67"/>
       <path d="
M30.6094 48.3906
Q23.3906 48.3906 19.1875 42.75
Q14.9844 37.1094 14.9844 27.2969
Q14.9844 17.4844 19.1562 11.8438
Q23.3438 6.20312 30.6094 6.20312
Q37.7969 6.20312 41.9844 11.8594
Q46.1875 17.5312 46.1875 27.2969
Q46.1875 37.0156 41.9844 42.7031
Q37.7969 48.3906 30.6094 48.3906
M30.6094 56
Q42.3281 56 49.0156 48.375
Q55.7188 40.7656 55.7188 27.2969
Q55.7188 13.875 49.0156 6.21875
Q42.3281 -1.42188 30.6094 -1.42188
Q18.8438 -1.42188 12.1719 6.21875
Q5.51562 13.875 5.51562 27.2969
Q5.51562 40.7656 12.1719 48.375
Q18.8438 56 30.6094 56" id="BitstreamVeraSans-Roman-6f"/>
      </defs>
      <g style="fill:#262626;" transform="translate(212.8625 329.3203125)scale(0.1 -0.1)">
       <use xlink:href="#BitstreamVeraSans-Roman-67"/>
       <use x="63.4765625" xlink:href="#BitstreamVeraSans-Roman-65"/>
       <use x="125.0" xlink:href="#BitstreamVeraSans-Roman-6e"/>
       <use x="188.37890625" xlink:href="#BitstreamVeraSans-Roman-5f"/>
       <use x="238.37890625" xlink:href="#BitstreamVeraSans-Roman-67"/>
       <use x="301.85546875" xlink:href="#BitstreamVeraSans-Roman-6f"/>
       <use x="363.037109375" xlink:href="#BitstreamVeraSans-Roman-76"/>
      </g>
     </g>
    </g>
    <g id="xtick_3">
     <g id="line2d_3">
      <g>
       <use style="fill:#262626;stroke:#262626;" x="317.25" xlink:href="#m219da94a98" y="315.0"/>
      </g>
     </g>
     <g id="text_3">
      <!-- hss -->
      <defs>
       <path d="
M54.8906 33.0156
L54.8906 0
L45.9062 0
L45.9062 32.7188
Q45.9062 40.4844 42.875 44.3281
Q39.8438 48.1875 33.7969 48.1875
Q26.5156 48.1875 22.3125 43.5469
Q18.1094 38.9219 18.1094 30.9062
L18.1094 0
L9.07812 0
L9.07812 75.9844
L18.1094 75.9844
L18.1094 46.1875
Q21.3438 51.125 25.7031 53.5625
Q30.0781 56 35.7969 56
Q45.2188 56 50.0469 50.1719
Q54.8906 44.3438 54.8906 33.0156" id="BitstreamVeraSans-Roman-68"/>
       <path d="
M44.2812 53.0781
L44.2812 44.5781
Q40.4844 46.5312 36.375 47.5
Q32.2812 48.4844 27.875 48.4844
Q21.1875 48.4844 17.8438 46.4375
Q14.5 44.3906 14.5 40.2812
Q14.5 37.1562 16.8906 35.375
Q19.2812 33.5938 26.5156 31.9844
L29.5938 31.2969
Q39.1562 29.25 43.1875 25.5156
Q47.2188 21.7812 47.2188 15.0938
Q47.2188 7.46875 41.1875 3.01562
Q35.1562 -1.42188 24.6094 -1.42188
Q20.2188 -1.42188 15.4531 -0.5625
Q10.6875 0.296875 5.42188 2
L5.42188 11.2812
Q10.4062 8.6875 15.2344 7.39062
Q20.0625 6.10938 24.8125 6.10938
Q31.1562 6.10938 34.5625 8.28125
Q37.9844 10.4531 37.9844 14.4062
Q37.9844 18.0625 35.5156 20.0156
Q33.0625 21.9688 24.7031 23.7812
L21.5781 24.5156
Q13.2344 26.2656 9.51562 29.9062
Q5.8125 33.5469 5.8125 39.8906
Q5.8125 47.6094 11.2812 51.7969
Q16.75 56 26.8125 56
Q31.7812 56 36.1719 55.2656
Q40.5781 54.5469 44.2812 53.0781" id="BitstreamVeraSans-Roman-73"/>
      </defs>
      <g style="fill:#262626;" transform="translate(309.56953125 329.5984375)scale(0.1 -0.1)">
       <use xlink:href="#BitstreamVeraSans-Roman-68"/>
       <use x="63.37890625" xlink:href="#BitstreamVeraSans-Roman-73"/>
       <use x="115.478515625" xlink:href="#BitstreamVeraSans-Roman-73"/>
      </g>
     </g>
    </g>
    <g id="xtick_4">
     <g id="line2d_4">
      <g>
       <use style="fill:#262626;stroke:#262626;" x="400.95" xlink:href="#m219da94a98" y="315.0"/>
      </g>
     </g>
     <g id="text_4">
      <!-- intgovt -->
      <defs>
       <path d="
M9.42188 54.6875
L18.4062 54.6875
L18.4062 0
L9.42188 0
z

M9.42188 75.9844
L18.4062 75.9844
L18.4062 64.5938
L9.42188 64.5938
z
" id="BitstreamVeraSans-Roman-69"/>
      </defs>
      <g style="fill:#262626;" transform="translate(383.86953125 329.5984375)scale(0.1 -0.1)">
       <use xlink:href="#BitstreamVeraSans-Roman-69"/>
       <use x="27.783203125" xlink:href="#BitstreamVeraSans-Roman-6e"/>
       <use x="91.162109375" xlink:href="#BitstreamVeraSans-Roman-74"/>
       <use x="130.37109375" xlink:href="#BitstreamVeraSans-Roman-67"/>
       <use x="193.84765625" xlink:href="#BitstreamVeraSans-Roman-6f"/>
       <use x="255.029296875" xlink:href="#BitstreamVeraSans-Roman-76"/>
       <use x="314.208984375" xlink:href="#BitstreamVeraSans-Roman-74"/>
      </g>
     </g>
    </g>
    <g id="xtick_5">
     <g id="line2d_5">
      <g>
       <use style="fill:#262626;stroke:#262626;" x="484.65" xlink:href="#m219da94a98" y="315.0"/>
      </g>
     </g>
     <g id="text_5">
      <!-- judicial -->
      <defs>
       <path d="
M8.5 21.5781
L8.5 54.6875
L17.4844 54.6875
L17.4844 21.9219
Q17.4844 14.1562 20.5 10.2656
Q23.5312 6.39062 29.5938 6.39062
Q36.8594 6.39062 41.0781 11.0312
Q45.3125 15.6719 45.3125 23.6875
L45.3125 54.6875
L54.2969 54.6875
L54.2969 0
L45.3125 0
L45.3125 8.40625
Q42.0469 3.42188 37.7188 1
Q33.4062 -1.42188 27.6875 -1.42188
Q18.2656 -1.42188 13.375 4.4375
Q8.5 10.2969 8.5 21.5781" id="BitstreamVeraSans-Roman-75"/>
       <path d="
M9.42188 54.6875
L18.4062 54.6875
L18.4062 -0.984375
Q18.4062 -11.4219 14.4219 -16.1094
Q10.4531 -20.7969 1.60938 -20.7969
L-1.8125 -20.7969
L-1.8125 -13.1875
L0.59375 -13.1875
Q5.71875 -13.1875 7.5625 -10.8125
Q9.42188 -8.45312 9.42188 -0.984375
z

M9.42188 75.9844
L18.4062 75.9844
L18.4062 64.5938
L9.42188 64.5938
z
" id="BitstreamVeraSans-Roman-6a"/>
       <path d="
M9.42188 75.9844
L18.4062 75.9844
L18.4062 0
L9.42188 0
z
" id="BitstreamVeraSans-Roman-6c"/>
      </defs>
      <g style="fill:#262626;" transform="translate(467.315625 329.5984375)scale(0.1 -0.1)">
       <use xlink:href="#BitstreamVeraSans-Roman-6a"/>
       <use x="27.783203125" xlink:href="#BitstreamVeraSans-Roman-75"/>
       <use x="91.162109375" xlink:href="#BitstreamVeraSans-Roman-64"/>
       <use x="154.638671875" xlink:href="#BitstreamVeraSans-Roman-69"/>
       <use x="182.421875" xlink:href="#BitstreamVeraSans-Roman-63"/>
       <use x="237.40234375" xlink:href="#BitstreamVeraSans-Roman-69"/>
       <use x="265.185546875" xlink:href="#BitstreamVeraSans-Roman-61"/>
       <use x="326.46484375" xlink:href="#BitstreamVeraSans-Roman-6c"/>
      </g>
     </g>
    </g>
    <g id="xtick_6">
     <g id="line2d_6">
      <g>
       <use style="fill:#262626;stroke:#262626;" x="568.35" xlink:href="#m219da94a98" y="315.0"/>
      </g>
     </g>
     <g id="text_6">
      <!-- misc -->
      <defs>
       <path d="
M52 44.1875
Q55.375 50.25 60.0625 53.125
Q64.75 56 71.0938 56
Q79.6406 56 84.2812 50.0156
Q88.9219 44.0469 88.9219 33.0156
L88.9219 0
L79.8906 0
L79.8906 32.7188
Q79.8906 40.5781 77.0938 44.375
Q74.3125 48.1875 68.6094 48.1875
Q61.625 48.1875 57.5625 43.5469
Q53.5156 38.9219 53.5156 30.9062
L53.5156 0
L44.4844 0
L44.4844 32.7188
Q44.4844 40.625 41.7031 44.4062
Q38.9219 48.1875 33.1094 48.1875
Q26.2188 48.1875 22.1562 43.5312
Q18.1094 38.875 18.1094 30.9062
L18.1094 0
L9.07812 0
L9.07812 54.6875
L18.1094 54.6875
L18.1094 46.1875
Q21.1875 51.2188 25.4844 53.6094
Q29.7812 56 35.6875 56
Q41.6562 56 45.8281 52.9688
Q50 49.9531 52 44.1875" id="BitstreamVeraSans-Roman-6d"/>
      </defs>
      <g style="fill:#262626;" transform="translate(557.50078125 329.5984375)scale(0.1 -0.1)">
       <use xlink:href="#BitstreamVeraSans-Roman-6d"/>
       <use x="97.412109375" xlink:href="#BitstreamVeraSans-Roman-69"/>
       <use x="125.1953125" xlink:href="#BitstreamVeraSans-Roman-73"/>
       <use x="177.294921875" xlink:href="#BitstreamVeraSans-Roman-63"/>
      </g>
     </g>
    </g>
    <g id="xtick_7">
     <g id="line2d_7">
      <g>
       <use style="fill:#262626;stroke:#262626;" x="652.05" xlink:href="#m219da94a98" y="315.0"/>
      </g>
     </g>
     <g id="text_7">
      <!-- pub_safe -->
      <defs>
       <path d="
M37.1094 75.9844
L37.1094 68.5
L28.5156 68.5
Q23.6875 68.5 21.7969 66.5469
Q19.9219 64.5938 19.9219 59.5156
L19.9219 54.6875
L34.7188 54.6875
L34.7188 47.7031
L19.9219 47.7031
L19.9219 0
L10.8906 0
L10.8906 47.7031
L2.29688 47.7031
L2.29688 54.6875
L10.8906 54.6875
L10.8906 58.5
Q10.8906 67.625 15.1406 71.7969
Q19.3906 75.9844 28.6094 75.9844
z
" id="BitstreamVeraSans-Roman-66"/>
      </defs>
      <g style="fill:#262626;" transform="translate(630.24765625 329.5984375)scale(0.1 -0.1)">
       <use xlink:href="#BitstreamVeraSans-Roman-70"/>
       <use x="63.4765625" xlink:href="#BitstreamVeraSans-Roman-75"/>
       <use x="126.85546875" xlink:href="#BitstreamVeraSans-Roman-62"/>
       <use x="190.33203125" xlink:href="#BitstreamVeraSans-Roman-5f"/>
       <use x="240.33203125" xlink:href="#BitstreamVeraSans-Roman-73"/>
       <use x="292.431640625" xlink:href="#BitstreamVeraSans-Roman-61"/>
       <use x="353.7109375" xlink:href="#BitstreamVeraSans-Roman-66"/>
       <use x="388.916015625" xlink:href="#BitstreamVeraSans-Roman-65"/>
      </g>
     </g>
    </g>
    <g id="xtick_8">
     <g id="line2d_8">
      <g>
       <use style="fill:#262626;stroke:#262626;" x="735.75" xlink:href="#m219da94a98" y="315.0"/>
      </g>
     </g>
     <g id="text_8">
      <!-- pub_works -->
      <defs>
       <path d="
M4.20312 54.6875
L13.1875 54.6875
L24.4219 12.0156
L35.5938 54.6875
L46.1875 54.6875
L57.4219 12.0156
L68.6094 54.6875
L77.5938 54.6875
L63.2812 0
L52.6875 0
L40.9219 44.8281
L29.1094 0
L18.5 0
z
" id="BitstreamVeraSans-Roman-77"/>
       <path d="
M41.1094 46.2969
Q39.5938 47.1719 37.8125 47.5781
Q36.0312 48 33.8906 48
Q26.2656 48 22.1875 43.0469
Q18.1094 38.0938 18.1094 28.8125
L18.1094 0
L9.07812 0
L9.07812 54.6875
L18.1094 54.6875
L18.1094 46.1875
Q20.9531 51.1719 25.4844 53.5781
Q30.0312 56 36.5312 56
Q37.4531 56 38.5781 55.875
Q39.7031 55.7656 41.0625 55.5156
z
" id="BitstreamVeraSans-Roman-72"/>
       <path d="
M9.07812 75.9844
L18.1094 75.9844
L18.1094 31.1094
L44.9219 54.6875
L56.3906 54.6875
L27.3906 29.1094
L57.625 0
L45.9062 0
L18.1094 26.7031
L18.1094 0
L9.07812 0
z
" id="BitstreamVeraSans-Roman-6b"/>
      </defs>
      <g style="fill:#262626;" transform="translate(709.7265625 329.5984375)scale(0.1 -0.1)">
       <use xlink:href="#BitstreamVeraSans-Roman-70"/>
       <use x="63.4765625" xlink:href="#BitstreamVeraSans-Roman-75"/>
       <use x="126.85546875" xlink:href="#BitstreamVeraSans-Roman-62"/>
       <use x="190.33203125" xlink:href="#BitstreamVeraSans-Roman-5f"/>
       <use x="240.33203125" xlink:href="#BitstreamVeraSans-Roman-77"/>
       <use x="322.119140625" xlink:href="#BitstreamVeraSans-Roman-6f"/>
       <use x="383.30078125" xlink:href="#BitstreamVeraSans-Roman-72"/>
       <use x="424.4140625" xlink:href="#BitstreamVeraSans-Roman-6b"/>
       <use x="482.32421875" xlink:href="#BitstreamVeraSans-Roman-73"/>
      </g>
     </g>
    </g>
    <g id="text_9">
     <!-- Expenditure Subgroup -->
     <defs>
      <path id="BitstreamVeraSans-Roman-20"/>
      <path d="
M9.8125 72.9062
L55.9062 72.9062
L55.9062 64.5938
L19.6719 64.5938
L19.6719 43.0156
L54.3906 43.0156
L54.3906 34.7188
L19.6719 34.7188
L19.6719 8.29688
L56.7812 8.29688
L56.7812 0
L9.8125 0
z
" id="BitstreamVeraSans-Roman-45"/>
      <path d="
M53.5156 70.5156
L53.5156 60.8906
Q47.9062 63.5781 42.9219 64.8906
Q37.9375 66.2188 33.2969 66.2188
Q25.25 66.2188 20.875 63.0938
Q16.5 59.9688 16.5 54.2031
Q16.5 49.3594 19.4062 46.8906
Q22.3125 44.4375 30.4219 42.9219
L36.375 41.7031
Q47.4062 39.5938 52.6562 34.2969
Q57.9062 29 57.9062 20.125
Q57.9062 9.51562 50.7969 4.04688
Q43.7031 -1.42188 29.9844 -1.42188
Q24.8125 -1.42188 18.9688 -0.25
Q13.1406 0.921875 6.89062 3.21875
L6.89062 13.375
Q12.8906 10.0156 18.6562 8.29688
Q24.4219 6.59375 29.9844 6.59375
Q38.4219 6.59375 43.0156 9.90625
Q47.6094 13.2344 47.6094 19.3906
Q47.6094 24.75 44.3125 27.7812
Q41.0156 30.8125 33.5 32.3281
L27.4844 33.5
Q16.4531 35.6875 11.5156 40.375
Q6.59375 45.0625 6.59375 53.4219
Q6.59375 63.0938 13.4062 68.6562
Q20.2188 74.2188 32.1719 74.2188
Q37.3125 74.2188 42.625 73.2812
Q47.9531 72.3594 53.5156 70.5156" id="BitstreamVeraSans-Roman-53"/>
      <path d="
M54.8906 54.6875
L35.1094 28.0781
L55.9062 0
L45.3125 0
L29.3906 21.4844
L13.4844 0
L2.875 0
L24.125 28.6094
L4.6875 54.6875
L15.2812 54.6875
L29.7812 35.2031
L44.2812 54.6875
z
" id="BitstreamVeraSans-Roman-78"/>
     </defs>
     <g style="fill:#262626;" transform="translate(381.637421875 345.31453125)scale(0.11 -0.11)">
      <use xlink:href="#BitstreamVeraSans-Roman-45"/>
      <use x="63.18359375" xlink:href="#BitstreamVeraSans-Roman-78"/>
      <use x="122.36328125" xlink:href="#BitstreamVeraSans-Roman-70"/>
      <use x="185.83984375" xlink:href="#BitstreamVeraSans-Roman-65"/>
      <use x="247.36328125" xlink:href="#BitstreamVeraSans-Roman-6e"/>
      <use x="310.7421875" xlink:href="#BitstreamVeraSans-Roman-64"/>
      <use x="374.21875" xlink:href="#BitstreamVeraSans-Roman-69"/>
      <use x="402.001953125" xlink:href="#BitstreamVeraSans-Roman-74"/>
      <use x="441.2109375" xlink:href="#BitstreamVeraSans-Roman-75"/>
      <use x="504.58984375" xlink:href="#BitstreamVeraSans-Roman-72"/>
      <use x="543.453125" xlink:href="#BitstreamVeraSans-Roman-65"/>
      <use x="604.9765625" xlink:href="#BitstreamVeraSans-Roman-20"/>
      <use x="636.763671875" xlink:href="#BitstreamVeraSans-Roman-53"/>
      <use x="700.240234375" xlink:href="#BitstreamVeraSans-Roman-75"/>
      <use x="763.619140625" xlink:href="#BitstreamVeraSans-Roman-62"/>
      <use x="827.095703125" xlink:href="#BitstreamVeraSans-Roman-67"/>
      <use x="890.572265625" xlink:href="#BitstreamVeraSans-Roman-72"/>
      <use x="929.435546875" xlink:href="#BitstreamVeraSans-Roman-6f"/>
      <use x="990.6171875" xlink:href="#BitstreamVeraSans-Roman-75"/>
      <use x="1053.99609375" xlink:href="#BitstreamVeraSans-Roman-70"/>
     </g>
    </g>
   </g>
   <g id="matplotlib.axis_2">
    <g id="ytick_1">
     <g id="line2d_9">
      <path clip-path="url(#pf906d5d462)" d="
M108 315
L777.6 315" style="fill:none;stroke:#ffffff;stroke-linecap:round;"/>
     </g>
     <g id="line2d_10">
      <g>
       <use style="fill:#262626;stroke:#262626;" x="108.0" xlink:href="#m219da94a98" y="315.0"/>
      </g>
     </g>
     <g id="text_10">
      <!-- 0.0 -->
      <defs>
       <path d="
M31.7812 66.4062
Q24.1719 66.4062 20.3281 58.9062
Q16.5 51.4219 16.5 36.375
Q16.5 21.3906 20.3281 13.8906
Q24.1719 6.39062 31.7812 6.39062
Q39.4531 6.39062 43.2812 13.8906
Q47.125 21.3906 47.125 36.375
Q47.125 51.4219 43.2812 58.9062
Q39.4531 66.4062 31.7812 66.4062
M31.7812 74.2188
Q44.0469 74.2188 50.5156 64.5156
Q56.9844 54.8281 56.9844 36.375
Q56.9844 17.9688 50.5156 8.26562
Q44.0469 -1.42188 31.7812 -1.42188
Q19.5312 -1.42188 13.0625 8.26562
Q6.59375 17.9688 6.59375 36.375
Q6.59375 54.8281 13.0625 64.5156
Q19.5312 74.2188 31.7812 74.2188" id="BitstreamVeraSans-Roman-30"/>
       <path d="
M10.6875 12.4062
L21 12.4062
L21 0
L10.6875 0
z
" id="BitstreamVeraSans-Roman-2e"/>
      </defs>
      <g style="fill:#262626;" transform="translate(86.4203125 317.759375)scale(0.1 -0.1)">
       <use xlink:href="#BitstreamVeraSans-Roman-30"/>
       <use x="63.623046875" xlink:href="#BitstreamVeraSans-Roman-2e"/>
       <use x="95.41015625" xlink:href="#BitstreamVeraSans-Roman-30"/>
      </g>
     </g>
    </g>
    <g id="ytick_2">
     <g id="line2d_11">
      <path clip-path="url(#pf906d5d462)" d="
M108 259.2
L777.6 259.2" style="fill:none;stroke:#ffffff;stroke-linecap:round;"/>
     </g>
     <g id="line2d_12">
      <g>
       <use style="fill:#262626;stroke:#262626;" x="108.0" xlink:href="#m219da94a98" y="259.2"/>
      </g>
     </g>
     <g id="text_11">
      <!-- 0.2 -->
      <defs>
       <path d="
M19.1875 8.29688
L53.6094 8.29688
L53.6094 0
L7.32812 0
L7.32812 8.29688
Q12.9375 14.1094 22.625 23.8906
Q32.3281 33.6875 34.8125 36.5312
Q39.5469 41.8438 41.4219 45.5312
Q43.3125 49.2188 43.3125 52.7812
Q43.3125 58.5938 39.2344 62.25
Q35.1562 65.9219 28.6094 65.9219
Q23.9688 65.9219 18.8125 64.3125
Q13.6719 62.7031 7.8125 59.4219
L7.8125 69.3906
Q13.7656 71.7812 18.9375 73
Q24.125 74.2188 28.4219 74.2188
Q39.75 74.2188 46.4844 68.5469
Q53.2188 62.8906 53.2188 53.4219
Q53.2188 48.9219 51.5312 44.8906
Q49.8594 40.875 45.4062 35.4062
Q44.1875 33.9844 37.6406 27.2188
Q31.1094 20.4531 19.1875 8.29688" id="BitstreamVeraSans-Roman-32"/>
      </defs>
      <g style="fill:#262626;" transform="translate(86.7578125 261.959375)scale(0.1 -0.1)">
       <use xlink:href="#BitstreamVeraSans-Roman-30"/>
       <use x="63.623046875" xlink:href="#BitstreamVeraSans-Roman-2e"/>
       <use x="95.41015625" xlink:href="#BitstreamVeraSans-Roman-32"/>
      </g>
     </g>
    </g>
    <g id="ytick_3">
     <g id="line2d_13">
      <path clip-path="url(#pf906d5d462)" d="
M108 203.4
L777.6 203.4" style="fill:none;stroke:#ffffff;stroke-linecap:round;"/>
     </g>
     <g id="line2d_14">
      <g>
       <use style="fill:#262626;stroke:#262626;" x="108.0" xlink:href="#m219da94a98" y="203.4"/>
      </g>
     </g>
     <g id="text_12">
      <!-- 0.4 -->
      <defs>
       <path d="
M37.7969 64.3125
L12.8906 25.3906
L37.7969 25.3906
z

M35.2031 72.9062
L47.6094 72.9062
L47.6094 25.3906
L58.0156 25.3906
L58.0156 17.1875
L47.6094 17.1875
L47.6094 0
L37.7969 0
L37.7969 17.1875
L4.89062 17.1875
L4.89062 26.7031
z
" id="BitstreamVeraSans-Roman-34"/>
      </defs>
      <g style="fill:#262626;" transform="translate(86.3171875 206.159375)scale(0.1 -0.1)">
       <use xlink:href="#BitstreamVeraSans-Roman-30"/>
       <use x="63.623046875" xlink:href="#BitstreamVeraSans-Roman-2e"/>
       <use x="95.41015625" xlink:href="#BitstreamVeraSans-Roman-34"/>
      </g>
     </g>
    </g>
    <g id="ytick_4">
     <g id="line2d_15">
      <path clip-path="url(#pf906d5d462)" d="
M108 147.6
L777.6 147.6" style="fill:none;stroke:#ffffff;stroke-linecap:round;"/>
     </g>
     <g id="line2d_16">
      <g>
       <use style="fill:#262626;stroke:#262626;" x="108.0" xlink:href="#m219da94a98" y="147.6"/>
      </g>
     </g>
     <g id="text_13">
      <!-- 0.6 -->
      <defs>
       <path d="
M33.0156 40.375
Q26.375 40.375 22.4844 35.8281
Q18.6094 31.2969 18.6094 23.3906
Q18.6094 15.5312 22.4844 10.9531
Q26.375 6.39062 33.0156 6.39062
Q39.6562 6.39062 43.5312 10.9531
Q47.4062 15.5312 47.4062 23.3906
Q47.4062 31.2969 43.5312 35.8281
Q39.6562 40.375 33.0156 40.375
M52.5938 71.2969
L52.5938 62.3125
Q48.875 64.0625 45.0938 64.9844
Q41.3125 65.9219 37.5938 65.9219
Q27.8281 65.9219 22.6719 59.3281
Q17.5312 52.7344 16.7969 39.4062
Q19.6719 43.6562 24.0156 45.9219
Q28.375 48.1875 33.5938 48.1875
Q44.5781 48.1875 50.9531 41.5156
Q57.3281 34.8594 57.3281 23.3906
Q57.3281 12.1562 50.6875 5.35938
Q44.0469 -1.42188 33.0156 -1.42188
Q20.3594 -1.42188 13.6719 8.26562
Q6.98438 17.9688 6.98438 36.375
Q6.98438 53.6562 15.1875 63.9375
Q23.3906 74.2188 37.2031 74.2188
Q40.9219 74.2188 44.7031 73.4844
Q48.4844 72.75 52.5938 71.2969" id="BitstreamVeraSans-Roman-36"/>
      </defs>
      <g style="fill:#262626;" transform="translate(86.3859375 150.359375)scale(0.1 -0.1)">
       <use xlink:href="#BitstreamVeraSans-Roman-30"/>
       <use x="63.623046875" xlink:href="#BitstreamVeraSans-Roman-2e"/>
       <use x="95.41015625" xlink:href="#BitstreamVeraSans-Roman-36"/>
      </g>
     </g>
    </g>
    <g id="ytick_5">
     <g id="line2d_17">
      <path clip-path="url(#pf906d5d462)" d="
M108 91.8
L777.6 91.8" style="fill:none;stroke:#ffffff;stroke-linecap:round;"/>
     </g>
     <g id="line2d_18">
      <g>
       <use style="fill:#262626;stroke:#262626;" x="108.0" xlink:href="#m219da94a98" y="91.8"/>
      </g>
     </g>
     <g id="text_14">
      <!-- 0.8 -->
      <defs>
       <path d="
M31.7812 34.625
Q24.75 34.625 20.7188 30.8594
Q16.7031 27.0938 16.7031 20.5156
Q16.7031 13.9219 20.7188 10.1562
Q24.75 6.39062 31.7812 6.39062
Q38.8125 6.39062 42.8594 10.1719
Q46.9219 13.9688 46.9219 20.5156
Q46.9219 27.0938 42.8906 30.8594
Q38.875 34.625 31.7812 34.625
M21.9219 38.8125
Q15.5781 40.375 12.0312 44.7188
Q8.5 49.0781 8.5 55.3281
Q8.5 64.0625 14.7188 69.1406
Q20.9531 74.2188 31.7812 74.2188
Q42.6719 74.2188 48.875 69.1406
Q55.0781 64.0625 55.0781 55.3281
Q55.0781 49.0781 51.5312 44.7188
Q48 40.375 41.7031 38.8125
Q48.8281 37.1562 52.7969 32.3125
Q56.7812 27.4844 56.7812 20.5156
Q56.7812 9.90625 50.3125 4.23438
Q43.8438 -1.42188 31.7812 -1.42188
Q19.7344 -1.42188 13.25 4.23438
Q6.78125 9.90625 6.78125 20.5156
Q6.78125 27.4844 10.7812 32.3125
Q14.7969 37.1562 21.9219 38.8125
M18.3125 54.3906
Q18.3125 48.7344 21.8438 45.5625
Q25.3906 42.3906 31.7812 42.3906
Q38.1406 42.3906 41.7188 45.5625
Q45.3125 48.7344 45.3125 54.3906
Q45.3125 60.0625 41.7188 63.2344
Q38.1406 66.4062 31.7812 66.4062
Q25.3906 66.4062 21.8438 63.2344
Q18.3125 60.0625 18.3125 54.3906" id="BitstreamVeraSans-Roman-38"/>
      </defs>
      <g style="fill:#262626;" transform="translate(86.440625 94.559375)scale(0.1 -0.1)">
       <use xlink:href="#BitstreamVeraSans-Roman-30"/>
       <use x="63.623046875" xlink:href="#BitstreamVeraSans-Roman-2e"/>
       <use x="95.41015625" xlink:href="#BitstreamVeraSans-Roman-38"/>
      </g>
     </g>
    </g>
    <g id="ytick_6">
     <g id="line2d_19">
      <path clip-path="url(#pf906d5d462)" d="
M108 36
L777.6 36" style="fill:none;stroke:#ffffff;stroke-linecap:round;"/>
     </g>
     <g id="line2d_20">
      <g>
       <use style="fill:#262626;stroke:#262626;" x="108.0" xlink:href="#m219da94a98" y="36.0"/>
      </g>
     </g>
     <g id="text_15">
      <!-- 1.0 -->
      <defs>
       <path d="
M12.4062 8.29688
L28.5156 8.29688
L28.5156 63.9219
L10.9844 60.4062
L10.9844 69.3906
L28.4219 72.9062
L38.2812 72.9062
L38.2812 8.29688
L54.3906 8.29688
L54.3906 0
L12.4062 0
z
" id="BitstreamVeraSans-Roman-31"/>
      </defs>
      <g style="fill:#262626;" transform="translate(86.859375 38.759375)scale(0.1 -0.1)">
       <use xlink:href="#BitstreamVeraSans-Roman-31"/>
       <use x="63.623046875" xlink:href="#BitstreamVeraSans-Roman-2e"/>
       <use x="95.41015625" xlink:href="#BitstreamVeraSans-Roman-30"/>
      </g>
     </g>
    </g>
    <g id="text_16">
     <!-- Proportional Contribution -->
     <defs>
      <path d="
M19.6719 64.7969
L19.6719 37.4062
L32.0781 37.4062
Q38.9688 37.4062 42.7188 40.9688
Q46.4844 44.5312 46.4844 51.125
Q46.4844 57.6719 42.7188 61.2344
Q38.9688 64.7969 32.0781 64.7969
z

M9.8125 72.9062
L32.0781 72.9062
Q44.3438 72.9062 50.6094 67.3594
Q56.8906 61.8125 56.8906 51.125
Q56.8906 40.3281 50.6094 34.8125
Q44.3438 29.2969 32.0781 29.2969
L19.6719 29.2969
L19.6719 0
L9.8125 0
z
" id="BitstreamVeraSans-Roman-50"/>
      <path d="
M64.4062 67.2812
L64.4062 56.8906
Q59.4219 61.5312 53.7812 63.8125
Q48.1406 66.1094 41.7969 66.1094
Q29.2969 66.1094 22.6562 58.4688
Q16.0156 50.8281 16.0156 36.375
Q16.0156 21.9688 22.6562 14.3281
Q29.2969 6.6875 41.7969 6.6875
Q48.1406 6.6875 53.7812 8.98438
Q59.4219 11.2812 64.4062 15.9219
L64.4062 5.60938
Q59.2344 2.09375 53.4375 0.328125
Q47.6562 -1.42188 41.2188 -1.42188
Q24.6562 -1.42188 15.125 8.70312
Q5.60938 18.8438 5.60938 36.375
Q5.60938 53.9531 15.125 64.0781
Q24.6562 74.2188 41.2188 74.2188
Q47.75 74.2188 53.5312 72.4844
Q59.3281 70.75 64.4062 67.2812" id="BitstreamVeraSans-Roman-43"/>
     </defs>
     <g style="fill:#262626;" transform="translate(79.02953125 244.204453125)rotate(-90.0)scale(0.11 -0.11)">
      <use xlink:href="#BitstreamVeraSans-Roman-50"/>
      <use x="58.552734375" xlink:href="#BitstreamVeraSans-Roman-72"/>
      <use x="97.416015625" xlink:href="#BitstreamVeraSans-Roman-6f"/>
      <use x="158.59765625" xlink:href="#BitstreamVeraSans-Roman-70"/>
      <use x="222.07421875" xlink:href="#BitstreamVeraSans-Roman-6f"/>
      <use x="283.255859375" xlink:href="#BitstreamVeraSans-Roman-72"/>
      <use x="324.369140625" xlink:href="#BitstreamVeraSans-Roman-74"/>
      <use x="363.578125" xlink:href="#BitstreamVeraSans-Roman-69"/>
      <use x="391.361328125" xlink:href="#BitstreamVeraSans-Roman-6f"/>
      <use x="452.54296875" xlink:href="#BitstreamVeraSans-Roman-6e"/>
      <use x="515.921875" xlink:href="#BitstreamVeraSans-Roman-61"/>
      <use x="577.201171875" xlink:href="#BitstreamVeraSans-Roman-6c"/>
      <use x="604.984375" xlink:href="#BitstreamVeraSans-Roman-20"/>
      <use x="636.771484375" xlink:href="#BitstreamVeraSans-Roman-43"/>
      <use x="706.595703125" xlink:href="#BitstreamVeraSans-Roman-6f"/>
      <use x="767.77734375" xlink:href="#BitstreamVeraSans-Roman-6e"/>
      <use x="831.15625" xlink:href="#BitstreamVeraSans-Roman-74"/>
      <use x="870.365234375" xlink:href="#BitstreamVeraSans-Roman-72"/>
      <use x="911.478515625" xlink:href="#BitstreamVeraSans-Roman-69"/>
      <use x="939.26171875" xlink:href="#BitstreamVeraSans-Roman-62"/>
      <use x="1002.73828125" xlink:href="#BitstreamVeraSans-Roman-75"/>
      <use x="1066.1171875" xlink:href="#BitstreamVeraSans-Roman-74"/>
      <use x="1105.32617188" xlink:href="#BitstreamVeraSans-Roman-69"/>
      <use x="1133.109375" xlink:href="#BitstreamVeraSans-Roman-6f"/>
      <use x="1194.29101562" xlink:href="#BitstreamVeraSans-Roman-6e"/>
     </g>
    </g>
   </g>
   <g id="PolyCollection_1">
    <defs>
     <path d="
M149.856 -25.4463
L149.844 -25.4463
L149.832 -27.8961
L149.798 -30.3459
L149.718 -32.7956
L149.553 -35.2454
L149.248 -37.6952
L148.738 -40.145
L147.953 -42.5947
L146.819 -45.0445
L145.256 -47.4943
L143.191 -49.9441
L140.585 -52.3939
L137.458 -54.8436
L133.904 -57.2934
L130.081 -59.7432
L126.217 -62.193
L122.613 -64.6427
L119.616 -67.0925
L117.53 -69.5423
L116.487 -71.9921
L116.37 -74.4419
L116.855 -76.8916
L117.544 -79.3414
L118.128 -81.7912
L118.49 -84.241
L118.716 -86.6907
L119.021 -89.1405
L119.618 -91.5903
L120.62 -94.0401
L122 -96.4898
L123.641 -98.9396
L125.424 -101.389
L127.282 -103.839
L129.186 -106.289
L131.094 -108.739
L132.927 -111.189
L134.594 -113.638
L136.045 -116.088
L137.291 -118.538
L138.391 -120.988
L139.413 -123.437
L140.401 -125.887
L141.369 -128.337
L142.292 -130.787
L143.135 -133.237
L143.876 -135.686
L144.523 -138.136
L145.114 -140.586
L145.684 -143.036
L146.244 -145.485
L146.777 -147.935
L147.248 -150.385
L147.636 -152.835
L147.941 -155.284
L148.184 -157.734
L148.387 -160.184
L148.56 -162.634
L148.705 -165.084
L148.823 -167.533
L148.92 -169.983
L149.004 -172.433
L149.086 -174.883
L149.169 -177.332
L149.252 -179.782
L149.331 -182.232
L149.403 -184.682
L149.462 -187.132
L149.498 -189.581
L149.503 -192.031
L149.473 -194.481
L149.42 -196.931
L149.366 -199.38
L149.34 -201.83
L149.359 -204.28
L149.421 -206.73
L149.509 -209.18
L149.595 -211.629
L149.66 -214.079
L149.697 -216.529
L149.714 -218.979
L149.724 -221.428
L149.738 -223.878
L149.758 -226.328
L149.78 -228.778
L149.794 -231.228
L149.793 -233.677
L149.774 -236.127
L149.738 -238.577
L149.694 -241.027
L149.656 -243.476
L149.636 -245.926
L149.643 -248.376
L149.674 -250.826
L149.719 -253.276
L149.764 -255.725
L149.8 -258.175
L149.825 -260.625
L149.839 -263.075
L149.846 -265.524
L149.849 -267.974
L149.851 -267.974
L149.851 -267.974
L149.854 -265.524
L149.861 -263.075
L149.875 -260.625
L149.9 -258.175
L149.936 -255.725
L149.981 -253.276
L150.026 -250.826
L150.057 -248.376
L150.064 -245.926
L150.044 -243.476
L150.006 -241.027
L149.962 -238.577
L149.926 -236.127
L149.907 -233.677
L149.906 -231.228
L149.92 -228.778
L149.942 -226.328
L149.962 -223.878
L149.976 -221.428
L149.986 -218.979
L150.003 -216.529
L150.04 -214.079
L150.105 -211.629
L150.191 -209.18
L150.279 -206.73
L150.341 -204.28
L150.36 -201.83
L150.334 -199.38
L150.28 -196.931
L150.227 -194.481
L150.197 -192.031
L150.202 -189.581
L150.238 -187.132
L150.297 -184.682
L150.369 -182.232
L150.448 -179.782
L150.531 -177.332
L150.614 -174.883
L150.696 -172.433
L150.78 -169.983
L150.877 -167.533
L150.995 -165.084
L151.14 -162.634
L151.313 -160.184
L151.516 -157.734
L151.759 -155.284
L152.064 -152.835
L152.452 -150.385
L152.923 -147.935
L153.456 -145.485
L154.016 -143.036
L154.586 -140.586
L155.177 -138.136
L155.824 -135.686
L156.565 -133.237
L157.408 -130.787
L158.331 -128.337
L159.299 -125.887
L160.287 -123.437
L161.309 -120.988
L162.409 -118.538
L163.655 -116.088
L165.106 -113.638
L166.773 -111.189
L168.606 -108.739
L170.514 -106.289
L172.418 -103.839
L174.276 -101.389
L176.059 -98.9396
L177.7 -96.4898
L179.08 -94.0401
L180.082 -91.5903
L180.679 -89.1405
L180.984 -86.6907
L181.21 -84.241
L181.572 -81.7912
L182.156 -79.3414
L182.845 -76.8916
L183.33 -74.4419
L183.213 -71.9921
L182.17 -69.5423
L180.084 -67.0925
L177.087 -64.6427
L173.483 -62.193
L169.619 -59.7432
L165.796 -57.2934
L162.242 -54.8436
L159.115 -52.3939
L156.509 -49.9441
L154.444 -47.4943
L152.881 -45.0445
L151.747 -42.5947
L150.962 -40.145
L150.452 -37.6952
L150.147 -35.2454
L149.982 -32.7956
L149.902 -30.3459
L149.868 -27.8961
L149.856 -25.4463
z
" id="mde03faf85d" style="stroke:#e799a5;stroke-width:0.3;"/>
    </defs>
    <g clip-path="url(#pf906d5d462)">
     <use style="fill:#e799a5;stroke:#e799a5;stroke-width:0.3;" x="0.0" xlink:href="#mde03faf85d" y="360.0"/>
    </g>
   </g>
   <g id="PolyCollection_2">
    <defs>
     <path d="
M233.554 -57.2499
L233.546 -57.2499
L233.537 -58.6116
L233.516 -59.9733
L233.468 -61.335
L233.378 -62.6968
L233.227 -64.0585
L233.005 -65.4202
L232.711 -66.7819
L232.342 -68.1437
L231.883 -69.5054
L231.284 -70.8671
L230.461 -72.2289
L229.314 -73.5906
L227.761 -74.9523
L225.76 -76.314
L223.325 -77.6758
L220.514 -79.0375
L217.421 -80.3992
L214.17 -81.761
L210.921 -83.1227
L207.874 -84.4844
L205.235 -85.8461
L203.153 -87.2079
L201.665 -88.5696
L200.709 -89.9313
L200.191 -91.2931
L200.07 -92.6548
L200.369 -94.0165
L201.104 -95.3782
L202.208 -96.74
L203.523 -98.1017
L204.879 -99.4634
L206.189 -100.825
L207.478 -102.187
L208.824 -103.549
L210.25 -104.91
L211.672 -106.272
L212.935 -107.634
L213.921 -108.996
L214.639 -110.357
L215.236 -111.719
L215.918 -113.081
L216.849 -114.442
L218.088 -115.804
L219.596 -117.166
L221.27 -118.528
L222.99 -119.889
L224.645 -121.251
L226.148 -122.613
L227.438 -123.975
L228.486 -125.336
L229.289 -126.698
L229.868 -128.06
L230.258 -129.421
L230.497 -130.783
L230.629 -132.145
L230.698 -133.507
L230.749 -134.868
L230.829 -136.23
L230.977 -137.592
L231.215 -138.954
L231.535 -140.315
L231.901 -141.677
L232.262 -143.039
L232.572 -144.4
L232.81 -145.762
L232.978 -147.124
L233.092 -148.486
L233.171 -149.847
L233.23 -151.209
L233.275 -152.571
L233.309 -153.933
L233.335 -155.294
L233.354 -156.656
L233.371 -158.018
L233.39 -159.379
L233.416 -160.741
L233.447 -162.103
L233.479 -163.465
L233.507 -164.826
L233.527 -166.188
L233.539 -167.55
L233.545 -168.912
L233.548 -170.273
L233.547 -171.635
L233.542 -172.997
L233.532 -174.358
L233.516 -175.72
L233.492 -177.082
L233.465 -178.444
L233.443 -179.805
L233.433 -181.167
L233.44 -182.529
L233.46 -183.891
L233.486 -185.252
L233.511 -186.614
L233.529 -187.976
L233.54 -189.337
L233.546 -190.699
L233.549 -192.061
L233.551 -192.061
L233.551 -192.061
L233.554 -190.699
L233.56 -189.337
L233.571 -187.976
L233.589 -186.614
L233.614 -185.252
L233.64 -183.891
L233.66 -182.529
L233.667 -181.167
L233.657 -179.805
L233.635 -178.444
L233.608 -177.082
L233.584 -175.72
L233.568 -174.358
L233.558 -172.997
L233.553 -171.635
L233.552 -170.273
L233.555 -168.912
L233.561 -167.55
L233.573 -166.188
L233.593 -164.826
L233.621 -163.465
L233.653 -162.103
L233.684 -160.741
L233.71 -159.379
L233.729 -158.018
L233.746 -156.656
L233.765 -155.294
L233.791 -153.933
L233.825 -152.571
L233.87 -151.209
L233.929 -149.847
L234.008 -148.486
L234.122 -147.124
L234.29 -145.762
L234.528 -144.4
L234.838 -143.039
L235.199 -141.677
L235.565 -140.315
L235.885 -138.954
L236.123 -137.592
L236.271 -136.23
L236.351 -134.868
L236.402 -133.507
L236.471 -132.145
L236.603 -130.783
L236.842 -129.421
L237.232 -128.06
L237.811 -126.698
L238.614 -125.336
L239.662 -123.975
L240.952 -122.613
L242.455 -121.251
L244.11 -119.889
L245.83 -118.528
L247.504 -117.166
L249.012 -115.804
L250.251 -114.442
L251.182 -113.081
L251.864 -111.719
L252.461 -110.357
L253.179 -108.996
L254.165 -107.634
L255.428 -106.272
L256.85 -104.91
L258.276 -103.549
L259.622 -102.187
L260.911 -100.825
L262.221 -99.4634
L263.577 -98.1017
L264.892 -96.74
L265.996 -95.3782
L266.731 -94.0165
L267.03 -92.6548
L266.909 -91.2931
L266.391 -89.9313
L265.435 -88.5696
L263.947 -87.2079
L261.865 -85.8461
L259.226 -84.4844
L256.179 -83.1227
L252.93 -81.761
L249.679 -80.3992
L246.586 -79.0375
L243.775 -77.6758
L241.34 -76.314
L239.339 -74.9523
L237.786 -73.5906
L236.639 -72.2289
L235.816 -70.8671
L235.217 -69.5054
L234.758 -68.1437
L234.389 -66.7819
L234.095 -65.4202
L233.873 -64.0585
L233.722 -62.6968
L233.632 -61.335
L233.584 -59.9733
L233.563 -58.6116
L233.554 -57.2499
z
" id="m7d18e7bd13" style="stroke:#c69750;stroke-width:0.3;"/>
    </defs>
    <g clip-path="url(#pf906d5d462)">
     <use style="fill:#c69750;stroke:#c69750;stroke-width:0.3;" x="0.0" xlink:href="#m7d18e7bd13" y="360.0"/>
    </g>
   </g>
   <g id="PolyCollection_3">
    <defs>
     <path d="
M317.257 -22.3865
L317.243 -22.3865
L317.234 -24.6084
L317.213 -26.8304
L317.172 -29.0523
L317.097 -31.2743
L316.968 -33.4963
L316.763 -35.7182
L316.455 -37.9402
L316.017 -40.1621
L315.422 -42.3841
L314.65 -44.606
L313.682 -46.828
L312.508 -49.05
L311.115 -51.2719
L309.49 -53.4939
L307.609 -55.7158
L305.443 -57.9378
L302.967 -60.1597
L300.19 -62.3817
L297.18 -64.6037
L294.077 -66.8256
L291.081 -69.0476
L288.418 -71.2695
L286.284 -73.4915
L284.8 -75.7134
L283.986 -77.9354
L283.77 -80.1573
L284.015 -82.3793
L284.558 -84.6013
L285.253 -86.8232
L285.991 -89.0452
L286.713 -91.2671
L287.399 -93.4891
L288.051 -95.711
L288.677 -97.933
L289.281 -100.155
L289.865 -102.377
L290.444 -104.599
L291.054 -106.821
L291.746 -109.043
L292.57 -111.265
L293.54 -113.487
L294.623 -115.709
L295.739 -117.931
L296.787 -120.153
L297.684 -122.375
L298.391 -124.596
L298.928 -126.818
L299.372 -129.04
L299.829 -131.262
L300.405 -133.484
L301.171 -135.706
L302.14 -137.928
L303.264 -140.15
L304.447 -142.372
L305.584 -144.594
L306.592 -146.816
L307.442 -149.038
L308.16 -151.26
L308.812 -153.482
L309.472 -155.704
L310.194 -157.926
L310.992 -160.148
L311.836 -162.37
L312.672 -164.592
L313.437 -166.814
L314.079 -169.036
L314.567 -171.258
L314.894 -173.48
L315.071 -175.701
L315.127 -177.923
L315.101 -180.145
L315.038 -182.367
L314.984 -184.589
L314.978 -186.811
L315.043 -189.033
L315.18 -191.255
L315.379 -193.477
L315.618 -195.699
L315.871 -197.921
L316.12 -200.143
L316.35 -202.365
L316.552 -204.587
L316.721 -206.809
L316.854 -209.031
L316.951 -211.253
L317.017 -213.475
L317.059 -215.697
L317.086 -217.919
L317.107 -220.141
L317.127 -222.363
L317.149 -224.585
L317.172 -226.807
L317.194 -229.028
L317.213 -231.25
L317.227 -233.472
L317.237 -235.694
L317.244 -237.916
L317.247 -240.138
L317.249 -242.36
L317.251 -242.36
L317.251 -242.36
L317.253 -240.138
L317.256 -237.916
L317.263 -235.694
L317.273 -233.472
L317.287 -231.25
L317.306 -229.028
L317.328 -226.807
L317.351 -224.585
L317.373 -222.363
L317.393 -220.141
L317.414 -217.919
L317.441 -215.697
L317.483 -213.475
L317.549 -211.253
L317.646 -209.031
L317.779 -206.809
L317.948 -204.587
L318.15 -202.365
L318.38 -200.143
L318.629 -197.921
L318.882 -195.699
L319.121 -193.477
L319.32 -191.255
L319.457 -189.033
L319.522 -186.811
L319.516 -184.589
L319.462 -182.367
L319.399 -180.145
L319.373 -177.923
L319.429 -175.701
L319.606 -173.48
L319.933 -171.258
L320.421 -169.036
L321.063 -166.814
L321.828 -164.592
L322.664 -162.37
L323.508 -160.148
L324.306 -157.926
L325.028 -155.704
L325.688 -153.482
L326.34 -151.26
L327.058 -149.038
L327.908 -146.816
L328.916 -144.594
L330.053 -142.372
L331.236 -140.15
L332.36 -137.928
L333.329 -135.706
L334.095 -133.484
L334.671 -131.262
L335.128 -129.04
L335.572 -126.818
L336.109 -124.596
L336.816 -122.375
L337.713 -120.153
L338.761 -117.931
L339.877 -115.709
L340.96 -113.487
L341.93 -111.265
L342.754 -109.043
L343.446 -106.821
L344.056 -104.599
L344.635 -102.377
L345.219 -100.155
L345.823 -97.933
L346.449 -95.711
L347.101 -93.4891
L347.787 -91.2671
L348.509 -89.0452
L349.247 -86.8232
L349.942 -84.6013
L350.485 -82.3793
L350.73 -80.1573
L350.514 -77.9354
L349.7 -75.7134
L348.216 -73.4915
L346.082 -71.2695
L343.419 -69.0476
L340.423 -66.8256
L337.32 -64.6037
L334.31 -62.3817
L331.533 -60.1597
L329.057 -57.9378
L326.891 -55.7158
L325.01 -53.4939
L323.385 -51.2719
L321.992 -49.05
L320.818 -46.828
L319.85 -44.606
L319.078 -42.3841
L318.483 -40.1621
L318.045 -37.9402
L317.737 -35.7182
L317.532 -33.4963
L317.403 -31.2743
L317.328 -29.0523
L317.287 -26.8304
L317.266 -24.6084
L317.257 -22.3865
z
" id="m06945c1bc6" style="stroke:#959f49;stroke-width:0.3;"/>
    </defs>
    <g clip-path="url(#pf906d5d462)">
     <use style="fill:#959f49;stroke:#959f49;stroke-width:0.3;" x="0.0" xlink:href="#m06945c1bc6" y="360.0"/>
    </g>
   </g>
   <g id="PolyCollection_4">
    <defs>
     <path d="
M401.123 -34.1309
L400.777 -34.1309
L400.492 -35.3276
L399.853 -36.5242
L398.585 -37.7208
L396.347 -38.9175
L392.851 -40.1141
L388.049 -41.3107
L382.299 -42.5074
L376.403 -43.704
L371.417 -44.9006
L368.282 -46.0973
L367.47 -47.2939
L368.827 -48.4905
L371.701 -49.6872
L375.251 -50.8838
L378.754 -52.0804
L381.779 -53.2771
L384.195 -54.4737
L386.077 -55.6703
L387.586 -56.867
L388.872 -58.0636
L390.034 -59.2602
L391.119 -60.4569
L392.136 -61.6535
L393.08 -62.8501
L393.938 -64.0468
L394.696 -65.2434
L395.342 -66.44
L395.875 -67.6367
L396.311 -68.8333
L396.675 -70.03
L396.997 -71.2266
L397.297 -72.4232
L397.581 -73.6199
L397.85 -74.8165
L398.098 -76.0131
L398.319 -77.2098
L398.508 -78.4064
L398.663 -79.603
L398.785 -80.7997
L398.884 -81.9963
L398.97 -83.1929
L399.055 -84.3896
L399.145 -85.5862
L399.239 -86.7828
L399.333 -87.9795
L399.422 -89.1761
L399.511 -90.3727
L399.605 -91.5694
L399.713 -92.766
L399.835 -93.9626
L399.964 -95.1593
L400.086 -96.3559
L400.185 -97.5525
L400.254 -98.7492
L400.293 -99.9458
L400.314 -101.142
L400.332 -102.339
L400.359 -103.536
L400.401 -104.732
L400.455 -105.929
L400.514 -107.126
L400.566 -108.322
L400.604 -109.519
L400.619 -110.716
L400.61 -111.912
L400.579 -113.109
L400.535 -114.305
L400.489 -115.502
L400.449 -116.699
L400.425 -117.895
L400.419 -119.092
L400.434 -120.289
L400.469 -121.485
L400.526 -122.682
L400.599 -123.878
L400.68 -125.075
L400.759 -126.272
L400.825 -127.468
L400.874 -128.665
L400.904 -129.862
L400.916 -131.058
L400.913 -132.255
L400.897 -133.452
L400.873 -134.648
L400.844 -135.845
L400.816 -137.041
L400.797 -138.238
L400.789 -139.435
L400.796 -140.631
L400.815 -141.828
L400.842 -143.025
L400.87 -144.221
L400.896 -145.418
L400.917 -146.615
L400.931 -147.811
L400.94 -149.008
L400.946 -150.204
L400.948 -151.401
L400.949 -152.598
L400.951 -152.598
L400.951 -152.598
L400.952 -151.401
L400.954 -150.204
L400.96 -149.008
L400.969 -147.811
L400.983 -146.615
L401.004 -145.418
L401.03 -144.221
L401.058 -143.025
L401.085 -141.828
L401.104 -140.631
L401.111 -139.435
L401.103 -138.238
L401.084 -137.041
L401.056 -135.845
L401.027 -134.648
L401.003 -133.452
L400.987 -132.255
L400.984 -131.058
L400.996 -129.862
L401.026 -128.665
L401.075 -127.468
L401.141 -126.272
L401.22 -125.075
L401.301 -123.878
L401.374 -122.682
L401.431 -121.485
L401.466 -120.289
L401.481 -119.092
L401.475 -117.895
L401.451 -116.699
L401.411 -115.502
L401.365 -114.305
L401.321 -113.109
L401.29 -111.912
L401.281 -110.716
L401.296 -109.519
L401.334 -108.322
L401.386 -107.126
L401.445 -105.929
L401.499 -104.732
L401.541 -103.536
L401.568 -102.339
L401.586 -101.142
L401.607 -99.9458
L401.646 -98.7492
L401.715 -97.5525
L401.814 -96.3559
L401.936 -95.1593
L402.065 -93.9626
L402.187 -92.766
L402.295 -91.5694
L402.389 -90.3727
L402.478 -89.1761
L402.567 -87.9795
L402.661 -86.7828
L402.755 -85.5862
L402.845 -84.3896
L402.93 -83.1929
L403.016 -81.9963
L403.115 -80.7997
L403.237 -79.603
L403.392 -78.4064
L403.581 -77.2098
L403.802 -76.0131
L404.05 -74.8165
L404.319 -73.6199
L404.603 -72.4232
L404.903 -71.2266
L405.225 -70.03
L405.589 -68.8333
L406.025 -67.6367
L406.558 -66.44
L407.204 -65.2434
L407.962 -64.0468
L408.82 -62.8501
L409.764 -61.6535
L410.781 -60.4569
L411.866 -59.2602
L413.028 -58.0636
L414.314 -56.867
L415.823 -55.6703
L417.705 -54.4737
L420.121 -53.2771
L423.146 -52.0804
L426.649 -50.8838
L430.199 -49.6872
L433.073 -48.4905
L434.43 -47.2939
L433.618 -46.0973
L430.483 -44.9006
L425.497 -43.704
L419.601 -42.5074
L413.851 -41.3107
L409.049 -40.1141
L405.553 -38.9175
L403.315 -37.7208
L402.047 -36.5242
L401.408 -35.3276
L401.123 -34.1309
z
" id="mb777bf059c" style="stroke:#4cac73;stroke-width:0.3;"/>
    </defs>
    <g clip-path="url(#pf906d5d462)">
     <use style="fill:#4cac73;stroke:#4cac73;stroke-width:0.3;" x="0.0" xlink:href="#mb777bf059c" y="360.0"/>
    </g>
   </g>
   <g id="PolyCollection_5">
    <defs>
     <path d="
M484.673 -42.7539
L484.627 -42.7539
L484.591 -43.0043
L484.511 -43.2548
L484.356 -43.5052
L484.088 -43.7556
L483.67 -44.006
L483.079 -44.2565
L482.306 -44.5069
L481.336 -44.7573
L480.13 -45.0078
L478.603 -45.2582
L476.646 -45.5086
L474.178 -45.7591
L471.205 -46.0095
L467.863 -46.2599
L464.389 -46.5104
L461.059 -46.7608
L458.101 -47.0112
L455.642 -47.2617
L453.719 -47.5121
L452.327 -47.7625
L451.469 -48.013
L451.17 -48.2634
L451.458 -48.5138
L452.33 -48.7643
L453.739 -49.0147
L455.59 -49.2651
L457.745 -49.5156
L460.041 -49.766
L462.297 -50.0164
L464.347 -50.2669
L466.065 -50.5173
L467.4 -50.7677
L468.389 -51.0182
L469.139 -51.2686
L469.786 -51.519
L470.454 -51.7695
L471.221 -52.0199
L472.118 -52.2703
L473.131 -52.5207
L474.216 -52.7712
L475.311 -53.0216
L476.346 -53.272
L477.262 -53.5225
L478.01 -53.7729
L478.564 -54.0233
L478.92 -54.2738
L479.105 -54.5242
L479.174 -54.7746
L479.209 -55.0251
L479.298 -55.2755
L479.506 -55.5259
L479.856 -55.7764
L480.323 -56.0268
L480.852 -56.2772
L481.383 -56.5277
L481.871 -56.7781
L482.293 -57.0285
L482.65 -57.279
L482.957 -57.5294
L483.231 -57.7798
L483.485 -58.0303
L483.715 -58.2807
L483.912 -58.5311
L484.057 -58.7816
L484.144 -59.032
L484.176 -59.2824
L484.171 -59.5329
L484.158 -59.7833
L484.162 -60.0337
L484.198 -60.2841
L484.265 -60.5346
L484.351 -60.785
L484.437 -61.0354
L484.506 -61.2859
L484.546 -61.5363
L484.551 -61.7867
L484.519 -62.0372
L484.452 -62.2876
L484.357 -62.538
L484.248 -62.7885
L484.147 -63.0389
L484.076 -63.2893
L484.051 -63.5398
L484.074 -63.7902
L484.136 -64.0406
L484.218 -64.2911
L484.303 -64.5415
L484.378 -64.7919
L484.438 -65.0424
L484.485 -65.2928
L484.523 -65.5432
L484.556 -65.7937
L484.584 -66.0441
L484.608 -66.2945
L484.625 -66.545
L484.637 -66.7954
L484.644 -67.0458
L484.647 -67.2963
L484.649 -67.5467
L484.651 -67.5467
L484.651 -67.5467
L484.653 -67.2963
L484.656 -67.0458
L484.663 -66.7954
L484.675 -66.545
L484.692 -66.2945
L484.716 -66.0441
L484.744 -65.7937
L484.777 -65.5432
L484.815 -65.2928
L484.862 -65.0424
L484.922 -64.7919
L484.997 -64.5415
L485.082 -64.2911
L485.164 -64.0406
L485.226 -63.7902
L485.249 -63.5398
L485.224 -63.2893
L485.153 -63.0389
L485.052 -62.7885
L484.943 -62.538
L484.848 -62.2876
L484.781 -62.0372
L484.749 -61.7867
L484.754 -61.5363
L484.794 -61.2859
L484.863 -61.0354
L484.949 -60.785
L485.035 -60.5346
L485.102 -60.2841
L485.138 -60.0337
L485.142 -59.7833
L485.129 -59.5329
L485.124 -59.2824
L485.156 -59.032
L485.243 -58.7816
L485.388 -58.5311
L485.585 -58.2807
L485.815 -58.0303
L486.069 -57.7798
L486.343 -57.5294
L486.65 -57.279
L487.007 -57.0285
L487.429 -56.7781
L487.917 -56.5277
L488.448 -56.2772
L488.977 -56.0268
L489.444 -55.7764
L489.794 -55.5259
L490.002 -55.2755
L490.091 -55.0251
L490.126 -54.7746
L490.195 -54.5242
L490.38 -54.2738
L490.736 -54.0233
L491.29 -53.7729
L492.038 -53.5225
L492.954 -53.272
L493.989 -53.0216
L495.084 -52.7712
L496.169 -52.5207
L497.182 -52.2703
L498.079 -52.0199
L498.846 -51.7695
L499.514 -51.519
L500.161 -51.2686
L500.911 -51.0182
L501.9 -50.7677
L503.235 -50.5173
L504.953 -50.2669
L507.003 -50.0164
L509.259 -49.766
L511.555 -49.5156
L513.71 -49.2651
L515.561 -49.0147
L516.97 -48.7643
L517.842 -48.5138
L518.13 -48.2634
L517.831 -48.013
L516.973 -47.7625
L515.581 -47.5121
L513.658 -47.2617
L511.199 -47.0112
L508.241 -46.7608
L504.911 -46.5104
L501.437 -46.2599
L498.095 -46.0095
L495.122 -45.7591
L492.654 -45.5086
L490.697 -45.2582
L489.17 -45.0078
L487.964 -44.7573
L486.994 -44.5069
L486.221 -44.2565
L485.63 -44.006
L485.212 -43.7556
L484.944 -43.5052
L484.789 -43.2548
L484.709 -43.0043
L484.673 -42.7539
z
" id="m94ae727138" style="stroke:#4ea8a1;stroke-width:0.3;"/>
    </defs>
    <g clip-path="url(#pf906d5d462)">
     <use style="fill:#4ea8a1;stroke:#4ea8a1;stroke-width:0.3;" x="0.0" xlink:href="#m94ae727138" y="360.0"/>
    </g>
   </g>
   <g id="PolyCollection_6">
    <defs>
     <path d="
M568.356 -38.2856
L568.344 -38.2856
L568.32 -39.4102
L568.226 -40.5348
L567.927 -41.6594
L567.128 -42.784
L565.353 -43.9086
L562.077 -45.0332
L557.076 -46.1578
L550.809 -47.2824
L544.436 -48.407
L539.271 -49.5316
L536.087 -50.6562
L534.87 -51.7807
L535.158 -52.9053
L536.453 -54.0299
L538.412 -55.1545
L540.903 -56.2791
L543.922 -57.4037
L547.336 -58.5283
L550.716 -59.6529
L553.552 -60.7775
L555.638 -61.9021
L557.155 -63.0267
L558.418 -64.1513
L559.62 -65.2759
L560.785 -66.4005
L561.87 -67.5251
L562.841 -68.6497
L563.666 -69.7743
L564.312 -70.8989
L564.755 -72.0235
L565.02 -73.1481
L565.18 -74.2726
L565.324 -75.3972
L565.5 -76.5218
L565.702 -77.6464
L565.899 -78.771
L566.069 -79.8956
L566.225 -81.0202
L566.421 -82.1448
L566.702 -83.2694
L567.036 -84.394
L567.332 -85.5186
L567.523 -86.6432
L567.625 -87.7678
L567.707 -88.8924
L567.815 -90.017
L567.945 -91.1416
L568.068 -92.2662
L568.159 -93.3908
L568.212 -94.5154
L568.235 -95.6399
L568.243 -96.7645
L568.249 -97.8891
L568.255 -99.0137
L568.257 -100.138
L568.255 -101.263
L568.259 -102.388
L568.275 -103.512
L568.3 -104.637
L568.324 -105.761
L568.339 -106.886
L568.346 -108.01
L568.349 -109.135
L568.35 -110.26
L568.35 -111.384
L568.35 -112.509
L568.35 -113.633
L568.35 -114.758
L568.35 -115.883
L568.35 -117.007
L568.35 -118.132
L568.35 -119.256
L568.35 -120.381
L568.35 -121.506
L568.35 -122.63
L568.35 -123.755
L568.35 -124.879
L568.35 -126.004
L568.35 -127.129
L568.349 -128.253
L568.348 -129.378
L568.343 -130.502
L568.331 -131.627
L568.31 -132.752
L568.285 -133.876
L568.268 -135.001
L568.267 -136.125
L568.282 -137.25
L568.298 -138.375
L568.301 -139.499
L568.289 -140.624
L568.272 -141.748
L568.265 -142.873
L568.277 -143.998
L568.3 -145.122
L568.323 -146.247
L568.339 -147.371
L568.346 -148.496
L568.349 -149.621
L568.351 -149.621
L568.351 -149.621
L568.354 -148.496
L568.361 -147.371
L568.377 -146.247
L568.4 -145.122
L568.423 -143.998
L568.435 -142.873
L568.428 -141.748
L568.411 -140.624
L568.399 -139.499
L568.402 -138.375
L568.418 -137.25
L568.433 -136.125
L568.432 -135.001
L568.415 -133.876
L568.39 -132.752
L568.369 -131.627
L568.357 -130.502
L568.352 -129.378
L568.351 -128.253
L568.35 -127.129
L568.35 -126.004
L568.35 -124.879
L568.35 -123.755
L568.35 -122.63
L568.35 -121.506
L568.35 -120.381
L568.35 -119.256
L568.35 -118.132
L568.35 -117.007
L568.35 -115.883
L568.35 -114.758
L568.35 -113.633
L568.35 -112.509
L568.35 -111.384
L568.35 -110.26
L568.351 -109.135
L568.354 -108.01
L568.361 -106.886
L568.376 -105.761
L568.4 -104.637
L568.425 -103.512
L568.441 -102.388
L568.445 -101.263
L568.443 -100.138
L568.445 -99.0137
L568.451 -97.8891
L568.457 -96.7645
L568.465 -95.6399
L568.488 -94.5154
L568.541 -93.3908
L568.632 -92.2662
L568.755 -91.1416
L568.885 -90.017
L568.993 -88.8924
L569.075 -87.7678
L569.177 -86.6432
L569.368 -85.5186
L569.664 -84.394
L569.998 -83.2694
L570.279 -82.1448
L570.475 -81.0202
L570.631 -79.8956
L570.801 -78.771
L570.998 -77.6464
L571.2 -76.5218
L571.376 -75.3972
L571.52 -74.2726
L571.68 -73.1481
L571.945 -72.0235
L572.388 -70.8989
L573.034 -69.7743
L573.859 -68.6497
L574.83 -67.5251
L575.915 -66.4005
L577.08 -65.2759
L578.282 -64.1513
L579.545 -63.0267
L581.062 -61.9021
L583.148 -60.7775
L585.984 -59.6529
L589.364 -58.5283
L592.778 -57.4037
L595.797 -56.2791
L598.288 -55.1545
L600.247 -54.0299
L601.542 -52.9053
L601.83 -51.7807
L600.613 -50.6562
L597.429 -49.5316
L592.264 -48.407
L585.891 -47.2824
L579.624 -46.1578
L574.623 -45.0332
L571.347 -43.9086
L569.572 -42.784
L568.773 -41.6594
L568.474 -40.5348
L568.38 -39.4102
L568.356 -38.2856
z
" id="mf3d0ed6b63" style="stroke:#57aac9;stroke-width:0.3;"/>
    </defs>
    <g clip-path="url(#pf906d5d462)">
     <use style="fill:#57aac9;stroke:#57aac9;stroke-width:0.3;" x="0.0" xlink:href="#mf3d0ed6b63" y="360.0"/>
    </g>
   </g>
   <g id="PolyCollection_7">
    <defs>
     <path d="
M652.055 -46.8668
L652.045 -46.8668
L652.038 -47.8537
L652.023 -48.8406
L651.993 -49.8275
L651.936 -50.8144
L651.834 -51.8013
L651.665 -52.7882
L651.396 -53.7751
L650.991 -54.762
L650.408 -55.7489
L649.607 -56.7358
L648.55 -57.7227
L647.21 -58.7096
L645.583 -59.6965
L643.689 -60.6834
L641.583 -61.6703
L639.347 -62.6572
L637.087 -63.6441
L634.906 -64.631
L632.896 -65.6179
L631.111 -66.6048
L629.562 -67.5917
L628.22 -68.5786
L627.027 -69.5655
L625.917 -70.5524
L624.837 -71.5393
L623.756 -72.5262
L622.68 -73.5131
L621.64 -74.5
L620.687 -75.4869
L619.873 -76.4738
L619.24 -77.4607
L618.813 -78.4476
L618.597 -79.4345
L618.57 -80.4214
L618.692 -81.4083
L618.909 -82.3952
L619.167 -83.3821
L619.433 -84.369
L619.704 -85.3559
L620.016 -86.3428
L620.433 -87.3297
L621.015 -88.3166
L621.791 -89.3035
L622.733 -90.2904
L623.763 -91.2773
L624.773 -92.2642
L625.667 -93.2511
L626.397 -94.238
L626.974 -95.2249
L627.465 -96.2118
L627.959 -97.1987
L628.539 -98.1856
L629.258 -99.1725
L630.132 -100.159
L631.147 -101.146
L632.274 -102.133
L633.484 -103.12
L634.749 -104.107
L636.043 -105.094
L637.345 -106.081
L638.635 -107.068
L639.898 -108.055
L641.127 -109.041
L642.319 -110.028
L643.469 -111.015
L644.567 -112.002
L645.594 -112.989
L646.521 -113.976
L647.322 -114.963
L647.975 -115.95
L648.47 -116.937
L648.817 -117.924
L649.036 -118.91
L649.159 -119.897
L649.224 -120.884
L649.266 -121.871
L649.314 -122.858
L649.392 -123.845
L649.516 -124.832
L649.692 -125.819
L649.917 -126.806
L650.177 -127.793
L650.454 -128.779
L650.728 -129.766
L650.982 -130.753
L651.204 -131.74
L651.392 -132.727
L651.547 -133.714
L651.673 -134.701
L651.774 -135.688
L651.855 -136.675
L651.917 -137.662
L651.964 -138.648
L651.997 -139.635
L652.02 -140.622
L652.034 -141.609
L652.042 -142.596
L652.046 -143.583
L652.048 -144.57
L652.052 -144.57
L652.052 -144.57
L652.054 -143.583
L652.058 -142.596
L652.066 -141.609
L652.08 -140.622
L652.103 -139.635
L652.136 -138.648
L652.183 -137.662
L652.245 -136.675
L652.326 -135.688
L652.427 -134.701
L652.553 -133.714
L652.708 -132.727
L652.896 -131.74
L653.118 -130.753
L653.372 -129.766
L653.646 -128.779
L653.923 -127.793
L654.183 -126.806
L654.408 -125.819
L654.584 -124.832
L654.708 -123.845
L654.786 -122.858
L654.834 -121.871
L654.876 -120.884
L654.941 -119.897
L655.064 -118.91
L655.283 -117.924
L655.63 -116.937
L656.125 -115.95
L656.778 -114.963
L657.579 -113.976
L658.506 -112.989
L659.533 -112.002
L660.631 -111.015
L661.781 -110.028
L662.973 -109.041
L664.202 -108.055
L665.465 -107.068
L666.755 -106.081
L668.057 -105.094
L669.351 -104.107
L670.616 -103.12
L671.826 -102.133
L672.953 -101.146
L673.968 -100.159
L674.842 -99.1725
L675.561 -98.1856
L676.141 -97.1987
L676.635 -96.2118
L677.126 -95.2249
L677.703 -94.238
L678.433 -93.2511
L679.327 -92.2642
L680.337 -91.2773
L681.367 -90.2904
L682.309 -89.3035
L683.085 -88.3166
L683.667 -87.3297
L684.084 -86.3428
L684.396 -85.3559
L684.667 -84.369
L684.933 -83.3821
L685.191 -82.3952
L685.408 -81.4083
L685.53 -80.4214
L685.503 -79.4345
L685.287 -78.4476
L684.86 -77.4607
L684.227 -76.4738
L683.413 -75.4869
L682.46 -74.5
L681.42 -73.5131
L680.344 -72.5262
L679.263 -71.5393
L678.183 -70.5524
L677.073 -69.5655
L675.88 -68.5786
L674.538 -67.5917
L672.989 -66.6048
L671.204 -65.6179
L669.194 -64.631
L667.013 -63.6441
L664.753 -62.6572
L662.517 -61.6703
L660.411 -60.6834
L658.517 -59.6965
L656.89 -58.7096
L655.55 -57.7227
L654.493 -56.7358
L653.692 -55.7489
L653.109 -54.762
L652.704 -53.7751
L652.435 -52.7882
L652.266 -51.8013
L652.164 -50.8144
L652.107 -49.8275
L652.077 -48.8406
L652.062 -47.8537
L652.055 -46.8668
z
" id="m36837a952f" style="stroke:#b7aae9;stroke-width:0.3;"/>
    </defs>
    <g clip-path="url(#pf906d5d462)">
     <use style="fill:#b7aae9;stroke:#b7aae9;stroke-width:0.3;" x="0.0" xlink:href="#m36837a952f" y="360.0"/>
    </g>
   </g>
   <g id="PolyCollection_8">
    <defs>
     <path d="
M735.752 -31.7463
L735.748 -31.7463
L735.745 -33.3774
L735.738 -35.0084
L735.723 -36.6395
L735.693 -38.2706
L735.635 -39.9016
L735.525 -41.5327
L735.331 -43.1638
L735.005 -44.7948
L734.485 -46.4259
L733.705 -48.0569
L732.607 -49.688
L731.159 -51.3191
L729.378 -52.9501
L727.34 -54.5812
L725.178 -56.2123
L723.056 -57.8433
L721.132 -59.4744
L719.515 -61.1055
L718.236 -62.7365
L717.239 -64.3676
L716.406 -65.9987
L715.591 -67.6297
L714.665 -69.2608
L713.545 -70.8919
L712.205 -72.5229
L710.673 -74.154
L709.019 -75.785
L707.338 -77.4161
L705.743 -79.0472
L704.347 -80.6782
L703.258 -82.3093
L702.554 -83.9404
L702.27 -85.5714
L702.383 -87.2025
L702.813 -88.8336
L703.44 -90.4646
L704.137 -92.0957
L704.805 -93.7268
L705.405 -95.3578
L705.962 -96.9889
L706.551 -98.62
L707.264 -100.251
L708.168 -101.882
L709.281 -103.513
L710.558 -105.144
L711.907 -106.775
L713.218 -108.406
L714.397 -110.037
L715.391 -111.668
L716.201 -113.3
L716.871 -114.931
L717.465 -116.562
L718.041 -118.193
L718.626 -119.824
L719.219 -121.455
L719.792 -123.086
L720.311 -124.717
L720.755 -126.348
L721.125 -127.979
L721.449 -129.61
L721.769 -131.241
L722.138 -132.872
L722.602 -134.503
L723.193 -136.134
L723.924 -137.766
L724.788 -139.397
L725.757 -141.028
L726.789 -142.659
L727.834 -144.29
L728.84 -145.921
L729.767 -147.552
L730.583 -149.183
L731.277 -150.814
L731.853 -152.445
L732.331 -154.076
L732.735 -155.707
L733.089 -157.338
L733.413 -158.969
L733.719 -160.6
L734.009 -162.231
L734.281 -163.863
L734.53 -165.494
L734.75 -167.125
L734.938 -168.756
L735.096 -170.387
L735.226 -172.018
L735.333 -173.649
L735.421 -175.28
L735.496 -176.911
L735.559 -178.542
L735.612 -180.173
L735.654 -181.804
L735.687 -183.435
L735.711 -185.066
L735.727 -186.697
L735.737 -188.329
L735.743 -189.96
L735.747 -191.591
L735.749 -193.222
L735.751 -193.222
L735.751 -193.222
L735.753 -191.591
L735.757 -189.96
L735.763 -188.329
L735.773 -186.697
L735.789 -185.066
L735.813 -183.435
L735.846 -181.804
L735.888 -180.173
L735.941 -178.542
L736.004 -176.911
L736.079 -175.28
L736.167 -173.649
L736.274 -172.018
L736.404 -170.387
L736.562 -168.756
L736.75 -167.125
L736.97 -165.494
L737.219 -163.863
L737.491 -162.231
L737.781 -160.6
L738.087 -158.969
L738.411 -157.338
L738.765 -155.707
L739.169 -154.076
L739.647 -152.445
L740.223 -150.814
L740.917 -149.183
L741.733 -147.552
L742.66 -145.921
L743.666 -144.29
L744.711 -142.659
L745.743 -141.028
L746.712 -139.397
L747.576 -137.766
L748.307 -136.134
L748.898 -134.503
L749.362 -132.872
L749.731 -131.241
L750.051 -129.61
L750.375 -127.979
L750.745 -126.348
L751.189 -124.717
L751.708 -123.086
L752.281 -121.455
L752.874 -119.824
L753.459 -118.193
L754.035 -116.562
L754.629 -114.931
L755.299 -113.3
L756.109 -111.668
L757.103 -110.037
L758.282 -108.406
L759.593 -106.775
L760.942 -105.144
L762.219 -103.513
L763.332 -101.882
L764.236 -100.251
L764.949 -98.62
L765.538 -96.9889
L766.095 -95.3578
L766.695 -93.7268
L767.363 -92.0957
L768.06 -90.4646
L768.687 -88.8336
L769.117 -87.2025
L769.23 -85.5714
L768.946 -83.9404
L768.242 -82.3093
L767.153 -80.6782
L765.757 -79.0472
L764.162 -77.4161
L762.481 -75.785
L760.827 -74.154
L759.295 -72.5229
L757.955 -70.8919
L756.835 -69.2608
L755.909 -67.6297
L755.094 -65.9987
L754.261 -64.3676
L753.264 -62.7365
L751.985 -61.1055
L750.368 -59.4744
L748.444 -57.8433
L746.322 -56.2123
L744.16 -54.5812
L742.122 -52.9501
L740.341 -51.3191
L738.893 -49.688
L737.795 -48.0569
L737.015 -46.4259
L736.495 -44.7948
L736.169 -43.1638
L735.975 -41.5327
L735.865 -39.9016
L735.807 -38.2706
L735.777 -36.6395
L735.762 -35.0084
L735.755 -33.3774
L735.752 -31.7463
z
" id="mae5d9ecee1" style="stroke:#e48fd5;stroke-width:0.3;"/>
    </defs>
    <g clip-path="url(#pf906d5d462)">
     <use style="fill:#e48fd5;stroke:#e48fd5;stroke-width:0.3;" x="0.0" xlink:href="#mae5d9ecee1" y="360.0"/>
    </g>
   </g>
   <g id="line2d_21">
    <path clip-path="url(#pf906d5d462)" d="
M116.637 288.574
L183.063 288.574" style="fill:none;stroke:#464646;stroke-dasharray:1.000000,3.000000;stroke-dashoffset:0.0;stroke-width:1.5;"/>
   </g>
   <g id="line2d_22">
    <path clip-path="url(#pf906d5d462)" d="
M127.651 255.682
L172.049 255.682" style="fill:none;stroke:#464646;stroke-dasharray:1.000000,3.000000;stroke-dashoffset:0.0;stroke-width:1.5;"/>
   </g>
   <g id="line2d_23">
    <path clip-path="url(#pf906d5d462)" d="
M118.775 272.708
L180.925 272.708" style="fill:none;stroke:#464646;stroke-dasharray:6.000000,6.000000;stroke-dashoffset:0.0;stroke-width:1.5;"/>
   </g>
   <g id="line2d_24">
    <path clip-path="url(#pf906d5d462)" d="
M149.844 334.554
L149.832 332.104
L149.798 329.654
L149.718 327.204
L149.553 324.755
L149.248 322.305
L148.738 319.855
L147.953 317.405
L146.819 314.955
L145.256 312.506
L143.191 310.056
L140.585 307.606
L137.458 305.156
L133.904 302.707
L130.081 300.257
L126.217 297.807
L122.613 295.357
L119.616 292.907
L117.53 290.458
L116.487 288.008
L116.37 285.558
L116.855 283.108
L117.544 280.659
L118.128 278.209
L118.49 275.759
L118.716 273.309
L119.021 270.859
L119.618 268.41
L120.62 265.96
L122 263.51
L123.641 261.06
L125.424 258.611
L127.282 256.161
L129.186 253.711
L131.094 251.261
L132.927 248.811
L134.594 246.362
L136.045 243.912
L137.291 241.462
L138.391 239.012
L139.413 236.563
L140.401 234.113
L141.369 231.663
L142.292 229.213
L143.135 226.763
L143.876 224.314
L144.523 221.864
L145.114 219.414
L145.684 216.964
L146.244 214.515
L146.777 212.065
L147.248 209.615
L147.636 207.165
L147.941 204.716
L148.184 202.266
L148.387 199.816
L148.56 197.366
L148.705 194.916
L148.823 192.467
L148.92 190.017
L149.004 187.567
L149.086 185.117
L149.169 182.668
L149.252 180.218
L149.331 177.768
L149.403 175.318
L149.462 172.868
L149.498 170.419
L149.503 167.969
L149.473 165.519
L149.42 163.069
L149.366 160.62
L149.34 158.17
L149.359 155.72
L149.421 153.27
L149.509 150.82
L149.595 148.371
L149.66 145.921
L149.697 143.471
L149.714 141.021
L149.724 138.572
L149.738 136.122
L149.758 133.672
L149.78 131.222
L149.794 128.772
L149.793 126.323
L149.774 123.873
L149.738 121.423
L149.694 118.973
L149.656 116.524
L149.636 114.074
L149.643 111.624
L149.674 109.174
L149.719 106.724
L149.764 104.275
L149.8 101.825
L149.825 99.3751
L149.839 96.9253
L149.846 94.4755
L149.849 92.0258" style="fill:none;stroke:#464646;stroke-linecap:round;stroke-width:1.5;"/>
   </g>
   <g id="line2d_25">
    <path clip-path="url(#pf906d5d462)" d="
M149.856 334.554
L149.868 332.104
L149.902 329.654
L149.982 327.204
L150.147 324.755
L150.452 322.305
L150.962 319.855
L151.747 317.405
L152.881 314.955
L154.444 312.506
L156.509 310.056
L159.115 307.606
L162.242 305.156
L165.796 302.707
L169.619 300.257
L173.483 297.807
L177.087 295.357
L180.084 292.907
L182.17 290.458
L183.213 288.008
L183.33 285.558
L182.845 283.108
L182.156 280.659
L181.572 278.209
L181.21 275.759
L180.984 273.309
L180.679 270.859
L180.082 268.41
L179.08 265.96
L177.7 263.51
L176.059 261.06
L174.276 258.611
L172.418 256.161
L170.514 253.711
L168.606 251.261
L166.773 248.811
L165.106 246.362
L163.655 243.912
L162.409 241.462
L161.309 239.012
L160.287 236.563
L159.299 234.113
L158.331 231.663
L157.408 229.213
L156.565 226.763
L155.824 224.314
L155.177 221.864
L154.586 219.414
L154.016 216.964
L153.456 214.515
L152.923 212.065
L152.452 209.615
L152.064 207.165
L151.759 204.716
L151.516 202.266
L151.313 199.816
L151.14 197.366
L150.995 194.916
L150.877 192.467
L150.78 190.017
L150.696 187.567
L150.614 185.117
L150.531 182.668
L150.448 180.218
L150.369 177.768
L150.297 175.318
L150.238 172.868
L150.202 170.419
L150.197 167.969
L150.227 165.519
L150.28 163.069
L150.334 160.62
L150.36 158.17
L150.341 155.72
L150.279 153.27
L150.191 150.82
L150.105 148.371
L150.04 145.921
L150.003 143.471
L149.986 141.021
L149.976 138.572
L149.962 136.122
L149.942 133.672
L149.92 131.222
L149.906 128.772
L149.907 126.323
L149.926 123.873
L149.962 121.423
L150.006 118.973
L150.044 116.524
L150.064 114.074
L150.057 111.624
L150.026 109.174
L149.981 106.724
L149.936 104.275
L149.9 101.825
L149.875 99.3751
L149.861 96.9253
L149.854 94.4755
L149.851 92.0258" style="fill:none;stroke:#464646;stroke-linecap:round;stroke-width:1.5;"/>
   </g>
   <g id="line2d_26">
    <path clip-path="url(#pf906d5d462)" d="
M201.77 271.547
L265.33 271.547" style="fill:none;stroke:#464646;stroke-dasharray:1.000000,3.000000;stroke-dashoffset:0.0;stroke-width:1.5;"/>
   </g>
   <g id="line2d_27">
    <path clip-path="url(#pf906d5d462)" d="
M213.488 251.655
L253.612 251.655" style="fill:none;stroke:#464646;stroke-dasharray:1.000000,3.000000;stroke-dashoffset:0.0;stroke-width:1.5;"/>
   </g>
   <g id="line2d_28">
    <path clip-path="url(#pf906d5d462)" d="
M202.231 263.235
L264.869 263.235" style="fill:none;stroke:#464646;stroke-dasharray:6.000000,6.000000;stroke-dashoffset:0.0;stroke-width:1.5;"/>
   </g>
   <g id="line2d_29">
    <path clip-path="url(#pf906d5d462)" d="
M233.546 302.75
L233.537 301.388
L233.516 300.027
L233.468 298.665
L233.378 297.303
L233.227 295.942
L233.005 294.58
L232.711 293.218
L232.342 291.856
L231.883 290.495
L231.284 289.133
L230.461 287.771
L229.314 286.409
L227.761 285.048
L225.76 283.686
L223.325 282.324
L220.514 280.962
L217.421 279.601
L214.17 278.239
L210.921 276.877
L207.874 275.516
L205.235 274.154
L203.153 272.792
L201.665 271.43
L200.709 270.069
L200.191 268.707
L200.07 267.345
L200.369 265.983
L201.104 264.622
L202.208 263.26
L203.523 261.898
L204.879 260.537
L206.189 259.175
L207.478 257.813
L208.824 256.451
L210.25 255.09
L211.672 253.728
L212.935 252.366
L213.921 251.004
L214.639 249.643
L215.236 248.281
L215.918 246.919
L216.849 245.558
L218.088 244.196
L219.596 242.834
L221.27 241.472
L222.99 240.111
L224.645 238.749
L226.148 237.387
L227.438 236.025
L228.486 234.664
L229.289 233.302
L229.868 231.94
L230.258 230.579
L230.497 229.217
L230.629 227.855
L230.698 226.493
L230.749 225.132
L230.829 223.77
L230.977 222.408
L231.215 221.046
L231.535 219.685
L231.901 218.323
L232.262 216.961
L232.572 215.6
L232.81 214.238
L232.978 212.876
L233.092 211.514
L233.171 210.153
L233.23 208.791
L233.275 207.429
L233.309 206.067
L233.335 204.706
L233.354 203.344
L233.371 201.982
L233.39 200.621
L233.416 199.259
L233.447 197.897
L233.479 196.535
L233.507 195.174
L233.527 193.812
L233.539 192.45
L233.545 191.088
L233.548 189.727
L233.547 188.365
L233.542 187.003
L233.532 185.642
L233.516 184.28
L233.492 182.918
L233.465 181.556
L233.443 180.195
L233.433 178.833
L233.44 177.471
L233.46 176.109
L233.486 174.748
L233.511 173.386
L233.529 172.024
L233.54 170.663
L233.546 169.301
L233.549 167.939" style="fill:none;stroke:#464646;stroke-linecap:round;stroke-width:1.5;"/>
   </g>
   <g id="line2d_30">
    <path clip-path="url(#pf906d5d462)" d="
M233.554 302.75
L233.563 301.388
L233.584 300.027
L233.632 298.665
L233.722 297.303
L233.873 295.942
L234.095 294.58
L234.389 293.218
L234.758 291.856
L235.217 290.495
L235.816 289.133
L236.639 287.771
L237.786 286.409
L239.339 285.048
L241.34 283.686
L243.775 282.324
L246.586 280.962
L249.679 279.601
L252.93 278.239
L256.179 276.877
L259.226 275.516
L261.865 274.154
L263.947 272.792
L265.435 271.43
L266.391 270.069
L266.909 268.707
L267.03 267.345
L266.731 265.983
L265.996 264.622
L264.892 263.26
L263.577 261.898
L262.221 260.537
L260.911 259.175
L259.622 257.813
L258.276 256.451
L256.85 255.09
L255.428 253.728
L254.165 252.366
L253.179 251.004
L252.461 249.643
L251.864 248.281
L251.182 246.919
L250.251 245.558
L249.012 244.196
L247.504 242.834
L245.83 241.472
L244.11 240.111
L242.455 238.749
L240.952 237.387
L239.662 236.025
L238.614 234.664
L237.811 233.302
L237.232 231.94
L236.842 230.579
L236.603 229.217
L236.471 227.855
L236.402 226.493
L236.351 225.132
L236.271 223.77
L236.123 222.408
L235.885 221.046
L235.565 219.685
L235.199 218.323
L234.838 216.961
L234.528 215.6
L234.29 214.238
L234.122 212.876
L234.008 211.514
L233.929 210.153
L233.87 208.791
L233.825 207.429
L233.791 206.067
L233.765 204.706
L233.746 203.344
L233.729 201.982
L233.71 200.621
L233.684 199.259
L233.653 197.897
L233.621 196.535
L233.593 195.174
L233.573 193.812
L233.561 192.45
L233.555 191.088
L233.552 189.727
L233.553 188.365
L233.558 187.003
L233.568 185.642
L233.584 184.28
L233.608 182.918
L233.635 181.556
L233.657 180.195
L233.667 178.833
L233.66 177.471
L233.64 176.109
L233.614 174.748
L233.589 173.386
L233.571 172.024
L233.56 170.663
L233.554 169.301
L233.551 167.939" style="fill:none;stroke:#464646;stroke-linecap:round;stroke-width:1.5;"/>
   </g>
   <g id="line2d_31">
    <path clip-path="url(#pf906d5d462)" d="
M283.897 281.61
L350.603 281.61" style="fill:none;stroke:#464646;stroke-dasharray:1.000000,3.000000;stroke-dashoffset:0.0;stroke-width:1.5;"/>
   </g>
   <g id="line2d_32">
    <path clip-path="url(#pf906d5d462)" d="
M297.626 237.787
L336.874 237.787" style="fill:none;stroke:#464646;stroke-dasharray:1.000000,3.000000;stroke-dashoffset:0.0;stroke-width:1.5;"/>
   </g>
   <g id="line2d_33">
    <path clip-path="url(#pf906d5d462)" d="
M288.693 262.012
L345.807 262.012" style="fill:none;stroke:#464646;stroke-dasharray:6.000000,6.000000;stroke-dashoffset:0.0;stroke-width:1.5;"/>
   </g>
   <g id="line2d_34">
    <path clip-path="url(#pf906d5d462)" d="
M317.243 337.614
L317.234 335.392
L317.213 333.17
L317.172 330.948
L317.097 328.726
L316.968 326.504
L316.763 324.282
L316.455 322.06
L316.017 319.838
L315.422 317.616
L314.65 315.394
L313.682 313.172
L312.508 310.95
L311.115 308.728
L309.49 306.506
L307.609 304.284
L305.443 302.062
L302.967 299.84
L300.19 297.618
L297.18 295.396
L294.077 293.174
L291.081 290.952
L288.418 288.73
L286.284 286.509
L284.8 284.287
L283.986 282.065
L283.77 279.843
L284.015 277.621
L284.558 275.399
L285.253 273.177
L285.991 270.955
L286.713 268.733
L287.399 266.511
L288.051 264.289
L288.677 262.067
L289.281 259.845
L289.865 257.623
L290.444 255.401
L291.054 253.179
L291.746 250.957
L292.57 248.735
L293.54 246.513
L294.623 244.291
L295.739 242.069
L296.787 239.847
L297.684 237.625
L298.391 235.404
L298.928 233.182
L299.372 230.96
L299.829 228.738
L300.405 226.516
L301.171 224.294
L302.14 222.072
L303.264 219.85
L304.447 217.628
L305.584 215.406
L306.592 213.184
L307.442 210.962
L308.16 208.74
L308.812 206.518
L309.472 204.296
L310.194 202.074
L310.992 199.852
L311.836 197.63
L312.672 195.408
L313.437 193.186
L314.079 190.964
L314.567 188.742
L314.894 186.52
L315.071 184.299
L315.127 182.077
L315.101 179.855
L315.038 177.633
L314.984 175.411
L314.978 173.189
L315.043 170.967
L315.18 168.745
L315.379 166.523
L315.618 164.301
L315.871 162.079
L316.12 159.857
L316.35 157.635
L316.552 155.413
L316.721 153.191
L316.854 150.969
L316.951 148.747
L317.017 146.525
L317.059 144.303
L317.086 142.081
L317.107 139.859
L317.127 137.637
L317.149 135.415
L317.172 133.193
L317.194 130.972
L317.213 128.75
L317.227 126.528
L317.237 124.306
L317.244 122.084
L317.247 119.862
L317.249 117.64" style="fill:none;stroke:#464646;stroke-linecap:round;stroke-width:1.5;"/>
   </g>
   <g id="line2d_35">
    <path clip-path="url(#pf906d5d462)" d="
M317.257 337.614
L317.266 335.392
L317.287 333.17
L317.328 330.948
L317.403 328.726
L317.532 326.504
L317.737 324.282
L318.045 322.06
L318.483 319.838
L319.078 317.616
L319.85 315.394
L320.818 313.172
L321.992 310.95
L323.385 308.728
L325.01 306.506
L326.891 304.284
L329.057 302.062
L331.533 299.84
L334.31 297.618
L337.32 295.396
L340.423 293.174
L343.419 290.952
L346.082 288.73
L348.216 286.509
L349.7 284.287
L350.514 282.065
L350.73 279.843
L350.485 277.621
L349.942 275.399
L349.247 273.177
L348.509 270.955
L347.787 268.733
L347.101 266.511
L346.449 264.289
L345.823 262.067
L345.219 259.845
L344.635 257.623
L344.056 255.401
L343.446 253.179
L342.754 250.957
L341.93 248.735
L340.96 246.513
L339.877 244.291
L338.761 242.069
L337.713 239.847
L336.816 237.625
L336.109 235.404
L335.572 233.182
L335.128 230.96
L334.671 228.738
L334.095 226.516
L333.329 224.294
L332.36 222.072
L331.236 219.85
L330.053 217.628
L328.916 215.406
L327.908 213.184
L327.058 210.962
L326.34 208.74
L325.688 206.518
L325.028 204.296
L324.306 202.074
L323.508 199.852
L322.664 197.63
L321.828 195.408
L321.063 193.186
L320.421 190.964
L319.933 188.742
L319.606 186.52
L319.429 184.299
L319.373 182.077
L319.399 179.855
L319.462 177.633
L319.516 175.411
L319.522 173.189
L319.457 170.967
L319.32 168.745
L319.121 166.523
L318.882 164.301
L318.629 162.079
L318.38 159.857
L318.15 157.635
L317.948 155.413
L317.779 153.191
L317.646 150.969
L317.549 148.747
L317.483 146.525
L317.441 144.303
L317.414 142.081
L317.393 139.859
L317.373 137.637
L317.351 135.415
L317.328 133.193
L317.306 130.972
L317.287 128.75
L317.273 126.528
L317.263 124.306
L317.256 122.084
L317.253 119.862
L317.251 117.64" style="fill:none;stroke:#464646;stroke-linecap:round;stroke-width:1.5;"/>
   </g>
   <g id="line2d_36">
    <path clip-path="url(#pf906d5d462)" d="
M368.299 313.913
L433.601 313.913" style="fill:none;stroke:#464646;stroke-dasharray:1.000000,3.000000;stroke-dashoffset:0.0;stroke-width:1.5;"/>
   </g>
   <g id="line2d_37">
    <path clip-path="url(#pf906d5d462)" d="
M389.695 301.099
L412.205 301.099" style="fill:none;stroke:#464646;stroke-dasharray:1.000000,3.000000;stroke-dashoffset:0.0;stroke-width:1.5;"/>
   </g>
   <g id="line2d_38">
    <path clip-path="url(#pf906d5d462)" d="
M371.855 310.258
L430.045 310.258" style="fill:none;stroke:#464646;stroke-dasharray:6.000000,6.000000;stroke-dashoffset:0.0;stroke-width:1.5;"/>
   </g>
   <g id="line2d_39">
    <path clip-path="url(#pf906d5d462)" d="
M400.777 325.869
L400.492 324.672
L399.853 323.476
L398.585 322.279
L396.347 321.083
L392.851 319.886
L388.049 318.689
L382.299 317.493
L376.403 316.296
L371.417 315.099
L368.282 313.903
L367.47 312.706
L368.827 311.509
L371.701 310.313
L375.251 309.116
L378.754 307.92
L381.779 306.723
L384.195 305.526
L386.077 304.33
L387.586 303.133
L388.872 301.936
L390.034 300.74
L391.119 299.543
L392.136 298.346
L393.08 297.15
L393.938 295.953
L394.696 294.757
L395.342 293.56
L395.875 292.363
L396.311 291.167
L396.675 289.97
L396.997 288.773
L397.297 287.577
L397.581 286.38
L397.85 285.184
L398.098 283.987
L398.319 282.79
L398.508 281.594
L398.663 280.397
L398.785 279.2
L398.884 278.004
L398.97 276.807
L399.055 275.61
L399.145 274.414
L399.239 273.217
L399.333 272.021
L399.422 270.824
L399.511 269.627
L399.605 268.431
L399.713 267.234
L399.835 266.037
L399.964 264.841
L400.086 263.644
L400.185 262.447
L400.254 261.251
L400.293 260.054
L400.314 258.858
L400.332 257.661
L400.359 256.464
L400.401 255.268
L400.455 254.071
L400.514 252.874
L400.566 251.678
L400.604 250.481
L400.619 249.284
L400.61 248.088
L400.579 246.891
L400.535 245.695
L400.489 244.498
L400.449 243.301
L400.425 242.105
L400.419 240.908
L400.434 239.711
L400.469 238.515
L400.526 237.318
L400.599 236.122
L400.68 234.925
L400.759 233.728
L400.825 232.532
L400.874 231.335
L400.904 230.138
L400.916 228.942
L400.913 227.745
L400.897 226.548
L400.873 225.352
L400.844 224.155
L400.816 222.959
L400.797 221.762
L400.789 220.565
L400.796 219.369
L400.815 218.172
L400.842 216.975
L400.87 215.779
L400.896 214.582
L400.917 213.385
L400.931 212.189
L400.94 210.992
L400.946 209.796
L400.948 208.599
L400.949 207.402" style="fill:none;stroke:#464646;stroke-linecap:round;stroke-width:1.5;"/>
   </g>
   <g id="line2d_40">
    <path clip-path="url(#pf906d5d462)" d="
M401.123 325.869
L401.408 324.672
L402.047 323.476
L403.315 322.279
L405.553 321.083
L409.049 319.886
L413.851 318.689
L419.601 317.493
L425.497 316.296
L430.483 315.099
L433.618 313.903
L434.43 312.706
L433.073 311.509
L430.199 310.313
L426.649 309.116
L423.146 307.92
L420.121 306.723
L417.705 305.526
L415.823 304.33
L414.314 303.133
L413.028 301.936
L411.866 300.74
L410.781 299.543
L409.764 298.346
L408.82 297.15
L407.962 295.953
L407.204 294.757
L406.558 293.56
L406.025 292.363
L405.589 291.167
L405.225 289.97
L404.903 288.773
L404.603 287.577
L404.319 286.38
L404.05 285.184
L403.802 283.987
L403.581 282.79
L403.392 281.594
L403.237 280.397
L403.115 279.2
L403.016 278.004
L402.93 276.807
L402.845 275.61
L402.755 274.414
L402.661 273.217
L402.567 272.021
L402.478 270.824
L402.389 269.627
L402.295 268.431
L402.187 267.234
L402.065 266.037
L401.936 264.841
L401.814 263.644
L401.715 262.447
L401.646 261.251
L401.607 260.054
L401.586 258.858
L401.568 257.661
L401.541 256.464
L401.499 255.268
L401.445 254.071
L401.386 252.874
L401.334 251.678
L401.296 250.481
L401.281 249.284
L401.29 248.088
L401.321 246.891
L401.365 245.695
L401.411 244.498
L401.451 243.301
L401.475 242.105
L401.481 240.908
L401.466 239.711
L401.431 238.515
L401.374 237.318
L401.301 236.122
L401.22 234.925
L401.141 233.728
L401.075 232.532
L401.026 231.335
L400.996 230.138
L400.984 228.942
L400.987 227.745
L401.003 226.548
L401.027 225.352
L401.056 224.155
L401.084 222.959
L401.103 221.762
L401.111 220.565
L401.104 219.369
L401.085 218.172
L401.058 216.975
L401.03 215.779
L401.004 214.582
L400.983 213.385
L400.969 212.189
L400.96 210.992
L400.954 209.796
L400.952 208.599
L400.951 207.402" style="fill:none;stroke:#464646;stroke-linecap:round;stroke-width:1.5;"/>
   </g>
   <g id="line2d_41">
    <path clip-path="url(#pf906d5d462)" d="
M452.772 312.329
L516.528 312.329" style="fill:none;stroke:#464646;stroke-dasharray:1.000000,3.000000;stroke-dashoffset:0.0;stroke-width:1.5;"/>
   </g>
   <g id="line2d_42">
    <path clip-path="url(#pf906d5d462)" d="
M469.143 308.73
L500.157 308.73" style="fill:none;stroke:#464646;stroke-dasharray:1.000000,3.000000;stroke-dashoffset:0.0;stroke-width:1.5;"/>
   </g>
   <g id="line2d_43">
    <path clip-path="url(#pf906d5d462)" d="
M453.715 310.989
L515.585 310.989" style="fill:none;stroke:#464646;stroke-dasharray:6.000000,6.000000;stroke-dashoffset:0.0;stroke-width:1.5;"/>
   </g>
   <g id="line2d_44">
    <path clip-path="url(#pf906d5d462)" d="
M484.627 317.246
L484.591 316.996
L484.511 316.745
L484.356 316.495
L484.088 316.244
L483.67 315.994
L483.079 315.744
L482.306 315.493
L481.336 315.243
L480.13 314.992
L478.603 314.742
L476.646 314.491
L474.178 314.241
L471.205 313.99
L467.863 313.74
L464.389 313.49
L461.059 313.239
L458.101 312.989
L455.642 312.738
L453.719 312.488
L452.327 312.237
L451.469 311.987
L451.17 311.737
L451.458 311.486
L452.33 311.236
L453.739 310.985
L455.59 310.735
L457.745 310.484
L460.041 310.234
L462.297 309.984
L464.347 309.733
L466.065 309.483
L467.4 309.232
L468.389 308.982
L469.139 308.731
L469.786 308.481
L470.454 308.231
L471.221 307.98
L472.118 307.73
L473.131 307.479
L474.216 307.229
L475.311 306.978
L476.346 306.728
L477.262 306.478
L478.01 306.227
L478.564 305.977
L478.92 305.726
L479.105 305.476
L479.174 305.225
L479.209 304.975
L479.298 304.724
L479.506 304.474
L479.856 304.224
L480.323 303.973
L480.852 303.723
L481.383 303.472
L481.871 303.222
L482.293 302.971
L482.65 302.721
L482.957 302.471
L483.231 302.22
L483.485 301.97
L483.715 301.719
L483.912 301.469
L484.057 301.218
L484.144 300.968
L484.176 300.718
L484.171 300.467
L484.158 300.217
L484.162 299.966
L484.198 299.716
L484.265 299.465
L484.351 299.215
L484.437 298.965
L484.506 298.714
L484.546 298.464
L484.551 298.213
L484.519 297.963
L484.452 297.712
L484.357 297.462
L484.248 297.212
L484.147 296.961
L484.076 296.711
L484.051 296.46
L484.074 296.21
L484.136 295.959
L484.218 295.709
L484.303 295.459
L484.378 295.208
L484.438 294.958
L484.485 294.707
L484.523 294.457
L484.556 294.206
L484.584 293.956
L484.608 293.705
L484.625 293.455
L484.637 293.205
L484.644 292.954
L484.647 292.704
L484.649 292.453" style="fill:none;stroke:#464646;stroke-linecap:round;stroke-width:1.5;"/>
   </g>
   <g id="line2d_45">
    <path clip-path="url(#pf906d5d462)" d="
M484.673 317.246
L484.709 316.996
L484.789 316.745
L484.944 316.495
L485.212 316.244
L485.63 315.994
L486.221 315.744
L486.994 315.493
L487.964 315.243
L489.17 314.992
L490.697 314.742
L492.654 314.491
L495.122 314.241
L498.095 313.99
L501.437 313.74
L504.911 313.49
L508.241 313.239
L511.199 312.989
L513.658 312.738
L515.581 312.488
L516.973 312.237
L517.831 311.987
L518.13 311.737
L517.842 311.486
L516.97 311.236
L515.561 310.985
L513.71 310.735
L511.555 310.484
L509.259 310.234
L507.003 309.984
L504.953 309.733
L503.235 309.483
L501.9 309.232
L500.911 308.982
L500.161 308.731
L499.514 308.481
L498.846 308.231
L498.079 307.98
L497.182 307.73
L496.169 307.479
L495.084 307.229
L493.989 306.978
L492.954 306.728
L492.038 306.478
L491.29 306.227
L490.736 305.977
L490.38 305.726
L490.195 305.476
L490.126 305.225
L490.091 304.975
L490.002 304.724
L489.794 304.474
L489.444 304.224
L488.977 303.973
L488.448 303.723
L487.917 303.472
L487.429 303.222
L487.007 302.971
L486.65 302.721
L486.343 302.471
L486.069 302.22
L485.815 301.97
L485.585 301.719
L485.388 301.469
L485.243 301.218
L485.156 300.968
L485.124 300.718
L485.129 300.467
L485.142 300.217
L485.138 299.966
L485.102 299.716
L485.035 299.465
L484.949 299.215
L484.863 298.965
L484.794 298.714
L484.754 298.464
L484.749 298.213
L484.781 297.963
L484.848 297.712
L484.943 297.462
L485.052 297.212
L485.153 296.961
L485.224 296.711
L485.249 296.46
L485.226 296.21
L485.164 295.959
L485.082 295.709
L484.997 295.459
L484.922 295.208
L484.862 294.958
L484.815 294.707
L484.777 294.457
L484.744 294.206
L484.716 293.956
L484.692 293.705
L484.675 293.455
L484.663 293.205
L484.656 292.954
L484.653 292.704
L484.651 292.453" style="fill:none;stroke:#464646;stroke-linecap:round;stroke-width:1.5;"/>
   </g>
   <g id="line2d_46">
    <path clip-path="url(#pf906d5d462)" d="
M535.624 309.071
L601.076 309.071" style="fill:none;stroke:#464646;stroke-dasharray:1.000000,3.000000;stroke-dashoffset:0.0;stroke-width:1.5;"/>
   </g>
   <g id="line2d_47">
    <path clip-path="url(#pf906d5d462)" d="
M552.512 299.67
L584.188 299.67" style="fill:none;stroke:#464646;stroke-dasharray:1.000000,3.000000;stroke-dashoffset:0.0;stroke-width:1.5;"/>
   </g>
   <g id="line2d_48">
    <path clip-path="url(#pf906d5d462)" d="
M537.435 305.367
L599.265 305.367" style="fill:none;stroke:#464646;stroke-dasharray:6.000000,6.000000;stroke-dashoffset:0.0;stroke-width:1.5;"/>
   </g>
   <g id="line2d_49">
    <path clip-path="url(#pf906d5d462)" d="
M568.344 321.714
L568.32 320.59
L568.226 319.465
L567.927 318.341
L567.128 317.216
L565.353 316.091
L562.077 314.967
L557.076 313.842
L550.809 312.718
L544.436 311.593
L539.271 310.468
L536.087 309.344
L534.87 308.219
L535.158 307.095
L536.453 305.97
L538.412 304.845
L540.903 303.721
L543.922 302.596
L547.336 301.472
L550.716 300.347
L553.552 299.222
L555.638 298.098
L557.155 296.973
L558.418 295.849
L559.62 294.724
L560.785 293.6
L561.87 292.475
L562.841 291.35
L563.666 290.226
L564.312 289.101
L564.755 287.977
L565.02 286.852
L565.18 285.727
L565.324 284.603
L565.5 283.478
L565.702 282.354
L565.899 281.229
L566.069 280.104
L566.225 278.98
L566.421 277.855
L566.702 276.731
L567.036 275.606
L567.332 274.481
L567.523 273.357
L567.625 272.232
L567.707 271.108
L567.815 269.983
L567.945 268.858
L568.068 267.734
L568.159 266.609
L568.212 265.485
L568.235 264.36
L568.243 263.235
L568.249 262.111
L568.255 260.986
L568.257 259.862
L568.255 258.737
L568.259 257.612
L568.275 256.488
L568.3 255.363
L568.324 254.239
L568.339 253.114
L568.346 251.99
L568.349 250.865
L568.35 249.74
L568.35 248.616
L568.35 247.491
L568.35 246.367
L568.35 245.242
L568.35 244.117
L568.35 242.993
L568.35 241.868
L568.35 240.744
L568.35 239.619
L568.35 238.494
L568.35 237.37
L568.35 236.245
L568.35 235.121
L568.35 233.996
L568.35 232.871
L568.349 231.747
L568.348 230.622
L568.343 229.498
L568.331 228.373
L568.31 227.248
L568.285 226.124
L568.268 224.999
L568.267 223.875
L568.282 222.75
L568.298 221.625
L568.301 220.501
L568.289 219.376
L568.272 218.252
L568.265 217.127
L568.277 216.002
L568.3 214.878
L568.323 213.753
L568.339 212.629
L568.346 211.504
L568.349 210.379" style="fill:none;stroke:#464646;stroke-linecap:round;stroke-width:1.5;"/>
   </g>
   <g id="line2d_50">
    <path clip-path="url(#pf906d5d462)" d="
M568.356 321.714
L568.38 320.59
L568.474 319.465
L568.773 318.341
L569.572 317.216
L571.347 316.091
L574.623 314.967
L579.624 313.842
L585.891 312.718
L592.264 311.593
L597.429 310.468
L600.613 309.344
L601.83 308.219
L601.542 307.095
L600.247 305.97
L598.288 304.845
L595.797 303.721
L592.778 302.596
L589.364 301.472
L585.984 300.347
L583.148 299.222
L581.062 298.098
L579.545 296.973
L578.282 295.849
L577.08 294.724
L575.915 293.6
L574.83 292.475
L573.859 291.35
L573.034 290.226
L572.388 289.101
L571.945 287.977
L571.68 286.852
L571.52 285.727
L571.376 284.603
L571.2 283.478
L570.998 282.354
L570.801 281.229
L570.631 280.104
L570.475 278.98
L570.279 277.855
L569.998 276.731
L569.664 275.606
L569.368 274.481
L569.177 273.357
L569.075 272.232
L568.993 271.108
L568.885 269.983
L568.755 268.858
L568.632 267.734
L568.541 266.609
L568.488 265.485
L568.465 264.36
L568.457 263.235
L568.451 262.111
L568.445 260.986
L568.443 259.862
L568.445 258.737
L568.441 257.612
L568.425 256.488
L568.4 255.363
L568.376 254.239
L568.361 253.114
L568.354 251.99
L568.351 250.865
L568.35 249.74
L568.35 248.616
L568.35 247.491
L568.35 246.367
L568.35 245.242
L568.35 244.117
L568.35 242.993
L568.35 241.868
L568.35 240.744
L568.35 239.619
L568.35 238.494
L568.35 237.37
L568.35 236.245
L568.35 235.121
L568.35 233.996
L568.35 232.871
L568.351 231.747
L568.352 230.622
L568.357 229.498
L568.369 228.373
L568.39 227.248
L568.415 226.124
L568.432 224.999
L568.433 223.875
L568.418 222.75
L568.402 221.625
L568.399 220.501
L568.411 219.376
L568.428 218.252
L568.435 217.127
L568.423 216.002
L568.4 214.878
L568.377 213.753
L568.361 212.629
L568.354 211.504
L568.351 210.379" style="fill:none;stroke:#464646;stroke-linecap:round;stroke-width:1.5;"/>
   </g>
   <g id="line2d_51">
    <path clip-path="url(#pf906d5d462)" d="
M620.906 284.751
L683.194 284.751" style="fill:none;stroke:#464646;stroke-dasharray:1.000000,3.000000;stroke-dashoffset:0.0;stroke-width:1.5;"/>
   </g>
   <g id="line2d_52">
    <path clip-path="url(#pf906d5d462)" d="
M627.578 263.554
L676.522 263.554" style="fill:none;stroke:#464646;stroke-dasharray:1.000000,3.000000;stroke-dashoffset:0.0;stroke-width:1.5;"/>
   </g>
   <g id="line2d_53">
    <path clip-path="url(#pf906d5d462)" d="
M619.542 275.227
L684.558 275.227" style="fill:none;stroke:#464646;stroke-dasharray:6.000000,6.000000;stroke-dashoffset:0.0;stroke-width:1.5;"/>
   </g>
   <g id="line2d_54">
    <path clip-path="url(#pf906d5d462)" d="
M652.045 313.133
L652.038 312.146
L652.023 311.159
L651.993 310.173
L651.936 309.186
L651.834 308.199
L651.665 307.212
L651.396 306.225
L650.991 305.238
L650.408 304.251
L649.607 303.264
L648.55 302.277
L647.21 301.29
L645.583 300.304
L643.689 299.317
L641.583 298.33
L639.347 297.343
L637.087 296.356
L634.906 295.369
L632.896 294.382
L631.111 293.395
L629.562 292.408
L628.22 291.421
L627.027 290.435
L625.917 289.448
L624.837 288.461
L623.756 287.474
L622.68 286.487
L621.64 285.5
L620.687 284.513
L619.873 283.526
L619.24 282.539
L618.813 281.552
L618.597 280.566
L618.57 279.579
L618.692 278.592
L618.909 277.605
L619.167 276.618
L619.433 275.631
L619.704 274.644
L620.016 273.657
L620.433 272.67
L621.015 271.683
L621.791 270.697
L622.733 269.71
L623.763 268.723
L624.773 267.736
L625.667 266.749
L626.397 265.762
L626.974 264.775
L627.465 263.788
L627.959 262.801
L628.539 261.814
L629.258 260.828
L630.132 259.841
L631.147 258.854
L632.274 257.867
L633.484 256.88
L634.749 255.893
L636.043 254.906
L637.345 253.919
L638.635 252.932
L639.898 251.945
L641.127 250.959
L642.319 249.972
L643.469 248.985
L644.567 247.998
L645.594 247.011
L646.521 246.024
L647.322 245.037
L647.975 244.05
L648.47 243.063
L648.817 242.076
L649.036 241.09
L649.159 240.103
L649.224 239.116
L649.266 238.129
L649.314 237.142
L649.392 236.155
L649.516 235.168
L649.692 234.181
L649.917 233.194
L650.177 232.207
L650.454 231.221
L650.728 230.234
L650.982 229.247
L651.204 228.26
L651.392 227.273
L651.547 226.286
L651.673 225.299
L651.774 224.312
L651.855 223.325
L651.917 222.338
L651.964 221.352
L651.997 220.365
L652.02 219.378
L652.034 218.391
L652.042 217.404
L652.046 216.417
L652.048 215.43" style="fill:none;stroke:#464646;stroke-linecap:round;stroke-width:1.5;"/>
   </g>
   <g id="line2d_55">
    <path clip-path="url(#pf906d5d462)" d="
M652.055 313.133
L652.062 312.146
L652.077 311.159
L652.107 310.173
L652.164 309.186
L652.266 308.199
L652.435 307.212
L652.704 306.225
L653.109 305.238
L653.692 304.251
L654.493 303.264
L655.55 302.277
L656.89 301.29
L658.517 300.304
L660.411 299.317
L662.517 298.33
L664.753 297.343
L667.013 296.356
L669.194 295.369
L671.204 294.382
L672.989 293.395
L674.538 292.408
L675.88 291.421
L677.073 290.435
L678.183 289.448
L679.263 288.461
L680.344 287.474
L681.42 286.487
L682.46 285.5
L683.413 284.513
L684.227 283.526
L684.86 282.539
L685.287 281.552
L685.503 280.566
L685.53 279.579
L685.408 278.592
L685.191 277.605
L684.933 276.618
L684.667 275.631
L684.396 274.644
L684.084 273.657
L683.667 272.67
L683.085 271.683
L682.309 270.697
L681.367 269.71
L680.337 268.723
L679.327 267.736
L678.433 266.749
L677.703 265.762
L677.126 264.775
L676.635 263.788
L676.141 262.801
L675.561 261.814
L674.842 260.828
L673.968 259.841
L672.953 258.854
L671.826 257.867
L670.616 256.88
L669.351 255.893
L668.057 254.906
L666.755 253.919
L665.465 252.932
L664.202 251.945
L662.973 250.959
L661.781 249.972
L660.631 248.985
L659.533 247.998
L658.506 247.011
L657.579 246.024
L656.778 245.037
L656.125 244.05
L655.63 243.063
L655.283 242.076
L655.064 241.09
L654.941 240.103
L654.876 239.116
L654.834 238.129
L654.786 237.142
L654.708 236.155
L654.584 235.168
L654.408 234.181
L654.183 233.194
L653.923 232.207
L653.646 231.221
L653.372 230.234
L653.118 229.247
L652.896 228.26
L652.708 227.273
L652.553 226.286
L652.427 225.299
L652.326 224.312
L652.245 223.325
L652.183 222.338
L652.136 221.352
L652.103 220.365
L652.08 219.378
L652.066 218.391
L652.058 217.404
L652.054 216.417
L652.052 215.43" style="fill:none;stroke:#464646;stroke-linecap:round;stroke-width:1.5;"/>
   </g>
   <g id="line2d_56">
    <path clip-path="url(#pf906d5d462)" d="
M705.442 280.625
L766.058 280.625" style="fill:none;stroke:#464646;stroke-dasharray:1.000000,3.000000;stroke-dashoffset:0.0;stroke-width:1.5;"/>
   </g>
   <g id="line2d_57">
    <path clip-path="url(#pf906d5d462)" d="
M716.805 245.24
L754.695 245.24" style="fill:none;stroke:#464646;stroke-dasharray:1.000000,3.000000;stroke-dashoffset:0.0;stroke-width:1.5;"/>
   </g>
   <g id="line2d_58">
    <path clip-path="url(#pf906d5d462)" d="
M705.003 265.754
L766.497 265.754" style="fill:none;stroke:#464646;stroke-dasharray:6.000000,6.000000;stroke-dashoffset:0.0;stroke-width:1.5;"/>
   </g>
   <g id="line2d_59">
    <path clip-path="url(#pf906d5d462)" d="
M735.748 328.254
L735.745 326.623
L735.738 324.992
L735.723 323.361
L735.693 321.729
L735.635 320.098
L735.525 318.467
L735.331 316.836
L735.005 315.205
L734.485 313.574
L733.705 311.943
L732.607 310.312
L731.159 308.681
L729.378 307.05
L727.34 305.419
L725.178 303.788
L723.056 302.157
L721.132 300.526
L719.515 298.895
L718.236 297.263
L717.239 295.632
L716.406 294.001
L715.591 292.37
L714.665 290.739
L713.545 289.108
L712.205 287.477
L710.673 285.846
L709.019 284.215
L707.338 282.584
L705.743 280.953
L704.347 279.322
L703.258 277.691
L702.554 276.06
L702.27 274.429
L702.383 272.798
L702.813 271.166
L703.44 269.535
L704.137 267.904
L704.805 266.273
L705.405 264.642
L705.962 263.011
L706.551 261.38
L707.264 259.749
L708.168 258.118
L709.281 256.487
L710.558 254.856
L711.907 253.225
L713.218 251.594
L714.397 249.963
L715.391 248.332
L716.201 246.7
L716.871 245.069
L717.465 243.438
L718.041 241.807
L718.626 240.176
L719.219 238.545
L719.792 236.914
L720.311 235.283
L720.755 233.652
L721.125 232.021
L721.449 230.39
L721.769 228.759
L722.138 227.128
L722.602 225.497
L723.193 223.866
L723.924 222.234
L724.788 220.603
L725.757 218.972
L726.789 217.341
L727.834 215.71
L728.84 214.079
L729.767 212.448
L730.583 210.817
L731.277 209.186
L731.853 207.555
L732.331 205.924
L732.735 204.293
L733.089 202.662
L733.413 201.031
L733.719 199.4
L734.009 197.769
L734.281 196.137
L734.53 194.506
L734.75 192.875
L734.938 191.244
L735.096 189.613
L735.226 187.982
L735.333 186.351
L735.421 184.72
L735.496 183.089
L735.559 181.458
L735.612 179.827
L735.654 178.196
L735.687 176.565
L735.711 174.934
L735.727 173.303
L735.737 171.671
L735.743 170.04
L735.747 168.409
L735.749 166.778" style="fill:none;stroke:#464646;stroke-linecap:round;stroke-width:1.5;"/>
   </g>
   <g id="line2d_60">
    <path clip-path="url(#pf906d5d462)" d="
M735.752 328.254
L735.755 326.623
L735.762 324.992
L735.777 323.361
L735.807 321.729
L735.865 320.098
L735.975 318.467
L736.169 316.836
L736.495 315.205
L737.015 313.574
L737.795 311.943
L738.893 310.312
L740.341 308.681
L742.122 307.05
L744.16 305.419
L746.322 303.788
L748.444 302.157
L750.368 300.526
L751.985 298.895
L753.264 297.263
L754.261 295.632
L755.094 294.001
L755.909 292.37
L756.835 290.739
L757.955 289.108
L759.295 287.477
L760.827 285.846
L762.481 284.215
L764.162 282.584
L765.757 280.953
L767.153 279.322
L768.242 277.691
L768.946 276.06
L769.23 274.429
L769.117 272.798
L768.687 271.166
L768.06 269.535
L767.363 267.904
L766.695 266.273
L766.095 264.642
L765.538 263.011
L764.949 261.38
L764.236 259.749
L763.332 258.118
L762.219 256.487
L760.942 254.856
L759.593 253.225
L758.282 251.594
L757.103 249.963
L756.109 248.332
L755.299 246.7
L754.629 245.069
L754.035 243.438
L753.459 241.807
L752.874 240.176
L752.281 238.545
L751.708 236.914
L751.189 235.283
L750.745 233.652
L750.375 232.021
L750.051 230.39
L749.731 228.759
L749.362 227.128
L748.898 225.497
L748.307 223.866
L747.576 222.234
L746.712 220.603
L745.743 218.972
L744.711 217.341
L743.666 215.71
L742.66 214.079
L741.733 212.448
L740.917 210.817
L740.223 209.186
L739.647 207.555
L739.169 205.924
L738.765 204.293
L738.411 202.662
L738.087 201.031
L737.781 199.4
L737.491 197.769
L737.219 196.137
L736.97 194.506
L736.75 192.875
L736.562 191.244
L736.404 189.613
L736.274 187.982
L736.167 186.351
L736.079 184.72
L736.004 183.089
L735.941 181.458
L735.888 179.827
L735.846 178.196
L735.813 176.565
L735.789 174.934
L735.773 173.303
L735.763 171.671
L735.757 170.04
L735.753 168.409
L735.751 166.778" style="fill:none;stroke:#464646;stroke-linecap:round;stroke-width:1.5;"/>
   </g>
   <g id="patch_3">
    <path d="
M108 315
L777.6 315" style="fill:none;stroke:#000000;stroke-linecap:square;stroke-linejoin:miter;"/>
   </g>
   <g id="patch_4">
    <path d="
M108 315
L108 36" style="fill:none;stroke:#000000;stroke-linecap:square;stroke-linejoin:miter;"/>
   </g>
  </g>
 </g>
 <defs>
  <clipPath id="pf906d5d462">
   <rect height="279.0" width="669.6" x="108.0" y="36.0"/>
  </clipPath>
 </defs>
</svg>
