<?xml version="1.0" encoding="utf-8" standalone="no"?>
<!DOCTYPE svg PUBLIC "-//W3C//DTD SVG 1.1//EN"
  "http://www.w3.org/Graphics/SVG/1.1/DTD/svg11.dtd">
<!-- Created with matplotlib (http://matplotlib.org/) -->
<svg height="360pt" version="1.1" viewBox="0 0 864 360" width="864pt" xmlns="http://www.w3.org/2000/svg" xmlns:xlink="http://www.w3.org/1999/xlink">
 <defs>
  <style type="text/css">
*{stroke-linecap:butt;stroke-linejoin:round;}
  </style>
 </defs>
 <g id="figure_1">
  <g id="patch_1">
   <path d="
M0 360
L864 360
L864 0
L0 0
z
" style="fill:#ffffff;"/>
  </g>
  <g id="axes_1">
   <g id="patch_2">
    <path d="
M108 315
L777.6 315
L777.6 36
L108 36
z
" style="fill:#ffffff;"/>
   </g>
   <g id="matplotlib.axis_1">
    <g id="xtick_1">
     <g id="line2d_1">
      <defs>
       <path d="
M0 0
L0 0" id="m48243eeccc" style="stroke:#000000;stroke-width:0.5;"/>
      </defs>
      <g>
       <use style="stroke:#000000;stroke-width:0.5;" x="149.85" xlink:href="#m48243eeccc" y="315.0"/>
      </g>
     </g>
     <g id="text_1">
      <!-- cap_debt -->
      <defs>
       <path d="
M50.9844 -16.6094
L50.9844 -23.5781
L-0.984375 -23.5781
L-0.984375 -16.6094
z
" id="BitstreamVeraSans-Roman-5f"/>
       <path d="
M48.7812 52.5938
L48.7812 44.1875
Q44.9688 46.2969 41.1406 47.3438
Q37.3125 48.3906 33.4062 48.3906
Q24.6562 48.3906 19.8125 42.8438
Q14.9844 37.3125 14.9844 27.2969
Q14.9844 17.2812 19.8125 11.7344
Q24.6562 6.20312 33.4062 6.20312
Q37.3125 6.20312 41.1406 7.25
Q44.9688 8.29688 48.7812 10.4062
L48.7812 2.09375
Q45.0156 0.34375 40.9844 -0.53125
Q36.9688 -1.42188 32.4219 -1.42188
Q20.0625 -1.42188 12.7812 6.34375
Q5.51562 14.1094 5.51562 27.2969
Q5.51562 40.6719 12.8594 48.3281
Q20.2188 56 33.0156 56
Q37.1562 56 41.1094 55.1406
Q45.0625 54.2969 48.7812 52.5938" id="BitstreamVeraSans-Roman-63"/>
       <path d="
M56.2031 29.5938
L56.2031 25.2031
L14.8906 25.2031
Q15.4844 15.9219 20.4844 11.0625
Q25.4844 6.20312 34.4219 6.20312
Q39.5938 6.20312 44.4531 7.46875
Q49.3125 8.73438 54.1094 11.2812
L54.1094 2.78125
Q49.2656 0.734375 44.1875 -0.34375
Q39.1094 -1.42188 33.8906 -1.42188
Q20.7969 -1.42188 13.1562 6.1875
Q5.51562 13.8125 5.51562 26.8125
Q5.51562 40.2344 12.7656 48.1094
Q20.0156 56 32.3281 56
Q43.3594 56 49.7812 48.8906
Q56.2031 41.7969 56.2031 29.5938
M47.2188 32.2344
Q47.125 39.5938 43.0938 43.9844
Q39.0625 48.3906 32.4219 48.3906
Q24.9062 48.3906 20.3906 44.1406
Q15.875 39.8906 15.1875 32.1719
z
" id="BitstreamVeraSans-Roman-65"/>
       <path d="
M45.4062 46.3906
L45.4062 75.9844
L54.3906 75.9844
L54.3906 0
L45.4062 0
L45.4062 8.20312
Q42.5781 3.32812 38.25 0.953125
Q33.9375 -1.42188 27.875 -1.42188
Q17.9688 -1.42188 11.7344 6.48438
Q5.51562 14.4062 5.51562 27.2969
Q5.51562 40.1875 11.7344 48.0938
Q17.9688 56 27.875 56
Q33.9375 56 38.25 53.625
Q42.5781 51.2656 45.4062 46.3906
M14.7969 27.2969
Q14.7969 17.3906 18.875 11.75
Q22.9531 6.10938 30.0781 6.10938
Q37.2031 6.10938 41.2969 11.75
Q45.4062 17.3906 45.4062 27.2969
Q45.4062 37.2031 41.2969 42.8438
Q37.2031 48.4844 30.0781 48.4844
Q22.9531 48.4844 18.875 42.8438
Q14.7969 37.2031 14.7969 27.2969" id="BitstreamVeraSans-Roman-64"/>
       <path d="
M18.3125 70.2188
L18.3125 54.6875
L36.8125 54.6875
L36.8125 47.7031
L18.3125 47.7031
L18.3125 18.0156
Q18.3125 11.3281 20.1406 9.42188
Q21.9688 7.51562 27.5938 7.51562
L36.8125 7.51562
L36.8125 0
L27.5938 0
Q17.1875 0 13.2344 3.875
Q9.28125 7.76562 9.28125 18.0156
L9.28125 47.7031
L2.6875 47.7031
L2.6875 54.6875
L9.28125 54.6875
L9.28125 70.2188
z
" id="BitstreamVeraSans-Roman-74"/>
       <path d="
M34.2812 27.4844
Q23.3906 27.4844 19.1875 25
Q14.9844 22.5156 14.9844 16.5
Q14.9844 11.7188 18.1406 8.90625
Q21.2969 6.10938 26.7031 6.10938
Q34.1875 6.10938 38.7031 11.4062
Q43.2188 16.7031 43.2188 25.4844
L43.2188 27.4844
z

M52.2031 31.2031
L52.2031 0
L43.2188 0
L43.2188 8.29688
Q40.1406 3.32812 35.5469 0.953125
Q30.9531 -1.42188 24.3125 -1.42188
Q15.9219 -1.42188 10.9531 3.29688
Q6 8.01562 6 15.9219
Q6 25.1406 12.1719 29.8281
Q18.3594 34.5156 30.6094 34.5156
L43.2188 34.5156
L43.2188 35.4062
Q43.2188 41.6094 39.1406 45
Q35.0625 48.3906 27.6875 48.3906
Q23 48.3906 18.5469 47.2656
Q14.1094 46.1406 10.0156 43.8906
L10.0156 52.2031
Q14.9375 54.1094 19.5781 55.0469
Q24.2188 56 28.6094 56
Q40.4844 56 46.3438 49.8438
Q52.2031 43.7031 52.2031 31.2031" id="BitstreamVeraSans-Roman-61"/>
       <path d="
M18.1094 8.20312
L18.1094 -20.7969
L9.07812 -20.7969
L9.07812 54.6875
L18.1094 54.6875
L18.1094 46.3906
Q20.9531 51.2656 25.2656 53.625
Q29.5938 56 35.5938 56
Q45.5625 56 51.7812 48.0938
Q58.0156 40.1875 58.0156 27.2969
Q58.0156 14.4062 51.7812 6.48438
Q45.5625 -1.42188 35.5938 -1.42188
Q29.5938 -1.42188 25.2656 0.953125
Q20.9531 3.32812 18.1094 8.20312
M48.6875 27.2969
Q48.6875 37.2031 44.6094 42.8438
Q40.5312 48.4844 33.4062 48.4844
Q26.2656 48.4844 22.1875 42.8438
Q18.1094 37.2031 18.1094 27.2969
Q18.1094 17.3906 22.1875 11.75
Q26.2656 6.10938 33.4062 6.10938
Q40.5312 6.10938 44.6094 11.75
Q48.6875 17.3906 48.6875 27.2969" id="BitstreamVeraSans-Roman-70"/>
       <path d="
M48.6875 27.2969
Q48.6875 37.2031 44.6094 42.8438
Q40.5312 48.4844 33.4062 48.4844
Q26.2656 48.4844 22.1875 42.8438
Q18.1094 37.2031 18.1094 27.2969
Q18.1094 17.3906 22.1875 11.75
Q26.2656 6.10938 33.4062 6.10938
Q40.5312 6.10938 44.6094 11.75
Q48.6875 17.3906 48.6875 27.2969
M18.1094 46.3906
Q20.9531 51.2656 25.2656 53.625
Q29.5938 56 35.5938 56
Q45.5625 56 51.7812 48.0938
Q58.0156 40.1875 58.0156 27.2969
Q58.0156 14.4062 51.7812 6.48438
Q45.5625 -1.42188 35.5938 -1.42188
Q29.5938 -1.42188 25.2656 0.953125
Q20.9531 3.32812 18.1094 8.20312
L18.1094 0
L9.07812 0
L9.07812 75.9844
L18.1094 75.9844
z
" id="BitstreamVeraSans-Roman-62"/>
      </defs>
      <g transform="translate(127.37265625 329.5984375)scale(0.1 -0.1)">
       <use xlink:href="#BitstreamVeraSans-Roman-63"/>
       <use x="54.98046875" xlink:href="#BitstreamVeraSans-Roman-61"/>
       <use x="116.259765625" xlink:href="#BitstreamVeraSans-Roman-70"/>
       <use x="179.736328125" xlink:href="#BitstreamVeraSans-Roman-5f"/>
       <use x="229.736328125" xlink:href="#BitstreamVeraSans-Roman-64"/>
       <use x="293.212890625" xlink:href="#BitstreamVeraSans-Roman-65"/>
       <use x="354.736328125" xlink:href="#BitstreamVeraSans-Roman-62"/>
       <use x="418.212890625" xlink:href="#BitstreamVeraSans-Roman-74"/>
      </g>
     </g>
    </g>
    <g id="xtick_2">
     <g id="line2d_2">
      <g>
       <use style="stroke:#000000;stroke-width:0.5;" x="233.55" xlink:href="#m48243eeccc" y="315.0"/>
      </g>
     </g>
     <g id="text_2">
      <!-- gen_gov -->
      <defs>
       <path d="
M54.8906 33.0156
L54.8906 0
L45.9062 0
L45.9062 32.7188
Q45.9062 40.4844 42.875 44.3281
Q39.8438 48.1875 33.7969 48.1875
Q26.5156 48.1875 22.3125 43.5469
Q18.1094 38.9219 18.1094 30.9062
L18.1094 0
L9.07812 0
L9.07812 54.6875
L18.1094 54.6875
L18.1094 46.1875
Q21.3438 51.125 25.7031 53.5625
Q30.0781 56 35.7969 56
Q45.2188 56 50.0469 50.1719
Q54.8906 44.3438 54.8906 33.0156" id="BitstreamVeraSans-Roman-6e"/>
       <path d="
M2.98438 54.6875
L12.5 54.6875
L29.5938 8.79688
L46.6875 54.6875
L56.2031 54.6875
L35.6875 0
L23.4844 0
z
" id="BitstreamVeraSans-Roman-76"/>
       <path d="
M45.4062 27.9844
Q45.4062 37.75 41.375 43.1094
Q37.3594 48.4844 30.0781 48.4844
Q22.8594 48.4844 18.8281 43.1094
Q14.7969 37.75 14.7969 27.9844
Q14.7969 18.2656 18.8281 12.8906
Q22.8594 7.51562 30.0781 7.51562
Q37.3594 7.51562 41.375 12.8906
Q45.4062 18.2656 45.4062 27.9844
M54.3906 6.78125
Q54.3906 -7.17188 48.1875 -13.9844
Q42 -20.7969 29.2031 -20.7969
Q24.4688 -20.7969 20.2656 -20.0938
Q16.0625 -19.3906 12.1094 -17.9219
L12.1094 -9.1875
Q16.0625 -11.3281 19.9219 -12.3438
Q23.7812 -13.375 27.7812 -13.375
Q36.625 -13.375 41.0156 -8.76562
Q45.4062 -4.15625 45.4062 5.17188
L45.4062 9.625
Q42.625 4.78125 38.2812 2.39062
Q33.9375 0 27.875 0
Q17.8281 0 11.6719 7.65625
Q5.51562 15.3281 5.51562 27.9844
Q5.51562 40.6719 11.6719 48.3281
Q17.8281 56 27.875 56
Q33.9375 56 38.2812 53.6094
Q42.625 51.2188 45.4062 46.3906
L45.4062 54.6875
L54.3906 54.6875
z
" id="BitstreamVeraSans-Roman-67"/>
       <path d="
M30.6094 48.3906
Q23.3906 48.3906 19.1875 42.75
Q14.9844 37.1094 14.9844 27.2969
Q14.9844 17.4844 19.1562 11.8438
Q23.3438 6.20312 30.6094 6.20312
Q37.7969 6.20312 41.9844 11.8594
Q46.1875 17.5312 46.1875 27.2969
Q46.1875 37.0156 41.9844 42.7031
Q37.7969 48.3906 30.6094 48.3906
M30.6094 56
Q42.3281 56 49.0156 48.375
Q55.7188 40.7656 55.7188 27.2969
Q55.7188 13.875 49.0156 6.21875
Q42.3281 -1.42188 30.6094 -1.42188
Q18.8438 -1.42188 12.1719 6.21875
Q5.51562 13.875 5.51562 27.2969
Q5.51562 40.7656 12.1719 48.375
Q18.8438 56 30.6094 56" id="BitstreamVeraSans-Roman-6f"/>
      </defs>
      <g transform="translate(212.8625 329.3203125)scale(0.1 -0.1)">
       <use xlink:href="#BitstreamVeraSans-Roman-67"/>
       <use x="63.4765625" xlink:href="#BitstreamVeraSans-Roman-65"/>
       <use x="125.0" xlink:href="#BitstreamVeraSans-Roman-6e"/>
       <use x="188.37890625" xlink:href="#BitstreamVeraSans-Roman-5f"/>
       <use x="238.37890625" xlink:href="#BitstreamVeraSans-Roman-67"/>
       <use x="301.85546875" xlink:href="#BitstreamVeraSans-Roman-6f"/>
       <use x="363.037109375" xlink:href="#BitstreamVeraSans-Roman-76"/>
      </g>
     </g>
    </g>
    <g id="xtick_3">
     <g id="line2d_3">
      <g>
       <use style="stroke:#000000;stroke-width:0.5;" x="317.25" xlink:href="#m48243eeccc" y="315.0"/>
      </g>
     </g>
     <g id="text_3">
      <!-- hss -->
      <defs>
       <path d="
M54.8906 33.0156
L54.8906 0
L45.9062 0
L45.9062 32.7188
Q45.9062 40.4844 42.875 44.3281
Q39.8438 48.1875 33.7969 48.1875
Q26.5156 48.1875 22.3125 43.5469
Q18.1094 38.9219 18.1094 30.9062
L18.1094 0
L9.07812 0
L9.07812 75.9844
L18.1094 75.9844
L18.1094 46.1875
Q21.3438 51.125 25.7031 53.5625
Q30.0781 56 35.7969 56
Q45.2188 56 50.0469 50.1719
Q54.8906 44.3438 54.8906 33.0156" id="BitstreamVeraSans-Roman-68"/>
       <path d="
M44.2812 53.0781
L44.2812 44.5781
Q40.4844 46.5312 36.375 47.5
Q32.2812 48.4844 27.875 48.4844
Q21.1875 48.4844 17.8438 46.4375
Q14.5 44.3906 14.5 40.2812
Q14.5 37.1562 16.8906 35.375
Q19.2812 33.5938 26.5156 31.9844
L29.5938 31.2969
Q39.1562 29.25 43.1875 25.5156
Q47.2188 21.7812 47.2188 15.0938
Q47.2188 7.46875 41.1875 3.01562
Q35.1562 -1.42188 24.6094 -1.42188
Q20.2188 -1.42188 15.4531 -0.5625
Q10.6875 0.296875 5.42188 2
L5.42188 11.2812
Q10.4062 8.6875 15.2344 7.39062
Q20.0625 6.10938 24.8125 6.10938
Q31.1562 6.10938 34.5625 8.28125
Q37.9844 10.4531 37.9844 14.4062
Q37.9844 18.0625 35.5156 20.0156
Q33.0625 21.9688 24.7031 23.7812
L21.5781 24.5156
Q13.2344 26.2656 9.51562 29.9062
Q5.8125 33.5469 5.8125 39.8906
Q5.8125 47.6094 11.2812 51.7969
Q16.75 56 26.8125 56
Q31.7812 56 36.1719 55.2656
Q40.5781 54.5469 44.2812 53.0781" id="BitstreamVeraSans-Roman-73"/>
      </defs>
      <g transform="translate(309.56953125 329.5984375)scale(0.1 -0.1)">
       <use xlink:href="#BitstreamVeraSans-Roman-68"/>
       <use x="63.37890625" xlink:href="#BitstreamVeraSans-Roman-73"/>
       <use x="115.478515625" xlink:href="#BitstreamVeraSans-Roman-73"/>
      </g>
     </g>
    </g>
    <g id="xtick_4">
     <g id="line2d_4">
      <g>
       <use style="stroke:#000000;stroke-width:0.5;" x="400.95" xlink:href="#m48243eeccc" y="315.0"/>
      </g>
     </g>
     <g id="text_4">
      <!-- intgovt -->
      <defs>
       <path d="
M9.42188 54.6875
L18.4062 54.6875
L18.4062 0
L9.42188 0
z

M9.42188 75.9844
L18.4062 75.9844
L18.4062 64.5938
L9.42188 64.5938
z
" id="BitstreamVeraSans-Roman-69"/>
      </defs>
      <g transform="translate(383.86953125 329.5984375)scale(0.1 -0.1)">
       <use xlink:href="#BitstreamVeraSans-Roman-69"/>
       <use x="27.783203125" xlink:href="#BitstreamVeraSans-Roman-6e"/>
       <use x="91.162109375" xlink:href="#BitstreamVeraSans-Roman-74"/>
       <use x="130.37109375" xlink:href="#BitstreamVeraSans-Roman-67"/>
       <use x="193.84765625" xlink:href="#BitstreamVeraSans-Roman-6f"/>
       <use x="255.029296875" xlink:href="#BitstreamVeraSans-Roman-76"/>
       <use x="314.208984375" xlink:href="#BitstreamVeraSans-Roman-74"/>
      </g>
     </g>
    </g>
    <g id="xtick_5">
     <g id="line2d_5">
      <g>
       <use style="stroke:#000000;stroke-width:0.5;" x="484.65" xlink:href="#m48243eeccc" y="315.0"/>
      </g>
     </g>
     <g id="text_5">
      <!-- judicial -->
      <defs>
       <path d="
M8.5 21.5781
L8.5 54.6875
L17.4844 54.6875
L17.4844 21.9219
Q17.4844 14.1562 20.5 10.2656
Q23.5312 6.39062 29.5938 6.39062
Q36.8594 6.39062 41.0781 11.0312
Q45.3125 15.6719 45.3125 23.6875
L45.3125 54.6875
L54.2969 54.6875
L54.2969 0
L45.3125 0
L45.3125 8.40625
Q42.0469 3.42188 37.7188 1
Q33.4062 -1.42188 27.6875 -1.42188
Q18.2656 -1.42188 13.375 4.4375
Q8.5 10.2969 8.5 21.5781" id="BitstreamVeraSans-Roman-75"/>
       <path d="
M9.42188 54.6875
L18.4062 54.6875
L18.4062 -0.984375
Q18.4062 -11.4219 14.4219 -16.1094
Q10.4531 -20.7969 1.60938 -20.7969
L-1.8125 -20.7969
L-1.8125 -13.1875
L0.59375 -13.1875
Q5.71875 -13.1875 7.5625 -10.8125
Q9.42188 -8.45312 9.42188 -0.984375
z

M9.42188 75.9844
L18.4062 75.9844
L18.4062 64.5938
L9.42188 64.5938
z
" id="BitstreamVeraSans-Roman-6a"/>
       <path d="
M9.42188 75.9844
L18.4062 75.9844
L18.4062 0
L9.42188 0
z
" id="BitstreamVeraSans-Roman-6c"/>
      </defs>
      <g transform="translate(467.315625 329.5984375)scale(0.1 -0.1)">
       <use xlink:href="#BitstreamVeraSans-Roman-6a"/>
       <use x="27.783203125" xlink:href="#BitstreamVeraSans-Roman-75"/>
       <use x="91.162109375" xlink:href="#BitstreamVeraSans-Roman-64"/>
       <use x="154.638671875" xlink:href="#BitstreamVeraSans-Roman-69"/>
       <use x="182.421875" xlink:href="#BitstreamVeraSans-Roman-63"/>
       <use x="237.40234375" xlink:href="#BitstreamVeraSans-Roman-69"/>
       <use x="265.185546875" xlink:href="#BitstreamVeraSans-Roman-61"/>
       <use x="326.46484375" xlink:href="#BitstreamVeraSans-Roman-6c"/>
      </g>
     </g>
    </g>
    <g id="xtick_6">
     <g id="line2d_6">
      <g>
       <use style="stroke:#000000;stroke-width:0.5;" x="568.35" xlink:href="#m48243eeccc" y="315.0"/>
      </g>
     </g>
     <g id="text_6">
      <!-- misc -->
      <defs>
       <path d="
M52 44.1875
Q55.375 50.25 60.0625 53.125
Q64.75 56 71.0938 56
Q79.6406 56 84.2812 50.0156
Q88.9219 44.0469 88.9219 33.0156
L88.9219 0
L79.8906 0
L79.8906 32.7188
Q79.8906 40.5781 77.0938 44.375
Q74.3125 48.1875 68.6094 48.1875
Q61.625 48.1875 57.5625 43.5469
Q53.5156 38.9219 53.5156 30.9062
L53.5156 0
L44.4844 0
L44.4844 32.7188
Q44.4844 40.625 41.7031 44.4062
Q38.9219 48.1875 33.1094 48.1875
Q26.2188 48.1875 22.1562 43.5312
Q18.1094 38.875 18.1094 30.9062
L18.1094 0
L9.07812 0
L9.07812 54.6875
L18.1094 54.6875
L18.1094 46.1875
Q21.1875 51.2188 25.4844 53.6094
Q29.7812 56 35.6875 56
Q41.6562 56 45.8281 52.9688
Q50 49.9531 52 44.1875" id="BitstreamVeraSans-Roman-6d"/>
      </defs>
      <g transform="translate(557.50078125 329.5984375)scale(0.1 -0.1)">
       <use xlink:href="#BitstreamVeraSans-Roman-6d"/>
       <use x="97.412109375" xlink:href="#BitstreamVeraSans-Roman-69"/>
       <use x="125.1953125" xlink:href="#BitstreamVeraSans-Roman-73"/>
       <use x="177.294921875" xlink:href="#BitstreamVeraSans-Roman-63"/>
      </g>
     </g>
    </g>
    <g id="xtick_7">
     <g id="line2d_7">
      <g>
       <use style="stroke:#000000;stroke-width:0.5;" x="652.05" xlink:href="#m48243eeccc" y="315.0"/>
      </g>
     </g>
     <g id="text_7">
      <!-- pub_safe -->
      <defs>
       <path d="
M37.1094 75.9844
L37.1094 68.5
L28.5156 68.5
Q23.6875 68.5 21.7969 66.5469
Q19.9219 64.5938 19.9219 59.5156
L19.9219 54.6875
L34.7188 54.6875
L34.7188 47.7031
L19.9219 47.7031
L19.9219 0
L10.8906 0
L10.8906 47.7031
L2.29688 47.7031
L2.29688 54.6875
L10.8906 54.6875
L10.8906 58.5
Q10.8906 67.625 15.1406 71.7969
Q19.3906 75.9844 28.6094 75.9844
z
" id="BitstreamVeraSans-Roman-66"/>
      </defs>
      <g transform="translate(630.24765625 329.5984375)scale(0.1 -0.1)">
       <use xlink:href="#BitstreamVeraSans-Roman-70"/>
       <use x="63.4765625" xlink:href="#BitstreamVeraSans-Roman-75"/>
       <use x="126.85546875" xlink:href="#BitstreamVeraSans-Roman-62"/>
       <use x="190.33203125" xlink:href="#BitstreamVeraSans-Roman-5f"/>
       <use x="240.33203125" xlink:href="#BitstreamVeraSans-Roman-73"/>
       <use x="292.431640625" xlink:href="#BitstreamVeraSans-Roman-61"/>
       <use x="353.7109375" xlink:href="#BitstreamVeraSans-Roman-66"/>
       <use x="388.916015625" xlink:href="#BitstreamVeraSans-Roman-65"/>
      </g>
     </g>
    </g>
    <g id="xtick_8">
     <g id="line2d_8">
      <g>
       <use style="stroke:#000000;stroke-width:0.5;" x="735.75" xlink:href="#m48243eeccc" y="315.0"/>
      </g>
     </g>
     <g id="text_8">
      <!-- pub_works -->
      <defs>
       <path d="
M4.20312 54.6875
L13.1875 54.6875
L24.4219 12.0156
L35.5938 54.6875
L46.1875 54.6875
L57.4219 12.0156
L68.6094 54.6875
L77.5938 54.6875
L63.2812 0
L52.6875 0
L40.9219 44.8281
L29.1094 0
L18.5 0
z
" id="BitstreamVeraSans-Roman-77"/>
       <path d="
M41.1094 46.2969
Q39.5938 47.1719 37.8125 47.5781
Q36.0312 48 33.8906 48
Q26.2656 48 22.1875 43.0469
Q18.1094 38.0938 18.1094 28.8125
L18.1094 0
L9.07812 0
L9.07812 54.6875
L18.1094 54.6875
L18.1094 46.1875
Q20.9531 51.1719 25.4844 53.5781
Q30.0312 56 36.5312 56
Q37.4531 56 38.5781 55.875
Q39.7031 55.7656 41.0625 55.5156
z
" id="BitstreamVeraSans-Roman-72"/>
       <path d="
M9.07812 75.9844
L18.1094 75.9844
L18.1094 31.1094
L44.9219 54.6875
L56.3906 54.6875
L27.3906 29.1094
L57.625 0
L45.9062 0
L18.1094 26.7031
L18.1094 0
L9.07812 0
z
" id="BitstreamVeraSans-Roman-6b"/>
      </defs>
      <g transform="translate(709.7265625 329.5984375)scale(0.1 -0.1)">
       <use xlink:href="#BitstreamVeraSans-Roman-70"/>
       <use x="63.4765625" xlink:href="#BitstreamVeraSans-Roman-75"/>
       <use x="126.85546875" xlink:href="#BitstreamVeraSans-Roman-62"/>
       <use x="190.33203125" xlink:href="#BitstreamVeraSans-Roman-5f"/>
       <use x="240.33203125" xlink:href="#BitstreamVeraSans-Roman-77"/>
       <use x="322.119140625" xlink:href="#BitstreamVeraSans-Roman-6f"/>
       <use x="383.30078125" xlink:href="#BitstreamVeraSans-Roman-72"/>
       <use x="424.4140625" xlink:href="#BitstreamVeraSans-Roman-6b"/>
       <use x="482.32421875" xlink:href="#BitstreamVeraSans-Roman-73"/>
      </g>
     </g>
    </g>
    <g id="text_9">
     <!-- Expenditure Subgroup -->
     <defs>
      <path id="BitstreamVeraSans-Roman-20"/>
      <path d="
M9.8125 72.9062
L55.9062 72.9062
L55.9062 64.5938
L19.6719 64.5938
L19.6719 43.0156
L54.3906 43.0156
L54.3906 34.7188
L19.6719 34.7188
L19.6719 8.29688
L56.7812 8.29688
L56.7812 0
L9.8125 0
z
" id="BitstreamVeraSans-Roman-45"/>
      <path d="
M53.5156 70.5156
L53.5156 60.8906
Q47.9062 63.5781 42.9219 64.8906
Q37.9375 66.2188 33.2969 66.2188
Q25.25 66.2188 20.875 63.0938
Q16.5 59.9688 16.5 54.2031
Q16.5 49.3594 19.4062 46.8906
Q22.3125 44.4375 30.4219 42.9219
L36.375 41.7031
Q47.4062 39.5938 52.6562 34.2969
Q57.9062 29 57.9062 20.125
Q57.9062 9.51562 50.7969 4.04688
Q43.7031 -1.42188 29.9844 -1.42188
Q24.8125 -1.42188 18.9688 -0.25
Q13.1406 0.921875 6.89062 3.21875
L6.89062 13.375
Q12.8906 10.0156 18.6562 8.29688
Q24.4219 6.59375 29.9844 6.59375
Q38.4219 6.59375 43.0156 9.90625
Q47.6094 13.2344 47.6094 19.3906
Q47.6094 24.75 44.3125 27.7812
Q41.0156 30.8125 33.5 32.3281
L27.4844 33.5
Q16.4531 35.6875 11.5156 40.375
Q6.59375 45.0625 6.59375 53.4219
Q6.59375 63.0938 13.4062 68.6562
Q20.2188 74.2188 32.1719 74.2188
Q37.3125 74.2188 42.625 73.2812
Q47.9531 72.3594 53.5156 70.5156" id="BitstreamVeraSans-Roman-53"/>
      <path d="
M54.8906 54.6875
L35.1094 28.0781
L55.9062 0
L45.3125 0
L29.3906 21.4844
L13.4844 0
L2.875 0
L24.125 28.6094
L4.6875 54.6875
L15.2812 54.6875
L29.7812 35.2031
L44.2812 54.6875
z
" id="BitstreamVeraSans-Roman-78"/>
     </defs>
     <g transform="translate(381.637421875 345.31453125)scale(0.11 -0.11)">
      <use xlink:href="#BitstreamVeraSans-Roman-45"/>
      <use x="63.18359375" xlink:href="#BitstreamVeraSans-Roman-78"/>
      <use x="122.36328125" xlink:href="#BitstreamVeraSans-Roman-70"/>
      <use x="185.83984375" xlink:href="#BitstreamVeraSans-Roman-65"/>
      <use x="247.36328125" xlink:href="#BitstreamVeraSans-Roman-6e"/>
      <use x="310.7421875" xlink:href="#BitstreamVeraSans-Roman-64"/>
      <use x="374.21875" xlink:href="#BitstreamVeraSans-Roman-69"/>
      <use x="402.001953125" xlink:href="#BitstreamVeraSans-Roman-74"/>
      <use x="441.2109375" xlink:href="#BitstreamVeraSans-Roman-75"/>
      <use x="504.58984375" xlink:href="#BitstreamVeraSans-Roman-72"/>
      <use x="543.453125" xlink:href="#BitstreamVeraSans-Roman-65"/>
      <use x="604.9765625" xlink:href="#BitstreamVeraSans-Roman-20"/>
      <use x="636.763671875" xlink:href="#BitstreamVeraSans-Roman-53"/>
      <use x="700.240234375" xlink:href="#BitstreamVeraSans-Roman-75"/>
      <use x="763.619140625" xlink:href="#BitstreamVeraSans-Roman-62"/>
      <use x="827.095703125" xlink:href="#BitstreamVeraSans-Roman-67"/>
      <use x="890.572265625" xlink:href="#BitstreamVeraSans-Roman-72"/>
      <use x="929.435546875" xlink:href="#BitstreamVeraSans-Roman-6f"/>
      <use x="990.6171875" xlink:href="#BitstreamVeraSans-Roman-75"/>
      <use x="1053.99609375" xlink:href="#BitstreamVeraSans-Roman-70"/>
     </g>
    </g>
   </g>
   <g id="matplotlib.axis_2">
    <g id="ytick_1">
     <g id="line2d_9">
      <path clip-path="url(#pf906d5d462)" d="
M108 315
L777.6 315" style="fill:none;stroke:#ffffff;stroke-linecap:round;stroke-width:0.8;"/>
     </g>
     <g id="line2d_10">
      <g>
       <use style="stroke:#000000;stroke-width:0.5;" x="108.0" xlink:href="#m48243eeccc" y="315.0"/>
      </g>
     </g>
     <g id="text_10">
      <!-- 0.0 -->
      <defs>
       <path d="
M31.7812 66.4062
Q24.1719 66.4062 20.3281 58.9062
Q16.5 51.4219 16.5 36.375
Q16.5 21.3906 20.3281 13.8906
Q24.1719 6.39062 31.7812 6.39062
Q39.4531 6.39062 43.2812 13.8906
Q47.125 21.3906 47.125 36.375
Q47.125 51.4219 43.2812 58.9062
Q39.4531 66.4062 31.7812 66.4062
M31.7812 74.2188
Q44.0469 74.2188 50.5156 64.5156
Q56.9844 54.8281 56.9844 36.375
Q56.9844 17.9688 50.5156 8.26562
Q44.0469 -1.42188 31.7812 -1.42188
Q19.5312 -1.42188 13.0625 8.26562
Q6.59375 17.9688 6.59375 36.375
Q6.59375 54.8281 13.0625 64.5156
Q19.5312 74.2188 31.7812 74.2188" id="BitstreamVeraSans-Roman-30"/>
       <path d="
M10.6875 12.4062
L21 12.4062
L21 0
L10.6875 0
z
" id="BitstreamVeraSans-Roman-2e"/>
      </defs>
      <g transform="translate(86.4203125 317.759375)scale(0.1 -0.1)">
       <use xlink:href="#BitstreamVeraSans-Roman-30"/>
       <use x="63.623046875" xlink:href="#BitstreamVeraSans-Roman-2e"/>
       <use x="95.41015625" xlink:href="#BitstreamVeraSans-Roman-30"/>
      </g>
     </g>
    </g>
    <g id="ytick_2">
     <g id="line2d_11">
      <path clip-path="url(#pf906d5d462)" d="
M108 259.2
L777.6 259.2" style="fill:none;stroke:#ffffff;stroke-linecap:round;stroke-width:0.8;"/>
     </g>
     <g id="line2d_12">
      <g>
       <use style="stroke:#000000;stroke-width:0.5;" x="108.0" xlink:href="#m48243eeccc" y="259.2"/>
      </g>
     </g>
     <g id="text_11">
      <!-- 0.2 -->
      <defs>
       <path d="
M19.1875 8.29688
L53.6094 8.29688
L53.6094 0
L7.32812 0
L7.32812 8.29688
Q12.9375 14.1094 22.625 23.8906
Q32.3281 33.6875 34.8125 36.5312
Q39.5469 41.8438 41.4219 45.5312
Q43.3125 49.2188 43.3125 52.7812
Q43.3125 58.5938 39.2344 62.25
Q35.1562 65.9219 28.6094 65.9219
Q23.9688 65.9219 18.8125 64.3125
Q13.6719 62.7031 7.8125 59.4219
L7.8125 69.3906
Q13.7656 71.7812 18.9375 73
Q24.125 74.2188 28.4219 74.2188
Q39.75 74.2188 46.4844 68.5469
Q53.2188 62.8906 53.2188 53.4219
Q53.2188 48.9219 51.5312 44.8906
Q49.8594 40.875 45.4062 35.4062
Q44.1875 33.9844 37.6406 27.2188
Q31.1094 20.4531 19.1875 8.29688" id="BitstreamVeraSans-Roman-32"/>
      </defs>
      <g transform="translate(86.7578125 261.959375)scale(0.1 -0.1)">
       <use xlink:href="#BitstreamVeraSans-Roman-30"/>
       <use x="63.623046875" xlink:href="#BitstreamVeraSans-Roman-2e"/>
       <use x="95.41015625" xlink:href="#BitstreamVeraSans-Roman-32"/>
      </g>
     </g>
    </g>
    <g id="ytick_3">
     <g id="line2d_13">
      <path clip-path="url(#pf906d5d462)" d="
M108 203.4
L777.6 203.4" style="fill:none;stroke:#ffffff;stroke-linecap:round;stroke-width:0.8;"/>
     </g>
     <g id="line2d_14">
      <g>
       <use style="stroke:#000000;stroke-width:0.5;" x="108.0" xlink:href="#m48243eeccc" y="203.4"/>
      </g>
     </g>
     <g id="text_12">
      <!-- 0.4 -->
      <defs>
       <path d="
M37.7969 64.3125
L12.8906 25.3906
L37.7969 25.3906
z

M35.2031 72.9062
L47.6094 72.9062
L47.6094 25.3906
L58.0156 25.3906
L58.0156 17.1875
L47.6094 17.1875
L47.6094 0
L37.7969 0
L37.7969 17.1875
L4.89062 17.1875
L4.89062 26.7031
z
" id="BitstreamVeraSans-Roman-34"/>
      </defs>
      <g transform="translate(86.3171875 206.159375)scale(0.1 -0.1)">
       <use xlink:href="#BitstreamVeraSans-Roman-30"/>
       <use x="63.623046875" xlink:href="#BitstreamVeraSans-Roman-2e"/>
       <use x="95.41015625" xlink:href="#BitstreamVeraSans-Roman-34"/>
      </g>
     </g>
    </g>
    <g id="ytick_4">
     <g id="line2d_15">
      <path clip-path="url(#pf906d5d462)" d="
M108 147.6
L777.6 147.6" style="fill:none;stroke:#ffffff;stroke-linecap:round;stroke-width:0.8;"/>
     </g>
     <g id="line2d_16">
      <g>
       <use style="stroke:#000000;stroke-width:0.5;" x="108.0" xlink:href="#m48243eeccc" y="147.6"/>
      </g>
     </g>
     <g id="text_13">
      <!-- 0.6 -->
      <defs>
       <path d="
M33.0156 40.375
Q26.375 40.375 22.4844 35.8281
Q18.6094 31.2969 18.6094 23.3906
Q18.6094 15.5312 22.4844 10.9531
Q26.375 6.39062 33.0156 6.39062
Q39.6562 6.39062 43.5312 10.9531
Q47.4062 15.5312 47.4062 23.3906
Q47.4062 31.2969 43.5312 35.8281
Q39.6562 40.375 33.0156 40.375
M52.5938 71.2969
L52.5938 62.3125
Q48.875 64.0625 45.0938 64.9844
Q41.3125 65.9219 37.5938 65.9219
Q27.8281 65.9219 22.6719 59.3281
Q17.5312 52.7344 16.7969 39.4062
Q19.6719 43.6562 24.0156 45.9219
Q28.375 48.1875 33.5938 48.1875
Q44.5781 48.1875 50.9531 41.5156
Q57.3281 34.8594 57.3281 23.3906
Q57.3281 12.1562 50.6875 5.35938
Q44.0469 -1.42188 33.0156 -1.42188
Q20.3594 -1.42188 13.6719 8.26562
Q6.98438 17.9688 6.98438 36.375
Q6.98438 53.6562 15.1875 63.9375
Q23.3906 74.2188 37.2031 74.2188
Q40.9219 74.2188 44.7031 73.4844
Q48.4844 72.75 52.5938 71.2969" id="BitstreamVeraSans-Roman-36"/>
      </defs>
      <g transform="translate(86.3859375 150.359375)scale(0.1 -0.1)">
       <use xlink:href="#BitstreamVeraSans-Roman-30"/>
       <use x="63.623046875" xlink:href="#BitstreamVeraSans-Roman-2e"/>
       <use x="95.41015625" xlink:href="#BitstreamVeraSans-Roman-36"/>
      </g>
     </g>
    </g>
    <g id="ytick_5">
     <g id="line2d_17">
      <path clip-path="url(#pf906d5d462)" d="
M108 91.8
L777.6 91.8" style="fill:none;stroke:#ffffff;stroke-linecap:round;stroke-width:0.8;"/>
     </g>
     <g id="line2d_18">
      <g>
       <use style="stroke:#000000;stroke-width:0.5;" x="108.0" xlink:href="#m48243eeccc" y="91.8"/>
      </g>
     </g>
     <g id="text_14">
      <!-- 0.8 -->
      <defs>
       <path d="
M31.7812 34.625
Q24.75 34.625 20.7188 30.8594
Q16.7031 27.0938 16.7031 20.5156
Q16.7031 13.9219 20.7188 10.1562
Q24.75 6.39062 31.7812 6.39062
Q38.8125 6.39062 42.8594 10.1719
Q46.9219 13.9688 46.9219 20.5156
Q46.9219 27.0938 42.8906 30.8594
Q38.875 34.625 31.7812 34.625
M21.9219 38.8125
Q15.5781 40.375 12.0312 44.7188
Q8.5 49.0781 8.5 55.3281
Q8.5 64.0625 14.7188 69.1406
Q20.9531 74.2188 31.7812 74.2188
Q42.6719 74.2188 48.875 69.1406
Q55.0781 64.0625 55.0781 55.3281
Q55.0781 49.0781 51.5312 44.7188
Q48 40.375 41.7031 38.8125
Q48.8281 37.1562 52.7969 32.3125
Q56.7812 27.4844 56.7812 20.5156
Q56.7812 9.90625 50.3125 4.23438
Q43.8438 -1.42188 31.7812 -1.42188
Q19.7344 -1.42188 13.25 4.23438
Q6.78125 9.90625 6.78125 20.5156
Q6.78125 27.4844 10.7812 32.3125
Q14.7969 37.1562 21.9219 38.8125
M18.3125 54.3906
Q18.3125 48.7344 21.8438 45.5625
Q25.3906 42.3906 31.7812 42.3906
Q38.1406 42.3906 41.7188 45.5625
Q45.3125 48.7344 45.3125 54.3906
Q45.3125 60.0625 41.7188 63.2344
Q38.1406 66.4062 31.7812 66.4062
Q25.3906 66.4062 21.8438 63.2344
Q18.3125 60.0625 18.3125 54.3906" id="BitstreamVeraSans-Roman-38"/>
      </defs>
      <g transform="translate(86.440625 94.559375)scale(0.1 -0.1)">
       <use xlink:href="#BitstreamVeraSans-Roman-30"/>
       <use x="63.623046875" xlink:href="#BitstreamVeraSans-Roman-2e"/>
       <use x="95.41015625" xlink:href="#BitstreamVeraSans-Roman-38"/>
      </g>
     </g>
    </g>
    <g id="ytick_6">
     <g id="line2d_19">
      <path clip-path="url(#pf906d5d462)" d="
M108 36
L777.6 36" style="fill:none;stroke:#ffffff;stroke-linecap:round;stroke-width:0.8;"/>
     </g>
     <g id="line2d_20">
      <g>
       <use style="stroke:#000000;stroke-width:0.5;" x="108.0" xlink:href="#m48243eeccc" y="36.0"/>
      </g>
     </g>
     <g id="text_15">
      <!-- 1.0 -->
      <defs>
       <path d="
M12.4062 8.29688
L28.5156 8.29688
L28.5156 63.9219
L10.9844 60.4062
L10.9844 69.3906
L28.4219 72.9062
L38.2812 72.9062
L38.2812 8.29688
L54.3906 8.29688
L54.3906 0
L12.4062 0
z
" id="BitstreamVeraSans-Roman-31"/>
      </defs>
      <g transform="translate(86.859375 38.759375)scale(0.1 -0.1)">
       <use xlink:href="#BitstreamVeraSans-Roman-31"/>
       <use x="63.623046875" xlink:href="#BitstreamVeraSans-Roman-2e"/>
       <use x="95.41015625" xlink:href="#BitstreamVeraSans-Roman-30"/>
      </g>
     </g>
    </g>
    <g id="text_16">
     <!-- Proportional Contribution -->
     <defs>
      <path d="
M19.6719 64.7969
L19.6719 37.4062
L32.0781 37.4062
Q38.9688 37.4062 42.7188 40.9688
Q46.4844 44.5312 46.4844 51.125
Q46.4844 57.6719 42.7188 61.2344
Q38.9688 64.7969 32.0781 64.7969
z

M9.8125 72.9062
L32.0781 72.9062
Q44.3438 72.9062 50.6094 67.3594
Q56.8906 61.8125 56.8906 51.125
Q56.8906 40.3281 50.6094 34.8125
Q44.3438 29.2969 32.0781 29.2969
L19.6719 29.2969
L19.6719 0
L9.8125 0
z
" id="BitstreamVeraSans-Roman-50"/>
      <path d="
M64.4062 67.2812
L64.4062 56.8906
Q59.4219 61.5312 53.7812 63.8125
Q48.1406 66.1094 41.7969 66.1094
Q29.2969 66.1094 22.6562 58.4688
Q16.0156 50.8281 16.0156 36.375
Q16.0156 21.9688 22.6562 14.3281
Q29.2969 6.6875 41.7969 6.6875
Q48.1406 6.6875 53.7812 8.98438
Q59.4219 11.2812 64.4062 15.9219
L64.4062 5.60938
Q59.2344 2.09375 53.4375 0.328125
Q47.6562 -1.42188 41.2188 -1.42188
Q24.6562 -1.42188 15.125 8.70312
Q5.60938 18.8438 5.60938 36.375
Q5.60938 53.9531 15.125 64.0781
Q24.6562 74.2188 41.2188 74.2188
Q47.75 74.2188 53.5312 72.4844
Q59.3281 70.75 64.4062 67.2812" id="BitstreamVeraSans-Roman-43"/>
     </defs>
     <g transform="translate(79.02953125 244.204453125)rotate(-90.0)scale(0.11 -0.11)">
      <use xlink:href="#BitstreamVeraSans-Roman-50"/>
      <use x="58.552734375" xlink:href="#BitstreamVeraSans-Roman-72"/>
      <use x="97.416015625" xlink:href="#BitstreamVeraSans-Roman-6f"/>
      <use x="158.59765625" xlink:href="#BitstreamVeraSans-Roman-70"/>
      <use x="222.07421875" xlink:href="#BitstreamVeraSans-Roman-6f"/>
      <use x="283.255859375" xlink:href="#BitstreamVeraSans-Roman-72"/>
      <use x="324.369140625" xlink:href="#BitstreamVeraSans-Roman-74"/>
      <use x="363.578125" xlink:href="#BitstreamVeraSans-Roman-69"/>
      <use x="391.361328125" xlink:href="#BitstreamVeraSans-Roman-6f"/>
      <use x="452.54296875" xlink:href="#BitstreamVeraSans-Roman-6e"/>
      <use x="515.921875" xlink:href="#BitstreamVeraSans-Roman-61"/>
      <use x="577.201171875" xlink:href="#BitstreamVeraSans-Roman-6c"/>
      <use x="604.984375" xlink:href="#BitstreamVeraSans-Roman-20"/>
      <use x="636.771484375" xlink:href="#BitstreamVeraSans-Roman-43"/>
      <use x="706.595703125" xlink:href="#BitstreamVeraSans-Roman-6f"/>
      <use x="767.77734375" xlink:href="#BitstreamVeraSans-Roman-6e"/>
      <use x="831.15625" xlink:href="#BitstreamVeraSans-Roman-74"/>
      <use x="870.365234375" xlink:href="#BitstreamVeraSans-Roman-72"/>
      <use x="911.478515625" xlink:href="#BitstreamVeraSans-Roman-69"/>
      <use x="939.26171875" xlink:href="#BitstreamVeraSans-Roman-62"/>
      <use x="1002.73828125" xlink:href="#BitstreamVeraSans-Roman-75"/>
      <use x="1066.1171875" xlink:href="#BitstreamVeraSans-Roman-74"/>
      <use x="1105.32617188" xlink:href="#BitstreamVeraSans-Roman-69"/>
      <use x="1133.109375" xlink:href="#BitstreamVeraSans-Roman-6f"/>
      <use x="1194.29101562" xlink:href="#BitstreamVeraSans-Roman-6e"/>
     </g>
    </g>
   </g>
   <g id="PolyCollection_1">
    <defs>
     <path d="
M149.857 -25.8677
L149.843 -25.8677
L149.834 -27.7707
L149.814 -29.6737
L149.772 -31.5768
L149.693 -33.4798
L149.555 -35.3828
L149.332 -37.2859
L148.992 -39.1889
L148.505 -41.0919
L147.836 -42.995
L146.95 -44.898
L145.809 -46.801
L144.376 -48.7041
L142.622 -50.6071
L140.537 -52.5101
L138.134 -54.4132
L135.457 -56.3162
L132.571 -58.2192
L129.564 -60.1223
L126.551 -62.0253
L123.674 -63.9283
L121.099 -65.8314
L118.994 -67.7344
L117.486 -69.6374
L116.627 -71.5405
L116.37 -73.4435
L116.579 -75.3465
L117.063 -77.2496
L117.629 -79.1526
L118.125 -81.0556
L118.475 -82.9587
L118.687 -84.8617
L118.837 -86.7647
L119.04 -88.6678
L119.406 -90.5708
L120.011 -92.4738
L120.872 -94.3769
L121.958 -96.2799
L123.207 -98.1829
L124.556 -100.086
L125.962 -101.989
L127.406 -103.892
L128.879 -105.795
L130.365 -107.698
L131.831 -109.601
L133.23 -111.504
L134.521 -113.407
L135.679 -115.31
L136.704 -117.213
L137.619 -119.116
L138.457 -121.019
L139.248 -122.922
L140.019 -124.825
L140.778 -126.728
L141.524 -128.631
L142.241 -130.534
L142.91 -132.438
L143.518 -134.341
L144.061 -136.244
L144.551 -138.147
L145.008 -140.05
L145.45 -141.953
L145.889 -143.856
L146.323 -145.759
L146.739 -147.662
L147.119 -149.565
L147.45 -151.468
L147.726 -153.371
L147.954 -155.274
L148.144 -157.177
L148.308 -159.08
L148.453 -160.983
L148.583 -162.886
L148.696 -164.789
L148.792 -166.692
L148.873 -168.595
L148.943 -170.498
L149.007 -172.401
L149.07 -174.304
L149.134 -176.207
L149.198 -178.11
L149.262 -180.013
L149.323 -181.916
L149.381 -183.819
L149.432 -185.722
L149.475 -187.625
L149.502 -189.529
L149.51 -191.432
L149.496 -193.335
L149.461 -195.238
L149.416 -197.141
L149.372 -199.044
L149.343 -200.947
L149.34 -202.85
L149.366 -204.753
L149.418 -206.656
L149.486 -208.559
L149.558 -210.462
L149.621 -212.365
L149.668 -214.268
L149.696 -216.171
L149.711 -218.074
L149.718 -219.977
L149.725 -221.88
L149.736 -223.783
L149.752 -225.686
L149.77 -227.589
L149.786 -229.492
L149.797 -231.395
L149.797 -233.298
L149.786 -235.201
L149.764 -237.104
L149.732 -239.007
L149.696 -240.91
L149.663 -242.813
L149.64 -244.716
L149.632 -246.62
L149.642 -248.523
L149.666 -250.426
L149.7 -252.329
L149.738 -254.232
L149.772 -256.135
L149.801 -258.038
L149.821 -259.941
L149.834 -261.844
L149.842 -263.747
L149.846 -265.65
L149.846 -267.553
L149.854 -267.553
L149.854 -267.553
L149.854 -265.65
L149.858 -263.747
L149.866 -261.844
L149.879 -259.941
L149.899 -258.038
L149.928 -256.135
L149.962 -254.232
L150 -252.329
L150.034 -250.426
L150.058 -248.523
L150.068 -246.62
L150.06 -244.716
L150.037 -242.813
L150.004 -240.91
L149.968 -239.007
L149.936 -237.104
L149.914 -235.201
L149.903 -233.298
L149.903 -231.395
L149.914 -229.492
L149.93 -227.589
L149.948 -225.686
L149.964 -223.783
L149.975 -221.88
L149.982 -219.977
L149.989 -218.074
L150.004 -216.171
L150.032 -214.268
L150.079 -212.365
L150.142 -210.462
L150.214 -208.559
L150.282 -206.656
L150.334 -204.753
L150.36 -202.85
L150.357 -200.947
L150.328 -199.044
L150.284 -197.141
L150.239 -195.238
L150.204 -193.335
L150.19 -191.432
L150.198 -189.529
L150.225 -187.625
L150.268 -185.722
L150.319 -183.819
L150.377 -181.916
L150.438 -180.013
L150.502 -178.11
L150.566 -176.207
L150.63 -174.304
L150.693 -172.401
L150.757 -170.498
L150.827 -168.595
L150.908 -166.692
L151.004 -164.789
L151.117 -162.886
L151.247 -160.983
L151.392 -159.08
L151.556 -157.177
L151.746 -155.274
L151.974 -153.371
L152.25 -151.468
L152.581 -149.565
L152.961 -147.662
L153.377 -145.759
L153.811 -143.856
L154.25 -141.953
L154.692 -140.05
L155.149 -138.147
L155.639 -136.244
L156.182 -134.341
L156.79 -132.438
L157.459 -130.534
L158.176 -128.631
L158.922 -126.728
L159.681 -124.825
L160.452 -122.922
L161.243 -121.019
L162.081 -119.116
L162.996 -117.213
L164.021 -115.31
L165.179 -113.407
L166.47 -111.504
L167.869 -109.601
L169.335 -107.698
L170.821 -105.795
L172.294 -103.892
L173.738 -101.989
L175.144 -100.086
L176.493 -98.1829
L177.742 -96.2799
L178.828 -94.3769
L179.689 -92.4738
L180.294 -90.5708
L180.66 -88.6678
L180.863 -86.7647
L181.013 -84.8617
L181.225 -82.9587
L181.575 -81.0556
L182.071 -79.1526
L182.637 -77.2496
L183.121 -75.3465
L183.33 -73.4435
L183.073 -71.5405
L182.214 -69.6374
L180.706 -67.7344
L178.601 -65.8314
L176.026 -63.9283
L173.149 -62.0253
L170.136 -60.1223
L167.129 -58.2192
L164.243 -56.3162
L161.566 -54.4132
L159.163 -52.5101
L157.078 -50.6071
L155.324 -48.7041
L153.891 -46.801
L152.75 -44.898
L151.864 -42.995
L151.195 -41.0919
L150.708 -39.1889
L150.368 -37.2859
L150.145 -35.3828
L150.007 -33.4798
L149.928 -31.5768
L149.886 -29.6737
L149.866 -27.7707
L149.857 -25.8677
z
" id="C0_0_31ca9f12ad"/>
    </defs>
    <g clip-path="url(#pf906d5d462)">
     <use style="fill:#e799a5;stroke:#e799a5;stroke-width:0.3;" x="0.0" xlink:href="#C0_0_31ca9f12ad" y="360.0"/>
    </g>
   </g>
   <g id="PolyCollection_2">
    <defs>
     <path d="
M233.555 -56.6163
L233.545 -56.6163
L233.54 -57.6878
L233.529 -58.7593
L233.507 -59.8308
L233.469 -60.9022
L233.407 -61.9737
L233.314 -63.0452
L233.183 -64.1167
L233.01 -65.1882
L232.792 -66.2597
L232.525 -67.3311
L232.204 -68.4026
L231.814 -69.4741
L231.329 -70.5456
L230.713 -71.6171
L229.923 -72.6885
L228.92 -73.76
L227.67 -74.8315
L226.157 -75.903
L224.381 -76.9745
L222.362 -78.046
L220.131 -79.1174
L217.738 -80.1889
L215.243 -81.2604
L212.719 -82.3319
L210.252 -83.4034
L207.936 -84.4748
L205.856 -85.5463
L204.081 -86.6178
L202.647 -87.6893
L201.553 -88.7608
L200.778 -89.8322
L200.29 -90.9037
L200.07 -91.9752
L200.11 -93.0467
L200.41 -94.1182
L200.96 -95.1897
L201.726 -96.2611
L202.65 -97.3326
L203.665 -98.4041
L204.71 -99.4756
L205.753 -100.547
L206.793 -101.619
L207.845 -102.69
L208.924 -103.762
L210.022 -104.833
L211.106 -105.904
L212.119 -106.976
L213.012 -108.047
L213.76 -109.119
L214.38 -110.19
L214.929 -111.262
L215.487 -112.333
L216.131 -113.405
L216.917 -114.476
L217.87 -115.548
L218.979 -116.619
L220.21 -117.691
L221.513 -118.762
L222.834 -119.834
L224.122 -120.905
L225.335 -121.977
L226.438 -123.048
L227.409 -124.12
L228.235 -125.191
L228.916 -126.263
L229.458 -127.334
L229.872 -128.406
L230.177 -129.477
L230.389 -130.549
L230.531 -131.62
L230.623 -132.692
L230.686 -133.763
L230.744 -134.834
L230.817 -135.906
L230.923 -136.977
L231.073 -138.049
L231.273 -139.12
L231.514 -140.192
L231.783 -141.263
L232.058 -142.335
L232.319 -143.406
L232.549 -144.478
L232.74 -145.549
L232.891 -146.621
L233.006 -147.692
L233.092 -148.764
L233.157 -149.835
L233.208 -150.907
L233.249 -151.978
L233.281 -153.05
L233.307 -154.121
L233.328 -155.193
L233.346 -156.264
L233.361 -157.336
L233.377 -158.407
L233.394 -159.479
L233.414 -160.55
L233.437 -161.622
L233.46 -162.693
L233.483 -163.764
L233.504 -164.836
L233.52 -165.907
L233.532 -166.979
L233.54 -168.05
L233.544 -169.122
L233.546 -170.193
L233.545 -171.265
L233.543 -172.336
L233.537 -173.408
L233.528 -174.479
L233.515 -175.551
L233.498 -176.622
L233.48 -177.694
L233.462 -178.765
L233.448 -179.837
L233.441 -180.908
L233.442 -181.98
L233.451 -183.051
L233.466 -184.123
L233.484 -185.194
L233.502 -186.266
L233.518 -187.337
L233.53 -188.409
L233.539 -189.48
L233.544 -190.552
L233.546 -191.623
L233.547 -192.694
L233.553 -192.694
L233.553 -192.694
L233.554 -191.623
L233.556 -190.552
L233.561 -189.48
L233.57 -188.409
L233.582 -187.337
L233.598 -186.266
L233.616 -185.194
L233.634 -184.123
L233.649 -183.051
L233.658 -181.98
L233.659 -180.908
L233.652 -179.837
L233.638 -178.765
L233.62 -177.694
L233.602 -176.622
L233.585 -175.551
L233.572 -174.479
L233.563 -173.408
L233.557 -172.336
L233.555 -171.265
L233.554 -170.193
L233.556 -169.122
L233.56 -168.05
L233.568 -166.979
L233.58 -165.907
L233.596 -164.836
L233.617 -163.764
L233.64 -162.693
L233.663 -161.622
L233.686 -160.55
L233.706 -159.479
L233.723 -158.407
L233.739 -157.336
L233.754 -156.264
L233.772 -155.193
L233.793 -154.121
L233.819 -153.05
L233.851 -151.978
L233.892 -150.907
L233.943 -149.835
L234.008 -148.764
L234.094 -147.692
L234.209 -146.621
L234.36 -145.549
L234.551 -144.478
L234.781 -143.406
L235.042 -142.335
L235.317 -141.263
L235.586 -140.192
L235.827 -139.12
L236.027 -138.049
L236.177 -136.977
L236.283 -135.906
L236.356 -134.834
L236.414 -133.763
L236.477 -132.692
L236.569 -131.62
L236.711 -130.549
L236.923 -129.477
L237.228 -128.406
L237.642 -127.334
L238.184 -126.263
L238.865 -125.191
L239.691 -124.12
L240.662 -123.048
L241.765 -121.977
L242.978 -120.905
L244.266 -119.834
L245.587 -118.762
L246.89 -117.691
L248.121 -116.619
L249.23 -115.548
L250.183 -114.476
L250.969 -113.405
L251.613 -112.333
L252.171 -111.262
L252.72 -110.19
L253.34 -109.119
L254.088 -108.047
L254.981 -106.976
L255.994 -105.904
L257.078 -104.833
L258.176 -103.762
L259.255 -102.69
L260.307 -101.619
L261.347 -100.547
L262.39 -99.4756
L263.435 -98.4041
L264.45 -97.3326
L265.374 -96.2611
L266.14 -95.1897
L266.69 -94.1182
L266.99 -93.0467
L267.03 -91.9752
L266.81 -90.9037
L266.322 -89.8322
L265.547 -88.7608
L264.453 -87.6893
L263.019 -86.6178
L261.244 -85.5463
L259.164 -84.4748
L256.848 -83.4034
L254.381 -82.3319
L251.857 -81.2604
L249.362 -80.1889
L246.969 -79.1174
L244.738 -78.046
L242.719 -76.9745
L240.943 -75.903
L239.43 -74.8315
L238.18 -73.76
L237.177 -72.6885
L236.387 -71.6171
L235.771 -70.5456
L235.286 -69.4741
L234.896 -68.4026
L234.575 -67.3311
L234.308 -66.2597
L234.09 -65.1882
L233.917 -64.1167
L233.786 -63.0452
L233.693 -61.9737
L233.631 -60.9022
L233.593 -59.8308
L233.571 -58.7593
L233.56 -57.6878
L233.555 -56.6163
z
" id="C1_0_3ed0b90ec1"/>
    </defs>
    <g clip-path="url(#pf906d5d462)">
     <use style="fill:#c69750;stroke:#c69750;stroke-width:0.3;" x="0.0" xlink:href="#C1_0_3ed0b90ec1" y="360.0"/>
    </g>
   </g>
   <g id="PolyCollection_3">
    <defs>
     <path d="
M317.258 -21.0516
L317.242 -21.0516
L317.236 -22.8047
L317.224 -24.5578
L317.203 -26.3109
L317.169 -28.064
L317.115 -29.8171
L317.034 -31.5702
L316.916 -33.3233
L316.749 -35.0764
L316.522 -36.8295
L316.222 -38.5826
L315.836 -40.3357
L315.352 -42.0888
L314.76 -43.8419
L314.051 -45.595
L313.216 -47.3481
L312.249 -49.1012
L311.143 -50.8543
L309.89 -52.6074
L308.48 -54.3605
L306.903 -56.1136
L305.149 -57.8667
L303.216 -59.6198
L301.114 -61.3729
L298.871 -63.126
L296.537 -64.8791
L294.181 -66.6322
L291.893 -68.3853
L289.765 -70.1384
L287.887 -71.8915
L286.331 -73.6446
L285.143 -75.3976
L284.336 -77.1507
L283.893 -78.9038
L283.77 -80.6569
L283.907 -82.41
L284.236 -84.1631
L284.691 -85.9162
L285.219 -87.6693
L285.776 -89.4224
L286.337 -91.1755
L286.885 -92.9286
L287.417 -94.6817
L287.93 -96.4348
L288.428 -98.1879
L288.912 -99.941
L289.388 -101.694
L289.864 -103.447
L290.355 -105.2
L290.877 -106.953
L291.45 -108.707
L292.09 -110.46
L292.802 -112.213
L293.582 -113.966
L294.406 -115.719
L295.242 -117.472
L296.053 -119.225
L296.802 -120.978
L297.466 -122.731
L298.036 -124.484
L298.521 -126.237
L298.949 -127.991
L299.359 -129.744
L299.793 -131.497
L300.292 -133.25
L300.882 -135.003
L301.575 -136.756
L302.361 -138.509
L303.214 -140.262
L304.097 -142.015
L304.969 -143.768
L305.796 -145.522
L306.553 -147.275
L307.235 -149.028
L307.851 -150.781
L308.422 -152.534
L308.977 -154.287
L309.538 -156.04
L310.124 -157.793
L310.74 -159.546
L311.378 -161.299
L312.02 -163.053
L312.644 -164.806
L313.224 -166.559
L313.738 -168.312
L314.17 -170.065
L314.512 -171.818
L314.762 -173.571
L314.927 -175.324
L315.017 -177.077
L315.05 -178.83
L315.044 -180.584
L315.02 -182.337
L314.998 -184.09
L314.995 -185.843
L315.024 -187.596
L315.09 -189.349
L315.195 -191.102
L315.334 -192.855
L315.5 -194.608
L315.684 -196.361
L315.875 -198.115
L316.064 -199.868
L316.245 -201.621
L316.412 -203.374
L316.562 -205.127
L316.691 -206.88
L316.8 -208.633
L316.887 -210.386
L316.956 -212.139
L317.007 -213.892
L317.044 -215.645
L317.072 -217.399
L317.094 -219.152
L317.112 -220.905
L317.13 -222.658
L317.147 -224.411
L317.164 -226.164
L317.181 -227.917
L317.197 -229.67
L317.21 -231.423
L317.222 -233.176
L317.231 -234.93
L317.238 -236.683
L317.242 -238.436
L317.245 -240.189
L317.246 -241.942
L317.245 -243.695
L317.255 -243.695
L317.255 -243.695
L317.254 -241.942
L317.255 -240.189
L317.258 -238.436
L317.262 -236.683
L317.269 -234.93
L317.278 -233.176
L317.29 -231.423
L317.303 -229.67
L317.319 -227.917
L317.336 -226.164
L317.353 -224.411
L317.37 -222.658
L317.388 -220.905
L317.406 -219.152
L317.428 -217.399
L317.456 -215.645
L317.493 -213.892
L317.544 -212.139
L317.613 -210.386
L317.7 -208.633
L317.809 -206.88
L317.938 -205.127
L318.088 -203.374
L318.255 -201.621
L318.436 -199.868
L318.625 -198.115
L318.816 -196.361
L319 -194.608
L319.166 -192.855
L319.305 -191.102
L319.41 -189.349
L319.476 -187.596
L319.505 -185.843
L319.502 -184.09
L319.48 -182.337
L319.456 -180.584
L319.45 -178.83
L319.483 -177.077
L319.573 -175.324
L319.738 -173.571
L319.988 -171.818
L320.33 -170.065
L320.762 -168.312
L321.276 -166.559
L321.856 -164.806
L322.48 -163.053
L323.122 -161.299
L323.76 -159.546
L324.376 -157.793
L324.962 -156.04
L325.523 -154.287
L326.078 -152.534
L326.649 -150.781
L327.265 -149.028
L327.947 -147.275
L328.704 -145.522
L329.531 -143.768
L330.403 -142.015
L331.286 -140.262
L332.139 -138.509
L332.925 -136.756
L333.618 -135.003
L334.208 -133.25
L334.707 -131.497
L335.141 -129.744
L335.551 -127.991
L335.979 -126.237
L336.464 -124.484
L337.034 -122.731
L337.698 -120.978
L338.447 -119.225
L339.258 -117.472
L340.094 -115.719
L340.918 -113.966
L341.698 -112.213
L342.41 -110.46
L343.05 -108.707
L343.623 -106.953
L344.145 -105.2
L344.636 -103.447
L345.112 -101.694
L345.588 -99.941
L346.072 -98.1879
L346.57 -96.4348
L347.083 -94.6817
L347.615 -92.9286
L348.163 -91.1755
L348.724 -89.4224
L349.281 -87.6693
L349.809 -85.9162
L350.264 -84.1631
L350.593 -82.41
L350.73 -80.6569
L350.607 -78.9038
L350.164 -77.1507
L349.357 -75.3976
L348.169 -73.6446
L346.613 -71.8915
L344.735 -70.1384
L342.607 -68.3853
L340.319 -66.6322
L337.963 -64.8791
L335.629 -63.126
L333.386 -61.3729
L331.284 -59.6198
L329.351 -57.8667
L327.597 -56.1136
L326.02 -54.3605
L324.61 -52.6074
L323.357 -50.8543
L322.251 -49.1012
L321.284 -47.3481
L320.449 -45.595
L319.74 -43.8419
L319.148 -42.0888
L318.664 -40.3357
L318.278 -38.5826
L317.978 -36.8295
L317.751 -35.0764
L317.584 -33.3233
L317.466 -31.5702
L317.385 -29.8171
L317.331 -28.064
L317.297 -26.3109
L317.276 -24.5578
L317.264 -22.8047
L317.258 -21.0516
z
" id="C2_0_7c1d9ff9e9"/>
    </defs>
    <g clip-path="url(#pf906d5d462)">
     <use style="fill:#959f49;stroke:#959f49;stroke-width:0.3;" x="0.0" xlink:href="#C2_0_7c1d9ff9e9" y="360.0"/>
    </g>
   </g>
   <g id="PolyCollection_4">
    <defs>
     <path d="
M401.141 -37.5463
L400.759 -37.5463
L400.423 -38.4253
L399.653 -39.3044
L398.108 -40.1834
L395.391 -41.0624
L391.23 -41.9414
L385.716 -42.8205
L379.483 -43.6995
L373.628 -44.5785
L369.353 -45.4575
L367.47 -46.3366
L368.081 -47.2156
L370.613 -48.0946
L374.159 -48.9736
L377.87 -49.8526
L381.19 -50.7317
L383.879 -51.6107
L385.918 -52.4897
L387.397 -53.3687
L388.449 -54.2478
L389.22 -55.1268
L389.853 -56.0058
L390.461 -56.8848
L391.114 -57.7639
L391.817 -58.6429
L392.532 -59.5219
L393.207 -60.4009
L393.814 -61.28
L394.365 -62.159
L394.895 -63.038
L395.428 -63.917
L395.953 -64.796
L396.429 -65.6751
L396.815 -66.5541
L397.091 -67.4331
L397.279 -68.3121
L397.423 -69.1912
L397.566 -70.0702
L397.73 -70.9492
L397.914 -71.8282
L398.102 -72.7073
L398.281 -73.5863
L398.45 -74.4653
L398.609 -75.3443
L398.758 -76.2234
L398.895 -77.1024
L399.018 -77.9814
L399.126 -78.8604
L399.216 -79.7395
L399.283 -80.6185
L399.322 -81.4975
L399.336 -82.3765
L399.343 -83.2555
L399.367 -84.1346
L399.423 -85.0136
L399.508 -85.8926
L399.603 -86.7716
L399.682 -87.6507
L399.734 -88.5297
L399.762 -89.4087
L399.781 -90.2877
L399.807 -91.1668
L399.848 -92.0458
L399.912 -92.9248
L399.998 -93.8038
L400.104 -94.6829
L400.223 -95.5619
L400.336 -96.4409
L400.426 -97.3199
L400.479 -98.1989
L400.491 -99.078
L400.472 -99.957
L400.44 -100.836
L400.413 -101.715
L400.405 -102.594
L400.421 -103.473
L400.456 -104.352
L400.505 -105.231
L400.558 -106.11
L400.61 -106.989
L400.656 -107.868
L400.696 -108.747
L400.727 -109.626
L400.745 -110.505
L400.747 -111.384
L400.73 -112.263
L400.693 -113.142
L400.64 -114.021
L400.583 -114.9
L400.534 -115.779
L400.503 -116.658
L400.492 -117.537
L400.495 -118.416
L400.499 -119.296
L400.501 -120.175
L400.504 -121.054
L400.521 -121.933
L400.561 -122.812
L400.625 -123.691
L400.702 -124.57
L400.779 -125.449
L400.845 -126.328
L400.892 -127.207
L400.921 -128.086
L400.937 -128.965
L400.945 -129.844
L400.947 -130.723
L400.946 -131.602
L400.942 -132.481
L400.932 -133.36
L400.916 -134.239
L400.892 -135.118
L400.862 -135.997
L400.83 -136.876
L400.802 -137.755
L400.785 -138.634
L400.781 -139.513
L400.791 -140.392
L400.811 -141.271
L400.837 -142.15
L400.864 -143.029
L400.89 -143.908
L400.912 -144.787
L400.928 -145.666
L400.937 -146.545
L400.94 -147.424
L400.93 -148.303
L400.888 -149.182
L401.012 -149.182
L401.012 -149.182
L400.97 -148.303
L400.96 -147.424
L400.963 -146.545
L400.972 -145.666
L400.988 -144.787
L401.01 -143.908
L401.036 -143.029
L401.063 -142.15
L401.089 -141.271
L401.109 -140.392
L401.119 -139.513
L401.115 -138.634
L401.098 -137.755
L401.07 -136.876
L401.038 -135.997
L401.008 -135.118
L400.984 -134.239
L400.968 -133.36
L400.958 -132.481
L400.954 -131.602
L400.953 -130.723
L400.955 -129.844
L400.963 -128.965
L400.979 -128.086
L401.008 -127.207
L401.055 -126.328
L401.121 -125.449
L401.198 -124.57
L401.275 -123.691
L401.339 -122.812
L401.379 -121.933
L401.396 -121.054
L401.399 -120.175
L401.401 -119.296
L401.405 -118.416
L401.408 -117.537
L401.397 -116.658
L401.366 -115.779
L401.317 -114.9
L401.26 -114.021
L401.207 -113.142
L401.17 -112.263
L401.153 -111.384
L401.155 -110.505
L401.173 -109.626
L401.204 -108.747
L401.244 -107.868
L401.29 -106.989
L401.342 -106.11
L401.395 -105.231
L401.444 -104.352
L401.479 -103.473
L401.495 -102.594
L401.487 -101.715
L401.46 -100.836
L401.428 -99.957
L401.409 -99.078
L401.421 -98.1989
L401.474 -97.3199
L401.564 -96.4409
L401.677 -95.5619
L401.796 -94.6829
L401.902 -93.8038
L401.988 -92.9248
L402.052 -92.0458
L402.093 -91.1668
L402.119 -90.2877
L402.138 -89.4087
L402.166 -88.5297
L402.218 -87.6507
L402.297 -86.7716
L402.392 -85.8926
L402.477 -85.0136
L402.533 -84.1346
L402.557 -83.2555
L402.564 -82.3765
L402.578 -81.4975
L402.617 -80.6185
L402.684 -79.7395
L402.774 -78.8604
L402.882 -77.9814
L403.005 -77.1024
L403.142 -76.2234
L403.291 -75.3443
L403.45 -74.4653
L403.619 -73.5863
L403.798 -72.7073
L403.986 -71.8282
L404.17 -70.9492
L404.334 -70.0702
L404.477 -69.1912
L404.621 -68.3121
L404.809 -67.4331
L405.085 -66.5541
L405.471 -65.6751
L405.947 -64.796
L406.472 -63.917
L407.005 -63.038
L407.535 -62.159
L408.086 -61.28
L408.693 -60.4009
L409.368 -59.5219
L410.083 -58.6429
L410.786 -57.7639
L411.439 -56.8848
L412.047 -56.0058
L412.68 -55.1268
L413.451 -54.2478
L414.503 -53.3687
L415.982 -52.4897
L418.021 -51.6107
L420.71 -50.7317
L424.03 -49.8526
L427.741 -48.9736
L431.287 -48.0946
L433.819 -47.2156
L434.43 -46.3366
L432.547 -45.4575
L428.272 -44.5785
L422.417 -43.6995
L416.184 -42.8205
L410.67 -41.9414
L406.509 -41.0624
L403.792 -40.1834
L402.247 -39.3044
L401.477 -38.4253
L401.141 -37.5463
z
" id="C3_0_0cbf410c65"/>
    </defs>
    <g clip-path="url(#pf906d5d462)">
     <use style="fill:#4cac73;stroke:#4cac73;stroke-width:0.3;" x="0.0" xlink:href="#C3_0_0cbf410c65" y="360.0"/>
    </g>
   </g>
   <g id="PolyCollection_5">
    <defs>
     <path d="
M484.676 -42.9069
L484.624 -42.9069
L484.594 -43.0997
L484.536 -43.2925
L484.434 -43.4853
L484.266 -43.6781
L484.012 -43.8709
L483.657 -44.0637
L483.191 -44.2565
L482.616 -44.4493
L481.937 -44.6421
L481.147 -44.835
L480.226 -45.0278
L479.124 -45.2206
L477.777 -45.4134
L476.121 -45.6062
L474.117 -45.799
L471.775 -45.9918
L469.163 -46.1846
L466.404 -46.3774
L463.646 -46.5702
L461.039 -46.7631
L458.692 -46.9559
L456.665 -47.1487
L454.972 -47.3415
L453.596 -47.5343
L452.522 -47.7271
L451.747 -47.9199
L451.288 -48.1127
L451.17 -48.3055
L451.412 -48.4983
L452.018 -48.6912
L452.968 -48.884
L454.225 -49.0768
L455.735 -49.2696
L457.431 -49.4624
L459.236 -49.6552
L461.066 -49.848
L462.835 -50.0408
L464.459 -50.2336
L465.871 -50.4264
L467.032 -50.6193
L467.939 -50.8121
L468.628 -51.0049
L469.161 -51.1977
L469.615 -51.3905
L470.059 -51.5833
L470.548 -51.7761
L471.112 -51.9689
L471.766 -52.1617
L472.505 -52.3545
L473.314 -52.5474
L474.168 -52.7402
L475.035 -52.933
L475.882 -53.1258
L476.675 -53.3186
L477.384 -53.5114
L477.99 -53.7042
L478.477 -53.897
L478.839 -54.0898
L479.078 -54.2826
L479.204 -54.4755
L479.244 -54.6683
L479.235 -54.8611
L479.225 -55.0539
L479.262 -55.2467
L479.383 -55.4395
L479.604 -55.6323
L479.921 -55.8251
L480.311 -56.0179
L480.739 -56.2107
L481.173 -56.4036
L481.584 -56.5964
L481.955 -56.7892
L482.28 -56.982
L482.561 -57.1748
L482.804 -57.3676
L483.023 -57.5604
L483.226 -57.7532
L483.422 -57.946
L483.61 -58.1388
L483.786 -58.3317
L483.94 -58.5245
L484.063 -58.7173
L484.147 -58.9101
L484.191 -59.1029
L484.2 -59.2957
L484.185 -59.4885
L484.162 -59.6813
L484.146 -59.8741
L484.149 -60.0669
L484.178 -60.2598
L484.231 -60.4526
L484.3 -60.6454
L484.376 -60.8382
L484.448 -61.031
L484.508 -61.2238
L484.549 -61.4166
L484.571 -61.6094
L484.57 -61.8022
L484.547 -61.995
L484.502 -62.1879
L484.435 -62.3807
L484.351 -62.5735
L484.259 -62.7663
L484.169 -62.9591
L484.094 -63.1519
L484.045 -63.3447
L484.029 -63.5375
L484.047 -63.7303
L484.092 -63.9231
L484.157 -64.116
L484.229 -64.3088
L484.299 -64.5016
L484.361 -64.6944
L484.413 -64.8872
L484.453 -65.08
L484.487 -65.2728
L484.515 -65.4656
L484.542 -65.6584
L484.566 -65.8512
L484.588 -66.0441
L484.607 -66.2369
L484.621 -66.4297
L484.632 -66.6225
L484.64 -66.8153
L484.643 -67.0081
L484.643 -67.2009
L484.638 -67.3937
L484.662 -67.3937
L484.662 -67.3937
L484.657 -67.2009
L484.657 -67.0081
L484.66 -66.8153
L484.668 -66.6225
L484.679 -66.4297
L484.693 -66.2369
L484.712 -66.0441
L484.734 -65.8512
L484.758 -65.6584
L484.785 -65.4656
L484.813 -65.2728
L484.847 -65.08
L484.887 -64.8872
L484.939 -64.6944
L485.001 -64.5016
L485.071 -64.3088
L485.143 -64.116
L485.208 -63.9231
L485.253 -63.7303
L485.271 -63.5375
L485.255 -63.3447
L485.206 -63.1519
L485.131 -62.9591
L485.041 -62.7663
L484.949 -62.5735
L484.865 -62.3807
L484.798 -62.1879
L484.753 -61.995
L484.73 -61.8022
L484.729 -61.6094
L484.751 -61.4166
L484.792 -61.2238
L484.852 -61.031
L484.924 -60.8382
L485 -60.6454
L485.069 -60.4526
L485.122 -60.2598
L485.151 -60.0669
L485.154 -59.8741
L485.138 -59.6813
L485.115 -59.4885
L485.1 -59.2957
L485.109 -59.1029
L485.153 -58.9101
L485.237 -58.7173
L485.36 -58.5245
L485.514 -58.3317
L485.69 -58.1388
L485.878 -57.946
L486.074 -57.7532
L486.277 -57.5604
L486.496 -57.3676
L486.739 -57.1748
L487.02 -56.982
L487.345 -56.7892
L487.716 -56.5964
L488.127 -56.4036
L488.561 -56.2107
L488.989 -56.0179
L489.379 -55.8251
L489.696 -55.6323
L489.917 -55.4395
L490.038 -55.2467
L490.075 -55.0539
L490.065 -54.8611
L490.056 -54.6683
L490.096 -54.4755
L490.222 -54.2826
L490.461 -54.0898
L490.823 -53.897
L491.31 -53.7042
L491.916 -53.5114
L492.625 -53.3186
L493.418 -53.1258
L494.265 -52.933
L495.132 -52.7402
L495.986 -52.5474
L496.795 -52.3545
L497.534 -52.1617
L498.188 -51.9689
L498.752 -51.7761
L499.241 -51.5833
L499.685 -51.3905
L500.139 -51.1977
L500.672 -51.0049
L501.361 -50.8121
L502.268 -50.6193
L503.429 -50.4264
L504.841 -50.2336
L506.465 -50.0408
L508.234 -49.848
L510.064 -49.6552
L511.869 -49.4624
L513.565 -49.2696
L515.075 -49.0768
L516.332 -48.884
L517.282 -48.6912
L517.888 -48.4983
L518.13 -48.3055
L518.012 -48.1127
L517.553 -47.9199
L516.778 -47.7271
L515.704 -47.5343
L514.328 -47.3415
L512.635 -47.1487
L510.608 -46.9559
L508.261 -46.7631
L505.654 -46.5702
L502.896 -46.3774
L500.137 -46.1846
L497.525 -45.9918
L495.183 -45.799
L493.179 -45.6062
L491.523 -45.4134
L490.176 -45.2206
L489.074 -45.0278
L488.153 -44.835
L487.363 -44.6421
L486.684 -44.4493
L486.109 -44.2565
L485.643 -44.0637
L485.288 -43.8709
L485.034 -43.6781
L484.866 -43.4853
L484.764 -43.2925
L484.706 -43.0997
L484.676 -42.9069
z
" id="C4_0_7d5db854df"/>
    </defs>
    <g clip-path="url(#pf906d5d462)">
     <use style="fill:#4ea8a1;stroke:#4ea8a1;stroke-width:0.3;" x="0.0" xlink:href="#C4_0_7d5db854df" y="360.0"/>
    </g>
   </g>
   <g id="PolyCollection_6">
    <defs>
     <path d="
M568.356 -39.6573
L568.344 -39.6573
L568.325 -40.5123
L568.259 -41.3674
L568.067 -42.2224
L567.585 -43.0775
L566.533 -43.9325
L564.538 -44.7876
L561.262 -45.6426
L556.628 -46.4977
L551.024 -47.3527
L545.295 -48.2078
L540.433 -49.0628
L537.103 -49.9179
L535.376 -50.7729
L534.87 -51.628
L535.16 -52.483
L536.014 -53.3381
L537.295 -54.1931
L538.83 -55.0482
L540.509 -55.9032
L542.443 -56.7583
L544.849 -57.6133
L547.728 -58.4684
L550.717 -59.3235
L553.307 -60.1785
L555.199 -61.0336
L556.448 -61.8886
L557.331 -62.7437
L558.13 -63.5987
L558.991 -64.4538
L559.917 -65.3088
L560.836 -66.1639
L561.689 -67.0189
L562.465 -67.874
L563.172 -68.729
L563.804 -69.5841
L564.341 -70.4391
L564.761 -71.2942
L565.044 -72.1492
L565.192 -73.0043
L565.25 -73.8593
L565.298 -74.7144
L565.394 -75.5694
L565.543 -76.4245
L565.716 -77.2795
L565.887 -78.1346
L566.043 -78.9896
L566.165 -79.8447
L566.242 -80.6998
L566.304 -81.5548
L566.428 -82.4099
L566.671 -83.2649
L567.007 -84.12
L567.33 -84.975
L567.546 -85.8301
L567.633 -86.6851
L567.645 -87.5402
L567.658 -88.3952
L567.717 -89.2503
L567.823 -90.1053
L567.945 -90.9604
L568.054 -91.8154
L568.139 -92.6705
L568.2 -93.5255
L568.237 -94.3806
L568.251 -95.2356
L568.248 -96.0907
L568.242 -96.9457
L568.246 -97.8008
L568.259 -98.6558
L568.269 -99.5109
L568.266 -100.366
L568.253 -101.221
L568.245 -102.076
L568.254 -102.931
L568.278 -103.786
L568.306 -104.641
L568.328 -105.496
L568.341 -106.351
L568.347 -107.206
L568.349 -108.061
L568.35 -108.916
L568.35 -109.772
L568.35 -110.627
L568.35 -111.482
L568.35 -112.337
L568.35 -113.192
L568.35 -114.047
L568.35 -114.902
L568.35 -115.757
L568.35 -116.612
L568.35 -117.467
L568.35 -118.322
L568.35 -119.177
L568.35 -120.032
L568.35 -120.887
L568.35 -121.742
L568.35 -122.597
L568.35 -123.452
L568.35 -124.307
L568.35 -125.162
L568.35 -126.018
L568.35 -126.873
L568.35 -127.728
L568.35 -128.583
L568.35 -129.438
L568.348 -130.293
L568.344 -131.148
L568.334 -132.003
L568.315 -132.858
L568.288 -133.713
L568.261 -134.568
L568.248 -135.423
L568.256 -136.278
L568.279 -137.133
L568.305 -137.988
L568.319 -138.843
L568.317 -139.698
L568.299 -140.553
L568.273 -141.408
L568.253 -142.263
L568.251 -143.119
L568.268 -143.974
L568.295 -144.829
L568.32 -145.684
L568.337 -146.539
L568.345 -147.394
L568.348 -148.249
L568.352 -148.249
L568.352 -148.249
L568.355 -147.394
L568.363 -146.539
L568.38 -145.684
L568.405 -144.829
L568.432 -143.974
L568.449 -143.119
L568.447 -142.263
L568.427 -141.408
L568.401 -140.553
L568.383 -139.698
L568.381 -138.843
L568.395 -137.988
L568.421 -137.133
L568.444 -136.278
L568.452 -135.423
L568.439 -134.568
L568.412 -133.713
L568.385 -132.858
L568.366 -132.003
L568.356 -131.148
L568.352 -130.293
L568.35 -129.438
L568.35 -128.583
L568.35 -127.728
L568.35 -126.873
L568.35 -126.018
L568.35 -125.162
L568.35 -124.307
L568.35 -123.452
L568.35 -122.597
L568.35 -121.742
L568.35 -120.887
L568.35 -120.032
L568.35 -119.177
L568.35 -118.322
L568.35 -117.467
L568.35 -116.612
L568.35 -115.757
L568.35 -114.902
L568.35 -114.047
L568.35 -113.192
L568.35 -112.337
L568.35 -111.482
L568.35 -110.627
L568.35 -109.772
L568.35 -108.916
L568.351 -108.061
L568.353 -107.206
L568.359 -106.351
L568.372 -105.496
L568.394 -104.641
L568.422 -103.786
L568.446 -102.931
L568.455 -102.076
L568.447 -101.221
L568.434 -100.366
L568.431 -99.5109
L568.441 -98.6558
L568.454 -97.8008
L568.458 -96.9457
L568.452 -96.0907
L568.449 -95.2356
L568.463 -94.3806
L568.5 -93.5255
L568.561 -92.6705
L568.646 -91.8154
L568.755 -90.9604
L568.877 -90.1053
L568.983 -89.2503
L569.042 -88.3952
L569.055 -87.5402
L569.067 -86.6851
L569.154 -85.8301
L569.37 -84.975
L569.693 -84.12
L570.029 -83.2649
L570.272 -82.4099
L570.396 -81.5548
L570.458 -80.6998
L570.535 -79.8447
L570.657 -78.9896
L570.813 -78.1346
L570.984 -77.2795
L571.157 -76.4245
L571.306 -75.5694
L571.402 -74.7144
L571.45 -73.8593
L571.508 -73.0043
L571.656 -72.1492
L571.939 -71.2942
L572.359 -70.4391
L572.896 -69.5841
L573.528 -68.729
L574.235 -67.874
L575.011 -67.0189
L575.864 -66.1639
L576.783 -65.3088
L577.709 -64.4538
L578.57 -63.5987
L579.369 -62.7437
L580.252 -61.8886
L581.501 -61.0336
L583.393 -60.1785
L585.983 -59.3235
L588.972 -58.4684
L591.851 -57.6133
L594.257 -56.7583
L596.191 -55.9032
L597.87 -55.0482
L599.405 -54.1931
L600.686 -53.3381
L601.54 -52.483
L601.83 -51.628
L601.324 -50.7729
L599.597 -49.9179
L596.267 -49.0628
L591.405 -48.2078
L585.676 -47.3527
L580.072 -46.4977
L575.438 -45.6426
L572.162 -44.7876
L570.167 -43.9325
L569.115 -43.0775
L568.633 -42.2224
L568.441 -41.3674
L568.375 -40.5123
L568.356 -39.6573
z
" id="C5_0_01e47e0c7f"/>
    </defs>
    <g clip-path="url(#pf906d5d462)">
     <use style="fill:#57aac9;stroke:#57aac9;stroke-width:0.3;" x="0.0" xlink:href="#C5_0_01e47e0c7f" y="360.0"/>
    </g>
   </g>
   <g id="PolyCollection_7">
    <defs>
     <path d="
M652.056 -46.2354
L652.044 -46.2354
L652.039 -47.0147
L652.03 -47.794
L652.015 -48.5732
L651.989 -49.3525
L651.948 -50.1317
L651.883 -50.911
L651.786 -51.6902
L651.645 -52.4695
L651.444 -53.2488
L651.169 -54.028
L650.801 -54.8073
L650.32 -55.5865
L649.709 -56.3658
L648.951 -57.1451
L648.033 -57.9243
L646.947 -58.7036
L645.696 -59.4828
L644.289 -60.2621
L642.748 -61.0413
L641.105 -61.8206
L639.399 -62.5999
L637.675 -63.3791
L635.978 -64.1584
L634.349 -64.9376
L632.822 -65.7169
L631.414 -66.4962
L630.135 -67.2754
L628.976 -68.0547
L627.922 -68.8339
L626.948 -69.6132
L626.03 -70.3924
L625.147 -71.1717
L624.283 -71.951
L623.435 -72.7302
L622.605 -73.5095
L621.807 -74.2887
L621.059 -75.068
L620.383 -75.8472
L619.797 -76.6265
L619.319 -77.4058
L618.958 -78.185
L618.718 -78.9643
L618.593 -79.7435
L618.57 -80.5228
L618.632 -81.3021
L618.757 -82.0813
L618.926 -82.8606
L619.121 -83.6398
L619.335 -84.4191
L619.571 -85.1983
L619.841 -85.9776
L620.165 -86.7569
L620.563 -87.5361
L621.052 -88.3154
L621.636 -89.0946
L622.304 -89.8739
L623.032 -90.6532
L623.785 -91.4324
L624.523 -92.2117
L625.213 -92.9909
L625.834 -93.7702
L626.379 -94.5494
L626.862 -95.3287
L627.308 -96.108
L627.748 -96.8872
L628.217 -97.6665
L628.742 -98.4457
L629.341 -99.225
L630.023 -100.004
L630.785 -100.784
L631.621 -101.563
L632.518 -102.342
L633.463 -103.121
L634.444 -103.901
L635.448 -104.68
L636.464 -105.459
L637.481 -106.238
L638.493 -107.018
L639.491 -107.797
L640.471 -108.576
L641.43 -109.355
L642.363 -110.135
L643.267 -110.914
L644.136 -111.693
L644.96 -112.472
L645.73 -113.252
L646.434 -114.031
L647.061 -114.81
L647.602 -115.589
L648.054 -116.369
L648.415 -117.148
L648.693 -117.927
L648.896 -118.706
L649.038 -119.486
L649.134 -120.265
L649.201 -121.044
L649.254 -121.823
L649.307 -122.603
L649.372 -123.382
L649.457 -124.161
L649.567 -124.941
L649.705 -125.72
L649.869 -126.499
L650.054 -127.278
L650.255 -128.058
L650.462 -128.837
L650.668 -129.616
L650.866 -130.395
L651.049 -131.175
L651.215 -131.954
L651.362 -132.733
L651.489 -133.512
L651.598 -134.292
L651.691 -135.071
L651.769 -135.85
L651.834 -136.629
L651.887 -137.409
L651.93 -138.188
L651.964 -138.967
L651.99 -139.746
L652.01 -140.526
L652.024 -141.305
L652.033 -142.084
L652.04 -142.863
L652.043 -143.643
L652.045 -144.422
L652.045 -145.201
L652.055 -145.201
L652.055 -145.201
L652.055 -144.422
L652.057 -143.643
L652.06 -142.863
L652.067 -142.084
L652.076 -141.305
L652.09 -140.526
L652.11 -139.746
L652.136 -138.967
L652.17 -138.188
L652.213 -137.409
L652.266 -136.629
L652.331 -135.85
L652.409 -135.071
L652.502 -134.292
L652.611 -133.512
L652.738 -132.733
L652.885 -131.954
L653.051 -131.175
L653.234 -130.395
L653.432 -129.616
L653.638 -128.837
L653.845 -128.058
L654.046 -127.278
L654.231 -126.499
L654.395 -125.72
L654.533 -124.941
L654.643 -124.161
L654.728 -123.382
L654.793 -122.603
L654.846 -121.823
L654.899 -121.044
L654.966 -120.265
L655.062 -119.486
L655.204 -118.706
L655.407 -117.927
L655.685 -117.148
L656.046 -116.369
L656.498 -115.589
L657.039 -114.81
L657.666 -114.031
L658.37 -113.252
L659.14 -112.472
L659.964 -111.693
L660.833 -110.914
L661.737 -110.135
L662.67 -109.355
L663.629 -108.576
L664.609 -107.797
L665.607 -107.018
L666.619 -106.238
L667.636 -105.459
L668.652 -104.68
L669.656 -103.901
L670.637 -103.121
L671.582 -102.342
L672.479 -101.563
L673.315 -100.784
L674.077 -100.004
L674.759 -99.225
L675.358 -98.4457
L675.883 -97.6665
L676.352 -96.8872
L676.792 -96.108
L677.238 -95.3287
L677.721 -94.5494
L678.266 -93.7702
L678.887 -92.9909
L679.577 -92.2117
L680.315 -91.4324
L681.068 -90.6532
L681.796 -89.8739
L682.464 -89.0946
L683.048 -88.3154
L683.537 -87.5361
L683.935 -86.7569
L684.259 -85.9776
L684.529 -85.1983
L684.765 -84.4191
L684.979 -83.6398
L685.174 -82.8606
L685.343 -82.0813
L685.468 -81.3021
L685.53 -80.5228
L685.507 -79.7435
L685.382 -78.9643
L685.142 -78.185
L684.781 -77.4058
L684.303 -76.6265
L683.717 -75.8472
L683.041 -75.068
L682.293 -74.2887
L681.495 -73.5095
L680.665 -72.7302
L679.817 -71.951
L678.953 -71.1717
L678.07 -70.3924
L677.152 -69.6132
L676.178 -68.8339
L675.124 -68.0547
L673.965 -67.2754
L672.686 -66.4962
L671.278 -65.7169
L669.751 -64.9376
L668.122 -64.1584
L666.425 -63.3791
L664.701 -62.5999
L662.995 -61.8206
L661.352 -61.0413
L659.811 -60.2621
L658.404 -59.4828
L657.153 -58.7036
L656.067 -57.9243
L655.149 -57.1451
L654.391 -56.3658
L653.78 -55.5865
L653.299 -54.8073
L652.931 -54.028
L652.656 -53.2488
L652.455 -52.4695
L652.314 -51.6902
L652.217 -50.911
L652.152 -50.1317
L652.111 -49.3525
L652.085 -48.5732
L652.07 -47.794
L652.061 -47.0147
L652.056 -46.2354
z
" id="C6_0_7610365553"/>
    </defs>
    <g clip-path="url(#pf906d5d462)">
     <use style="fill:#b7aae9;stroke:#b7aae9;stroke-width:0.3;" x="0.0" xlink:href="#C6_0_7610365553" y="360.0"/>
    </g>
   </g>
   <g id="PolyCollection_8">
    <defs>
     <path d="
M735.753 -30.6743
L735.747 -30.6743
L735.745 -31.9626
L735.741 -33.2509
L735.733 -34.5393
L735.719 -35.8276
L735.696 -37.116
L735.657 -38.4043
L735.593 -39.6927
L735.493 -40.981
L735.341 -42.2693
L735.116 -43.5577
L734.792 -44.846
L734.344 -46.1344
L733.744 -47.4227
L732.968 -48.711
L732.001 -49.9994
L730.84 -51.2877
L729.501 -52.5761
L728.016 -53.8644
L726.435 -55.1528
L724.82 -56.4411
L723.237 -57.7294
L721.749 -59.0178
L720.401 -60.3061
L719.218 -61.5945
L718.201 -62.8828
L717.324 -64.1712
L716.543 -65.4595
L715.805 -66.7478
L715.054 -68.0362
L714.242 -69.3245
L713.338 -70.6129
L712.324 -71.9012
L711.206 -73.1896
L710.002 -74.4779
L708.746 -75.7662
L707.481 -77.0546
L706.257 -78.3429
L705.126 -79.6313
L704.137 -80.9196
L703.333 -82.208
L702.747 -83.4963
L702.393 -84.7846
L702.27 -86.073
L702.358 -87.3613
L702.62 -88.6497
L703.009 -89.938
L703.476 -91.2264
L703.977 -92.5147
L704.481 -93.803
L704.975 -95.0914
L705.463 -96.3797
L705.966 -97.6681
L706.514 -98.9564
L707.136 -100.245
L707.853 -101.533
L708.672 -102.821
L709.582 -104.11
L710.557 -105.398
L711.56 -106.686
L712.55 -107.975
L713.489 -109.263
L714.348 -110.551
L715.114 -111.84
L715.788 -113.128
L716.383 -114.417
L716.918 -115.705
L717.415 -116.993
L717.893 -118.282
L718.361 -119.57
L718.822 -120.858
L719.27 -122.147
L719.696 -123.435
L720.092 -124.723
L720.452 -126.012
L720.777 -127.3
L721.075 -128.588
L721.361 -129.877
L721.653 -131.165
L721.973 -132.453
L722.339 -133.742
L722.768 -135.03
L723.27 -136.318
L723.849 -137.607
L724.501 -138.895
L725.217 -140.183
L725.981 -141.472
L726.773 -142.76
L727.571 -144.048
L728.353 -145.337
L729.099 -146.625
L729.794 -147.913
L730.427 -149.202
L730.991 -150.49
L731.488 -151.778
L731.922 -153.067
L732.302 -154.355
L732.638 -155.643
L732.94 -156.932
L733.216 -158.22
L733.474 -159.509
L733.717 -160.797
L733.947 -162.085
L734.164 -163.374
L734.368 -164.662
L734.555 -165.95
L734.725 -167.239
L734.876 -168.527
L735.01 -169.815
L735.126 -171.104
L735.226 -172.392
L735.313 -173.68
L735.387 -174.969
L735.452 -176.257
L735.509 -177.545
L735.557 -178.834
L735.599 -180.122
L735.634 -181.41
L735.664 -182.699
L735.687 -183.987
L735.706 -185.275
L735.72 -186.564
L735.73 -187.852
L735.737 -189.14
L735.742 -190.429
L735.745 -191.717
L735.747 -193.005
L735.747 -194.294
L735.753 -194.294
L735.753 -194.294
L735.753 -193.005
L735.755 -191.717
L735.758 -190.429
L735.763 -189.14
L735.77 -187.852
L735.78 -186.564
L735.794 -185.275
L735.813 -183.987
L735.836 -182.699
L735.866 -181.41
L735.901 -180.122
L735.943 -178.834
L735.991 -177.545
L736.048 -176.257
L736.113 -174.969
L736.187 -173.68
L736.274 -172.392
L736.374 -171.104
L736.49 -169.815
L736.624 -168.527
L736.775 -167.239
L736.945 -165.95
L737.132 -164.662
L737.336 -163.374
L737.553 -162.085
L737.783 -160.797
L738.026 -159.509
L738.284 -158.22
L738.56 -156.932
L738.862 -155.643
L739.198 -154.355
L739.578 -153.067
L740.012 -151.778
L740.509 -150.49
L741.073 -149.202
L741.706 -147.913
L742.401 -146.625
L743.147 -145.337
L743.929 -144.048
L744.727 -142.76
L745.519 -141.472
L746.283 -140.183
L746.999 -138.895
L747.651 -137.607
L748.23 -136.318
L748.732 -135.03
L749.161 -133.742
L749.527 -132.453
L749.847 -131.165
L750.139 -129.877
L750.425 -128.588
L750.723 -127.3
L751.048 -126.012
L751.408 -124.723
L751.804 -123.435
L752.23 -122.147
L752.678 -120.858
L753.139 -119.57
L753.607 -118.282
L754.085 -116.993
L754.582 -115.705
L755.117 -114.417
L755.712 -113.128
L756.386 -111.84
L757.152 -110.551
L758.011 -109.263
L758.95 -107.975
L759.94 -106.686
L760.943 -105.398
L761.918 -104.11
L762.828 -102.821
L763.647 -101.533
L764.364 -100.245
L764.986 -98.9564
L765.534 -97.6681
L766.037 -96.3797
L766.525 -95.0914
L767.019 -93.803
L767.523 -92.5147
L768.024 -91.2264
L768.491 -89.938
L768.88 -88.6497
L769.142 -87.3613
L769.23 -86.073
L769.107 -84.7846
L768.753 -83.4963
L768.167 -82.208
L767.363 -80.9196
L766.374 -79.6313
L765.243 -78.3429
L764.019 -77.0546
L762.754 -75.7662
L761.498 -74.4779
L760.294 -73.1896
L759.176 -71.9012
L758.162 -70.6129
L757.258 -69.3245
L756.446 -68.0362
L755.695 -66.7478
L754.957 -65.4595
L754.176 -64.1712
L753.299 -62.8828
L752.282 -61.5945
L751.099 -60.3061
L749.751 -59.0178
L748.263 -57.7294
L746.68 -56.4411
L745.065 -55.1528
L743.484 -53.8644
L741.999 -52.5761
L740.66 -51.2877
L739.499 -49.9994
L738.532 -48.711
L737.756 -47.4227
L737.156 -46.1344
L736.708 -44.846
L736.384 -43.5577
L736.159 -42.2693
L736.007 -40.981
L735.907 -39.6927
L735.843 -38.4043
L735.804 -37.116
L735.781 -35.8276
L735.767 -34.5393
L735.759 -33.2509
L735.755 -31.9626
L735.753 -30.6743
z
" id="C7_0_2102a05aab"/>
    </defs>
    <g clip-path="url(#pf906d5d462)">
     <use style="fill:#e48fd5;stroke:#e48fd5;stroke-width:0.3;" x="0.0" xlink:href="#C7_0_2102a05aab" y="360.0"/>
    </g>
   </g>
   <g id="line2d_21">
    <path clip-path="url(#pf906d5d462)" d="
M116.615 288.574
L183.085 288.574" style="fill:none;stroke:#464646;stroke-dasharray:1.000000,3.000000;stroke-dashoffset:0.0;stroke-width:1.5;"/>
   </g>
   <g id="line2d_22">
    <path clip-path="url(#pf906d5d462)" d="
M127.731 255.682
L171.969 255.682" style="fill:none;stroke:#464646;stroke-dasharray:1.000000,3.000000;stroke-dashoffset:0.0;stroke-width:1.5;"/>
   </g>
   <g id="line2d_23">
    <path clip-path="url(#pf906d5d462)" d="
M118.875 272.708
L180.825 272.708" style="fill:none;stroke:#464646;stroke-dasharray:6.000000,6.000000;stroke-dashoffset:0.0;stroke-width:1.5;"/>
   </g>
   <g id="line2d_24">
    <path clip-path="url(#pf906d5d462)" d="
M149.843 334.132
L149.772 328.423
L149.555 324.617
L149.332 322.714
L148.992 320.811
L148.505 318.908
L147.836 317.005
L146.95 315.102
L145.809 313.199
L144.376 311.296
L142.622 309.393
L140.537 307.49
L138.134 305.587
L135.457 303.684
L129.564 299.878
L123.674 296.072
L121.099 294.169
L118.994 292.266
L117.486 290.363
L116.627 288.46
L116.37 286.557
L116.579 284.653
L118.475 277.041
L119.406 269.429
L120.011 267.526
L120.872 265.623
L121.958 263.72
L124.556 259.914
L128.879 254.205
L133.23 248.496
L135.679 244.69
L137.619 240.884
L140.019 235.175
L142.241 229.466
L143.518 225.659
L144.551 221.853
L146.739 212.338
L147.45 208.532
L147.954 204.726
L148.453 199.017
L148.873 191.405
L149.475 172.375
L149.496 166.665
L149.366 155.247
L149.725 138.12
L149.732 120.993
L149.642 111.477
L149.846 92.4471
L149.846 92.4471" style="fill:none;stroke:#464646;stroke-linecap:round;stroke-width:1.5;"/>
   </g>
   <g id="line2d_25">
    <path clip-path="url(#pf906d5d462)" d="
M149.857 334.132
L149.928 328.423
L150.145 324.617
L150.368 322.714
L150.708 320.811
L151.195 318.908
L151.864 317.005
L152.75 315.102
L153.891 313.199
L155.324 311.296
L157.078 309.393
L159.163 307.49
L161.566 305.587
L164.243 303.684
L170.136 299.878
L176.026 296.072
L178.601 294.169
L180.706 292.266
L182.214 290.363
L183.073 288.46
L183.33 286.557
L183.121 284.653
L181.225 277.041
L180.294 269.429
L179.689 267.526
L178.828 265.623
L177.742 263.72
L175.144 259.914
L170.821 254.205
L166.47 248.496
L164.021 244.69
L162.081 240.884
L159.681 235.175
L157.459 229.466
L156.182 225.659
L155.149 221.853
L152.961 212.338
L152.25 208.532
L151.746 204.726
L151.247 199.017
L150.827 191.405
L150.225 172.375
L150.204 166.665
L150.334 155.247
L149.975 138.12
L149.968 120.993
L150.058 111.477
L149.854 92.4471
L149.854 92.4471" style="fill:none;stroke:#464646;stroke-linecap:round;stroke-width:1.5;"/>
   </g>
   <g id="line2d_26">
    <path clip-path="url(#pf906d5d462)" d="
M201.805 271.547
L265.295 271.547" style="fill:none;stroke:#464646;stroke-dasharray:1.000000,3.000000;stroke-dashoffset:0.0;stroke-width:1.5;"/>
   </g>
   <g id="line2d_27">
    <path clip-path="url(#pf906d5d462)" d="
M213.252 251.655
L253.848 251.655" style="fill:none;stroke:#464646;stroke-dasharray:1.000000,3.000000;stroke-dashoffset:0.0;stroke-width:1.5;"/>
   </g>
   <g id="line2d_28">
    <path clip-path="url(#pf906d5d462)" d="
M202.13 263.235
L264.97 263.235" style="fill:none;stroke:#464646;stroke-dasharray:6.000000,6.000000;stroke-dashoffset:0.0;stroke-width:1.5;"/>
   </g>
   <g id="line2d_29">
    <path clip-path="url(#pf906d5d462)" d="
M233.545 303.384
L233.469 299.098
L233.183 295.883
L232.792 293.74
L232.204 291.597
L231.329 289.454
L230.713 288.383
L229.923 287.311
L228.92 286.24
L227.67 285.168
L226.157 284.097
L224.381 283.026
L220.131 280.883
L212.719 277.668
L207.936 275.525
L205.856 274.454
L204.081 273.382
L202.647 272.311
L201.553 271.239
L200.778 270.168
L200.29 269.096
L200.07 268.025
L200.11 266.953
L200.41 265.882
L200.96 264.81
L201.726 263.739
L203.665 261.596
L213.012 251.953
L214.38 249.81
L216.131 246.595
L216.917 245.524
L217.87 244.452
L220.21 242.309
L225.335 238.023
L227.409 235.88
L228.235 234.809
L228.916 233.737
L229.458 232.666
L230.177 230.523
L230.531 228.38
L231.273 220.88
L232.891 213.379
L233.157 210.165
L233.328 204.807
L233.537 186.592
L233.518 172.663
L233.547 167.306
L233.547 167.306" style="fill:none;stroke:#464646;stroke-linecap:round;stroke-width:1.5;"/>
   </g>
   <g id="line2d_30">
    <path clip-path="url(#pf906d5d462)" d="
M233.555 303.384
L233.631 299.098
L233.917 295.883
L234.308 293.74
L234.896 291.597
L235.771 289.454
L236.387 288.383
L237.177 287.311
L238.18 286.24
L239.43 285.168
L240.943 284.097
L242.719 283.026
L246.969 280.883
L254.381 277.668
L259.164 275.525
L261.244 274.454
L263.019 273.382
L264.453 272.311
L265.547 271.239
L266.322 270.168
L266.81 269.096
L267.03 268.025
L266.99 266.953
L266.69 265.882
L266.14 264.81
L265.374 263.739
L263.435 261.596
L254.088 251.953
L252.72 249.81
L250.969 246.595
L250.183 245.524
L249.23 244.452
L246.89 242.309
L241.765 238.023
L239.691 235.88
L238.865 234.809
L238.184 233.737
L237.642 232.666
L236.923 230.523
L236.569 228.38
L235.827 220.88
L234.209 213.379
L233.943 210.165
L233.772 204.807
L233.563 186.592
L233.582 172.663
L233.553 167.306
L233.553 167.306" style="fill:none;stroke:#464646;stroke-linecap:round;stroke-width:1.5;"/>
   </g>
   <g id="line2d_31">
    <path clip-path="url(#pf906d5d462)" d="
M283.935 281.61
L350.565 281.61" style="fill:none;stroke:#464646;stroke-dasharray:1.000000,3.000000;stroke-dashoffset:0.0;stroke-width:1.5;"/>
   </g>
   <g id="line2d_32">
    <path clip-path="url(#pf906d5d462)" d="
M297.292 237.787
L337.208 237.787" style="fill:none;stroke:#464646;stroke-dasharray:1.000000,3.000000;stroke-dashoffset:0.0;stroke-width:1.5;"/>
   </g>
   <g id="line2d_33">
    <path clip-path="url(#pf906d5d462)" d="
M288.371 262.012
L346.129 262.012" style="fill:none;stroke:#464646;stroke-dasharray:6.000000,6.000000;stroke-dashoffset:0.0;stroke-width:1.5;"/>
   </g>
   <g id="line2d_34">
    <path clip-path="url(#pf906d5d462)" d="
M317.242 338.948
L317.115 330.183
L316.916 326.677
L316.522 323.171
L315.836 319.664
L314.76 316.158
L314.051 314.405
L313.216 312.652
L312.249 310.899
L311.143 309.146
L309.89 307.393
L308.48 305.64
L306.903 303.886
L305.149 302.133
L303.216 300.38
L298.871 296.874
L291.893 291.615
L289.765 289.862
L287.887 288.109
L286.331 286.355
L285.143 284.602
L284.336 282.849
L283.893 281.096
L283.77 279.343
L283.907 277.59
L284.236 275.837
L285.219 272.331
L287.93 263.565
L291.45 251.293
L292.802 247.787
L295.242 242.528
L296.802 239.022
L298.036 235.516
L298.949 232.009
L300.292 226.75
L301.575 223.244
L303.214 219.738
L305.796 214.478
L307.235 210.972
L308.977 205.713
L310.74 200.454
L313.224 193.441
L314.17 189.935
L314.762 186.429
L315.017 182.923
L315.02 177.663
L315.024 172.404
L315.195 168.898
L315.684 163.639
L316.562 154.873
L316.887 149.614
L317.072 142.601
L317.245 119.811
L317.245 116.305
L317.245 116.305" style="fill:none;stroke:#464646;stroke-linecap:round;stroke-width:1.5;"/>
   </g>
   <g id="line2d_35">
    <path clip-path="url(#pf906d5d462)" d="
M317.258 338.948
L317.385 330.183
L317.584 326.677
L317.978 323.171
L318.664 319.664
L319.74 316.158
L320.449 314.405
L321.284 312.652
L322.251 310.899
L323.357 309.146
L324.61 307.393
L326.02 305.64
L327.597 303.886
L329.351 302.133
L331.284 300.38
L335.629 296.874
L342.607 291.615
L344.735 289.862
L346.613 288.109
L348.169 286.355
L349.357 284.602
L350.164 282.849
L350.607 281.096
L350.73 279.343
L350.593 277.59
L350.264 275.837
L349.281 272.331
L346.57 263.565
L343.05 251.293
L341.698 247.787
L339.258 242.528
L337.698 239.022
L336.464 235.516
L335.551 232.009
L334.208 226.75
L332.925 223.244
L331.286 219.738
L328.704 214.478
L327.265 210.972
L325.523 205.713
L323.76 200.454
L321.276 193.441
L320.33 189.935
L319.738 186.429
L319.483 182.923
L319.48 177.663
L319.476 172.404
L319.305 168.898
L318.816 163.639
L317.938 154.873
L317.613 149.614
L317.428 142.601
L317.255 119.811
L317.255 116.305
L317.255 116.305" style="fill:none;stroke:#464646;stroke-linecap:round;stroke-width:1.5;"/>
   </g>
   <g id="line2d_36">
    <path clip-path="url(#pf906d5d462)" d="
M367.538 313.913
L434.362 313.913" style="fill:none;stroke:#464646;stroke-dasharray:1.000000,3.000000;stroke-dashoffset:0.0;stroke-width:1.5;"/>
   </g>
   <g id="line2d_37">
    <path clip-path="url(#pf906d5d462)" d="
M392.029 301.099
L409.871 301.099" style="fill:none;stroke:#464646;stroke-dasharray:1.000000,3.000000;stroke-dashoffset:0.0;stroke-width:1.5;"/>
   </g>
   <g id="line2d_38">
    <path clip-path="url(#pf906d5d462)" d="
M377.466 310.258
L424.434 310.258" style="fill:none;stroke:#464646;stroke-dasharray:6.000000,6.000000;stroke-dashoffset:0.0;stroke-width:1.5;"/>
   </g>
   <g id="line2d_39">
    <path clip-path="url(#pf906d5d462)" d="
M400.759 322.454
L400.423 321.575
L399.653 320.696
L398.108 319.817
L395.391 318.938
L391.23 318.059
L385.716 317.18
L373.628 315.421
L369.353 314.542
L367.47 313.663
L368.081 312.784
L370.613 311.905
L381.19 309.268
L383.879 308.389
L385.918 307.51
L387.397 306.631
L388.449 305.752
L389.853 303.994
L391.114 302.236
L393.814 298.72
L395.953 295.204
L396.815 293.446
L397.279 291.688
L398.102 287.293
L398.895 282.898
L399.283 279.382
L399.912 267.075
L400.491 260.922
L400.456 255.648
L400.747 248.616
L400.583 245.1
L400.495 241.584
L400.625 236.309
L400.921 231.914
L400.932 226.64
L400.864 216.971
L400.93 211.697
L400.888 210.818
L400.888 210.818" style="fill:none;stroke:#464646;stroke-linecap:round;stroke-width:1.5;"/>
   </g>
   <g id="line2d_40">
    <path clip-path="url(#pf906d5d462)" d="
M401.141 322.454
L401.477 321.575
L402.247 320.696
L403.792 319.817
L406.509 318.938
L410.67 318.059
L416.184 317.18
L428.272 315.421
L432.547 314.542
L434.43 313.663
L433.819 312.784
L431.287 311.905
L420.71 309.268
L418.021 308.389
L415.982 307.51
L414.503 306.631
L413.451 305.752
L412.047 303.994
L410.786 302.236
L408.086 298.72
L405.947 295.204
L405.085 293.446
L404.621 291.688
L403.798 287.293
L403.005 282.898
L402.617 279.382
L401.988 267.075
L401.409 260.922
L401.444 255.648
L401.153 248.616
L401.317 245.1
L401.405 241.584
L401.275 236.309
L400.979 231.914
L400.968 226.64
L401.036 216.971
L400.97 211.697
L401.012 210.818
L401.012 210.818" style="fill:none;stroke:#464646;stroke-linecap:round;stroke-width:1.5;"/>
   </g>
   <g id="line2d_41">
    <path clip-path="url(#pf906d5d462)" d="
M452.768 312.329
L516.532 312.329" style="fill:none;stroke:#464646;stroke-dasharray:1.000000,3.000000;stroke-dashoffset:0.0;stroke-width:1.5;"/>
   </g>
   <g id="line2d_42">
    <path clip-path="url(#pf906d5d462)" d="
M469.342 308.73
L499.958 308.73" style="fill:none;stroke:#464646;stroke-dasharray:1.000000,3.000000;stroke-dashoffset:0.0;stroke-width:1.5;"/>
   </g>
   <g id="line2d_43">
    <path clip-path="url(#pf906d5d462)" d="
M453.736 310.989
L515.564 310.989" style="fill:none;stroke:#464646;stroke-dasharray:6.000000,6.000000;stroke-dashoffset:0.0;stroke-width:1.5;"/>
   </g>
   <g id="line2d_44">
    <path clip-path="url(#pf906d5d462)" d="
M484.624 317.093
L484.434 316.515
L484.012 316.129
L483.191 315.743
L481.147 315.165
L479.124 314.779
L476.121 314.394
L469.163 313.815
L456.665 312.851
L452.522 312.273
L451.288 311.887
L451.17 311.694
L451.412 311.502
L452.968 311.116
L457.431 310.538
L465.871 309.574
L467.939 309.188
L469.615 308.61
L471.112 308.031
L473.314 307.453
L477.99 306.296
L478.839 305.91
L479.204 305.525
L479.383 304.56
L479.921 304.175
L482.804 302.632
L483.786 301.668
L484.147 301.09
L484.185 300.511
L484.178 299.74
L484.547 298.005
L484.259 297.234
L484.045 296.655
L484.092 296.077
L484.515 294.534
L484.643 292.799
L484.638 292.606
L484.638 292.606" style="fill:none;stroke:#464646;stroke-linecap:round;stroke-width:1.5;"/>
   </g>
   <g id="line2d_45">
    <path clip-path="url(#pf906d5d462)" d="
M484.676 317.093
L484.866 316.515
L485.288 316.129
L486.109 315.743
L488.153 315.165
L490.176 314.779
L493.179 314.394
L500.137 313.815
L512.635 312.851
L516.778 312.273
L518.012 311.887
L518.13 311.694
L517.888 311.502
L516.332 311.116
L511.869 310.538
L503.429 309.574
L501.361 309.188
L499.685 308.61
L498.188 308.031
L495.986 307.453
L491.31 306.296
L490.461 305.91
L490.096 305.525
L489.917 304.56
L489.379 304.175
L486.496 302.632
L485.514 301.668
L485.153 301.09
L485.115 300.511
L485.122 299.74
L484.753 298.005
L485.041 297.234
L485.255 296.655
L485.208 296.077
L484.785 294.534
L484.657 292.799
L484.662 292.606
L484.662 292.606" style="fill:none;stroke:#464646;stroke-linecap:round;stroke-width:1.5;"/>
   </g>
   <g id="line2d_46">
    <path clip-path="url(#pf906d5d462)" d="
M535.183 309.071
L601.517 309.071" style="fill:none;stroke:#464646;stroke-dasharray:1.000000,3.000000;stroke-dashoffset:0.0;stroke-width:1.5;"/>
   </g>
   <g id="line2d_47">
    <path clip-path="url(#pf906d5d462)" d="
M553.717 299.67
L582.983 299.67" style="fill:none;stroke:#464646;stroke-dasharray:1.000000,3.000000;stroke-dashoffset:0.0;stroke-width:1.5;"/>
   </g>
   <g id="line2d_48">
    <path clip-path="url(#pf906d5d462)" d="
M538.055 305.367
L598.645 305.367" style="fill:none;stroke:#464646;stroke-dasharray:6.000000,6.000000;stroke-dashoffset:0.0;stroke-width:1.5;"/>
   </g>
   <g id="line2d_49">
    <path clip-path="url(#pf906d5d462)" d="
M568.344 320.343
L568.259 318.633
L568.067 317.778
L567.585 316.923
L566.533 316.067
L564.538 315.212
L561.262 314.357
L556.628 313.502
L540.433 310.937
L537.103 310.082
L535.376 309.227
L534.87 308.372
L535.16 307.517
L536.014 306.662
L537.295 305.807
L540.509 304.097
L542.443 303.242
L544.849 302.387
L553.307 299.821
L555.199 298.966
L556.448 298.111
L561.689 292.981
L563.172 291.271
L564.341 289.561
L564.761 288.706
L565.044 287.851
L565.25 286.141
L565.394 284.431
L566.242 279.3
L566.428 277.59
L567.007 275.88
L567.546 274.17
L567.645 272.46
L567.717 270.75
L568.2 266.474
L568.242 263.054
L568.315 227.142
L568.279 222.867
L568.299 219.447
L568.268 216.026
L568.348 211.751
L568.348 211.751" style="fill:none;stroke:#464646;stroke-linecap:round;stroke-width:1.5;"/>
   </g>
   <g id="line2d_50">
    <path clip-path="url(#pf906d5d462)" d="
M568.356 320.343
L568.441 318.633
L568.633 317.778
L569.115 316.923
L570.167 316.067
L572.162 315.212
L575.438 314.357
L580.072 313.502
L596.267 310.937
L599.597 310.082
L601.324 309.227
L601.83 308.372
L601.54 307.517
L600.686 306.662
L599.405 305.807
L596.191 304.097
L594.257 303.242
L591.851 302.387
L583.393 299.821
L581.501 298.966
L580.252 298.111
L575.011 292.981
L573.528 291.271
L572.359 289.561
L571.939 288.706
L571.656 287.851
L571.45 286.141
L571.306 284.431
L570.458 279.3
L570.272 277.59
L569.693 275.88
L569.154 274.17
L569.055 272.46
L568.983 270.75
L568.5 266.474
L568.458 263.054
L568.385 227.142
L568.421 222.867
L568.401 219.447
L568.432 216.026
L568.352 211.751
L568.352 211.751" style="fill:none;stroke:#464646;stroke-linecap:round;stroke-width:1.5;"/>
   </g>
   <g id="line2d_51">
    <path clip-path="url(#pf906d5d462)" d="
M620.88 284.751
L683.22 284.751" style="fill:none;stroke:#464646;stroke-dasharray:1.000000,3.000000;stroke-dashoffset:0.0;stroke-width:1.5;"/>
   </g>
   <g id="line2d_52">
    <path clip-path="url(#pf906d5d462)" d="
M627.497 263.554
L676.603 263.554" style="fill:none;stroke:#464646;stroke-dasharray:1.000000,3.000000;stroke-dashoffset:0.0;stroke-width:1.5;"/>
   </g>
   <g id="line2d_53">
    <path clip-path="url(#pf906d5d462)" d="
M619.432 275.227
L684.668 275.227" style="fill:none;stroke:#464646;stroke-dasharray:6.000000,6.000000;stroke-dashoffset:0.0;stroke-width:1.5;"/>
   </g>
   <g id="line2d_54">
    <path clip-path="url(#pf906d5d462)" d="
M652.044 313.765
L651.948 309.868
L651.645 307.53
L651.169 305.972
L650.32 304.413
L649.709 303.634
L648.951 302.855
L646.947 301.296
L644.289 299.738
L641.105 298.179
L632.822 294.283
L630.135 292.725
L627.922 291.166
L625.147 288.828
L621.807 285.711
L620.383 284.153
L619.319 282.594
L618.718 281.036
L618.57 279.477
L618.757 277.919
L619.335 275.581
L619.841 274.022
L620.563 272.464
L621.636 270.905
L623.785 268.568
L625.213 267.009
L626.379 265.451
L629.341 260.775
L630.785 259.216
L632.518 257.658
L636.464 254.541
L641.43 250.645
L644.136 248.307
L645.73 246.748
L647.061 245.19
L648.054 243.631
L648.693 242.073
L649.038 240.514
L649.254 238.177
L649.567 235.059
L650.054 232.722
L651.362 227.267
L651.769 224.15
L651.99 220.254
L652.045 214.799
L652.045 214.799" style="fill:none;stroke:#464646;stroke-linecap:round;stroke-width:1.5;"/>
   </g>
   <g id="line2d_55">
    <path clip-path="url(#pf906d5d462)" d="
M652.056 313.765
L652.152 309.868
L652.455 307.53
L652.931 305.972
L653.78 304.413
L654.391 303.634
L655.149 302.855
L657.153 301.296
L659.811 299.738
L662.995 298.179
L671.278 294.283
L673.965 292.725
L676.178 291.166
L678.953 288.828
L682.293 285.711
L683.717 284.153
L684.781 282.594
L685.382 281.036
L685.53 279.477
L685.343 277.919
L684.765 275.581
L684.259 274.022
L683.537 272.464
L682.464 270.905
L680.315 268.568
L678.887 267.009
L677.721 265.451
L674.759 260.775
L673.315 259.216
L671.582 257.658
L667.636 254.541
L662.67 250.645
L659.964 248.307
L658.37 246.748
L657.039 245.19
L656.046 243.631
L655.407 242.073
L655.062 240.514
L654.846 238.177
L654.533 235.059
L654.046 232.722
L652.738 227.267
L652.331 224.15
L652.11 220.254
L652.055 214.799
L652.055 214.799" style="fill:none;stroke:#464646;stroke-linecap:round;stroke-width:1.5;"/>
   </g>
   <g id="line2d_56">
    <path clip-path="url(#pf906d5d462)" d="
M705.318 280.625
L766.182 280.625" style="fill:none;stroke:#464646;stroke-dasharray:1.000000,3.000000;stroke-dashoffset:0.0;stroke-width:1.5;"/>
   </g>
   <g id="line2d_57">
    <path clip-path="url(#pf906d5d462)" d="
M716.541 245.24
L754.959 245.24" style="fill:none;stroke:#464646;stroke-dasharray:1.000000,3.000000;stroke-dashoffset:0.0;stroke-width:1.5;"/>
   </g>
   <g id="line2d_58">
    <path clip-path="url(#pf906d5d462)" d="
M704.65 265.754
L766.85 265.754" style="fill:none;stroke:#464646;stroke-dasharray:6.000000,6.000000;stroke-dashoffset:0.0;stroke-width:1.5;"/>
   </g>
   <g id="line2d_59">
    <path clip-path="url(#pf906d5d462)" d="
M735.747 329.326
L735.657 321.596
L735.493 319.019
L735.116 316.442
L734.792 315.154
L734.344 313.866
L733.744 312.577
L732.968 311.289
L732.001 310.001
L730.84 308.712
L728.016 306.136
L721.749 300.982
L720.401 299.694
L719.218 298.406
L717.324 295.829
L713.338 289.387
L711.206 286.81
L705.126 280.369
L704.137 279.08
L703.333 277.792
L702.747 276.504
L702.393 275.215
L702.27 273.927
L702.358 272.639
L702.62 271.35
L703.476 268.774
L706.514 261.044
L707.853 258.467
L709.582 255.89
L714.348 249.449
L715.788 246.872
L716.918 244.295
L718.822 239.142
L720.092 235.277
L721.075 231.412
L721.973 227.547
L722.768 224.97
L723.849 222.393
L725.217 219.817
L729.794 212.087
L730.991 209.51
L731.922 206.933
L732.638 204.357
L733.474 200.491
L734.368 195.338
L735.01 190.185
L735.387 185.031
L735.634 178.59
L735.742 169.571
L735.747 165.706
L735.747 165.706" style="fill:none;stroke:#464646;stroke-linecap:round;stroke-width:1.5;"/>
   </g>
   <g id="line2d_60">
    <path clip-path="url(#pf906d5d462)" d="
M735.753 329.326
L735.843 321.596
L736.007 319.019
L736.384 316.442
L736.708 315.154
L737.156 313.866
L737.756 312.577
L738.532 311.289
L739.499 310.001
L740.66 308.712
L743.484 306.136
L749.751 300.982
L751.099 299.694
L752.282 298.406
L754.176 295.829
L758.162 289.387
L760.294 286.81
L766.374 280.369
L767.363 279.08
L768.167 277.792
L768.753 276.504
L769.107 275.215
L769.23 273.927
L769.142 272.639
L768.88 271.35
L768.024 268.774
L764.986 261.044
L763.647 258.467
L761.918 255.89
L757.152 249.449
L755.712 246.872
L754.582 244.295
L752.678 239.142
L751.408 235.277
L750.425 231.412
L749.527 227.547
L748.732 224.97
L747.651 222.393
L746.283 219.817
L741.706 212.087
L740.509 209.51
L739.578 206.933
L738.862 204.357
L738.026 200.491
L737.132 195.338
L736.49 190.185
L736.113 185.031
L735.866 178.59
L735.758 169.571
L735.753 165.706
L735.753 165.706" style="fill:none;stroke:#464646;stroke-linecap:round;stroke-width:1.5;"/>
   </g>
   <g id="patch_3">
    <path d="
M108 315
L777.6 315" style="fill:none;stroke:#000000;"/>
   </g>
   <g id="patch_4">
    <path d="
M108 315
L108 36" style="fill:none;stroke:#000000;"/>
   </g>
  </g>
 </g>
 <defs>
  <clipPath id="pf906d5d462">
   <rect height="279.0" width="669.6" x="108.0" y="36.0"/>
  </clipPath>
 </defs>
</svg>
