<?xml version="1.0" encoding="utf-8" standalone="no"?>
<!DOCTYPE svg PUBLIC "-//W3C//DTD SVG 1.1//EN"
  "http://www.w3.org/Graphics/SVG/1.1/DTD/svg11.dtd">
<!-- Created with matplotlib (http://matplotlib.org/) -->
<svg height="432pt" version="1.1" viewBox="0 0 576 432" width="576pt" xmlns="http://www.w3.org/2000/svg" xmlns:xlink="http://www.w3.org/1999/xlink">
 <defs>
  <style type="text/css">
*{stroke-linecap:butt;stroke-linejoin:round;}
  </style>
 </defs>
 <g id="figure_1">
  <g id="patch_1">
   <path d="
M0 432
L576 432
L576 0
L0 0
z
" style="fill:#ffffff;"/>
  </g>
  <g id="patch_2">
   <path d="
M0 432
L576 432
L576 0
L0 0
z
" style="fill:#eaeaf2;"/>
  </g>
  <g id="pane3d_1">
   <g id="patch_3">
    <path d="
M295.784 194.205
L517.687 300.312
L533.059 113.767
L295.784 11.0056" style="fill:#f2f2f2;opacity:0.5;stroke:#f2f2f2;stroke-linejoin:miter;stroke-width:0.3;"/>
   </g>
  </g>
  <g id="pane3d_2">
   <g id="patch_4">
    <path d="
M295.784 194.205
L73.8808 300.312
L58.5082 113.767
L295.784 11.0056" style="fill:#e6e6e6;opacity:0.5;stroke:#e6e6e6;stroke-linejoin:miter;stroke-width:0.3;"/>
   </g>
  </g>
  <g id="pane3d_3">
   <g id="patch_5">
    <path d="
M295.784 194.205
L73.8808 300.312
L295.784 418.673
L517.687 300.312" style="fill:#ececec;opacity:0.5;stroke:#ececec;stroke-linejoin:miter;stroke-width:0.3;"/>
   </g>
  </g>
  <g id="axis3d_1">
   <g id="line2d_1">
    <path d="
M517.687 300.312
L295.784 418.673" style="fill:none;stroke:#000000;stroke-linecap:round;stroke-width:0.75;"/>
   </g>
   <g id="text_1">
    <!-- X -->
    <defs>
     <path d="
M6.29688 72.9062
L16.8906 72.9062
L35.0156 45.7969
L53.2188 72.9062
L63.8125 72.9062
L40.375 37.8906
L65.375 0
L54.7812 0
L34.2812 31
L13.625 0
L2.98438 0
L29 38.9219
z
" id="BitstreamVeraSans-Roman-58"/>
    </defs>
    <g style="fill:#262626;" transform="translate(435.42639646 398.421706886)scale(0.11 -0.11)">
     <use xlink:href="#BitstreamVeraSans-Roman-58"/>
    </g>
   </g>
   <g id="Line3DCollection_1">
    <defs>
     <path d="
M513.486 -129.448
L291.571 -235.78
L291.295 -419.05" id="C0_0_c68a4c1255"/>
     <path d="
M484.435 -113.952
L262.447 -221.854
L260.246 -405.603" id="C0_1_3f87d5b0dd"/>
     <path d="
M454.941 -98.2203
L232.904 -207.727
L228.72 -391.95" id="C0_2_c1e7907170"/>
     <path d="
M424.995 -82.2473
L202.931 -193.396
L196.705 -378.084" id="C0_3_7f136a6a86"/>
     <path d="
M394.586 -66.0274
L172.52 -178.854
L164.19 -364.002" id="C0_4_8d4449b82c"/>
     <path d="
M363.704 -49.5549
L141.66 -164.098
L131.163 -349.699" id="C0_5_a28aac800c"/>
     <path d="
M332.336 -32.8238
L110.342 -149.123
L97.6124 -335.168" id="C0_6_51984942a4"/>
     <path d="
M300.473 -15.828
L78.5561 -133.924
L63.5249 -320.405" id="C0_7_5f001f4162"/>
    </defs>
    <use style="fill:none;stroke:#e6e6e6;stroke-width:1.75;" x="0.0" xlink:href="#C0_0_c68a4c1255" y="432.0"/>
    <use style="fill:none;stroke:#e6e6e6;stroke-width:1.75;" x="0.0" xlink:href="#C0_1_3f87d5b0dd" y="432.0"/>
    <use style="fill:none;stroke:#e6e6e6;stroke-width:1.75;" x="0.0" xlink:href="#C0_2_c1e7907170" y="432.0"/>
    <use style="fill:none;stroke:#e6e6e6;stroke-width:1.75;" x="0.0" xlink:href="#C0_3_7f136a6a86" y="432.0"/>
    <use style="fill:none;stroke:#e6e6e6;stroke-width:1.75;" x="0.0" xlink:href="#C0_4_8d4449b82c" y="432.0"/>
    <use style="fill:none;stroke:#e6e6e6;stroke-width:1.75;" x="0.0" xlink:href="#C0_5_a28aac800c" y="432.0"/>
    <use style="fill:none;stroke:#e6e6e6;stroke-width:1.75;" x="0.0" xlink:href="#C0_6_51984942a4" y="432.0"/>
    <use style="fill:none;stroke:#e6e6e6;stroke-width:1.75;" x="0.0" xlink:href="#C0_7_5f001f4162" y="432.0"/>
   </g>
   <g id="xtick_1">
    <g id="line2d_2">
     <path clip-path="url(#p5a67343740)" d="
M295.784 210.162" style="fill:none;stroke:#ffffff;stroke-linecap:round;"/>
    </g>
    <g id="line2d_3">
     <path d="
M511.615 301.655
L517.234 304.348" style="fill:none;stroke:#262626;stroke-linecap:round;stroke-width:1.75;"/>
    </g>
    <g id="text_2">
     <!-- −0.6 -->
     <defs>
      <path d="
M10.5938 35.5
L73.1875 35.5
L73.1875 27.2031
L10.5938 27.2031
z
" id="BitstreamVeraSans-Roman-2212"/>
      <path d="
M33.0156 40.375
Q26.375 40.375 22.4844 35.8281
Q18.6094 31.2969 18.6094 23.3906
Q18.6094 15.5312 22.4844 10.9531
Q26.375 6.39062 33.0156 6.39062
Q39.6562 6.39062 43.5312 10.9531
Q47.4062 15.5312 47.4062 23.3906
Q47.4062 31.2969 43.5312 35.8281
Q39.6562 40.375 33.0156 40.375
M52.5938 71.2969
L52.5938 62.3125
Q48.875 64.0625 45.0938 64.9844
Q41.3125 65.9219 37.5938 65.9219
Q27.8281 65.9219 22.6719 59.3281
Q17.5312 52.7344 16.7969 39.4062
Q19.6719 43.6562 24.0156 45.9219
Q28.375 48.1875 33.5938 48.1875
Q44.5781 48.1875 50.9531 41.5156
Q57.3281 34.8594 57.3281 23.3906
Q57.3281 12.1562 50.6875 5.35938
Q44.0469 -1.42188 33.0156 -1.42188
Q20.3594 -1.42188 13.6719 8.26562
Q6.98438 17.9688 6.98438 36.375
Q6.98438 53.6562 15.1875 63.9375
Q23.3906 74.2188 37.2031 74.2188
Q40.9219 74.2188 44.7031 73.4844
Q48.4844 72.75 52.5938 71.2969" id="BitstreamVeraSans-Roman-36"/>
      <path d="
M31.7812 66.4062
Q24.1719 66.4062 20.3281 58.9062
Q16.5 51.4219 16.5 36.375
Q16.5 21.3906 20.3281 13.8906
Q24.1719 6.39062 31.7812 6.39062
Q39.4531 6.39062 43.2812 13.8906
Q47.125 21.3906 47.125 36.375
Q47.125 51.4219 43.2812 58.9062
Q39.4531 66.4062 31.7812 66.4062
M31.7812 74.2188
Q44.0469 74.2188 50.5156 64.5156
Q56.9844 54.8281 56.9844 36.375
Q56.9844 17.9688 50.5156 8.26562
Q44.0469 -1.42188 31.7812 -1.42188
Q19.5312 -1.42188 13.0625 8.26562
Q6.59375 17.9688 6.59375 36.375
Q6.59375 54.8281 13.0625 64.5156
Q19.5312 74.2188 31.7812 74.2188" id="BitstreamVeraSans-Roman-30"/>
      <path d="
M10.6875 12.4062
L21 12.4062
L21 0
L10.6875 0
z
" id="BitstreamVeraSans-Roman-2e"/>
     </defs>
     <g style="fill:#262626;" transform="translate(514.498247448 326.19363451)scale(0.1 -0.1)">
      <use xlink:href="#BitstreamVeraSans-Roman-2212"/>
      <use x="83.7890625" xlink:href="#BitstreamVeraSans-Roman-30"/>
      <use x="147.412109375" xlink:href="#BitstreamVeraSans-Roman-2e"/>
      <use x="179.19921875" xlink:href="#BitstreamVeraSans-Roman-36"/>
     </g>
    </g>
   </g>
   <g id="xtick_2">
    <g id="line2d_4">
     <path clip-path="url(#p5a67343740)" d="
M295.784 210.162" style="fill:none;stroke:#ffffff;stroke-linecap:round;"/>
    </g>
    <g id="line2d_5">
     <path d="
M482.562 317.138
L488.185 319.871" style="fill:none;stroke:#262626;stroke-linecap:round;stroke-width:1.75;"/>
    </g>
    <g id="text_3">
     <!-- −0.4 -->
     <defs>
      <path d="
M37.7969 64.3125
L12.8906 25.3906
L37.7969 25.3906
z

M35.2031 72.9062
L47.6094 72.9062
L47.6094 25.3906
L58.0156 25.3906
L58.0156 17.1875
L47.6094 17.1875
L47.6094 0
L37.7969 0
L37.7969 17.1875
L4.89062 17.1875
L4.89062 26.7031
z
" id="BitstreamVeraSans-Roman-34"/>
     </defs>
     <g style="fill:#262626;" transform="translate(485.521899294 341.80171241)scale(0.1 -0.1)">
      <use xlink:href="#BitstreamVeraSans-Roman-2212"/>
      <use x="83.7890625" xlink:href="#BitstreamVeraSans-Roman-30"/>
      <use x="147.412109375" xlink:href="#BitstreamVeraSans-Roman-2e"/>
      <use x="179.19921875" xlink:href="#BitstreamVeraSans-Roman-34"/>
     </g>
    </g>
   </g>
   <g id="xtick_3">
    <g id="line2d_6">
     <path clip-path="url(#p5a67343740)" d="
M295.784 210.162" style="fill:none;stroke:#ffffff;stroke-linecap:round;"/>
    </g>
    <g id="line2d_7">
     <path d="
M453.067 332.855
L458.694 335.631" style="fill:none;stroke:#262626;stroke-linecap:round;stroke-width:1.75;"/>
    </g>
    <g id="text_4">
     <!-- −0.2 -->
     <defs>
      <path d="
M19.1875 8.29688
L53.6094 8.29688
L53.6094 0
L7.32812 0
L7.32812 8.29688
Q12.9375 14.1094 22.625 23.8906
Q32.3281 33.6875 34.8125 36.5312
Q39.5469 41.8438 41.4219 45.5312
Q43.3125 49.2188 43.3125 52.7812
Q43.3125 58.5938 39.2344 62.25
Q35.1562 65.9219 28.6094 65.9219
Q23.9688 65.9219 18.8125 64.3125
Q13.6719 62.7031 7.8125 59.4219
L7.8125 69.3906
Q13.7656 71.7812 18.9375 73
Q24.125 74.2188 28.4219 74.2188
Q39.75 74.2188 46.4844 68.5469
Q53.2188 62.8906 53.2188 53.4219
Q53.2188 48.9219 51.5312 44.8906
Q49.8594 40.875 45.4062 35.4062
Q44.1875 33.9844 37.6406 27.2188
Q31.1094 20.4531 19.1875 8.29688" id="BitstreamVeraSans-Roman-32"/>
     </defs>
     <g style="fill:#262626;" transform="translate(456.360008009 357.647201696)scale(0.1 -0.1)">
      <use xlink:href="#BitstreamVeraSans-Roman-2212"/>
      <use x="83.7890625" xlink:href="#BitstreamVeraSans-Roman-30"/>
      <use x="147.412109375" xlink:href="#BitstreamVeraSans-Roman-2e"/>
      <use x="179.19921875" xlink:href="#BitstreamVeraSans-Roman-32"/>
     </g>
    </g>
   </g>
   <g id="xtick_4">
    <g id="line2d_8">
     <path clip-path="url(#p5a67343740)" d="
M295.784 210.162" style="fill:none;stroke:#ffffff;stroke-linecap:round;"/>
    </g>
    <g id="line2d_9">
     <path d="
M423.12 348.814
L428.75 351.632" style="fill:none;stroke:#262626;stroke-linecap:round;stroke-width:1.75;"/>
    </g>
    <g id="text_5">
     <!-- 0.0 -->
     <g style="fill:#262626;" transform="translate(430.348545975 373.735560708)scale(0.1 -0.1)">
      <use xlink:href="#BitstreamVeraSans-Roman-30"/>
      <use x="63.623046875" xlink:href="#BitstreamVeraSans-Roman-2e"/>
      <use x="95.41015625" xlink:href="#BitstreamVeraSans-Roman-30"/>
     </g>
    </g>
   </g>
   <g id="xtick_5">
    <g id="line2d_10">
     <path clip-path="url(#p5a67343740)" d="
M295.784 210.162" style="fill:none;stroke:#ffffff;stroke-linecap:round;"/>
    </g>
    <g id="line2d_11">
     <path d="
M392.71 365.02
L398.343 367.881" style="fill:none;stroke:#262626;stroke-linecap:round;stroke-width:1.75;"/>
    </g>
    <g id="text_6">
     <!-- 0.2 -->
     <g style="fill:#262626;" transform="translate(400.223954158 390.072416402)scale(0.1 -0.1)">
      <use xlink:href="#BitstreamVeraSans-Roman-30"/>
      <use x="63.623046875" xlink:href="#BitstreamVeraSans-Roman-2e"/>
      <use x="95.41015625" xlink:href="#BitstreamVeraSans-Roman-32"/>
     </g>
    </g>
   </g>
   <g id="xtick_6">
    <g id="line2d_12">
     <path clip-path="url(#p5a67343740)" d="
M295.784 210.162" style="fill:none;stroke:#ffffff;stroke-linecap:round;"/>
    </g>
    <g id="line2d_13">
     <path d="
M361.827 381.477
L367.461 384.384" style="fill:none;stroke:#262626;stroke-linecap:round;stroke-width:1.75;"/>
    </g>
    <g id="text_7">
     <!-- 0.4 -->
     <g style="fill:#262626;" transform="translate(369.238754945 406.66357091)scale(0.1 -0.1)">
      <use xlink:href="#BitstreamVeraSans-Roman-30"/>
      <use x="63.623046875" xlink:href="#BitstreamVeraSans-Roman-2e"/>
      <use x="95.41015625" xlink:href="#BitstreamVeraSans-Roman-34"/>
     </g>
    </g>
   </g>
   <g id="xtick_7">
    <g id="line2d_14">
     <path clip-path="url(#p5a67343740)" d="
M295.784 210.162" style="fill:none;stroke:#ffffff;stroke-linecap:round;"/>
    </g>
    <g id="line2d_15">
     <path d="
M330.46 398.193
L336.095 401.145" style="fill:none;stroke:#262626;stroke-linecap:round;stroke-width:1.75;"/>
    </g>
    <g id="text_8">
     <!-- 0.6 -->
     <g style="fill:#262626;" transform="translate(338.0256019 423.515008416)scale(0.1 -0.1)">
      <use xlink:href="#BitstreamVeraSans-Roman-30"/>
      <use x="63.623046875" xlink:href="#BitstreamVeraSans-Roman-2e"/>
      <use x="95.41015625" xlink:href="#BitstreamVeraSans-Roman-36"/>
     </g>
    </g>
   </g>
   <g id="xtick_8">
    <g id="line2d_16">
     <path clip-path="url(#p5a67343740)" d="
M295.784 210.162" style="fill:none;stroke:#ffffff;stroke-linecap:round;"/>
    </g>
    <g id="line2d_17">
     <path d="
M298.596 415.173
L304.232 418.172" style="fill:none;stroke:#262626;stroke-linecap:round;stroke-width:1.75;"/>
    </g>
    <g id="text_9">
     <!-- 0.8 -->
     <defs>
      <path d="
M31.7812 34.625
Q24.75 34.625 20.7188 30.8594
Q16.7031 27.0938 16.7031 20.5156
Q16.7031 13.9219 20.7188 10.1562
Q24.75 6.39062 31.7812 6.39062
Q38.8125 6.39062 42.8594 10.1719
Q46.9219 13.9688 46.9219 20.5156
Q46.9219 27.0938 42.8906 30.8594
Q38.875 34.625 31.7812 34.625
M21.9219 38.8125
Q15.5781 40.375 12.0312 44.7188
Q8.5 49.0781 8.5 55.3281
Q8.5 64.0625 14.7188 69.1406
Q20.9531 74.2188 31.7812 74.2188
Q42.6719 74.2188 48.875 69.1406
Q55.0781 64.0625 55.0781 55.3281
Q55.0781 49.0781 51.5312 44.7188
Q48 40.375 41.7031 38.8125
Q48.8281 37.1562 52.7969 32.3125
Q56.7812 27.4844 56.7812 20.5156
Q56.7812 9.90625 50.3125 4.23438
Q43.8438 -1.42188 31.7812 -1.42188
Q19.7344 -1.42188 13.25 4.23438
Q6.78125 9.90625 6.78125 20.5156
Q6.78125 27.4844 10.7812 32.3125
Q14.7969 37.1562 21.9219 38.8125
M18.3125 54.3906
Q18.3125 48.7344 21.8438 45.5625
Q25.3906 42.3906 31.7812 42.3906
Q38.1406 42.3906 41.7188 45.5625
Q45.3125 48.7344 45.3125 54.3906
Q45.3125 60.0625 41.7188 63.2344
Q38.1406 66.4062 31.7812 66.4062
Q25.3906 66.4062 21.8438 63.2344
Q18.3125 60.0625 18.3125 54.3906" id="BitstreamVeraSans-Roman-38"/>
     </defs>
     <g style="fill:#262626;" transform="translate(306.311328921 440.632902345)scale(0.1 -0.1)">
      <use xlink:href="#BitstreamVeraSans-Roman-30"/>
      <use x="63.623046875" xlink:href="#BitstreamVeraSans-Roman-2e"/>
      <use x="95.41015625" xlink:href="#BitstreamVeraSans-Roman-38"/>
     </g>
    </g>
   </g>
  </g>
  <g id="axis3d_2">
   <g id="line2d_18">
    <path d="
M73.8808 300.312
L295.784 418.673" style="fill:none;stroke:#000000;stroke-linecap:round;stroke-width:0.75;"/>
   </g>
   <g id="text_10">
    <!-- Y -->
    <defs>
     <path d="
M-0.203125 72.9062
L10.4062 72.9062
L30.6094 42.9219
L50.6875 72.9062
L61.2812 72.9062
L35.5 34.7188
L35.5 0
L25.5938 0
L25.5938 34.7188
z
" id="BitstreamVeraSans-Roman-59"/>
    </defs>
    <g style="fill:#262626;" transform="translate(149.328046107 398.421706886)scale(0.11 -0.11)">
     <use xlink:href="#BitstreamVeraSans-Roman-59"/>
    </g>
   </g>
   <g id="Line3DCollection_2">
    <defs>
     <path d="
M300.272 -419.05
L299.996 -235.78
L78.0812 -129.448" id="C1_0_b7cd664821"/>
     <path d="
M336.542 -403.342
L334.015 -219.514
L112.017 -111.347" id="C1_1_c049d66748"/>
     <path d="
M373.464 -387.352
L368.607 -202.973
L146.558 -92.923" id="C1_2_d31c9eeebd"/>
     <path d="
M411.057 -371.071
L403.787 -186.151
L181.719 -74.1685" id="C1_3_3c1888e179"/>
     <path d="
M449.338 -354.492
L439.571 -169.041
L217.517 -55.0742" id="C1_4_92a907287c"/>
     <path d="
M488.326 -337.606
L475.973 -151.634
L253.969 -35.6305" id="C1_5_829f1ef59f"/>
     <path d="
M528.043 -320.405
L513.011 -133.924
L291.095 -15.828" id="C1_6_6bcc7a70fb"/>
    </defs>
    <use style="fill:none;stroke:#e6e6e6;stroke-width:1.75;" x="0.0" xlink:href="#C1_0_b7cd664821" y="432.0"/>
    <use style="fill:none;stroke:#e6e6e6;stroke-width:1.75;" x="0.0" xlink:href="#C1_1_c049d66748" y="432.0"/>
    <use style="fill:none;stroke:#e6e6e6;stroke-width:1.75;" x="0.0" xlink:href="#C1_2_d31c9eeebd" y="432.0"/>
    <use style="fill:none;stroke:#e6e6e6;stroke-width:1.75;" x="0.0" xlink:href="#C1_3_3c1888e179" y="432.0"/>
    <use style="fill:none;stroke:#e6e6e6;stroke-width:1.75;" x="0.0" xlink:href="#C1_4_92a907287c" y="432.0"/>
    <use style="fill:none;stroke:#e6e6e6;stroke-width:1.75;" x="0.0" xlink:href="#C1_5_829f1ef59f" y="432.0"/>
    <use style="fill:none;stroke:#e6e6e6;stroke-width:1.75;" x="0.0" xlink:href="#C1_6_6bcc7a70fb" y="432.0"/>
   </g>
   <g id="xtick_9">
    <g id="line2d_19">
     <path clip-path="url(#p5a67343740)" d="
M295.784 210.162" style="fill:none;stroke:#ffffff;stroke-linecap:round;"/>
    </g>
    <g id="line2d_20">
     <path d="
M79.9527 301.655
L74.3332 304.348" style="fill:none;stroke:#262626;stroke-linecap:round;stroke-width:1.75;"/>
    </g>
    <g id="text_11">
     <!-- −0.2 -->
     <g style="fill:#262626;" transform="translate(54.6615076192 326.19363451)scale(0.1 -0.1)">
      <use xlink:href="#BitstreamVeraSans-Roman-2212"/>
      <use x="83.7890625" xlink:href="#BitstreamVeraSans-Roman-30"/>
      <use x="147.412109375" xlink:href="#BitstreamVeraSans-Roman-2e"/>
      <use x="179.19921875" xlink:href="#BitstreamVeraSans-Roman-32"/>
     </g>
    </g>
   </g>
   <g id="xtick_10">
    <g id="line2d_21">
     <path clip-path="url(#p5a67343740)" d="
M295.784 210.162" style="fill:none;stroke:#ffffff;stroke-linecap:round;"/>
    </g>
    <g id="line2d_22">
     <path d="
M113.89 319.741
L108.266 322.481" style="fill:none;stroke:#262626;stroke-linecap:round;stroke-width:1.75;"/>
    </g>
    <g id="text_12">
     <!-- −0.1 -->
     <defs>
      <path d="
M12.4062 8.29688
L28.5156 8.29688
L28.5156 63.9219
L10.9844 60.4062
L10.9844 69.3906
L28.4219 72.9062
L38.2812 72.9062
L38.2812 8.29688
L54.3906 8.29688
L54.3906 0
L12.4062 0
z
" id="BitstreamVeraSans-Roman-31"/>
     </defs>
     <g style="fill:#262626;" transform="translate(88.430611114 344.425995023)scale(0.1 -0.1)">
      <use xlink:href="#BitstreamVeraSans-Roman-2212"/>
      <use x="83.7890625" xlink:href="#BitstreamVeraSans-Roman-30"/>
      <use x="147.412109375" xlink:href="#BitstreamVeraSans-Roman-2e"/>
      <use x="179.19921875" xlink:href="#BitstreamVeraSans-Roman-31"/>
     </g>
    </g>
   </g>
   <g id="xtick_11">
    <g id="line2d_23">
     <path clip-path="url(#p5a67343740)" d="
M295.784 210.162" style="fill:none;stroke:#ffffff;stroke-linecap:round;"/>
    </g>
    <g id="line2d_24">
     <path d="
M148.432 338.148
L142.804 340.937" style="fill:none;stroke:#262626;stroke-linecap:round;stroke-width:1.75;"/>
    </g>
    <g id="text_13">
     <!-- 0.0 -->
     <g style="fill:#262626;" transform="translate(126.700415746 362.982728165)scale(0.1 -0.1)">
      <use xlink:href="#BitstreamVeraSans-Roman-30"/>
      <use x="63.623046875" xlink:href="#BitstreamVeraSans-Roman-2e"/>
      <use x="95.41015625" xlink:href="#BitstreamVeraSans-Roman-30"/>
     </g>
    </g>
   </g>
   <g id="xtick_12">
    <g id="line2d_25">
     <path clip-path="url(#p5a67343740)" d="
M295.784 210.162" style="fill:none;stroke:#ffffff;stroke-linecap:round;"/>
    </g>
    <g id="line2d_26">
     <path d="
M183.594 356.886
L177.963 359.725" style="fill:none;stroke:#262626;stroke-linecap:round;stroke-width:1.75;"/>
    </g>
    <g id="text_14">
     <!-- 0.1 -->
     <g style="fill:#262626;" transform="translate(161.857429578 381.872568021)scale(0.1 -0.1)">
      <use xlink:href="#BitstreamVeraSans-Roman-30"/>
      <use x="63.623046875" xlink:href="#BitstreamVeraSans-Roman-2e"/>
      <use x="95.41015625" xlink:href="#BitstreamVeraSans-Roman-31"/>
     </g>
    </g>
   </g>
   <g id="xtick_13">
    <g id="line2d_27">
     <path clip-path="url(#p5a67343740)" d="
M295.784 210.162" style="fill:none;stroke:#ffffff;stroke-linecap:round;"/>
    </g>
    <g id="line2d_28">
     <path d="
M219.393 375.963
L213.759 378.854" style="fill:none;stroke:#262626;stroke-linecap:round;stroke-width:1.75;"/>
    </g>
    <g id="text_15">
     <!-- 0.2 -->
     <g style="fill:#262626;" transform="translate(197.558278632 401.10456508)scale(0.1 -0.1)">
      <use xlink:href="#BitstreamVeraSans-Roman-30"/>
      <use x="63.623046875" xlink:href="#BitstreamVeraSans-Roman-2e"/>
      <use x="95.41015625" xlink:href="#BitstreamVeraSans-Roman-32"/>
     </g>
    </g>
   </g>
   <g id="xtick_14">
    <g id="line2d_29">
     <path clip-path="url(#p5a67343740)" d="
M295.784 210.162" style="fill:none;stroke:#ffffff;stroke-linecap:round;"/>
    </g>
    <g id="line2d_30">
     <path d="
M255.846 395.389
L250.211 398.333" style="fill:none;stroke:#262626;stroke-linecap:round;stroke-width:1.75;"/>
    </g>
    <g id="text_16">
     <!-- 0.3 -->
     <defs>
      <path d="
M40.5781 39.3125
Q47.6562 37.7969 51.625 33
Q55.6094 28.2188 55.6094 21.1875
Q55.6094 10.4062 48.1875 4.48438
Q40.7656 -1.42188 27.0938 -1.42188
Q22.5156 -1.42188 17.6562 -0.515625
Q12.7969 0.390625 7.625 2.20312
L7.625 11.7188
Q11.7188 9.32812 16.5938 8.10938
Q21.4844 6.89062 26.8125 6.89062
Q36.0781 6.89062 40.9375 10.5469
Q45.7969 14.2031 45.7969 21.1875
Q45.7969 27.6406 41.2812 31.2656
Q36.7656 34.9062 28.7188 34.9062
L20.2188 34.9062
L20.2188 43.0156
L29.1094 43.0156
Q36.375 43.0156 40.2344 45.9219
Q44.0938 48.8281 44.0938 54.2969
Q44.0938 59.9062 40.1094 62.9062
Q36.1406 65.9219 28.7188 65.9219
Q24.6562 65.9219 20.0156 65.0312
Q15.375 64.1562 9.8125 62.3125
L9.8125 71.0938
Q15.4375 72.6562 20.3438 73.4375
Q25.25 74.2188 29.5938 74.2188
Q40.8281 74.2188 47.3594 69.1094
Q53.9062 64.0156 53.9062 55.3281
Q53.9062 49.2656 50.4375 45.0938
Q46.9688 40.9219 40.5781 39.3125" id="BitstreamVeraSans-Roman-33"/>
     </defs>
     <g style="fill:#262626;" transform="translate(233.771921202 420.688100695)scale(0.1 -0.1)">
      <use xlink:href="#BitstreamVeraSans-Roman-30"/>
      <use x="63.623046875" xlink:href="#BitstreamVeraSans-Roman-2e"/>
      <use x="95.41015625" xlink:href="#BitstreamVeraSans-Roman-33"/>
     </g>
    </g>
   </g>
   <g id="xtick_15">
    <g id="line2d_31">
     <path clip-path="url(#p5a67343740)" d="
M295.784 210.162" style="fill:none;stroke:#ffffff;stroke-linecap:round;"/>
    </g>
    <g id="line2d_32">
     <path d="
M292.972 415.173
L287.336 418.172" style="fill:none;stroke:#262626;stroke-linecap:round;stroke-width:1.75;"/>
    </g>
    <g id="text_17">
     <!-- 0.4 -->
     <g style="fill:#262626;" transform="translate(270.635144896 440.632902345)scale(0.1 -0.1)">
      <use xlink:href="#BitstreamVeraSans-Roman-30"/>
      <use x="63.623046875" xlink:href="#BitstreamVeraSans-Roman-2e"/>
      <use x="95.41015625" xlink:href="#BitstreamVeraSans-Roman-34"/>
     </g>
    </g>
   </g>
  </g>
  <g id="axis3d_3">
   <g id="line2d_33">
    <path d="
M73.8808 300.312
L58.5082 113.767" style="fill:none;stroke:#000000;stroke-linecap:round;stroke-width:0.75;"/>
   </g>
   <g id="text_18">
    <!-- Z -->
    <defs>
     <path d="
M5.60938 72.9062
L62.8906 72.9062
L62.8906 65.375
L16.7969 8.29688
L64.0156 8.29688
L64.0156 0
L4.5 0
L4.5 7.51562
L50.5938 64.5938
L5.60938 64.5938
z
" id="BitstreamVeraSans-Roman-5a"/>
    </defs>
    <g style="fill:#262626;" transform="translate(4.46952154274 213.197474662)scale(0.11 -0.11)">
     <use xlink:href="#BitstreamVeraSans-Roman-5a"/>
    </g>
   </g>
   <g id="Line3DCollection_3">
    <defs>
     <path d="
M73.5929 -135.182
L295.784 -241.238
L517.975 -135.182" id="C2_0_149983183a"/>
     <path d="
M71.8497 -156.336
L295.784 -262.076
L519.718 -156.336" id="C2_1_a641f3a62d"/>
     <path d="
M70.0789 -177.825
L295.784 -283.226
L521.489 -177.825" id="C2_2_f4bc8d9514"/>
     <path d="
M68.2798 -199.656
L295.784 -304.695
L523.288 -199.656" id="C2_3_acc016979a"/>
     <path d="
M66.4519 -221.838
L295.784 -326.492
L525.116 -221.838" id="C2_4_1247231837"/>
     <path d="
M64.5943 -244.379
L295.784 -348.622
L526.973 -244.379" id="C2_5_90ea4465e6"/>
     <path d="
M62.7064 -267.289
L295.784 -371.094
L528.861 -267.289" id="C2_6_4d2e7dd036"/>
     <path d="
M60.7874 -290.575
L295.784 -393.916
L530.78 -290.575" id="C2_7_a3409b1b14"/>
     <path d="
M58.8365 -314.249
L295.784 -417.096
L532.731 -314.249" id="C2_8_308a985b70"/>
    </defs>
    <use style="fill:none;stroke:#e6e6e6;stroke-width:1.75;" x="0.0" xlink:href="#C2_0_149983183a" y="432.0"/>
    <use style="fill:none;stroke:#e6e6e6;stroke-width:1.75;" x="0.0" xlink:href="#C2_1_a641f3a62d" y="432.0"/>
    <use style="fill:none;stroke:#e6e6e6;stroke-width:1.75;" x="0.0" xlink:href="#C2_2_f4bc8d9514" y="432.0"/>
    <use style="fill:none;stroke:#e6e6e6;stroke-width:1.75;" x="0.0" xlink:href="#C2_3_acc016979a" y="432.0"/>
    <use style="fill:none;stroke:#e6e6e6;stroke-width:1.75;" x="0.0" xlink:href="#C2_4_1247231837" y="432.0"/>
    <use style="fill:none;stroke:#e6e6e6;stroke-width:1.75;" x="0.0" xlink:href="#C2_5_90ea4465e6" y="432.0"/>
    <use style="fill:none;stroke:#e6e6e6;stroke-width:1.75;" x="0.0" xlink:href="#C2_6_4d2e7dd036" y="432.0"/>
    <use style="fill:none;stroke:#e6e6e6;stroke-width:1.75;" x="0.0" xlink:href="#C2_7_a3409b1b14" y="432.0"/>
    <use style="fill:none;stroke:#e6e6e6;stroke-width:1.75;" x="0.0" xlink:href="#C2_8_308a985b70" y="432.0"/>
   </g>
   <g id="xtick_16">
    <g id="line2d_34">
     <path d="
M295.784 210.162" style="fill:none;stroke:#ffffff;stroke-linecap:round;"/>
    </g>
    <g id="line2d_35">
     <path d="
M75.4668 295.924
L69.8402 298.609" style="fill:none;stroke:#262626;stroke-linecap:round;stroke-width:1.75;"/>
    </g>
    <g id="text_19">
     <!-- 0.1 -->
     <g style="fill:#262626;" transform="translate(41.5473993546 304.416400614)scale(0.1 -0.1)">
      <use xlink:href="#BitstreamVeraSans-Roman-30"/>
      <use x="63.623046875" xlink:href="#BitstreamVeraSans-Roman-2e"/>
      <use x="95.41015625" xlink:href="#BitstreamVeraSans-Roman-31"/>
     </g>
    </g>
   </g>
   <g id="xtick_17">
    <g id="line2d_36">
     <path d="
M295.784 210.162" style="fill:none;stroke:#ffffff;stroke-linecap:round;"/>
    </g>
    <g id="line2d_37">
     <path d="
M73.739 274.772
L68.066 277.451" style="fill:none;stroke:#262626;stroke-linecap:round;stroke-width:1.75;"/>
    </g>
    <g id="text_20">
     <!-- 0.2 -->
     <g style="fill:#262626;" transform="translate(39.6479690954 283.262358727)scale(0.1 -0.1)">
      <use xlink:href="#BitstreamVeraSans-Roman-30"/>
      <use x="63.623046875" xlink:href="#BitstreamVeraSans-Roman-2e"/>
      <use x="95.41015625" xlink:href="#BitstreamVeraSans-Roman-32"/>
     </g>
    </g>
   </g>
   <g id="xtick_18">
    <g id="line2d_38">
     <path d="
M295.784 210.162" style="fill:none;stroke:#ffffff;stroke-linecap:round;"/>
    </g>
    <g id="line2d_39">
     <path d="
M71.9839 253.286
L66.2637 255.957" style="fill:none;stroke:#262626;stroke-linecap:round;stroke-width:1.75;"/>
    </g>
    <g id="text_21">
     <!-- 0.3 -->
     <g style="fill:#262626;" transform="translate(37.5788180275 261.773754256)scale(0.1 -0.1)">
      <use xlink:href="#BitstreamVeraSans-Roman-30"/>
      <use x="63.623046875" xlink:href="#BitstreamVeraSans-Roman-2e"/>
      <use x="95.41015625" xlink:href="#BitstreamVeraSans-Roman-33"/>
     </g>
    </g>
   </g>
   <g id="xtick_19">
    <g id="line2d_40">
     <path d="
M295.784 210.162" style="fill:none;stroke:#ffffff;stroke-linecap:round;"/>
    </g>
    <g id="line2d_41">
     <path d="
M70.2009 231.457
L64.4326 234.12" style="fill:none;stroke:#262626;stroke-linecap:round;stroke-width:1.75;"/>
    </g>
    <g id="text_22">
     <!-- 0.4 -->
     <g style="fill:#262626;" transform="translate(35.4579630371 239.942587007)scale(0.1 -0.1)">
      <use xlink:href="#BitstreamVeraSans-Roman-30"/>
      <use x="63.623046875" xlink:href="#BitstreamVeraSans-Roman-2e"/>
      <use x="95.41015625" xlink:href="#BitstreamVeraSans-Roman-34"/>
     </g>
    </g>
   </g>
   <g id="xtick_20">
    <g id="line2d_42">
     <path d="
M295.784 210.162" style="fill:none;stroke:#ffffff;stroke-linecap:round;"/>
    </g>
    <g id="line2d_43">
     <path d="
M68.3892 209.278
L62.572 211.933" style="fill:none;stroke:#262626;stroke-linecap:round;stroke-width:1.75;"/>
    </g>
    <g id="text_23">
     <!-- 0.5 -->
     <defs>
      <path d="
M10.7969 72.9062
L49.5156 72.9062
L49.5156 64.5938
L19.8281 64.5938
L19.8281 46.7344
Q21.9688 47.4688 24.1094 47.8281
Q26.2656 48.1875 28.4219 48.1875
Q40.625 48.1875 47.75 41.5
Q54.8906 34.8125 54.8906 23.3906
Q54.8906 11.625 47.5625 5.09375
Q40.2344 -1.42188 26.9062 -1.42188
Q22.3125 -1.42188 17.5469 -0.640625
Q12.7969 0.140625 7.71875 1.70312
L7.71875 11.625
Q12.1094 9.23438 16.7969 8.0625
Q21.4844 6.89062 26.7031 6.89062
Q35.1562 6.89062 40.0781 11.3281
Q45.0156 15.7656 45.0156 23.3906
Q45.0156 31 40.0781 35.4375
Q35.1562 39.8906 26.7031 39.8906
Q22.75 39.8906 18.8125 39.0156
Q14.8906 38.1406 10.7969 36.2812
z
" id="BitstreamVeraSans-Roman-35"/>
     </defs>
     <g style="fill:#262626;" transform="translate(33.5815224486 217.760599662)scale(0.1 -0.1)">
      <use xlink:href="#BitstreamVeraSans-Roman-30"/>
      <use x="63.623046875" xlink:href="#BitstreamVeraSans-Roman-2e"/>
      <use x="95.41015625" xlink:href="#BitstreamVeraSans-Roman-35"/>
     </g>
    </g>
   </g>
   <g id="xtick_21">
    <g id="line2d_44">
     <path d="
M295.784 210.162" style="fill:none;stroke:#ffffff;stroke-linecap:round;"/>
    </g>
    <g id="line2d_45">
     <path d="
M66.5481 186.74
L60.6813 189.385" style="fill:none;stroke:#262626;stroke-linecap:round;stroke-width:1.75;"/>
    </g>
    <g id="text_24">
     <!-- 0.6 -->
     <g style="fill:#262626;" transform="translate(31.3940275702 195.219267371)scale(0.1 -0.1)">
      <use xlink:href="#BitstreamVeraSans-Roman-30"/>
      <use x="63.623046875" xlink:href="#BitstreamVeraSans-Roman-2e"/>
      <use x="95.41015625" xlink:href="#BitstreamVeraSans-Roman-36"/>
     </g>
    </g>
   </g>
   <g id="xtick_22">
    <g id="line2d_46">
     <path d="
M295.784 210.162" style="fill:none;stroke:#ffffff;stroke-linecap:round;"/>
    </g>
    <g id="line2d_47">
     <path d="
M64.677 163.834
L58.7597 166.469" style="fill:none;stroke:#262626;stroke-linecap:round;stroke-width:1.75;"/>
    </g>
    <g id="text_25">
     <!-- 0.7 -->
     <defs>
      <path d="
M8.20312 72.9062
L55.0781 72.9062
L55.0781 68.7031
L28.6094 0
L18.3125 0
L43.2188 64.5938
L8.20312 64.5938
z
" id="BitstreamVeraSans-Roman-37"/>
     </defs>
     <g style="fill:#262626;" transform="translate(29.4071716931 172.309786824)scale(0.1 -0.1)">
      <use xlink:href="#BitstreamVeraSans-Roman-30"/>
      <use x="63.623046875" xlink:href="#BitstreamVeraSans-Roman-2e"/>
      <use x="95.41015625" xlink:href="#BitstreamVeraSans-Roman-37"/>
     </g>
    </g>
   </g>
   <g id="xtick_23">
    <g id="line2d_48">
     <path d="
M295.784 210.162" style="fill:none;stroke:#ffffff;stroke-linecap:round;"/>
    </g>
    <g id="line2d_49">
     <path d="
M62.7751 140.551
L56.8064 143.175" style="fill:none;stroke:#262626;stroke-linecap:round;stroke-width:1.75;"/>
    </g>
    <g id="text_26">
     <!-- 0.8 -->
     <g style="fill:#262626;" transform="translate(27.1880902911 149.023064789)scale(0.1 -0.1)">
      <use xlink:href="#BitstreamVeraSans-Roman-30"/>
      <use x="63.623046875" xlink:href="#BitstreamVeraSans-Roman-2e"/>
      <use x="95.41015625" xlink:href="#BitstreamVeraSans-Roman-38"/>
     </g>
    </g>
   </g>
   <g id="xtick_24">
    <g id="line2d_50">
     <path d="
M295.784 210.162" style="fill:none;stroke:#ffffff;stroke-linecap:round;"/>
    </g>
    <g id="line2d_51">
     <path d="
M60.8417 116.881
L54.8206 119.494" style="fill:none;stroke:#262626;stroke-linecap:round;stroke-width:1.75;"/>
    </g>
    <g id="text_27">
     <!-- 0.9 -->
     <defs>
      <path d="
M10.9844 1.51562
L10.9844 10.5
Q14.7031 8.73438 18.5 7.8125
Q22.3125 6.89062 25.9844 6.89062
Q35.75 6.89062 40.8906 13.4531
Q46.0469 20.0156 46.7812 33.4062
Q43.9531 29.2031 39.5938 26.9531
Q35.25 24.7031 29.9844 24.7031
Q19.0469 24.7031 12.6719 31.3125
Q6.29688 37.9375 6.29688 49.4219
Q6.29688 60.6406 12.9375 67.4219
Q19.5781 74.2188 30.6094 74.2188
Q43.2656 74.2188 49.9219 64.5156
Q56.5938 54.8281 56.5938 36.375
Q56.5938 19.1406 48.4062 8.85938
Q40.2344 -1.42188 26.4219 -1.42188
Q22.7031 -1.42188 18.8906 -0.6875
Q15.0938 0.046875 10.9844 1.51562
M30.6094 32.4219
Q37.25 32.4219 41.125 36.9531
Q45.0156 41.5 45.0156 49.4219
Q45.0156 57.2812 41.125 61.8438
Q37.25 66.4062 30.6094 66.4062
Q23.9688 66.4062 20.0938 61.8438
Q16.2188 57.2812 16.2188 49.4219
Q16.2188 41.5 20.0938 36.9531
Q23.9688 32.4219 30.6094 32.4219" id="BitstreamVeraSans-Roman-39"/>
     </defs>
     <g style="fill:#262626;" transform="translate(25.0281099176 125.349706082)scale(0.1 -0.1)">
      <use xlink:href="#BitstreamVeraSans-Roman-30"/>
      <use x="63.623046875" xlink:href="#BitstreamVeraSans-Roman-2e"/>
      <use x="95.41015625" xlink:href="#BitstreamVeraSans-Roman-39"/>
     </g>
    </g>
   </g>
  </g>
  <g id="axes_1">
   <g id="Path3DCollection_1">
    <defs>
     <path d="
M0 7.07107
C1.87527 7.07107 3.67398 6.32602 5 5
C6.32602 3.67398 7.07107 1.87527 7.07107 0
C7.07107 -1.87527 6.32602 -3.67398 5 -5
C3.67398 -6.32602 1.87527 -7.07107 0 -7.07107
C-1.87527 -7.07107 -3.67398 -6.32602 -5 -5
C-6.32602 -3.67398 -7.07107 -1.87527 -7.07107 0
C-7.07107 1.87527 -6.32602 3.67398 -5 5
C-3.67398 6.32602 -1.87527 7.07107 0 7.07107
z
" id="C3_0_483d1e1a4f"/>
    </defs>
    <g clip-path="url(#p5a67343740)">
     <use style="fill:#9e0142;fill-opacity:0.6;stroke:#000000;stroke-opacity:0.6;stroke-width:0.3;" x="374.769101765" xlink:href="#C3_0_483d1e1a4f" y="217.567356258"/>
    </g>
    <g clip-path="url(#p5a67343740)">
     <use style="fill:#9e0142;fill-opacity:0.6;stroke:#000000;stroke-opacity:0.6;stroke-width:0.3;" x="369.953983698" xlink:href="#C3_0_483d1e1a4f" y="260.680016906"/>
    </g>
    <g clip-path="url(#p5a67343740)">
     <use style="fill:#ffffbf;fill-opacity:0.6;stroke:#000000;stroke-opacity:0.6;stroke-width:0.3;" x="282.740262963" xlink:href="#C3_0_483d1e1a4f" y="232.1941396"/>
    </g>
    <g clip-path="url(#p5a67343740)">
     <use style="fill:#ffffbf;fill-opacity:0.6;stroke:#000000;stroke-opacity:0.6;stroke-width:0.3;" x="346.582875768" xlink:href="#C3_0_483d1e1a4f" y="269.91222416"/>
    </g>
    <g clip-path="url(#p5a67343740)">
     <use style="fill:#ffffbf;fill-opacity:0.6;stroke:#000000;stroke-opacity:0.6;stroke-width:0.3;" x="312.354850175" xlink:href="#C3_0_483d1e1a4f" y="278.615866986"/>
    </g>
    <g clip-path="url(#p5a67343740)">
     <use style="fill:#9e0142;fill-opacity:0.6;stroke:#000000;stroke-opacity:0.6;stroke-width:0.3;" x="373.36679441" xlink:href="#C3_0_483d1e1a4f" y="251.002456125"/>
    </g>
    <g clip-path="url(#p5a67343740)">
     <use style="fill:#9e0142;fill-opacity:0.6;stroke:#000000;stroke-opacity:0.6;stroke-width:0.3;" x="340.923531232" xlink:href="#C3_0_483d1e1a4f" y="234.829007423"/>
    </g>
    <g clip-path="url(#p5a67343740)">
     <use style="fill:#9e0142;fill-opacity:0.6;stroke:#000000;stroke-opacity:0.6;stroke-width:0.3;" x="382.294181905" xlink:href="#C3_0_483d1e1a4f" y="263.072850871"/>
    </g>
    <g clip-path="url(#p5a67343740)">
     <use style="fill:#f98e52;fill-opacity:0.6;stroke:#000000;stroke-opacity:0.6;stroke-width:0.3;" x="289.449701043" xlink:href="#C3_0_483d1e1a4f" y="262.642149158"/>
    </g>
    <g clip-path="url(#p5a67343740)">
     <use style="fill:#f98e52;fill-opacity:0.6;stroke:#000000;stroke-opacity:0.6;stroke-width:0.3;" x="305.905606716" xlink:href="#C3_0_483d1e1a4f" y="269.976769458"/>
    </g>
    <g clip-path="url(#p5a67343740)">
     <use style="fill:#9e0142;fill-opacity:0.6;stroke:#000000;stroke-opacity:0.6;stroke-width:0.3;" x="416.335641394" xlink:href="#C3_0_483d1e1a4f" y="239.349867902"/>
    </g>
    <g clip-path="url(#p5a67343740)">
     <use style="fill:#f98e52;fill-opacity:0.6;stroke:#000000;stroke-opacity:0.6;stroke-width:0.3;" x="369.375544052" xlink:href="#C3_0_483d1e1a4f" y="245.033213389"/>
    </g>
    <g clip-path="url(#p5a67343740)">
     <use style="fill:#9e0142;fill-opacity:0.6;stroke:#000000;stroke-opacity:0.6;stroke-width:0.3;" x="416.465931315" xlink:href="#C3_0_483d1e1a4f" y="247.194261498"/>
    </g>
    <g clip-path="url(#p5a67343740)">
     <use style="fill:#f98e52;fill-opacity:0.6;stroke:#000000;stroke-opacity:0.6;stroke-width:0.3;" x="356.842244642" xlink:href="#C3_0_483d1e1a4f" y="269.898578925"/>
    </g>
    <g clip-path="url(#p5a67343740)">
     <use style="fill:#9e0142;fill-opacity:0.6;stroke:#000000;stroke-opacity:0.6;stroke-width:0.3;" x="385.213651608" xlink:href="#C3_0_483d1e1a4f" y="256.443694633"/>
    </g>
    <g clip-path="url(#p5a67343740)">
     <use style="fill:#5e4fa2;fill-opacity:0.6;stroke:#000000;stroke-opacity:0.6;stroke-width:0.3;" x="207.187003006" xlink:href="#C3_0_483d1e1a4f" y="100.921717785"/>
    </g>
    <g clip-path="url(#p5a67343740)">
     <use style="fill:#f98e52;fill-opacity:0.6;stroke:#000000;stroke-opacity:0.6;stroke-width:0.3;" x="340.145613078" xlink:href="#C3_0_483d1e1a4f" y="257.786047627"/>
    </g>
    <g clip-path="url(#p5a67343740)">
     <use style="fill:#ffffbf;fill-opacity:0.6;stroke:#000000;stroke-opacity:0.6;stroke-width:0.3;" x="289.154208595" xlink:href="#C3_0_483d1e1a4f" y="278.538249946"/>
    </g>
    <g clip-path="url(#p5a67343740)">
     <use style="fill:#ffffbf;fill-opacity:0.6;stroke:#000000;stroke-opacity:0.6;stroke-width:0.3;" x="311.585972781" xlink:href="#C3_0_483d1e1a4f" y="286.614770205"/>
    </g>
    <g clip-path="url(#p5a67343740)">
     <use style="fill:#ffffbf;fill-opacity:0.6;stroke:#000000;stroke-opacity:0.6;stroke-width:0.3;" x="331.64096972" xlink:href="#C3_0_483d1e1a4f" y="276.008979852"/>
    </g>
    <g clip-path="url(#p5a67343740)">
     <use style="fill:#9e0142;fill-opacity:0.6;stroke:#000000;stroke-opacity:0.6;stroke-width:0.3;" x="353.116166314" xlink:href="#C3_0_483d1e1a4f" y="212.905230847"/>
    </g>
    <g clip-path="url(#p5a67343740)">
     <use style="fill:#9e0142;fill-opacity:0.6;stroke:#000000;stroke-opacity:0.6;stroke-width:0.3;" x="393.628385461" xlink:href="#C3_0_483d1e1a4f" y="241.045743595"/>
    </g>
    <g clip-path="url(#p5a67343740)">
     <use style="fill:#ffffbf;fill-opacity:0.6;stroke:#000000;stroke-opacity:0.6;stroke-width:0.3;" x="330.582715321" xlink:href="#C3_0_483d1e1a4f" y="271.608117999"/>
    </g>
    <g clip-path="url(#p5a67343740)">
     <use style="fill:#89d0a5;fill-opacity:0.6;stroke:#000000;stroke-opacity:0.6;stroke-width:0.3;" x="317.593308362" xlink:href="#C3_0_483d1e1a4f" y="249.086212437"/>
    </g>
    <g clip-path="url(#p5a67343740)">
     <use style="fill:#ffffbf;fill-opacity:0.6;stroke:#000000;stroke-opacity:0.6;stroke-width:0.3;" x="307.302624094" xlink:href="#C3_0_483d1e1a4f" y="283.459426708"/>
    </g>
    <g clip-path="url(#p5a67343740)">
     <use style="fill:#f98e52;fill-opacity:0.6;stroke:#000000;stroke-opacity:0.6;stroke-width:0.3;" x="299.875216316" xlink:href="#C3_0_483d1e1a4f" y="275.56634327"/>
    </g>
    <g clip-path="url(#p5a67343740)">
     <use style="fill:#89d0a5;fill-opacity:0.6;stroke:#000000;stroke-opacity:0.6;stroke-width:0.3;" x="292.386817663" xlink:href="#C3_0_483d1e1a4f" y="233.977001205"/>
    </g>
    <g clip-path="url(#p5a67343740)">
     <use style="fill:#9e0142;fill-opacity:0.6;stroke:#000000;stroke-opacity:0.6;stroke-width:0.3;" x="420.129870094" xlink:href="#C3_0_483d1e1a4f" y="242.031419418"/>
    </g>
    <g clip-path="url(#p5a67343740)">
     <use style="fill:#f98e52;fill-opacity:0.6;stroke:#000000;stroke-opacity:0.6;stroke-width:0.3;" x="314.471007301" xlink:href="#C3_0_483d1e1a4f" y="273.04785558"/>
    </g>
    <g clip-path="url(#p5a67343740)">
     <use style="fill:#ffffbf;fill-opacity:0.6;stroke:#000000;stroke-opacity:0.6;stroke-width:0.3;" x="300.992513698" xlink:href="#C3_0_483d1e1a4f" y="226.167417172"/>
    </g>
    <g clip-path="url(#p5a67343740)">
     <use style="fill:#f98e52;fill-opacity:0.6;stroke:#000000;stroke-opacity:0.6;stroke-width:0.3;" x="319.808743575" xlink:href="#C3_0_483d1e1a4f" y="259.86005353"/>
    </g>
    <g clip-path="url(#p5a67343740)">
     <use style="fill:#ffffbf;fill-opacity:0.6;stroke:#000000;stroke-opacity:0.6;stroke-width:0.3;" x="323.802276711" xlink:href="#C3_0_483d1e1a4f" y="270.621755957"/>
    </g>
    <g clip-path="url(#p5a67343740)">
     <use style="fill:#ffffbf;fill-opacity:0.6;stroke:#000000;stroke-opacity:0.6;stroke-width:0.3;" x="315.537004948" xlink:href="#C3_0_483d1e1a4f" y="272.128912014"/>
    </g>
    <g clip-path="url(#p5a67343740)">
     <use style="fill:#9e0142;fill-opacity:0.6;stroke:#000000;stroke-opacity:0.6;stroke-width:0.3;" x="371.006931033" xlink:href="#C3_0_483d1e1a4f" y="256.410637482"/>
    </g>
    <g clip-path="url(#p5a67343740)">
     <use style="fill:#9e0142;fill-opacity:0.6;stroke:#000000;stroke-opacity:0.6;stroke-width:0.3;" x="362.589241419" xlink:href="#C3_0_483d1e1a4f" y="243.654610624"/>
    </g>
    <g clip-path="url(#p5a67343740)">
     <use style="fill:#9e0142;fill-opacity:0.6;stroke:#000000;stroke-opacity:0.6;stroke-width:0.3;" x="423.959356749" xlink:href="#C3_0_483d1e1a4f" y="232.874886111"/>
    </g>
    <g clip-path="url(#p5a67343740)">
     <use style="fill:#ffffbf;fill-opacity:0.6;stroke:#000000;stroke-opacity:0.6;stroke-width:0.3;" x="332.804682562" xlink:href="#C3_0_483d1e1a4f" y="266.317510815"/>
    </g>
    <g clip-path="url(#p5a67343740)">
     <use style="fill:#9e0142;fill-opacity:0.6;stroke:#000000;stroke-opacity:0.6;stroke-width:0.3;" x="365.453980037" xlink:href="#C3_0_483d1e1a4f" y="262.051767398"/>
    </g>
    <g clip-path="url(#p5a67343740)">
     <use style="fill:#9e0142;fill-opacity:0.6;stroke:#000000;stroke-opacity:0.6;stroke-width:0.3;" x="402.241214343" xlink:href="#C3_0_483d1e1a4f" y="241.68838324"/>
    </g>
    <g clip-path="url(#p5a67343740)">
     <use style="fill:#f98e52;fill-opacity:0.6;stroke:#000000;stroke-opacity:0.6;stroke-width:0.3;" x="290.497004406" xlink:href="#C3_0_483d1e1a4f" y="270.755102424"/>
    </g>
    <g clip-path="url(#p5a67343740)">
     <use style="fill:#ffffbf;fill-opacity:0.6;stroke:#000000;stroke-opacity:0.6;stroke-width:0.3;" x="307.808616591" xlink:href="#C3_0_483d1e1a4f" y="267.205882469"/>
    </g>
    <g clip-path="url(#p5a67343740)">
     <use style="fill:#9e0142;fill-opacity:0.6;stroke:#000000;stroke-opacity:0.6;stroke-width:0.3;" x="369.11316649" xlink:href="#C3_0_483d1e1a4f" y="262.830924527"/>
    </g>
    <g clip-path="url(#p5a67343740)">
     <use style="fill:#9e0142;fill-opacity:0.6;stroke:#000000;stroke-opacity:0.6;stroke-width:0.3;" x="369.109401782" xlink:href="#C3_0_483d1e1a4f" y="259.140175568"/>
    </g>
    <g clip-path="url(#p5a67343740)">
     <use style="fill:#9e0142;fill-opacity:0.6;stroke:#000000;stroke-opacity:0.6;stroke-width:0.3;" x="410.961272461" xlink:href="#C3_0_483d1e1a4f" y="246.688169965"/>
    </g>
    <g clip-path="url(#p5a67343740)">
     <use style="fill:#9e0142;fill-opacity:0.6;stroke:#000000;stroke-opacity:0.6;stroke-width:0.3;" x="458.924818066" xlink:href="#C3_0_483d1e1a4f" y="229.850199636"/>
    </g>
    <g clip-path="url(#p5a67343740)">
     <use style="fill:#f98e52;fill-opacity:0.6;stroke:#000000;stroke-opacity:0.6;stroke-width:0.3;" x="320.354024491" xlink:href="#C3_0_483d1e1a4f" y="289.842304113"/>
    </g>
    <g clip-path="url(#p5a67343740)">
     <use style="fill:#f98e52;fill-opacity:0.6;stroke:#000000;stroke-opacity:0.6;stroke-width:0.3;" x="310.512679329" xlink:href="#C3_0_483d1e1a4f" y="279.417486024"/>
    </g>
    <g clip-path="url(#p5a67343740)">
     <use style="fill:#ffffbf;fill-opacity:0.6;stroke:#000000;stroke-opacity:0.6;stroke-width:0.3;" x="329.295468018" xlink:href="#C3_0_483d1e1a4f" y="281.673107308"/>
    </g>
    <g clip-path="url(#p5a67343740)">
     <use style="fill:#ffffbf;fill-opacity:0.6;stroke:#000000;stroke-opacity:0.6;stroke-width:0.3;" x="278.10843186" xlink:href="#C3_0_483d1e1a4f" y="282.096274735"/>
    </g>
    <g clip-path="url(#p5a67343740)">
     <use style="fill:#9e0142;fill-opacity:0.6;stroke:#000000;stroke-opacity:0.6;stroke-width:0.3;" x="401.030793559" xlink:href="#C3_0_483d1e1a4f" y="247.748147259"/>
    </g>
    <g clip-path="url(#p5a67343740)">
     <use style="fill:#9e0142;fill-opacity:0.6;stroke:#000000;stroke-opacity:0.6;stroke-width:0.3;" x="423.574573752" xlink:href="#C3_0_483d1e1a4f" y="215.395162123"/>
    </g>
    <g clip-path="url(#p5a67343740)">
     <use style="fill:#ffffbf;fill-opacity:0.6;stroke:#000000;stroke-opacity:0.6;stroke-width:0.3;" x="286.500829444" xlink:href="#C3_0_483d1e1a4f" y="286.411527616"/>
    </g>
    <g clip-path="url(#p5a67343740)">
     <use style="fill:#9e0142;fill-opacity:0.6;stroke:#000000;stroke-opacity:0.6;stroke-width:0.3;" x="414.502232192" xlink:href="#C3_0_483d1e1a4f" y="242.008863732"/>
    </g>
    <g clip-path="url(#p5a67343740)">
     <use style="fill:#f98e52;fill-opacity:0.6;stroke:#000000;stroke-opacity:0.6;stroke-width:0.3;" x="311.951756422" xlink:href="#C3_0_483d1e1a4f" y="266.213994775"/>
    </g>
    <g clip-path="url(#p5a67343740)">
     <use style="fill:#9e0142;fill-opacity:0.6;stroke:#000000;stroke-opacity:0.6;stroke-width:0.3;" x="396.93712085" xlink:href="#C3_0_483d1e1a4f" y="237.985445837"/>
    </g>
    <g clip-path="url(#p5a67343740)">
     <use style="fill:#f98e52;fill-opacity:0.6;stroke:#000000;stroke-opacity:0.6;stroke-width:0.3;" x="301.368142887" xlink:href="#C3_0_483d1e1a4f" y="273.545692247"/>
    </g>
    <g clip-path="url(#p5a67343740)">
     <use style="fill:#f98e52;fill-opacity:0.6;stroke:#000000;stroke-opacity:0.6;stroke-width:0.3;" x="339.702784218" xlink:href="#C3_0_483d1e1a4f" y="270.13387298"/>
    </g>
    <g clip-path="url(#p5a67343740)">
     <use style="fill:#ffffbf;fill-opacity:0.6;stroke:#000000;stroke-opacity:0.6;stroke-width:0.3;" x="338.071249213" xlink:href="#C3_0_483d1e1a4f" y="276.042811018"/>
    </g>
    <g clip-path="url(#p5a67343740)">
     <use style="fill:#f98e52;fill-opacity:0.6;stroke:#000000;stroke-opacity:0.6;stroke-width:0.3;" x="298.247195964" xlink:href="#C3_0_483d1e1a4f" y="281.960221794"/>
    </g>
    <g clip-path="url(#p5a67343740)">
     <use style="fill:#f98e52;fill-opacity:0.6;stroke:#000000;stroke-opacity:0.6;stroke-width:0.3;" x="337.258858238" xlink:href="#C3_0_483d1e1a4f" y="273.129732661"/>
    </g>
    <g clip-path="url(#p5a67343740)">
     <use style="fill:#ffffbf;fill-opacity:0.6;stroke:#000000;stroke-opacity:0.6;stroke-width:0.3;" x="340.242897288" xlink:href="#C3_0_483d1e1a4f" y="258.236942299"/>
    </g>
    <g clip-path="url(#p5a67343740)">
     <use style="fill:#9e0142;fill-opacity:0.6;stroke:#000000;stroke-opacity:0.6;stroke-width:0.3;" x="355.979773667" xlink:href="#C3_0_483d1e1a4f" y="232.854345746"/>
    </g>
    <g clip-path="url(#p5a67343740)">
     <use style="fill:#ffffbf;fill-opacity:0.6;stroke:#000000;stroke-opacity:0.6;stroke-width:0.3;" x="338.628601708" xlink:href="#C3_0_483d1e1a4f" y="264.389753404"/>
    </g>
    <g clip-path="url(#p5a67343740)">
     <use style="fill:#ffffbf;fill-opacity:0.6;stroke:#000000;stroke-opacity:0.6;stroke-width:0.3;" x="254.873822715" xlink:href="#C3_0_483d1e1a4f" y="267.100280059"/>
    </g>
   </g>
  </g>
 </g>
 <defs>
  <clipPath id="p5a67343740">
   <rect height="432.0" width="576.0" x="0.0" y="0.0"/>
  </clipPath>
 </defs>
</svg>
