<?xml version="1.0" encoding="utf-8" standalone="no"?>
<!DOCTYPE svg PUBLIC "-//W3C//DTD SVG 1.1//EN"
  "http://www.w3.org/Graphics/SVG/1.1/DTD/svg11.dtd">
<!-- Created with matplotlib (http://matplotlib.org/) -->
<svg height="432pt" version="1.1" viewBox="0 0 576 432" width="576pt" xmlns="http://www.w3.org/2000/svg" xmlns:xlink="http://www.w3.org/1999/xlink">
 <defs>
  <style type="text/css">
*{stroke-linecap:butt;stroke-linejoin:round;}
  </style>
 </defs>
 <g id="figure_1">
  <g id="patch_1">
   <path d="
M0 432
L576 432
L576 0
L0 0
z
" style="fill:#ffffff;"/>
  </g>
  <g id="patch_2">
   <path d="
M0 432
L576 432
L576 0
L0 0
z
" style="fill:#eaeaf2;"/>
  </g>
  <g id="pane3d_1">
   <g id="patch_3">
    <path d="
M295.784 194.205
L517.687 300.312
L533.059 113.767
L295.784 11.0056" style="fill:#f2f2f2;opacity:0.5;stroke:#f2f2f2;stroke-linejoin:miter;stroke-width:0.3;"/>
   </g>
  </g>
  <g id="pane3d_2">
   <g id="patch_4">
    <path d="
M295.784 194.205
L73.8808 300.312
L58.5082 113.767
L295.784 11.0056" style="fill:#e6e6e6;opacity:0.5;stroke:#e6e6e6;stroke-linejoin:miter;stroke-width:0.3;"/>
   </g>
  </g>
  <g id="pane3d_3">
   <g id="patch_5">
    <path d="
M295.784 194.205
L73.8808 300.312
L295.784 418.673
L517.687 300.312" style="fill:#ececec;opacity:0.5;stroke:#ececec;stroke-linejoin:miter;stroke-width:0.3;"/>
   </g>
  </g>
  <g id="axis3d_1">
   <g id="line2d_1">
    <path d="
M517.687 300.312
L295.784 418.673" style="fill:none;stroke:#000000;stroke-linecap:round;stroke-width:0.75;"/>
   </g>
   <g id="text_1">
    <!-- X -->
    <defs>
     <path d="
M6.29688 72.9062
L16.8906 72.9062
L35.0156 45.7969
L53.2188 72.9062
L63.8125 72.9062
L40.375 37.8906
L65.375 0
L54.7812 0
L34.2812 31
L13.625 0
L2.98438 0
L29 38.9219
z
" id="BitstreamVeraSans-Roman-58"/>
    </defs>
    <g style="fill:#262626;" transform="translate(435.42639646 398.421706886)scale(0.11 -0.11)">
     <use xlink:href="#BitstreamVeraSans-Roman-58"/>
    </g>
   </g>
   <g id="Line3DCollection_1">
    <defs>
     <path d="
M513.486 -129.448
L291.571 -235.78
L291.295 -419.05" id="C0_0_c68a4c1255"/>
     <path d="
M468.105 -105.242
L246.087 -214.031
L242.791 -398.044" id="C0_1_7f41f2bd04"/>
     <path d="
M421.639 -80.4573
L199.574 -191.79
L193.117 -376.53" id="C0_2_11ddd7b1a9"/>
     <path d="
M374.051 -55.0742
L151.997 -169.041
L142.23 -354.492" id="C0_3_86da7a5abf"/>
     <path d="
M325.299 -29.0701
L103.32 -145.765
L90.0842 -331.908" id="C0_4_5e2d37b5e9"/>
    </defs>
    <use style="fill:none;stroke:#e6e6e6;stroke-width:1.75;" x="0.0" xlink:href="#C0_0_c68a4c1255" y="432.0"/>
    <use style="fill:none;stroke:#e6e6e6;stroke-width:1.75;" x="0.0" xlink:href="#C0_1_7f41f2bd04" y="432.0"/>
    <use style="fill:none;stroke:#e6e6e6;stroke-width:1.75;" x="0.0" xlink:href="#C0_2_11ddd7b1a9" y="432.0"/>
    <use style="fill:none;stroke:#e6e6e6;stroke-width:1.75;" x="0.0" xlink:href="#C0_3_86da7a5abf" y="432.0"/>
    <use style="fill:none;stroke:#e6e6e6;stroke-width:1.75;" x="0.0" xlink:href="#C0_4_5e2d37b5e9" y="432.0"/>
   </g>
   <g id="xtick_1">
    <g id="line2d_2">
     <path clip-path="url(#p5a67343740)" d="
M295.784 210.162" style="fill:none;stroke:#ffffff;stroke-linecap:round;"/>
    </g>
    <g id="line2d_3">
     <path d="
M511.615 301.655
L517.234 304.348" style="fill:none;stroke:#262626;stroke-linecap:round;stroke-width:1.75;"/>
    </g>
    <g id="text_2">
     <!-- −0.6 -->
     <defs>
      <path d="
M10.5938 35.5
L73.1875 35.5
L73.1875 27.2031
L10.5938 27.2031
z
" id="BitstreamVeraSans-Roman-2212"/>
      <path d="
M33.0156 40.375
Q26.375 40.375 22.4844 35.8281
Q18.6094 31.2969 18.6094 23.3906
Q18.6094 15.5312 22.4844 10.9531
Q26.375 6.39062 33.0156 6.39062
Q39.6562 6.39062 43.5312 10.9531
Q47.4062 15.5312 47.4062 23.3906
Q47.4062 31.2969 43.5312 35.8281
Q39.6562 40.375 33.0156 40.375
M52.5938 71.2969
L52.5938 62.3125
Q48.875 64.0625 45.0938 64.9844
Q41.3125 65.9219 37.5938 65.9219
Q27.8281 65.9219 22.6719 59.3281
Q17.5312 52.7344 16.7969 39.4062
Q19.6719 43.6562 24.0156 45.9219
Q28.375 48.1875 33.5938 48.1875
Q44.5781 48.1875 50.9531 41.5156
Q57.3281 34.8594 57.3281 23.3906
Q57.3281 12.1562 50.6875 5.35938
Q44.0469 -1.42188 33.0156 -1.42188
Q20.3594 -1.42188 13.6719 8.26562
Q6.98438 17.9688 6.98438 36.375
Q6.98438 53.6562 15.1875 63.9375
Q23.3906 74.2188 37.2031 74.2188
Q40.9219 74.2188 44.7031 73.4844
Q48.4844 72.75 52.5938 71.2969" id="BitstreamVeraSans-Roman-36"/>
      <path d="
M31.7812 66.4062
Q24.1719 66.4062 20.3281 58.9062
Q16.5 51.4219 16.5 36.375
Q16.5 21.3906 20.3281 13.8906
Q24.1719 6.39062 31.7812 6.39062
Q39.4531 6.39062 43.2812 13.8906
Q47.125 21.3906 47.125 36.375
Q47.125 51.4219 43.2812 58.9062
Q39.4531 66.4062 31.7812 66.4062
M31.7812 74.2188
Q44.0469 74.2188 50.5156 64.5156
Q56.9844 54.8281 56.9844 36.375
Q56.9844 17.9688 50.5156 8.26562
Q44.0469 -1.42188 31.7812 -1.42188
Q19.5312 -1.42188 13.0625 8.26562
Q6.59375 17.9688 6.59375 36.375
Q6.59375 54.8281 13.0625 64.5156
Q19.5312 74.2188 31.7812 74.2188" id="BitstreamVeraSans-Roman-30"/>
      <path d="
M10.6875 12.4062
L21 12.4062
L21 0
L10.6875 0
z
" id="BitstreamVeraSans-Roman-2e"/>
     </defs>
     <g style="fill:#262626;" transform="translate(514.498247448 326.19363451)scale(0.1 -0.1)">
      <use xlink:href="#BitstreamVeraSans-Roman-2212"/>
      <use x="83.7890625" xlink:href="#BitstreamVeraSans-Roman-30"/>
      <use x="147.412109375" xlink:href="#BitstreamVeraSans-Roman-2e"/>
      <use x="179.19921875" xlink:href="#BitstreamVeraSans-Roman-36"/>
     </g>
    </g>
   </g>
   <g id="xtick_2">
    <g id="line2d_4">
     <path clip-path="url(#p5a67343740)" d="
M295.784 210.162" style="fill:none;stroke:#ffffff;stroke-linecap:round;"/>
    </g>
    <g id="line2d_5">
     <path d="
M466.231 325.84
L471.857 328.597" style="fill:none;stroke:#262626;stroke-linecap:round;stroke-width:1.75;"/>
    </g>
    <g id="text_3">
     <!-- −0.4 -->
     <defs>
      <path d="
M37.7969 64.3125
L12.8906 25.3906
L37.7969 25.3906
z

M35.2031 72.9062
L47.6094 72.9062
L47.6094 25.3906
L58.0156 25.3906
L58.0156 17.1875
L47.6094 17.1875
L47.6094 0
L37.7969 0
L37.7969 17.1875
L4.89062 17.1875
L4.89062 26.7031
z
" id="BitstreamVeraSans-Roman-34"/>
     </defs>
     <g style="fill:#262626;" transform="translate(469.253443029 350.575106378)scale(0.1 -0.1)">
      <use xlink:href="#BitstreamVeraSans-Roman-2212"/>
      <use x="83.7890625" xlink:href="#BitstreamVeraSans-Roman-30"/>
      <use x="147.412109375" xlink:href="#BitstreamVeraSans-Roman-2e"/>
      <use x="179.19921875" xlink:href="#BitstreamVeraSans-Roman-34"/>
     </g>
    </g>
   </g>
   <g id="xtick_3">
    <g id="line2d_6">
     <path clip-path="url(#p5a67343740)" d="
M295.784 210.162" style="fill:none;stroke:#ffffff;stroke-linecap:round;"/>
    </g>
    <g id="line2d_7">
     <path d="
M419.764 350.603
L425.395 353.425" style="fill:none;stroke:#262626;stroke-linecap:round;stroke-width:1.75;"/>
    </g>
    <g id="text_4">
     <!-- −0.2 -->
     <defs>
      <path d="
M19.1875 8.29688
L53.6094 8.29688
L53.6094 0
L7.32812 0
L7.32812 8.29688
Q12.9375 14.1094 22.625 23.8906
Q32.3281 33.6875 34.8125 36.5312
Q39.5469 41.8438 41.4219 45.5312
Q43.3125 49.2188 43.3125 52.7812
Q43.3125 58.5938 39.2344 62.25
Q35.1562 65.9219 28.6094 65.9219
Q23.9688 65.9219 18.8125 64.3125
Q13.6719 62.7031 7.8125 59.4219
L7.8125 69.3906
Q13.7656 71.7812 18.9375 73
Q24.125 74.2188 28.4219 74.2188
Q39.75 74.2188 46.4844 68.5469
Q53.2188 62.8906 53.2188 53.4219
Q53.2188 48.9219 51.5312 44.8906
Q49.8594 40.875 45.4062 35.4062
Q44.1875 33.9844 37.6406 27.2188
Q31.1094 20.4531 19.1875 8.29688" id="BitstreamVeraSans-Roman-32"/>
     </defs>
     <g style="fill:#262626;" transform="translate(423.184474149 375.538390872)scale(0.1 -0.1)">
      <use xlink:href="#BitstreamVeraSans-Roman-2212"/>
      <use x="83.7890625" xlink:href="#BitstreamVeraSans-Roman-30"/>
      <use x="147.412109375" xlink:href="#BitstreamVeraSans-Roman-2e"/>
      <use x="179.19921875" xlink:href="#BitstreamVeraSans-Roman-32"/>
     </g>
    </g>
   </g>
   <g id="xtick_4">
    <g id="line2d_8">
     <path clip-path="url(#p5a67343740)" d="
M295.784 210.162" style="fill:none;stroke:#ffffff;stroke-linecap:round;"/>
    </g>
    <g id="line2d_9">
     <path d="
M372.175 375.963
L377.809 378.854" style="fill:none;stroke:#262626;stroke-linecap:round;stroke-width:1.75;"/>
    </g>
    <g id="text_5">
     <!-- 0.0 -->
     <g style="fill:#262626;" transform="translate(379.598351435 401.10456508)scale(0.1 -0.1)">
      <use xlink:href="#BitstreamVeraSans-Roman-30"/>
      <use x="63.623046875" xlink:href="#BitstreamVeraSans-Roman-2e"/>
      <use x="95.41015625" xlink:href="#BitstreamVeraSans-Roman-30"/>
     </g>
    </g>
   </g>
   <g id="xtick_5">
    <g id="line2d_10">
     <path clip-path="url(#p5a67343740)" d="
M295.784 210.162" style="fill:none;stroke:#ffffff;stroke-linecap:round;"/>
    </g>
    <g id="line2d_11">
     <path d="
M323.422 401.943
L329.058 404.906" style="fill:none;stroke:#262626;stroke-linecap:round;stroke-width:1.75;"/>
    </g>
    <g id="text_6">
     <!-- 0.2 -->
     <g style="fill:#262626;" transform="translate(331.200955892 427.295736597)scale(0.1 -0.1)">
      <use xlink:href="#BitstreamVeraSans-Roman-30"/>
      <use x="63.623046875" xlink:href="#BitstreamVeraSans-Roman-2e"/>
      <use x="95.41015625" xlink:href="#BitstreamVeraSans-Roman-32"/>
     </g>
    </g>
   </g>
  </g>
  <g id="axis3d_2">
   <g id="line2d_12">
    <path d="
M73.8808 300.312
L295.784 418.673" style="fill:none;stroke:#000000;stroke-linecap:round;stroke-width:0.75;"/>
   </g>
   <g id="text_7">
    <!-- Y -->
    <defs>
     <path d="
M-0.203125 72.9062
L10.4062 72.9062
L30.6094 42.9219
L50.6875 72.9062
L61.2812 72.9062
L35.5 34.7188
L35.5 0
L25.5938 0
L25.5938 34.7188
z
" id="BitstreamVeraSans-Roman-59"/>
    </defs>
    <g style="fill:#262626;" transform="translate(149.328046107 398.421706886)scale(0.11 -0.11)">
     <use xlink:href="#BitstreamVeraSans-Roman-59"/>
    </g>
   </g>
   <g id="Line3DCollection_2">
    <defs>
     <path d="
M300.272 -419.05
L299.996 -235.78
L78.0812 -129.448" id="C1_0_b7cd664821"/>
     <path d="
M331.321 -405.603
L329.12 -221.854
L107.133 -113.952" id="C1_1_1848c5d9cf"/>
     <path d="
M362.848 -391.95
L358.664 -207.727
L136.627 -98.2203" id="C1_2_19aa1cd6d1"/>
     <path d="
M394.863 -378.084
L388.637 -193.396
L166.573 -82.2473" id="C1_3_55c1f81ad4"/>
     <path d="
M427.378 -364.002
L419.048 -178.854
L196.981 -66.0274" id="C1_4_bafec10252"/>
     <path d="
M460.404 -349.699
L449.908 -164.098
L227.864 -49.5549" id="C1_5_038704fca0"/>
     <path d="
M493.955 -335.168
L481.225 -149.123
L259.231 -32.8238" id="C1_6_e7ec857b71"/>
     <path d="
M528.043 -320.405
L513.011 -133.924
L291.095 -15.828" id="C1_7_6bcc7a70fb"/>
    </defs>
    <use style="fill:none;stroke:#e6e6e6;stroke-width:1.75;" x="0.0" xlink:href="#C1_0_b7cd664821" y="432.0"/>
    <use style="fill:none;stroke:#e6e6e6;stroke-width:1.75;" x="0.0" xlink:href="#C1_1_1848c5d9cf" y="432.0"/>
    <use style="fill:none;stroke:#e6e6e6;stroke-width:1.75;" x="0.0" xlink:href="#C1_2_19aa1cd6d1" y="432.0"/>
    <use style="fill:none;stroke:#e6e6e6;stroke-width:1.75;" x="0.0" xlink:href="#C1_3_55c1f81ad4" y="432.0"/>
    <use style="fill:none;stroke:#e6e6e6;stroke-width:1.75;" x="0.0" xlink:href="#C1_4_bafec10252" y="432.0"/>
    <use style="fill:none;stroke:#e6e6e6;stroke-width:1.75;" x="0.0" xlink:href="#C1_5_038704fca0" y="432.0"/>
    <use style="fill:none;stroke:#e6e6e6;stroke-width:1.75;" x="0.0" xlink:href="#C1_6_e7ec857b71" y="432.0"/>
    <use style="fill:none;stroke:#e6e6e6;stroke-width:1.75;" x="0.0" xlink:href="#C1_7_6bcc7a70fb" y="432.0"/>
   </g>
   <g id="xtick_6">
    <g id="line2d_13">
     <path clip-path="url(#p5a67343740)" d="
M295.784 210.162" style="fill:none;stroke:#ffffff;stroke-linecap:round;"/>
    </g>
    <g id="line2d_14">
     <path d="
M79.9527 301.655
L74.3332 304.348" style="fill:none;stroke:#262626;stroke-linecap:round;stroke-width:1.75;"/>
    </g>
    <g id="text_8">
     <!-- −0.4 -->
     <g style="fill:#262626;" transform="translate(54.4411951192 326.19363451)scale(0.1 -0.1)">
      <use xlink:href="#BitstreamVeraSans-Roman-2212"/>
      <use x="83.7890625" xlink:href="#BitstreamVeraSans-Roman-30"/>
      <use x="147.412109375" xlink:href="#BitstreamVeraSans-Roman-2e"/>
      <use x="179.19921875" xlink:href="#BitstreamVeraSans-Roman-34"/>
     </g>
    </g>
   </g>
   <g id="xtick_7">
    <g id="line2d_15">
     <path clip-path="url(#p5a67343740)" d="
M295.784 210.162" style="fill:none;stroke:#ffffff;stroke-linecap:round;"/>
    </g>
    <g id="line2d_16">
     <path d="
M109.006 317.138
L103.382 319.871" style="fill:none;stroke:#262626;stroke-linecap:round;stroke-width:1.75;"/>
    </g>
    <g id="text_9">
     <!-- −0.3 -->
     <defs>
      <path d="
M40.5781 39.3125
Q47.6562 37.7969 51.625 33
Q55.6094 28.2188 55.6094 21.1875
Q55.6094 10.4062 48.1875 4.48438
Q40.7656 -1.42188 27.0938 -1.42188
Q22.5156 -1.42188 17.6562 -0.515625
Q12.7969 0.390625 7.625 2.20312
L7.625 11.7188
Q11.7188 9.32812 16.5938 8.10938
Q21.4844 6.89062 26.8125 6.89062
Q36.0781 6.89062 40.9375 10.5469
Q45.7969 14.2031 45.7969 21.1875
Q45.7969 27.6406 41.2812 31.2656
Q36.7656 34.9062 28.7188 34.9062
L20.2188 34.9062
L20.2188 43.0156
L29.1094 43.0156
Q36.375 43.0156 40.2344 45.9219
Q44.0938 48.8281 44.0938 54.2969
Q44.0938 59.9062 40.1094 62.9062
Q36.1406 65.9219 28.7188 65.9219
Q24.6562 65.9219 20.0156 65.0312
Q15.375 64.1562 9.8125 62.3125
L9.8125 71.0938
Q15.4375 72.6562 20.3438 73.4375
Q25.25 74.2188 29.5938 74.2188
Q40.8281 74.2188 47.3594 69.1094
Q53.9062 64.0156 53.9062 55.3281
Q53.9062 49.2656 50.4375 45.0938
Q46.9688 40.9219 40.5781 39.3125" id="BitstreamVeraSans-Roman-33"/>
     </defs>
     <g style="fill:#262626;" transform="translate(83.5034807736 341.80171241)scale(0.1 -0.1)">
      <use xlink:href="#BitstreamVeraSans-Roman-2212"/>
      <use x="83.7890625" xlink:href="#BitstreamVeraSans-Roman-30"/>
      <use x="147.412109375" xlink:href="#BitstreamVeraSans-Roman-2e"/>
      <use x="179.19921875" xlink:href="#BitstreamVeraSans-Roman-33"/>
     </g>
    </g>
   </g>
   <g id="xtick_8">
    <g id="line2d_17">
     <path clip-path="url(#p5a67343740)" d="
M295.784 210.162" style="fill:none;stroke:#ffffff;stroke-linecap:round;"/>
    </g>
    <g id="line2d_18">
     <path d="
M138.501 332.855
L132.873 335.631" style="fill:none;stroke:#262626;stroke-linecap:round;stroke-width:1.75;"/>
    </g>
    <g id="text_10">
     <!-- −0.2 -->
     <g style="fill:#262626;" transform="translate(112.985684559 357.647201696)scale(0.1 -0.1)">
      <use xlink:href="#BitstreamVeraSans-Roman-2212"/>
      <use x="83.7890625" xlink:href="#BitstreamVeraSans-Roman-30"/>
      <use x="147.412109375" xlink:href="#BitstreamVeraSans-Roman-2e"/>
      <use x="179.19921875" xlink:href="#BitstreamVeraSans-Roman-32"/>
     </g>
    </g>
   </g>
   <g id="xtick_9">
    <g id="line2d_19">
     <path clip-path="url(#p5a67343740)" d="
M295.784 210.162" style="fill:none;stroke:#ffffff;stroke-linecap:round;"/>
    </g>
    <g id="line2d_20">
     <path d="
M168.448 348.814
L162.818 351.632" style="fill:none;stroke:#262626;stroke-linecap:round;stroke-width:1.75;"/>
    </g>
    <g id="text_11">
     <!-- −0.1 -->
     <defs>
      <path d="
M12.4062 8.29688
L28.5156 8.29688
L28.5156 63.9219
L10.9844 60.4062
L10.9844 69.3906
L28.4219 72.9062
L38.2812 72.9062
L38.2812 8.29688
L54.3906 8.29688
L54.3906 0
L12.4062 0
z
" id="BitstreamVeraSans-Roman-31"/>
     </defs>
     <g style="fill:#262626;" transform="translate(142.779177843 373.735560708)scale(0.1 -0.1)">
      <use xlink:href="#BitstreamVeraSans-Roman-2212"/>
      <use x="83.7890625" xlink:href="#BitstreamVeraSans-Roman-30"/>
      <use x="147.412109375" xlink:href="#BitstreamVeraSans-Roman-2e"/>
      <use x="179.19921875" xlink:href="#BitstreamVeraSans-Roman-31"/>
     </g>
    </g>
   </g>
   <g id="xtick_10">
    <g id="line2d_21">
     <path clip-path="url(#p5a67343740)" d="
M295.784 210.162" style="fill:none;stroke:#ffffff;stroke-linecap:round;"/>
    </g>
    <g id="line2d_22">
     <path d="
M198.857 365.02
L193.225 367.881" style="fill:none;stroke:#262626;stroke-linecap:round;stroke-width:1.75;"/>
    </g>
    <g id="text_12">
     <!-- 0.0 -->
     <g style="fill:#262626;" transform="translate(176.93267591 390.072416402)scale(0.1 -0.1)">
      <use xlink:href="#BitstreamVeraSans-Roman-30"/>
      <use x="63.623046875" xlink:href="#BitstreamVeraSans-Roman-2e"/>
      <use x="95.41015625" xlink:href="#BitstreamVeraSans-Roman-30"/>
     </g>
    </g>
   </g>
   <g id="xtick_11">
    <g id="line2d_23">
     <path clip-path="url(#p5a67343740)" d="
M295.784 210.162" style="fill:none;stroke:#ffffff;stroke-linecap:round;"/>
    </g>
    <g id="line2d_24">
     <path d="
M229.74 381.477
L224.106 384.384" style="fill:none;stroke:#262626;stroke-linecap:round;stroke-width:1.75;"/>
    </g>
    <g id="text_13">
     <!-- 0.1 -->
     <g style="fill:#262626;" transform="translate(207.827250123 406.66357091)scale(0.1 -0.1)">
      <use xlink:href="#BitstreamVeraSans-Roman-30"/>
      <use x="63.623046875" xlink:href="#BitstreamVeraSans-Roman-2e"/>
      <use x="95.41015625" xlink:href="#BitstreamVeraSans-Roman-31"/>
     </g>
    </g>
   </g>
   <g id="xtick_12">
    <g id="line2d_25">
     <path clip-path="url(#p5a67343740)" d="
M295.784 210.162" style="fill:none;stroke:#ffffff;stroke-linecap:round;"/>
    </g>
    <g id="line2d_26">
     <path d="
M261.108 398.193
L255.473 401.145" style="fill:none;stroke:#262626;stroke-linecap:round;stroke-width:1.75;"/>
    </g>
    <g id="text_14">
     <!-- 0.2 -->
     <g style="fill:#262626;" transform="translate(239.113840668 423.515008416)scale(0.1 -0.1)">
      <use xlink:href="#BitstreamVeraSans-Roman-30"/>
      <use x="63.623046875" xlink:href="#BitstreamVeraSans-Roman-2e"/>
      <use x="95.41015625" xlink:href="#BitstreamVeraSans-Roman-32"/>
     </g>
    </g>
   </g>
   <g id="xtick_13">
    <g id="line2d_27">
     <path clip-path="url(#p5a67343740)" d="
M295.784 210.162" style="fill:none;stroke:#ffffff;stroke-linecap:round;"/>
    </g>
    <g id="line2d_28">
     <path d="
M292.972 415.173
L287.336 418.172" style="fill:none;stroke:#262626;stroke-linecap:round;stroke-width:1.75;"/>
    </g>
    <g id="text_15">
     <!-- 0.3 -->
     <g style="fill:#262626;" transform="translate(270.755457396 440.632902345)scale(0.1 -0.1)">
      <use xlink:href="#BitstreamVeraSans-Roman-30"/>
      <use x="63.623046875" xlink:href="#BitstreamVeraSans-Roman-2e"/>
      <use x="95.41015625" xlink:href="#BitstreamVeraSans-Roman-33"/>
     </g>
    </g>
   </g>
  </g>
  <g id="axis3d_3">
   <g id="line2d_29">
    <path d="
M73.8808 300.312
L58.5082 113.767" style="fill:none;stroke:#000000;stroke-linecap:round;stroke-width:0.75;"/>
   </g>
   <g id="text_16">
    <!-- Z -->
    <defs>
     <path d="
M5.60938 72.9062
L62.8906 72.9062
L62.8906 65.375
L16.7969 8.29688
L64.0156 8.29688
L64.0156 0
L4.5 0
L4.5 7.51562
L50.5938 64.5938
L5.60938 64.5938
z
" id="BitstreamVeraSans-Roman-5a"/>
    </defs>
    <g style="fill:#262626;" transform="translate(4.46952154274 213.197474662)scale(0.11 -0.11)">
     <use xlink:href="#BitstreamVeraSans-Roman-5a"/>
    </g>
   </g>
   <g id="Line3DCollection_3">
    <defs>
     <path d="
M73.5929 -135.182
L295.784 -241.238
L517.975 -135.182" id="C2_0_149983183a"/>
     <path d="
M71.2625 -163.461
L295.784 -269.091
L520.305 -163.461" id="C2_1_4aa2aa46cc"/>
     <path d="
M68.8827 -192.34
L295.784 -297.503
L522.685 -192.34" id="C2_2_96cc21cb89"/>
     <path d="
M66.4519 -221.838
L295.784 -326.492
L525.116 -221.838" id="C2_3_1247231837"/>
     <path d="
M63.9684 -251.974
L295.784 -356.074
L527.599 -251.974" id="C2_4_3999b85f56"/>
     <path d="
M61.4305 -282.771
L295.784 -386.269
L530.137 -282.771" id="C2_5_fba640c6b7"/>
     <path d="
M58.8365 -314.249
L295.784 -417.096
L532.731 -314.249" id="C2_6_308a985b70"/>
    </defs>
    <use style="fill:none;stroke:#e6e6e6;stroke-width:1.75;" x="0.0" xlink:href="#C2_0_149983183a" y="432.0"/>
    <use style="fill:none;stroke:#e6e6e6;stroke-width:1.75;" x="0.0" xlink:href="#C2_1_4aa2aa46cc" y="432.0"/>
    <use style="fill:none;stroke:#e6e6e6;stroke-width:1.75;" x="0.0" xlink:href="#C2_2_96cc21cb89" y="432.0"/>
    <use style="fill:none;stroke:#e6e6e6;stroke-width:1.75;" x="0.0" xlink:href="#C2_3_1247231837" y="432.0"/>
    <use style="fill:none;stroke:#e6e6e6;stroke-width:1.75;" x="0.0" xlink:href="#C2_4_3999b85f56" y="432.0"/>
    <use style="fill:none;stroke:#e6e6e6;stroke-width:1.75;" x="0.0" xlink:href="#C2_5_fba640c6b7" y="432.0"/>
    <use style="fill:none;stroke:#e6e6e6;stroke-width:1.75;" x="0.0" xlink:href="#C2_6_308a985b70" y="432.0"/>
   </g>
   <g id="xtick_14">
    <g id="line2d_30">
     <path d="
M295.784 210.162" style="fill:none;stroke:#ffffff;stroke-linecap:round;"/>
    </g>
    <g id="line2d_31">
     <path d="
M75.4668 295.924
L69.8402 298.609" style="fill:none;stroke:#262626;stroke-linecap:round;stroke-width:1.75;"/>
    </g>
    <g id="text_17">
     <!-- −0.35 -->
     <defs>
      <path d="
M10.7969 72.9062
L49.5156 72.9062
L49.5156 64.5938
L19.8281 64.5938
L19.8281 46.7344
Q21.9688 47.4688 24.1094 47.8281
Q26.2656 48.1875 28.4219 48.1875
Q40.625 48.1875 47.75 41.5
Q54.8906 34.8125 54.8906 23.3906
Q54.8906 11.625 47.5625 5.09375
Q40.2344 -1.42188 26.9062 -1.42188
Q22.3125 -1.42188 17.5469 -0.640625
Q12.7969 0.140625 7.71875 1.70312
L7.71875 11.625
Q12.1094 9.23438 16.7969 8.0625
Q21.4844 6.89062 26.7031 6.89062
Q35.1562 6.89062 40.0781 11.3281
Q45.0156 15.7656 45.0156 23.3906
Q45.0156 31 40.0781 35.4375
Q35.1562 39.8906 26.7031 39.8906
Q22.75 39.8906 18.8125 39.0156
Q14.8906 38.1406 10.7969 36.2812
z
" id="BitstreamVeraSans-Roman-35"/>
     </defs>
     <g style="fill:#262626;" transform="translate(34.3513056046 304.416400614)scale(0.1 -0.1)">
      <use xlink:href="#BitstreamVeraSans-Roman-2212"/>
      <use x="83.7890625" xlink:href="#BitstreamVeraSans-Roman-30"/>
      <use x="147.412109375" xlink:href="#BitstreamVeraSans-Roman-2e"/>
      <use x="179.19921875" xlink:href="#BitstreamVeraSans-Roman-33"/>
      <use x="242.822265625" xlink:href="#BitstreamVeraSans-Roman-35"/>
     </g>
    </g>
   </g>
   <g id="xtick_15">
    <g id="line2d_32">
     <path d="
M295.784 210.162" style="fill:none;stroke:#ffffff;stroke-linecap:round;"/>
    </g>
    <g id="line2d_33">
     <path d="
M73.1571 267.647
L67.4684 270.324" style="fill:none;stroke:#262626;stroke-linecap:round;stroke-width:1.75;"/>
    </g>
    <g id="text_18">
     <!-- −0.30 -->
     <g style="fill:#262626;" transform="translate(31.6551838633 276.137054082)scale(0.1 -0.1)">
      <use xlink:href="#BitstreamVeraSans-Roman-2212"/>
      <use x="83.7890625" xlink:href="#BitstreamVeraSans-Roman-30"/>
      <use x="147.412109375" xlink:href="#BitstreamVeraSans-Roman-2e"/>
      <use x="179.19921875" xlink:href="#BitstreamVeraSans-Roman-33"/>
      <use x="242.822265625" xlink:href="#BitstreamVeraSans-Roman-30"/>
     </g>
    </g>
   </g>
   <g id="xtick_16">
    <g id="line2d_34">
     <path d="
M295.784 210.162" style="fill:none;stroke:#ffffff;stroke-linecap:round;"/>
    </g>
    <g id="line2d_35">
     <path d="
M70.7984 238.772
L65.0462 241.438" style="fill:none;stroke:#262626;stroke-linecap:round;stroke-width:1.75;"/>
    </g>
    <g id="text_19">
     <!-- −0.25 -->
     <g style="fill:#262626;" transform="translate(29.113500933 247.258209596)scale(0.1 -0.1)">
      <use xlink:href="#BitstreamVeraSans-Roman-2212"/>
      <use x="83.7890625" xlink:href="#BitstreamVeraSans-Roman-30"/>
      <use x="147.412109375" xlink:href="#BitstreamVeraSans-Roman-2e"/>
      <use x="179.19921875" xlink:href="#BitstreamVeraSans-Roman-32"/>
      <use x="242.822265625" xlink:href="#BitstreamVeraSans-Roman-35"/>
     </g>
    </g>
   </g>
   <g id="xtick_17">
    <g id="line2d_36">
     <path d="
M295.784 210.162" style="fill:none;stroke:#ffffff;stroke-linecap:round;"/>
    </g>
    <g id="line2d_37">
     <path d="
M68.3892 209.278
L62.572 211.933" style="fill:none;stroke:#262626;stroke-linecap:round;stroke-width:1.75;"/>
    </g>
    <g id="text_20">
     <!-- −0.20 -->
     <g style="fill:#262626;" transform="translate(26.3057411986 217.760599662)scale(0.1 -0.1)">
      <use xlink:href="#BitstreamVeraSans-Roman-2212"/>
      <use x="83.7890625" xlink:href="#BitstreamVeraSans-Roman-30"/>
      <use x="147.412109375" xlink:href="#BitstreamVeraSans-Roman-2e"/>
      <use x="179.19921875" xlink:href="#BitstreamVeraSans-Roman-32"/>
      <use x="242.822265625" xlink:href="#BitstreamVeraSans-Roman-30"/>
     </g>
    </g>
   </g>
   <g id="xtick_18">
    <g id="line2d_38">
     <path d="
M295.784 210.162" style="fill:none;stroke:#ffffff;stroke-linecap:round;"/>
    </g>
    <g id="line2d_39">
     <path d="
M65.9278 179.146
L60.0442 181.788" style="fill:none;stroke:#262626;stroke-linecap:round;stroke-width:1.75;"/>
    </g>
    <g id="text_21">
     <!-- −0.15 -->
     <g style="fill:#262626;" transform="translate(23.6488125646 187.624122187)scale(0.1 -0.1)">
      <use xlink:href="#BitstreamVeraSans-Roman-2212"/>
      <use x="83.7890625" xlink:href="#BitstreamVeraSans-Roman-30"/>
      <use x="147.412109375" xlink:href="#BitstreamVeraSans-Roman-2e"/>
      <use x="179.19921875" xlink:href="#BitstreamVeraSans-Roman-31"/>
      <use x="242.822265625" xlink:href="#BitstreamVeraSans-Roman-35"/>
     </g>
    </g>
   </g>
   <g id="xtick_19">
    <g id="line2d_40">
     <path d="
M295.784 210.162" style="fill:none;stroke:#ffffff;stroke-linecap:round;"/>
    </g>
    <g id="line2d_41">
     <path d="
M63.4126 148.354
L57.461 150.982" style="fill:none;stroke:#262626;stroke-linecap:round;stroke-width:1.75;"/>
    </g>
    <g id="text_22">
     <!-- −0.10 -->
     <g style="fill:#262626;" transform="translate(20.7220422687 156.827794789)scale(0.1 -0.1)">
      <use xlink:href="#BitstreamVeraSans-Roman-2212"/>
      <use x="83.7890625" xlink:href="#BitstreamVeraSans-Roman-30"/>
      <use x="147.412109375" xlink:href="#BitstreamVeraSans-Roman-2e"/>
      <use x="179.19921875" xlink:href="#BitstreamVeraSans-Roman-31"/>
      <use x="242.822265625" xlink:href="#BitstreamVeraSans-Roman-30"/>
     </g>
    </g>
   </g>
   <g id="xtick_20">
    <g id="line2d_42">
     <path d="
M295.784 210.162" style="fill:none;stroke:#ffffff;stroke-linecap:round;"/>
    </g>
    <g id="line2d_43">
     <path d="
M60.8417 116.881
L54.8206 119.494" style="fill:none;stroke:#262626;stroke-linecap:round;stroke-width:1.75;"/>
    </g>
    <g id="text_23">
     <!-- −0.05 -->
     <g style="fill:#262626;" transform="translate(17.9421724176 125.349706082)scale(0.1 -0.1)">
      <use xlink:href="#BitstreamVeraSans-Roman-2212"/>
      <use x="83.7890625" xlink:href="#BitstreamVeraSans-Roman-30"/>
      <use x="147.412109375" xlink:href="#BitstreamVeraSans-Roman-2e"/>
      <use x="179.19921875" xlink:href="#BitstreamVeraSans-Roman-30"/>
      <use x="242.822265625" xlink:href="#BitstreamVeraSans-Roman-35"/>
     </g>
    </g>
   </g>
  </g>
  <g id="axes_1">
   <g id="Path3DCollection_1">
    <defs>
     <path d="
M0 7.07107
C1.87527 7.07107 3.67398 6.32602 5 5
C6.32602 3.67398 7.07107 1.87527 7.07107 0
C7.07107 -1.87527 6.32602 -3.67398 5 -5
C3.67398 -6.32602 1.87527 -7.07107 0 -7.07107
C-1.87527 -7.07107 -3.67398 -6.32602 -5 -5
C-6.32602 -3.67398 -7.07107 -1.87527 -7.07107 0
C-7.07107 1.87527 -6.32602 3.67398 -5 5
C-3.67398 6.32602 -1.87527 7.07107 0 7.07107
z
" id="C3_0_483d1e1a4f"/>
    </defs>
    <g clip-path="url(#p5a67343740)">
     <use style="fill:#9e0142;fill-opacity:0.6;stroke:#000000;stroke-opacity:0.6;stroke-width:0.3;" x="341.419899824" xlink:href="#C3_0_483d1e1a4f" y="147.691905613"/>
    </g>
    <g clip-path="url(#p5a67343740)">
     <use style="fill:#89d0a5;fill-opacity:0.6;stroke:#000000;stroke-opacity:0.6;stroke-width:0.3;" x="320.736228468" xlink:href="#C3_0_483d1e1a4f" y="239.598656379"/>
    </g>
    <g clip-path="url(#p5a67343740)">
     <use style="fill:#89d0a5;fill-opacity:0.6;stroke:#000000;stroke-opacity:0.6;stroke-width:0.3;" x="313.419824902" xlink:href="#C3_0_483d1e1a4f" y="215.216467662"/>
    </g>
    <g clip-path="url(#p5a67343740)">
     <use style="fill:#5e4fa2;fill-opacity:0.6;stroke:#000000;stroke-opacity:0.6;stroke-width:0.3;" x="216.338084305" xlink:href="#C3_0_483d1e1a4f" y="269.443705534"/>
    </g>
    <g clip-path="url(#p5a67343740)">
     <use style="fill:#ffffbf;fill-opacity:0.6;stroke:#000000;stroke-opacity:0.6;stroke-width:0.3;" x="176.059715759" xlink:href="#C3_0_483d1e1a4f" y="247.064120892"/>
    </g>
    <g clip-path="url(#p5a67343740)">
     <use style="fill:#89d0a5;fill-opacity:0.6;stroke:#000000;stroke-opacity:0.6;stroke-width:0.3;" x="355.06832583" xlink:href="#C3_0_483d1e1a4f" y="238.899840104"/>
    </g>
    <g clip-path="url(#p5a67343740)">
     <use style="fill:#9e0142;fill-opacity:0.6;stroke:#000000;stroke-opacity:0.6;stroke-width:0.3;" x="300.986049973" xlink:href="#C3_0_483d1e1a4f" y="148.614528622"/>
    </g>
    <g clip-path="url(#p5a67343740)">
     <use style="fill:#9e0142;fill-opacity:0.6;stroke:#000000;stroke-opacity:0.6;stroke-width:0.3;" x="262.186800516" xlink:href="#C3_0_483d1e1a4f" y="182.794210837"/>
    </g>
    <g clip-path="url(#p5a67343740)">
     <use style="fill:#5e4fa2;fill-opacity:0.6;stroke:#000000;stroke-opacity:0.6;stroke-width:0.3;" x="187.886818868" xlink:href="#C3_0_483d1e1a4f" y="223.943244036"/>
    </g>
    <g clip-path="url(#p5a67343740)">
     <use style="fill:#5e4fa2;fill-opacity:0.6;stroke:#000000;stroke-opacity:0.6;stroke-width:0.3;" x="228.44704425" xlink:href="#C3_0_483d1e1a4f" y="197.797276441"/>
    </g>
    <g clip-path="url(#p5a67343740)">
     <use style="fill:#9e0142;fill-opacity:0.6;stroke:#000000;stroke-opacity:0.6;stroke-width:0.3;" x="308.293309044" xlink:href="#C3_0_483d1e1a4f" y="217.23053343"/>
    </g>
    <g clip-path="url(#p5a67343740)">
     <use style="fill:#89d0a5;fill-opacity:0.6;stroke:#000000;stroke-opacity:0.6;stroke-width:0.3;" x="293.580481872" xlink:href="#C3_0_483d1e1a4f" y="297.606832549"/>
    </g>
    <g clip-path="url(#p5a67343740)">
     <use style="fill:#9e0142;fill-opacity:0.6;stroke:#000000;stroke-opacity:0.6;stroke-width:0.3;" x="257.683397747" xlink:href="#C3_0_483d1e1a4f" y="184.352139404"/>
    </g>
    <g clip-path="url(#p5a67343740)">
     <use style="fill:#ffffbf;fill-opacity:0.6;stroke:#000000;stroke-opacity:0.6;stroke-width:0.3;" x="164.494004323" xlink:href="#C3_0_483d1e1a4f" y="193.800881628"/>
    </g>
    <g clip-path="url(#p5a67343740)">
     <use style="fill:#89d0a5;fill-opacity:0.6;stroke:#000000;stroke-opacity:0.6;stroke-width:0.3;" x="296.12324964" xlink:href="#C3_0_483d1e1a4f" y="236.521592453"/>
    </g>
    <g clip-path="url(#p5a67343740)">
     <use style="fill:#89d0a5;fill-opacity:0.6;stroke:#000000;stroke-opacity:0.6;stroke-width:0.3;" x="316.783959845" xlink:href="#C3_0_483d1e1a4f" y="203.863350711"/>
    </g>
    <g clip-path="url(#p5a67343740)">
     <use style="fill:#ffffbf;fill-opacity:0.6;stroke:#000000;stroke-opacity:0.6;stroke-width:0.3;" x="163.919195445" xlink:href="#C3_0_483d1e1a4f" y="287.402374603"/>
    </g>
    <g clip-path="url(#p5a67343740)">
     <use style="fill:#f98e52;fill-opacity:0.6;stroke:#000000;stroke-opacity:0.6;stroke-width:0.3;" x="253.840068936" xlink:href="#C3_0_483d1e1a4f" y="284.81053551"/>
    </g>
    <g clip-path="url(#p5a67343740)">
     <use style="fill:#5e4fa2;fill-opacity:0.6;stroke:#000000;stroke-opacity:0.6;stroke-width:0.3;" x="214.670182712" xlink:href="#C3_0_483d1e1a4f" y="182.719585122"/>
    </g>
    <g clip-path="url(#p5a67343740)">
     <use style="fill:#ffffbf;fill-opacity:0.6;stroke:#000000;stroke-opacity:0.6;stroke-width:0.3;" x="148.072313116" xlink:href="#C3_0_483d1e1a4f" y="261.17758852"/>
    </g>
    <g clip-path="url(#p5a67343740)">
     <use style="fill:#9e0142;fill-opacity:0.6;stroke:#000000;stroke-opacity:0.6;stroke-width:0.3;" x="324.449676235" xlink:href="#C3_0_483d1e1a4f" y="156.681986529"/>
    </g>
    <g clip-path="url(#p5a67343740)">
     <use style="fill:#9e0142;fill-opacity:0.6;stroke:#000000;stroke-opacity:0.6;stroke-width:0.3;" x="324.075793097" xlink:href="#C3_0_483d1e1a4f" y="233.374444373"/>
    </g>
    <g clip-path="url(#p5a67343740)">
     <use style="fill:#5e4fa2;fill-opacity:0.6;stroke:#000000;stroke-opacity:0.6;stroke-width:0.3;" x="230.97776698" xlink:href="#C3_0_483d1e1a4f" y="215.530801588"/>
    </g>
    <g clip-path="url(#p5a67343740)">
     <use style="fill:#5e4fa2;fill-opacity:0.6;stroke:#000000;stroke-opacity:0.6;stroke-width:0.3;" x="201.421844955" xlink:href="#C3_0_483d1e1a4f" y="161.819259383"/>
    </g>
    <g clip-path="url(#p5a67343740)">
     <use style="fill:#5e4fa2;fill-opacity:0.6;stroke:#000000;stroke-opacity:0.6;stroke-width:0.3;" x="233.065646781" xlink:href="#C3_0_483d1e1a4f" y="164.874813277"/>
    </g>
    <g clip-path="url(#p5a67343740)">
     <use style="fill:#f98e52;fill-opacity:0.6;stroke:#000000;stroke-opacity:0.6;stroke-width:0.3;" x="230.739205733" xlink:href="#C3_0_483d1e1a4f" y="273.334707565"/>
    </g>
    <g clip-path="url(#p5a67343740)">
     <use style="fill:#ffffbf;fill-opacity:0.6;stroke:#000000;stroke-opacity:0.6;stroke-width:0.3;" x="155.010965506" xlink:href="#C3_0_483d1e1a4f" y="273.608038084"/>
    </g>
    <g clip-path="url(#p5a67343740)">
     <use style="fill:#9e0142;fill-opacity:0.6;stroke:#000000;stroke-opacity:0.6;stroke-width:0.3;" x="317.260207897" xlink:href="#C3_0_483d1e1a4f" y="188.642584801"/>
    </g>
    <g clip-path="url(#p5a67343740)">
     <use style="fill:#f98e52;fill-opacity:0.6;stroke:#000000;stroke-opacity:0.6;stroke-width:0.3;" x="205.541880655" xlink:href="#C3_0_483d1e1a4f" y="270.209478157"/>
    </g>
    <g clip-path="url(#p5a67343740)">
     <use style="fill:#89d0a5;fill-opacity:0.6;stroke:#000000;stroke-opacity:0.6;stroke-width:0.3;" x="300.179621391" xlink:href="#C3_0_483d1e1a4f" y="179.9849878"/>
    </g>
    <g clip-path="url(#p5a67343740)">
     <use style="fill:#f98e52;fill-opacity:0.6;stroke:#000000;stroke-opacity:0.6;stroke-width:0.3;" x="201.463509172" xlink:href="#C3_0_483d1e1a4f" y="295.469657505"/>
    </g>
    <g clip-path="url(#p5a67343740)">
     <use style="fill:#5e4fa2;fill-opacity:0.6;stroke:#000000;stroke-opacity:0.6;stroke-width:0.3;" x="222.556334256" xlink:href="#C3_0_483d1e1a4f" y="247.793166599"/>
    </g>
    <g clip-path="url(#p5a67343740)">
     <use style="fill:#89d0a5;fill-opacity:0.6;stroke:#000000;stroke-opacity:0.6;stroke-width:0.3;" x="286.233151232" xlink:href="#C3_0_483d1e1a4f" y="244.50263169"/>
    </g>
    <g clip-path="url(#p5a67343740)">
     <use style="fill:#9e0142;fill-opacity:0.6;stroke:#000000;stroke-opacity:0.6;stroke-width:0.3;" x="279.649420107" xlink:href="#C3_0_483d1e1a4f" y="177.725013772"/>
    </g>
    <g clip-path="url(#p5a67343740)">
     <use style="fill:#9e0142;fill-opacity:0.6;stroke:#000000;stroke-opacity:0.6;stroke-width:0.3;" x="329.532236148" xlink:href="#C3_0_483d1e1a4f" y="185.865463176"/>
    </g>
    <g clip-path="url(#p5a67343740)">
     <use style="fill:#9e0142;fill-opacity:0.6;stroke:#000000;stroke-opacity:0.6;stroke-width:0.3;" x="299.686829236" xlink:href="#C3_0_483d1e1a4f" y="239.729569831"/>
    </g>
    <g clip-path="url(#p5a67343740)">
     <use style="fill:#ffffbf;fill-opacity:0.6;stroke:#000000;stroke-opacity:0.6;stroke-width:0.3;" x="158.979009506" xlink:href="#C3_0_483d1e1a4f" y="205.291016118"/>
    </g>
    <g clip-path="url(#p5a67343740)">
     <use style="fill:#5e4fa2;fill-opacity:0.6;stroke:#000000;stroke-opacity:0.6;stroke-width:0.3;" x="230.96602777" xlink:href="#C3_0_483d1e1a4f" y="216.870294493"/>
    </g>
    <g clip-path="url(#p5a67343740)">
     <use style="fill:#9e0142;fill-opacity:0.6;stroke:#000000;stroke-opacity:0.6;stroke-width:0.3;" x="301.55315776" xlink:href="#C3_0_483d1e1a4f" y="180.618071701"/>
    </g>
    <g clip-path="url(#p5a67343740)">
     <use style="fill:#f98e52;fill-opacity:0.6;stroke:#000000;stroke-opacity:0.6;stroke-width:0.3;" x="209.231336945" xlink:href="#C3_0_483d1e1a4f" y="294.177483734"/>
    </g>
    <g clip-path="url(#p5a67343740)">
     <use style="fill:#f98e52;fill-opacity:0.6;stroke:#000000;stroke-opacity:0.6;stroke-width:0.3;" x="267.097086252" xlink:href="#C3_0_483d1e1a4f" y="270.23060312"/>
    </g>
    <g clip-path="url(#p5a67343740)">
     <use style="fill:#89d0a5;fill-opacity:0.6;stroke:#000000;stroke-opacity:0.6;stroke-width:0.3;" x="281.800332573" xlink:href="#C3_0_483d1e1a4f" y="254.471471718"/>
    </g>
    <g clip-path="url(#p5a67343740)">
     <use style="fill:#89d0a5;fill-opacity:0.6;stroke:#000000;stroke-opacity:0.6;stroke-width:0.3;" x="292.066956297" xlink:href="#C3_0_483d1e1a4f" y="219.813406449"/>
    </g>
    <g clip-path="url(#p5a67343740)">
     <use style="fill:#9e0142;fill-opacity:0.6;stroke:#000000;stroke-opacity:0.6;stroke-width:0.3;" x="267.741404902" xlink:href="#C3_0_483d1e1a4f" y="208.457660852"/>
    </g>
    <g clip-path="url(#p5a67343740)">
     <use style="fill:#9e0142;fill-opacity:0.6;stroke:#000000;stroke-opacity:0.6;stroke-width:0.3;" x="363.519130116" xlink:href="#C3_0_483d1e1a4f" y="199.477679333"/>
    </g>
    <g clip-path="url(#p5a67343740)">
     <use style="fill:#ffffbf;fill-opacity:0.6;stroke:#000000;stroke-opacity:0.6;stroke-width:0.3;" x="171.00891015" xlink:href="#C3_0_483d1e1a4f" y="189.717728139"/>
    </g>
    <g clip-path="url(#p5a67343740)">
     <use style="fill:#ffffbf;fill-opacity:0.6;stroke:#000000;stroke-opacity:0.6;stroke-width:0.3;" x="138.140039799" xlink:href="#C3_0_483d1e1a4f" y="224.029851"/>
    </g>
    <g clip-path="url(#p5a67343740)">
     <use style="fill:#5e4fa2;fill-opacity:0.6;stroke:#000000;stroke-opacity:0.6;stroke-width:0.3;" x="202.332904328" xlink:href="#C3_0_483d1e1a4f" y="223.342897108"/>
    </g>
    <g clip-path="url(#p5a67343740)">
     <use style="fill:#f98e52;fill-opacity:0.6;stroke:#000000;stroke-opacity:0.6;stroke-width:0.3;" x="234.671202771" xlink:href="#C3_0_483d1e1a4f" y="220.82911219"/>
    </g>
    <g clip-path="url(#p5a67343740)">
     <use style="fill:#9e0142;fill-opacity:0.6;stroke:#000000;stroke-opacity:0.6;stroke-width:0.3;" x="327.962438276" xlink:href="#C3_0_483d1e1a4f" y="236.729371074"/>
    </g>
    <g clip-path="url(#p5a67343740)">
     <use style="fill:#9e0142;fill-opacity:0.6;stroke:#000000;stroke-opacity:0.6;stroke-width:0.3;" x="371.141983022" xlink:href="#C3_0_483d1e1a4f" y="198.060237898"/>
    </g>
    <g clip-path="url(#p5a67343740)">
     <use style="fill:#f98e52;fill-opacity:0.6;stroke:#000000;stroke-opacity:0.6;stroke-width:0.3;" x="223.941270234" xlink:href="#C3_0_483d1e1a4f" y="222.873049659"/>
    </g>
    <g clip-path="url(#p5a67343740)">
     <use style="fill:#9e0142;fill-opacity:0.6;stroke:#000000;stroke-opacity:0.6;stroke-width:0.3;" x="326.187756322" xlink:href="#C3_0_483d1e1a4f" y="204.557981316"/>
    </g>
    <g clip-path="url(#p5a67343740)">
     <use style="fill:#f98e52;fill-opacity:0.6;stroke:#000000;stroke-opacity:0.6;stroke-width:0.3;" x="249.141831616" xlink:href="#C3_0_483d1e1a4f" y="264.661290468"/>
    </g>
    <g clip-path="url(#p5a67343740)">
     <use style="fill:#89d0a5;fill-opacity:0.6;stroke:#000000;stroke-opacity:0.6;stroke-width:0.3;" x="253.359814745" xlink:href="#C3_0_483d1e1a4f" y="266.71608982"/>
    </g>
    <g clip-path="url(#p5a67343740)">
     <use style="fill:#ffffbf;fill-opacity:0.6;stroke:#000000;stroke-opacity:0.6;stroke-width:0.3;" x="163.037247657" xlink:href="#C3_0_483d1e1a4f" y="187.975375538"/>
    </g>
    <g clip-path="url(#p5a67343740)">
     <use style="fill:#ffffbf;fill-opacity:0.6;stroke:#000000;stroke-opacity:0.6;stroke-width:0.3;" x="139.815953211" xlink:href="#C3_0_483d1e1a4f" y="216.413066745"/>
    </g>
    <g clip-path="url(#p5a67343740)">
     <use style="fill:#5e4fa2;fill-opacity:0.6;stroke:#000000;stroke-opacity:0.6;stroke-width:0.3;" x="198.813748019" xlink:href="#C3_0_483d1e1a4f" y="212.812792695"/>
    </g>
    <g clip-path="url(#p5a67343740)">
     <use style="fill:#5e4fa2;fill-opacity:0.6;stroke:#000000;stroke-opacity:0.6;stroke-width:0.3;" x="199.345861809" xlink:href="#C3_0_483d1e1a4f" y="173.36030982"/>
    </g>
    <g clip-path="url(#p5a67343740)">
     <use style="fill:#5e4fa2;fill-opacity:0.6;stroke:#000000;stroke-opacity:0.6;stroke-width:0.3;" x="222.600060278" xlink:href="#C3_0_483d1e1a4f" y="133.680899724"/>
    </g>
    <g clip-path="url(#p5a67343740)">
     <use style="fill:#ffffbf;fill-opacity:0.6;stroke:#000000;stroke-opacity:0.6;stroke-width:0.3;" x="177.500274901" xlink:href="#C3_0_483d1e1a4f" y="254.815007649"/>
    </g>
    <g clip-path="url(#p5a67343740)">
     <use style="fill:#89d0a5;fill-opacity:0.6;stroke:#000000;stroke-opacity:0.6;stroke-width:0.3;" x="316.659273571" xlink:href="#C3_0_483d1e1a4f" y="232.649447539"/>
    </g>
    <g clip-path="url(#p5a67343740)">
     <use style="fill:#f98e52;fill-opacity:0.6;stroke:#000000;stroke-opacity:0.6;stroke-width:0.3;" x="233.778198417" xlink:href="#C3_0_483d1e1a4f" y="306.926601691"/>
    </g>
    <g clip-path="url(#p5a67343740)">
     <use style="fill:#f98e52;fill-opacity:0.6;stroke:#000000;stroke-opacity:0.6;stroke-width:0.3;" x="292.650645146" xlink:href="#C3_0_483d1e1a4f" y="266.601307571"/>
    </g>
   </g>
  </g>
 </g>
 <defs>
  <clipPath id="p5a67343740">
   <rect height="432.0" width="576.0" x="0.0" y="0.0"/>
  </clipPath>
 </defs>
</svg>
